<svg width="60" height="60" viewBox="0 0 60 60" fill="none" xmlns="http://www.w3.org/2000/svg">
<g id="Group 1000003922">
<path id="Vector" d="M30 60C46.5685 60 60 46.5685 60 30C60 13.4315 46.5685 0 30 0C13.4315 0 0 13.4315 0 30C0 46.5685 13.4315 60 30 60Z" fill="#F1F8FF"/>
<g id="Group 1000003921">
<g id="Vector_2">
<mask id="path-2-outside-1_2286_78" maskUnits="userSpaceOnUse" x="21.9382" y="13" width="16" height="16" fill="black">
<rect fill="white" x="21.9382" y="13" width="16" height="16"/>
<path d="M24.3111 22.6487H24.8319C24.9085 22.6485 24.9832 22.6723 25.0456 22.7167C25.108 22.7612 25.1549 22.8241 25.1797 22.8966C25.2568 23.125 25.349 23.348 25.4557 23.5642C25.4888 23.6323 25.4998 23.7089 25.4873 23.7836C25.4748 23.8582 25.4394 23.9272 25.3859 23.9808L25.0214 24.3453C24.9525 24.4144 24.9137 24.508 24.9137 24.6056C24.9137 24.7033 24.9525 24.7969 25.0214 24.866L26.5191 26.3647C26.5882 26.4337 26.6818 26.4724 26.7794 26.4724C26.8771 26.4724 26.9707 26.4337 27.0398 26.3647L27.4043 26.0002C27.458 25.9469 27.5268 25.9114 27.6014 25.8987C27.676 25.8861 27.7527 25.8968 27.8209 25.9294C28.0367 26.0373 28.2598 26.1298 28.4885 26.2064C28.5611 26.2311 28.6241 26.278 28.6685 26.3404C28.713 26.4028 28.7368 26.4776 28.7364 26.5543V27.0688C28.7363 27.1171 28.7457 27.1651 28.7641 27.2098C28.7825 27.2545 28.8096 27.2952 28.8437 27.3294C28.8779 27.3637 28.9184 27.3908 28.9631 27.4094C29.0078 27.4279 29.0557 27.4375 29.104 27.4375H31.2235C31.2718 27.4375 31.3197 27.4279 31.3644 27.4094C31.4091 27.3908 31.4497 27.3637 31.4838 27.3294C31.518 27.2952 31.545 27.2545 31.5634 27.2098C31.5818 27.1651 31.5913 27.1171 31.5911 27.0688V26.5543C31.5908 26.4776 31.6145 26.4028 31.659 26.3404C31.7034 26.278 31.7664 26.2311 31.839 26.2064C32.0677 26.1298 32.2908 26.0373 32.5066 25.9294C32.5755 25.8956 32.6532 25.8842 32.7289 25.8969C32.8046 25.9096 32.8743 25.9457 32.9284 26.0002L33.2919 26.3647C33.3611 26.4334 33.4547 26.472 33.5522 26.472C33.6498 26.472 33.7434 26.4334 33.8126 26.3647L35.3103 24.866C35.3792 24.7969 35.4179 24.7033 35.4179 24.6056C35.4179 24.508 35.3792 24.4144 35.3103 24.3453L34.9458 23.9808C34.8924 23.9271 34.857 23.8583 34.8443 23.7837C34.8316 23.7091 34.8423 23.6324 34.8749 23.5642C34.9824 23.3482 35.075 23.1252 35.152 22.8966C35.1768 22.8241 35.2237 22.7612 35.2861 22.7167C35.3485 22.6723 35.4232 22.6485 35.4998 22.6487H36.0154C36.0637 22.6487 36.1116 22.6391 36.1563 22.6206C36.201 22.6021 36.2415 22.5749 36.2757 22.5406C36.3098 22.5064 36.3369 22.4657 36.3553 22.421C36.3737 22.3763 36.3831 22.3284 36.383 22.28V20.1616C36.383 20.064 36.3443 19.9704 36.2754 19.9013C36.2065 19.8322 36.113 19.7932 36.0154 19.7929H35.5009C35.4244 19.7931 35.3498 19.7694 35.2875 19.7251C35.2251 19.6809 35.1781 19.6183 35.153 19.5461C35.0764 19.3173 34.9839 19.0943 34.876 18.8785C34.8437 18.8102 34.8331 18.7336 34.8458 18.6591C34.8584 18.5845 34.8937 18.5157 34.9468 18.4619L35.3113 18.0974C35.3803 18.0283 35.419 17.9346 35.419 17.837C35.419 17.7394 35.3803 17.6458 35.3113 17.5766L33.8137 16.0727C33.7444 16.004 33.6508 15.9655 33.5533 15.9655C33.4557 15.9655 33.3622 16.004 33.2929 16.0727L32.9294 16.4373C32.8754 16.4917 32.8056 16.5278 32.7299 16.5406C32.6543 16.5533 32.5765 16.5419 32.5076 16.5081C32.2917 16.4006 32.0686 16.3081 31.84 16.231C31.7675 16.2064 31.7045 16.1595 31.66 16.0971C31.6155 16.0347 31.5918 15.9598 31.5922 15.8832V15.3687C31.5922 15.2711 31.5535 15.1775 31.4845 15.1084C31.4156 15.0392 31.3221 15.0003 31.2245 15H29.104C29.0064 15.0003 28.9129 15.0392 28.844 15.1084C28.7751 15.1775 28.7364 15.2711 28.7364 15.3687V15.8832C28.7368 15.9598 28.713 16.0347 28.6685 16.0971C28.6241 16.1595 28.5611 16.2064 28.4885 16.231C28.2599 16.3081 28.0369 16.4006 27.8209 16.5081C27.7527 16.5407 27.676 16.5514 27.6014 16.5387C27.5268 16.526 27.458 16.4906 27.4043 16.4373L27.0398 16.0727C26.9707 16.0038 26.8771 15.9651 26.7794 15.9651C26.6818 15.9651 26.5882 16.0038 26.5191 16.0727L25.0162 17.5735C24.9473 17.6426 24.9085 17.7363 24.9085 17.8339C24.9085 17.9315 24.9473 18.0251 25.0162 18.0943L25.3807 18.4588C25.4339 18.5125 25.4691 18.5814 25.4816 18.656C25.4941 18.7306 25.4833 18.8072 25.4505 18.8754C25.3434 19.0914 25.2512 19.3144 25.1745 19.543C25.1494 19.6152 25.1024 19.6778 25.04 19.722C24.9777 19.7662 24.9031 19.7899 24.8266 19.7898H24.3059C24.2083 19.7901 24.1148 19.829 24.0459 19.8982C23.977 19.9673 23.9383 20.0609 23.9383 20.1585V22.2769C23.9377 22.326 23.947 22.3746 23.9655 22.4201C23.9841 22.4655 24.0115 22.5068 24.0463 22.5414C24.081 22.5761 24.1224 22.6034 24.1678 22.6218C24.2133 22.6403 24.262 22.6494 24.3111 22.6487ZM30.1684 18.3151C30.7434 18.3149 31.3056 18.4852 31.7838 18.8045C32.2619 19.1238 32.6347 19.5778 32.8548 20.109C33.075 20.6402 33.1326 21.2247 33.0205 21.7887C32.9084 22.3526 32.6315 22.8707 32.2249 23.2773C31.8183 23.6839 31.3003 23.9607 30.7363 24.0728C30.1724 24.185 29.5878 24.1273 29.0566 23.9072C28.5254 23.687 28.0715 23.3143 27.7521 22.8361C27.4328 22.358 27.2625 21.7958 27.2627 21.2208C27.2627 20.4502 27.5688 19.7111 28.1138 19.1661C28.6587 18.6212 29.3978 18.3151 30.1684 18.3151Z"/>
</mask>
<path d="M24.3111 22.6487H24.8319C24.9085 22.6485 24.9832 22.6723 25.0456 22.7167C25.108 22.7612 25.1549 22.8241 25.1797 22.8966C25.2568 23.125 25.349 23.348 25.4557 23.5642C25.4888 23.6323 25.4998 23.7089 25.4873 23.7836C25.4748 23.8582 25.4394 23.9272 25.3859 23.9808L25.0214 24.3453C24.9525 24.4144 24.9137 24.508 24.9137 24.6056C24.9137 24.7033 24.9525 24.7969 25.0214 24.866L26.5191 26.3647C26.5882 26.4337 26.6818 26.4724 26.7794 26.4724C26.8771 26.4724 26.9707 26.4337 27.0398 26.3647L27.4043 26.0002C27.458 25.9469 27.5268 25.9114 27.6014 25.8987C27.676 25.8861 27.7527 25.8968 27.8209 25.9294C28.0367 26.0373 28.2598 26.1298 28.4885 26.2064C28.5611 26.2311 28.6241 26.278 28.6685 26.3404C28.713 26.4028 28.7368 26.4776 28.7364 26.5543V27.0688C28.7363 27.1171 28.7457 27.1651 28.7641 27.2098C28.7825 27.2545 28.8096 27.2952 28.8437 27.3294C28.8779 27.3637 28.9184 27.3908 28.9631 27.4094C29.0078 27.4279 29.0557 27.4375 29.104 27.4375H31.2235C31.2718 27.4375 31.3197 27.4279 31.3644 27.4094C31.4091 27.3908 31.4497 27.3637 31.4838 27.3294C31.518 27.2952 31.545 27.2545 31.5634 27.2098C31.5818 27.1651 31.5913 27.1171 31.5911 27.0688V26.5543C31.5908 26.4776 31.6145 26.4028 31.659 26.3404C31.7034 26.278 31.7664 26.2311 31.839 26.2064C32.0677 26.1298 32.2908 26.0373 32.5066 25.9294C32.5755 25.8956 32.6532 25.8842 32.7289 25.8969C32.8046 25.9096 32.8743 25.9457 32.9284 26.0002L33.2919 26.3647C33.3611 26.4334 33.4547 26.472 33.5522 26.472C33.6498 26.472 33.7434 26.4334 33.8126 26.3647L35.3103 24.866C35.3792 24.7969 35.4179 24.7033 35.4179 24.6056C35.4179 24.508 35.3792 24.4144 35.3103 24.3453L34.9458 23.9808C34.8924 23.9271 34.857 23.8583 34.8443 23.7837C34.8316 23.7091 34.8423 23.6324 34.8749 23.5642C34.9824 23.3482 35.075 23.1252 35.152 22.8966C35.1768 22.8241 35.2237 22.7612 35.2861 22.7167C35.3485 22.6723 35.4232 22.6485 35.4998 22.6487H36.0154C36.0637 22.6487 36.1116 22.6391 36.1563 22.6206C36.201 22.6021 36.2415 22.5749 36.2757 22.5406C36.3098 22.5064 36.3369 22.4657 36.3553 22.421C36.3737 22.3763 36.3831 22.3284 36.383 22.28V20.1616C36.383 20.064 36.3443 19.9704 36.2754 19.9013C36.2065 19.8322 36.113 19.7932 36.0154 19.7929H35.5009C35.4244 19.7931 35.3498 19.7694 35.2875 19.7251C35.2251 19.6809 35.1781 19.6183 35.153 19.5461C35.0764 19.3173 34.9839 19.0943 34.876 18.8785C34.8437 18.8102 34.8331 18.7336 34.8458 18.6591C34.8584 18.5845 34.8937 18.5157 34.9468 18.4619L35.3113 18.0974C35.3803 18.0283 35.419 17.9346 35.419 17.837C35.419 17.7394 35.3803 17.6458 35.3113 17.5766L33.8137 16.0727C33.7444 16.004 33.6508 15.9655 33.5533 15.9655C33.4557 15.9655 33.3622 16.004 33.2929 16.0727L32.9294 16.4373C32.8754 16.4917 32.8056 16.5278 32.7299 16.5406C32.6543 16.5533 32.5765 16.5419 32.5076 16.5081C32.2917 16.4006 32.0686 16.3081 31.84 16.231C31.7675 16.2064 31.7045 16.1595 31.66 16.0971C31.6155 16.0347 31.5918 15.9598 31.5922 15.8832V15.3687C31.5922 15.2711 31.5535 15.1775 31.4845 15.1084C31.4156 15.0392 31.3221 15.0003 31.2245 15H29.104C29.0064 15.0003 28.9129 15.0392 28.844 15.1084C28.7751 15.1775 28.7364 15.2711 28.7364 15.3687V15.8832C28.7368 15.9598 28.713 16.0347 28.6685 16.0971C28.6241 16.1595 28.5611 16.2064 28.4885 16.231C28.2599 16.3081 28.0369 16.4006 27.8209 16.5081C27.7527 16.5407 27.676 16.5514 27.6014 16.5387C27.5268 16.526 27.458 16.4906 27.4043 16.4373L27.0398 16.0727C26.9707 16.0038 26.8771 15.9651 26.7794 15.9651C26.6818 15.9651 26.5882 16.0038 26.5191 16.0727L25.0162 17.5735C24.9473 17.6426 24.9085 17.7363 24.9085 17.8339C24.9085 17.9315 24.9473 18.0251 25.0162 18.0943L25.3807 18.4588C25.4339 18.5125 25.4691 18.5814 25.4816 18.656C25.4941 18.7306 25.4833 18.8072 25.4505 18.8754C25.3434 19.0914 25.2512 19.3144 25.1745 19.543C25.1494 19.6152 25.1024 19.6778 25.04 19.722C24.9777 19.7662 24.9031 19.7899 24.8266 19.7898H24.3059C24.2083 19.7901 24.1148 19.829 24.0459 19.8982C23.977 19.9673 23.9383 20.0609 23.9383 20.1585V22.2769C23.9377 22.326 23.947 22.3746 23.9655 22.4201C23.9841 22.4655 24.0115 22.5068 24.0463 22.5414C24.081 22.5761 24.1224 22.6034 24.1678 22.6218C24.2133 22.6403 24.262 22.6494 24.3111 22.6487ZM30.1684 18.3151C30.7434 18.3149 31.3056 18.4852 31.7838 18.8045C32.2619 19.1238 32.6347 19.5778 32.8548 20.109C33.075 20.6402 33.1326 21.2247 33.0205 21.7887C32.9084 22.3526 32.6315 22.8707 32.2249 23.2773C31.8183 23.6839 31.3003 23.9607 30.7363 24.0728C30.1724 24.185 29.5878 24.1273 29.0566 23.9072C28.5254 23.687 28.0715 23.3143 27.7521 22.8361C27.4328 22.358 27.2625 21.7958 27.2627 21.2208C27.2627 20.4502 27.5688 19.7111 28.1138 19.1661C28.6587 18.6212 29.3978 18.3151 30.1684 18.3151Z" stroke="#1AA3FF" stroke-width="3" stroke-miterlimit="10" mask="url(#path-2-outside-1_2286_78)"/>
</g>
<path id="Vector_3" d="M25.5261 30.9615L26.0241 30.4008L25.4634 29.9027L24.4657 29.0164L23.9049 28.5183L23.4068 29.0792L18.1163 35.037C17.0126 34.5546 15.7772 34.4376 14.5934 34.7132C13.2077 35.0357 11.996 35.8722 11.2031 37.0535C10.4102 38.2348 10.0952 39.673 10.3216 41.0777C10.548 42.4823 11.2991 43.7487 12.423 44.621L12.8829 44.0285L12.423 44.621C13.547 45.4933 14.9601 45.9066 16.377 45.7774C17.7938 45.6482 19.1089 44.9862 20.0565 43.9249C21.0042 42.8637 21.5138 41.4824 21.4824 40.0599C21.4562 38.8731 21.0551 37.7315 20.3458 36.7943L25.5261 30.9615Z" stroke="#1AA3FF" stroke-width="1.5" stroke-miterlimit="10"/>
<path id="Vector_4" d="M39.94 36.448L34.7891 30.6531L34.2909 30.0927L34.8512 29.5944L35.8479 28.7081L36.4086 28.2095L36.907 28.7704L42.3222 34.8656C42.905 34.6657 43.518 34.5632 44.1367 34.5634L39.94 36.448ZM39.94 36.448C39.2421 37.2333 38.7749 38.2031 38.5996 39.2494C38.3819 40.5487 38.6281 41.8832 39.2951 43.0193C39.9621 44.1554 41.0074 45.0208 42.2481 45.4638C43.4888 45.9069 44.8458 45.8995 46.0816 45.443C47.3174 44.9864 48.3533 44.1098 49.0079 42.9665C49.6625 41.8232 49.8942 40.4861 49.6623 39.1892C49.4305 37.8924 48.7499 36.7183 47.7398 35.8726C46.7296 35.027 45.4543 34.5635 44.1369 34.5634L39.94 36.448Z" stroke="#1AA3FF" stroke-width="1.5" stroke-miterlimit="10"/>
<path id="Vector_5" d="M31.4122 31.0614V30.3114H30.6622H29.3281H28.5781V31.0614V34.792C27.4297 35.1302 26.4136 35.8289 25.6852 36.7929C24.828 37.9275 24.4333 39.3451 24.5809 40.7595C24.7284 42.1738 25.4072 43.4795 26.4802 44.4127C27.5531 45.3459 28.9402 45.8372 30.3614 45.7873C31.7825 45.7374 33.1318 45.15 34.1366 44.1437C35.1414 43.1375 35.7269 41.7875 35.7749 40.3663C35.8228 38.945 35.3296 37.5586 34.3949 36.487C33.6105 35.5877 32.5643 34.9664 31.4122 34.7037V31.0614Z" stroke="#1AA3FF" stroke-width="1.5" stroke-miterlimit="10"/>
</g>
</g>
</svg>
