<svg width="60" height="60" viewBox="0 0 60 60" fill="none" xmlns="http://www.w3.org/2000/svg">
<g id="Group 1000003920">
<path id="Vector" d="M30 60C46.5685 60 60 46.5685 60 30C60 13.4315 46.5685 0 30 0C13.4315 0 0 13.4315 0 30C0 46.5685 13.4315 60 30 60Z" fill="#F1F8FF"/>
<g id="Group 1000003919">
<path id="Vector_2" d="M37.5757 29.2109H22.5294C20.5802 29.2109 19 30.7911 19 32.7403V41.4709C19 43.4202 20.5802 45.0003 22.5294 45.0003H37.5757C39.5249 45.0003 41.1051 43.4202 41.1051 41.4709V32.7403C41.1051 30.7911 39.5249 29.2109 37.5757 29.2109Z" stroke="#1AA3FF" stroke-width="2" stroke-linecap="round" stroke-linejoin="round"/>
<path id="Vector_3" d="M22.158 29.2104V22.8947C22.158 18.5346 25.6925 15 30.0527 15C34.4127 15 37.9474 18.5346 37.9474 22.8947V29.2104" stroke="#1AA3FF" stroke-width="2" stroke-linecap="round" stroke-linejoin="round"/>
</g>
</g>
</svg>
