<svg width="60" height="60" viewBox="0 0 60 60" fill="none" xmlns="http://www.w3.org/2000/svg">
<g id="Group 1000003918">
<path id="Vector" d="M30 60C46.5685 60 60 46.5685 60 30C60 13.4315 46.5685 0 30 0C13.4315 0 0 13.4315 0 30C0 46.5685 13.4315 60 30 60Z" fill="#F1F8FF"/>
<g id="Group 1000003917">
<path id="Vector_2" d="M27.8016 34.7125V37.6906H23.3875V40.2531H35.7375V37.6906H31.3453V34.7125M22.4625 19H36.6641V26.9922C36.6641 30.8109 33.5641 33.9125 29.7438 33.9125H29.3812C25.5625 33.9125 22.4609 30.8125 22.4609 26.9922V19H22.4625Z" stroke="#1AA3FF" stroke-width="1.5" stroke-linecap="round" stroke-linejoin="round"/>
<path id="Vector_3" d="M22.3468 21.7256H18.064C18.064 21.7256 17.0593 28.6896 23.014 29.7396M36.778 21.7256H41.0608C41.0608 21.7256 42.0655 28.6896 36.1108 29.7396" stroke="#1AA3FF" stroke-width="1.5" stroke-linecap="round" stroke-linejoin="round"/>
<path id="Vector_4" d="M29.5625 22.3174L30.7703 24.7643L33.4688 25.1564L31.5156 27.0596L31.9766 29.7486L29.5625 28.4783L27.1484 29.7486L27.6094 27.0596L25.6562 25.1564L28.3547 24.7643L29.5625 22.3174Z" stroke="#1AA3FF" stroke-width="1.5" stroke-linejoin="round"/>
</g>
</g>
</svg>
