<svg width="60" height="60" viewBox="0 0 60 60" fill="none" xmlns="http://www.w3.org/2000/svg">
<circle cx="30" cy="30" r="30" fill="#FF6F00"/>
<path d="M26.9236 38.5459C26.8218 38.2477 26.7164 37.9532 26.6073 37.6623C26.4982 37.3714 26.3927 37.0732 26.2909 36.7677H23.1055C23.0036 37.0732 22.8982 37.375 22.7891 37.6732C22.6873 37.9641 22.5855 38.255 22.4836 38.5459H21.0545C21.3382 37.7386 21.6073 36.9932 21.8618 36.3095C22.1164 35.6259 22.3636 34.9786 22.6036 34.3677C22.8509 33.7568 23.0945 33.175 23.3345 32.6223C23.5745 32.0695 23.8218 31.5241 24.0764 30.9859H25.3745C25.6291 31.5241 25.8764 32.0695 26.1164 32.6223C26.3564 33.175 26.5964 33.7568 26.8364 34.3677C27.0836 34.9786 27.3345 35.6259 27.5891 36.3095C27.8509 36.9932 28.1236 37.7386 28.4073 38.5459H26.9236ZM24.6982 32.4477C24.5309 32.8332 24.3382 33.3023 24.12 33.855C23.9091 34.4077 23.6873 35.0077 23.4545 35.655H25.9418C25.7091 35.0077 25.4836 34.4041 25.2655 33.8441C25.0473 33.2841 24.8582 32.8186 24.6982 32.4477Z" fill="white"/>
<path d="M33.9355 29.3597C33.5355 29.3597 33.1318 29.3452 32.7245 29.3161C32.3173 29.2943 31.9609 29.2434 31.6555 29.1634V21.8216C31.8155 21.7925 31.9864 21.767 32.1682 21.7452C32.35 21.7161 32.5355 21.6943 32.7245 21.6797C32.9136 21.6652 33.0991 21.6543 33.2809 21.647C33.47 21.6397 33.6482 21.6361 33.8155 21.6361C34.2736 21.6361 34.6991 21.6725 35.0918 21.7452C35.4845 21.8106 35.8227 21.9234 36.1064 22.0834C36.3973 22.2434 36.6227 22.4543 36.7827 22.7161C36.9427 22.9779 37.0227 23.3016 37.0227 23.687C37.0227 24.0434 36.9355 24.3488 36.7609 24.6034C36.5936 24.8579 36.3573 25.0616 36.0518 25.2143C36.51 25.367 36.8482 25.5925 37.0664 25.8906C37.2845 26.1888 37.3936 26.567 37.3936 27.0252C37.3936 27.8034 37.11 28.3888 36.5427 28.7816C35.9755 29.167 35.1064 29.3597 33.9355 29.3597ZM33.0082 25.8688V28.1706C33.1609 28.1852 33.3245 28.1961 33.4991 28.2034C33.6736 28.2106 33.8336 28.2143 33.9791 28.2143C34.2627 28.2143 34.5245 28.1961 34.7645 28.1597C35.0118 28.1234 35.2227 28.0616 35.3973 27.9743C35.5791 27.8797 35.7209 27.7561 35.8227 27.6034C35.9318 27.4506 35.9864 27.2543 35.9864 27.0143C35.9864 26.5852 35.83 26.287 35.5173 26.1197C35.2045 25.9525 34.7718 25.8688 34.2191 25.8688H33.0082ZM33.0082 24.7888H33.9791C34.5027 24.7888 34.9136 24.7161 35.2118 24.5706C35.51 24.4179 35.6591 24.1488 35.6591 23.7634C35.6591 23.3997 35.5027 23.1416 35.19 22.9888C34.8845 22.8361 34.4845 22.7597 33.99 22.7597C33.7791 22.7597 33.59 22.7634 33.4227 22.7706C33.2627 22.7779 33.1245 22.7888 33.0082 22.8034V24.7888Z" fill="white"/>
<path d="M44.9996 35.4541C44.9996 40.7314 40.7314 44.9996 35.4541 44.9996L36.8859 42.6132" stroke="white" stroke-width="2.04545" stroke-linecap="round" stroke-linejoin="round"/>
<path d="M15 24.5455C15 19.2682 19.2682 15 24.5455 15L23.1136 17.3864" stroke="white" stroke-width="2.04545" stroke-linecap="round" stroke-linejoin="round"/>
<path d="M33.8859 34.5826C33.8859 39.2326 30.1223 42.9963 25.4722 42.9963C20.8222 42.9963 17.0586 39.2326 17.0586 34.5826C17.0586 29.9326 20.8222 26.1689 25.4722 26.1689C25.6904 26.1689 25.895 26.1826 26.1268 26.1962C30.2586 26.5099 33.5586 29.8099 33.8723 33.9417C33.8723 34.1463 33.8859 34.3508 33.8859 34.5826Z" stroke="white" stroke-width="2.04545" stroke-miterlimit="10" stroke-linecap="round" stroke-linejoin="round"/>
<path d="M42.9553 25.5005C42.9553 30.1506 39.1916 33.9142 34.5416 33.9142H33.8734C33.5598 29.7824 30.2598 26.4823 26.1279 26.1687V25.5005C26.1279 20.8505 29.8916 17.0869 34.5416 17.0869C39.1916 17.0869 42.9553 20.8505 42.9553 25.5005Z" stroke="white" stroke-width="2.04545" stroke-miterlimit="10" stroke-linecap="round" stroke-linejoin="round"/>
</svg>
