<svg width="60" height="60" viewBox="0 0 60 60" fill="none" xmlns="http://www.w3.org/2000/svg">
<circle cx="30" cy="30" r="30" fill="#FF6F00"/>
<path d="M26.9236 38.5459C26.8218 38.2477 26.7164 37.9532 26.6073 37.6623C26.4982 37.3714 26.3927 37.0732 26.2909 36.7677H23.1055C23.0036 37.0732 22.8982 37.375 22.7891 37.6732C22.6873 37.9641 22.5855 38.255 22.4836 38.5459H21.0545C21.3382 37.7386 21.6073 36.9932 21.8618 36.3095C22.1164 35.6259 22.3636 34.9786 22.6036 34.3677C22.8509 33.7568 23.0945 33.175 23.3345 32.6223C23.5745 32.0695 23.8218 31.5241 24.0764 30.9859H25.3745C25.6291 31.5241 25.8764 32.0695 26.1164 32.6223C26.3564 33.175 26.5964 33.7568 26.8364 34.3677C27.0836 34.9786 27.3345 35.6259 27.5891 36.3095C27.8509 36.9932 28.1236 37.7386 28.4073 38.5459H26.9236ZM24.6982 32.4477C24.5309 32.8332 24.3382 33.3023 24.12 33.855C23.9091 34.4077 23.6873 35.0077 23.4545 35.655H25.9418C25.7091 35.0077 25.4836 34.4041 25.2655 33.8441C25.0473 33.2841 24.8582 32.8186 24.6982 32.4477Z" fill="white"/>
<path d="M31.6555 29.2725V21.7125H36.51V22.8797H33.03V24.7452H36.1282V25.8906H33.03V28.1052H36.7718V29.2725H31.6555Z" fill="white"/>
<path d="M44.9996 35.4541C44.9996 40.7314 40.7314 44.9996 35.4541 44.9996L36.8859 42.6132" stroke="white" stroke-width="2.04545" stroke-linecap="round" stroke-linejoin="round"/>
<path d="M15 24.5455C15 19.2682 19.2682 15 24.5455 15L23.1136 17.3864" stroke="white" stroke-width="2.04545" stroke-linecap="round" stroke-linejoin="round"/>
<path d="M33.8859 34.5826C33.8859 39.2326 30.1223 42.9963 25.4722 42.9963C20.8222 42.9963 17.0586 39.2326 17.0586 34.5826C17.0586 29.9326 20.8222 26.1689 25.4722 26.1689C25.6904 26.1689 25.895 26.1826 26.1268 26.1962C30.2586 26.5099 33.5586 29.8099 33.8723 33.9417C33.8723 34.1463 33.8859 34.3508 33.8859 34.5826Z" stroke="white" stroke-width="2.04545" stroke-miterlimit="10" stroke-linecap="round" stroke-linejoin="round"/>
<path d="M42.9553 25.5005C42.9553 30.1506 39.1916 33.9142 34.5416 33.9142H33.8734C33.5598 29.7824 30.2598 26.4823 26.1279 26.1687V25.5005C26.1279 20.8505 29.8916 17.0869 34.5416 17.0869C39.1916 17.0869 42.9553 20.8505 42.9553 25.5005Z" stroke="white" stroke-width="2.04545" stroke-miterlimit="10" stroke-linecap="round" stroke-linejoin="round"/>
</svg>
