<svg width="60" height="60" viewBox="0 0 60 60" fill="none" xmlns="http://www.w3.org/2000/svg">
<circle cx="30" cy="30" r="30" fill="#FF6F00"/>
<path d="M26.9236 38.5459C26.8218 38.2477 26.7164 37.9532 26.6073 37.6623C26.4982 37.3714 26.3927 37.0732 26.2909 36.7677H23.1055C23.0036 37.0732 22.8982 37.375 22.7891 37.6732C22.6873 37.9641 22.5855 38.255 22.4836 38.5459H21.0545C21.3382 37.7386 21.6073 36.9932 21.8618 36.3095C22.1164 35.6259 22.3636 34.9786 22.6036 34.3677C22.8509 33.7568 23.0945 33.175 23.3345 32.6223C23.5745 32.0695 23.8218 31.5241 24.0764 30.9859H25.3745C25.6291 31.5241 25.8764 32.0695 26.1164 32.6223C26.3564 33.175 26.5964 33.7568 26.8364 34.3677C27.0836 34.9786 27.3345 35.6259 27.5891 36.3095C27.8509 36.9932 28.1236 37.7386 28.4073 38.5459H26.9236ZM24.6982 32.4477C24.5309 32.8332 24.3382 33.3023 24.12 33.855C23.9091 34.4077 23.6873 35.0077 23.4545 35.655H25.9418C25.7091 35.0077 25.4836 34.4041 25.2655 33.8441C25.0473 33.2841 24.8582 32.8186 24.6982 32.4477Z" fill="white"/>
<path d="M32.2803 21.7125C32.4403 21.9888 32.6184 22.327 32.8148 22.727C33.0112 23.127 33.2112 23.5488 33.4148 23.9925C33.6184 24.4288 33.8184 24.8761 34.0148 25.3343C34.2184 25.7852 34.4039 26.2034 34.5712 26.5888C34.7384 26.2034 34.9203 25.7852 35.1166 25.3343C35.313 24.8761 35.513 24.4288 35.7166 23.9925C35.9203 23.5488 36.1203 23.127 36.3166 22.727C36.513 22.327 36.6912 21.9888 36.8512 21.7125H38.0948C38.1603 22.2652 38.2221 22.8543 38.2803 23.4797C38.3384 24.0979 38.3894 24.7343 38.433 25.3888C38.4839 26.0361 38.5275 26.6906 38.5639 27.3525C38.6075 28.007 38.6439 28.647 38.673 29.2725H37.3203C37.2912 28.3925 37.2548 27.487 37.2112 26.5561C37.1748 25.6252 37.1166 24.7234 37.0366 23.8506C36.9566 24.0179 36.8621 24.2179 36.753 24.4506C36.6439 24.6834 36.5275 24.9379 36.4039 25.2143C36.2803 25.4834 36.153 25.7634 36.0221 26.0543C35.8984 26.3452 35.7748 26.6288 35.6512 26.9052C35.5348 27.1743 35.4257 27.4288 35.3239 27.6688C35.2221 27.9016 35.1348 28.1016 35.0621 28.2688H34.0366C33.9639 28.1016 33.8766 27.8979 33.7748 27.6579C33.673 27.4179 33.5603 27.1634 33.4366 26.8943C33.3203 26.6179 33.1966 26.3343 33.0657 26.0434C32.9421 25.7525 32.8184 25.4725 32.6948 25.2034C32.5712 24.9343 32.4548 24.6834 32.3457 24.4506C32.2366 24.2106 32.1421 24.0106 32.0621 23.8506C31.9821 24.7234 31.9203 25.6252 31.8766 26.5561C31.8403 27.487 31.8075 28.3925 31.7784 29.2725H30.4257C30.4548 28.647 30.4875 27.9997 30.5239 27.3306C30.5675 26.6616 30.6112 25.9997 30.6548 25.3452C30.7057 24.6834 30.7603 24.0434 30.8184 23.4252C30.8766 22.807 30.9384 22.2361 31.0039 21.7125H32.2803Z" fill="white"/>
<path d="M44.9996 35.4541C44.9996 40.7314 40.7314 44.9996 35.4541 44.9996L36.8859 42.6132" stroke="white" stroke-width="2.04545" stroke-linecap="round" stroke-linejoin="round"/>
<path d="M15 24.5455C15 19.2682 19.2682 15 24.5455 15L23.1136 17.3864" stroke="white" stroke-width="2.04545" stroke-linecap="round" stroke-linejoin="round"/>
<path d="M33.8859 34.5826C33.8859 39.2326 30.1223 42.9963 25.4722 42.9963C20.8222 42.9963 17.0586 39.2326 17.0586 34.5826C17.0586 29.9326 20.8222 26.1689 25.4722 26.1689C25.6904 26.1689 25.895 26.1826 26.1268 26.1962C30.2586 26.5099 33.5586 29.8099 33.8723 33.9417C33.8723 34.1463 33.8859 34.3508 33.8859 34.5826Z" stroke="white" stroke-width="2.04545" stroke-miterlimit="10" stroke-linecap="round" stroke-linejoin="round"/>
<path d="M42.9553 25.5005C42.9553 30.1506 39.1916 33.9142 34.5416 33.9142H33.8734C33.5598 29.7824 30.2598 26.4823 26.1279 26.1687V25.5005C26.1279 20.8505 29.8916 17.0869 34.5416 17.0869C39.1916 17.0869 42.9553 20.8505 42.9553 25.5005Z" stroke="white" stroke-width="2.04545" stroke-miterlimit="10" stroke-linecap="round" stroke-linejoin="round"/>
</svg>
