<svg width="1620" height="1300" viewBox="0 0 1620 1300" fill="none" xmlns="http://www.w3.org/2000/svg">
<path d="M1590 1300H30C13.4315 1300 0 1286.57 0 1270V30C0 13.4315 13.4314 0 30 0H1590C1606.57 0 1620 13.4315 1620 30.0001V1270C1620 1286.57 1606.57 1300 1590 1300Z" fill="url(#paint0_linear_2286_135)" fill-opacity="0.5"/>
<path d="M75 1300V-1.90735e-05" stroke="url(#paint1_linear_2286_135)"/>
<path d="M145 1300V-1.90735e-05" stroke="url(#paint2_linear_2286_135)"/>
<path d="M215 1300V-1.90735e-05" stroke="url(#paint3_linear_2286_135)"/>
<path d="M285 1300V-1.90735e-05" stroke="url(#paint4_linear_2286_135)"/>
<path d="M355 1300V-1.90735e-05" stroke="url(#paint5_linear_2286_135)"/>
<path d="M425 1300V-1.90735e-05" stroke="url(#paint6_linear_2286_135)"/>
<path d="M495 1300V-1.90735e-05" stroke="url(#paint7_linear_2286_135)"/>
<path d="M565 1300V-1.90735e-05" stroke="url(#paint8_linear_2286_135)"/>
<path d="M635 1300V-1.90735e-05" stroke="url(#paint9_linear_2286_135)"/>
<path d="M705 1300V-1.90735e-05" stroke="url(#paint10_linear_2286_135)"/>
<path d="M775 1300V-1.90735e-05" stroke="url(#paint11_linear_2286_135)"/>
<path d="M845 1300V-1.90735e-05" stroke="url(#paint12_linear_2286_135)"/>
<path d="M915 1300V-1.90735e-05" stroke="url(#paint13_linear_2286_135)"/>
<path d="M985 1300V-1.90735e-05" stroke="url(#paint14_linear_2286_135)"/>
<path d="M1055 1300V-1.90735e-05" stroke="url(#paint15_linear_2286_135)"/>
<path d="M1125 1300V-1.90735e-05" stroke="url(#paint16_linear_2286_135)"/>
<path d="M1195 1300V-1.90735e-05" stroke="url(#paint17_linear_2286_135)"/>
<path d="M1265 1300V-1.90735e-05" stroke="url(#paint18_linear_2286_135)"/>
<path d="M1335 1300V-1.90735e-05" stroke="url(#paint19_linear_2286_135)"/>
<path d="M1405 1300V-1.90735e-05" stroke="url(#paint20_linear_2286_135)"/>
<path d="M1475 1300V-1.90735e-05" stroke="url(#paint21_linear_2286_135)"/>
<path d="M1545 1300V-1.90735e-05" stroke="url(#paint22_linear_2286_135)"/>
<defs>
<linearGradient id="paint0_linear_2286_135" x1="809.998" y1="3.22271e-05" x2="1448.09" y2="773.845" gradientUnits="userSpaceOnUse">
<stop stop-color="#F1EBFF"/>
<stop offset="0.0001" stop-color="#F1EBFF"/>
<stop offset="1" stop-color="#D9EFFF"/>
</linearGradient>
<linearGradient id="paint1_linear_2286_135" x1="75.5" y1="1300" x2="75.5" y2="0" gradientUnits="userSpaceOnUse">
<stop stop-color="white"/>
<stop offset="1" stop-color="white"/>
</linearGradient>
<linearGradient id="paint2_linear_2286_135" x1="145.5" y1="1300" x2="145.5" y2="0" gradientUnits="userSpaceOnUse">
<stop stop-color="white"/>
<stop offset="1" stop-color="white"/>
</linearGradient>
<linearGradient id="paint3_linear_2286_135" x1="215.5" y1="1300" x2="215.5" y2="0" gradientUnits="userSpaceOnUse">
<stop stop-color="white"/>
<stop offset="1" stop-color="white"/>
</linearGradient>
<linearGradient id="paint4_linear_2286_135" x1="285.5" y1="1300" x2="285.5" y2="0" gradientUnits="userSpaceOnUse">
<stop stop-color="white"/>
<stop offset="1" stop-color="white"/>
</linearGradient>
<linearGradient id="paint5_linear_2286_135" x1="355.5" y1="1300" x2="355.5" y2="0" gradientUnits="userSpaceOnUse">
<stop stop-color="white"/>
<stop offset="1" stop-color="white"/>
</linearGradient>
<linearGradient id="paint6_linear_2286_135" x1="425.5" y1="1300" x2="425.5" y2="0" gradientUnits="userSpaceOnUse">
<stop stop-color="white"/>
<stop offset="1" stop-color="white"/>
</linearGradient>
<linearGradient id="paint7_linear_2286_135" x1="495.5" y1="1300" x2="495.5" y2="0" gradientUnits="userSpaceOnUse">
<stop stop-color="white"/>
<stop offset="1" stop-color="white"/>
</linearGradient>
<linearGradient id="paint8_linear_2286_135" x1="565.5" y1="1300" x2="565.5" y2="0" gradientUnits="userSpaceOnUse">
<stop stop-color="white"/>
<stop offset="1" stop-color="white"/>
</linearGradient>
<linearGradient id="paint9_linear_2286_135" x1="635.5" y1="1300" x2="635.5" y2="0" gradientUnits="userSpaceOnUse">
<stop stop-color="white"/>
<stop offset="1" stop-color="white"/>
</linearGradient>
<linearGradient id="paint10_linear_2286_135" x1="705.5" y1="1300" x2="705.5" y2="0" gradientUnits="userSpaceOnUse">
<stop stop-color="white"/>
<stop offset="1" stop-color="white"/>
</linearGradient>
<linearGradient id="paint11_linear_2286_135" x1="775.5" y1="1300" x2="775.5" y2="0" gradientUnits="userSpaceOnUse">
<stop stop-color="white"/>
<stop offset="1" stop-color="white"/>
</linearGradient>
<linearGradient id="paint12_linear_2286_135" x1="845.5" y1="1300" x2="845.5" y2="0" gradientUnits="userSpaceOnUse">
<stop stop-color="white"/>
<stop offset="1" stop-color="white"/>
</linearGradient>
<linearGradient id="paint13_linear_2286_135" x1="915.5" y1="1300" x2="915.5" y2="0" gradientUnits="userSpaceOnUse">
<stop stop-color="white"/>
<stop offset="1" stop-color="white"/>
</linearGradient>
<linearGradient id="paint14_linear_2286_135" x1="985.5" y1="1300" x2="985.5" y2="0" gradientUnits="userSpaceOnUse">
<stop stop-color="white"/>
<stop offset="1" stop-color="white"/>
</linearGradient>
<linearGradient id="paint15_linear_2286_135" x1="1055.5" y1="1300" x2="1055.5" y2="0" gradientUnits="userSpaceOnUse">
<stop stop-color="white"/>
<stop offset="1" stop-color="white"/>
</linearGradient>
<linearGradient id="paint16_linear_2286_135" x1="1125.5" y1="1300" x2="1125.5" y2="0" gradientUnits="userSpaceOnUse">
<stop stop-color="white"/>
<stop offset="1" stop-color="white"/>
</linearGradient>
<linearGradient id="paint17_linear_2286_135" x1="1195.5" y1="1300" x2="1195.5" y2="0" gradientUnits="userSpaceOnUse">
<stop stop-color="white"/>
<stop offset="1" stop-color="white"/>
</linearGradient>
<linearGradient id="paint18_linear_2286_135" x1="1265.5" y1="1300" x2="1265.5" y2="0" gradientUnits="userSpaceOnUse">
<stop stop-color="white"/>
<stop offset="1" stop-color="white"/>
</linearGradient>
<linearGradient id="paint19_linear_2286_135" x1="1335.5" y1="1300" x2="1335.5" y2="0" gradientUnits="userSpaceOnUse">
<stop stop-color="white"/>
<stop offset="1" stop-color="white"/>
</linearGradient>
<linearGradient id="paint20_linear_2286_135" x1="1405.5" y1="1300" x2="1405.5" y2="0" gradientUnits="userSpaceOnUse">
<stop stop-color="white"/>
<stop offset="1" stop-color="white"/>
</linearGradient>
<linearGradient id="paint21_linear_2286_135" x1="1475.5" y1="1300" x2="1475.5" y2="0" gradientUnits="userSpaceOnUse">
<stop stop-color="white"/>
<stop offset="1" stop-color="white"/>
</linearGradient>
<linearGradient id="paint22_linear_2286_135" x1="1545.5" y1="1300" x2="1545.5" y2="0" gradientUnits="userSpaceOnUse">
<stop stop-color="white"/>
<stop offset="1" stop-color="white"/>
</linearGradient>
</defs>
</svg>
