<svg width="31" height="34" viewBox="0 0 31 34" fill="none" xmlns="http://www.w3.org/2000/svg">
<g id="Group 1000003864">
<path id="Vector" d="M6.5 15.5C6.5 11.2574 6.5 9.13604 7.81802 7.81802C9.13604 6.5 11.2574 6.5 15.5 6.5H20C24.2426 6.5 26.3639 6.5 27.6819 7.81802C29 9.13604 29 11.2574 29 15.5V23C29 27.2426 29 29.3639 27.6819 30.6819C26.3639 32 24.2426 32 20 32H15.5C11.2574 32 9.13604 32 7.81802 30.6819C6.5 29.3639 6.5 27.2426 6.5 23V15.5Z" stroke="#495167" stroke-width="2.5"/>
<path id="Vector_2" d="M6.5 27.5C4.01473 27.5 2 25.4854 2 23V14C2 8.34314 2 5.51473 3.75735 3.75736C5.51472 2 8.34314 2 14 2H20C22.4854 2 24.5 4.01473 24.5 6.5" stroke="#495167" stroke-width="2.5"/>
</g>
</svg>
