<svg width="18" height="18" viewBox="0 0 18 18" fill="none" xmlns="http://www.w3.org/2000/svg">
<g id="Group 1000003200">
<path id="Vector" d="M9 17C13.4183 17 17 13.4183 17 9C17 4.58172 13.4183 1 9 1C4.58172 1 1 4.58172 1 9C1 13.4183 4.58172 17 9 17Z" stroke="#2D3748" stroke-width="1.5"/>
<path id="Vector_2" d="M7.5 6.5C7.5 5.67158 8.1716 5 9 5C9.8284 5 10.5 5.67158 10.5 6.5C10.5 7.04996 10.204 7.5308 9.76272 7.79192C9.3824 8.01688 9 8.35816 9 8.8V9.8" stroke="#2D3748" stroke-width="1.5" stroke-linecap="round"/>
<path id="Vector_3" d="M8.99971 12.9994C9.44153 12.9994 9.79971 12.6412 9.79971 12.1994C9.79971 11.7576 9.44153 11.3994 8.99971 11.3994C8.55788 11.3994 8.19971 11.7576 8.19971 12.1994C8.19971 12.6412 8.55788 12.9994 8.99971 12.9994Z" fill="#1C274C"/>
</g>
</svg>
