<svg width="500" height="500" viewBox="0 0 500 500" fill="none" xmlns="http://www.w3.org/2000/svg">
<g clip-path="url(#clip0_61_4081)">
<path d="M388.241 112.45C438.359 156.281 493.207 201.71 498.552 252.349C504.036 303.12 459.777 359.106 409.641 390.509C359.504 421.913 303.473 428.721 236.081 439.814C168.828 451.034 90.3405 466.666 44.9107 435.269C-0.519317 403.872 -12.9869 325.434 15.3578 275.345C43.7025 225.257 112.935 203.582 158.397 159.618C203.858 115.794 225.517 49.7889 259.08 38.0253C292.644 26.1353 338.105 68.6257 388.241 112.45Z" fill="#F2F2F2"/>
<path d="M458.347 19.9936H306.079V135.202H458.347V19.9936Z" fill="#D7E0FF"/>
<path d="M432.875 41.6559H388.286V121.542H432.875V41.6559Z" fill="#EAF0FF"/>
<path d="M373.604 59.229C373.605 62.8639 372.528 66.4173 370.507 69.4401C368.488 72.4628 365.616 74.8193 362.256 76.2106C358.895 77.6025 355.197 77.9666 351.629 77.258C348.062 76.5494 344.785 74.7991 342.213 72.229C339.641 69.6588 337.89 66.3838 337.18 62.8187C336.471 59.2536 336.836 55.5584 338.228 52.2004C339.62 48.8425 341.978 45.9727 345.003 43.9541C348.028 41.9355 351.584 40.8587 355.222 40.8599C360.097 40.8599 364.773 42.7952 368.22 46.2401C371.667 49.685 373.604 54.3572 373.604 59.229Z" fill="#FB5D64"/>
<path d="M460.188 255.373C460.188 264.263 457.55 272.954 452.608 280.346C447.665 287.738 440.64 293.499 432.421 296.901C424.202 300.303 415.157 301.194 406.432 299.459C397.706 297.725 389.692 293.443 383.401 287.157C377.111 280.871 372.826 272.862 371.091 264.142C369.355 255.423 370.246 246.385 373.651 238.172C377.055 229.958 382.82 222.938 390.217 217.999C397.614 213.06 406.311 210.424 415.207 210.424C427.137 210.424 438.578 215.159 447.013 223.589C455.449 232.018 460.188 243.452 460.188 255.373Z" fill="white"/>
<path d="M488.05 171.89H391.669V268.205H488.05V171.89Z" stroke="#B2C3FB" stroke-width="3" stroke-linecap="round" stroke-linejoin="round"/>
<path d="M233.639 498.521H472.795" stroke="#1B3C87" stroke-width="3.69" stroke-linecap="round" stroke-linejoin="round"/>
<path d="M1.16895 498.521H177.392" stroke="#1B3C87" stroke-width="3.69" stroke-linecap="round" stroke-linejoin="round"/>
<path d="M276.184 173.616L275.203 178.331L268.625 180.379C268.625 180.379 265.367 170.228 264.918 167.933C261.755 170.291 243.525 175.398 240.381 175.853C239.945 173.407 239.945 152.206 257.631 152.206C273.211 152.206 280.194 167.8 280.605 169.627C279.695 170.158 276.178 171.46 276.178 173.616" fill="#EECB55"/>
<path d="M280.555 214.431C276.602 214.431 247.909 243.363 246.733 249.418L237.491 297.2L285.356 283.818L288.165 222.958L281.346 214.412L280.555 214.431Z" fill="#46DBC9"/>
<path d="M221.431 298.439C221.349 295.107 248.827 208.42 251.926 205.474C252.944 204.447 254.167 203.646 255.515 203.124C256.863 202.601 258.307 202.368 259.751 202.44C261.117 202.503 267.683 205.6 269.068 208.868C266.703 214.469 261.003 217.579 261.003 217.579L249.915 286.049L221.431 298.439Z" fill="white"/>
<path d="M254.917 350.423L294.629 399.545L275.368 418.894L217.072 367.965L230.861 349.001L254.917 350.423Z" fill="#3C3744"/>
<path d="M244.456 438.35C239.105 433.489 176.324 355.341 176.324 345.67C176.324 324.109 200.804 316.466 207.484 314.785C216.687 313.951 257.512 310.537 263.933 310.803C268.563 315.815 322.33 327.383 330.123 326.384C330.123 330.284 323.924 357.554 279.949 357.554C275.344 357.554 240.674 356.169 240.029 356.169C240.029 364.279 262.25 417.067 264.369 420.645" fill="#3C3744"/>
<path d="M301.347 200.297C336.941 200.297 344.645 264.463 344.645 282.674C344.645 305.891 335.22 324.444 330.729 326.182C318.008 331.068 271.313 315.063 268.353 307.484C253.918 270.569 277.677 200.297 301.372 200.297" fill="#46DBC9"/>
<path d="M270.959 156.372C273.914 159.025 276.354 162.198 278.158 165.733C278.47 166.34 278.761 166.947 279.031 167.554" stroke="#1B3C87" stroke-width="3.69" stroke-linecap="round" stroke-linejoin="round"/>
<path d="M241.521 184.576C234.873 171.669 237.688 156.991 247.809 151.789C251.1 150.126 254.839 149.566 258.474 150.19" stroke="#1B3C87" stroke-width="3.69" stroke-linecap="round" stroke-linejoin="round"/>
<path d="M276.659 194.804C275.304 196.326 273.681 197.585 271.871 198.521C264.963 202.073 256.437 200.291 249.611 194.697" stroke="#1B3C87" stroke-width="3.69" stroke-linecap="round" stroke-linejoin="round"/>
<path d="M273.928 171.353C274.334 170.33 275.011 169.437 275.887 168.77C276.763 168.102 277.804 167.686 278.899 167.565C279.993 167.444 281.1 167.623 282.101 168.083C283.101 168.544 283.957 169.267 284.578 170.176C285.198 171.085 285.559 172.147 285.622 173.245C285.684 174.344 285.446 175.439 284.934 176.413C284.421 177.387 283.653 178.203 282.711 178.774C281.769 179.344 280.69 179.648 279.589 179.652C278.673 179.647 277.77 179.43 276.951 179.02" stroke="#1B3C87" stroke-width="3.69" stroke-linecap="round" stroke-linejoin="round"/>
<path d="M279.051 215.664C278.159 212.472 274.952 202.636 270.948 198.957" stroke="#1B3C87" stroke-width="3.69" stroke-linecap="round" stroke-linejoin="round"/>
<path d="M282.244 181.169C283.478 185.316 294.63 200.265 297.375 202.339C297.21 204.14 293.662 207.623 289.67 210.556" stroke="#1B3C87" stroke-width="3.69" stroke-linecap="round" stroke-linejoin="round"/>
<path d="M267.992 177.623L272.945 176.087L273.926 171.365" stroke="#1B3C87" stroke-width="3.69" stroke-linecap="round" stroke-linejoin="round"/>
<path d="M254.671 168.976C258.353 167.75 261.497 166.53 262.661 165.67C262.983 167.339 264.799 173.167 265.76 176.214" stroke="#1B3C87" stroke-width="3.69" stroke-linecap="round" stroke-linejoin="round"/>
<path d="M238.117 173.59C239.331 173.413 242.778 172.547 246.744 171.416" stroke="#1B3C87" stroke-width="3.69" stroke-linecap="round" stroke-linejoin="round"/>
<path d="M274.371 311.125C269.373 308.635 265.901 306.214 265.161 304.317C260.733 292.939 259.891 278.369 261.587 263.673" stroke="#1B3C87" stroke-width="3.69" stroke-linecap="round" stroke-linejoin="round"/>
<path d="M336.55 242.902C340.256 257.756 341.477 272.263 341.477 279.507C341.477 302.731 332.052 321.283 327.561 323.015C321.596 325.31 308.173 323.015 295.301 319.134" stroke="#1B3C87" stroke-width="3.69" stroke-linecap="round" stroke-linejoin="round"/>
<path d="M293.453 198.04C294.961 197.451 296.565 197.143 298.184 197.13C307.565 197.13 315.01 201.593 320.887 208.508" stroke="#1B3C87" stroke-width="3.69" stroke-linecap="round" stroke-linejoin="round"/>
<path d="M268.682 232.99C271.107 225.946 274.288 219.185 278.17 212.825" stroke="#1B3C87" stroke-width="3.69" stroke-linecap="round" stroke-linejoin="round"/>
<path d="M246.55 207.01C247.6 204.355 248.372 202.68 248.758 202.307C249.775 201.281 250.998 200.48 252.346 199.957C253.694 199.434 255.138 199.201 256.583 199.273C257.949 199.336 264.515 202.434 265.9 205.702" stroke="#1B3C87" stroke-width="3.69" stroke-linecap="round" stroke-linejoin="round"/>
<path d="M226.012 268.205C230.674 253.312 236.594 235.101 241.263 221.587" stroke="#1B3C87" stroke-width="3.69" stroke-linecap="round" stroke-linejoin="round"/>
<path d="M218.263 294.823C218.263 294.191 219.193 290.695 220.755 285.392" stroke="#1B3C87" stroke-width="3.69" stroke-linecap="round" stroke-linejoin="round"/>
<path d="M257.645 204.994C258.998 205.209 262.268 207.2 263.97 209.191" stroke="#1B3C87" stroke-width="3.69" stroke-linecap="round" stroke-linejoin="round"/>
<path d="M253.856 209.792C255.203 210.006 258.48 211.998 260.181 213.989" stroke="#1B3C87" stroke-width="3.69" stroke-linecap="round" stroke-linejoin="round"/>
<path d="M246.752 282.516C246.86 279.482 254.343 227.156 257.651 216.871" stroke="#1B3C87" stroke-width="3.69" stroke-linecap="round" stroke-linejoin="round"/>
<path d="M262.826 223.211C267.431 218.287 273.01 212.996 277.488 210.853" stroke="#1B3C87" stroke-width="3.69" stroke-linecap="round" stroke-linejoin="round"/>
<path d="M117.598 249.684L146.695 296.941" stroke="#1B3C87" stroke-width="3.69" stroke-linecap="round" stroke-linejoin="round"/>
<path d="M326.953 323.217C326.953 327.118 320.761 354.387 276.779 354.387C272.174 354.387 237.504 353.003 236.859 353.003C236.859 361.112 259.08 413.9 261.199 417.478" stroke="#1B3C87" stroke-width="3.69" stroke-linecap="round" stroke-linejoin="round"/>
<path d="M204.314 311.631C197.856 314.046 173.148 320.954 173.148 342.516C173.148 352.187 235.917 430.335 241.281 435.196" stroke="#1B3C87" stroke-width="3.69" stroke-linecap="round" stroke-linejoin="round"/>
<path d="M238.148 438.685L266.936 420.354" stroke="#1B3C87" stroke-width="3.69" stroke-linecap="round" stroke-linejoin="round"/>
<path d="M241.287 443.742L270.972 425.771" stroke="#1B3C87" stroke-width="3.69" stroke-linecap="round" stroke-linejoin="round"/>
<path d="M253.16 399.071L271.605 415.727" stroke="#1B3C87" stroke-width="3.69" stroke-linecap="round" stroke-linejoin="round"/>
<path d="M263.982 362.307L291.435 396.384" stroke="#1B3C87" stroke-width="3.69" stroke-linecap="round" stroke-linejoin="round"/>
<path d="M294.618 393.938L270.359 417.497" stroke="#1B3C87" stroke-width="3.69" stroke-linecap="round" stroke-linejoin="round"/>
<path d="M297.679 398.483L273.421 422.042" stroke="#1B3C87" stroke-width="3.69" stroke-linecap="round" stroke-linejoin="round"/>
<path d="M104.44 477.573V498.521" stroke="#1B3C87" stroke-width="3.69" stroke-linecap="round" stroke-linejoin="round"/>
<path d="M104.44 311.631V438.685" stroke="#1B3C87" stroke-width="3.69" stroke-linecap="round" stroke-linejoin="round"/>
<path d="M201.246 311.631V498.521" stroke="#1B3C87" stroke-width="3.69" stroke-linecap="round" stroke-linejoin="round"/>
<path d="M313.822 215.822C330.768 221.713 322.14 257.983 317.37 259.21C312.601 260.436 283.845 249.064 282.947 246.005C282.048 242.946 294.029 208.932 313.822 215.822Z" fill="#46DBC9"/>
<path d="M292.308 218.003C297.21 213.091 303.409 210.133 310.652 212.655C327.598 218.546 318.97 254.817 314.194 256.043C309.418 257.269 280.669 245.898 279.77 242.838C279.555 242.118 280.055 239.678 281.213 236.441" stroke="#1B3C87" stroke-width="3.69" stroke-linecap="round" stroke-linejoin="round"/>
<path d="M284.926 247.788C283.546 249.81 275.912 274.482 275.912 274.482C275.912 274.482 221.974 297.724 219.286 298.925C218.305 297.585 215.079 295.133 208.532 295.133C196.545 295.133 194.471 303.078 194.471 304.785C194.471 306.492 212.695 310.284 217.584 310.164C222.474 310.044 290.846 299.652 293.288 298.432C295.73 297.212 312.094 258.609 312.094 258.609C307.666 258.375 287.253 252.061 284.938 247.794" fill="white"/>
<path d="M250.921 301.896C233.665 304.532 216.763 306.953 214.404 307.004C209.514 307.13 191.291 303.338 191.291 301.625C191.291 299.912 193.365 291.972 205.352 291.972C211.912 291.972 215.138 294.418 216.106 295.765C218.794 294.545 272.732 271.321 272.732 271.321C272.732 271.321 280.367 246.669 281.746 244.627" stroke="#1B3C87" stroke-width="3.69" stroke-linecap="round" stroke-linejoin="round"/>
<path d="M308.914 255.436C308.914 255.436 292.556 294.052 290.108 295.259C289.412 295.607 283.384 296.7 275.002 298.078" stroke="#1B3C87" stroke-width="3.69" stroke-linecap="round" stroke-linejoin="round"/>
<path d="M366.158 355.79H261.768V365.468H366.158V355.79Z" fill="#8088DC"/>
<path d="M323.923 362.307H258.593V352.63H362.965V362.307H344.62" stroke="#1B3C87" stroke-width="3.69" stroke-linecap="round" stroke-linejoin="round"/>
<path d="M234.974 306.365H76.146V314.33H234.974V306.365Z" fill="#8088DC"/>
<path d="M117.598 303.654H232.261V311.631H73.4331V303.666H97.8749" stroke="#1B3C87" stroke-width="3.69" stroke-linecap="round" stroke-linejoin="round"/>
<path d="M205.358 299.665H149.421V306.365H205.358V299.665Z" fill="#FB5D64"/>
<path d="M202.645 296.953H146.708V303.654H202.645V296.953Z" stroke="#1B3C87" stroke-width="3.69" stroke-linecap="round" stroke-linejoin="round"/>
<path d="M246.74 445.531L265.084 465.575L255.051 493.388L285.825 469.475L267.987 432.705" fill="white"/>
<path d="M275.489 451.53L264.805 429.52" stroke="#1B3C87" stroke-width="3.69" stroke-linecap="round" stroke-linejoin="round"/>
<path d="M243.577 442.364L261.921 462.408L251.895 490.221L282.663 466.308L279.525 459.861" stroke="#1B3C87" stroke-width="3.69" stroke-linecap="round" stroke-linejoin="round"/>
<path d="M297.002 405.379L307.218 422.712L314.271 426.378L300.848 457.528L297.787 437.933L280.075 421.795" fill="white"/>
<path d="M281.485 422.756L276.962 418.628" stroke="#1B3C87" stroke-width="3.69" stroke-linecap="round" stroke-linejoin="round"/>
<path d="M293.832 402.219L304.048 419.545L311.101 423.217L297.678 454.368L294.617 434.772L290.821 431.308" stroke="#1B3C87" stroke-width="3.69" stroke-linecap="round" stroke-linejoin="round"/>
<path d="M285.553 362.307V497.579" stroke="#1B3C87" stroke-width="3.69" stroke-linecap="round" stroke-linejoin="round"/>
<path d="M336.036 413.938V497.598" stroke="#1B3C87" stroke-width="3.69" stroke-linecap="round" stroke-linejoin="round"/>
<path d="M336.036 362.307V390.803" stroke="#1B3C87" stroke-width="3.69" stroke-linecap="round" stroke-linejoin="round"/>
<path d="M255.051 176.049C255.361 177.124 256.082 177.857 256.664 177.686C257.246 177.516 257.474 176.517 257.164 175.449C256.854 174.38 256.139 173.641 255.551 173.831C254.963 174.02 254.748 175 255.051 176.068" fill="#1B3C87"/>
<path d="M248.028 187.863C247.953 188.262 247.829 188.65 247.662 189.02" stroke="#1B3C87" stroke-width="3.14" stroke-linecap="round" stroke-linejoin="round"/>
<path d="M247.36 181.599C247.863 182.994 248.14 184.46 248.183 185.942" stroke="#1B3C87" stroke-width="3.14" stroke-linecap="round" stroke-linejoin="round"/>
<path d="M264.665 187.257C264.849 188.672 263.856 190.872 261.939 192.155" stroke="#1B3C87" stroke-width="3.14" stroke-linecap="round" stroke-linejoin="round"/>
<path d="M179.904 160.822H13.271V211.062H179.904V160.822Z" fill="#D7E0FF"/>
<path d="M165.569 185.689C165.571 188.59 164.711 191.425 163.099 193.838C161.488 196.25 159.196 198.131 156.515 199.242C153.833 200.353 150.882 200.644 148.035 200.079C145.188 199.514 142.572 198.118 140.519 196.067C138.467 194.016 137.068 191.403 136.501 188.559C135.934 185.714 136.225 182.765 137.336 180.085C138.446 177.404 140.327 175.114 142.74 173.502C145.154 171.891 147.991 171.03 150.894 171.03C154.785 171.03 158.517 172.575 161.269 175.323C164.021 178.072 165.568 181.801 165.569 185.689Z" fill="#B2C3FB"/>
<path d="M123.177 177.187H40.3501" stroke="#EAF0FF" stroke-width="3.69" stroke-linecap="round" stroke-linejoin="round"/>
<path d="M123.176 194.197H79.2891" stroke="#EAF0FF" stroke-width="3.69" stroke-linecap="round" stroke-linejoin="round"/>
<path d="M236.865 0H137.832V125.575H236.865V0Z" fill="#EAF0FF"/>
<path d="M176.324 45.0252L205.358 113.224L266.305 70.9418L176.324 45.0252Z" stroke="#B2C3FB" stroke-width="3" stroke-linecap="round" stroke-linejoin="round"/>
<path d="M89.9172 63.129H32.8926V86.9279H89.9172V63.129Z" fill="#EAF0FF"/>
<path d="M63.3822 92.5474H6.35742V116.346H63.3822V92.5474Z" fill="#EAF0FF"/>
</g>
<defs>
<clipPath id="clip0_61_4081">
<rect width="499.084" height="500" fill="white"/>
</clipPath>
</defs>
</svg>
