<svg width="113" height="35" viewBox="0 0 113 35" fill="none" xmlns="http://www.w3.org/2000/svg">
<path d="M59.1829 8.77814C59.1829 10.0161 58.17 11.0852 56.8758 11.0852C55.5816 11.0852 54.5687 10.0723 54.5687 8.77814C54.5687 7.48392 55.5253 6.47106 56.8758 6.47106C58.2263 6.5836 59.1829 7.59646 59.1829 8.77814ZM49.7858 13.3923C49.7858 13.6174 49.7858 13.955 49.7858 13.955C49.7858 13.955 48.7166 12.5482 46.4096 12.5482C42.5832 12.5482 39.6009 15.4743 39.6009 19.4695C39.6009 23.4646 42.5269 26.3907 46.4096 26.3907C48.7729 26.3907 49.7858 24.9277 49.7858 24.9277V25.5466C49.7858 25.828 50.0108 26.0531 50.2922 26.0531H53.1057V12.8859C53.1057 12.8859 50.5173 12.8859 50.2922 12.8859C50.0108 12.8859 49.7858 13.1672 49.7858 13.3923ZM49.7858 21.8328C49.2793 22.6206 48.2102 23.2958 46.9723 23.2958C44.7215 23.2958 43.0333 21.8891 43.0333 19.5257C43.0333 17.1624 44.7777 15.7556 46.9723 15.7556C48.2102 15.7556 49.3356 16.4309 49.7858 17.2186V21.8328ZM55.244 12.8859H58.6202V26.0531H55.244V12.8859ZM105.493 12.5482C103.186 12.5482 102.117 13.955 102.117 13.955V6.5836H98.7407V26.1093C98.7407 26.1093 101.329 26.1093 101.554 26.1093C101.836 26.1093 102.061 25.8842 102.061 25.6029V24.9839C102.061 24.9839 103.13 26.4469 105.437 26.4469C109.263 26.4469 112.246 23.5209 112.246 19.5257C112.302 15.4743 109.32 12.5482 105.493 12.5482ZM104.93 23.2395C103.636 23.2395 102.623 22.5643 102.117 21.7765V17.0498C102.623 16.3746 103.749 15.5868 104.93 15.5868C107.181 15.5868 108.869 16.9936 108.869 19.3569C108.869 21.7203 107.181 23.2395 104.93 23.2395ZM96.9964 18.2878V26.1656H93.6202V18.6817C93.6202 16.4871 92.9449 15.6431 91.0317 15.6431C90.0189 15.6431 88.9497 16.1495 88.2745 16.9373V26.1093H84.8983V12.8859H87.543C87.8243 12.8859 88.0494 13.1109 88.0494 13.3923V13.955C89.006 12.9421 90.3565 12.5482 91.6507 12.5482C93.1137 12.5482 94.3517 12.9421 95.3083 13.7862C96.5462 14.799 96.9964 16.037 96.9964 18.2878ZM76.7391 12.5482C74.4321 12.5482 73.3629 13.955 73.3629 13.955V6.5836H69.9867V26.1093C69.9867 26.1093 72.5751 26.1093 72.8002 26.1093C73.0816 26.1093 73.3067 25.8842 73.3067 25.6029V24.9839C73.3067 24.9839 74.3758 26.4469 76.6829 26.4469C80.5092 26.4469 83.4915 23.5209 83.4915 19.5257C83.5478 15.4743 80.5655 12.5482 76.7391 12.5482ZM76.1764 23.2395C74.8822 23.2395 73.8694 22.5643 73.3629 21.7765V17.0498C73.8694 16.3746 74.9948 15.5868 76.1764 15.5868C78.4272 15.5868 80.1153 16.9936 80.1153 19.3569C80.1153 21.7203 78.4272 23.2395 76.1764 23.2395ZM67.0607 12.5482C68.0735 12.5482 68.58 12.717 68.58 12.717V15.8119C68.58 15.8119 65.7665 14.8553 64.0221 16.881V26.1093H60.6459V12.8859C60.6459 12.8859 63.2343 12.8859 63.4594 12.8859C63.7407 12.8859 63.9658 13.1109 63.9658 13.3923V13.955C64.6411 13.2235 66.0478 12.5482 67.0607 12.5482ZM32.117 24.9277C31.9481 24.5338 31.7793 24.0273 31.6105 23.6897C31.3292 23.0707 31.0478 22.4518 30.8227 21.8891L30.7665 21.8328C28.3469 16.5997 25.7584 11.254 23.0012 5.96463L22.8887 5.73955C22.6073 5.23312 22.326 4.67042 22.0446 4.10772C21.707 3.48875 21.3694 2.8135 20.8067 2.19453C19.6813 0.787781 18.0494 0 16.3613 0C14.6169 0 13.0414 0.787781 11.8597 2.08199C11.297 2.75723 10.9031 3.37621 10.5655 4.05145C10.2842 4.61415 10.0028 5.17685 9.72145 5.68328L9.60891 5.90836C6.90794 11.1415 4.26325 16.4871 1.84364 21.7765L1.78737 21.8328C1.56229 22.3955 1.28094 23.0145 0.999585 23.6334C0.830774 24.0273 0.661964 24.4212 0.493154 24.8714C0.042993 26.1656 -0.125817 27.4035 0.0992631 28.6415C0.493154 31.2862 2.23753 33.4807 4.65714 34.4373C5.55746 34.8312 6.51405 35 7.47065 35C7.752 35 8.08962 34.9437 8.37097 34.9437C9.55264 34.8312 10.7343 34.4373 11.8597 33.7621C13.3227 32.9743 14.6732 31.7926 16.1925 30.1045C17.7118 31.7926 19.1186 32.918 20.5253 33.7621C21.707 34.4373 22.8887 34.8312 24.0141 34.9437C24.2954 35 24.633 35 24.9144 35C25.871 35 26.8838 34.8312 27.7279 34.4373C30.2038 33.4807 31.8919 31.2299 32.2858 28.6415C32.6796 27.4035 32.5671 26.2219 32.117 24.9277ZM16.3051 26.7283C14.3919 24.365 13.2102 22.1141 12.76 20.201C12.5912 19.4132 12.535 18.6817 12.6475 18.0627C12.7038 17.5 12.9288 16.9936 13.2102 16.5997C13.8854 15.6431 15.0108 15.0804 16.3051 15.0804C17.5993 15.0804 18.7809 15.6431 19.3999 16.5997C19.6813 16.9936 19.9063 17.5 19.9626 18.0627C20.0751 18.6817 20.0189 19.4132 19.8501 20.201C19.3999 22.0579 18.162 24.3087 16.3051 26.7283ZM30.26 28.3601C30.035 30.1608 28.797 31.7363 27.0526 32.4678C26.2086 32.8055 25.3083 32.918 24.4079 32.8055C23.5076 32.6929 22.6636 32.4116 21.7633 31.9051C20.5253 31.2299 19.2311 30.1045 17.7681 28.5289C20.0751 25.7154 21.4819 23.0707 21.9883 20.7637C22.2134 19.6945 22.2697 18.6817 22.1571 17.7814C22.0446 16.881 21.707 16.0932 21.2006 15.418C20.1314 13.8424 18.2745 12.9421 16.2488 12.9421C14.2231 12.9421 12.3661 13.8987 11.297 15.418C10.7906 16.0932 10.5092 16.9373 10.3404 17.7814C10.2279 18.6817 10.2279 19.6945 10.5092 20.7637C11.0157 23.0707 12.4787 25.7154 14.7295 28.5289C13.2665 30.1608 11.9723 31.2299 10.7343 31.9051C9.83399 32.4116 8.93367 32.6929 8.08962 32.8055C7.13303 32.918 6.2327 32.7492 5.44492 32.4678C3.70055 31.7926 2.51888 30.1608 2.23753 28.3601C2.12499 27.4598 2.18126 26.6158 2.57515 25.6029C2.68769 25.2653 2.8565 24.9277 3.02531 24.4775C3.25039 23.9148 3.53174 23.2958 3.81309 22.7331L3.86936 22.6768C6.28897 17.4437 8.8774 12.0981 11.5784 6.92122L11.6909 6.69614C11.9723 6.18971 12.2536 5.62701 12.535 5.06431C12.8163 4.50161 13.1539 3.99518 13.4915 3.54502C14.2231 2.70096 15.2359 2.2508 16.3051 2.2508C17.3742 2.2508 18.387 2.70096 19.1186 3.54502C19.5124 3.99518 19.7938 4.50161 20.0751 5.06431C20.3565 5.57074 20.6378 6.13344 20.9192 6.69614L21.0317 6.92122C23.6764 12.1543 26.2649 17.5 28.6845 22.6768V22.7331C28.9658 23.2958 29.1909 23.9148 29.4723 24.4775C29.6411 24.8714 29.8099 25.2653 29.9224 25.6029C30.3163 26.5595 30.4288 27.4598 30.26 28.3601Z" fill="#FF5A5F"/>
</svg>
