<svg width="211" height="40" viewBox="0 0 211 40" fill="none" xmlns="http://www.w3.org/2000/svg">
<rect width="40" height="40" rx="7" fill="url(#paint0_linear_155_3064)"/>
<g clip-path="url(#clip0_155_3064)">
<path d="M17.7842 21.2894C17.7146 21.2894 16.1833 21.2894 15.4872 21.2894C15.116 21.2894 15 21.1392 15 20.7637C15 19.7624 15 18.7362 15 17.7349C15 17.3344 15.1392 17.2093 15.4872 17.2093H17.7842C17.7842 17.1342 17.7842 15.6823 17.7842 15.0065C17.7842 14.0053 17.9466 13.0541 18.4107 12.178C18.8979 11.2768 19.594 10.6761 20.4756 10.3257C21.0557 10.1004 21.6357 10.0002 22.2622 10.0002H24.536C24.8608 10.0002 25 10.1504 25 10.5009V13.3544C25 13.7049 24.8608 13.8551 24.536 13.8551C23.9095 13.8551 23.2831 13.8551 22.6566 13.8801C22.0302 13.8801 21.7053 14.2055 21.7053 14.9064C21.6821 15.6573 21.7053 16.3832 21.7053 17.1592H24.3968C24.768 17.1592 24.9072 17.3094 24.9072 17.7099V20.7387C24.9072 21.1392 24.7912 21.2643 24.3968 21.2643C23.5615 21.2643 21.7749 21.2643 21.7053 21.2643V29.4245C21.7053 29.8501 21.5893 30.0002 21.1717 30.0002C20.1972 30.0002 19.2459 30.0002 18.2715 30.0002C17.9234 30.0002 17.7842 29.8501 17.7842 29.4746C17.7842 26.8463 17.7842 21.3644 17.7842 21.2894Z" fill="black"/>
</g>
<rect x="57" width="40" height="40" rx="7" fill="url(#paint1_linear_155_3064)"/>
<g clip-path="url(#clip1_155_3064)">
<path d="M86.9951 30.0001L87.0001 29.9993V22.6643C87.0001 19.0759 86.2276 16.3118 82.0326 16.3118C80.0159 16.3118 78.6626 17.4184 78.1101 18.4676H78.0517V16.6468H74.0742V29.9993H78.2159V23.3876C78.2159 21.6468 78.5459 19.9634 80.7017 19.9634C82.8259 19.9634 82.8576 21.9501 82.8576 23.4993V30.0001H86.9951Z" fill="black"/>
<path d="M67.3301 16.6475H71.4767V30H67.3301V16.6475Z" fill="black"/>
<path d="M69.4017 10C68.0758 10 67 11.0758 67 12.4017C67 13.7275 68.0758 14.8258 69.4017 14.8258C70.7275 14.8258 71.8033 13.7275 71.8033 12.4017C71.8025 11.0758 70.7267 10 69.4017 10Z" fill="black"/>
</g>
<rect x="114" width="40" height="40" rx="7" fill="url(#paint2_linear_155_3064)"/>
<g clip-path="url(#clip2_155_3064)">
<path d="M143.721 15.2347C143.616 14.359 142.791 13.5192 141.927 13.4067C136.662 12.7525 131.337 12.7525 126.073 13.4067C125.209 13.519 124.384 14.359 124.279 15.2347C123.907 18.4443 123.907 21.5563 124.279 24.7652C124.384 25.6409 125.209 26.4815 126.073 26.5932C131.337 27.2475 136.662 27.2475 141.927 26.5932C142.791 26.4817 143.616 25.6409 143.721 24.7652C144.093 21.5566 144.093 18.4443 143.721 15.2347ZM132.333 23.3339V16.667L137.333 20.0006L132.333 23.3339Z" fill="black"/>
</g>
<rect x="171" width="40" height="40" rx="7" fill="url(#paint3_linear_155_3064)"/>
<g clip-path="url(#clip3_155_3064)">
<path d="M194.75 10H187.25C183.799 10 181 12.7988 181 16.25V23.75C181 27.2013 183.799 30 187.25 30H194.75C198.201 30 201 27.2013 201 23.75V16.25C201 12.7988 198.201 10 194.75 10ZM199.125 23.75C199.125 26.1625 197.163 28.125 194.75 28.125H187.25C184.838 28.125 182.875 26.1625 182.875 23.75V16.25C182.875 13.8375 184.838 11.875 187.25 11.875H194.75C197.163 11.875 199.125 13.8375 199.125 16.25V23.75Z" fill="black"/>
<path d="M191 15C188.239 15 186 17.2387 186 20C186 22.7613 188.239 25 191 25C193.761 25 196 22.7613 196 20C196 17.2387 193.761 15 191 15ZM191 23.125C189.277 23.125 187.875 21.7225 187.875 20C187.875 18.2763 189.277 16.875 191 16.875C192.722 16.875 194.125 18.2763 194.125 20C194.125 21.7225 192.722 23.125 191 23.125Z" fill="black"/>
<path d="M196.375 15.2912C196.743 15.2912 197.041 14.9929 197.041 14.625C197.041 14.257 196.743 13.9587 196.375 13.9587C196.007 13.9587 195.709 14.257 195.709 14.625C195.709 14.9929 196.007 15.2912 196.375 15.2912Z" fill="black"/>
</g>
<defs>
<linearGradient id="paint0_linear_155_3064" x1="20" y1="0" x2="20" y2="40" gradientUnits="userSpaceOnUse">
<stop stop-color="#F6C9FF"/>
<stop offset="1" stop-color="#E6E8FF"/>
</linearGradient>
<linearGradient id="paint1_linear_155_3064" x1="77" y1="0" x2="77" y2="40" gradientUnits="userSpaceOnUse">
<stop stop-color="#F6C9FF"/>
<stop offset="1" stop-color="#E6E8FF"/>
</linearGradient>
<linearGradient id="paint2_linear_155_3064" x1="134" y1="0" x2="134" y2="40" gradientUnits="userSpaceOnUse">
<stop stop-color="#F6C9FF"/>
<stop offset="1" stop-color="#E6E8FF"/>
</linearGradient>
<linearGradient id="paint3_linear_155_3064" x1="191" y1="0" x2="191" y2="40" gradientUnits="userSpaceOnUse">
<stop stop-color="#F6C9FF"/>
<stop offset="1" stop-color="#E6E8FF"/>
</linearGradient>
<clipPath id="clip0_155_3064">
<rect width="20" height="20" fill="white" transform="translate(10 10)"/>
</clipPath>
<clipPath id="clip1_155_3064">
<rect width="20" height="20" fill="white" transform="translate(67 10)"/>
</clipPath>
<clipPath id="clip2_155_3064">
<rect width="20" height="20" fill="white" transform="translate(124 10)"/>
</clipPath>
<clipPath id="clip3_155_3064">
<rect width="20" height="20" fill="white" transform="translate(181 10)"/>
</clipPath>
</defs>
</svg>
