<svg width="116" height="35" viewBox="0 0 116 35" fill="none" xmlns="http://www.w3.org/2000/svg">
<path d="M70.8672 25.8017C63.3466 28.9835 55.1318 30.5455 47.669 30.5455C36.6195 30.5455 25.9171 27.5372 17.2395 22.5042C16.4874 22.0414 15.9089 22.8513 16.5453 23.4298C24.5866 30.6612 35.1733 35 46.917 35C55.3054 35 65.0822 32.3389 71.7929 27.4215C72.9499 26.4959 72.0243 25.281 70.8672 25.8017Z" fill="#FF9900"/>
<path d="M66.6444 22.9668C66.0659 23.3718 66.1238 23.9503 66.818 23.8924C68.9585 23.661 73.8179 23.0825 74.6857 24.1817C75.5535 25.2808 73.7022 29.8511 72.8923 31.8758C72.6609 32.5122 73.1816 32.7436 73.7022 32.2808C77.289 29.2725 78.2724 22.909 77.5204 22.0412C76.8262 21.0577 70.4626 20.2478 66.6444 22.9668Z" fill="#FF9900"/>
<path d="M79.8337 15.3306C77.7511 14.1736 75.3792 13.8265 73.123 13.8843L79.2552 5.14883C79.8337 4.33892 80.123 3.87611 80.123 3.47116V1.21497C80.123 0.810017 79.8337 0.578613 79.4288 0.578613H67.6272C67.2801 0.578613 66.9909 0.867868 66.9909 1.21497V3.81826C66.9909 4.22322 67.2801 4.45462 67.6851 4.45462H73.8173L66.7594 14.5785C66.3545 15.2149 66.3545 15.9669 66.3545 16.3719V19.033C66.3545 19.438 66.7594 19.843 67.1644 19.6115C71.1561 17.4711 75.9577 17.7025 79.6023 19.6115C80.0651 19.843 80.4701 19.3801 80.4701 19.033V16.1983C80.4122 15.9669 80.2965 15.562 79.8337 15.3306Z" fill="#221F1F"/>
<path d="M20.4218 20.3058H24.0085C24.4135 20.3058 24.7027 20.0166 24.7027 19.6695V9.89266C24.7027 7.75218 24.587 4.80179 27.1903 4.80179C29.7357 4.80179 29.3886 7.81003 29.3886 9.89266V19.6695C29.3886 20.0166 29.6779 20.3058 30.025 20.3058H33.6117C34.0167 20.3058 34.306 20.0166 34.306 19.6695V9.89266C34.306 8.85135 34.2481 7.28937 34.6531 6.36376C35.0002 5.43815 35.9258 4.85964 36.7935 4.85964C37.8349 4.85964 38.6448 5.20674 38.8762 6.42161C39.0497 7.17367 38.9919 9.08275 38.9919 9.89266V19.6695C38.9919 20.0166 39.2811 20.3058 39.6282 20.3058H43.215C43.62 20.3058 43.9092 20.0166 43.9092 19.6695V8.04143C43.9092 6.0745 44.1406 3.81832 42.9836 2.25635C42.0001 0.867927 40.3225 0.231567 38.8183 0.231567C36.6778 0.231567 34.7109 1.33073 33.8432 3.64477C32.8597 1.33073 31.4134 0.231567 29.2151 0.231567C27.0167 0.231567 25.3969 1.33073 24.4713 3.64477H24.4135V1.21503C24.4135 0.867927 24.1242 0.636523 23.7771 0.578672H20.4218C20.0168 0.578672 19.7275 0.867927 19.7275 1.21503V19.6695C19.7854 20.0166 20.0746 20.248 20.4218 20.3058Z" fill="#221F1F"/>
<path d="M90.2473 0.231567C85.0407 0.231567 82.2061 4.68608 82.2061 10.4133C82.2061 16.0827 85.0407 20.6529 90.2473 20.6529C95.2803 20.6529 98.4621 16.1984 98.4621 10.5869C98.4043 4.80178 95.5696 0.231567 90.2473 0.231567ZM90.2473 16.8926C87.4126 16.8926 87.4705 12.091 87.4705 9.83481C87.4705 7.57863 87.644 3.99187 90.3052 3.99187C91.4622 3.99187 92.2721 4.51253 92.6771 5.78525C93.1399 7.23152 93.1977 9.1406 93.1977 10.6447C93.1399 13.0166 93.0242 16.8926 90.2473 16.8926Z" fill="#221F1F"/>
<path d="M110.726 0C108.239 0 106.85 1.21487 105.867 3.70246H105.751V0.925614C105.693 0.63636 105.404 0.404956 105.115 0.404956H101.817C101.47 0.404956 101.181 0.69421 101.123 0.983465V19.38C101.123 19.7271 101.412 20.0164 101.759 20.0164H105.346C105.751 20.0164 106.04 19.7271 106.04 19.38V9.48754C106.04 8.27267 106.098 7.11566 106.619 6.01649C107.024 5.14873 107.834 4.57022 108.702 4.57022C111.189 4.57022 110.958 7.52061 110.958 9.54539V19.5536C111.016 19.8428 111.247 20.1321 111.594 20.1321H115.181C115.528 20.1321 115.817 19.9007 115.875 19.5536V7.98342C115.875 6.19004 115.875 3.70246 114.949 2.25618C113.85 0.578509 112.288 0 110.726 0Z" fill="#221F1F"/>
<path d="M57.5621 7.86798C55.4794 8.09939 52.7604 8.27294 50.8514 9.1407C48.5952 10.1242 47.0332 12.0911 47.0332 14.9836C47.0332 18.6861 49.4051 20.5952 52.4133 20.5952C54.9588 20.5952 56.3472 20.0167 58.3141 17.9919C58.9505 18.9175 59.1819 19.3803 60.3967 20.3638C60.686 20.4795 61.0331 20.4795 61.2645 20.3059C61.9587 19.6696 63.2893 18.5125 63.9835 17.934C64.2728 17.7026 64.2149 17.2977 63.9835 17.0084C63.3471 16.0828 62.6529 15.3886 62.6529 13.7109V8.09939C62.6529 5.7275 62.8265 3.58702 61.091 1.90934C59.7025 0.578774 57.4464 0.115967 55.7108 0.115967C52.2976 0.115967 48.4795 1.38869 47.6696 5.6118C47.6117 6.07461 47.901 6.30601 48.1902 6.36386L51.6613 6.71097C52.0084 6.71097 52.2398 6.36386 52.2976 6.07461C52.5869 4.62833 53.8018 3.93412 55.1902 3.93412C55.9422 3.93412 56.7521 4.22338 57.215 4.85974C57.7356 5.6118 57.6778 6.59526 57.6778 7.46303L57.5621 7.86798ZM56.9257 15.3307C56.3472 16.3142 55.4216 16.9506 54.4381 16.9506C53.0497 16.9506 52.2398 15.9093 52.2398 14.3473C52.2398 11.2812 54.9588 10.7605 57.5621 10.7605V11.5126C57.5621 12.901 57.6199 14.058 56.9257 15.3307Z" fill="#221F1F"/>
<path d="M16.9503 16.8925C16.3139 15.9668 15.6197 15.2726 15.6197 13.595V7.98342C15.6197 5.61153 15.7933 3.47105 14.0578 1.79338C12.6693 0.462807 10.4132 0 8.67763 0C5.26443 0 1.44627 1.27272 0.63636 5.49583C0.578509 5.95864 0.867763 6.19004 1.15702 6.24789L4.62807 6.595C4.97517 6.595 5.20658 6.24789 5.26443 5.95864C5.55368 4.51237 6.76855 3.81816 8.15697 3.81816C8.90903 3.81816 9.71894 4.10741 10.1818 4.74377C10.7024 5.49583 10.5867 6.4793 10.5867 7.34706V7.80987C8.50408 8.04127 5.78509 8.21482 3.87601 9.08259C1.61982 10.0661 0 12.033 0 14.9834C0 18.6858 2.37189 20.5949 5.38013 20.5949C7.92557 20.5949 9.31399 20.0164 11.2809 17.9916C11.9173 18.9172 12.1487 19.38 13.3635 20.3635C13.6528 20.4792 13.9999 20.4792 14.2313 20.3057C14.9255 19.6693 16.2561 18.5123 16.9503 17.9338C17.2396 17.6445 17.1817 17.2396 16.9503 16.8925ZM9.8925 15.3305C9.31399 16.3139 8.44623 16.9503 7.40491 16.9503C6.01649 16.9503 5.20658 15.909 5.20658 14.347C5.20658 11.2809 7.92557 10.7603 10.5289 10.7603V11.5123C10.5867 12.9007 10.6446 14.0578 9.8925 15.3305Z" fill="#221F1F"/>
</svg>
