<svg width="53" height="53" viewBox="0 0 53 53" fill="none" xmlns="http://www.w3.org/2000/svg">
<rect opacity="0.1" width="53" height="53" rx="4" fill="#377DFF"/>
<g clip-path="url(#clip0_112_217)">
<path d="M27.7031 26.7966V32.1532L32.3421 29.4749V24.1183L27.7031 26.7966Z" fill="#377DFF"/>
<path d="M22.3611 22.9004L27.0001 25.5787L31.6391 22.9004L27.0001 20.222L22.3611 22.9004Z" fill="#377DFF"/>
<path d="M26.2969 26.7966L21.658 24.1183V29.4749L26.2969 32.1532V26.7966Z" fill="#377DFF"/>
<path d="M36.1747 19.0291C35.6691 19.0291 35.2059 19.2132 34.8477 19.5173L27.0235 15L19.171 19.5336C18.8104 19.2198 18.3398 19.0291 17.8253 19.0291C16.6932 19.0291 15.7722 19.9501 15.7722 21.0822C15.7722 21.9844 16.3575 22.752 17.1681 23.0268V32.07L24.941 36.5577C24.9167 36.6838 24.9035 36.8137 24.9035 36.9468C24.9035 38.0789 25.8245 38.9999 26.9566 38.9999C28.0887 38.9999 29.0097 38.0789 29.0097 36.9468C29.0097 36.8383 29.0011 36.7317 28.9848 36.6276L36.8789 32.07V23.0109C37.6651 22.7229 38.2278 21.967 38.2278 21.0822C38.2278 19.9501 37.3067 19.0291 36.1747 19.0291ZM35.4705 31.2569L28.3003 35.3966C27.9399 35.0838 27.4702 34.8938 26.9566 34.8938C26.4685 34.8938 26.0199 35.0653 25.6672 35.3507L18.5765 31.2569V22.9924C19.338 22.6919 19.8784 21.9492 19.8784 21.0822C19.8784 20.9745 19.87 20.8688 19.854 20.7656L27.0235 16.6263L34.1504 20.741C34.1317 20.8521 34.1215 20.9659 34.1215 21.0822C34.1215 21.967 34.6842 22.7229 35.4705 23.0109V31.2569Z" fill="#377DFF"/>
</g>
<defs>
<clipPath id="clip0_112_217">
<rect width="24" height="24" fill="white" transform="translate(15 15)"/>
</clipPath>
</defs>
</svg>
