<svg xmlns="http://www.w3.org/2000/svg" width="24" height="24" viewBox="0 0 24 24" fill="none">
  <path d="M0 21.5385V6.76929H23.3846V21.5385C23.3846 22.8924 22.2769 24.0001 20.9231 24.0001H2.46154C1.10769 24.0001 0 22.8924 0 21.5385Z" fill="#CFD8DC"/>
  <path d="M23.3846 4.30773V8.00004H0V4.30773C0 2.95388 1.10769 1.84619 2.46154 1.84619H20.9231C22.2769 1.84619 23.3846 2.95388 23.3846 4.30773Z" fill="#F44336"/>
  <path d="M15.3846 4.3077C15.3846 4.79733 15.5791 5.26691 15.9253 5.61313C16.2716 5.95935 16.7411 6.15386 17.2308 6.15386C17.7204 6.15386 18.19 5.95935 18.5362 5.61313C18.8824 5.26691 19.0769 4.79733 19.0769 4.3077C19.0769 3.81807 18.8824 3.3485 18.5362 3.00227C18.19 2.65605 17.7204 2.46155 17.2308 2.46155C16.7411 2.46155 16.2716 2.65605 15.9253 3.00227C15.5791 3.3485 15.3846 3.81807 15.3846 4.3077Z" fill="#B71C1C"/>
  <path d="M4.30768 4.3077C4.30768 4.79733 4.50218 5.26691 4.8484 5.61313C5.19463 5.95935 5.6642 6.15386 6.15383 6.15386C6.64346 6.15386 7.11304 5.95935 7.45926 5.61313C7.80548 5.26691 7.99999 4.79733 7.99999 4.3077C7.99999 3.81807 7.80548 3.3485 7.45926 3.00227C7.11304 2.65605 6.64346 2.46155 6.15383 2.46155C5.6642 2.46155 5.19463 2.65605 4.8484 3.00227C4.50218 3.3485 4.30768 3.81807 4.30768 4.3077Z" fill="#B71C1C"/>
  <path d="M17.2308 0C16.5538 0 16 0.553846 16 1.23077V4.30769C16 4.98461 16.5538 5.53846 17.2308 5.53846C17.9077 5.53846 18.4615 4.98461 18.4615 4.30769V1.23077C18.4615 0.553846 17.9077 0 17.2308 0ZM6.15383 0C5.47691 0 4.92307 0.553846 4.92307 1.23077V4.30769C4.92307 4.98461 5.47691 5.53846 6.15383 5.53846C6.83076 5.53846 7.3846 4.98461 7.3846 4.30769V1.23077C7.3846 0.553846 6.83076 0 6.15383 0Z" fill="#B0BEC5"/>
  <path d="M4.92307 10.4615H7.3846V12.9231H4.92307V10.4615ZM8.61537 10.4615H11.0769V12.9231H8.61537V10.4615ZM12.3077 10.4615H14.7692V12.9231H12.3077V10.4615ZM16 10.4615H18.4615V12.9231H16V10.4615ZM4.92307 14.1539H7.3846V16.6154H4.92307V14.1539ZM8.61537 14.1539H11.0769V16.6154H8.61537V14.1539ZM12.3077 14.1539H14.7692V16.6154H12.3077V14.1539ZM16 14.1539H18.4615V16.6154H16V14.1539ZM4.92307 17.8462H7.3846V20.3077H4.92307V17.8462ZM8.61537 17.8462H11.0769V20.3077H8.61537V17.8462ZM12.3077 17.8462H14.7692V20.3077H12.3077V17.8462ZM16 17.8462H18.4615V20.3077H16V17.8462Z" fill="#90A4AE"/>
</svg>