<svg width="40" height="40" viewBox="0 0 40 40" fill="none" xmlns="http://www.w3.org/2000/svg">
<rect opacity="0.1" width="40" height="40" rx="4" fill="#377DFF"/>
<path d="M29.6085 19.8915C29.1853 19.4684 28.6858 19.1291 28.1365 18.8915C28.5063 18.6282 28.8168 18.2903 29.0478 17.8995C29.2789 17.5088 29.4254 17.0739 29.478 16.623C29.5305 16.1721 29.4879 15.7152 29.3529 15.2818C29.2179 14.8484 28.9934 14.4481 28.6941 14.1068C28.3947 13.7655 28.0271 13.4908 27.615 13.3005C27.2029 13.1101 26.7554 13.0083 26.3015 13.0016C25.8476 12.995 25.3973 13.0836 24.9798 13.2617C24.5623 13.4399 24.1867 13.7037 23.8775 14.036C23.6635 13.1694 23.1653 12.3994 22.4624 11.8491C21.7596 11.2987 20.8927 10.9996 20 10.9996C19.1073 10.9996 18.2404 11.2987 17.5376 11.8491C16.8347 12.3994 16.3365 13.1694 16.1225 14.036C15.8133 13.7033 15.4377 13.4391 15.0201 13.2607C14.6024 13.0822 14.1519 12.9934 13.6977 13C13.2435 13.0065 12.7958 13.1083 12.3835 13.2988C11.9711 13.4893 11.6033 13.7642 11.3039 14.1057C11.0045 14.4472 10.78 14.8478 10.6451 15.2815C10.5102 15.7152 10.4678 16.1724 10.5207 16.6236C10.5736 17.0747 10.7206 17.5097 10.9521 17.9004C11.1837 18.2912 11.4947 18.629 11.865 18.892C11.0149 19.2605 10.2909 19.8691 9.78195 20.6433C9.27299 21.4175 9.00121 22.3235 9 23.25V25.5C9.00079 26.1628 9.26444 26.7982 9.73311 27.2669C10.2018 27.7356 10.8372 27.9992 11.5 28H15.013C15.2439 28.3094 15.5437 28.5608 15.8885 28.7344C16.2334 28.908 16.6139 28.9989 17 29H23C23.3861 28.9989 23.7666 28.908 24.1115 28.7344C24.4563 28.5608 24.7561 28.3094 24.987 28H28.5C29.1628 27.9992 29.7982 27.7356 30.2669 27.2669C30.7356 26.7982 30.9992 26.1628 31 25.5V23.25C31.0017 22.626 30.8796 22.0078 30.6408 21.4313C30.4019 20.8548 30.051 20.3315 29.6085 19.8915ZM26.25 14C26.695 14 27.13 14.132 27.5 14.3792C27.87 14.6264 28.1584 14.9778 28.3287 15.389C28.499 15.8001 28.5436 16.2525 28.4568 16.689C28.3699 17.1254 28.1557 17.5263 27.841 17.841C27.5263 18.1557 27.1254 18.37 26.689 18.4568C26.2525 18.5436 25.8001 18.499 25.389 18.3287C24.9778 18.1584 24.6264 17.8701 24.3792 17.5001C24.132 17.13 24 16.695 24 16.25C24.0007 15.6535 24.2379 15.0816 24.6597 14.6598C25.0816 14.2379 25.6535 14.0007 26.25 14ZM23.573 19.327C23.1271 18.9436 22.6225 18.6344 22.0785 18.411C22.5169 18.1426 22.9 17.7928 23.207 17.3805C23.4341 17.9894 23.8381 18.5165 24.367 18.894C24.0893 19.013 23.8234 19.158 23.573 19.327ZM20 12C20.5933 12 21.1734 12.176 21.6667 12.5056C22.1601 12.8353 22.5446 13.3038 22.7716 13.852C22.9987 14.4001 23.0581 15.0033 22.9424 15.5853C22.8266 16.1672 22.5409 16.7018 22.1213 17.1213C21.7018 17.5409 21.1672 17.8266 20.5853 17.9424C20.0033 18.0581 19.4001 17.9987 18.8519 17.7717C18.3038 17.5446 17.8352 17.1601 17.5056 16.6667C17.1759 16.1734 17 15.5934 17 15C17.0008 14.2046 17.3171 13.442 17.8796 12.8796C18.442 12.3171 19.2046 12.0008 20 12ZM16.427 19.327C16.1766 19.158 15.9107 19.013 15.633 18.894C16.1619 18.5165 16.5659 17.9894 16.793 17.3805C17.1 17.7928 17.4831 18.1426 17.9215 18.411C17.3775 18.6344 16.8729 18.9436 16.427 19.327ZM11.5 16.25C11.5 15.805 11.632 15.37 11.8792 15C12.1264 14.63 12.4778 14.3416 12.889 14.1713C13.3001 14.001 13.7525 13.9564 14.189 14.0433C14.6254 14.1301 15.0263 14.3444 15.341 14.659C15.6557 14.9737 15.87 15.3746 15.9568 15.8111C16.0436 16.2475 15.999 16.6999 15.8287 17.1111C15.6584 17.5222 15.37 17.8736 15 18.1208C14.63 18.3681 14.195 18.5 13.75 18.5C13.1535 18.4994 12.5816 18.2621 12.1597 17.8403C11.7379 17.4185 11.5007 16.8466 11.5 16.25ZM11.5 27C11.1022 27 10.7206 26.842 10.4393 26.5607C10.158 26.2794 10 25.8978 10 25.5V23.25C9.99903 22.5826 10.1765 21.927 10.514 21.3511C10.8515 20.7753 11.3368 20.3001 11.9197 19.9748C12.5025 19.6496 13.1617 19.486 13.829 19.5011C14.4963 19.5161 15.1474 19.7093 15.715 20.0605C14.9283 21.0342 14.4994 22.2482 14.5 23.5V26.5C14.4998 26.6679 14.5166 26.8355 14.55 27H11.5ZM24.5 26.5C24.5 26.8978 24.342 27.2794 24.0607 27.5607C23.7794 27.842 23.3978 28 23 28H17C16.6022 28 16.2206 27.842 15.9393 27.5607C15.658 27.2794 15.5 26.8978 15.5 26.5V23.5C15.5 22.3065 15.9741 21.162 16.818 20.318C17.6619 19.4741 18.8065 19 20 19C21.1935 19 22.3381 19.4741 23.182 20.318C24.0259 21.162 24.5 22.3065 24.5 23.5V26.5ZM30 25.5C30 25.8978 29.842 26.2794 29.5607 26.5607C29.2794 26.842 28.8978 27 28.5 27H25.45C25.4834 26.8355 25.5002 26.6679 25.5 26.5V23.5C25.5006 22.2482 25.0717 21.0342 24.285 20.0605C24.8527 19.7101 25.5037 19.5176 26.1707 19.503C26.8377 19.4883 27.4965 19.652 28.079 19.9772C28.6616 20.3023 29.1468 20.777 29.4845 21.3524C29.8222 21.9278 30.0002 22.5829 30 23.25V25.5Z" fill="#377DFF"/>
</svg>
