<svg width="53" height="53" viewBox="0 0 53 53" fill="none" xmlns="http://www.w3.org/2000/svg">
<rect opacity="0.1" width="53" height="53" rx="4" fill="#0074D9"/>
<g clip-path="url(#clip0_112_268)">
<path d="M25.0837 26.9275L28.0359 23.9753L30.0246 25.9641L27.0725 28.9162" stroke="#0074D9" stroke-width="1.5" stroke-miterlimit="10"/>
<path d="M25.0837 30.905L18.1037 37.8849C17.5545 38.4341 16.6642 38.4341 16.115 37.8849C15.5658 37.3358 15.5658 36.4454 16.115 35.8962L23.095 28.9163" stroke="#0074D9" stroke-width="1.5" stroke-miterlimit="10"/>
<path d="M31.6825 27.6217L35.8438 23.4604L30.5397 18.1564L26.3784 22.3177L31.6825 27.6217Z" stroke="#0074D9" stroke-width="1.5" stroke-miterlimit="10"/>
<path d="M24.3523 20.2173L28.4392 16.1304C29.0089 15.5607 29.9327 15.5607 30.5024 16.1304C31.0721 16.7001 31.0721 17.6239 30.5024 18.1936L26.4155 22.2805C25.8458 22.8502 24.9221 22.8502 24.3523 22.2805C23.7826 21.7107 23.7826 20.787 24.3523 20.2173Z" stroke="#0074D9" stroke-width="1.5" stroke-miterlimit="10"/>
<path d="M31.7196 27.5845L35.8065 23.4976C36.3762 22.9279 37.2999 22.9279 37.8697 23.4976C38.4394 24.0673 38.4394 24.991 37.8697 25.5608L33.7828 29.6477C33.213 30.2174 32.2893 30.2174 31.7196 29.6477C31.1498 29.0779 31.1498 28.1542 31.7196 27.5845Z" stroke="#0074D9" stroke-width="1.5" stroke-miterlimit="10"/>
<path d="M24.899 30.7202L23.2796 29.1008C22.7304 28.5516 22.7304 27.6612 23.2796 27.1121C23.8288 26.5629 24.7191 26.5629 25.2683 27.1121L26.8877 28.7315C27.4369 29.2807 27.4369 30.1711 26.8877 30.7202C26.3385 31.2694 25.4481 31.2694 24.899 30.7202Z" stroke="#0074D9" stroke-width="1.5" stroke-miterlimit="10"/>
<path d="M36.8906 35.4844H28.7969V38.2969H36.8906V35.4844Z" stroke="#0074D9" stroke-width="1.5" stroke-miterlimit="10"/>
<path d="M39 38.2969H26.6875" stroke="#0074D9" stroke-width="1.5" stroke-miterlimit="10"/>
</g>
<defs>
<clipPath id="clip0_112_268">
<rect width="24" height="24" fill="white" transform="translate(15 15)"/>
</clipPath>
</defs>
</svg>
