<svg xmlns="http://www.w3.org/2000/svg" width="208" height="28" viewBox="0 0 208 28" fill="none">
  <path d="M20.403 4.57963C17.9619 2.02383 14.8982 0.713442 11.4549 0.189984C10.9223 0.108991 10.3837 0.0624949 9.84814 0H1.40716C1.3537 0.0224982 1.30124 0.0479961 1.24679 0.0679944C0.450402 0.357471 0.000749421 0.988919 0.000749421 1.83585C-0.000249807 9.7527 -0.000249807 17.6701 0.000749421 25.5874C0.000749421 26.6878 0.775151 27.4598 1.87031 27.4613C3.19378 27.4633 4.51726 27.4713 5.84074 27.4593C7.29661 27.4458 8.75299 27.5073 10.2084 27.4173C11.6857 27.3263 13.1301 27.0658 14.5355 26.6043C17.2889 25.7004 19.6131 24.1745 21.3588 21.8352C23.1409 19.4479 23.8968 16.7236 23.9283 13.7794C23.9378 12.8994 23.8563 12.021 23.6969 11.1516C23.2368 8.64079 22.1696 6.42998 20.402 4.57963H20.403ZM18.8572 18.1235C17.8799 20.2228 16.2742 21.6852 14.1873 22.6387C12.8263 23.2606 11.3895 23.5996 9.8981 23.6976C8.02755 23.8206 6.154 23.7271 4.28194 23.7546C4.12157 23.7571 4.05762 23.6886 4.06111 23.5301C4.06711 23.2726 4.06211 23.0146 4.06211 22.7566C4.06211 19.7289 4.06211 16.7016 4.06211 13.6739C4.06211 10.4551 4.06211 7.23591 4.06211 4.01717C4.06211 3.77886 4.17985 3.65953 4.41534 3.6592C5.73882 3.6592 7.06279 3.6472 8.38627 3.6617C10.4257 3.6847 12.4172 3.96918 14.2802 4.8601C17.217 6.26399 19.0321 8.5513 19.6086 11.7615C20.0008 13.9469 19.8045 16.0872 18.8572 18.123V18.1235Z" fill="black"/>
  <path d="M161.253 1.84835C161.253 1.56237 161.19 1.28889 161.073 1.02642C160.824 0.464462 160.364 0.165986 159.797 0H158.848C157.806 0.284977 157.361 1.02942 157.373 2.10783C157.402 4.60212 157.382 7.09742 157.382 9.59172V9.91669C157.276 9.7807 157.216 9.70321 157.155 9.62571C156.405 8.68079 155.503 7.91635 154.426 7.3684C152.704 6.49297 150.877 6.22449 148.972 6.46997C145.792 6.87944 143.405 8.5103 141.784 11.2466C140.5 13.4134 140.091 15.7862 140.296 18.2785C140.428 19.8999 140.875 21.4263 141.652 22.8571C143.572 26.3878 147.279 28.3412 151.286 27.9132C153.511 27.6752 155.358 26.6963 156.831 25.013C157.009 24.8095 157.175 24.5965 157.382 24.3455C157.382 24.8125 157.379 25.2259 157.383 25.6389C157.392 26.7393 158.218 27.5548 159.323 27.5557C160.4 27.5567 161.25 26.7268 161.251 25.6469C161.254 17.7136 161.253 9.7802 161.252 1.84685L161.253 1.84835ZM156.053 21.5562C154.799 23.4081 153.008 24.325 150.597 24.366C148.113 24.2785 146.129 23.0611 144.967 20.7008C143.646 18.0155 143.784 15.3232 145.449 12.8085C146.579 11.1006 148.236 10.1857 150.295 10.0347C153.584 9.7937 156.167 11.8435 157.021 14.7803C157.716 17.1691 157.466 19.4689 156.053 21.5562Z" fill="black"/>
  <path d="M95.1692 1.14441C94.9274 0.514458 94.4348 0.181485 93.8133 0H92.864C92.3654 0.157487 91.9362 0.408467 91.6729 0.882428C91.4646 1.2574 91.4146 1.66736 91.4146 2.08733C91.4146 9.86119 91.4146 17.6351 91.4146 25.4089C91.4146 25.4754 91.4126 25.5419 91.4161 25.6084C91.4441 26.1929 91.5895 26.7368 92.0751 27.1103C92.7381 27.6207 93.478 27.7042 94.238 27.3648C95.0019 27.0233 95.3096 26.3718 95.3101 25.5709C95.3146 17.7056 95.3131 9.8402 95.3116 1.97484C95.3116 1.69086 95.2717 1.41138 95.1692 1.14391V1.14441Z" fill="black"/>
  <path d="M134.036 7.92188C131.886 6.54499 129.496 6.14652 126.996 6.49549C123.808 6.94046 121.36 8.56832 119.726 11.3436C118.351 13.6789 117.89 16.2257 118.333 18.888C119.031 23.0796 121.376 25.9779 125.408 27.4063C127.668 28.2067 129.988 28.1267 132.299 27.5878C133.459 27.3173 134.556 26.8878 135.516 26.1614C136.055 25.7534 136.515 25.2775 136.699 24.6C136.943 23.6986 136.454 22.9152 135.552 22.7617C135.181 22.6987 134.821 22.7512 134.482 22.9197C134.133 23.0941 133.783 23.2706 133.439 23.4556C131.672 24.405 129.79 24.749 127.815 24.4235C124.667 23.9051 122.633 21.4938 122.149 18.468C122.112 18.2355 122.178 18.1735 122.414 18.1745C124.728 18.183 127.042 18.1795 129.355 18.1795C129.588 18.1795 129.822 18.1795 130.054 18.1795C132.102 18.1795 134.149 18.1845 136.197 18.177C137.417 18.1725 138.207 17.4866 138.393 16.2917C138.482 15.7177 138.421 15.1463 138.333 14.5798C137.892 11.7236 136.469 9.48025 134.036 7.92137L134.036 7.92188ZM133.994 15.6047H128.377C126.404 15.6047 124.432 15.6047 122.46 15.6047C122.322 15.6047 122.192 15.6292 122.237 15.4013C122.635 13.4259 123.513 11.7511 125.243 10.6167C126.072 10.0722 126.995 9.78872 127.988 9.72973C129.89 9.61624 131.537 10.1772 132.84 11.5951C133.738 12.572 134.217 13.7589 134.456 15.0508C134.525 15.4198 134.37 15.6042 133.993 15.6042L133.994 15.6047Z" fill="black"/>
  <path d="M40.6855 7.1894C38.7769 6.35946 36.762 6.19998 34.7146 6.54345C32.6157 6.89492 30.7951 7.81935 29.3082 9.34122C27.4342 11.2591 26.4754 13.6039 26.2836 16.2552C26.1217 18.493 26.5119 20.6368 27.6455 22.5986C29.5411 25.8794 32.4283 27.6252 36.1774 27.9457C37.4809 28.0572 38.7884 27.9582 40.0714 27.6607C41.4219 27.3478 42.7074 26.8888 43.7916 25.9874C44.2267 25.6259 44.5824 25.1994 44.7473 24.6445C45.0511 23.6206 44.4021 22.7536 43.3339 22.7411C42.7708 22.7346 42.3077 23.0091 41.8486 23.2716C40.1759 24.2275 38.3912 24.665 36.4632 24.4985C35.47 24.4125 34.5307 24.152 33.6669 23.6561C31.7069 22.5311 30.6432 20.7908 30.243 18.608C30.1646 18.1815 30.1751 18.1795 30.6157 18.1795C32.88 18.1795 35.1437 18.1795 37.408 18.1795C39.6887 18.1795 41.9695 18.1835 44.2502 18.1775C45.4498 18.1745 46.2532 17.5151 46.4425 16.3467C46.5439 15.7212 46.492 15.0858 46.3796 14.4608C45.7625 11.0366 43.8825 8.57928 40.686 7.1894H40.6855ZM42.4306 15.6042C42.3642 15.6027 42.2972 15.6047 42.2308 15.6047C40.2998 15.6047 38.3687 15.6047 36.4377 15.6047C34.4902 15.6047 32.5427 15.6047 30.5948 15.6047C30.268 15.6047 30.2585 15.5882 30.3275 15.2587C30.6272 13.8294 31.2118 12.544 32.243 11.486C33.2927 10.4091 34.5677 9.81668 36.0725 9.72919C37.7877 9.6292 39.3155 10.0847 40.586 11.2746C41.5858 12.2115 42.1458 13.3924 42.4491 14.7088C42.5031 14.9433 42.536 15.1827 42.584 15.4187C42.6105 15.5502 42.562 15.6082 42.4301 15.6047L42.4306 15.6042Z" fill="black"/>
  <path d="M73.9067 6.93496C69.8088 8.31734 67.0884 12.054 66.7882 16.3607C66.6718 18.0306 66.9041 19.6589 67.5126 21.2298C69.0859 25.2885 72.9559 28.0337 77.316 27.9642C77.7677 27.9802 78.2813 27.9492 78.7924 27.8677C81.866 27.3783 84.2827 25.8359 85.9714 23.2391C87.8204 20.3964 88.2381 17.2941 87.3258 14.0384C85.7021 8.24335 79.5963 5.01611 73.9067 6.93546V6.93496ZM82.7453 21.2943C81.4908 23.3051 79.6452 24.309 77.2626 24.3695C74.7595 24.2895 72.8755 23.1491 71.6199 20.9863C70.1121 18.3885 70.3469 14.8618 72.187 12.4955C73.3451 11.0061 74.8819 10.1827 76.772 10.0372C80.3792 9.75973 83.0336 12.1995 83.6996 15.3913C84.1333 17.4711 83.884 19.4694 82.7453 21.2938V21.2943Z" fill="black"/>
  <path d="M116.307 6.86044C115.281 6.55946 114.404 6.93943 113.931 7.89286C113.865 8.02685 113.805 8.16433 113.753 8.30482C111.943 13.2114 110.133 18.118 108.323 23.0251C108.209 23.3346 108.09 23.6426 107.948 24.02C107.885 23.8616 107.85 23.7781 107.819 23.6926C106.121 19.0634 104.426 14.4333 102.723 9.8062C102.476 9.13575 102.286 8.44281 101.967 7.80036C101.688 7.23491 101.24 6.87644 100.599 6.79795C99.1051 6.61446 98.0769 7.55088 98.3422 9.02526C98.4406 9.57122 98.676 10.0697 98.8738 10.5801C100.329 14.3323 101.789 18.083 103.248 21.8332C103.694 22.9801 104.122 24.1345 104.598 25.2689C105.146 26.5738 106.037 27.4823 107.543 27.5852C108.704 27.6647 109.715 27.3573 110.48 26.4243C110.844 25.9809 111.098 25.4779 111.303 24.949C113.23 19.9799 115.156 15.0098 117.081 10.0397C117.252 9.59822 117.423 9.15875 117.484 8.68129C117.592 7.83736 117.125 7.10042 116.308 6.86044H116.307Z" fill="black"/>
  <path d="M65.1296 6.94833C64.1179 6.48737 63.0217 6.86784 62.5236 7.85625C62.4527 7.99724 62.3857 8.14123 62.3313 8.28872C60.8649 12.2584 59.401 16.2286 57.9362 20.1987C57.473 21.4541 57.0089 22.7085 56.5228 24.0239C56.4818 23.9279 56.4613 23.8844 56.4448 23.8394C55.1483 20.3037 53.8518 16.7675 52.5563 13.2313C51.9273 11.514 51.3128 9.7911 50.6678 8.07974C50.3051 7.11732 49.6521 6.72335 48.6333 6.77784C47.7365 6.82634 47.0586 7.37079 46.9112 8.17023C46.8098 8.71968 46.9237 9.24264 47.123 9.7541C48.3651 12.9463 49.6056 16.1391 50.8481 19.3313C51.611 21.2917 52.3595 23.258 53.1459 25.2083C53.6814 26.5362 54.5758 27.4687 56.1011 27.5836C57.1238 27.6611 58.0526 27.4342 58.807 26.6907C59.2656 26.2383 59.5824 25.6928 59.8127 25.0988C61.7682 20.0608 63.7202 15.0212 65.6732 9.98258C65.8171 9.61061 65.9675 9.24264 66.0349 8.84467C66.1783 7.99824 65.8361 7.2698 65.1301 6.94783L65.1296 6.94833Z" fill="black"/>
  <path d="M193.876 20.2123C192.528 17.2356 191.175 14.2608 189.824 11.2851C188.617 8.62779 187.398 5.97551 186.209 3.31023C185.752 2.28631 185.182 1.37539 184.217 0.754438C183.604 0.360471 182.93 0.140489 182.224 0C181.791 0 181.358 0 180.925 0C180.861 0.0164987 180.798 0.036497 180.734 0.048996C177.666 0.645447 175.935 3.86618 177.179 6.69195C177.823 8.15283 178.497 9.60071 179.157 11.0541C180.181 13.3104 181.205 15.5672 182.23 17.823C183.351 20.2908 184.455 22.7671 185.602 25.2229C186.522 27.1913 188.55 28.2347 190.702 27.9122C193.398 27.5082 195.239 24.8145 194.643 22.1572C194.488 21.4667 194.163 20.8473 193.876 20.2123Z" fill="#204FA2"/>
  <path d="M207.692 3.13924C207.022 1.45238 205.798 0.418966 204.018 0.0454963C203.962 0.0334973 203.907 0.0149988 203.852 0H202.504C201.936 0.133989 201.371 0.276477 200.863 0.574953C199.215 1.54287 198.374 3.00275 198.367 4.8946C198.347 10.8736 198.36 16.8526 198.359 22.8311C198.359 23.2146 198.384 23.5951 198.447 23.9725C198.837 26.2774 200.96 28.2812 203.754 27.9302C205.773 27.6767 207.103 26.4963 207.771 24.5755C207.892 24.228 207.917 23.861 207.998 23.5056V4.44164C207.916 4.00267 207.858 3.55771 207.692 3.13924Z" fill="#204FA2"/>
  <path d="M173.915 17.8151C171.128 17.8006 168.817 20.1124 168.837 22.9027C168.858 25.8924 171.331 28.0297 173.929 27.9597C176.675 28.0157 178.953 25.6949 179.003 22.9901C179.053 20.3214 176.917 17.8306 173.915 17.8151Z" fill="#204FA2"/>
</svg>