<svg width="40" height="40" viewBox="0 0 40 40" fill="none" xmlns="http://www.w3.org/2000/svg">
<rect width="40" height="40" rx="7" fill="url(#paint0_linear_155_3065)"/>
<g clip-path="url(#clip0_155_3065)">
<path d="M17.7842 21.2894C17.7146 21.2894 16.1833 21.2894 15.4872 21.2894C15.116 21.2894 15 21.1392 15 20.7637C15 19.7624 15 18.7362 15 17.7349C15 17.3344 15.1392 17.2093 15.4872 17.2093H17.7842C17.7842 17.1342 17.7842 15.6823 17.7842 15.0065C17.7842 14.0053 17.9466 13.0541 18.4107 12.178C18.8979 11.2768 19.594 10.6761 20.4756 10.3257C21.0557 10.1004 21.6357 10.0002 22.2622 10.0002H24.536C24.8608 10.0002 25 10.1504 25 10.5009V13.3544C25 13.7049 24.8608 13.8551 24.536 13.8551C23.9095 13.8551 23.2831 13.8551 22.6566 13.8801C22.0302 13.8801 21.7053 14.2055 21.7053 14.9064C21.6821 15.6573 21.7053 16.3832 21.7053 17.1592H24.3968C24.768 17.1592 24.9072 17.3094 24.9072 17.7099V20.7387C24.9072 21.1392 24.7912 21.2643 24.3968 21.2643C23.5615 21.2643 21.7749 21.2643 21.7053 21.2643V29.4245C21.7053 29.8501 21.5893 30.0002 21.1717 30.0002C20.1972 30.0002 19.2459 30.0002 18.2715 30.0002C17.9234 30.0002 17.7842 29.8501 17.7842 29.4746C17.7842 26.8463 17.7842 21.3644 17.7842 21.2894Z" fill="black"/>
</g>
<defs>
<linearGradient id="paint0_linear_155_3065" x1="20" y1="0" x2="20" y2="40" gradientUnits="userSpaceOnUse">
<stop stop-color="#F6C9FF"/>
<stop offset="1" stop-color="#E6E8FF"/>
</linearGradient>
<clipPath id="clip0_155_3065">
<rect width="20" height="20" fill="white" transform="translate(10 10)"/>
</clipPath>
</defs>
</svg>
