<svg width="135" height="35" viewBox="0 0 135 35" fill="none" xmlns="http://www.w3.org/2000/svg">
<path d="M19.4444 2.61494C19.4444 4.02299 18.2375 5.22989 16.8295 5.22989C15.4215 5.22989 14.2146 4.02299 14.2146 2.61494C14.2146 1.2069 15.4215 0 16.8295 0C18.2375 0 19.4444 1.2069 19.4444 2.61494ZM16.8295 7.37548C15.2874 7.37548 14.0805 8.58238 14.0805 10.1245C14.0805 11.6667 15.2874 12.8736 16.8295 12.8736C18.3716 12.8736 19.5785 11.6667 19.5785 10.1245C19.5785 8.51533 18.3716 7.37548 16.8295 7.37548ZM16.8295 14.6839C15.2874 14.6839 14.0134 15.9579 14.0134 17.5C14.0134 19.0421 15.2874 20.3161 16.8295 20.3161C18.3716 20.3161 19.6456 19.0421 19.6456 17.5C19.7126 16.0249 18.3716 14.6839 16.8295 14.6839ZM16.8295 22.1935C15.2874 22.1935 14.0805 23.4004 14.0805 24.9425C14.0805 26.4847 15.2874 27.6916 16.8295 27.6916C18.3716 27.6916 19.5785 26.4847 19.5785 24.9425C19.5785 23.4674 18.3716 22.1935 16.8295 22.1935ZM16.8295 29.7701C15.4215 29.7701 14.2146 30.977 14.2146 32.3851C14.2146 33.7931 15.4215 35 16.8295 35C18.2375 35 19.4444 33.7931 19.4444 32.3851C19.4444 30.977 18.2375 29.7701 16.8295 29.7701ZM24.0709 6.97318C22.3946 6.97318 20.9866 8.38123 20.9866 10.0575C20.9866 11.7337 22.3946 13.1418 24.0709 13.1418C25.7471 13.1418 27.1552 11.7337 27.1552 10.0575C27.1552 8.38123 25.7471 6.97318 24.0709 6.97318ZM24.0709 14.3487C22.2605 14.3487 20.8525 15.7567 20.8525 17.5671C20.8525 19.3774 22.2605 20.7854 24.0709 20.7854C25.8812 20.7854 27.2893 19.3774 27.2893 17.5671C27.2893 15.7567 25.8812 14.3487 24.0709 14.3487ZM24.0709 21.7912C22.3946 21.7912 20.9866 23.1992 20.9866 24.8755C20.9866 26.5517 22.3946 27.9598 24.0709 27.9598C25.7471 27.9598 27.1552 26.5517 27.1552 24.8755C27.1552 23.2663 25.7471 21.7912 24.0709 21.7912ZM31.5805 14.0134C29.7031 14.0134 28.0268 15.5556 28.0268 17.5671C28.0268 19.4444 29.569 21.1207 31.5805 21.1207C33.592 21.1207 35.1341 19.5785 35.1341 17.5671C35 15.5556 33.4579 14.0134 31.5805 14.0134ZM9.52107 7.71073C8.24713 7.71073 7.17433 8.78352 7.17433 10.0575C7.17433 11.3314 8.24713 12.4042 9.52107 12.4042C10.795 12.4042 11.8678 11.3314 11.8678 10.0575C11.8678 8.78352 10.795 7.71073 9.52107 7.71073ZM9.52107 15.0862C8.11303 15.0862 7.04023 16.159 7.04023 17.5671C7.04023 18.9751 8.11303 20.0479 9.52107 20.0479C10.9291 20.0479 12.0019 18.9751 12.0019 17.5671C12.0019 16.159 10.9291 15.0862 9.52107 15.0862ZM9.52107 22.5287C8.24713 22.5287 7.17433 23.6015 7.17433 24.8755C7.17433 26.1494 8.24713 27.2222 9.52107 27.2222C10.795 27.2222 11.8678 26.1494 11.8678 24.8755C11.8678 23.6015 10.795 22.5287 9.52107 22.5287ZM2.14559 15.4215C0.938697 15.4215 0 16.3602 0 17.5671C0 18.7739 0.938697 19.7126 2.14559 19.7126C3.35249 19.7126 4.29119 18.7739 4.29119 17.5671C4.29119 16.3602 3.35249 15.4215 2.14559 15.4215Z" fill="#00B0B9"/>
<path d="M61.8873 12.9404C61.6191 12.9404 61.418 13.2086 61.418 13.4098V32.0496C61.418 32.3178 61.6862 32.519 61.8873 32.519H64.167C64.4352 32.519 64.6364 32.2508 64.6364 32.0496V13.4098C64.6364 13.1416 64.3682 12.9404 64.167 12.9404H61.8873Z" fill="#002A3A"/>
<path d="M63.0938 5.0957C61.8869 5.0957 60.9482 6.0344 60.9482 7.2413C60.9482 8.44819 61.8869 9.38689 63.0938 9.38689C64.3007 9.38689 65.2394 8.44819 65.2394 7.2413C65.2394 6.0344 64.3007 5.0957 63.0938 5.0957Z" fill="#002A3A"/>
<path d="M109.694 12.9404C109.426 12.9404 109.225 13.2086 109.225 13.4098V32.0496C109.225 32.3178 109.493 32.519 109.694 32.519H111.974C112.242 32.519 112.443 32.2508 112.443 32.0496V13.4098C112.443 13.1416 112.175 12.9404 111.974 12.9404H109.694Z" fill="#002A3A"/>
<path d="M110.767 5.0957C109.56 5.0957 108.621 6.0344 108.621 7.2413C108.621 8.44819 109.56 9.38689 110.767 9.38689C111.974 9.38689 112.912 8.44819 112.912 7.2413C112.912 6.0344 111.974 5.0957 110.767 5.0957Z" fill="#002A3A"/>
<path d="M133.295 30.7087C133.429 30.5746 133.429 30.4405 133.429 30.3735C133.429 30.2394 133.429 30.2394 133.429 30.2394C133.429 30.2394 133.429 30.1053 133.295 30.1053C133.295 30.1053 133.161 29.9712 133.027 29.9712C132.893 29.9712 132.893 29.9712 132.759 29.9712H132.155V31.6474H132.423V31.044H132.759L133.228 31.6474H133.496L132.893 30.9099C133.161 30.9769 133.295 30.8428 133.295 30.7087ZM132.491 30.8428V30.2394H132.96C133.094 30.2394 133.228 30.2394 133.295 30.3735C133.429 30.3735 133.429 30.5076 133.429 30.6417C133.429 30.7758 133.429 30.9099 133.295 30.9099C133.161 30.9099 133.027 31.044 132.96 31.044H132.491V30.8428Z" fill="#002A3A"/>
<path d="M132.825 29.3008C132.021 29.3008 131.283 30.0383 131.283 30.8429C131.283 31.6475 132.021 32.3851 132.825 32.3851C133.63 32.3851 134.367 31.6475 134.367 30.8429C134.367 30.0383 133.63 29.3008 132.825 29.3008ZM132.825 32.251C132.021 32.251 131.417 31.6475 131.417 30.8429C131.417 30.0383 132.021 29.4349 132.825 29.4349C133.63 29.4349 134.233 30.0383 134.233 30.8429C134.233 31.6475 133.563 32.251 132.825 32.251Z" fill="#002A3A"/>
<path d="M80.3927 16.025C80.6609 16.025 80.862 15.7568 80.862 15.5557V13.276C80.862 13.0078 80.5938 12.8066 80.3927 12.8066H75.6321V5.69933C75.6321 5.43113 75.3639 5.22998 75.1628 5.22998H72.8831C72.6149 5.22998 72.4137 5.49818 72.4137 5.69933V12.8066H70.067C69.7988 12.8066 69.5977 13.0748 69.5977 13.276V15.5557C69.5977 15.8239 69.8659 16.025 70.067 16.025H72.4137V26.82C72.4137 30.1725 74.6934 32.2511 77.8448 32.2511H80.1915C80.4597 32.2511 80.6609 31.9829 80.6609 31.7817V29.502C80.6609 29.2338 80.3927 29.0327 80.1915 29.0327H78.18C76.6379 29.0327 75.5651 27.9599 75.5651 26.2836V15.8909H80.3256L80.3927 16.025Z" fill="#002A3A"/>
<path d="M127.596 16.025C127.864 16.025 128.065 15.7568 128.065 15.5557V13.276C128.065 13.0078 127.797 12.8066 127.596 12.8066H122.835V5.69933C122.835 5.43113 122.567 5.22998 122.366 5.22998H120.086C119.818 5.22998 119.617 5.49818 119.617 5.69933V12.8066H117.27C117.002 12.8066 116.801 13.0748 116.801 13.276V15.5557C116.801 15.8239 117.069 16.025 117.27 16.025H119.617V26.82C119.617 30.1725 121.897 32.2511 125.048 32.2511H127.395C127.663 32.2511 127.864 31.9829 127.864 31.7817V29.502C127.864 29.2338 127.596 29.0327 127.395 29.0327H125.383C123.841 29.0327 122.768 27.9599 122.768 26.2836V15.8909H127.663L127.596 16.025Z" fill="#002A3A"/>
<path d="M47.8067 16.0247V31.9155C47.8067 32.1837 48.0749 32.3849 48.276 32.3849H50.5557C50.8239 32.3849 51.0251 32.1167 51.0251 31.9155V16.0247H56.2549C56.5231 16.0247 56.7243 15.7565 56.7243 15.5554V13.2757C56.7243 13.0075 56.4561 12.8063 56.2549 12.8063H51.0251V8.64923C51.0251 6.97298 52.2319 5.83314 53.64 5.83314H56.2549C56.5231 5.83314 56.7243 5.56494 56.7243 5.36379V3.0841C56.7243 2.8159 56.4561 2.61475 56.2549 2.61475H53.7741C50.4216 2.61475 47.8737 5.36379 47.8737 8.51513V12.8063H45.527C45.2588 12.8063 45.0576 13.0745 45.0576 13.2757V15.5554C45.0576 15.8236 45.3258 16.0247 45.527 16.0247H47.8067Z" fill="#002A3A"/>
<path d="M102.117 15.1534C100.306 13.276 97.8254 12.2032 95.2105 12.2032C92.7297 12.2032 90.2488 13.276 88.7067 14.8181V2.95031C88.7067 2.68211 88.4385 2.48096 88.2373 2.48096H85.9576C85.6894 2.48096 85.4883 2.74916 85.4883 2.95031V22.5288C85.4883 29.7702 90.3829 32.9886 95.0764 32.9886C99.8369 32.9886 104.665 29.7702 104.665 22.5288C104.866 19.6457 103.927 17.0978 102.117 15.1534ZM95.2105 29.9714C90.45 29.9714 88.7067 26.1495 88.7067 22.5959C88.7067 18.2377 91.3216 15.3545 95.2105 15.3545C99.0994 15.3545 101.714 18.3047 101.714 22.5959C101.647 26.2166 99.971 29.9714 95.2105 29.9714Z" fill="#002A3A"/>
</svg>
