<svg width="32" height="32" viewBox="0 0 32 32" fill="none" xmlns="http://www.w3.org/2000/svg">
<path d="M16.2816 2.66663C8.76342 2.66663 2.6665 8.78737 2.6665 16.3379C2.6665 22.3769 6.56772 27.5003 11.9804 29.3096C12.6612 29.4355 12.9097 29.0134 12.9097 28.6509C12.9097 28.3258 12.8978 27.4662 12.891 26.3258C9.10384 27.1513 8.30386 24.4926 8.30386 24.4926C7.68599 22.9131 6.79239 22.4927 6.79239 22.4927C5.55497 21.645 6.88431 21.6621 6.88431 21.6621C8.25109 21.7591 8.96938 23.0714 8.96938 23.0714C10.1847 25.1599 12.1574 24.5573 12.9336 24.2067C13.0561 23.3233 13.4085 22.7208 13.7982 22.3786C10.7753 22.0331 7.59578 20.8604 7.59578 15.623C7.59578 14.1303 8.12684 12.9099 8.99831 11.9533C8.85704 11.6078 8.39066 10.2171 9.13108 8.33632C9.13108 8.33632 10.2749 7.96867 12.8757 9.73715C13.9616 9.43417 15.1259 9.28269 16.285 9.27758C17.4407 9.28439 18.6067 9.43417 19.6943 9.73885C22.2934 7.97037 23.4355 8.33802 23.4355 8.33802C24.1776 10.2205 23.7113 11.6095 23.5717 11.955C24.4449 12.9116 24.9708 14.132 24.9708 15.6247C24.9708 20.8757 21.7879 22.0314 18.7547 22.3701C19.2432 22.7922 19.679 23.6263 19.679 24.9011C19.679 26.7292 19.662 28.2032 19.662 28.6509C19.662 29.0168 19.9071 29.4423 20.5981 29.3079C26.0023 27.4968 29.9001 22.3752 29.9001 16.3379C29.9001 8.78737 23.8032 2.66663 16.2816 2.66663Z" fill="#0074D9"/>
</svg>
