<svg width="557" height="408" viewBox="0 0 557 408" fill="none" xmlns="http://www.w3.org/2000/svg">
<path opacity="0.1" d="M255.284 347.8C238.988 347.845 222.692 348.226 206.424 349.978C200.289 350.639 194.287 352.094 188.141 352.676C175.864 353.846 163.8 356.03 151.479 357.037C141.554 357.849 131.589 358.325 121.698 359.355C112.422 360.318 102.149 360.099 92.946 358.504C86.1331 357.323 79.2867 356.657 72.5859 354.764C65.0901 352.643 56.9505 351.126 49.1412 351.182C38.0067 351.26 27.1633 351.271 16.5046 355.016C12.7651 356.332 8.18586 358.493 5.34205 361.253C-1.16288 367.567 -2.04178 383.326 4.45196 389.875C15.3906 400.898 38.7288 405.225 54.0619 405.432C70.8616 405.656 87.18 404.447 104.002 403.736C119.632 403.076 135.228 402.135 150.886 402.169C182.867 402.236 214.849 402.169 246.775 400.097C276.769 398.155 306.836 398.821 336.892 398.821C367.715 398.821 398.331 399.056 428.93 403.025C442.264 404.755 455.845 405.36 469.247 406.569C481.249 407.655 492.781 406.546 504.733 405.544C514.77 404.705 524.74 402.208 533.86 397.987C541.076 394.645 553.945 384.266 556.157 376.295C562.359 353.942 468.704 354.479 454.323 354.529C438.234 354.585 422.022 355.1 405.95 354.507C399.187 354.255 392.526 352.979 385.926 351.574C379.353 350.174 372.731 350.532 366.064 349.945C338.264 347.498 310.408 347.856 282.524 347.856C273.444 347.851 264.364 347.772 255.284 347.8Z" fill="#8CABEF"/>
<path opacity="0.3" d="M175.556 53.6172C176.682 53.6172 177.801 53.6564 178.91 53.7348C182.655 32.1151 201.626 15.668 224.467 15.668C234.912 15.668 244.547 19.1108 252.289 24.9104C260.652 10.2547 276.5 0.362957 294.677 0.362957C321.57 0.362957 343.375 22.0106 343.375 48.7189C343.375 50.4095 343.285 52.0834 343.117 53.7292C344.22 53.6564 345.334 53.6116 346.459 53.6116C373.352 53.6116 395.157 75.2593 395.157 101.968C395.157 128.676 373.352 150.324 346.459 150.324H175.556C148.663 150.324 126.859 128.676 126.859 101.968C126.859 75.2705 148.658 53.6172 175.556 53.6172Z" fill="#0074D9"/>
<path d="M257.73 202.845L248.891 205.879L234.588 227.314L216.271 215.059L210.449 221.967L219.691 235.677L236.323 247.556L257.73 225.147V202.845Z" fill="#3B3387"/>
<path d="M298.59 155.3L299.268 145.683L291.492 139.659L288.228 143.931L291.738 150.2L290.484 153.464L293.933 158.642L298.59 155.3Z" fill="#EAC1A4"/>
<path d="M236.951 264.535L236.324 318.954L242.123 389.008H250.005L259.444 324.373L270.231 259.631L236.951 264.535Z" fill="#292949"/>
<path d="M249.96 392.333L241.434 396.593L237.168 392.333L241.434 388.067H249.96V392.333Z" fill="#1F1F35"/>
<path d="M291.016 264.535L291.168 296.018L285.849 389.008H277.967L264.773 327.3L257.73 259.631L291.016 264.535Z" fill="#292949"/>
<path d="M278.012 392.333L286.538 396.593L290.804 392.333L286.538 388.067H278.012V392.333Z" fill="#1F1F35"/>
<path d="M299.212 283.49C299.38 288.484 299.274 295.168 297.169 295.414C296.777 295.459 296.396 295.285 296.049 295.117C292.394 293.343 289.785 290.829 286.18 289.111C282.401 287.314 278.108 286.373 273.909 285.718C267.65 284.716 261.285 284.117 254.988 284.061C249.574 284.011 243.943 286.485 238.826 287.84C236.856 288.36 235.254 289.799 233.614 290.924C231.196 292.587 230.138 293.247 230.468 289.849C231.006 284.302 231.565 278.76 232.248 273.229C233.609 262.201 235.462 251.195 238.597 240.519C239.795 236.438 241.177 232.419 242.554 228.4C244.234 223.501 245.919 218.609 247.598 213.71C249.686 207.625 253.213 203.337 259.388 201.21C264.723 199.368 271.351 198.87 276.54 201.439C282.312 204.3 285.055 214.052 287.859 219.264C290.317 223.832 293.413 236.282 294.331 241.208C295.439 247.131 296.458 253.031 297.264 258.915C298.154 265.431 298.781 271.924 298.966 278.379C298.988 279.107 299.134 281.105 299.212 283.49Z" fill="#3B3387"/>
<path d="M264.252 202.525C264.376 202.632 264.521 202.721 264.689 202.772C265.019 202.878 265.378 202.839 265.725 202.8C267.135 202.632 268.546 202.464 269.951 202.302C269.487 197.985 272.011 197.006 274.469 194.235C276.96 191.419 276.193 187.623 276.053 184.181C276.014 183.223 275.964 182.233 275.561 181.365C274.85 179.837 273.193 178.997 271.58 178.493C267.477 177.217 262.78 177.53 259.164 179.859C258.201 180.48 257.305 181.258 256.785 182.277C255.979 183.85 256.186 185.72 256.41 187.472C256.757 190.159 257.552 192.802 259.069 195.069C260.485 197.179 263.189 198.193 263.497 200.728C263.581 201.378 263.782 202.117 264.252 202.525Z" fill="#EAC1A4"/>
<path d="M256.532 184.343C256.773 185.429 257.277 186.526 257.014 187.607C255.29 187.024 254.164 185.261 253.554 183.47C253.28 182.658 253.078 181.796 253.146 180.939C253.213 180.083 253.588 179.215 254.265 178.734C255.211 178.056 256.907 178.325 257.182 179.551C257.456 180.777 256.169 182.708 256.532 184.343Z" fill="#292949"/>
<path d="M247.386 174.809C247.425 173.511 247.923 172.346 249.082 171.563C250.084 170.885 251.237 170.325 251.847 169.251C252.317 168.417 252.39 167.381 252.855 166.547C253.7 165.03 255.542 164.587 257.143 164.072C261.146 162.785 263.301 161.301 267.539 162.947C270.55 164.117 274.447 164.274 277.24 165.981C278.41 166.692 279.401 167.84 280.218 169.116C283.045 173.533 283.723 179.747 281.881 184.354C281.467 185.384 280.946 186.336 280.386 187.243C279.266 189.057 278.068 191.29 276.087 192.18C275.964 191.324 275.325 190.854 275.124 190.014C274.978 189.409 275.029 188.777 275.062 188.15C275.185 185.726 275.924 181.897 273.506 180.693C270.45 179.176 264.706 180.542 261.761 181.829C259.153 182.966 254.753 184.449 251.976 183.229C249.395 182.098 247.296 177.586 247.386 174.809Z" fill="#292949"/>
<path d="M274.133 200.902L301.183 192.93L291.168 159.113L299.419 153.195L319.337 192.343L313.829 205.901L287.982 219.241L274.133 200.902Z" fill="#3B3387"/>
<path d="M446.608 196.815L438.715 197.151L415.175 219.487L380.21 214.808L377.887 223.367L412.248 235.677H422.626L441.022 224.38L446.608 196.815Z" fill="#F7F7F7"/>
<path d="M380.277 220.114L375.642 223.624L371.914 223.893L371.656 222.65L373.638 221.396L366.428 221.184L365.163 217.954L373.106 214.432L381.05 215.222L380.277 220.114Z" fill="#EAC1A4"/>
<path d="M430.273 379.497L423.718 384.143L421.535 387.698C421.535 387.698 423.992 388.789 425.358 389.064C426.724 389.338 437.383 387.698 437.383 387.698V381.411L430.273 379.497Z" fill="#1F1F35"/>
<path d="M481.232 381.473L478.814 385.873C478.814 385.873 477.302 391.432 478.612 391.051C479.922 390.67 487.239 389.4 487.536 388.459C487.832 387.519 491.006 383.751 491.376 383.074C491.751 382.396 490.167 377.868 490.167 377.868L481.232 381.473Z" fill="#1F1F35"/>
<path d="M436.38 277.875L457.552 341.083L481.232 381.473L490.413 378.802L474.716 332.742C474.716 332.742 472.818 286.468 469.722 272.859L436.38 277.875Z" fill="#353A85"/>
<path d="M419.62 287.414L427.815 381.406H437.651L440.657 333.318L446.306 290.739L424.809 265.554L419.62 287.414Z" fill="#353A85"/>
<path d="M419.306 227.269C420.325 222.426 420.728 217.209 423.124 212.691C425.525 208.174 430.054 204.753 433.553 200.913C435.037 199.284 436.615 197.594 438.821 196.815C440.332 196.284 441.995 196.239 443.624 196.194C448.556 196.071 453.493 195.948 458.425 195.819C460.222 195.774 462.098 195.741 463.732 196.39C466.19 197.364 467.578 199.626 468.793 201.742C471.894 207.133 472.465 213.117 472.745 219.213C472.734 219.269 476.597 295.772 473.534 294.339C469.722 292.548 465.361 291.602 461.084 290.935C455.055 289.967 448.897 289.357 442.756 289.206L431.941 289.933H425.414C421.495 290.314 421.82 291.49 417.789 291.249C415.214 291.087 418.136 232.822 419.306 227.269Z" fill="#F7F7F7"/>
<path d="M447.649 198.674C450.096 198.568 452.548 198.461 454.994 198.355C455.128 196.407 455.101 194.442 454.921 192.499C456.993 191.9 459.394 190.96 459.864 188.855C460.016 188.194 459.937 187.506 459.859 186.828C459.534 184.041 459.209 181.253 458.885 178.465C458.773 177.502 458.65 176.506 458.179 175.66C457.345 174.177 455.615 173.449 453.953 173.063C449.721 172.083 445.007 172.749 441.536 175.369C440.613 176.063 439.767 176.92 439.314 177.983C438.62 179.629 438.967 181.499 439.325 183.246C439.655 184.858 439.986 186.47 440.31 188.082C440.691 189.935 441.268 192.057 442.992 192.835C443.904 193.249 445.018 193.205 445.836 193.792C447.28 194.828 446.961 197.039 447.649 198.674Z" fill="#EAC1A4"/>
<path d="M434.079 163.249C434.622 163.154 435.176 163.037 435.742 162.796C437.516 162.023 438.759 160.473 440.64 159.751C444.452 158.284 449.228 158.497 452.973 160.07C456.555 161.576 461.443 162.158 464.65 164.179C465.988 165.024 467.024 166.284 467.807 167.661C470.528 172.425 470.192 178.762 466.985 183.212C466.262 184.209 465.417 185.11 464.538 185.966C462.713 187.741 460.519 189.935 458.112 190.495C458.173 188.368 460.474 181.79 458.946 179.96C456.914 177.536 452.922 177.597 450.067 177.866C446.664 178.185 443.859 177.093 440.461 177.261C438.731 177.345 436.772 177.698 435.445 176.584C433.911 175.296 430.67 171.204 429.897 169.407C429.226 167.834 429.674 165.897 430.844 164.655C431.851 163.58 432.943 163.451 434.079 163.249Z" fill="#292949"/>
<path d="M448.311 198.612C448.053 200.404 447.505 202.441 447.505 202.441C447.505 202.441 433.862 241.745 432.563 244.886C432.272 245.586 432.132 246.336 432.132 247.097L435.267 256.295L441.481 248.609L449.917 204.569L451.966 202.811L452.683 198.344L448.311 198.612Z" fill="#D67086"/>
<path d="M455.061 217.573L451.473 239.389L412.326 249.543V259.984L459.159 255.035L467.248 241.964L466.47 208.129L455.061 217.573Z" fill="#F7F7F7"/>
<path d="M412.326 257.963L407.842 259.984L398.672 257.901L400.234 252.941L407.355 252.516L408.788 250.109L412.259 251.038L412.326 257.963Z" fill="#EAC1A4"/>
<path d="M213.595 215.362L204.571 218.743L202.326 228.327L207.566 229.519L211.81 223.714L215.297 223.496L218.572 218.206L213.595 215.362Z" fill="#EAC1A4"/>
<path d="M92.4874 392.943L92.1179 396.817L84.2751 400.176L80.9106 396.044L85.0196 392.428L92.8625 389.069L92.4874 392.943Z" fill="#1F1F35"/>
<path d="M99.0423 314.425L93.002 391.723L85.4446 392.747L79.186 326.864L74.0134 305.966L99.0423 314.425Z" fill="#474EBB"/>
<path d="M117.113 294.138L121.642 385.99L114.751 387.289L100.386 317.784L92.4814 297.664L117.113 294.138Z" fill="#474EBB"/>
<path d="M115.361 390.329L123.551 392.837L126.546 388.224L122.084 385.016L114.628 386.421L115.361 390.329Z" fill="#1F1F35"/>
<path d="M107.367 194.929C101.785 190.31 88.3276 192.964 81.246 192.964C81.929 192.964 74.534 232.492 74.2988 235.935C73.4479 248.502 69.5517 261.215 64.1776 272.725C61.9103 277.579 59.2121 282.258 57.5998 287.364C54.9296 295.828 54.9352 305.793 55.6909 314.554C63.2875 316.642 70.4082 320.555 78.2231 321.568C84.6552 322.402 91.1434 321.221 97.6035 320.65C105.239 319.973 112.931 320.152 120.578 319.564C128.225 318.976 135.95 317.571 142.718 313.966C139.69 308.11 137.361 301.924 135.424 295.632C133.498 289.385 131.024 282.443 130.319 275.933C129.686 270.049 129.58 264.059 128.723 258.092C127.727 251.15 126.529 244.231 124.866 237.412C122.963 229.62 120.455 221.973 117.376 214.561C115.03 208.924 112.231 199.687 107.826 195.343C107.68 195.203 107.523 195.063 107.367 194.929Z" fill="#DDDAE8"/>
<path d="M95.5046 173.567C99.0426 174.21 103.403 177.233 104.254 180.962C104.663 182.759 104.081 184.41 104.596 186.319C105.598 190.081 101.047 195.617 105.553 198.232C107.871 199.575 110.759 199.139 113.396 198.663C113.715 198.607 114.051 198.54 114.303 198.338C114.717 198.002 114.79 197.375 114.633 196.866C114.476 196.356 114.135 195.925 113.844 195.477C110.748 190.825 111.498 184.147 110.295 178.851C109.091 173.561 106.253 168.293 101.013 166.121C98.3988 167.812 96.5011 170.572 95.8517 173.617L95.5046 173.567Z" fill="#292949"/>
<path d="M99.9438 196.334C103.347 194.878 105.598 191.413 106.342 187.791C107.081 184.164 106.493 180.391 105.497 176.83C102.166 164.974 87.2866 168.372 83.8158 178.51C80.7928 187.344 90.052 200.566 99.9438 196.334Z" fill="#EAC1A4"/>
<path d="M82.6233 202.856C84.2916 201.814 85.9318 200.728 86.9002 198.792C88.4621 195.657 87.8071 190.786 87.9919 187.388C88.1878 183.806 88.5125 179.898 90.97 177.284C92.5767 175.576 94.5472 175.106 96.7808 174.877C98.3091 174.72 98.4154 175.296 99.6358 174.362C100.571 173.651 101.259 171.697 101.394 170.577C101.623 168.691 100.711 166.804 99.3615 165.466C97.2902 163.406 94.9614 162.494 92.1176 162.673C82.1363 163.305 75.1611 169.85 73.185 179.82C72.2333 184.612 73.6776 189.734 72.6196 194.363C71.9702 197.218 70.3468 199.223 69.8766 202.245C68.6562 210.088 65.2526 220.271 66.2546 228.187C66.2938 228.478 66.3554 228.803 66.5905 228.976C67.0719 229.334 67.7045 228.791 68.0572 228.304C70.1117 225.461 72.1662 222.611 74.2207 219.767C75.0268 218.648 75.8441 217.511 76.3143 216.218C77.4787 212.988 76.3983 209.036 78.4024 206.254C79.4996 204.742 81.0783 203.819 82.6233 202.856Z" fill="#292949"/>
<path d="M66.9209 278.821C66.6354 280.814 68.2309 285.914 70.1006 287.022C74.4167 289.581 72.8493 283.149 72.8101 280.803C73.633 281.038 74.4223 281.29 75.262 281.357C76.029 281.419 73.7562 274.539 73.0004 273.901C71.1811 272.361 69.8935 273.15 67.6823 273.391C67.4751 275.205 67.184 277.013 66.9209 278.821Z" fill="#EAC1A4"/>
<path d="M72.3564 206.248L49.7627 245.698L65.8291 280.154L71.276 272.954L65.538 242.109L86.8834 229.071L84.549 203.74L72.3564 206.248Z" fill="#DDDAE8"/>
<path d="M110.412 198.674L130.453 230.695L141.442 215.429L151.826 217.176L146.9 241.947L133.269 252.063L110.412 238.359V198.674Z" fill="#DDDAE8"/>
<path d="M217.699 269.103L146.928 263.074C144.252 262.844 142.265 260.493 142.494 257.812L143.211 249.392C143.44 246.716 145.792 244.729 148.473 244.959L219.244 250.988C221.92 251.217 223.907 253.568 223.677 256.25L222.961 264.669C222.731 267.345 220.374 269.333 217.699 269.103Z" fill="#3D5092"/>
<path d="M149.016 217.601L100.918 211.953C86.9058 210.307 74.0918 220.428 72.446 234.44L69.675 258.058C68.0291 272.07 78.1504 284.884 92.1623 286.53L140.261 292.178C154.273 293.824 167.087 283.703 168.732 269.691L171.504 246.073C173.149 232.055 163.028 219.241 149.016 217.601ZM156.4 244.298L153.629 267.916C152.968 273.542 147.656 277.735 142.03 277.08L93.9313 271.432C88.3053 270.771 84.1123 265.459 84.7673 259.833L87.5383 236.214C88.1989 230.588 93.5115 226.396 99.1375 227.056L147.236 232.705C152.868 233.359 157.061 238.672 156.4 244.298Z" fill="#5D66D3"/>
<path d="M269.117 222.438H220.688C206.575 222.438 195.032 233.981 195.032 248.094V271.874C195.032 285.987 206.575 297.53 220.688 297.53H269.117C283.229 297.53 294.772 285.987 294.772 271.874V248.094C294.772 233.981 283.224 222.438 269.117 222.438ZM279.568 271.874C279.568 277.539 274.782 282.326 269.117 282.326H220.688C215.023 282.326 210.236 277.539 210.236 271.874V248.094C210.236 242.428 215.023 237.642 220.688 237.642H269.117C274.782 237.642 279.568 242.428 279.568 248.094V271.874Z" fill="#5D66D3"/>
<path d="M423.595 263.953L422.185 240.217C421.345 226.132 409.136 215.295 395.051 216.129L346.706 219.006C332.621 219.846 321.783 232.055 322.618 246.14L324.028 269.876C324.868 283.96 337.077 294.798 351.162 293.964L399.507 291.087C413.592 290.247 424.435 278.038 423.595 263.953ZM398.606 275.91L350.261 278.788C344.607 279.124 339.546 274.628 339.21 268.974L337.8 245.239C337.464 239.584 341.959 234.524 347.613 234.188L395.958 231.311C401.612 230.975 406.672 235.47 407.008 241.124L408.419 264.86C408.755 270.514 404.26 275.574 398.606 275.91Z" fill="#5D66D3"/>
<path d="M341.617 266.119H270.594C267.907 266.119 265.73 263.942 265.73 261.255V252.807C265.73 250.12 267.907 247.942 270.594 247.942H341.623C344.31 247.942 346.487 250.12 346.487 252.807V261.255C346.482 263.942 344.304 266.119 341.617 266.119Z" fill="#3D5092"/>
<path d="M213.595 215.362L204.571 218.743L202.326 228.327L207.566 229.519L211.81 223.714L215.297 223.496L218.572 218.206L213.595 215.362Z" fill="#EAC1A4"/>
<path d="M141.442 215.429L149.822 214.684L155.202 221.374L151.535 224.291L146.004 221.324L143.177 222.471L138.604 219.543L141.442 215.429Z" fill="#EAC1A4"/>
</svg>
