<svg width="40" height="40" viewBox="0 0 40 40" fill="none" xmlns="http://www.w3.org/2000/svg">
<rect opacity="0.1" width="40" height="40" rx="4" fill="#377DFF"/>
<g clip-path="url(#clip0_110_1166)">
<path d="M17.9497 26.2927L15.1217 29.1207C13.9492 30.2932 12.0505 30.2932 10.8791 29.121C9.70737 27.9493 9.70737 26.0504 10.8788 24.8789L16.5359 19.2219C17.7073 18.0504 19.6062 18.0504 20.7777 19.2219C21.1682 19.6124 21.8014 19.6124 22.1919 19.2219C22.5824 18.8314 22.5824 18.1982 22.1919 17.8077C20.2394 15.8551 17.0742 15.8551 15.1217 17.8077L9.46465 23.4647C7.51211 25.4172 7.51211 28.5824 9.46465 30.5349C11.417 32.4885 14.5824 32.4885 16.5359 30.5349L19.364 27.7069C19.7545 27.3164 19.7545 26.6832 19.364 26.2927C18.9734 25.9021 18.3402 25.9022 17.9497 26.2927Z" fill="#377DFF"/>
<path d="M30.5354 9.46441C28.5828 7.51186 25.4166 7.51186 23.4641 9.46441L20.0711 12.8574C19.6806 13.2479 19.6806 13.8811 20.0711 14.2717C20.4616 14.6622 21.0948 14.6622 21.4853 14.2717L24.8783 10.8786C26.0498 9.70713 27.9496 9.70713 29.1211 10.8786C30.2926 12.0501 30.2926 13.949 29.1211 15.1204L22.8991 21.3425C21.7276 22.514 19.8288 22.514 18.6573 21.3425C18.2668 20.952 17.6336 20.952 17.2431 21.3425C16.8526 21.733 16.8526 22.3662 17.2431 22.7567C19.1956 24.7093 22.3608 24.7093 24.3133 22.7567L30.5354 16.5347C32.4879 14.5822 32.4879 11.4169 30.5354 9.46441Z" fill="#377DFF"/>
</g>
<defs>
<clipPath id="clip0_110_1166">
<rect width="24" height="24" fill="white" transform="translate(8 8)"/>
</clipPath>
</defs>
</svg>
