<svg width="26" height="26" viewBox="0 0 26 26" fill="none" xmlns="http://www.w3.org/2000/svg">
<g clip-path="url(#clip0_146_5018)">
<path d="M25.9934 26L25.9999 25.999V16.4635C25.9999 11.7986 24.9956 8.2052 19.5421 8.2052C16.9205 8.2052 15.1611 9.64387 14.4429 11.0078H14.367V8.6407H9.19629V25.999H14.5805V17.4038C14.5805 15.1407 15.0095 12.9524 17.812 12.9524C20.5735 12.9524 20.6146 15.535 20.6146 17.549V26H25.9934Z" fill="#0074D9"/>
<path d="M0.429199 8.64172H5.81987V26H0.429199V8.64172Z" fill="#0074D9"/>
<path d="M3.12217 0C1.39858 0 0 1.39858 0 3.12217C0 4.84575 1.39858 6.27358 3.12217 6.27358C4.84575 6.27358 6.24433 4.84575 6.24433 3.12217C6.24325 1.39858 4.84467 0 3.12217 0Z" fill="#0074D9"/>
</g>
<defs>
<clipPath id="clip0_146_5018">
<rect width="26" height="26" fill="white"/>
</clipPath>
</defs>
</svg>
