<svg width="40" height="40" viewBox="0 0 40 40" fill="none" xmlns="http://www.w3.org/2000/svg">
<rect width="40" height="40" rx="7" fill="url(#paint0_linear_155_3070)"/>
<g clip-path="url(#clip0_155_3070)">
<path d="M29.9951 30.0001L30.0001 29.9993V22.6643C30.0001 19.0759 29.2276 16.3118 25.0326 16.3118C23.0159 16.3118 21.6626 17.4184 21.1101 18.4676H21.0517V16.6468H17.0742V29.9993H21.2159V23.3876C21.2159 21.6468 21.5459 19.9634 23.7017 19.9634C25.8259 19.9634 25.8576 21.9501 25.8576 23.4993V30.0001H29.9951Z" fill="black"/>
<path d="M10.3301 16.6475H14.4767V30H10.3301V16.6475Z" fill="black"/>
<path d="M12.4017 10C11.0758 10 10 11.0758 10 12.4017C10 13.7275 11.0758 14.8258 12.4017 14.8258C13.7275 14.8258 14.8033 13.7275 14.8033 12.4017C14.8025 11.0758 13.7267 10 12.4017 10Z" fill="black"/>
</g>
<defs>
<linearGradient id="paint0_linear_155_3070" x1="20" y1="0" x2="20" y2="40" gradientUnits="userSpaceOnUse">
<stop stop-color="#F6C9FF"/>
<stop offset="1" stop-color="#E6E8FF"/>
</linearGradient>
<clipPath id="clip0_155_3070">
<rect width="20" height="20" fill="white" transform="translate(10 10)"/>
</clipPath>
</defs>
</svg>
