<svg width="180" height="25" viewBox="0 0 180 25" fill="none" xmlns="http://www.w3.org/2000/svg">
<g id="Group 1000003198">
<g id="Group">
<path id="Vector" d="M17.6566 3.96318C15.5441 1.75141 12.8928 0.617408 9.913 0.164411C9.4521 0.0943202 8.98601 0.0540827 8.52252 0H1.21775C1.17149 0.0194698 1.12609 0.0415355 1.07896 0.058842C0.389775 0.309353 0.000648544 0.855804 0.000648544 1.58873C-0.000216181 8.43993 -0.000216181 15.2916 0.000648544 22.1432C0.000648544 23.0955 0.670811 23.7635 1.61855 23.7648C2.76388 23.7665 3.90921 23.7734 5.05454 23.7631C6.31444 23.7514 7.57478 23.8046 8.83425 23.7267C10.1128 23.648 11.3627 23.4226 12.5789 23.0232C14.9617 22.241 16.9731 20.9205 18.4837 18.8961C20.026 16.8301 20.6801 14.4725 20.7074 11.9246C20.7156 11.1631 20.6451 10.4029 20.5072 9.65051C20.109 7.47769 19.1855 5.56446 17.6558 3.96318H17.6566ZM16.3189 15.684C15.4732 17.5007 14.0836 18.7663 12.2776 19.5913C11.0998 20.1296 9.85636 20.4229 8.56576 20.5077C6.94699 20.6142 5.32563 20.5332 3.70557 20.557C3.56678 20.5592 3.51144 20.4999 3.51446 20.3628C3.51965 20.14 3.51533 19.9167 3.51533 19.6935C3.51533 17.0733 3.51533 14.4535 3.51533 11.8333C3.51533 9.04782 3.51533 6.26191 3.51533 3.47643C3.51533 3.2702 3.61722 3.16694 3.82101 3.16665C4.96634 3.16665 6.1121 3.15627 7.25743 3.16881C9.02233 3.18871 10.7457 3.4349 12.358 4.2059C14.8994 5.42081 16.4702 7.40024 16.9692 10.1784C17.3086 12.0695 17.1386 13.9217 16.3189 15.6835V15.684Z" fill="black"/>
<path id="Vector_2" d="M139.547 1.59955C139.547 1.35207 139.493 1.1154 139.391 0.888254C139.175 0.401943 138.778 0.143644 138.287 0H137.465C136.564 0.246617 136.179 0.89085 136.189 1.8241C136.214 3.98265 136.197 6.14206 136.197 8.30061V8.58184C136.105 8.46416 136.053 8.39709 136 8.33003C135.351 7.5123 134.571 6.85076 133.638 6.37656C132.149 5.61897 130.568 5.38663 128.919 5.59907C126.167 5.95342 124.101 7.36476 122.698 9.73272C121.588 11.6079 121.234 13.6613 121.41 15.8181C121.525 17.2212 121.911 18.5421 122.585 19.7804C124.246 22.8359 127.454 24.5263 130.921 24.1559C132.847 23.95 134.446 23.1028 135.72 21.6461C135.874 21.47 136.018 21.2856 136.197 21.0684C136.197 21.4726 136.195 21.8304 136.198 22.1877C136.205 23.14 136.921 23.8457 137.876 23.8466C138.809 23.8474 139.545 23.1292 139.545 22.1947C139.548 15.3292 139.547 8.46372 139.546 1.59825L139.547 1.59955ZM135.047 18.6546C133.961 20.2572 132.411 21.0507 130.325 21.0862C128.176 21.0105 126.459 19.9569 125.453 17.9143C124.31 15.5905 124.429 13.2606 125.87 11.0844C126.848 9.60638 128.282 8.81461 130.064 8.68395C132.91 8.4754 135.145 10.2493 135.885 12.7908C136.486 14.858 136.27 16.8483 135.047 18.6546Z" fill="black"/>
<path id="Vector_3" d="M82.3588 0.990362C82.1496 0.445209 81.7233 0.157056 81.1854 0H80.3639C79.9324 0.136288 79.561 0.353484 79.3332 0.763647C79.1529 1.08814 79.1096 1.44293 79.1096 1.80636C79.1096 8.53381 79.1096 15.2613 79.1096 21.9887C79.1096 22.0463 79.1079 22.1038 79.1109 22.1614C79.1351 22.6671 79.261 23.1379 79.6812 23.4611C80.255 23.9028 80.8953 23.9751 81.5529 23.6813C82.214 23.3858 82.4803 22.822 82.4808 22.1289C82.4847 15.3223 82.4833 8.51564 82.4821 1.70901C82.4821 1.46326 82.4475 1.2214 82.3588 0.989929V0.990362Z" fill="black"/>
<path id="Vector_4" d="M115.994 6.85554C114.133 5.66399 112.065 5.31916 109.902 5.62116C107.142 6.00623 105.024 7.41497 103.61 9.81668C102.42 11.8376 102.021 14.0416 102.405 16.3455C103.009 19.973 105.038 22.4811 108.528 23.7172C110.483 24.4099 112.491 24.3407 114.491 23.8743C115.495 23.6402 116.444 23.2686 117.274 22.6399C117.741 22.2868 118.139 21.875 118.298 21.2887C118.509 20.5086 118.086 19.8306 117.305 19.6978C116.985 19.6433 116.673 19.6887 116.38 19.8345C116.078 19.9855 115.775 20.1382 115.477 20.2983C113.948 21.12 112.319 21.4176 110.61 21.136C107.886 20.6873 106.126 18.6006 105.707 15.9821C105.675 15.7809 105.732 15.7273 105.936 15.7281C107.939 15.7355 109.941 15.7325 111.943 15.7325C112.145 15.7325 112.347 15.7325 112.548 15.7325C114.32 15.7325 116.092 15.7368 117.864 15.7303C118.92 15.7264 119.603 15.1328 119.764 14.0987C119.841 13.602 119.789 13.1075 119.713 12.6173C119.331 10.1455 118.099 8.20415 115.994 6.85511L115.994 6.85554ZM115.957 13.5042H111.096C109.389 13.5042 107.683 13.5042 105.976 13.5042C105.856 13.5042 105.744 13.5255 105.783 13.3282C106.128 11.6187 106.888 10.1693 108.384 9.18759C109.102 8.71642 109.901 8.4711 110.76 8.42004C112.406 8.32183 113.831 8.80728 114.959 10.0343C115.736 10.8797 116.151 11.9069 116.358 13.0249C116.417 13.3442 116.283 13.5038 115.956 13.5038L115.957 13.5042Z" fill="black"/>
<path id="Vector_5" d="M35.2084 6.22178C33.5568 5.50356 31.8131 5.36554 30.0413 5.66278C28.2249 5.96694 26.6494 6.76693 25.3627 8.08395C23.7409 9.74364 22.9112 11.7728 22.7451 14.0672C22.6051 16.0038 22.9427 17.8591 23.9238 19.5568C25.5642 22.396 28.0628 23.9068 31.3072 24.1842C32.4353 24.2806 33.5668 24.195 34.6771 23.9375C35.8457 23.6667 36.9582 23.2695 37.8964 22.4894C38.273 22.1766 38.5809 21.8075 38.7235 21.3273C38.9864 20.4412 38.4248 19.691 37.5004 19.6801C37.0131 19.6745 36.6123 19.9121 36.215 20.1392C34.7674 20.9664 33.223 21.345 31.5545 21.201C30.695 21.1265 29.8822 20.9011 29.1346 20.4719C27.4384 19.4984 26.5179 17.9923 26.1716 16.1033C26.1037 15.7343 26.1128 15.7325 26.4942 15.7325C28.4536 15.7325 30.4127 15.7325 32.3721 15.7325C34.3459 15.7325 36.3196 15.736 38.2933 15.7308C39.3314 15.7282 40.0267 15.1575 40.1906 14.1464C40.2783 13.6051 40.2334 13.0552 40.1361 12.5144C39.6021 9.55111 37.9751 7.42458 35.2089 6.22178H35.2084ZM36.7187 13.5039C36.6612 13.5026 36.6032 13.5043 36.5457 13.5043C34.8747 13.5043 33.2036 13.5043 31.5325 13.5043C29.8471 13.5043 28.1618 13.5043 26.476 13.5043C26.1932 13.5043 26.185 13.4901 26.2447 13.2049C26.5041 11.968 27.01 10.8556 27.9024 9.94007C28.8108 9.00812 29.9142 8.49541 31.2164 8.4197C32.7007 8.33317 34.0229 8.72732 35.1224 9.75706C35.9876 10.5679 36.4722 11.5898 36.7347 12.729C36.7814 12.9319 36.8099 13.1392 36.8514 13.3434C36.8743 13.4572 36.8324 13.5074 36.7182 13.5043L36.7187 13.5039Z" fill="black"/>
<path id="Vector_6" d="M63.9579 6.00147C60.4116 7.19777 58.0574 10.4315 57.7976 14.1584C57.6968 15.6035 57.8979 17.0127 58.4245 18.3721C59.786 21.8845 63.1351 24.2602 66.9083 24.2001C67.2992 24.2139 67.7436 24.1871 68.186 24.1166C70.8458 23.693 72.9372 22.3582 74.3986 20.111C75.9988 17.6509 76.3602 14.9662 75.5707 12.1487C74.1655 7.13374 68.8816 4.34091 63.9579 6.0019V6.00147ZM71.6068 18.4279C70.5211 20.1681 68.924 21.0369 66.8621 21.0892C64.6959 21.02 63.0655 20.0331 61.979 18.1614C60.6741 15.9133 60.8773 12.8613 62.4697 10.8135C63.4719 9.52463 64.8018 8.81203 66.4375 8.68613C69.5591 8.446 71.8563 10.5574 72.4326 13.3195C72.8079 15.1194 72.5922 16.8487 71.6068 18.4275V18.4279Z" fill="black"/>
<path id="Vector_7" d="M100.651 5.93698C99.7633 5.67652 99.0045 6.00534 98.5951 6.83043C98.5376 6.94638 98.4857 7.06536 98.4412 7.18694C96.8743 11.4331 95.3082 15.6792 93.7418 19.9258C93.6428 20.1936 93.5403 20.4601 93.4171 20.7868C93.363 20.6496 93.3324 20.5774 93.3055 20.5034C91.8359 16.4974 90.3694 12.4905 88.8954 8.48622C88.6819 7.90603 88.5171 7.30636 88.2417 6.75039C87.9996 6.26105 87.6126 5.95083 87.0579 5.8829C85.7647 5.72411 84.8749 6.53449 85.1045 7.81041C85.1897 8.28287 85.3933 8.71424 85.5645 9.15598C86.824 12.4031 88.0869 15.6489 89.3499 18.8943C89.736 19.8869 90.1065 20.8859 90.5185 21.8676C90.9924 22.9968 91.7637 23.783 93.0665 23.8721C94.0713 23.9409 94.9464 23.6748 95.6083 22.8675C95.9231 22.4837 96.1431 22.0484 96.3204 21.5907C97.9885 17.2905 99.6548 12.9894 101.321 8.68828C101.469 8.30624 101.617 7.92593 101.67 7.51274C101.763 6.7824 101.359 6.14466 100.652 5.93698H100.651Z" fill="black"/>
<path id="Vector_8" d="M56.3622 6.01304C55.4867 5.61412 54.5381 5.94338 54.107 6.79875C54.0456 6.92076 53.9877 7.04537 53.9406 7.173C52.6716 10.6083 51.4048 14.0441 50.1371 17.4799C49.7363 18.5663 49.3346 19.6518 48.9139 20.7902C48.8785 20.7071 48.8607 20.6694 48.8465 20.6305C47.7245 17.5707 46.6025 14.5105 45.4814 11.4503C44.9371 9.9641 44.4052 8.47315 43.8471 6.99215C43.5332 6.15928 42.9681 5.81834 42.0865 5.8655C41.3104 5.90747 40.7237 6.37864 40.5961 7.07046C40.5084 7.54596 40.6069 7.99852 40.7795 8.44113C41.8543 11.2037 42.9279 13.9667 44.0032 16.7292C44.6634 18.4257 45.311 20.1273 45.9916 21.8151C46.4551 22.9643 47.229 23.7712 48.549 23.8707C49.4341 23.9378 50.2378 23.7413 50.8907 23.098C51.2876 22.7064 51.5617 22.2344 51.761 21.7204C53.4533 17.3604 55.1425 12.9992 56.8327 8.63886C56.9572 8.31696 57.0873 7.99852 57.1457 7.65412C57.2698 6.92163 56.9736 6.29124 56.3627 6.01261L56.3622 6.01304Z" fill="black"/>
</g>
<g id="Group_2">
<path id="Vector_9" d="M167.78 17.4916C166.613 14.9156 165.442 12.3412 164.273 9.76603C163.228 7.46644 162.174 5.17117 161.145 2.86465C160.749 1.97856 160.256 1.19025 159.42 0.652886C158.89 0.311949 158.307 0.121578 157.696 0C157.321 0 156.946 0 156.572 0C156.517 0.0142778 156.462 0.0315843 156.406 0.0424008C153.751 0.558566 152.254 3.34577 153.33 5.79117C153.887 7.05541 154.471 8.3084 155.042 9.56614C155.928 11.5187 156.814 13.4718 157.701 15.4239C158.671 17.5596 159.627 19.7025 160.62 21.8278C161.416 23.5312 163.17 24.4341 165.032 24.1551C167.366 23.8055 168.959 21.4743 168.443 19.1747C168.309 18.5772 168.028 18.0411 167.78 17.4916Z" fill="#204FA2"/>
<path id="Vector_10" d="M179.736 2.71668C179.155 1.25688 178.097 0.36257 176.556 0.0393722C176.508 0.0289883 176.46 0.0129798 176.412 0H175.246C174.755 0.115953 174.266 0.239262 173.826 0.497561C172.4 1.33519 171.672 2.59856 171.666 4.23576C171.649 9.40995 171.66 14.5842 171.659 19.7579C171.659 20.0898 171.68 20.419 171.735 20.7457C172.072 22.7403 173.91 24.4744 176.328 24.1706C178.074 23.9513 179.226 22.9298 179.804 21.2675C179.909 20.9668 179.931 20.6492 180 20.3416V3.84376C179.93 3.46389 179.879 3.07882 179.736 2.71668Z" fill="#204FA2"/>
<path id="Vector_11" d="M150.505 15.4171C148.093 15.4045 146.094 17.4051 146.11 19.8198C146.129 22.4071 148.269 24.2568 150.517 24.1962C152.893 24.2446 154.865 22.2362 154.908 19.8955C154.951 17.586 153.103 15.4305 150.505 15.4171Z" fill="#204FA2"/>
</g>
</g>
</svg>
