<svg width="180" height="25" viewBox="0 0 180 25" fill="none" xmlns="http://www.w3.org/2000/svg">
<g id="Group 1000003929">
<g id="Group">
<path id="Vector" d="M17.6566 3.96318C15.5441 1.75141 12.8928 0.617408 9.913 0.164411C9.4521 0.0943202 8.98601 0.0540827 8.52252 0H1.21775C1.17149 0.0194698 1.12609 0.0415355 1.07896 0.058842C0.389775 0.309353 0.000648544 0.855804 0.000648544 1.58873C-0.000216181 8.43993 -0.000216181 15.2916 0.000648544 22.1432C0.000648544 23.0955 0.670811 23.7635 1.61855 23.7648C2.76388 23.7665 3.90921 23.7734 5.05454 23.7631C6.31444 23.7514 7.57478 23.8046 8.83425 23.7267C10.1128 23.648 11.3627 23.4226 12.5789 23.0232C14.9617 22.241 16.9731 20.9205 18.4837 18.8961C20.026 16.8301 20.6801 14.4725 20.7074 11.9246C20.7156 11.1631 20.6451 10.4029 20.5072 9.65051C20.109 7.47769 19.1855 5.56446 17.6558 3.96318H17.6566ZM16.3189 15.684C15.4732 17.5007 14.0836 18.7663 12.2776 19.5913C11.0998 20.1296 9.85636 20.4229 8.56576 20.5077C6.94699 20.6142 5.32563 20.5332 3.70557 20.557C3.56678 20.5592 3.51144 20.4999 3.51446 20.3628C3.51965 20.14 3.51533 19.9167 3.51533 19.6935C3.51533 17.0733 3.51533 14.4535 3.51533 11.8333C3.51533 9.04782 3.51533 6.26191 3.51533 3.47643C3.51533 3.2702 3.61722 3.16694 3.82101 3.16665C4.96634 3.16665 6.1121 3.15627 7.25743 3.16881C9.02233 3.18871 10.7457 3.4349 12.358 4.2059C14.8994 5.42081 16.4702 7.40024 16.9692 10.1784C17.3086 12.0695 17.1386 13.9217 16.3189 15.6835V15.684Z" fill="white"/>
<path id="Vector_2" d="M139.547 1.59955C139.547 1.35207 139.493 1.1154 139.391 0.888254C139.175 0.401943 138.778 0.143644 138.287 0H137.465C136.564 0.246617 136.179 0.89085 136.189 1.8241C136.214 3.98265 136.197 6.14206 136.197 8.30061V8.58184C136.105 8.46416 136.053 8.39709 136 8.33003C135.351 7.5123 134.571 6.85076 133.638 6.37656C132.149 5.61897 130.568 5.38663 128.919 5.59907C126.167 5.95342 124.101 7.36476 122.698 9.73272C121.588 11.6079 121.234 13.6613 121.41 15.8181C121.525 17.2212 121.911 18.5421 122.585 19.7804C124.246 22.8359 127.454 24.5263 130.921 24.1559C132.847 23.95 134.446 23.1028 135.72 21.6461C135.874 21.47 136.018 21.2856 136.197 21.0684C136.197 21.4726 136.195 21.8304 136.198 22.1877C136.205 23.14 136.921 23.8457 137.876 23.8466C138.809 23.8474 139.545 23.1292 139.545 22.1947C139.548 15.3292 139.547 8.46372 139.546 1.59825L139.547 1.59955ZM135.047 18.6546C133.961 20.2572 132.411 21.0507 130.325 21.0862C128.176 21.0105 126.459 19.9569 125.453 17.9143C124.31 15.5905 124.429 13.2606 125.87 11.0844C126.848 9.60638 128.282 8.81461 130.064 8.68395C132.91 8.4754 135.145 10.2493 135.885 12.7908C136.486 14.858 136.27 16.8483 135.047 18.6546Z" fill="white"/>
<path id="Vector_3" d="M82.3591 0.990362C82.1498 0.445209 81.7235 0.157056 81.1856 0H80.3642C79.9327 0.136288 79.5613 0.353484 79.3334 0.763647C79.1531 1.08814 79.1099 1.44293 79.1099 1.80636C79.1099 8.53381 79.1099 15.2613 79.1099 21.9887C79.1099 22.0463 79.1081 22.1038 79.1112 22.1614C79.1354 22.6671 79.2612 23.1379 79.6815 23.4611C80.2552 23.9028 80.8955 23.9751 81.5531 23.6813C82.2142 23.3858 82.4806 22.822 82.481 22.1289C82.4849 15.3223 82.4836 8.51564 82.4823 1.70901C82.4823 1.46326 82.4477 1.2214 82.3591 0.989929V0.990362Z" fill="white"/>
<path id="Vector_4" d="M115.994 6.8553C114.133 5.66375 112.065 5.31892 109.902 5.62091C107.142 6.00598 105.024 7.41473 103.61 9.81643C102.42 11.8374 102.021 14.0414 102.405 16.3453C103.009 19.9727 105.038 22.4809 108.528 23.717C110.483 24.4097 112.491 24.3404 114.491 23.874C115.495 23.64 116.444 23.2683 117.274 22.6397C117.741 22.2866 118.139 21.8747 118.298 21.2885C118.509 20.5084 118.086 19.8304 117.305 19.6976C116.985 19.643 116.673 19.6885 116.38 19.8343C116.078 19.9853 115.775 20.138 115.477 20.2981C113.948 21.1197 112.319 21.4174 110.61 21.1357C107.886 20.6871 106.126 18.6003 105.707 15.9819C105.675 15.7807 105.732 15.727 105.936 15.7279C107.939 15.7352 109.941 15.7322 111.943 15.7322C112.145 15.7322 112.347 15.7322 112.548 15.7322C114.32 15.7322 116.092 15.7365 117.864 15.73C118.92 15.7262 119.603 15.1325 119.764 14.0985C119.841 13.6018 119.789 13.1073 119.713 12.617C119.331 10.1453 118.099 8.2039 115.994 6.85486L115.994 6.8553ZM115.957 13.504H111.096C109.389 13.504 107.683 13.504 105.976 13.504C105.856 13.504 105.744 13.5252 105.783 13.3279C106.128 11.6185 106.888 10.1691 108.384 9.18734C109.102 8.71617 109.901 8.47085 110.76 8.4198C112.406 8.32159 113.831 8.80703 114.959 10.0341C115.736 10.8795 116.151 11.9066 116.358 13.0246C116.417 13.3439 116.283 13.5036 115.956 13.5036L115.957 13.504Z" fill="white"/>
<path id="Vector_5" d="M35.2084 6.22153C33.5568 5.50332 31.8131 5.3653 30.0413 5.66254C28.2249 5.9667 26.6494 6.76669 25.3627 8.08371C23.7409 9.7434 22.9112 11.7726 22.7451 14.067C22.6051 16.0036 22.9427 17.8588 23.9238 19.5566C25.5642 22.3957 28.0628 23.9066 31.3072 24.1839C32.4353 24.2804 33.5668 24.1947 34.6771 23.9373C35.8457 23.6664 36.9582 23.2693 37.8964 22.4892C38.273 22.1764 38.5809 21.8073 38.7235 21.327C38.9864 20.441 38.4248 19.6907 37.5004 19.6799C37.0131 19.6743 36.6123 19.9118 36.215 20.139C34.7674 20.9662 33.223 21.3448 31.5545 21.2007C30.695 21.1263 29.8822 20.9009 29.1346 20.4717C27.4384 19.4982 26.5179 17.9921 26.1716 16.1031C26.1037 15.734 26.1128 15.7323 26.4942 15.7323C28.4536 15.7323 30.4127 15.7323 32.3721 15.7323C34.3459 15.7323 36.3196 15.7358 38.2933 15.7306C39.3314 15.728 40.0267 15.1573 40.1906 14.1462C40.2783 13.6049 40.2334 13.055 40.1361 12.5142C39.6021 9.55087 37.9751 7.42433 35.2089 6.22153H35.2084ZM36.7187 13.5037C36.6612 13.5024 36.6032 13.5041 36.5457 13.5041C34.8747 13.5041 33.2036 13.5041 31.5325 13.5041C29.8471 13.5041 28.1618 13.5041 26.476 13.5041C26.1932 13.5041 26.185 13.4898 26.2447 13.2047C26.5041 11.9677 27.01 10.8553 27.9024 9.93983C28.8108 9.00787 29.9142 8.49517 31.2164 8.41945C32.7007 8.33292 34.0229 8.72708 35.1224 9.75681C35.9876 10.5676 36.4722 11.5896 36.7347 12.7288C36.7814 12.9317 36.8099 13.1389 36.8514 13.3431C36.8743 13.4569 36.8324 13.5071 36.7182 13.5041L36.7187 13.5037Z" fill="white"/>
<path id="Vector_6" d="M63.9589 6.00122C60.4126 7.19753 58.0584 10.4312 57.7985 14.1582C57.6978 15.6033 57.8989 17.0125 58.4255 18.3719C59.787 21.8842 63.1361 24.26 66.9093 24.1998C67.3002 24.2137 67.7446 24.1868 68.1869 24.1163C70.8468 23.6927 72.9382 22.358 74.3996 20.1107C75.9997 17.6506 76.3612 14.966 75.5717 12.1485C74.1665 7.1335 68.8826 4.34067 63.9589 6.00165V6.00122ZM71.6078 18.4277C70.5221 20.1679 68.925 21.0366 66.863 21.089C64.6969 21.0198 63.0665 20.0329 61.9799 18.1612C60.6751 15.9131 60.8783 12.8611 62.4707 10.8133C63.4729 9.52438 64.8028 8.81179 66.4385 8.68589C69.5601 8.44576 71.8573 10.5571 72.4336 13.3193C72.8089 15.1191 72.5931 16.8485 71.6078 18.4273V18.4277Z" fill="white"/>
<path id="Vector_7" d="M100.651 5.93698C99.7633 5.67652 99.0045 6.00534 98.5951 6.83043C98.5376 6.94638 98.4857 7.06536 98.4412 7.18694C96.8743 11.4331 95.3082 15.6792 93.7418 19.9258C93.6428 20.1936 93.5403 20.4601 93.4171 20.7868C93.363 20.6496 93.3324 20.5774 93.3055 20.5034C91.8359 16.4974 90.3694 12.4905 88.8954 8.48622C88.6819 7.90603 88.5171 7.30636 88.2417 6.75039C87.9996 6.26105 87.6126 5.95083 87.0579 5.8829C85.7647 5.72411 84.8749 6.53449 85.1045 7.81041C85.1897 8.28287 85.3933 8.71424 85.5645 9.15598C86.824 12.4031 88.0869 15.6489 89.3499 18.8943C89.736 19.8869 90.1065 20.8859 90.5185 21.8676C90.9924 22.9968 91.7637 23.783 93.0665 23.8721C94.0713 23.9409 94.9464 23.6748 95.6083 22.8675C95.9231 22.4837 96.1431 22.0484 96.3204 21.5907C97.9885 17.2905 99.6548 12.9894 101.321 8.68828C101.469 8.30624 101.617 7.92593 101.67 7.51274C101.763 6.7824 101.359 6.14466 100.652 5.93698H100.651Z" fill="white"/>
<path id="Vector_8" d="M56.3613 6.01304C55.4857 5.61412 54.5371 5.94338 54.1061 6.79875C54.0447 6.92076 53.9867 7.04537 53.9396 7.173C52.6706 10.6083 51.4038 14.0441 50.1361 17.4799C49.7353 18.5663 49.3336 19.6518 48.913 20.7902C48.8775 20.7071 48.8598 20.6694 48.8455 20.6305C47.7235 17.5707 46.6015 14.5105 45.4804 11.4503C44.9361 9.9641 44.4043 8.47315 43.8461 6.99215C43.5322 6.15928 42.9671 5.81834 42.0855 5.8655C41.3094 5.90747 40.7227 6.37864 40.5952 7.07046C40.5074 7.54596 40.606 7.99852 40.7785 8.44113C41.8533 11.2037 42.9269 13.9667 44.0022 16.7292C44.6624 18.4257 45.3101 20.1273 45.9906 21.8151C46.4541 22.9643 47.228 23.7712 48.548 23.8707C49.4331 23.9378 50.2368 23.7413 50.8897 23.098C51.2866 22.7064 51.5607 22.2344 51.7601 21.7204C53.4523 17.3604 55.1416 12.9992 56.8317 8.63886C56.9562 8.31696 57.0863 7.99852 57.1447 7.65412C57.2688 6.92163 56.9726 6.29124 56.3617 6.01261L56.3613 6.01304Z" fill="white"/>
</g>
<g id="Group_2">
<path id="Vector_9" d="M167.778 17.4916C166.611 14.9156 165.44 12.3412 164.271 9.76603C163.226 7.46644 162.172 5.17117 161.143 2.86465C160.747 1.97856 160.254 1.19025 159.418 0.652886C158.888 0.311949 158.305 0.121578 157.694 0C157.319 0 156.944 0 156.57 0C156.515 0.0142778 156.46 0.0315843 156.404 0.0424008C153.749 0.558566 152.252 3.34577 153.329 5.79117C153.885 7.05541 154.469 8.3084 155.04 9.56614C155.926 11.5187 156.812 13.4718 157.699 15.4239C158.669 17.5596 159.625 19.7025 160.618 21.8278C161.414 23.5312 163.168 24.4341 165.03 24.1551C167.364 23.8055 168.957 21.4743 168.441 19.1747C168.307 18.5772 168.026 18.0411 167.778 17.4916Z" fill="#204FA2"/>
<path id="Vector_10" d="M179.736 2.71668C179.155 1.25688 178.097 0.36257 176.556 0.0393722C176.508 0.0289883 176.46 0.0129798 176.412 0H175.246C174.755 0.115953 174.266 0.239262 173.826 0.497561C172.4 1.33519 171.672 2.59856 171.666 4.23576C171.649 9.40995 171.66 14.5842 171.659 19.7579C171.659 20.0898 171.68 20.419 171.735 20.7457C172.072 22.7403 173.91 24.4744 176.328 24.1706C178.074 23.9513 179.226 22.9298 179.804 21.2675C179.909 20.9668 179.931 20.6492 180 20.3416V3.84376C179.93 3.46389 179.879 3.07882 179.736 2.71668Z" fill="#204FA2"/>
<path id="Vector_11" d="M150.504 15.4171C148.092 15.4045 146.093 17.4051 146.109 19.8198C146.128 22.4071 148.268 24.2568 150.516 24.1962C152.892 24.2446 154.864 22.2362 154.907 19.8955C154.95 17.586 153.102 15.4305 150.504 15.4171Z" fill="#204FA2"/>
</g>
</g>
</svg>
