<svg xmlns="http://www.w3.org/2000/svg" width="27" height="24" viewBox="0 0 27 24" fill="none">
  <path d="M26.0358 8.84131L25.5833 9.12672L23.3296 10.5419L13.6749 16.6006L13.5531 16.681L13.5269 16.6971L13.0353 17.0066L13.0179 17.0147L12.6133 16.7615L12.5393 16.7132L3.39366 10.9721L2.77153 10.5821L0.0304446 8.86137L0 8.84131L2.77153 7.10047L12.7047 0.864868H13.3312L23.3296 7.14064L23.6603 7.34973L26.0358 8.84131Z" fill="#C0874A"/>
  <path d="M23.8191 0.817882V20.3606C23.8191 20.809 23.4179 21.1744 22.921 21.1744H3.17125C2.67889 21.1744 2.27771 20.809 2.27771 20.3606V0.817882C2.27771 0.365336 2.67889 0 3.17125 0H22.921C23.4178 0 23.8191 0.365336 23.8191 0.817882Z" fill="#69B25F"/>
  <path d="M15.3392 3.82346H5.64026V5.11547H15.3392V3.82346Z" fill="#A2CC86"/>
  <path d="M15.3392 3.61938H5.64026V4.9114H15.3392V3.61938Z" fill="#53A654"/>
  <path d="M20.379 10.9297H5.64026V12.2217H20.379V10.9297Z" fill="#A2CC86"/>
  <path d="M20.379 10.7256H5.64026V12.0177H20.379V10.7256Z" fill="#53A654"/>
  <path d="M20.379 14.4828H5.64026V15.7748H20.379V14.4828Z" fill="#A2CC86"/>
  <path d="M20.379 14.2787H5.64026V15.5708H20.379V14.2787Z" fill="#53A654"/>
  <path d="M20.379 7.37653H5.64026V8.66854H20.379V7.37653Z" fill="#A2CC86"/>
  <path d="M20.379 7.17249H5.64026V8.4645H20.379V7.17249Z" fill="#53A654"/>
  <path d="M13.0484 16.3993L12.8961 16.489L9.95052 18.2089L9.58936 18.4219L0.630898 23.6523L0.0304565 24V8.79861L3.63738 10.9035L12.5567 16.1114L12.6263 16.1526L13.0354 16.3918L13.0484 16.3993Z" fill="#F0BA7D"/>
  <path d="M25.9765 8.51702C26.0259 8.48816 26.0663 8.51137 26.0663 8.5686V23.5657C26.0663 23.6229 26.0654 23.6689 26.0641 23.6678C26.0629 23.6667 26.0571 23.6626 26.0511 23.6584C26.0451 23.6543 26.0363 23.6484 26.0315 23.6454C26.0267 23.6423 26.0218 23.6398 26.0206 23.6398C26.0193 23.6398 25.978 23.6161 25.9286 23.5873L13.5167 16.342C13.4673 16.3132 13.3866 16.2658 13.3373 16.2367L13.2946 16.2115C13.2453 16.1825 13.1698 16.1377 13.1267 16.1119C13.0836 16.0862 13.0889 16.0417 13.1384 16.013L13.4545 15.8295C13.504 15.8008 13.5474 15.7756 13.5509 15.7735C13.5546 15.7715 13.5604 15.7681 13.564 15.7661C13.5676 15.764 13.611 15.7388 13.6605 15.7101L13.9375 15.5491C13.9869 15.5204 14.0678 15.4733 14.1172 15.4444L25.9765 8.51702Z" fill="#E5A864"/>
  <path opacity="0.68" d="M19.2006 5.76755C20.2743 5.76755 21.1447 4.89716 21.1447 3.82347C21.1447 2.74979 20.2743 1.87939 19.2006 1.87939C18.1269 1.87939 17.2565 2.74979 17.2565 3.82347C17.2565 4.89716 18.1269 5.76755 19.2006 5.76755Z" fill="#EEF3CA"/>
  <path d="M26.0663 21.6499V23.982H26.0402L25.666 23.9994H1.40969L1.39233 23.6383C1.8318 23.3381 2.41472 22.9334 2.7933 22.6767L2.84548 22.6419L4.11601 21.7673L6.1 20.3968L6.67428 20.0009L12.7003 15.8458L13.1049 15.5629C13.2006 15.5021 13.3094 15.4498 13.4269 15.4151C13.5661 15.3672 13.7184 15.3367 13.8707 15.3237C13.9229 15.3193 13.9707 15.315 14.0229 15.3193C14.0751 15.3106 14.1274 15.3106 14.1796 15.3106C14.3188 15.3063 14.4537 15.3193 14.5842 15.3454C14.7234 15.3715 14.8496 15.4151 14.9628 15.4759L19.5312 18.0169L21.7893 19.2742L22.3767 19.6006L24.5043 20.784L25.9053 21.5628C25.9445 21.5846 25.9879 21.6064 26.0315 21.6325C26.0402 21.6369 26.0533 21.6456 26.0663 21.6499Z" fill="#C0874A"/>
  <path d="M26.0663 22.4722V23.9994H0.0304565V22.4722C0.48733 22.1937 1.08777 21.8152 1.47933 21.5803L1.53151 21.5454L2.84114 20.7319L4.8904 19.4614L5.48214 19.0916L11.6996 15.2323L12.1173 14.9713C12.3348 14.8408 12.6176 14.7755 12.8961 14.7711C12.9483 14.7667 12.9962 14.7667 13.0484 14.7711C13.1006 14.7667 13.1528 14.7667 13.205 14.7711C13.3269 14.7711 13.4444 14.7842 13.5575 14.8103C13.7142 14.8408 13.8577 14.8973 13.9796 14.9713L14.5843 15.3454L18.4218 17.7298L20.6147 19.0917L21.1847 19.4484L23.2558 20.7319L24.6175 21.5804C24.6567 21.6022 24.6959 21.6238 24.7393 21.65C25.0178 21.8284 25.3746 22.0503 25.7096 22.2548C25.8314 22.333 25.9532 22.407 26.0663 22.4722Z" fill="#ECB168"/>
  <path opacity="0.2" d="M23.8169 0.817932V1.03547C23.8169 0.58303 23.4165 0.217542 22.9206 0.217542H3.17178C2.68018 0.217542 2.27554 0.582979 2.27554 1.03547V0.817932C2.27549 0.365438 2.68018 0 3.17178 0H22.9206C23.4165 0 23.8169 0.365438 23.8169 0.817932Z" fill="#BADB9E"/>
</svg>