<svg width="53" height="53" viewBox="0 0 53 53" fill="none" xmlns="http://www.w3.org/2000/svg">
<rect opacity="0.1" width="53" height="53" rx="4" fill="#0074D9"/>
<g clip-path="url(#clip0_112_177)">
<path d="M27.0888 30.4566C26.6322 30.4566 26.2607 30.0851 26.2607 29.6285C26.2607 29.2949 26.4591 28.9953 26.7663 28.8652C27.1372 28.7082 27.5809 28.8422 27.9842 29.2329C28.3127 29.5511 28.8369 29.5428 29.1551 29.2144C29.4734 28.8859 29.4651 28.3616 29.1366 28.0434C28.7628 27.6812 28.3472 27.4252 27.9169 27.2807V26.316C27.9169 25.8586 27.5461 25.4879 27.0888 25.4879C26.6314 25.4879 26.2607 25.8586 26.2607 26.316V27.286C26.2137 27.3028 26.1669 27.3204 26.1204 27.3401C25.1995 27.7301 24.6044 28.6284 24.6044 29.6285C24.6044 30.9984 25.7189 32.1129 27.0888 32.1129C27.5454 32.1129 27.9169 32.4844 27.9169 32.941C27.9169 33.288 27.698 33.6009 27.3722 33.7196C26.9469 33.8744 26.4517 33.6644 26.0138 33.1429C25.7196 32.7927 25.1973 32.7473 24.8471 33.0414C24.4968 33.3356 24.4514 33.8579 24.7455 34.2081C25.1932 34.7412 25.7143 35.1067 26.2607 35.2906V36.2535C26.2607 36.7108 26.6315 37.0816 27.0889 37.0816C27.5462 37.0816 27.917 36.7108 27.917 36.2535V35.2833C27.9244 35.2807 27.9318 35.2784 27.9391 35.2758C28.9165 34.9198 29.5732 33.9815 29.5732 32.941C29.5732 31.5711 28.4587 30.4566 27.0888 30.4566Z" fill="#0074D9"/>
<path d="M34.7584 25.3917C33.7741 24.1809 32.649 23.2161 31.4138 22.5224C31.6161 22.2831 31.7757 22.0024 31.8788 21.6897C32.2833 20.458 31.6925 18.995 30.1846 18.5184L32.2984 14.8324C32.5651 14.3672 32.3255 13.7747 31.8113 13.6252C30.2829 13.1809 28.6941 12.9556 27.0889 12.9556C25.4836 12.9556 23.8948 13.1809 22.3665 13.6252C21.8516 13.7749 21.6129 14.3678 21.8793 14.8324L23.9932 18.5185C22.4912 18.9927 21.893 20.4535 22.2992 21.6904C22.4019 22.0023 22.5615 22.2827 22.7643 22.5222C21.5291 23.2159 20.4038 24.1807 19.4194 25.3917C17.4518 27.8125 16.3232 30.8659 16.3232 33.7691C16.3232 39.7918 21.129 41.2222 27.0889 41.2222C33.053 41.2222 37.8545 39.7894 37.8545 33.7691C37.8545 30.8659 36.726 27.8125 34.7584 25.3917ZM23.859 14.9551C24.9155 14.727 25.9978 14.6118 27.0889 14.6118C28.1799 14.6118 29.2623 14.727 30.3188 14.9551L28.4951 18.1352C27.561 18.0048 26.617 18.0049 25.6827 18.1353L23.859 14.9551ZM24.4 20.1269C25.8252 19.6594 27.3163 19.5708 28.7659 19.8606C28.7676 19.8609 28.7694 19.8612 28.7711 19.8616C29.1089 19.9294 29.4446 20.0176 29.7766 20.1265C30.2106 20.2696 30.4477 20.739 30.3055 21.1722C30.2021 21.486 29.9291 21.7021 29.6079 21.7371C28.7822 21.4785 27.94 21.3472 27.0889 21.3472C26.2394 21.3472 25.3989 21.478 24.5748 21.7355C24.2487 21.7019 23.975 21.4843 23.8725 21.173C23.73 20.739 23.9672 20.2695 24.4 20.1269ZM27.0889 39.577C20.6187 39.577 17.9795 37.8865 17.9795 33.7691C17.9795 31.2769 18.9983 28.5357 20.7046 26.4365C22.5041 24.2227 24.7714 23.0035 27.0889 23.0035C29.6398 23.0035 31.8711 24.4655 33.4732 26.4365C35.1795 28.5357 36.1982 31.2769 36.1982 33.7691C36.1982 37.8865 33.5591 39.577 27.0889 39.577Z" fill="#0074D9"/>
</g>
<defs>
<clipPath id="clip0_112_177">
<rect width="28.2667" height="28.2667" fill="white" transform="translate(12.9556 12.9556)"/>
</clipPath>
</defs>
</svg>
