<svg xmlns="http://www.w3.org/2000/svg" width="24" height="24" viewBox="0 0 24 24" fill="none">
  <path d="M12 24C18.6274 24 24 18.6274 24 12C24 5.37258 18.6274 0 12 0C5.37258 0 0 5.37258 0 12C0 18.6274 5.37258 24 12 24Z" fill="#6B7F9E"/>
  <path d="M14.6252 14.9703C14.4741 16.5177 12.629 19.4682 12.6434 20.0848C12.6578 20.7015 13.2852 23.5198 13.2852 23.5198H9.43494L9.20849 20.0473C9.1842 19.6735 8.05822 15.7159 9.99566 14.0916L10.9827 14.1964L11.5109 14.876C12.6635 13.9544 13.2755 13.0651 12.3023 11.3674L11.6981 11.3944C11.1328 10.7496 11.45 10.5576 12.1595 10.4127C12.8035 10.2812 13.2789 10.4133 13.6271 10.7115C13.9438 11.0746 14.7434 13.7525 14.6246 14.97L14.6252 14.9703Z" fill="#FED298"/>
  <path d="M20.2361 6.24251L13.3996 14.1943L9.68144 10.9977L16.518 3.04559L20.2361 6.24251Z" fill="#83CF8F"/>
  <path d="M16.1448 9.63992C15.5815 10.295 14.5938 10.3698 13.9385 9.80624C13.2835 9.24271 13.209 8.25505 13.7722 7.60002C14.3358 6.94471 15.3234 6.87018 15.9784 7.43371C16.6335 7.99696 16.7081 8.98489 16.1448 9.63992ZM10.1374 10.9633L13.3649 13.7381L19.7791 6.27697L16.5516 3.50244L10.1372 10.9635L10.1374 10.9633Z" fill="#75BD80"/>
  <path d="M18.6031 5.69226L17.3066 4.57758C16.9647 4.9754 16.3652 5.02054 15.9677 4.67864L11.2131 10.2089C11.6106 10.5508 11.6561 11.1502 11.3142 11.5477L12.6107 12.6624C12.9523 12.2648 13.5517 12.2197 13.9495 12.5616L18.7041 7.03144C18.3063 6.68953 18.2614 6.09014 18.6033 5.69231L18.6031 5.69226Z" fill="#83CF8F"/>
  <path d="M15.9804 7.43116C16.6372 7.99582 16.7117 8.98544 16.1473 9.6416C15.5829 10.2983 14.5933 10.3726 13.9369 9.80847C13.2804 9.24438 13.2059 8.25447 13.7703 7.59804C14.3347 6.9416 15.3243 6.86707 15.9807 7.43116H15.9804Z" fill="#75BD80"/>
  <path d="M17.4037 3.59897L12.9402 14.2627L7.95381 12.1756L12.4176 1.51163L17.4037 3.59897Z" fill="#83CF8F"/>
  <path d="M14.2697 8.55319C13.9018 9.43182 12.8916 9.846 12.0127 9.47813C11.1343 9.11025 10.7199 8.09977 11.0877 7.2211C11.4556 6.34275 12.4658 5.92829 13.3448 6.29644C14.2234 6.66408 14.6373 7.67428 14.2697 8.55319ZM8.42075 11.9842L12.749 13.7957L16.9369 3.79013L12.609 1.97836L8.42075 11.9839V11.9842Z" fill="#75BD80"/>
  <path d="M15.5044 3.57782L13.7658 2.84995C13.5425 3.38301 12.9292 3.63459 12.3961 3.41151L9.29179 10.8277C9.82514 11.0508 10.0764 11.664 9.85307 12.1971L11.592 12.9247C11.8153 12.3916 12.4283 12.1403 12.9616 12.3634L16.066 4.9469C15.5326 4.72387 15.2813 4.1106 15.5047 3.57754L15.5044 3.57782Z" fill="#83CF8F"/>
  <path d="M13.3459 6.29336C14.226 6.66207 14.641 7.67429 14.2725 8.55461C13.9041 9.43492 12.8916 9.84972 12.0116 9.48123C11.1313 9.11279 10.7162 8.10029 11.0847 7.21998C11.4532 6.33967 12.4656 5.92464 13.3459 6.29336Z" fill="#3FA344"/>
  <path d="M13.0294 7.68189C12.9786 7.66071 12.9306 7.65902 12.8862 7.67739C12.8413 7.69577 12.7849 7.74344 12.7157 7.82111L13.1285 7.99389C13.1717 7.83156 13.1384 7.72736 13.0297 7.68189H13.0294ZM12.1279 7.98658C12.1818 8.00917 12.2315 8.01114 12.2772 7.9931C12.3233 7.97472 12.3769 7.93267 12.439 7.86607L12.0288 7.69441C12.0104 7.76894 12.0104 7.83133 12.0285 7.8813C12.0462 7.93127 12.0796 7.96628 12.1281 7.98663L12.1279 7.98658ZM13.0912 7.49585C13.1872 7.53621 13.2516 7.60539 13.2841 7.70392C13.3163 7.80217 13.3137 7.91964 13.2759 8.05572L13.5218 8.15875L13.4645 8.29567L13.2279 8.19686C13.1945 8.27594 13.1564 8.35019 13.113 8.41933C13.0692 8.48852 13.0269 8.54186 12.9853 8.58025L12.8199 8.51078C12.8704 8.46335 12.9201 8.40433 12.9689 8.33491C13.0175 8.26488 13.055 8.19855 13.0816 8.1356L12.6146 7.94022C12.5082 8.06585 12.4122 8.14521 12.3272 8.17797C12.2419 8.21102 12.151 8.20731 12.055 8.16696C11.9624 8.12828 11.9014 8.0605 11.8721 7.96394C11.8427 7.8671 11.8464 7.75727 11.8831 7.63389L11.6902 7.55313L11.7476 7.41621L11.9384 7.49613C11.9963 7.36764 12.0754 7.25303 12.1744 7.15225L12.2905 7.26574C12.2047 7.35353 12.1349 7.45038 12.0816 7.55599L12.5418 7.74855C12.6237 7.65227 12.6928 7.58364 12.7496 7.54244C12.8064 7.50152 12.8617 7.47696 12.9162 7.46875C12.9704 7.46083 13.0288 7.46988 13.0912 7.49585Z" fill="#7DBF76"/>
  <path d="M14.6249 2.06168L14.6515 13.6221L9.24578 13.6345L9.21953 2.0741L14.6249 2.06168Z" fill="#83CF8F"/>
  <path d="M13.6599 7.84423C13.6622 8.79683 12.8919 9.57045 11.9396 9.5727C10.987 9.57495 10.2134 8.80475 10.2108 7.85211C10.2089 6.8998 10.9791 6.12589 11.9314 6.12392C12.884 6.12139 13.6579 6.89187 13.6599 7.84423ZM9.60212 13.277L14.2937 13.266L14.2689 2.41934L9.577 2.43008L9.60212 13.2767V13.277Z" fill="#75BD80"/>
  <path d="M12.8662 2.77963L10.9813 2.78413C10.9824 3.3621 10.5149 3.8316 9.93692 3.83301L9.95558 11.8726C10.5335 11.8712 11.0033 12.339 11.0047 12.9167L12.8896 12.9122C12.8882 12.3343 13.3557 11.8648 13.9334 11.8634L13.9151 3.82373C13.3371 3.82485 12.8673 3.35732 12.8659 2.77963H12.8662Z" fill="#83CF8F"/>
  <path d="M11.9314 6.12027C12.8854 6.11802 13.661 6.8902 13.6633 7.84424C13.6655 8.79857 12.8937 9.57412 11.9396 9.57585C10.9853 9.5781 10.21 8.80621 10.2074 7.85217C10.2055 6.89784 10.9774 6.12252 11.9314 6.12027Z" fill="#75BD80"/>
  <path d="M10.1608 2.26807L14.7884 12.8617L9.83474 15.0256L5.20747 4.43163L10.1608 2.26807Z" fill="#83CF8F"/>
  <path d="M11.5782 7.95633C11.9596 8.82933 11.561 9.84577 10.6882 10.2272C9.81552 10.6083 8.7988 10.21 8.41766 9.33699C8.03652 8.46399 8.43514 7.44755 9.30786 7.06641C10.1806 6.68499 11.1973 7.08361 11.5784 7.95633H11.5782ZM10.0191 14.5554L14.3186 12.6776L9.977 2.73755L5.67754 4.61569L10.0193 14.5554H10.0191Z" fill="#75BD80"/>
  <path d="M8.83355 3.62665L7.10621 4.38105C7.33773 4.91074 7.09576 5.5279 6.56612 5.75913L9.78423 13.1268C10.3142 12.8953 10.9311 13.1373 11.1623 13.6669L12.8896 12.9122C12.6581 12.3828 12.9001 11.7659 13.4297 11.5344L10.2114 4.16674C9.68171 4.39854 9.06484 4.15629 8.83332 3.62665H8.83355Z" fill="#83CF8F"/>
  <path d="M9.30616 7.06333C10.1806 6.68134 11.199 7.08081 11.581 7.95522C11.9629 8.82962 11.564 9.84859 10.6893 10.2303C9.81466 10.6123 8.79625 10.2131 8.41427 9.33841C8.03224 8.464 8.43175 7.44559 9.30616 7.06333Z" fill="#75BD80"/>
  <path d="M12.4797 12.1412L11.6716 13.9349L12.4421 15.2591C13.3196 16.7673 8.99752 16.236 9.35584 14.8234C9.39226 14.6794 9.66498 13.7706 9.80476 13.6272L10.8042 12.6009L11.2619 11.5294C11.7256 10.1284 13.0419 10.8935 12.4797 12.1412Z" fill="#FED298"/>
  <path d="M11.5966 11.0855C11.7095 10.845 12.2781 10.8817 12.2674 11.1499L12.0404 11.8467C12.0404 11.8467 11.4701 11.6126 11.3032 11.7162L11.5966 11.0855Z" fill="#FFF7DF"/>
  <path d="M7.89507 22.2187H14.5388V23.73C13.7203 23.9062 12.8713 24 12.0003 24C10.5584 24 9.17602 23.7453 7.89535 23.2792V22.2187H7.89507V22.2187Z" fill="#FFE356"/>
  <path d="M8.21753 22.2187H14.2158V21.4361H8.21753V22.2187Z" fill="white"/>
</svg>