<svg xmlns="http://www.w3.org/2000/svg" width="24" height="24" viewBox="0 0 24 24" fill="none">
  <path d="M11.9995 23.9989C18.6266 23.9989 23.9989 18.6266 23.9989 11.9995C23.9989 5.37234 18.6266 0 11.9995 0C5.37234 0 0 5.37234 0 11.9995C0 18.6266 5.37234 23.9989 11.9995 23.9989Z" fill="#EA8953"/>
  <path opacity="0.1" d="M18.7323 6.43622C18.6368 6.3347 18.5023 6.27062 18.3525 6.27062H18.235L17.2599 5.29556C17.1524 5.19053 17.0049 5.12305 16.8424 5.12305H5.71442C5.38939 5.12305 5.12439 5.38804 5.12439 5.71558V18.2836C5.12439 18.4577 5.20065 18.612 5.31972 18.7197L10.5038 23.9037C10.9942 23.9648 11.4926 23.9998 11.9995 23.9998C18.6272 23.9998 24.0001 18.627 24.0001 11.9993C24.0001 11.8972 23.9949 11.7965 23.9923 11.6951L18.7328 6.43553L18.7323 6.43622Z" fill="black"/>
  <path d="M5.71547 5.12427C5.38895 5.12427 5.12427 5.389 5.12427 5.71547V18.2836C5.12427 18.6102 5.38895 18.8749 5.71547 18.8749H7.74339V5.12427H5.71547Z" fill="#3A556A"/>
  <path d="M18.3053 9.60862H17.4342V6.27002H18.3053C18.6198 6.27002 18.8747 6.52496 18.8747 6.83947V9.03916C18.8747 9.35367 18.6198 9.60862 18.3053 9.60862Z" fill="#FCD462"/>
  <path d="M18.3054 12.9472H17.4343V9.60864H18.3054C18.6199 9.60864 18.8749 9.86359 18.8749 10.1781V12.3777C18.8748 12.6922 18.6199 12.9472 18.3054 12.9472Z" fill="#44C4A1"/>
  <path d="M18.3053 16.2858H17.4342V12.9473H18.3053C18.6198 12.9473 18.8747 13.2022 18.8747 13.5167V15.7164C18.8747 16.0309 18.6198 16.2858 18.3053 16.2858Z" fill="white"/>
  <path d="M16.8431 5.12427H7.74341V18.8749L17.2603 5.29678C17.1534 5.19021 17.006 5.12427 16.8431 5.12427Z" fill="#27A2DB"/>
  <path d="M17.2603 5.29663L7.74341 18.8747H16.8431C17.1696 18.8747 17.4343 18.61 17.4343 18.2835V5.71532C17.4343 5.55174 17.3677 5.40368 17.2603 5.29663Z" fill="#2D93BA"/>
  <path d="M14.8466 13.3518C14.7045 13.4564 14.5561 13.5629 14.4169 13.6577C14.4115 13.6613 14.407 13.6642 14.4019 13.6677L15.9013 15.8713C16.0817 15.7238 16.2404 15.5862 16.3447 15.4938C16.4206 15.4264 16.4342 15.3135 16.3771 15.2297L15.1326 13.4009C15.0683 13.3064 14.9387 13.2839 14.8466 13.3518Z" fill="white"/>
  <path d="M14.0044 13.8866C13.4025 13.967 12.7231 13.6501 12.2066 13.0389C11.5223 12.229 11.2754 11.1041 11.5933 10.3434L10.0392 8.05957C9.65283 8.29447 9.30141 8.5551 9.26541 8.74442C8.81997 11.0872 12.2551 16.4351 14.6319 16.6307C14.8221 16.6463 15.1885 16.4171 15.545 16.1507L14.0044 13.8866Z" fill="white"/>
  <path d="M10.9526 7.56467C10.8272 7.62615 10.6381 7.7215 10.432 7.83381L11.9282 10.0327C11.9294 10.0318 11.9304 10.0311 11.9316 10.0303C12.0738 9.93358 12.2318 9.83249 12.3857 9.73703C12.4831 9.67651 12.5103 9.54728 12.4458 9.45241L11.2075 7.63274C11.151 7.54978 11.0428 7.52053 10.9526 7.56467Z" fill="white"/>
</svg>