<svg width="581" height="388" viewBox="0 0 581 388" fill="none" xmlns="http://www.w3.org/2000/svg">
<g clip-path="url(#clip0_138_3849)">
<path d="M581 0H0V388H581V0Z" fill="white"/>
<path d="M290.5 345.147C422.068 345.147 528.726 341.977 528.726 338.066C528.726 334.156 422.068 330.986 290.5 330.986C158.931 330.986 52.2734 334.156 52.2734 338.066C52.2734 341.977 158.931 345.147 290.5 345.147Z" fill="#F3F3FF"/>
<path d="M129.809 261.338C130.716 258.753 131.574 256.145 132.284 253.503C118.289 252.627 103.508 251.174 100.299 248.441L97.2391 247.222C97.2391 247.222 88.9971 252.479 88.7937 252.647C88.5904 252.815 88.4893 257.542 88.4893 257.542L90.0184 256.997L90.3264 256.812L90.6006 256.519C92.0148 255.002 94.2574 254.242 96.2375 254.853C99.5794 255.884 114.341 260.853 128.597 264.628C128.998 263.53 129.403 262.434 129.809 261.338Z" fill="#FFC7C7"/>
<path d="M87.6259 252.089C87.1681 252.407 86.6429 252.852 86.5093 253.414L85.2648 258.639C85.0928 259.359 85.1881 260.112 85.5471 260.733C85.6343 260.884 85.7981 261.075 85.9724 261.257C86.3082 261.608 87.3052 261.658 87.598 261.245C88.5416 259.911 90.4066 257.211 90.3253 256.812V256.811C89.7338 255.309 90.2892 253.536 91.6221 252.662L93.7718 251.252C94.907 250.507 96.119 249.91 97.3798 249.474L100.296 248.414L99.9187 247.333C99.2796 245.503 97.4541 244.505 95.6495 244.999L94.5003 245.314L93.1257 245.623L88.2534 245.306L88.0617 246.109L93.1536 247.327C93.2977 247.362 93.3848 247.516 93.3476 247.67L93.2895 247.914C93.2035 248.272 93.0048 248.534 92.712 248.738L87.6259 252.089Z" fill="#29293D"/>
<path d="M155.895 119.469C161.497 137.856 160.585 142.461 161.584 150.311C159.977 152.148 151.008 149.36 151.008 149.36L145.611 122.705C145.612 122.706 155.02 116.593 155.895 119.469Z" fill="#245AD9"/>
<path d="M120.153 152.661L120.237 158.703C120.237 158.703 120.572 160.707 120.364 162.434C120.206 163.747 118.864 165.002 118.093 165.623C117.889 165.788 117.973 166.136 118.223 166.165C119.123 166.267 120.749 166.162 121.927 164.434C122.843 166.805 121.424 168.416 120.493 169.168C120.274 169.346 120.382 169.724 120.655 169.728C122.408 169.756 126.414 169.193 128.877 163.909C130.018 161.461 136.868 164.009 139.038 160.237C141.451 156.039 144.062 156.803 145.344 155.999C146.563 155.234 147.977 155.744 148.918 154.605C149.593 153.789 150.235 152.235 151.762 152.557C154.776 153.194 154.361 150.213 156.009 150.846C158.59 151.837 158.687 155.318 158.931 154.683C161.486 148.027 159.396 145.347 157.609 143.226C154.776 139.863 146.02 130.034 146.02 130.034L140.074 131.5L130.943 133.21L126.618 143.044L120.153 152.661Z" fill="#29293D"/>
<path d="M185.37 173.605C185.37 173.605 178.405 175.89 176.251 177.525C172.922 180.054 170.972 185.074 167.532 189.342C163.199 194.718 155.576 197.608 151.856 200.691C137.536 212.568 120.33 209.908 120.33 209.908L127.388 197.547L136.922 167.802L138.973 157.809L150.167 152.393C150.167 152.393 169.796 154.318 175.01 158.373C178.678 161.227 185.37 173.605 185.37 173.605Z" fill="#245AD9"/>
<path d="M135.746 144.004C136.447 145.657 135.905 147.471 134.532 148.056C133.16 148.641 131.479 147.775 130.776 146.121C130.074 144.468 130.616 142.653 131.989 142.069C133.362 141.484 135.044 142.35 135.746 144.004Z" fill="#FFA6A6"/>
<path d="M122.743 85.4089C121.668 86.9397 134.903 85.1248 137.509 91.1142C138.64 93.7114 136.26 86.5532 134.569 85.7767C132.453 84.8059 124.273 83.2296 122.743 85.4089Z" fill="#FFA6A6"/>
<path d="M138.192 148.413L138.783 162.235L151.466 160.631L143.729 144.05L138.192 148.413Z" fill="#FFC7C7"/>
<path d="M142.521 198.311C142.521 198.311 134.228 173.18 128.695 163.186C129.625 160.527 138.57 157.795 138.57 157.795C138.57 157.795 142.338 160.101 144.731 159.287C148.513 158.001 149.036 155.425 149.036 155.425C149.036 155.425 151.316 154.885 152.279 155.302C156.623 157.186 162.371 162.17 163.519 172.819C164.797 184.685 160.534 200.374 160.534 200.374L151.147 212.074L142.521 198.311Z" fill="#F3F3FF"/>
<path d="M185.37 173.605C185.37 173.605 178.78 165.23 172.851 161.867C162.795 156.162 159.506 164.44 149.036 155.422C148.23 153.694 147.929 153.05 147.929 153.05C147.929 153.05 156.641 148.041 161.722 149.091C165.097 149.788 170.155 151.013 172.532 153.514C176.842 158.053 185.37 173.605 185.37 173.605Z" fill="#377DFF"/>
<path d="M129.809 261.338C130.716 258.753 131.574 256.145 132.284 253.503C126.609 253.148 120.806 252.697 115.696 252.106C113.932 254.314 112.626 256.761 113.387 260.273C118.14 261.718 123.402 263.252 128.597 264.628C128.998 263.53 129.403 262.434 129.809 261.338Z" fill="#FFA6A6"/>
<path d="M161.441 272.089C159.448 270.211 154.407 271.801 152.282 270.081C145.819 282.547 141.518 292.071 137.726 293.906L135.375 296.215C135.375 296.215 136.838 305.894 136.909 306.147C136.98 306.401 141.254 308.407 141.254 308.407L141.376 306.785L141.331 306.429L141.175 306.059C140.362 304.15 140.575 301.788 141.934 300.221C144.228 297.577 154.737 286.063 163.953 274.531C163.113 273.719 162.278 272.904 161.441 272.089Z" fill="#FFC7C7"/>
<path d="M135.928 306.99C136.034 307.539 136.227 308.2 136.685 308.549L140.951 311.804C141.54 312.253 142.265 312.471 142.976 312.393C143.149 312.374 143.39 312.301 143.626 312.215C144.082 312.05 144.532 311.157 144.272 310.721C143.436 309.317 141.727 306.516 141.329 306.429H141.328C139.719 306.363 138.324 305.138 138.067 303.562L137.651 301.023C137.431 299.682 137.375 298.329 137.487 296.998L137.7 293.896L136.561 293.804C134.632 293.65 132.982 294.917 132.703 296.771L132.525 297.951L132.25 299.335L129.988 303.671L130.644 304.172L133.816 300C133.905 299.882 134.081 299.865 134.207 299.961L134.406 300.113C134.699 300.336 134.858 300.625 134.926 300.975L135.928 306.99Z" fill="#29293D"/>
<path d="M161.442 272.089C159.449 270.211 154.408 271.801 152.283 270.081C149.076 276.268 146.401 281.729 144.056 285.886C145.402 288.563 148.067 290.215 150.428 290.617C154.479 285.983 159.374 280.26 163.953 274.531C163.114 273.719 162.278 272.904 161.442 272.089Z" fill="#FFA6A6"/>
<path d="M145.55 119.495C145.55 119.495 140.813 95.2818 136.205 88.8535C134.611 86.63 127.823 82.8641 127.823 82.8641C127.209 82.4253 127.592 81.4556 128.34 81.5568C129.033 81.6511 129.687 81.7536 130.075 81.8502C133.246 82.6313 139.23 85.5428 141.502 88.1003C148.004 95.4121 154.416 117.116 154.416 117.116L145.55 119.495Z" fill="#FFC7C7"/>
<path d="M91.3439 210.653C90.2121 211.766 98.4867 214.11 101.452 213.534C104.715 212.899 103.839 211.142 107.149 212.279C109.042 212.929 105.524 208.591 104.151 209.709C99.3779 213.593 93.0044 209.019 91.3439 210.653Z" fill="#FFA6A6"/>
<path d="M119.587 194.149C118.535 193.263 117.482 192.378 116.431 191.492C112.407 198.257 106.272 208.219 102.26 211.209C100.067 212.844 92.3738 214.175 92.3738 214.175C91.6557 214.406 91.7266 215.448 92.4703 215.578C93.1582 215.699 93.8124 215.799 94.2121 215.826C97.4703 216.046 104.053 215.089 106.994 213.344C112.135 210.293 118.872 202.107 123.333 196.205C122.055 195.61 120.806 194.925 119.587 194.149Z" fill="#FFC7C7"/>
<path d="M160.535 200.372C157.384 202.562 147.136 201.63 142.522 198.311C138.066 202.606 134.431 205.22 131.958 215.722C128.916 228.645 137.65 253.688 137.65 253.688C137.65 253.688 126.423 251.564 118.73 251.146C116.241 253.982 113.992 256.945 115.691 261.945C126.629 266.719 142.662 270.805 148.622 264.508C152.128 260.805 150.243 242.371 149.499 232.929C149.463 232.471 150.12 232.353 150.244 232.797L159.667 254.254C159.667 254.254 151.289 269.69 144.532 282.118C145.351 286.923 150.2 289.658 153.298 289.198C161.872 279.318 172.887 262.349 173.284 253.279C173.789 241.778 160.821 204.54 160.535 200.372Z" fill="#464666"/>
<path d="M147.008 151.077L143.729 144.05L138.192 148.413L138.419 153.73C138.633 153.82 138.849 153.907 139.067 153.985C142.817 155.315 145.546 153.772 147.008 151.077Z" fill="#FFA6A6"/>
<path d="M142.836 117.315C146.107 115.478 150.12 114.469 154.915 113.009C156.695 112.466 157.959 119.14 157.342 120.058C154.73 121.98 144.768 123.95 144.768 123.95C144.768 123.95 141.303 118.175 142.836 117.315Z" fill="#377DFF"/>
<path d="M150.408 139.785C150.878 141.518 150.093 143.242 148.654 143.633C147.214 144.026 145.667 142.937 145.196 141.204C144.725 139.47 145.511 137.746 146.95 137.355C148.389 136.964 149.938 138.051 150.408 139.785Z" fill="#FFA6A6"/>
<path d="M130.697 139.707C129.224 134.046 136.59 128.558 141.762 130.656C146.401 132.537 148.824 140.936 148.816 145.504C148.806 150.488 145.56 155.044 140.24 152.911C135.174 150.879 132.005 144.736 130.697 139.707Z" fill="#FFC7C7"/>
<path d="M141.762 130.656C140.994 130.344 140.177 130.201 139.349 130.199C139.21 130.27 139.074 130.345 138.942 130.426C138.852 130.359 138.758 130.294 138.661 130.23C134.117 130.644 129.503 135.118 130.697 139.706C130.859 140.33 131.05 140.971 131.27 141.619C131.279 141.319 131.308 141.015 131.366 140.709C132.744 133.554 140.814 133.416 142.696 134.042C144.369 134.599 145.802 135.708 146.837 137.013C146.953 137.16 147.068 137.308 147.184 137.457C146.001 134.396 144.184 131.638 141.762 130.656Z" fill="#FFA6A6"/>
<path d="M120.279 158.705C120.279 158.705 117.953 155.779 119.13 151.036C119.708 148.709 123.509 145.265 124.561 143.094C125.763 140.612 123.708 137.108 128.091 132.43C129.808 130.598 134.568 128.233 136.875 128.896C138.773 129.44 140.116 131.502 140.116 131.502C140.116 131.502 136.519 133.313 136.515 133.316C133.926 134.62 131.627 136.89 131.84 140.11C131.995 142.432 132.672 144.52 131.028 146.497C128.61 149.405 124.401 149.662 121.995 151.977C120.2 153.703 120.279 158.705 120.279 158.705Z" fill="#5B5B86"/>
<path d="M139.223 178.215C139.064 175.742 137.171 171.574 136.82 169.025C136.292 165.188 136.826 161.619 138.4 157.846C137.165 158.238 129.548 160.742 128.695 163.185C131.643 168.509 135.373 178.128 138.217 185.956C139.021 183.189 139.349 180.177 139.223 178.215Z" fill="#DBDBFF"/>
<path d="M135.993 133.59C135.43 131.643 137.618 130.168 139.151 129.431C140.843 128.617 142.836 128.564 144.67 128.714C150.169 129.163 150.073 133.198 152.244 135.831C153.469 137.317 154.693 137.054 156.067 138.728C156.876 139.711 158.551 144.416 158.551 144.416C158.551 144.416 156.423 141.878 154.517 141.419C151.975 140.808 151.383 141.469 149.622 140.467C147.959 139.522 146.94 137.855 145.836 136.354C144.878 135.051 143.883 133.851 142.33 133.299C140.559 132.669 138.404 132.382 135.993 133.59Z" fill="#464666"/>
<path d="M138.571 157.794C132.275 158.556 126.63 162.663 124.684 167.414C123.192 171.053 121.664 177.372 119.28 183.602C116.642 188.529 108.356 201.231 108.356 201.231C108.356 201.231 114.531 206.85 116.74 206.413C123.333 196.205 126.596 193.264 130.86 182.709C130.539 191.353 120.331 209.909 120.331 209.909C120.331 209.909 124.155 203.662 125.742 201.716C127.907 199.058 132.764 195.143 134.719 192.186C136.629 189.297 138.6 182.674 138.482 179.215C138.398 176.738 136.442 172.502 136.169 169.944C135.718 165.74 136.521 161.895 138.571 157.794Z" fill="#377DFF"/>
<path d="M114.735 209.473C111.555 208.869 109.225 206.62 105.786 204.099C104.547 203.19 108.281 198.526 109.324 198.383C112.291 199.66 116.886 202.067 118.587 204.52C119.151 205.333 115.696 209.656 114.735 209.473Z" fill="#3883E2"/>
<path d="M267.966 190.781C266.373 192.215 262.922 192.129 262.199 191.324C261.476 190.518 262.506 187.881 264.099 186.447C265.692 185.013 268.627 184.734 269.35 185.539C270.073 186.345 269.559 189.347 267.966 190.781Z" fill="#D80E0E"/>
<path d="M218.549 179.132L218.45 179.027L218.037 178.585C217.764 178.287 217.489 177.99 217.218 177.69C216.946 177.39 216.674 177.09 216.407 176.786C216.137 176.485 215.87 176.181 215.605 175.876C214.543 174.658 213.512 173.42 212.532 172.16C212.041 171.53 211.561 170.896 211.104 170.252C210.641 169.612 210.198 168.962 209.779 168.308C209.357 167.655 208.962 166.995 208.602 166.33C208.239 165.668 207.913 165 207.641 164.336C207.367 163.675 207.146 163.016 207.011 162.39C206.945 162.076 206.894 161.773 206.869 161.485C206.844 161.196 206.844 160.924 206.866 160.674C206.877 160.549 206.895 160.429 206.918 160.315L206.936 160.23L206.956 160.148C206.969 160.096 206.982 160.051 206.996 160.005C207.054 159.824 207.131 159.666 207.232 159.514C207.333 159.362 207.458 159.21 207.623 159.06C207.79 158.912 207.987 158.761 208.222 158.621C208.338 158.552 208.462 158.483 208.595 158.419C208.726 158.352 208.863 158.288 209.006 158.228C209.293 158.107 209.604 158 209.927 157.898C210.251 157.799 210.589 157.715 210.936 157.635C211.111 157.597 211.287 157.561 211.465 157.527C211.643 157.492 211.824 157.46 212.005 157.43C212.109 157.414 212.213 157.399 212.318 157.384C212.438 159.397 214.131 160.969 216.162 160.923C218.24 160.875 219.883 159.152 219.834 157.074C219.794 155.405 218.674 154.016 217.159 153.559C217.143 153.553 217.125 153.548 217.108 153.542C217.107 153.542 217.107 153.542 217.105 153.541C217.06 153.527 217.015 153.516 216.968 153.505L216.96 153.504C216.925 153.496 216.889 153.488 216.854 153.481L216.781 153.464C216.724 153.452 216.667 153.439 216.612 153.427C216.5 153.404 216.388 153.381 216.278 153.361C216.057 153.319 215.838 153.282 215.617 153.248C215.176 153.18 214.735 153.127 214.29 153.087C213.401 153.009 212.499 152.98 211.582 153.02C211.353 153.029 211.122 153.042 210.891 153.06C210.66 153.08 210.427 153.103 210.194 153.131C209.726 153.186 209.254 153.265 208.776 153.369C208.299 153.471 207.816 153.605 207.329 153.774C207.087 153.859 206.841 153.953 206.596 154.058C206.352 154.165 206.107 154.283 205.863 154.415C205.376 154.678 204.888 154.996 204.43 155.39C203.972 155.782 203.539 156.249 203.178 156.782C202.817 157.315 202.532 157.909 202.339 158.515C202.291 158.667 202.247 158.82 202.211 158.969L202.161 159.188L202.118 159.407C202.064 159.699 202.027 159.989 202.005 160.277C201.962 160.849 201.975 161.408 202.03 161.943C202.083 162.478 202.174 162.99 202.293 163.483C202.532 164.469 202.867 165.374 203.246 166.231C203.631 167.087 204.062 167.891 204.52 168.665C204.98 169.437 205.471 170.175 205.978 170.891C206.488 171.605 207.019 172.294 207.562 172.967C208.109 173.636 208.668 174.29 209.242 174.926C210.389 176.198 211.586 177.409 212.822 178.57C213.133 178.86 213.444 179.146 213.759 179.43C213.81 179.475 213.861 179.521 213.913 179.567C213.442 180.148 213.165 180.893 213.184 181.701C213.227 183.503 214.721 184.93 216.523 184.89C218.324 184.848 219.75 183.354 219.708 181.552C219.684 180.577 219.238 179.714 218.549 179.132Z" fill="#FFB001"/>
<path d="M256.608 178.721C256.371 178.328 256.346 177.882 256.509 177.477C256.637 177.16 256.825 176.927 257.092 176.72C257.473 176.424 257.963 176.572 258.311 176.847C258.268 176.543 258.297 176.244 258.444 175.973C258.59 175.701 258.788 175.484 259.035 175.31C259.358 175.084 259.724 175.165 260.024 175.38C260.043 175.392 259.995 175.358 260.053 175.395C261.538 176.302 262.994 177.856 264.19 178.667C264.706 179.017 264.565 178.748 264.569 178.622C264.584 178.203 263.364 177.295 263.107 176.701C262.915 176.258 262.574 175.509 262.519 174.978C262.506 174.848 262.749 174.195 262.95 174.239C263.437 174.347 264.225 175.148 264.699 175.569C265.173 175.988 266.063 177.046 266.629 177.705C266.931 178.057 267.256 178.452 267.509 178.979C268.18 180.383 266.915 182.376 267.12 183.89C267.395 185.901 270.484 188.73 271.969 190.177C270.085 191.685 268.641 193.537 266.538 194.889C266.096 193.703 261.99 189.404 261.712 189.186C260.017 187.858 253.372 180.19 255.209 180.708C255.226 180.529 255.026 180.007 255.166 179.68C255.29 179.389 255.405 179.134 255.645 178.919C256 178.599 256.483 178.708 256.843 178.96C256.786 178.915 256.637 178.769 256.608 178.721Z" fill="#FFCACA"/>
<path d="M255.278 180.741C254.982 180.203 255.08 179.553 255.448 179.076C255.558 178.933 255.683 178.818 255.855 178.751C256.172 178.629 256.495 178.738 256.774 178.904C256.518 178.718 256.389 178.341 256.382 178.045C256.367 177.364 256.821 176.592 257.538 176.537C257.821 176.515 258.01 176.662 258.244 176.778C258.344 176.593 258.305 176.333 258.364 176.141C258.437 175.908 258.548 175.719 258.707 175.546C258.89 175.35 259.098 175.177 259.374 175.158C259.824 175.126 260.226 175.471 260.577 175.69C260.91 175.897 261.268 176.102 261.569 176.311C262.346 176.854 263.353 177.741 263.975 178.432C264.077 178.546 264.228 178.695 264.321 178.73C264.414 178.764 264.525 178.77 264.553 178.745C264.733 178.591 263.663 177.534 263.461 177.305C263.291 177.113 262.825 176.183 262.667 175.607C264.754 178.028 267.697 181.269 262.996 183.479C257.66 185.987 260.589 188.03 263.332 187.403C263.369 187.395 263.59 187.404 263.553 187.427C260.821 189.114 264.095 189.739 264.787 190.5C266.029 191.865 266.741 192.651 267.921 193.871C267.698 193.972 267.575 194.16 267.396 194.306C267.255 194.421 267.147 194.546 266.998 194.669C266.928 194.728 266.825 194.927 266.71 194.926C266.501 194.922 266.285 194.49 266.171 194.347C265.956 194.073 265.759 193.825 265.548 193.563C265.115 193.027 264.692 192.502 264.248 191.97C263.429 190.987 262.591 190.002 261.634 189.145C261.469 188.997 261.302 188.853 261.131 188.714C260.369 188.089 259.566 187.518 258.805 186.893C257.783 186.014 256.774 185.117 255.835 184.149C255.249 183.5 254.598 182.748 254.385 181.876C254.275 181.248 254.587 180.683 255.278 180.741Z" fill="#FFAEAE"/>
<path d="M245.633 186.076L245.77 186.029L246.34 185.831C246.72 185.696 247.103 185.562 247.483 185.425C247.863 185.288 248.244 185.15 248.621 185.008C249 184.869 249.379 184.725 249.756 184.58C251.263 184.001 252.752 183.391 254.208 182.737C254.936 182.41 255.656 182.074 256.363 181.721C257.07 181.372 257.765 181.005 258.441 180.624C259.119 180.245 259.777 179.847 260.406 179.429C261.036 179.013 261.637 178.577 262.187 178.117C262.739 177.662 263.24 177.182 263.653 176.692C263.859 176.446 264.045 176.202 264.2 175.959C264.358 175.715 264.484 175.475 264.583 175.243C264.63 175.126 264.671 175.012 264.705 174.902L264.729 174.818L264.75 174.735C264.763 174.684 264.772 174.638 264.781 174.591C264.815 174.403 264.821 174.227 264.802 174.045C264.785 173.863 264.744 173.67 264.669 173.46C264.591 173.252 264.486 173.026 264.346 172.792C264.276 172.676 264.197 172.557 264.111 172.438C264.026 172.318 263.934 172.197 263.837 172.076C263.639 171.835 263.416 171.594 263.178 171.354C262.937 171.116 262.678 170.881 262.409 170.648C262.273 170.531 262.134 170.417 261.991 170.304C261.85 170.19 261.705 170.077 261.558 169.966C261.474 169.903 261.388 169.84 261.303 169.778C260.256 171.5 258.027 172.097 256.253 171.103C254.441 170.087 253.792 167.793 254.807 165.981C255.621 164.525 257.261 163.823 258.813 164.129C258.831 164.131 258.848 164.135 258.866 164.138C258.867 164.138 258.867 164.138 258.868 164.138C258.914 164.147 258.96 164.158 259.006 164.171L259.014 164.173C259.049 164.182 259.084 164.192 259.119 164.202L259.192 164.222C259.249 164.237 259.305 164.252 259.359 164.268C259.47 164.3 259.578 164.331 259.685 164.365C259.9 164.431 260.111 164.501 260.322 164.575C260.742 164.721 261.158 164.882 261.57 165.055C262.392 165.403 263.202 165.799 263.993 166.265C264.191 166.381 264.39 166.5 264.585 166.625C264.78 166.75 264.975 166.88 265.168 167.015C265.556 167.282 265.936 167.573 266.309 167.889C266.684 168.203 267.047 168.548 267.398 168.925C267.574 169.114 267.746 169.311 267.913 169.52C268.079 169.728 268.239 169.948 268.394 170.179C268.702 170.64 268.984 171.148 269.205 171.712C269.426 172.274 269.592 172.889 269.662 173.529C269.731 174.169 269.706 174.828 269.593 175.454C269.565 175.61 269.532 175.768 269.494 175.917L269.436 176.134L269.372 176.349C269.283 176.631 269.179 176.905 269.066 177.169C268.836 177.695 268.564 178.183 268.266 178.63C267.969 179.078 267.649 179.489 267.313 179.868C266.642 180.627 265.922 181.269 265.187 181.85C264.448 182.425 263.69 182.935 262.924 183.404C262.158 183.871 261.379 184.292 260.596 184.687C259.811 185.079 259.02 185.439 258.226 185.779C257.43 186.114 256.631 186.43 255.827 186.723C254.219 187.31 252.595 187.819 250.96 188.264C250.551 188.375 250.141 188.482 249.731 188.586C249.665 188.602 249.597 188.618 249.531 188.635C249.678 189.369 249.573 190.157 249.179 190.862C248.299 192.434 246.311 192.994 244.738 192.113C243.166 191.232 242.603 189.242 243.483 187.67C243.954 186.82 244.752 186.267 245.633 186.076Z" fill="#FF9F00"/>
<path d="M260.171 175.531C261.069 176.576 262.477 178.584 263.249 179.369C264.02 180.155 263.672 180.205 263.356 180.628C263.051 181.035 262.43 180.829 262.029 180.496C261.193 179.802 258.856 177.908 258.445 177.172C258.002 176.378 258.343 176.463 258.428 175.964C258.494 175.574 258.787 175.491 259.019 175.301C259.376 175.009 259.844 175.152 260.171 175.531Z" fill="#FFC7C7"/>
<path d="M260.171 175.531C261.069 176.575 262.477 178.584 263.249 179.369C264.021 180.155 263.672 180.205 263.356 180.628C263.052 181.035 262.43 180.829 262.029 180.496C261.193 179.802 258.857 177.908 258.445 177.172C258.003 176.378 258.186 176.394 258.349 175.917C258.49 175.501 258.715 175.431 258.947 175.241C259.303 174.949 259.844 175.152 260.171 175.531Z" fill="#FFC7C7"/>
<path d="M256.986 176.607C257.367 176.312 257.855 176.459 258.206 176.735C258.189 176.629 258.171 176.51 258.186 176.409C258.16 176.374 258.266 176.487 258.289 176.509C259.477 177.679 261.563 179.722 262.499 180.709C263.434 181.696 263.122 181.904 262.712 182.473C262.319 183.022 261.747 183.071 261.066 182.545C259.708 181.494 257.461 179.982 256.253 178.64C256.397 178.64 256.596 178.754 256.736 178.847C256.681 178.801 256.531 178.655 256.502 178.607C256.265 178.213 256.24 177.768 256.403 177.362C256.531 177.048 256.719 176.814 256.986 176.607Z" fill="#FFAEAE"/>
<path d="M254.67 182.401C255.335 182.876 256.195 183.509 256.862 183.932C257.593 184.394 258.354 184.6 258.851 183.892C259.169 183.439 258.891 183.389 258.654 183.048C257.814 182.454 256.417 181.459 255.681 181.001C254.171 180.062 253.897 181.848 254.67 182.401Z" fill="#FFC7C7"/>
<path d="M258.418 176.912C259.536 178.006 261.446 179.939 262.362 180.826C263.276 181.714 262.952 181.869 262.637 182.425C262.334 182.962 261.66 182.797 261.157 182.43C260.109 181.669 257.253 179.648 256.684 178.827C256.073 177.945 256.284 178.05 256.327 177.489C256.361 177.049 256.722 176.808 256.974 176.584C257.362 176.239 258.011 176.514 258.418 176.912Z" fill="#FFC7C7"/>
<path d="M257.849 183.31C257.772 183.389 257.71 183.469 257.647 183.559C257.609 183.615 257.572 183.672 257.589 183.748C257.609 183.83 257.677 183.897 257.745 183.953C257.881 184.063 258.012 184.184 258.161 184.283C258.287 184.367 258.426 184.381 258.557 184.284C258.689 184.188 258.798 184.077 258.909 183.939C259.006 183.819 258.984 183.631 258.849 183.536C258.714 183.44 258.572 183.358 258.433 183.282C258.307 183.213 258.176 183.153 258.039 183.177C257.95 183.196 257.904 183.253 257.849 183.31Z" fill="#FFE6E6"/>
<path d="M261.064 181.135C260.955 181.312 260.888 181.506 260.953 181.716C261.003 181.878 261.137 181.997 261.267 182.111C261.524 182.337 261.805 182.544 262.088 182.741C262.316 182.695 262.505 182.639 262.672 182.461C262.913 182.206 263.045 181.94 262.884 181.599V181.598C262.708 181.439 262.542 181.225 262.372 181.071C262.128 180.85 261.819 180.653 261.493 180.742C261.274 180.801 261.173 180.958 261.064 181.135Z" fill="#FFE6E6"/>
<path d="M256.818 178.939C256.738 178.865 256.642 178.779 256.579 178.693C256.563 178.67 256.566 178.672 256.555 178.655C256.552 178.651 256.552 178.65 256.55 178.647C256.544 178.636 256.538 178.627 256.532 178.617C256.531 178.615 256.53 178.613 256.529 178.61C256.523 178.6 256.518 178.589 256.513 178.579C256.512 178.577 256.512 178.575 256.51 178.573C256.505 178.562 256.5 178.551 256.494 178.539C256.494 178.538 256.493 178.537 256.493 178.536C256.487 178.524 256.482 178.511 256.477 178.5V178.499C256.46 178.459 256.376 178.344 256.363 178.303C258.159 179.789 260.028 181.347 261.822 182.837C261.773 182.797 261.596 182.667 261.62 182.774C261.695 183.117 261.839 183.591 261.492 183.873C260.985 184.285 260.674 184.556 259.837 184.012C258.42 183.091 256.34 181.794 254.854 180.735C254.917 180.663 255.042 180.686 255.145 180.72C255.131 180.693 255.241 180.698 255.229 180.669C255.238 180.673 255.25 180.679 255.258 180.684C255.207 180.582 255.146 180.465 255.128 180.353C255.088 180.124 255.075 179.873 255.145 179.659C255.245 179.354 255.388 179.114 255.621 178.897C255.969 178.574 256.462 178.686 256.818 178.939Z" fill="#FFAEAE"/>
<path d="M261.844 182.853C261.838 182.849 261.829 182.841 261.823 182.836C261.857 182.862 261.921 182.915 261.844 182.853Z" fill="#FFAEAE"/>
<path d="M263.05 176.612C262.858 176.168 262.534 175.423 262.479 174.891C262.466 174.761 262.693 174.104 262.894 174.148C263.381 174.257 264.169 175.057 264.643 175.478C265.117 175.897 266.007 176.955 266.573 177.614C266.847 177.934 267.14 178.289 267.38 178.747C267.355 178.757 267.328 178.769 267.302 178.78C267.114 178.821 266.923 178.848 266.73 178.865C266.4 178.865 266.071 178.848 265.742 178.826C265.387 178.802 265.032 178.776 264.676 178.764C264.638 178.697 263.302 177.194 263.05 176.612Z" fill="#FFCACA"/>
<path d="M256.894 179.003C258.035 179.92 259.998 181.51 260.919 182.268C261.839 183.026 261.508 183.183 261.292 183.735C261.083 184.267 260.456 184.19 259.952 183.89C258.903 183.267 256.065 181.65 255.453 180.925C254.794 180.144 255.182 180.22 255.162 179.678C255.146 179.253 255.42 179.148 255.634 178.912C255.964 178.549 256.479 178.67 256.894 179.003Z" fill="#FFC7C7"/>
<path d="M256.894 179.003C258.035 179.92 259.998 181.51 260.919 182.268C261.839 183.026 261.508 183.183 261.292 183.735C261.083 184.267 260.456 184.19 259.952 183.89C258.903 183.267 256.065 181.65 255.453 180.925C254.794 180.144 254.916 180.33 254.895 179.787C254.879 179.362 255.389 178.928 255.604 178.692C255.934 178.329 256.479 178.67 256.894 179.003Z" fill="#FFC7C7"/>
<path d="M263.114 174.237C263.303 174.68 263.959 175.496 264.541 175.496C264.587 175.496 264.584 175.457 264.633 175.458C264.567 175.364 263.431 174.3 263.114 174.237Z" fill="#FFE6E6"/>
<path d="M262.086 179.379C261.971 179.514 261.889 179.686 261.924 179.87C261.951 180.012 262.052 180.106 262.158 180.212C262.366 180.422 262.609 180.629 262.835 180.828C263.037 180.821 263.222 180.79 263.384 180.663C263.617 180.48 263.771 180.297 263.65 179.997C263.502 179.859 263.379 179.692 263.236 179.551C263.032 179.348 262.796 179.145 262.505 179.149C262.312 179.151 262.201 179.244 262.086 179.379Z" fill="#FFE6E6"/>
<path d="M259.75 182.684C259.664 182.859 259.62 183.048 259.7 183.239C259.762 183.386 259.899 183.487 260.028 183.58C260.285 183.766 260.56 183.93 260.837 184.089C261.038 184.022 261.204 183.941 261.331 183.763C261.513 183.507 261.609 183.219 261.449 182.927V182.926C261.27 182.805 261.121 182.625 260.951 182.499C260.705 182.316 260.408 182.168 260.112 182.276C259.916 182.347 259.836 182.508 259.75 182.684Z" fill="#FFE6E6"/>
<path d="M267.689 179.637C267.701 179.402 267.535 178.925 267.38 178.748C266.945 178.251 265.181 177.279 265.181 177.279C265.181 177.279 264.767 178.383 264.678 178.765C264.357 180.141 262.311 182.762 263.111 183.865C263.518 184.425 265.462 183.835 265.618 183.783C265.773 183.73 267.63 180.794 267.689 179.637Z" fill="#FFCACA"/>
<path d="M213.602 219.832C213.602 219.832 217.724 219.563 219.011 219.107C220.416 218.609 224.099 216.003 224.099 216.003C224.099 216.003 226.443 220.063 227.526 221.173C228.48 222.15 232.004 224.297 232.004 224.297L220.78 231.141L213.602 219.832Z" fill="#FFBC01"/>
<path d="M231.561 208.79L221.082 206.247C222.557 208.442 223.149 211.147 222.502 213.823C221.975 215.999 220.711 217.818 219.01 219.107L227.525 221.173C226.602 219.247 226.308 217.051 226.835 214.874C227.483 212.2 229.245 210.066 231.561 208.79Z" fill="#FFB001"/>
<path d="M222.501 213.823C222.35 214.445 222.139 215.04 221.874 215.6C223.26 216.741 224.868 217.648 226.652 218.245C226.528 217.293 226.55 216.315 226.736 215.336C225.202 214.429 223.861 213.268 222.757 211.922C222.739 212.554 222.655 213.189 222.501 213.823Z" fill="#FEC901"/>
<path d="M231.561 208.79L221.082 206.247C223.398 204.971 225.159 202.838 225.807 200.162C226.333 197.985 226.04 195.788 225.116 193.863L233.632 195.929C231.932 197.218 230.667 199.036 230.14 201.213C229.494 203.89 230.085 206.595 231.561 208.79Z" fill="#FFBC01"/>
<path d="M224.354 203.314C224.887 202.56 225.331 201.784 225.622 200.874C227.346 200.843 229.005 200.454 230.577 199.871C230.401 200.301 230.254 200.75 230.141 201.214C229.968 201.93 229.885 202.649 229.882 203.36C228.096 203.676 226.228 203.677 224.354 203.314Z" fill="#FEC901"/>
<path d="M205.34 221.617L202.149 234.807L235.364 242.87L238.554 229.68L205.34 221.617Z" fill="#29293D"/>
<path d="M231.632 230.813L210.955 225.794L209.045 233.691L229.722 238.71L231.632 230.813Z" fill="#FEC901"/>
<path d="M232 224.309L213.599 219.842L213.165 221.633L231.567 226.1L232 224.309Z" fill="#FFB001"/>
<path d="M234.453 226.801L210.282 220.933L209.849 222.724L234.019 228.592L234.453 226.801Z" fill="#FEC901"/>
<path d="M211.554 233.708C210.751 233.512 209.966 233.288 209.204 233.035L209.387 232.283C216.531 234.004 223.389 232.901 227.639 229.834L230.731 230.585C226.581 234.176 219.228 235.571 211.554 233.708Z" fill="#FED801"/>
<path d="M230.941 233.67L230.302 236.31C228.43 236.913 226.346 237.268 224.134 237.342L217.131 235.643C222.391 236.383 227.319 235.606 230.941 233.67Z" fill="#FED801"/>
<path d="M236.474 191.551C237.431 187.597 235.55 183.746 232.273 182.95C228.996 182.154 225.564 184.715 224.607 188.669C223.65 192.624 225.531 196.475 228.808 197.271C232.085 198.067 235.517 195.506 236.474 191.551Z" fill="#FEC901"/>
<path d="M232.262 182.96C232.018 182.9 231.773 182.859 231.527 182.837C234.36 183.981 235.905 187.55 235.019 191.21C234.134 194.87 231.129 197.335 228.088 197.052C228.316 197.144 228.553 197.221 228.797 197.281C232.074 198.076 235.506 195.515 236.462 191.56C237.42 187.606 235.539 183.756 232.262 182.96Z" fill="#FFBC01"/>
<path d="M217.502 151.794C212.624 172.531 217.962 191.52 229.513 194.325C241.065 197.129 254.487 182.693 259.627 162.018L217.502 151.794Z" fill="#FFBC01"/>
<path d="M256.305 161.211C251.76 180.454 240.552 194.441 229.911 194.413C241.372 196.796 254.547 182.455 259.627 162.018L256.305 161.211Z" fill="#FFB001"/>
<path d="M244.523 158.184L219.541 152.12C216.646 170.487 218.473 184.989 224.463 186.443C230.453 187.897 238.703 175.841 244.523 158.184Z" fill="#FEC901"/>
<path d="M238.835 156.803L222.021 152.722C220.131 167.149 220.982 177.62 224.682 178.518C228.381 179.417 233.922 170.495 238.835 156.803Z" fill="#FED801"/>
<path d="M259.88 162.642L216.987 152.232C216.423 152.094 216.076 151.525 216.214 150.959C216.351 150.393 216.919 150.046 217.484 150.184L260.377 160.595C260.941 160.732 261.288 161.301 261.15 161.867C261.013 162.433 260.445 162.78 259.88 162.642Z" fill="#FFBC01"/>
<path d="M261.15 161.867C261.288 161.301 260.94 160.732 260.374 160.595L221.841 151.242C221.275 151.105 220.707 151.452 220.57 152.017C220.433 152.583 220.78 153.152 221.346 153.29L259.879 162.642C260.444 162.78 261.013 162.433 261.15 161.867Z" fill="#FEC901"/>
<path d="M260.725 161.763C260.862 161.198 260.514 160.628 259.948 160.491L237.687 155.087C237.121 154.95 236.553 155.297 236.416 155.862C236.279 156.428 236.626 156.997 237.192 157.135L259.453 162.539C260.018 162.676 260.588 162.329 260.725 161.763Z" fill="#FED801"/>
<path d="M261.151 161.867C261.288 161.301 260.941 160.732 260.375 160.595L244.138 156.653C243.572 156.515 243.004 156.862 242.867 157.428C242.73 157.994 243.077 158.563 243.643 158.701L259.88 162.642C260.444 162.78 261.014 162.433 261.151 161.867Z" fill="#FEC901"/>
<path d="M261.151 161.867C261.288 161.301 260.94 160.732 260.374 160.595L256.023 159.539C255.457 159.401 254.889 159.748 254.752 160.314C254.614 160.88 254.962 161.449 255.528 161.586L259.879 162.642C260.444 162.78 261.014 162.433 261.151 161.867Z" fill="#FFBC01"/>
<path d="M218.001 151.393C218.138 150.828 218.707 150.481 219.272 150.618L217.485 150.184C216.919 150.046 216.351 150.393 216.213 150.959C216.076 151.525 216.424 152.094 216.99 152.232L218.777 152.666C218.211 152.528 217.864 151.959 218.001 151.393Z" fill="#FFB001"/>
<path d="M239.662 158.072C239.105 158.366 238.637 158.818 238.324 159.378C238.209 158.747 237.912 158.167 237.48 157.709C238.037 157.414 238.505 156.962 238.818 156.403C238.933 157.035 239.23 157.613 239.662 158.072Z" fill="white"/>
<path d="M317.195 164.45L313.031 177.648L326.096 179.333L325.622 165.029L317.195 164.45Z" fill="#FFC7C7"/>
<path d="M302.23 189.169C304.919 186.475 304.919 182.107 302.23 179.413C299.541 176.719 295.181 176.719 292.492 179.413C289.803 182.107 289.803 186.475 292.492 189.169C295.181 191.863 299.541 191.863 302.23 189.169Z" fill="#FFC7C7"/>
<path d="M296.365 177.465C296.365 177.465 308.689 174.323 312.894 173.871C315.773 173.562 321.609 173.486 324.479 173.871C328.23 174.374 339.216 177.34 339.216 177.34L336.007 191.189L332.57 223.378H303.774L300.963 190.171L296.365 177.465Z" fill="#FFC7C7"/>
<path d="M303.775 223.378L299.198 237.38L313.9 245.701L315.874 246.665C316.957 247.193 318.219 247.205 319.311 246.696L321.352 245.745L336.239 238.153L332.571 223.376L318.229 214.045L303.775 223.378Z" fill="#FFC7C7"/>
<path d="M279.181 209.37C281.462 209.37 283.312 207.517 283.312 205.231C283.312 202.946 281.462 201.093 279.181 201.093C276.899 201.093 275.05 202.946 275.05 205.231C275.05 207.517 276.899 209.37 279.181 209.37Z" fill="#FFC7C7"/>
<path d="M297.365 182.777C297.365 182.777 291.179 181.168 290.997 181.663C290.816 182.156 275.819 202.827 275.819 202.827L282.263 207.988L300.965 190.171L297.365 182.777Z" fill="#FFC7C7"/>
<path d="M315.686 242.171C316.776 237.547 313.918 232.913 309.301 231.821C304.685 230.729 300.06 233.592 298.97 238.217C297.88 242.841 300.738 247.475 305.354 248.567C309.97 249.659 314.596 246.796 315.686 242.171Z" fill="#FFC7C7"/>
<path d="M333.958 246.252C337.311 242.893 337.311 237.445 333.957 234.085C330.603 230.725 325.166 230.725 321.812 234.084C318.459 237.444 318.459 242.891 321.813 246.251C325.167 249.611 330.604 249.612 333.958 246.252Z" fill="#FFC7C7"/>
<path d="M308.91 284.976C309.562 282.206 307.85 279.431 305.085 278.777C302.321 278.123 299.55 279.838 298.897 282.608C298.244 285.378 299.956 288.154 302.721 288.808C305.486 289.462 308.257 287.746 308.91 284.976Z" fill="#FFC7C7"/>
<path d="M307.324 238.794L298.789 239.21C298.789 239.21 293.294 262.525 298.861 282.728C299.546 285.211 308.197 286.992 308.988 284.54C313.821 269.551 313.899 245.701 313.899 245.701L307.324 238.794Z" fill="#FFC7C7"/>
<path d="M298.861 282.729C294.853 294.852 299.957 310.671 302.692 329.173C302.942 330.862 308.347 330.091 308.658 328.411C311.733 311.852 308.988 284.54 308.988 284.54L303.902 280.067C303.902 280.068 299.31 281.374 298.861 282.729Z" fill="#FFC7C7"/>
<path d="M338.017 288.848C340.821 288.392 342.726 285.745 342.271 282.936C341.816 280.126 339.173 278.218 336.369 278.674C333.564 279.13 331.66 281.777 332.115 284.587C332.57 287.396 335.213 289.304 338.017 288.848Z" fill="#FFC7C7"/>
<path d="M327.859 238.794L336.394 239.21C336.394 239.21 345.019 262.343 342.224 282.728C341.874 285.281 333.237 286.85 332.097 284.54C321.758 263.593 321.283 245.701 321.283 245.701L327.859 238.794Z" fill="#FFC7C7"/>
<path d="M342.223 282.729C348.456 294.047 354.436 308.402 353.996 326.726C353.955 328.433 349.358 328.737 348.64 327.188C340.301 309.201 332.098 284.54 332.098 284.54L337.184 280.067C337.184 280.068 341.535 281.479 342.223 282.729Z" fill="#FFC7C7"/>
<path d="M354.573 326.211C354.443 325.983 354.177 325.91 353.969 326.046C353.132 326.593 351.114 328.432 349.049 326.976C348.602 326.662 347.941 326.387 347.816 327.194C347.42 329.75 345.736 333.682 346.782 336.454H356.793C358.325 334.765 354.907 326.795 354.573 326.211Z" fill="#30304A"/>
<path d="M289.333 333.971C290.296 332.779 291.594 332.255 292.878 331.87C294.596 331.354 299.291 329.905 301.687 328.439C302.037 328.225 302.473 328.204 302.839 328.389C305.565 329.769 307.821 328.396 308.506 327.549C308.818 327.162 309.383 327.311 309.475 327.816C309.501 327.958 309.515 328.103 309.516 328.249C309.518 328.588 310.695 336.454 310.695 336.454H289.089C289.09 336.454 288.747 334.697 289.333 333.971Z" fill="#30304A"/>
<path d="M349.33 292.974C347 285.061 345.679 277.312 344.304 269.177C340.194 244.865 333.194 223.378 333.194 223.378H303.265L301.389 229.069C301.207 229.622 300.991 230.163 300.751 230.693C297.317 238.297 296.323 251.398 295.692 258.328C295.125 264.558 295.607 283.352 295.607 283.352C295.364 293.8 298.29 308.641 300.679 325.189C300.935 326.962 310.359 326.601 310.483 324.809C311.543 309.547 311.491 294.583 311.398 284.682L314.432 264.324C314.96 259.262 316.24 253.938 317.667 249.185C317.793 248.761 318.393 248.762 318.521 249.185C321.041 257.529 324.88 269.702 329.686 283.28C333.859 295.067 337.423 304.754 345.901 323.762C347.226 326.733 355.48 325.038 355.235 322.7C353.603 307.092 352.615 304.131 349.33 292.974Z" fill="#464666"/>
<path d="M337.972 240.037C335.351 229.993 333.196 223.376 333.196 223.376H303.266L301.391 229.068C301.208 229.621 300.992 230.162 300.753 230.692C299.584 233.278 298.698 236.502 298.013 239.901C307.782 245.836 331.715 244.84 337.972 240.037Z" fill="#30304A"/>
<path d="M337.153 192.395C337.433 192.47 337.713 192.546 337.994 192.622C337.801 192.103 337.626 191.572 337.474 191.028L336.794 185.958C336.695 183.332 337.241 180.883 338.434 178.61C338.665 177.899 338.946 177.218 339.275 176.565C335.137 175.926 326.364 173.751 326.364 173.751C326.364 175.762 325.532 177.681 324.065 179.053C321.233 181.703 316.725 181.277 314.436 178.144C313.761 177.219 313.375 176.115 313.327 174.97L313.24 173.354L297.889 176.593C295.284 177.142 292.962 178.613 291.349 180.735L278.976 197.01C278.976 197.01 272.573 188.402 269.349 185.539C269.896 189.018 265.899 192.44 262.198 191.324C265.917 196.561 274.624 207.734 274.624 207.734C276.583 210.496 280.553 210.978 283.121 208.773C287.902 204.669 294.049 198.223 298.837 193.518C299.81 201.024 297.368 220.32 296.395 236.504C306.093 243.013 333.172 241.806 338.516 236.504C338.05 223.912 334.773 203.108 337.153 192.395Z" fill="#FF3E3E"/>
<path d="M320.113 182.804C319.902 182.804 319.688 182.795 319.471 182.78C317.219 182.616 315.382 181.717 314.009 180.106C311.761 177.467 311.48 174.771 311.563 173.401C311.568 173.317 311.634 173.25 311.718 173.241L314.277 172.988C314.382 172.977 314.472 173.061 314.471 173.167C314.459 174.062 314.743 176.361 316.279 178.167C317.125 179.16 318.239 179.694 319.686 179.799C321.155 179.906 322.343 179.493 323.318 178.537C325.199 176.693 325.849 174.494 325.884 173.524C325.887 173.437 325.966 173.373 326.052 173.39L328.519 173.872C328.608 173.89 328.67 173.967 328.671 174.056C328.689 175.251 328.258 177.88 325.406 180.676C323.978 182.074 322.158 182.804 320.113 182.804Z" fill="#D80E0E"/>
<path d="M325.621 165.029L317.195 164.45L315.522 169.749C316.983 172.06 318.982 173.643 321.422 173.917C322.986 174.092 324.492 173.702 325.882 172.893L325.621 165.029Z" fill="#FFA6A6"/>
<path d="M329.549 160.882C328.852 167.109 324.784 173.26 320.022 172.725C315.26 172.189 312.654 165.288 313.351 159.061C314.048 152.835 317.799 149.517 322.561 150.052C327.323 150.588 330.246 154.656 329.549 160.882Z" fill="#FFC7C7"/>
<path d="M329.269 156.172C325.906 154.543 318.822 153.411 314.45 154.204L317.344 150.866L328.711 152.511L329.269 156.172Z" fill="#FFA6A6"/>
<path d="M319.102 150.135C317.938 149.966 316.748 150.219 315.65 150.641C315.118 150.846 314.593 151.1 314.127 151.428C314.228 151.832 314.271 152.251 314.255 152.687V152.809C314.252 153.738 314.041 154.611 313.625 155.427C313.74 155.896 313.805 156.377 313.826 156.854C313.854 157.593 313.712 158.287 313.399 158.933C313.464 159.28 313.504 159.632 313.519 159.98C313.534 160.38 313.499 160.767 313.415 161.14C313.82 161.039 314.234 160.982 314.643 160.973C314.595 160.47 314.568 159.966 314.574 159.46C314.601 157.184 315.403 154.756 317.285 153.497L321.978 151.972C321.401 150.943 320.267 150.305 319.102 150.135Z" fill="#FFA6A6"/>
<path d="M330.405 155.656C330.386 155.483 330.372 155.311 330.365 155.138C330.336 154.382 330.485 153.674 330.812 153.015C330.431 152.748 329.58 153.035 329.177 152.461L325.54 153.576C327.679 154.436 328.199 157.957 328.131 161C328.533 160.741 328.97 160.53 329.425 160.373C329.335 159.96 329.282 159.539 329.263 159.122C329.233 158.33 329.398 157.591 329.758 156.905C329.906 156.45 330.123 156.034 330.405 155.656Z" fill="#FFA6A6"/>
<path d="M329.189 155.706C325.826 154.078 318.742 152.945 314.37 153.738L317.264 150.4L328.631 152.045L329.189 155.706Z" fill="#464666"/>
<path d="M323.732 150.698C323.376 149.572 322.395 148.714 321.291 148.31C320.187 147.906 318.969 147.909 317.809 148.098C316.772 148.267 315.72 148.601 314.96 149.329C314.092 150.161 313.724 151.383 313.485 152.563C312.792 155.969 312.887 159.535 313.761 162.898L314.482 163.314C314.611 161.04 314.468 158.733 314.958 156.511C315.449 154.288 316.729 152.078 318.829 151.23L323.732 150.698Z" fill="#464666"/>
<path d="M324.172 150.142C324.799 149.307 324.566 147.944 323.802 147.136C323.04 146.328 321.881 146.037 320.851 146.186C319.82 146.335 318.9 146.871 318.083 147.504C317.23 148.165 316.462 148.943 315.804 149.814C315.44 150.294 315.094 150.895 315.263 151.516L317.704 152.791L324.172 150.142Z" fill="#464666"/>
<path d="M328.851 163.514C329.533 160.413 331.162 155.541 331.196 152.372C331.206 151.419 329.901 152.098 329.395 151.336L325.729 152.354C329.045 153.791 328.207 161.662 327.522 163.974L328.851 163.514Z" fill="#464666"/>
<path d="M313.476 164.585C314.487 164.529 315.24 163.288 315.16 161.814C315.079 160.339 314.194 159.189 313.183 159.245C312.173 159.3 311.419 160.541 311.5 162.015C311.581 163.49 312.466 164.64 313.476 164.585Z" fill="#FFC7C7"/>
<path d="M330.811 163.879C331.22 162.46 330.763 161.082 329.79 160.801C328.818 160.52 327.698 161.442 327.29 162.861C326.881 164.28 327.338 165.658 328.31 165.939C329.283 166.22 330.402 165.298 330.811 163.879Z" fill="#FFC7C7"/>
<path d="M327.977 164.564C326.301 168.826 323.152 172.106 319.621 171.709C317.215 171.439 315.36 169.543 314.202 166.931C315.305 170.058 317.315 172.42 320.023 172.725C323.829 173.152 327.192 169.306 328.745 164.564H327.977Z" fill="#FFA6A6"/>
<path d="M328.314 165.935C329.286 166.216 330.405 165.294 330.814 163.875C330.26 164.437 329.928 164.564 328.745 164.564C328.43 164.564 328.128 165.245 327.944 165.76C328.057 165.838 328.18 165.897 328.314 165.935Z" fill="#FFA6A6"/>
<path d="M328.635 152.093C329.747 151.176 329.864 149.377 329.09 148.159C328.316 146.942 326.845 146.292 325.405 146.234C323.966 146.177 322.553 146.64 321.248 147.254C319.885 147.895 318.602 148.704 317.436 149.66C316.792 150.188 316.134 150.873 316.164 151.706L319.298 152.805L328.635 152.093Z" fill="#464666"/>
<path d="M329.211 154.798C330.473 154.533 331.31 153.153 331.201 151.866C331.091 150.578 330.193 149.452 329.075 148.808C327.957 148.164 326.643 147.945 325.354 147.889C324.007 147.831 322.653 147.942 321.333 148.215C320.604 148.367 319.797 148.637 319.477 149.311L320.854 152.273L329.211 154.798Z" fill="#464666"/>
<path d="M367.882 149.52C368.056 148.952 369.812 148.824 371.883 149.461C373.954 150.098 375.42 151.151 375.246 151.719C375.071 152.287 373.323 152.155 371.253 151.517C369.184 150.879 367.708 150.087 367.882 149.52Z" fill="#D80E0E"/>
<path d="M367.063 143.597C368.009 144.503 368.723 145.63 369.107 146.884C369.218 147.242 369.296 147.583 369.311 147.857C369.35 148.624 369.173 149.342 369.018 150.086C368.863 150.826 368.711 151.568 368.529 152.303C368.435 152.681 367.228 156.787 367.192 156.772C368.689 157.408 370.877 158.391 372.491 158.605C372.535 158.611 373.703 153.2 373.834 152.706C374.29 150.987 374.838 149.356 375.765 147.83C376.366 146.837 377.03 145.873 377.488 144.801C377.984 143.639 378.043 142.456 378.221 141.224C378.317 140.551 378.577 140.006 378.833 139.385C379.135 138.656 379.439 137.925 379.741 137.195C379.865 136.895 379.992 136.583 379.972 136.26C379.952 135.935 379.742 135.599 379.421 135.55C378.962 135.479 378.642 135.978 378.45 136.403C377.956 137.5 377.415 138.585 376.953 139.694C376.884 139.863 376.755 140.034 376.549 140.009C376.457 139.999 376.373 139.945 376.318 139.872C376.188 139.702 376.198 139.483 376.249 139.288C376.652 137.716 377.082 136.147 377.494 134.577C377.59 134.21 377.661 133.76 377.386 133.499C377.123 133.247 376.666 133.332 376.4 133.581C376.135 133.83 376.014 134.192 375.902 134.538C375.639 135.352 375.375 136.166 375.113 136.98C374.985 137.377 374.858 137.776 374.728 138.171C374.634 138.459 374.593 138.871 374.277 139.007C374.117 139.077 373.925 139.041 373.798 138.92C373.624 138.752 373.63 138.505 373.675 138.287C374.045 136.498 374.249 134.656 374.496 132.847C374.553 132.435 374.568 131.928 374.221 131.699C373.913 131.495 373.472 131.657 373.245 131.949C373.019 132.241 372.953 132.624 372.894 132.99C372.609 134.76 372.309 136.535 372.052 138.306C372.039 138.392 372.012 138.476 371.962 138.547C371.777 138.816 371.521 138.699 371.433 138.515C371.298 138.234 371.375 137.731 371.356 137.425C371.33 136.997 371.298 136.569 371.258 136.142C371.178 135.288 371.068 134.437 370.929 133.59C370.853 133.125 370.666 132.558 370.2 132.496C369.867 132.452 369.557 132.721 369.44 133.035C369.322 133.35 369.35 133.698 369.382 134.032C369.493 135.203 369.623 136.373 369.771 137.54C369.925 138.755 369.975 139.978 369.909 141.2C369.898 141.419 369.886 141.651 369.879 141.907C369.876 142.021 369.872 142.137 369.823 142.241C369.776 142.343 369.686 142.424 369.589 142.48C369.475 142.545 369.339 142.582 369.212 142.551C369.171 142.541 368.954 142.433 368.669 142.289C367.783 141.836 366.983 141.233 366.273 140.534C365.981 140.246 365.598 139.91 365.351 140.078C364.366 140.742 365.903 142.486 367.063 143.597Z" fill="#FFC7C7"/>
<path d="M331.012 182.67C331.07 185.905 332.162 189.054 333.702 191.898C334.291 192.985 334.826 194.241 335.518 195.264C344.901 192.574 354.943 188.857 363.928 185.057C365.694 184.31 367.696 182.226 368.377 180.431C373.77 166.218 373.571 161.106 375.246 151.718C372.657 151.645 370.089 150.878 367.882 149.519C364.115 157.985 363.224 163.385 358.68 173.11C358.474 173.552 357.994 173.8 357.514 173.711C356.786 173.576 355.946 173.432 355.469 173.729C355.041 173.993 354.584 174.606 354.088 174.677C353.664 174.737 353.325 174.523 352.901 174.459C352.321 174.373 351.905 174.948 351.505 175.376C350.602 176.344 341.063 176.631 339.275 176.564C337.555 176.499 330.957 179.677 331.012 182.67Z" fill="#FF3E3E"/>
<path d="M111.626 6.14071C111.632 6.29671 111.835 6.35957 111.935 6.2385L112.82 5.1582C114.071 3.63321 114.545 1.77295 114.319 0H110.837C111.89 2.15129 111.578 4.8369 111.626 6.14071Z" fill="#DBDBFF"/>
<path d="M278.513 0.676352L282.137 4.90559C282.192 4.96845 282.286 4.98475 282.359 4.94284L291.015 0H279.354L278.563 0.423738C278.467 0.473795 278.443 0.594863 278.513 0.676352Z" fill="#38B0FF"/>
<path d="M408.099 183.734L402.91 182.531C402.809 182.508 402.752 182.404 402.788 182.31L406.74 172.158C406.77 172.081 406.854 172.037 406.938 172.053L412.508 173.158C412.614 173.179 412.674 173.288 412.634 173.385L408.3 183.634C408.267 183.712 408.181 183.753 408.099 183.734Z" fill="#DBDBFF"/>
<path d="M132.989 54.6425C132.898 54.5552 132.932 54.4062 133.053 54.3654C135.206 53.6472 137.145 53.0977 139.433 53.6914C141.568 54.2443 143.792 60.5119 144.193 61.6877C144.227 61.7855 144.16 61.8891 144.055 61.9042C141.965 62.2046 139.373 63.1382 137.55 61.9159C135.104 60.2756 135.139 56.703 132.989 54.6425Z" fill="#FED801"/>
<path d="M514.145 221.499L518.079 217.705C518.156 217.63 518.148 217.508 518.063 217.444L508.821 210.494C508.752 210.442 508.652 210.445 508.587 210.505L504.258 214.413C504.176 214.487 504.184 214.615 504.275 214.681L513.91 221.516C513.982 221.566 514.081 221.559 514.145 221.499Z" fill="#38B0FF"/>
<path d="M100.673 149.815C100.573 149.937 100.37 149.873 100.364 149.717C100.309 148.232 100.722 144.955 99.051 142.716C97.3092 140.383 97.4858 138.372 97.487 137.441C97.487 137.309 97.6392 137.23 97.7542 137.302L99.8179 138.588C103.386 140.813 104.194 145.519 101.559 148.735L100.673 149.815Z" fill="#DBDBFF"/>
<path d="M6.00638 152.83C5.94363 152.85 5.8681 152.925 5.83905 153C5.63338 153.513 4.84903 155.472 4.84903 155.472C4.47254 156.414 3.84041 157.411 3.0549 158.304L0 161.776V162.56C1.71744 160.788 3.57315 159.019 4.78163 157.082C5.41376 156.07 7.06612 152.499 6.00638 152.83Z" fill="#38B0FF"/>
<path d="M286.603 222.869L281.169 221.722C281.063 221.7 280.961 221.772 280.95 221.876L279.878 233.133C279.87 233.218 279.927 233.297 280.014 233.318L285.761 234.723C285.87 234.75 285.978 234.674 285.985 234.565L286.745 223.049C286.75 222.963 286.691 222.886 286.603 222.869Z" fill="#DBDBFF"/>
<path d="M221.59 21.3848L218.314 26.7083C218.272 26.777 218.286 26.8643 218.347 26.9179L223.207 31.1413C223.287 31.2111 223.414 31.1937 223.471 31.104L226.712 26.0168C226.755 25.9493 226.743 25.8632 226.684 25.8085L221.859 21.3499C221.778 21.2742 221.647 21.2917 221.59 21.3848Z" fill="#DBDBFF"/>
<path d="M43.3306 101.002L46.5935 96.929C46.6574 96.8498 46.6342 96.7346 46.5447 96.6834L36.8711 91.1608C36.7979 91.1189 36.7037 91.1352 36.6491 91.1981L33.0248 95.4273C32.9563 95.5076 32.9795 95.6287 33.0748 95.6799L43.1098 101.046C43.1842 101.086 43.2783 101.067 43.3306 101.002Z" fill="#DBDBFF"/>
<path d="M196.934 95.2573L202.42 92.0467C202.491 92.0059 202.582 92.0176 202.638 92.077L207.061 96.7264C207.134 96.8033 207.117 96.9255 207.025 96.9814L201.782 100.155C201.714 100.197 201.623 100.186 201.566 100.13L196.9 95.5181C196.822 95.4401 196.839 95.3132 196.934 95.2573Z" fill="#FF3E3E"/>
<path d="M541.724 31.2484L544.987 35.3216C545.051 35.4008 545.028 35.516 544.938 35.5672L535.265 41.0898C535.191 41.1317 535.097 41.1154 535.043 41.0526L531.418 36.8245C531.35 36.7442 531.373 36.6231 531.468 36.5719L541.502 31.2041C541.579 31.1646 541.672 31.1832 541.724 31.2484Z" fill="#DBDBFF"/>
<path d="M580.998 80.7455L574.197 82.1936C574.083 82.2181 574.022 82.338 574.072 82.4392L576.954 88.2622C576.991 88.3367 577.078 88.3762 577.161 88.3564L580.999 87.4193V80.7455C580.999 80.7455 580.999 80.7455 580.998 80.7455Z" fill="#DBDBFF"/>
<path d="M427.435 78.955L431.369 75.1612C431.446 75.0867 431.438 74.9644 431.353 74.9004L422.111 67.9507C422.042 67.8983 421.942 67.9018 421.877 67.9611L417.548 71.8691C417.466 71.9436 417.474 72.0716 417.565 72.1368L427.2 78.9725C427.272 79.0226 427.372 79.0156 427.435 78.955Z" fill="#DBDBFF"/>
<path d="M51.0306 32.2705C51.0213 32.1156 51.2177 32.033 51.3292 32.1459C52.3913 33.2227 54.3365 35.9386 57.1253 36.5451C60.0326 37.176 61.2829 38.7942 61.9232 39.4915C62.0138 39.5904 61.9546 39.7464 61.8198 39.7674L59.3912 40.1259C55.1917 40.7452 51.3513 37.7406 51.1131 33.6476L51.0306 32.2705Z" fill="#38B0FF"/>
<path d="M339.735 114.292L336.46 108.968C336.418 108.9 336.432 108.812 336.492 108.759L341.353 104.535C341.433 104.465 341.56 104.483 341.617 104.573L344.857 109.66C344.9 109.727 344.889 109.813 344.829 109.868L340.005 114.327C339.924 114.401 339.792 114.384 339.735 114.292Z" fill="#38B0FF"/>
<path d="M246.428 131.239C246.338 131.152 246.372 131.003 246.492 130.962C248.646 130.244 250.585 129.694 252.873 130.288C255.008 130.841 257.232 137.108 257.632 138.284C257.666 138.382 257.6 138.486 257.494 138.501C255.405 138.801 252.812 139.735 250.989 138.512C248.542 136.871 248.578 133.299 246.428 131.239Z" fill="#DBDBFF"/>
<path d="M5.41492 275.815C6.84186 273.155 5.00706 269.879 5.94944 266.97C5.98895 266.847 5.88321 266.726 5.75074 266.746C3.60452 267.065 1.69536 267.43 0 268.729V278.674C1.99748 278.076 4.44814 277.617 5.41492 275.815Z" fill="#DBDBFF"/>
<path d="M358.039 39.311C357.819 39.1422 357.59 38.9734 357.368 38.8058C357.345 38.7883 357.316 38.772 357.285 38.7604L350.992 36.3204C349.866 35.8839 348.825 35.2855 348.037 34.622C348.037 34.622 346.397 33.2402 345.967 32.8793C345.904 32.8269 345.802 32.7931 345.737 32.8048C344.639 32.9876 347.826 35.4043 348.873 36.0154C351.479 37.5369 354.917 38.3146 357.839 39.46C358.078 39.5532 358.219 39.4496 358.039 39.311Z" fill="#FF3E3E"/>
<path d="M506.338 69.2055C506.33 69.0507 506.126 68.9879 506.028 69.1113C505.09 70.2893 503.454 73.1903 500.746 74.0762C497.925 75.0005 496.858 76.7374 496.298 77.4952C496.218 77.6035 496.295 77.7525 496.432 77.7583L498.886 77.8666C503.131 78.054 506.619 74.6734 506.408 70.5804L506.338 69.2055Z" fill="#FED801"/>
<path d="M575.941 233.062C575.834 232.936 575.624 233.007 575.621 233.17L575.596 234.606C575.535 237.973 577.855 240.802 581.001 241.688V237.844C578.502 236.796 576.883 234.17 575.941 233.062Z" fill="#FED801"/>
<path d="M534.885 291.069L541.465 292.225C541.55 292.24 541.612 292.31 541.614 292.393L541.732 298.971C541.735 299.079 541.634 299.164 541.522 299.145L535.158 298.124C535.074 298.11 535.011 298.043 535.007 297.961L534.672 291.25C534.666 291.136 534.771 291.048 534.885 291.069Z" fill="#FF3E3E"/>
<path d="M548.072 149.987L550.954 144.164C550.991 144.09 551.078 144.05 551.161 144.07L557.771 145.684C557.881 145.711 557.939 145.827 557.891 145.925L555.2 151.583C555.165 151.658 555.08 151.698 554.997 151.681L548.195 150.233C548.084 150.208 548.022 150.088 548.072 149.987Z" fill="#DBDBFF"/>
<path d="M302.259 78.3602L305.522 74.2869C305.586 74.2078 305.563 74.0925 305.473 74.0413L295.8 68.5187C295.727 68.4768 295.632 68.4931 295.578 68.556L291.954 72.7852C291.885 72.8655 291.908 72.9866 292.004 73.0378L302.037 78.4056C302.113 78.444 302.207 78.4254 302.259 78.3602Z" fill="#DBDBFF"/>
<path d="M185.407 264.37L189.338 269.262C189.389 269.325 189.478 269.345 189.552 269.31L195.407 266.498C195.503 266.451 195.534 266.331 195.468 266.247L191.751 261.473C191.702 261.41 191.614 261.389 191.541 261.422L185.472 264.117C185.369 264.16 185.338 264.285 185.407 264.37Z" fill="#DBDBFF"/>
<path d="M448.486 275.765L444.024 272.941C443.937 272.886 443.919 272.77 443.986 272.693L451.265 264.429C451.32 264.366 451.415 264.352 451.487 264.394L456.342 267.252C456.435 267.307 456.454 267.429 456.38 267.507L448.709 275.738C448.652 275.799 448.558 275.811 448.486 275.765Z" fill="#DBDBFF"/>
<path d="M57.8714 195.267C57.9609 195.17 57.9167 195.017 57.7877 194.982C55.5032 194.357 53.4523 193.894 51.1062 194.64C48.9182 195.336 46.9823 201.985 46.6372 203.23C46.6081 203.334 46.6825 203.437 46.794 203.448C48.9867 203.644 51.7418 204.469 53.565 203.093C56.011 201.248 55.7577 197.532 57.8714 195.267Z" fill="#FF3E3E"/>
<path d="M92.7939 290.296L89.5182 295.619C89.4764 295.688 89.4903 295.775 89.5507 295.829L94.4114 300.052C94.4915 300.122 94.6182 300.105 94.6751 300.015L97.916 294.928C97.959 294.86 97.9473 294.774 97.8881 294.719L93.0634 290.261C92.9821 290.186 92.8508 290.204 92.7939 290.296Z" fill="#38B0FF"/>
<path d="M367.796 286.302C367.8 286.14 368.009 286.069 368.116 286.193C369.134 287.391 370.941 290.359 373.792 291.194C376.765 292.065 377.936 293.841 378.546 294.612C378.633 294.722 378.559 294.88 378.416 294.891L375.862 295.083C371.446 295.416 367.693 292.008 367.77 287.736L367.796 286.302Z" fill="#FED801"/>
<path d="M515.63 5.09418L521.377 6.49927C521.486 6.52604 521.594 6.45037 521.601 6.34095L522.02 -0.00115967H515.962L515.495 4.90908C515.486 4.99523 515.544 5.07322 515.63 5.09418Z" fill="#FF3E3E"/>
<path d="M416.615 14.7133L422.1 11.5026C422.171 11.4619 422.262 11.4735 422.318 11.5329L426.741 16.1824C426.815 16.2592 426.797 16.3814 426.705 16.4373L421.462 19.6107C421.394 19.6526 421.303 19.6421 421.246 19.5862L416.58 14.974C416.503 14.896 416.519 14.7691 416.615 14.7133Z" fill="#DBDBFF"/>
<path d="M395.454 96.0128C394.985 97.4191 394.775 98.9243 395.052 100.381C395.131 100.797 395.232 101.18 395.362 101.461C395.727 102.249 396.283 102.873 396.831 103.534C397.376 104.193 397.918 104.853 398.489 105.492C398.782 105.821 402.155 109.287 402.183 109.253C401.022 110.683 399.352 112.824 397.852 113.892C397.811 113.922 393.789 109.13 393.397 108.705C392.034 107.228 390.626 105.887 388.894 104.851C387.768 104.177 384.514 101.327 383.685 100.187C383.233 99.5657 382.687 99.1583 382.102 98.674C381.414 98.1036 380.338 97.0943 379.652 96.525C379.369 96.2922 379.079 95.9721 378.928 95.6391C378.776 95.305 378.809 94.8557 379.103 94.638C379.524 94.3237 380.108 94.7288 380.524 95.0513C381.597 95.8859 382.366 96.4808 383.412 97.3469C383.571 97.4784 383.79 97.5821 383.982 97.4482C384.068 97.3888 384.124 97.2922 384.142 97.1886C384.182 96.9499 384.056 96.7369 383.902 96.5669C382.671 95.2084 381.002 93.0408 379.762 91.687C379.473 91.3703 379.165 90.9594 379.302 90.552C379.432 90.162 379.934 90.0048 380.33 90.1131C380.727 90.2225 381.449 91.3471 381.743 91.6334C382.436 92.3074 383.128 92.9826 383.821 93.6567C384.159 93.9861 384.495 94.3167 384.834 94.6438C385.081 94.8813 385.339 95.2713 385.725 95.241C385.923 95.2259 386.095 95.0874 386.158 94.8999C386.244 94.6403 386.107 94.397 385.946 94.2015C384.633 92.6101 382.974 90.2202 381.772 88.5415C381.498 88.1585 381.216 87.6615 381.441 87.2482C381.641 86.8815 382.169 86.8093 382.549 86.9816C382.93 87.1539 383.197 87.502 383.448 87.8361C384.668 89.4554 386.387 91.7242 387.579 93.3598C387.637 93.439 387.708 93.5088 387.795 93.5531C388.123 93.7242 388.317 93.4704 388.307 93.2399C388.295 92.8872 388.045 92.4262 387.901 92.1095C387.7 91.6683 387.507 91.2237 387.321 90.7743C386.95 89.8779 386.611 88.9688 386.304 88.0479C386.135 87.5415 385.931 86.8757 386.366 86.5672C386.675 86.346 387.127 86.4519 387.41 86.7034C387.694 86.9548 387.848 87.318 387.994 87.6684C388.5 88.8989 388.988 90.1375 389.456 91.3831C389.765 92.2085 390.14 93.0059 390.543 93.7894C390.889 94.4611 391.225 95.1979 391.733 95.7602C392.101 96.1688 392.552 96.0978 392.86 95.6741C393.593 94.6659 394.065 92.7952 394.442 91.6066C394.582 91.1631 394.972 90.7173 395.306 90.7534C396.642 90.9024 396.028 94.2853 395.454 96.0128Z" fill="#FFC7C7"/>
<path d="M466.802 197.318C466.954 198.985 457.915 198.693 449.005 199.51C440.095 200.327 431.427 201.431 431.621 199.768C431.748 198.686 440.986 191.4 449.896 190.583C458.806 189.766 466.65 195.651 466.802 197.318Z" fill="#245AD9"/>
<path d="M412.24 227.039C413.46 227.807 414.774 227.877 416.035 227.828C417.721 227.763 422.342 227.621 424.921 228.195C425.294 228.277 425.685 228.171 425.953 227.897C427.963 225.827 430.394 226.361 431.262 226.907C431.657 227.156 432.115 226.851 432.043 226.373C432.023 226.239 431.99 226.105 431.948 225.975C431.881 225.777 431.282 222.544 430.877 220.342C430.681 219.272 429.581 218.627 428.552 218.978L411.269 224.9C411.269 224.901 411.496 226.571 412.24 227.039Z" fill="#212236"/>
<path d="M437.334 228.978C454.486 230.727 463.646 245.148 463.646 245.148L462.618 256.26L434.492 235.541C434.492 235.54 434.906 228.73 437.334 228.978Z" fill="#29293D"/>
<path d="M446.582 197.15C447.374 207.341 448.485 217.541 450.485 227.572C452.213 236.24 454.397 248.559 461.009 255.046C462.129 256.146 463.607 256.965 465.176 256.977C467.598 256.997 469.694 255.075 470.646 252.845C472.878 247.613 472.038 239.956 471.631 234.411C471.11 227.308 469.93 220.245 468.227 213.331C466.76 207.371 463.751 191.367 458.321 188.737C454.099 186.692 446.216 192.448 446.582 197.15Z" fill="#464666"/>
<path d="M398.531 221.423L388.73 214.514L385.041 216.941L393.632 227.893C395.779 228.904 398.456 231.373 400.5 232.084L404.837 235.131C407.175 235.944 409.062 233.11 407.414 231.259L398.531 221.423Z" fill="#FFC7C7"/>
<path d="M389.436 224.303C387.9 222.509 391.937 216.741 394.274 217.832C410.062 224.227 426.329 242.523 426.329 242.523L420.365 256.138C420.364 256.138 400.797 238.421 389.436 224.303Z" fill="#29293D"/>
<path d="M372.941 219.112C374.242 219.732 375.557 219.647 376.802 219.45C378.468 219.187 383.042 218.502 385.671 218.769C386.051 218.807 386.428 218.656 386.659 218.352C388.413 216.06 390.89 216.304 391.816 216.744C392.238 216.945 392.658 216.588 392.53 216.123C392.494 215.992 392.447 215.863 392.388 215.739C392.3 215.55 391.325 212.41 390.665 210.271C390.344 209.231 389.176 208.72 388.197 209.191L371.727 217.104C371.725 217.104 372.147 218.735 372.941 219.112Z" fill="#212236"/>
<path d="M436.823 196.113C427.053 211.055 418.819 235.731 418.573 251.096C418.451 258.721 425.863 258.53 429.145 254.934C429.145 254.934 442.934 235.872 448.76 222.281C451.205 216.579 457.996 200.77 454.784 195.464C452.288 191.339 439.462 192.077 436.823 196.113Z" fill="#464666"/>
<path d="M465.734 203.092C459.553 198.629 435.379 200.886 433.457 201.746C434.123 200.428 435.093 198.073 435.816 196.967C437.411 194.526 443.744 192.343 448.254 192.661C450.737 189.544 456.159 187.261 459.078 188.674C462.031 190.103 464.073 197.521 465.734 203.092Z" fill="#29293D"/>
<path d="M434.978 198.514C436.983 193.366 439.541 185.701 439.541 185.701L462.616 188.621C462.616 188.621 463.603 193.884 464.282 198.291C456.798 195.008 445.539 194.769 434.978 198.514Z" fill="#FFA6A6"/>
<path d="M450.185 146.864L445.663 133.906L439.366 133.489L436.254 135.278C436.254 135.278 439.445 143.141 439.709 146.43C439.915 149.019 450.185 146.864 450.185 146.864Z" fill="#FFA6A6"/>
<path d="M432.59 112.889C432.404 112.094 435.735 111.668 438.621 113.288C441.53 114.922 442.749 117.11 444.086 120.169L444.755 122.066C444.47 122.294 444.15 121.779 444.004 121.444C443.502 120.299 443.017 119.379 442.323 118.65C442.092 118.407 441.419 118.225 441.032 118.179C438.054 117.813 432.163 121.8 431.116 124.293C431.032 124.491 431.015 124.711 431.06 124.92C431.376 126.364 433.307 128.33 434.39 129.339C434.792 129.714 434.82 130.341 434.455 130.752L433.209 132.157L428.25 127.146C427.107 125.91 426.82 124.105 427.524 122.574C428.922 119.536 433.375 116.248 432.59 112.889Z" fill="#5B5B7C"/>
<path d="M446.109 127.364C447.236 127.334 448.116 126.063 448.076 124.525C448.035 122.987 447.089 121.764 445.963 121.794C444.836 121.824 443.956 123.095 443.996 124.633C444.036 126.171 444.982 127.394 446.109 127.364Z" fill="#FFC7C7"/>
<path d="M444.046 120.435C440.721 114.374 432.777 118.619 430.997 123.424C429.401 127.734 433.564 133.57 436.696 136.5C440.113 139.697 445.25 140.456 447.097 135.53C448.856 130.839 446.393 124.711 444.046 120.435Z" fill="#FFC7C7"/>
<path d="M431.239 122.913C430.205 125.654 432.028 128.212 433.523 129.734C433.803 130.019 434.738 129.984 434.503 129.662C432.907 127.467 432.397 126.179 432.246 125.007C432.218 124.79 432.257 124.566 432.36 124.367C433.651 121.877 439.584 118.525 442.58 119.046C442.968 119.114 443.22 119.309 443.371 119.671C444.369 122.07 444.954 121.349 444.218 119.995C440.915 113.911 433.072 118.054 431.239 122.913Z" fill="#FFA6A6"/>
<path d="M433.838 113.125C433.706 112.32 437.059 112.124 439.827 113.94C442.615 115.77 443.681 118.037 444.806 121.182L445.344 123.119C445.043 123.328 444.759 122.792 444.636 122.448C444.214 121.271 443.795 120.32 443.152 119.544C442.937 119.286 442.28 119.059 441.897 118.984C438.95 118.415 432.8 121.987 431.585 124.401C431.488 124.593 431.454 124.811 431.486 125.024C431.702 126.486 433.494 128.58 434.505 129.662C434.88 130.063 434.865 130.692 434.473 131.076L433.132 132.391L428.531 127.051C427.475 125.739 427.313 123.919 428.121 122.441C429.722 119.504 434.39 116.529 433.838 113.125Z" fill="#464666"/>
<path d="M435.326 133.788C435.936 132.834 435.352 131.368 434.021 130.512C432.689 129.656 431.115 129.735 430.504 130.689C429.893 131.642 430.478 133.109 431.809 133.965C433.141 134.821 434.715 134.741 435.326 133.788Z" fill="#FFC7C7"/>
<path d="M479.646 160.529C480.994 156.957 480.281 155.702 479.687 151.929C479.565 151.157 479.276 150.497 478.426 150.531C477.715 150.559 477.384 151.206 477.506 151.98C478.066 155.543 478.3 156.341 475.697 159.753C475.221 160.377 477.241 161.441 477.925 161.6C478.762 161.797 479.646 160.529 479.646 160.529Z" fill="#FFC7C7"/>
<path d="M470.188 161.659L484.399 156.546L486.4 164.195L471.466 167.089L470.188 161.659Z" fill="#FFC7C7"/>
<path d="M486.359 161.57C486.631 161.221 486.609 160.615 486.211 160.42L486.21 160.386C485.815 160.29 485.414 160.217 485.011 160.167C485.102 160.131 485.192 160.093 485.282 160.051C485.553 159.926 485.83 159.767 485.977 159.505C486.123 159.243 486.082 158.856 485.82 158.711C485.82 158.711 485.7 158.645 485.649 158.617C485.212 158.522 484.77 158.45 484.326 158.4C484.452 158.334 484.57 158.258 484.674 158.16C484.893 157.954 485.034 157.636 484.948 157.348C484.825 156.937 484.335 156.779 483.912 156.714C482.551 156.508 481.143 156.634 479.84 157.079C479.764 157.104 479.688 157.135 479.612 157.17C479.266 157.33 478.946 157.589 478.977 157.951C479.014 158.398 479.534 158.582 479.998 158.634C479.84 158.685 479.689 158.752 479.552 158.846C479.258 159.047 479.042 159.4 479.099 159.753C479.125 159.915 479.207 160.06 479.319 160.181C479.421 160.288 479.546 160.376 479.68 160.437C479.918 160.547 480.18 160.586 480.442 160.611C480.426 160.617 480.409 160.621 480.393 160.626C480.106 160.723 479.813 160.837 479.597 161.05C479.381 161.263 479.26 161.599 479.378 161.879C479.525 162.228 479.954 162.345 480.329 162.402C481.105 162.52 481.892 162.562 482.676 162.532C482.361 162.601 482.05 162.684 481.744 162.785C481.298 162.932 480.787 163.215 480.783 163.685C480.78 164.168 481.317 164.458 481.786 164.572C481.794 164.575 481.801 164.576 481.81 164.578C482.779 164.81 483.811 164.768 484.758 164.459C485.118 164.342 485.474 164.181 485.741 163.911C486.007 163.641 486.167 163.243 486.076 162.875C485.982 162.49 485.562 162.186 485.179 162.313C484.988 162.305 484.796 162.303 484.605 162.307C484.808 162.267 485.007 162.222 485.207 162.173C485.636 162.067 486.087 161.918 486.359 161.57Z" fill="#FFA6A6"/>
<path d="M482.861 164.535C483.83 164.767 484.862 164.725 485.809 164.416C486.169 164.299 486.526 164.138 486.792 163.868C487.058 163.598 487.219 163.2 487.128 162.832C487.034 162.447 486.613 162.143 486.231 162.27C485.07 162.218 483.9 162.38 482.796 162.742C482.35 162.889 481.838 163.172 481.835 163.642C481.831 164.125 482.368 164.415 482.838 164.529C482.846 164.532 482.853 164.533 482.861 164.535Z" fill="#FFC7C7"/>
<path d="M487.127 160.301C485.217 159.833 483.174 159.918 481.31 160.543C481.023 160.64 480.731 160.754 480.514 160.967C480.298 161.18 480.177 161.516 480.295 161.796C480.442 162.145 480.871 162.263 481.246 162.32C482.866 162.565 484.534 162.486 486.123 162.089C486.552 161.982 487.004 161.833 487.276 161.485C487.548 161.136 487.526 160.53 487.129 160.335" fill="#FFC7C7"/>
<path d="M480.051 160.116C480.152 160.223 480.278 160.31 480.411 160.372C480.694 160.501 481.011 160.534 481.321 160.558C482.91 160.684 484.566 160.649 486.015 159.985C486.286 159.86 486.563 159.7 486.709 159.439C486.856 159.177 486.815 158.79 486.553 158.645C486.553 158.645 486.433 158.578 486.382 158.55C484.714 158.188 482.972 158.151 481.288 158.441C480.937 158.501 480.578 158.581 480.284 158.782C479.99 158.983 479.773 159.336 479.83 159.689C479.857 159.851 479.938 159.996 480.051 160.116Z" fill="#FFC7C7"/>
<path d="M480.62 157.079C480.274 157.24 479.954 157.498 479.984 157.86C480.025 158.35 480.647 158.525 481.137 158.556C482.457 158.641 483.785 158.596 485.097 158.422C485.309 158.331 485.514 158.226 485.682 158.068C485.901 157.862 486.042 157.545 485.956 157.256C485.833 156.845 485.342 156.687 484.919 156.623C483.559 156.416 482.15 156.542 480.848 156.987C480.773 157.013 480.696 157.043 480.62 157.079Z" fill="#FFC7C7"/>
<path d="M461.756 160.905C461.756 160.905 468.838 159.912 473.028 159.068C474.927 160.298 476.532 165.873 475.372 167.816C472.015 169.663 462.661 170.801 462.661 170.801L461.756 160.905Z" fill="#245AD9"/>
<path d="M390.687 109.162C390.858 106.613 395.805 102.335 398.352 102.424C407.403 111.241 413.644 118.121 419.117 123.031C424.211 127.602 434.237 138.682 440.696 140.083C444.536 140.916 440.347 155.093 440.347 155.093C440.347 155.093 430.727 163.899 429.81 161.017C425.129 146.303 399.87 120.604 390.687 109.162Z" fill="#377DFF"/>
<path d="M440.695 140.083C434.934 138.856 429.81 161.017 429.81 161.017C429.81 161.017 435.198 187.574 431.622 199.768C432.61 197.583 441.485 192.713 449.901 192.692C458.848 192.671 466.651 195.651 466.803 197.318C469.809 171.476 459.769 144.144 440.695 140.083Z" fill="#377DFF"/>
</g>
<defs>
<clipPath id="clip0_138_3849">
<rect width="581" height="388" fill="white"/>
</clipPath>
</defs>
</svg>
