<svg width="53" height="53" viewBox="0 0 53 53" fill="none" xmlns="http://www.w3.org/2000/svg">
<rect opacity="0.1" width="53" height="53" rx="4" fill="#377DFF"/>
<g clip-path="url(#clip0_48_668)">
<path d="M36.5923 18.8877C35.3866 18.4735 34.4207 17.5021 34.0084 16.2892C33.7462 15.518 33.0242 15 32.2115 15H21.7416C20.9291 15 20.207 15.518 19.9448 16.2892C19.5324 17.5021 18.5665 18.4735 17.3608 18.8877C16.5936 19.1514 16.0781 19.8755 16.0781 20.6898V23.3384C16.0781 26.7947 17.1138 30.1227 19.0732 32.9626C20.866 35.5611 23.3364 37.5945 26.2178 38.8433C26.4589 38.9478 26.7177 39 26.9766 39C27.2353 39 27.494 38.9478 27.7352 38.8433C30.6165 37.5947 33.087 35.5611 34.8798 32.9626C36.8392 30.1227 37.875 26.7946 37.875 23.3384V20.6898C37.875 19.8755 37.3596 19.1514 36.5923 18.8877ZM36.4688 23.3384C36.4688 26.508 35.519 29.5598 33.7222 32.1641C32.0792 34.5456 29.8154 36.4091 27.176 37.5529C27.0494 37.6078 26.9039 37.608 26.777 37.5529C24.1373 36.4091 21.8738 34.5456 20.2308 32.1641C18.4341 29.56 17.4844 26.5082 17.4844 23.3384V20.6898C17.4844 20.476 17.6184 20.2863 17.8178 20.2178C19.4319 19.6631 20.7248 18.3638 21.2761 16.7419C21.3444 16.5412 21.5314 16.4062 21.7416 16.4062H32.2115C32.4216 16.4062 32.6087 16.5412 32.677 16.7419C33.2283 18.3638 34.5212 19.6631 36.1353 20.2178C36.3347 20.2863 36.4688 20.476 36.4688 20.6898V23.3384Z" fill="#377DFF"/>
<path d="M29.9643 24.1165H29.9165V22.114C29.9165 20.493 28.5976 19.1741 26.9766 19.1741C25.3555 19.1741 24.0366 20.493 24.0366 22.114V24.1165H23.9888C23.0552 24.1165 22.2957 24.8762 22.2957 25.8098V29.8564C22.2957 31.5952 23.7103 33.0101 25.4489 33.0101H28.5042C30.243 33.0101 31.6575 31.5952 31.6575 29.8564V25.8098C31.6575 24.8762 30.8979 24.1165 29.9643 24.1165ZM25.4429 22.114C25.4429 21.2684 26.131 20.5803 26.9766 20.5803C27.8221 20.5803 28.5103 21.2684 28.5103 22.114V24.1166H25.4429V22.114ZM30.2512 29.8564C30.2512 30.8199 29.4675 31.6036 28.5042 31.6036H25.4489C24.4856 31.6036 23.7019 30.8199 23.7019 29.8564V25.8098C23.7019 25.6516 23.8306 25.5229 23.9888 25.5229H29.9643C30.1225 25.5229 30.2512 25.6516 30.2512 25.8098V29.8564Z" fill="#377DFF"/>
<path d="M26.9766 27.1958C26.5882 27.1958 26.2734 27.5106 26.2734 27.8989V29.2274C26.2734 29.6157 26.5882 29.9305 26.9766 29.9305C27.3649 29.9305 27.6797 29.6157 27.6797 29.2274V27.8989C27.6797 27.5106 27.3649 27.1958 26.9766 27.1958Z" fill="#377DFF"/>
</g>
<defs>
<clipPath id="clip0_48_668">
<rect width="24" height="24" fill="white" transform="translate(15 15)"/>
</clipPath>
</defs>
</svg>
