<svg width="50" height="50" viewBox="0 0 50 50" fill="none" xmlns="http://www.w3.org/2000/svg">
<circle cx="25" cy="25" r="25" fill="#377DFF"/>
<path d="M20 30H20.01M20 34C18.9391 34 17.9217 33.5786 17.1716 32.8284C16.4214 32.0783 16 31.0609 16 30V18C16 17.4696 16.2107 16.9609 16.5858 16.5858C16.9609 16.2107 17.4696 16 18 16H22C22.5304 16 23.0391 16.2107 23.4142 16.5858C23.7893 16.9609 24 17.4696 24 18V30C24 31.0609 23.5786 32.0783 22.8284 32.8284C22.0783 33.5786 21.0609 34 20 34V34ZM20 34H32C32.5304 34 33.0391 33.7893 33.4142 33.4142C33.7893 33.0391 34 32.5304 34 32V28C34 27.4696 33.7893 26.9609 33.4142 26.5858C33.0391 26.2107 32.5304 26 32 26H29.657L20 34ZM24 20.343L25.657 18.686C26.0321 18.3111 26.5407 18.1004 27.071 18.1004C27.6013 18.1004 28.1099 18.3111 28.485 18.686L31.314 21.515C31.6889 21.8901 31.8996 22.3987 31.8996 22.929C31.8996 23.4593 31.6889 23.9679 31.314 24.343L22.828 32.828L24 20.343Z" stroke="white" stroke-width="2" stroke-linecap="round" stroke-linejoin="round"/>
</svg>
