<svg width="40" height="40" viewBox="0 0 40 40" fill="none" xmlns="http://www.w3.org/2000/svg">
<rect opacity="0.1" width="40" height="40" rx="4" fill="#377DFF"/>
<path d="M16 26H16.01M16 30C14.9391 30 13.9217 29.5786 13.1716 28.8284C12.4214 28.0783 12 27.0609 12 26V14C12 13.4696 12.2107 12.9609 12.5858 12.5858C12.9609 12.2107 13.4696 12 14 12H18C18.5304 12 19.0391 12.2107 19.4142 12.5858C19.7893 12.9609 20 13.4696 20 14V26C20 27.0609 19.5786 28.0783 18.8284 28.8284C18.0783 29.5786 17.0609 30 16 30V30ZM16 30H28C28.5304 30 29.0391 29.7893 29.4142 29.4142C29.7893 29.0391 30 28.5304 30 28V24C30 23.4696 29.7893 22.9609 29.4142 22.5858C29.0391 22.2107 28.5304 22 28 22H25.657L16 30ZM20 16.343L21.657 14.686C22.0321 14.3111 22.5407 14.1004 23.071 14.1004C23.6013 14.1004 24.1099 14.3111 24.485 14.686L27.314 17.515C27.6889 17.8901 27.8996 18.3987 27.8996 18.929C27.8996 19.4593 27.6889 19.9679 27.314 20.343L18.828 28.828L20 16.343Z" stroke="#377DFF" stroke-width="2" stroke-linecap="round" stroke-linejoin="round"/>
</svg>
