<svg xmlns="http://www.w3.org/2000/svg" width="24" height="24" viewBox="0 0 24 24" fill="none">
  <path d="M15.9913 15.9967C15.6012 17.1366 14.9034 18.06 14.0455 18.8916C12.9532 19.9483 11.891 21.0362 10.8143 22.1085C9.75137 23.1664 8.48275 23.7935 6.99029 23.9555C6.95778 23.9586 6.92777 23.9649 6.91902 24.0005H6.49635C6.32694 23.9624 6.15118 23.9624 5.98178 24.0005H5.65415C5.35591 23.938 5.05516 23.8848 4.76005 23.8098C3.66244 23.5406 2.66153 22.971 1.86954 22.1648C1.80702 22.0616 1.88893 22.0041 1.94395 21.9484C2.6709 21.2148 3.40035 20.4835 4.1323 19.7545C4.19483 19.6919 4.25735 19.6388 4.35677 19.6538C4.66126 19.8376 4.92886 20.079 5.27212 20.2059C6.40256 20.6248 7.41108 20.4116 8.26516 19.5806C9.39561 18.4846 10.4948 17.356 11.6071 16.2418C11.6972 16.1445 11.7946 16.0542 11.8985 15.9717C12.3932 15.4953 12.6918 14.8511 12.7356 14.1657C12.7795 13.4803 12.5654 12.8033 12.1354 12.2678C12.0722 12.1983 12.0235 12.1169 11.9922 12.0283C11.9822 11.9101 12.0685 11.8457 12.1386 11.7782C12.8363 11.0767 13.5354 10.3764 14.2356 9.6774C14.3113 9.60112 14.3832 9.51108 14.5114 9.52921C14.7177 9.61612 14.8209 9.81307 14.949 9.97251C15.4377 10.5642 15.8061 11.2455 16.0338 11.9783C16.4296 13.1934 16.459 14.4981 16.1182 15.7298C16.1001 15.8284 16.0563 15.9204 15.9913 15.9967Z" fill="#384949"/>
  <path d="M7.95079 8.01063C8.30843 7.04775 8.82175 6.18492 9.56267 5.46463C10.0047 5.03509 10.438 4.59492 10.8719 4.15912C11.6222 3.40883 12.3725 2.65854 13.1228 1.90825C14.1782 0.84533 15.4443 0.223212 16.9293 0.0468933C16.9668 0.0425166 17.0087 0.0468933 17.0256 0H17.4464C17.5997 0.0400168 17.7607 0.0400168 17.9141 0H18.2417C18.7824 0.035256 19.3154 0.146821 19.8248 0.33138C20.6015 0.611861 21.3137 1.0461 21.9187 1.60813C21.9998 1.66932 22.0632 1.75086 22.1026 1.84447C22.1157 1.94263 22.0507 2.00328 21.9906 2.06331C21.2566 2.80151 20.5213 3.53847 19.7848 4.27417C19.7458 4.3232 19.6928 4.35918 19.6329 4.37734C19.4647 4.33607 19.3652 4.19476 19.2371 4.09785C18.2148 3.32442 16.6654 3.44385 15.7745 4.31981C14.5177 5.55404 13.2791 6.80703 12.0399 8.06002C11.017 8.97163 10.952 10.7998 11.8917 11.8115C11.9385 11.8531 11.9731 11.9067 11.9917 11.9665C12.0086 12.0653 11.948 12.1279 11.8873 12.1885C11.102 12.9751 10.3211 13.7654 9.53078 14.5469C9.31757 14.4375 9.18689 14.2412 9.03871 14.0667C8.52038 13.4546 8.15712 12.7537 7.89264 11.9991C7.51831 10.8239 7.48278 9.56706 7.7901 8.37265C7.81188 8.24023 7.8672 8.1156 7.95079 8.01063Z" fill="#FED300"/>
  <path d="M19.6422 4.35935C20.243 3.75098 20.8452 3.14387 21.4429 2.53176C21.6592 2.3098 21.9006 2.11097 22.0856 1.85899C22.1688 1.83023 22.2163 1.88525 22.2651 1.93652C23.0907 2.79932 23.6531 3.87969 23.8863 5.05087C23.9282 5.2547 23.9045 5.4679 23.9489 5.67611V7.03539C23.8738 7.36427 23.8076 7.69565 23.7225 8.02203C23.4785 9.00149 22.9805 9.89929 22.2788 10.6249C20.9383 11.9975 19.5801 13.3522 18.2041 14.689C17.5791 15.2914 16.8211 15.7382 15.9914 15.9933C16.0639 15.5737 16.1965 15.1673 16.2415 14.7397C16.3407 13.8715 16.2657 12.9924 16.0208 12.1536C16.0008 12.0867 15.9864 12.0186 15.9689 11.9511C15.9895 11.826 16.087 11.7529 16.169 11.671C17.3023 10.5343 18.4363 9.39777 19.5709 8.2615C20.0393 7.79363 20.3226 7.17212 20.3686 6.51167C20.4146 5.85123 20.2201 5.19646 19.821 4.66822C19.7516 4.57756 19.6266 4.50565 19.6422 4.35935Z" fill="#FE9E00"/>
  <path d="M5.98376 24.0006C6.06435 23.963 6.15216 23.9436 6.24105 23.9436C6.32994 23.9436 6.41776 23.963 6.49834 24.0006H5.98376Z" fill="#415354"/>
  <path d="M17.9134 0.000488281C17.8408 0.036852 17.7607 0.0557858 17.6795 0.0557858C17.5983 0.0557858 17.5183 0.036852 17.4457 0.000488281H17.9134Z" fill="#FEDA28"/>
  <path d="M7.95069 8.01074C7.70946 8.81519 7.6123 9.65595 7.6637 10.4942C7.69934 11.0244 7.82751 11.534 7.96444 12.0436C7.96444 12.1505 7.89004 12.2111 7.82501 12.2768C7.10911 12.9946 6.40571 13.7255 5.6723 14.4251C5.1646 14.9097 4.65002 15.3849 4.19047 15.917C3.35389 16.8861 3.36577 18.4892 4.21798 19.4533C4.2805 19.5209 4.36866 19.5728 4.3499 19.6859C4.27175 19.6859 4.22485 19.7409 4.17483 19.7903L1.96147 22.0087C1.93592 22.0267 1.91452 22.05 1.89867 22.077C1.88282 22.1039 1.8729 22.1339 1.86956 22.165C0.59156 20.8745 -0.039936 19.3158 0.00195535 17.5026C0.0388448 15.9195 0.587184 14.5177 1.69011 13.376C3.01126 12.0054 4.36616 10.668 5.72294 9.33313C6.34888 8.72026 7.1129 8.26674 7.95069 8.01074Z" fill="#4A696F"/>
  <path d="M5.70232 5.01867C5.7221 5.14921 5.69788 5.28261 5.63346 5.39786C5.56905 5.5131 5.46811 5.60363 5.34656 5.65517C5.10647 5.77084 4.84636 5.78022 4.62065 5.60265C4.20549 5.27065 3.84472 4.88112 3.48958 4.48972C3.24574 4.22086 3.29013 3.80758 3.53273 3.55748C3.78657 3.29613 4.19799 3.25048 4.4806 3.50433C4.85574 3.84259 5.20213 4.21461 5.55164 4.58038C5.61087 4.6354 5.65561 4.70419 5.6819 4.78065C5.70818 4.8571 5.7152 4.93886 5.70232 5.01867Z" fill="#DED6D4"/>
  <path d="M9.43125 3.18878C9.27737 3.19255 9.12675 3.14411 9.00391 3.05135C8.88107 2.9586 8.79324 2.82699 8.75474 2.67796C8.61468 2.20902 8.48963 1.73571 8.37959 1.25803C8.29456 0.886007 8.54028 0.547124 8.93793 0.445209C9.23742 0.367054 9.61882 0.570258 9.71699 0.893509C9.87017 1.39933 10.0096 1.90953 10.1296 2.42411C10.2147 2.78425 9.82516 3.19378 9.43125 3.18878Z" fill="#DED6D4"/>
  <path d="M3.17694 9.46245C3.17694 9.88949 2.75052 10.2359 2.33786 10.1327C1.88643 10.0202 1.43647 9.90158 0.987959 9.77695C0.589053 9.66628 0.347083 9.29551 0.439619 8.95413C0.564668 8.5002 0.883543 8.31325 1.34685 8.42892C1.74575 8.52833 2.14466 8.62837 2.54169 8.73466C2.96498 8.84846 3.17506 9.09418 3.17694 9.46245Z" fill="#DED6D4"/>
  <path d="M18.2379 18.9756C18.2185 18.663 18.363 18.4548 18.6099 18.3385C18.8444 18.2297 19.1001 18.2209 19.3158 18.3935C19.7295 18.7362 20.1125 19.1142 20.4607 19.5233C20.7108 19.8072 20.6482 20.2273 20.385 20.4699C20.2536 20.5942 20.0789 20.6624 19.898 20.6602C19.7172 20.658 19.5443 20.5855 19.4159 20.4581C19.0826 20.1417 18.7606 19.8134 18.4418 19.4827C18.3055 19.3401 18.2035 19.1713 18.2379 18.9756Z" fill="#D1C4C1"/>
  <path d="M15.5755 22.82C15.5792 22.9984 15.5188 23.1721 15.4054 23.3098C15.2919 23.4474 15.1329 23.5398 14.9572 23.5703C14.6833 23.6166 14.3225 23.4171 14.2338 23.127C14.0774 22.6143 13.938 22.0954 13.8136 21.5745C13.7448 21.2882 14.0168 20.9237 14.3313 20.8292C14.4867 20.7855 14.6527 20.7983 14.7996 20.8654C14.9465 20.9325 15.0648 21.0495 15.1335 21.1956C15.2873 21.5214 15.3298 21.8834 15.4311 22.2248C15.4949 22.4417 15.5674 22.6556 15.5755 22.82Z" fill="#D1C4C1"/>
  <path d="M22.7622 15.6105C22.3758 15.5411 21.9494 15.4023 21.5117 15.286C21.3704 15.2478 21.2235 15.2234 21.0947 15.1428C20.9577 15.0586 20.854 14.9296 20.8013 14.7777C20.7485 14.6258 20.7499 14.4603 20.8052 14.3093C20.9108 14.043 21.2428 13.7648 21.6074 13.866C22.0857 13.9986 22.5696 14.1161 23.0454 14.2556C23.358 14.3494 23.5731 14.7145 23.5175 15.0059C23.4852 15.1805 23.3911 15.3378 23.2524 15.4488C23.1137 15.5598 22.9397 15.6172 22.7622 15.6105Z" fill="#D1C4C1"/>
  <path d="M12.0104 8.00439C12.9752 8.30701 13.7911 8.84785 14.4982 9.56313C14.4672 9.56496 14.4368 9.57365 14.4095 9.58857C14.3822 9.60348 14.3584 9.62426 14.3401 9.64941C13.581 10.4101 12.822 11.1715 12.0629 11.9334C12.0434 11.9575 12.026 11.9832 12.011 12.0103C12.0083 12.0135 12.0049 12.016 12.001 12.0175C11.9971 12.0191 11.993 12.0197 11.9888 12.0194C11.9847 12.019 11.9806 12.0177 11.9771 12.0154C11.9736 12.0132 11.9706 12.0102 11.9685 12.0066C11.232 11.205 10.99 10.2747 11.2707 9.22175C11.3876 8.75013 11.6457 8.32542 12.0104 8.00439Z" fill="#4A696F"/>
  <path d="M11.9686 12.0066C11.9828 12.0066 11.997 12.0078 12.0111 12.0103C12.4619 12.5205 12.7526 13.1058 12.7901 13.7929C12.837 14.6614 12.5694 15.4148 11.9248 16.0175C11.1232 15.7243 10.3879 15.3166 9.75207 14.7408C9.67704 14.6733 9.60889 14.5989 9.53699 14.5276C9.54199 14.4207 9.63015 14.37 9.69392 14.3062C10.3942 13.6022 11.0955 12.8988 11.7979 12.196C11.8573 12.136 11.9117 12.0697 11.9686 12.0066Z" fill="#FE9E00"/>
</svg>