<svg width="53" height="53" viewBox="0 0 53 53" fill="none" xmlns="http://www.w3.org/2000/svg">
<rect opacity="0.1" width="53" height="53" rx="4" fill="#377DFF"/>
<g clip-path="url(#clip0_112_178)">
<path d="M34.6375 19.2917L32.3538 21.6042" stroke="#377DFF" stroke-width="1.5" stroke-miterlimit="10" stroke-linecap="round" stroke-linejoin="round"/>
<path d="M19.3623 34.7083L21.6439 32.398" stroke="#377DFF" stroke-width="1.5" stroke-miterlimit="10" stroke-linecap="round" stroke-linejoin="round"/>
<path d="M36.1281 19.8061C37.1964 19.8061 38.0624 18.9401 38.0624 17.8718C38.0624 16.8035 37.1964 15.9375 36.1281 15.9375C35.0599 15.9375 34.1938 16.8035 34.1938 17.8718C34.1938 18.9401 35.0599 19.8061 36.1281 19.8061Z" stroke="#377DFF" stroke-width="1.5" stroke-miterlimit="10" stroke-linecap="round" stroke-linejoin="round"/>
<path d="M17.8718 38.0625C18.9401 38.0625 19.8061 37.1965 19.8061 36.1282C19.8061 35.0599 18.9401 34.1939 17.8718 34.1939C16.8035 34.1939 15.9375 35.0599 15.9375 36.1282C15.9375 37.1965 16.8035 38.0625 17.8718 38.0625Z" stroke="#377DFF" stroke-width="1.5" stroke-miterlimit="10" stroke-linecap="round" stroke-linejoin="round"/>
<path d="M19.2917 19.3624L21.6042 21.6462" stroke="#377DFF" stroke-width="1.5" stroke-miterlimit="10" stroke-linecap="round" stroke-linejoin="round"/>
<path d="M17.8718 19.8061C18.9401 19.8061 19.8061 18.9401 19.8061 17.8718C19.8061 16.8035 18.9401 15.9375 17.8718 15.9375C16.8035 15.9375 15.9375 16.8035 15.9375 17.8718C15.9375 18.9401 16.8035 19.8061 17.8718 19.8061Z" stroke="#377DFF" stroke-width="1.5" stroke-miterlimit="10" stroke-linecap="round" stroke-linejoin="round"/>
<path d="M36.1281 38.0625C37.1964 38.0625 38.0624 37.1965 38.0624 36.1282C38.0624 35.0599 37.1964 34.1939 36.1281 34.1939C35.0599 34.1939 34.1938 35.0599 34.1938 36.1282C34.1938 37.1965 35.0599 38.0625 36.1281 38.0625Z" stroke="#377DFF" stroke-width="1.5" stroke-miterlimit="10" stroke-linecap="round" stroke-linejoin="round"/>
<path d="M27 29.3023C28.4847 29.3023 29.6882 28.1067 29.6882 26.6319C29.6882 25.1571 28.4847 23.9615 27 23.9615C25.5153 23.9615 24.3118 25.1571 24.3118 26.6319C24.3118 28.1067 25.5153 29.3023 27 29.3023Z" stroke="#377DFF" stroke-width="1.5" stroke-miterlimit="10" stroke-linecap="round" stroke-linejoin="round"/>
<path d="M23.6167 33.4928V31.8089C23.6167 30.4245 24.7389 29.3023 26.1232 29.3023H27.8767C29.2611 29.3023 30.3833 30.4245 30.3833 31.8089V33.4928" stroke="#377DFF" stroke-width="1.5" stroke-miterlimit="10" stroke-linecap="round" stroke-linejoin="round"/>
<path d="M34.3244 27.6455C34.3429 27.4328 34.3523 27.2175 34.3523 27C34.3523 22.9394 31.0605 19.6476 26.9999 19.6476C22.9393 19.6476 19.6475 22.9394 19.6475 27C19.6475 31.0607 22.9393 34.3525 26.9999 34.3525C29.0429 34.3525 30.8913 33.5192 32.2237 32.174L34.7082 34.6376" stroke="#377DFF" stroke-width="1.5" stroke-miterlimit="10" stroke-linecap="round" stroke-linejoin="round"/>
</g>
<defs>
<clipPath id="clip0_112_178">
<rect width="24" height="24" fill="white" transform="translate(15 15)"/>
</clipPath>
</defs>
</svg>
