<svg width="514" height="514" viewBox="0 0 514 514" fill="none" xmlns="http://www.w3.org/2000/svg">
<g clip-path="url(#clip0_136_2891)">
<path d="M514 0H0V514H514V0Z" fill="#377DFF"/>
<path d="M263.188 357.045C263.188 349.417 257.01 343.239 249.382 343.239C241.755 343.239 235.576 349.417 235.576 357.045H208.807V438.206H289.968V357.045H263.188Z" fill="#AABBFF"/>
<path d="M254.276 251.983C254.471 244.356 248.437 238.023 240.819 237.828C233.192 237.633 226.859 243.667 226.664 251.284L199.905 250.616L197.87 331.746L226.941 332.476C226.962 324.601 233.346 318.217 241.231 318.217C249.126 318.217 255.52 324.612 255.52 332.507C255.52 332.743 255.499 332.959 255.489 333.195L278.999 333.781L281.035 252.652L254.276 251.983Z" fill="white"/>
<path d="M429.714 196.852C464.091 196.852 491.96 168.983 491.96 134.606C491.96 100.229 464.091 72.3608 429.714 72.3608C395.337 72.3608 367.469 100.229 367.469 134.606C367.469 168.983 395.337 196.852 429.714 196.852Z" fill="white"/>
<path d="M306.673 165.025C306.673 165.025 291.602 159.227 291.428 160.471C291.253 161.704 296.105 164.151 296.105 164.151C296.105 164.151 288.899 165.076 284.91 165.302C283.399 165.395 282.104 166.567 281.816 168.088L281.055 172.036C281.055 172.036 288.375 172.827 292.363 172.971C296.352 173.115 308.318 172.858 308.318 172.858L306.673 165.025Z" fill="#D8948F"/>
<path d="M281.929 167.708L291.12 167.338" stroke="#050528" stroke-width="0.5" stroke-miterlimit="10" stroke-linecap="round" stroke-linejoin="round"/>
<path d="M281.477 170.237L290.667 169.856" stroke="#050528" stroke-width="0.5" stroke-miterlimit="10" stroke-linecap="round" stroke-linejoin="round"/>
<path d="M441.968 213.803C441.968 213.803 431.863 226.396 432.983 226.941C434.114 227.486 437.907 223.611 437.907 223.611C437.907 223.611 436.591 230.755 435.605 234.62C435.235 236.08 435.954 237.674 437.311 238.414L440.847 240.336C440.847 240.336 443.829 233.613 445.175 229.851C446.522 226.088 449.925 214.616 449.925 214.616L441.968 213.803Z" fill="#D8948F"/>
<path d="M436.992 238.198L439.429 229.326" stroke="#050528" stroke-width="0.5" stroke-miterlimit="10" stroke-linecap="round" stroke-linejoin="round"/>
<path d="M439.254 239.401L441.701 230.519" stroke="#050528" stroke-width="0.5" stroke-miterlimit="10" stroke-linecap="round" stroke-linejoin="round"/>
<path d="M393.652 136.971C396.335 134.36 396.397 130.032 393.786 127.349L384.194 117.49C381.583 114.807 377.255 114.745 374.572 117.356C371.889 119.968 371.828 124.295 374.439 126.979L384.03 136.837C386.641 139.52 390.969 139.582 393.652 136.971Z" fill="#D8948F"/>
<path d="M374.161 117.757L374.994 116.945C377.451 114.56 381.409 114.612 383.794 117.069L387.196 120.564C386.662 126.197 383.824 131.934 381.275 133.99L374.038 126.557C371.653 124.1 371.704 120.142 374.161 117.757Z" fill="#C67775"/>
<path d="M356.48 123.915C355.38 122.774 354.516 121.489 353.869 120.122C353.838 120.07 353.817 120.029 353.807 120.009L353.817 119.998C351.381 114.704 352.368 108.238 356.788 103.941C361.979 98.8935 370.049 98.6365 375.539 103.088C375.549 103.088 375.549 103.088 375.559 103.098C378.253 104.661 381.532 111.147 383.208 114.786C383.968 116.441 384.256 118.261 384.04 120.06C383.3 126.177 379.373 138.718 372.393 137.423C366.091 136.251 360.294 129.106 356.48 123.915Z" fill="#D8948F"/>
<path d="M367.273 128.819C367.273 128.819 369.453 128.808 370.1 126.064" stroke="#0E0108" stroke-width="0.5" stroke-miterlimit="10" stroke-linecap="round" stroke-linejoin="round"/>
<path d="M373.164 113.758C373.215 113.707 373.256 113.635 373.267 113.563C373.308 113.368 373.174 113.172 372.969 113.142C369.473 112.504 367.87 116.452 367.859 116.493C367.787 116.678 367.88 116.894 368.065 116.966C368.25 117.038 368.466 116.945 368.538 116.76C368.589 116.616 369.936 113.337 372.835 113.861C372.969 113.872 373.082 113.841 373.164 113.758Z" fill="#0E0108"/>
<path d="M358.207 126.208C358.053 126.012 357.909 125.817 357.754 125.622C358.782 124.491 360.16 123.966 360.18 123.956C360.365 123.884 360.581 123.987 360.653 124.172C360.725 124.357 360.622 124.573 360.437 124.645C360.417 124.655 359.101 125.138 358.207 126.208Z" fill="#0E0108"/>
<path d="M369.895 123.309C369.895 123.309 374.624 122.198 375.189 115.568C375.189 115.568 368.24 118.169 369.895 123.309Z" fill="white"/>
<path d="M369.782 123.607C369.864 123.535 369.905 123.422 369.895 123.309C369.874 123.083 369.412 117.706 375.364 116.277C375.559 116.226 375.682 116.03 375.631 115.835C375.58 115.64 375.384 115.516 375.189 115.568C368.61 117.141 369.165 123.319 369.165 123.381C369.185 123.576 369.36 123.73 369.566 123.71C369.648 123.699 369.73 123.658 369.782 123.607Z" fill="#0E0108"/>
<path d="M385.921 107.642C383.814 105.473 380.349 105.432 378.191 107.539C376.022 109.646 375.98 113.111 378.088 115.27C380.195 117.439 383.66 117.48 385.818 115.372C387.977 113.275 388.029 109.811 385.921 107.642Z" fill="#D8948F"/>
<path d="M380.576 113.573C380.576 113.573 378.725 109.153 382.796 106.573" stroke="#0E0108" stroke-width="0.5" stroke-miterlimit="10" stroke-linecap="round" stroke-linejoin="round"/>
<path d="M371.642 122.445C371.221 122.352 370.82 122.167 370.481 121.869C370.131 121.561 369.895 121.17 369.751 120.759C370.08 119.32 371.087 118.169 372.146 117.326C372.773 117.315 373.421 117.521 373.925 117.973C374.171 118.189 374.356 118.446 374.5 118.713C373.76 120.636 372.619 121.787 371.642 122.445Z" fill="#050528"/>
<path d="M362.792 127.277C363.542 127.133 364.395 127.102 365.372 127.225C364.909 127.996 364.426 128.654 363.922 129.179C363.891 128.87 363.819 128.572 363.676 128.274C363.48 127.852 363.162 127.523 362.792 127.277Z" fill="white"/>
<path d="M362.031 130.69C362.062 130.669 362.093 130.659 362.123 130.638C362.226 130.576 362.329 130.515 362.432 130.443C362.524 130.381 362.617 130.309 362.72 130.247C362.833 130.165 362.946 130.083 363.059 129.99C363.151 129.919 363.234 129.847 363.326 129.764C363.46 129.651 363.594 129.518 363.727 129.384C363.799 129.312 363.861 129.261 363.933 129.189C363.902 128.88 363.83 128.582 363.686 128.284C363.48 127.863 363.162 127.523 362.802 127.277C363.552 127.133 364.406 127.102 365.382 127.225C365.475 127.235 365.567 127.246 365.66 127.266C365.855 127.297 366.05 127.163 366.081 126.968C366.112 126.773 365.978 126.578 365.783 126.547C362.936 126.094 360.972 126.896 359.646 127.986C359.697 128.058 359.759 128.12 359.821 128.191C359.913 128.305 360.006 128.418 360.109 128.52C360.715 129.261 361.363 129.98 362.031 130.69Z" fill="#050528"/>
<path d="M371.776 133.589C372.948 133.753 374.141 133.486 375.169 132.92C377.081 131.872 378.314 129.764 378.479 127.606C378.561 126.506 378.407 125.21 377.739 124.295C377.06 123.36 375.785 123.041 375.22 124.254C374.665 125.437 374.778 126.804 374.213 127.996C374.007 128.428 373.719 128.829 373.38 129.178C373.102 129.364 372.804 129.518 372.465 129.641C371.55 129.949 369.145 130.114 369.206 131.512C369.258 132.735 370.717 133.434 371.776 133.589Z" fill="#0E0108"/>
<path d="M374.737 129.312C375.693 128.233 377.101 127.822 378.417 128.068C378.119 130.052 376.937 131.944 375.169 132.91C374.819 133.106 374.439 133.249 374.048 133.373C373.513 132.036 373.719 130.464 374.737 129.312Z" fill="#FF8DCC"/>
<path d="M381.265 134L347.115 160.306C347.115 160.306 329.556 164.84 306.262 163.473L303.712 175.788C303.712 175.788 329.978 189.707 355.75 178.522C381.522 167.338 395.667 149.091 395.667 149.091L381.265 134Z" fill="#AABBFF"/>
<path d="M446.142 164.675C436.807 149.348 410.46 125.066 404.405 125.066C395.986 125.066 389.149 131.892 389.149 140.322C389.149 147.24 427.227 176.95 427.227 176.95C427.227 176.95 436.18 192.503 438.031 215.757L450.583 216.589C450.572 216.589 460.75 188.658 446.142 164.675Z" fill="#AABBFF"/>
<path d="M490.346 150.314C491.6 145.39 492.268 140.229 492.268 134.904C492.268 123.36 489.112 112.566 483.643 103.293C471.215 103.787 413.174 106.09 403.429 106.871C392.511 107.745 386.58 119.926 386.58 119.926C389.355 130.463 381.573 134.288 381.573 134.288C388.337 149.574 437.692 165.261 437.692 165.261L490.346 150.314Z" fill="#AABBFF"/>
<path d="M381.573 134.298L395.965 149.399" stroke="white" stroke-width="0.5" stroke-miterlimit="10" stroke-linecap="round" stroke-linejoin="round"/>
<path d="M445.258 163.123C445.258 163.123 415.846 124.429 405.71 124.008C395.574 123.586 388.82 131.985 389.91 143.036" stroke="white" stroke-width="0.5" stroke-miterlimit="10" stroke-linecap="round" stroke-linejoin="round"/>
<path d="M448.845 169.404C448.136 167.924 447.334 166.443 446.45 164.984C443.407 159.998 438.565 154.056 433.209 148.32C430.084 150.725 428.049 154.488 428.049 158.744C428.049 166.001 433.929 171.882 441.187 171.882C444.045 171.871 446.686 170.946 448.845 169.404Z" fill="#050528"/>
<path d="M365.331 173.783C363.151 169.558 358.741 166.659 353.652 166.659C346.395 166.659 340.515 172.54 340.515 179.797C340.515 180.712 340.607 181.617 340.792 182.48C345.665 181.925 350.723 180.702 355.76 178.523C359.152 177.042 362.339 175.449 365.331 173.783Z" fill="#050528"/>
<path d="M363.676 103.592C363.676 103.592 371.684 112.289 377.287 111.086C377.287 111.086 377.194 108.505 378.931 106.84C377.811 105.144 376.639 103.725 375.57 103.108C375.559 103.108 375.559 103.108 375.549 103.098C370.06 98.647 361.99 98.8937 356.798 103.951C352.378 108.248 351.381 114.715 353.828 120.009L353.817 120.019C353.828 120.04 353.848 120.081 353.879 120.132C354.527 121.489 355.39 122.774 356.49 123.925C356.48 123.915 368.024 117.459 363.676 103.592Z" fill="#050528"/>
<path d="M410.285 241.899C460.174 273.448 475.666 339.312 444.764 389.848C413.863 440.385 348.173 456.617 297.359 426.579L410.285 241.899Z" fill="#F9B934"/>
<path d="M400.252 330.841H346.6C347.114 330.481 347.649 330.142 348.204 329.824C346.559 329.443 345.069 328.59 343.753 327.696C341.903 326.452 340.011 325.023 338.993 323.213C338.006 321.466 338.078 319.554 339.312 317.899C340.587 316.192 342.704 314.928 344.791 313.941C346.621 313.077 348.585 312.419 350.62 311.957C348.173 310.538 346.919 307.752 347.012 305.367C347.073 303.764 347.711 302.201 348.996 300.968C350.301 299.713 352.234 298.973 354.197 298.685C355.986 298.418 357.795 298.449 359.605 298.583C358.957 297.051 359.923 295.17 361.373 294.039C363.316 292.528 366.05 291.767 368.713 291.818C371.437 291.87 374.069 292.754 375.95 294.368C376.926 295.211 377.677 296.187 378.242 297.236C380.638 298.778 382.169 301.163 382.293 303.64C385.562 302.633 389.818 304.339 391.822 306.478C394.557 309.387 392.747 312.769 390.517 315.483C394.084 315.668 397.26 317.888 398.34 320.685C399.542 323.789 398.093 327.12 395.605 329.567C397.219 329.669 398.864 330.122 400.252 330.841Z" fill="#0E0108"/>
<path d="M372.907 345.213C376.701 345.028 379.651 341.779 379.476 337.986L378.818 324.046C378.633 320.253 375.385 317.303 371.591 317.477C367.798 317.662 364.848 320.911 365.023 324.704L365.68 338.644C365.865 342.447 369.114 345.398 372.907 345.213Z" fill="#D8948F"/>
<path d="M371.005 317.518L372.177 317.467C375.642 317.303 378.623 320.006 378.787 323.471L379.024 328.415C374.829 332.342 368.816 334.789 365.495 334.645L364.991 324.129C364.827 320.654 367.531 317.683 371.005 317.518Z" fill="#C67775"/>
<path d="M353.426 310.312C353.354 308.698 353.56 307.146 353.992 305.676C354.002 305.614 354.012 305.563 354.023 305.542H354.033C355.739 299.878 360.838 295.632 367.089 295.334C374.428 294.985 380.73 300.217 381.912 307.29C381.912 307.3 381.923 307.3 381.923 307.31C382.92 310.312 381.049 317.446 379.887 321.332C379.353 323.1 378.345 324.673 376.968 325.907C372.29 330.06 360.879 336.958 356.449 331.273C352.44 326.154 352.84 316.83 353.426 310.312Z" fill="#D8948F"/>
<path d="M358.34 321.291C358.34 321.291 360.006 322.751 362.339 321.106" stroke="#0E0108" stroke-width="0.5" stroke-miterlimit="10" stroke-linecap="round" stroke-linejoin="round"/>
<path d="M372.938 313.807C373.01 313.807 373.082 313.777 373.154 313.725C373.318 313.602 373.339 313.365 373.215 313.201C370.985 310.374 367.119 312.296 367.078 312.317C366.893 312.409 366.821 312.635 366.914 312.81C367.006 312.995 367.232 313.067 367.407 312.975C367.541 312.903 370.779 311.309 372.629 313.663C372.712 313.766 372.825 313.818 372.938 313.807Z" fill="#0E0108"/>
<path d="M353.2 313.211C353.221 312.964 353.231 312.707 353.252 312.461C354.794 312.296 356.192 312.82 356.212 312.831C356.408 312.903 356.5 313.119 356.418 313.314C356.346 313.509 356.13 313.602 355.935 313.519C355.924 313.519 354.598 313.016 353.2 313.211Z" fill="#0E0108"/>
<path d="M363.747 319.019C363.86 319.009 363.963 318.957 364.035 318.865C364.169 318.68 367.438 314.28 372.917 317.189C373.102 317.282 373.318 317.22 373.421 317.035C373.513 316.85 373.452 316.634 373.267 316.531C367.201 313.303 363.47 318.372 363.439 318.423C363.316 318.587 363.357 318.824 363.521 318.937C363.583 318.999 363.665 319.019 363.747 319.019Z" fill="#0E0108"/>
<path d="M353.077 316.11C354.66 316.048 356.51 316.521 358.433 318.156C358.587 318.289 358.607 318.526 358.474 318.68C358.34 318.834 358.104 318.855 357.949 318.721C356.181 317.22 354.495 316.778 353.066 316.83C353.066 316.593 353.066 316.357 353.077 316.11Z" fill="#0E0108"/>
<path d="M386.744 317.734C386.6 314.671 383.999 312.306 380.936 312.45C377.872 312.594 375.508 315.195 375.652 318.259C375.796 321.322 378.396 323.686 381.46 323.542C384.523 323.399 386.888 320.798 386.744 317.734Z" fill="#D8948F"/>
<path d="M378.695 318.649C378.695 318.649 380.257 314.044 385.079 314.825" stroke="#0E0108" stroke-width="0.5" stroke-miterlimit="10" stroke-linecap="round" stroke-linejoin="round"/>
<path d="M359.667 326.493C359.667 326.493 365.043 328.107 367.366 323.029" stroke="#0E0108" stroke-width="0.5" stroke-miterlimit="10" stroke-linecap="round" stroke-linejoin="round"/>
<path d="M353.426 310.312C353.354 308.698 353.56 307.146 353.992 305.676C354.002 305.614 354.012 305.563 354.022 305.542H354.033C355.739 299.878 360.838 295.632 367.088 295.334C374.428 294.985 380.73 300.217 381.912 307.29C381.912 307.3 381.922 307.3 381.922 307.31C382.375 308.657 383.022 312.934 382.95 312.748C381.439 313.519 379.291 315.493 378.818 317.035C378.725 317.333 378.324 317.467 378.108 317.22C376.052 314.979 375.61 311.587 376.937 308.904C375.271 309.13 373.565 307.845 372.66 306.498C371.93 305.409 371.519 304.154 371.283 302.869C371.159 303.106 371.015 303.342 370.83 303.568C370.141 304.422 369.144 305.018 368.044 305.131C366.77 305.275 365.557 304.648 364.775 303.682C364.714 304.185 364.601 304.668 364.374 305.141C363.922 306.108 363.069 306.94 361.979 307.105C360.9 307.259 359.831 306.714 359.173 305.871C359.142 305.83 359.111 305.779 359.08 305.727C358.936 307.084 358.515 308.359 357.343 309.089C356.551 309.582 355.544 309.634 354.804 309.017C354.721 308.945 354.639 308.863 354.567 308.78C354.321 309.634 353.961 310.446 353.395 311.032C353.385 310.795 353.406 310.549 353.426 310.312Z" fill="#0E0108"/>
<path d="M385.901 322.843C385.901 321.075 384.462 319.636 382.694 319.636C380.926 319.636 379.486 321.075 379.486 322.843C379.486 324.612 380.926 326.051 382.694 326.051C384.462 326.051 385.901 324.612 385.901 322.843Z" fill="white"/>
<path d="M279.421 398.957C279.709 397.435 281.004 396.263 282.515 396.171C286.504 395.934 293.71 395.019 293.71 395.019C293.71 395.019 288.858 392.583 289.033 391.339C289.177 390.352 298.768 393.827 302.664 395.287C307.557 395.677 340.926 397.445 353.56 374.028L375.549 391.576C375.549 391.576 366.873 427.237 301.636 403.809C297.791 403.87 292.405 403.932 289.968 403.85C285.98 403.706 278.66 402.914 278.66 402.914L279.421 398.957Z" fill="#D8948F"/>
<path d="M279.534 398.586L288.735 398.206" stroke="#050528" stroke-width="0.5" stroke-miterlimit="10" stroke-linecap="round" stroke-linejoin="round"/>
<path d="M279.082 401.105L288.282 400.725" stroke="#050528" stroke-width="0.5" stroke-miterlimit="10" stroke-linecap="round" stroke-linejoin="round"/>
<path d="M346.395 380.514L365.413 336.506C365.413 336.506 374.161 337.77 379.435 331.54C409.525 336.855 424.739 384.39 430.537 408.322C411.858 427.833 386.837 439.254 360.797 441.3V410.768L346.395 380.514Z" fill="white"/>
<path d="M360.797 410.768C360.797 410.768 386.086 397.044 382.026 365.187" stroke="white" stroke-width="0.5" stroke-miterlimit="10" stroke-linecap="round" stroke-linejoin="round"/>
<path d="M196.893 398.587L158.261 331.982L21.7319 348.821V413.75L196.893 398.587Z" fill="#AABBFF"/>
<path d="M134.483 212.693C134.216 214.369 133.938 216.055 133.671 217.73C133.393 219.447 134.596 220.948 132.653 222.87H67.334C67.6938 221.493 68.1461 220.146 68.6909 218.841C69.8937 215.952 71.703 213.115 74.9412 212.333C76.6682 211.922 78.4055 212.097 80.1634 212.179C81.8082 212.261 83.3091 212.066 84.1212 210.473C84.8614 209.023 85.1287 207.317 85.4987 205.744C85.8483 204.243 86.2492 202.742 86.9585 201.365C89.8266 195.855 96.6217 196.245 101.474 193.655C101.875 193.439 102.255 193.202 102.625 192.935C103.304 192.164 103.91 191.301 104.496 190.488C105.905 188.525 107.2 186.49 108.69 184.588C111.075 181.514 114.139 178.666 117.953 177.628C118.724 177.309 119.536 177.094 120.389 176.981C123.093 176.61 125.796 177.412 128.109 178.79C130.587 180.27 132.756 182.408 134.185 184.917C135.624 187.435 136.333 190.273 136.601 193.151C136.899 196.41 136.539 199.689 136.076 202.917C135.573 206.186 135.018 209.434 134.483 212.693Z" fill="#0E0108"/>
<path d="M116.123 228.535C112.206 228.35 109.163 224.999 109.348 221.082L110.027 206.7C110.212 202.784 113.563 199.741 117.48 199.926C121.396 200.111 124.439 203.462 124.254 207.379L123.576 221.76C123.391 225.667 120.04 228.72 116.123 228.535Z" fill="#D8948F"/>
<path d="M118.086 199.956L116.873 199.895C113.296 199.72 110.233 202.516 110.058 206.094L109.811 211.192C114.139 215.243 120.338 217.772 123.761 217.617L124.275 206.772C124.46 203.195 121.674 200.121 118.086 199.956Z" fill="#C67775"/>
<path d="M136.23 192.524C136.302 190.859 136.087 189.255 135.655 187.744C135.644 187.682 135.634 187.631 135.624 187.61H135.614C133.856 181.771 128.592 177.382 122.147 177.073C114.57 176.713 108.073 182.11 106.85 189.409C106.85 189.419 106.84 189.419 106.84 189.43C105.812 192.524 107.734 199.884 108.947 203.894C109.492 205.713 110.53 207.348 111.959 208.612C116.791 212.899 128.551 220.013 133.136 214.143C137.238 208.869 136.827 199.247 136.23 192.524Z" fill="#D8948F"/>
<path d="M131.152 203.853C131.152 203.853 129.435 205.353 127.03 203.657" stroke="#0E0108" stroke-width="0.5" stroke-miterlimit="10" stroke-linecap="round" stroke-linejoin="round"/>
<path d="M116.092 196.132C116.02 196.132 115.937 196.102 115.876 196.05C115.711 195.916 115.68 195.68 115.814 195.516C118.117 192.596 122.105 194.58 122.147 194.601C122.332 194.693 122.414 194.93 122.311 195.115C122.219 195.3 121.982 195.382 121.797 195.279C121.653 195.207 118.322 193.562 116.41 195.988C116.328 196.081 116.215 196.132 116.092 196.132Z" fill="#0E0108"/>
<path d="M136.456 195.515C136.436 195.258 136.426 195.001 136.405 194.744C134.812 194.57 133.372 195.115 133.342 195.125C133.146 195.207 133.043 195.423 133.126 195.618C133.208 195.814 133.424 195.906 133.619 195.834C133.65 195.834 135.017 195.31 136.456 195.515Z" fill="#0E0108"/>
<path d="M125.58 201.509C125.467 201.498 125.354 201.447 125.292 201.354C125.148 201.159 121.787 196.626 116.133 199.627C115.948 199.73 115.711 199.658 115.619 199.473C115.516 199.288 115.588 199.052 115.773 198.959C122.023 195.629 125.878 200.861 125.909 200.912C126.032 201.087 125.991 201.324 125.817 201.447C125.745 201.488 125.662 201.509 125.58 201.509Z" fill="#0E0108"/>
<path d="M136.58 198.507C134.956 198.445 133.044 198.939 131.06 200.614C130.895 200.748 130.875 200.995 131.019 201.149C131.152 201.313 131.399 201.334 131.553 201.19C133.383 199.638 135.12 199.185 136.59 199.237C136.601 199 136.59 198.754 136.58 198.507Z" fill="#0E0108"/>
<path d="M101.854 200.183C102.008 197.027 104.691 194.58 107.847 194.734C111.003 194.888 113.45 197.571 113.296 200.727C113.142 203.883 110.458 206.33 107.302 206.176C104.147 206.022 101.7 203.339 101.854 200.183Z" fill="#D8948F"/>
<path d="M110.16 201.118C110.16 201.118 108.546 196.369 103.571 197.171" stroke="#0E0108" stroke-width="0.5" stroke-miterlimit="10" stroke-linecap="round" stroke-linejoin="round"/>
<path d="M129.785 209.219C129.785 209.219 124.244 210.884 121.838 205.652" stroke="#0E0108" stroke-width="0.5" stroke-miterlimit="10" stroke-linecap="round" stroke-linejoin="round"/>
<path d="M106.83 189.43C106.83 189.419 106.84 189.419 106.84 189.409C108.063 182.11 114.56 176.713 122.137 177.073C128.582 177.382 133.846 181.761 135.604 187.61H135.614C135.624 187.631 135.634 187.682 135.645 187.744C136.087 189.255 136.313 189.553 136.241 191.218C136.241 191.218 133.106 189.635 126.393 183.344C125.961 182.933 124.265 178.019 124.265 178.019L126.084 183.179C126.084 183.179 125.303 196.297 106.542 194.724L106.717 194.179C106.48 192.277 106.46 190.571 106.83 189.43Z" fill="#0E0108"/>
<path d="M108.187 205.395C108.187 202.845 106.12 200.769 103.561 200.769C101.011 200.769 98.9346 202.835 98.9346 205.395C98.9346 207.944 101.001 210.021 103.561 210.021C106.11 210.01 108.187 207.944 108.187 205.395Z" stroke="white" stroke-width="0.5" stroke-miterlimit="10" stroke-linecap="round" stroke-linejoin="round"/>
<path d="M86.5267 330.132C86.5267 330.132 76.9458 325.897 72.5665 333.689C72.5665 333.689 40.7499 340.864 40.2256 343.311C39.7013 345.768 41.377 346.868 41.377 346.868H85.8483L86.5267 330.132Z" fill="#D8948F"/>
<path d="M61.0322 294.255L169.291 299.22C169.291 299.22 186.212 301.697 186.212 323.727C186.212 345.757 154.991 348.821 154.991 348.821L81.4586 347.649L82.6305 317.302C82.6305 317.302 58.2669 318.906 61.0322 294.255Z" fill="#050528"/>
<path d="M82.6304 317.302L163.534 321.538" stroke="white" stroke-width="0.5" stroke-miterlimit="10" stroke-linecap="round" stroke-linejoin="round"/>
<path d="M184.906 277.005C184.906 277.005 199.977 271.207 200.151 272.451C200.326 273.684 195.474 276.131 195.474 276.131C195.474 276.131 202.68 277.056 206.669 277.282C208.18 277.375 209.475 278.547 209.763 280.068L210.524 284.016C210.524 284.016 203.204 284.807 199.216 284.951C195.227 285.095 183.261 284.838 183.261 284.838L184.906 277.005Z" fill="#D8948F"/>
<path d="M209.65 279.688L200.459 279.308" stroke="#050528" stroke-width="0.5" stroke-miterlimit="10" stroke-linecap="round" stroke-linejoin="round"/>
<path d="M210.102 282.217L200.902 281.836" stroke="#050528" stroke-width="0.5" stroke-miterlimit="10" stroke-linecap="round" stroke-linejoin="round"/>
<path d="M61.0322 294.255C61.0322 294.255 69.3385 219.786 109.749 212.652L109.338 209.105L124.84 216.373L123.771 217.617L137.844 255.16C139.448 261.996 144.948 267.229 151.856 268.483L186.222 274.754V289.032C186.222 289.032 138.708 296.393 128.387 291.89L129.034 297.38L61.0322 294.255Z" fill="#F9B934"/>
<path d="M128.387 291.88C128.387 291.88 103.098 278.156 107.159 246.299" stroke="white" stroke-width="0.5" stroke-miterlimit="10" stroke-linecap="round" stroke-linejoin="round"/>
<path d="M186.222 274.754L180.167 273.643L180.527 289.845L186.222 289.022V274.754Z" fill="white"/>
<path d="M209.948 156.431C202.434 155.146 195.289 160.193 194.004 167.708C192.719 175.223 197.766 182.367 205.281 183.652L200.758 210.031L227.136 214.554C228.421 207.039 235.566 201.992 243.081 203.277C250.595 204.562 255.653 211.706 254.358 219.221L280.736 223.744L294.45 143.756L214.461 130.042L209.948 156.431Z" fill="#F9B934"/>
<path d="M412.65 214.944C412.269 216.157 412.012 216.97 411.745 217.771C409.576 224.402 407.417 231.033 405.238 237.663C404.6 239.606 404.292 239.771 402.411 239.164C395.235 236.831 388.07 234.456 380.895 232.153C379.455 231.691 379.003 231.002 379.497 229.521C381.912 222.254 384.277 214.975 386.631 207.687C387.042 206.402 387.731 205.96 389.057 206.402C396.438 208.838 403.84 211.213 411.21 213.68C411.796 213.896 412.249 214.585 412.65 214.944ZM382.18 229.809C389.119 232.071 395.934 234.302 402.853 236.553C405.135 229.573 407.345 222.798 409.596 215.88C402.637 213.608 395.862 211.398 388.923 209.136C386.651 216.086 384.441 222.86 382.18 229.809Z" fill="#AABBFF"/>
<path d="M158.322 130.607C159.463 131.173 160.224 131.553 160.974 131.944C167.183 135.12 173.393 138.297 179.602 141.484C181.421 142.419 181.534 142.748 180.64 144.516C177.206 151.239 173.742 157.942 170.35 164.675C169.671 166.022 168.921 166.372 167.533 165.652C160.738 162.126 153.912 158.651 147.086 155.187C145.883 154.58 145.554 153.84 146.192 152.596C149.749 145.688 153.264 138.749 156.852 131.862C157.15 131.286 157.911 130.947 158.322 130.607ZM168.232 163.031C171.552 156.523 174.822 150.15 178.132 143.673C171.594 140.332 165.241 137.084 158.774 133.774C155.444 140.291 152.206 146.634 148.885 153.131C155.382 156.462 161.725 159.7 168.232 163.031Z" fill="#AABBFF"/>
<path d="M322.206 295.848C321.949 300.659 321.713 305.48 321.445 310.291C321.342 312.131 320.602 312.553 319.081 311.566C310.97 306.354 302.88 301.122 294.789 295.869C293.36 294.943 293.412 294.028 294.923 293.247C303.486 288.827 312.06 284.427 320.633 280.037C322.247 279.215 322.956 279.708 322.874 281.559C322.669 286.329 322.432 291.088 322.206 295.848ZM297.298 294.676C304.709 299.456 311.792 304.031 319.184 308.801C319.615 300.052 320.037 291.613 320.469 282.813C312.584 286.843 305.09 290.687 297.298 294.676Z" fill="#F9B934"/>
<path d="M82.8672 153.727C87.4829 155.125 92.0986 156.513 96.704 157.921C98.4722 158.456 98.6984 159.278 97.3825 160.522C90.3818 167.142 83.3606 173.763 76.3291 180.352C75.0852 181.514 74.2114 181.247 73.8207 179.592C71.5797 170.216 69.349 160.841 67.149 151.465C66.7378 149.697 67.3855 149.132 69.1639 149.656C73.7385 151.003 78.3028 152.37 82.8672 153.727ZM75.7739 177.628C82.1887 171.573 88.3258 165.785 94.72 159.751C86.3212 157.232 78.2309 154.817 69.791 152.288C71.8264 160.923 73.7591 169.116 75.7739 177.628Z" fill="#F9B934"/>
<path d="M276.892 112.319C277.426 113.244 278.382 114.982 279.41 116.678C281.076 119.433 283.512 119.484 285.29 116.781C286.257 115.311 287.018 113.717 288.004 112.258C291.592 106.963 298.295 107.138 301.605 112.587C302.396 113.892 303.075 115.28 303.866 116.585C305.696 119.608 308.163 119.639 310.065 116.657C311.011 115.177 311.782 113.584 312.769 112.134C314.208 110.017 316.182 108.68 318.844 108.546C319.821 108.495 320.715 108.824 320.582 109.873C320.51 110.407 319.646 111.178 319.071 111.24C317.056 111.456 315.719 112.504 314.712 114.139C313.735 115.732 312.882 117.418 311.782 118.929C309.15 122.558 304.905 122.589 302.232 118.981C301.163 117.531 300.382 115.866 299.456 114.303C296.999 110.15 292.672 110.058 290.06 114.129C289.084 115.66 288.282 117.305 287.233 118.775C284.489 122.589 279.914 122.466 277.375 118.539C276.357 116.966 275.494 115.3 274.507 113.717C273.561 112.196 272.245 111.199 270.364 111.106C269.387 111.055 268.555 110.561 268.873 109.544C269.038 109.019 270.004 108.433 270.611 108.433C273.026 108.433 274.908 109.636 276.892 112.319Z" fill="#0E0108"/>
<path d="M137.187 426.743C137.721 427.669 138.677 429.406 139.705 431.102C141.371 433.857 143.807 433.908 145.585 431.205C146.552 429.735 147.312 428.141 148.299 426.682C151.887 421.387 158.59 421.562 161.9 427.011C162.691 428.316 163.37 429.704 164.161 431.01C165.991 434.032 168.458 434.063 170.36 431.081C171.306 429.601 172.077 428.008 173.064 426.558C174.503 424.441 176.477 423.104 179.139 422.981C180.116 422.929 181.01 423.258 180.877 424.307C180.805 424.842 179.941 425.613 179.365 425.674C177.351 425.89 176.014 426.939 175.007 428.573C174.03 430.167 173.177 431.852 172.077 433.364C169.445 436.992 165.2 437.023 162.527 433.415C161.458 431.966 160.676 430.3 159.751 428.738C157.294 424.585 152.966 424.492 150.355 428.563C149.379 430.095 148.577 431.739 147.528 433.209C144.784 437.023 140.209 436.9 137.67 432.973C136.652 431.4 135.789 429.735 134.802 428.152C133.856 426.63 132.54 425.633 130.659 425.541C129.682 425.489 128.85 424.996 129.168 423.978C129.333 423.454 130.299 422.868 130.906 422.868C133.332 422.857 135.213 424.06 137.187 426.743Z" fill="white"/>
<path d="M185.205 220.588C191.167 224.196 196.626 227.507 202.393 231.002C196.513 234.23 190.889 237.324 185.205 240.449C185.205 233.88 185.205 227.496 185.205 220.588Z" fill="#AABBFF"/>
<path d="M310.929 244.51C312.371 244.51 313.54 243.341 313.54 241.899C313.54 240.457 312.371 239.288 310.929 239.288C309.487 239.288 308.318 240.457 308.318 241.899C308.318 243.341 309.487 244.51 310.929 244.51Z" fill="white"/>
<path d="M127.174 133.373C127.174 131.933 128.346 130.761 129.785 130.761C131.224 130.761 132.396 131.933 132.396 133.373C132.396 134.812 131.224 135.984 129.785 135.984C128.346 135.984 127.174 134.812 127.174 133.373Z" fill="white"/>
<path d="M183.611 354.855C183.611 353.416 184.783 352.244 186.222 352.244C187.661 352.244 188.833 353.416 188.833 354.855C188.833 356.294 187.661 357.466 186.222 357.466C184.783 357.466 183.611 356.294 183.611 354.855Z" fill="white"/>
<path d="M172.91 103.304C172.91 101.865 174.082 100.693 175.521 100.693C176.96 100.693 178.132 101.865 178.132 103.304C178.132 104.743 176.96 105.915 175.521 105.915C174.071 105.925 172.91 104.753 172.91 103.304Z" fill="white"/>
<path d="M305.984 367.212C307.103 367.212 308.009 366.305 308.009 365.187C308.009 364.068 307.103 363.162 305.984 363.162C304.866 363.162 303.959 364.068 303.959 365.187C303.959 366.305 304.866 367.212 305.984 367.212Z" fill="white"/>
<path d="M346.395 276.254C347.837 276.254 349.006 275.085 349.006 273.643C349.006 272.201 347.837 271.032 346.395 271.032C344.953 271.032 343.784 272.201 343.784 273.643C343.784 275.085 344.953 276.254 346.395 276.254Z" fill="white"/>
<path d="M37.5117 314.373C37.5117 312.933 38.6836 311.761 40.1228 311.761C41.562 311.761 42.734 312.933 42.734 314.373C42.734 315.812 41.562 316.984 40.1228 316.984C38.6836 316.984 37.5117 315.822 37.5117 314.373Z" fill="white"/>
<path d="M460.678 264.186C460.678 262.746 461.85 261.574 463.289 261.574C464.728 261.574 465.9 262.746 465.9 264.186C465.9 265.625 464.728 266.797 463.289 266.797C461.85 266.797 460.678 265.635 460.678 264.186Z" fill="white"/>
<path d="M48.7274 243.204C49.4485 243.204 50.033 242.62 50.033 241.899C50.033 241.178 49.4485 240.593 48.7274 240.593C48.0064 240.593 47.4219 241.178 47.4219 241.899C47.4219 242.62 48.0064 243.204 48.7274 243.204Z" fill="white"/>
<path d="M472.52 297.174C473.241 297.174 473.826 296.59 473.826 295.869C473.826 295.147 473.241 294.563 472.52 294.563C471.799 294.563 471.215 295.147 471.215 295.869C471.215 296.59 471.799 297.174 472.52 297.174Z" fill="white"/>
<path d="M294.728 264.186C296.17 264.186 297.339 263.017 297.339 261.574C297.339 260.132 296.17 258.963 294.728 258.963C293.286 258.963 292.117 260.132 292.117 261.574C292.117 263.017 293.286 264.186 294.728 264.186Z" fill="white"/>
<path d="M87.8325 422.816C87.8325 422.097 88.4185 421.511 89.1381 421.511C89.8577 421.511 90.4436 422.097 90.4436 422.816C90.4436 423.536 89.8577 424.122 89.1381 424.122C88.4185 424.122 87.8325 423.536 87.8325 422.816Z" fill="white"/>
<path d="M160.923 244.51C160.923 243.071 162.095 241.899 163.534 241.899C164.974 241.899 166.146 243.071 166.146 244.51C166.146 245.949 164.974 247.121 163.534 247.121C162.095 247.121 160.923 245.959 160.923 244.51Z" fill="white"/>
<path d="M110.161 96.5086C110.882 96.5086 111.466 95.9241 111.466 95.203C111.466 94.482 110.882 93.8975 110.161 93.8975C109.44 93.8975 108.855 94.482 108.855 95.203C108.855 95.9241 109.44 96.5086 110.161 96.5086Z" fill="white"/>
<path d="M239.452 118.179C240.894 118.179 242.063 117.01 242.063 115.568C242.063 114.126 240.894 112.957 239.452 112.957C238.01 112.957 236.841 114.126 236.841 115.568C236.841 117.01 238.01 118.179 239.452 118.179Z" fill="white"/>
<path d="M268.791 128.747C269.512 128.747 270.097 128.162 270.097 127.441C270.097 126.72 269.512 126.135 268.791 126.135C268.07 126.135 267.486 126.72 267.486 127.441C267.486 128.162 268.07 128.747 268.791 128.747Z" fill="white"/>
<path d="M318.978 137.526C318.978 135.367 320.726 133.63 322.874 133.63C325.033 133.63 326.77 135.377 326.77 137.526C326.77 139.685 325.023 141.422 322.874 141.422C320.726 141.422 318.978 139.674 318.978 137.526Z" fill="white"/>
<path d="M340.515 234.415C342.667 234.415 344.411 232.67 344.411 230.519C344.411 228.367 342.667 226.623 340.515 226.623C338.363 226.623 336.619 228.367 336.619 230.519C336.619 232.67 338.363 234.415 340.515 234.415Z" fill="white"/>
<path d="M302.088 315.925C302.088 313.766 303.835 312.029 305.984 312.029C308.143 312.029 309.88 313.776 309.88 315.925C309.88 318.073 308.133 319.821 305.984 319.821C303.835 319.821 302.088 318.073 302.088 315.925Z" fill="white"/>
</g>
<defs>
<clipPath id="clip0_136_2891">
<rect width="514" height="514" fill="white"/>
</clipPath>
</defs>
</svg>
