<svg width="54" height="53" viewBox="0 0 54 53" fill="none" xmlns="http://www.w3.org/2000/svg">
<rect opacity="0.1" x="0.125" width="53" height="53" rx="4" fill="#0074D9"/>
<path d="M27.25 18.456C28.05 18.456 28.77 18.572 29.41 18.804C30.058 19.028 30.61 19.344 31.066 19.752C31.522 20.152 31.87 20.624 32.11 21.168C32.358 21.712 32.482 22.3 32.482 22.932C32.482 23.484 32.418 23.972 32.29 24.396C32.17 24.812 31.99 25.176 31.75 25.488C31.518 25.8 31.23 26.064 30.886 26.28C30.55 26.496 30.166 26.676 29.734 26.82C30.774 27.148 31.55 27.648 32.062 28.32C32.574 28.992 32.83 29.836 32.83 30.852C32.83 31.716 32.67 32.48 32.35 33.144C32.03 33.808 31.598 34.368 31.054 34.824C30.51 35.272 29.878 35.612 29.158 35.844C28.446 36.076 27.69 36.192 26.89 36.192C26.018 36.192 25.258 36.092 24.61 35.892C23.962 35.692 23.398 35.396 22.918 35.004C22.438 34.612 22.03 34.132 21.694 33.564C21.358 32.996 21.07 32.34 20.83 31.596L22.138 31.056C22.362 30.96 22.59 30.912 22.822 30.912C23.03 30.912 23.214 30.956 23.374 31.044C23.542 31.132 23.67 31.26 23.758 31.428C23.902 31.708 24.058 31.984 24.226 32.256C24.402 32.528 24.61 32.772 24.85 32.988C25.09 33.196 25.37 33.368 25.69 33.504C26.018 33.632 26.406 33.696 26.854 33.696C27.358 33.696 27.798 33.616 28.174 33.456C28.55 33.288 28.862 33.072 29.11 32.808C29.366 32.544 29.554 32.252 29.674 31.932C29.802 31.604 29.866 31.276 29.866 30.948C29.866 30.532 29.822 30.156 29.734 29.82C29.646 29.476 29.462 29.184 29.182 28.944C28.902 28.704 28.498 28.516 27.97 28.38C27.45 28.244 26.75 28.176 25.87 28.176V26.064C26.598 26.056 27.202 25.988 27.682 25.86C28.162 25.732 28.542 25.556 28.822 25.332C29.11 25.1 29.31 24.824 29.422 24.504C29.534 24.184 29.59 23.832 29.59 23.448C29.59 22.624 29.366 22.004 28.918 21.588C28.47 21.164 27.858 20.952 27.082 20.952C26.378 20.952 25.794 21.14 25.33 21.516C24.866 21.884 24.542 22.36 24.358 22.944C24.262 23.248 24.13 23.468 23.962 23.604C23.794 23.732 23.574 23.796 23.302 23.796C23.174 23.796 23.038 23.784 22.894 23.76L21.334 23.484C21.454 22.652 21.686 21.924 22.03 21.3C22.374 20.668 22.802 20.144 23.314 19.728C23.834 19.304 24.426 18.988 25.09 18.78C25.762 18.564 26.482 18.456 27.25 18.456Z" fill="#0074D9"/>
</svg>
