<svg width="53" height="53" viewBox="0 0 53 53" fill="none" xmlns="http://www.w3.org/2000/svg">
<rect opacity="0.1" width="53" height="53" rx="4" fill="#377DFF"/>
<g clip-path="url(#clip0_112_407)">
<path d="M28.173 23.2387C25.7819 20.6085 21.7569 20.4491 19.1665 22.8003C19.047 22.92 18.8877 23.0395 18.768 23.1989L18.6086 23.4779L18.8079 23.717L18.8478 23.7567C21.199 26.3471 25.2241 26.5067 27.8144 24.1553C27.9339 24.0358 28.0933 23.9163 28.2129 23.7567L28.4122 23.4779L28.173 23.2387ZM22.6736 23.4779C22.6736 23.0395 23.0322 22.6809 23.4706 22.6809C23.9088 22.6809 24.2677 23.0395 24.2677 23.4779C24.2677 23.9163 23.9088 24.2749 23.4706 24.2749C23.0322 24.2749 22.6736 23.9163 22.6736 23.4779ZM22.9524 21.9634C22.1155 22.2425 21.6773 23.1193 21.9163 23.956C22.0758 24.4343 22.4344 24.8328 22.9524 24.9922C21.717 24.8727 20.5214 24.3545 19.6049 23.4779C20.5613 22.6011 21.717 22.0831 22.9524 21.9634ZM23.9886 24.9922C24.8255 24.7133 25.2639 23.8365 25.0248 22.9996C24.8654 22.5215 24.5066 22.123 23.9886 21.9634C25.2241 22.0831 26.4196 22.6011 27.3361 23.4779C26.3797 24.3545 25.2241 24.8727 23.9886 24.9922Z" fill="#377DFF"/>
<path d="M23.4706 16.7031C19.7244 16.7031 16.6958 19.7319 16.6958 23.4779C16.6958 27.2239 19.7244 30.2527 23.4706 30.2527C27.2166 30.2527 30.2454 27.2239 30.2454 23.4779C30.2454 19.7319 27.2166 16.7031 23.4706 16.7031ZM23.4706 29.4557C20.1628 29.4557 17.4928 26.7855 17.4928 23.4779C17.4928 20.1701 20.1628 17.5002 23.4706 17.5002C26.7782 17.5002 29.4483 20.1701 29.4483 23.4779C29.4483 26.7855 26.7782 29.4557 23.4706 29.4557Z" fill="#377DFF"/>
<path d="M37.0201 32.2452V19.0941C37.0201 17.9782 36.1432 17.1016 35.0275 17.1016H30.6438V17.8986H35.0275C35.7048 17.8986 36.223 18.4166 36.223 19.0941V32.2452H37.0201Z" fill="#377DFF"/>
<path d="M17.0942 31.0496V35.0347C17.0942 36.1505 17.9709 37.0273 19.0868 37.0273H33.0349V36.2303H19.0868C18.4093 36.2303 17.8913 35.7121 17.8913 35.0347V31.0496H17.0942Z" fill="#377DFF"/>
<path d="M31.8394 19.0942H35.426V19.8913H31.8394V19.0942Z" fill="#377DFF"/>
<path d="M32.6365 21.0867H35.4261V21.8837H32.6365V21.0867Z" fill="#377DFF"/>
<path d="M32.6365 23.0793H35.4261V23.8764H32.6365V23.0793Z" fill="#377DFF"/>
<path d="M32.6365 25.0718H35.4261V25.8688H32.6365V25.0718Z" fill="#377DFF"/>
<path d="M32.6365 27.0645H35.4261V27.8615H32.6365V27.0645Z" fill="#377DFF"/>
<path d="M33.0349 29.0571H35.426V29.8542H33.0349V29.0571Z" fill="#377DFF"/>
<path d="M18.6885 32.6438H29.4484V33.4408H18.6885V32.6438Z" fill="#377DFF"/>
<path d="M18.6885 34.2378H31.0425V35.0348H18.6885V34.2378Z" fill="#377DFF"/>
<path d="M20.6809 26.666H26.2601V27.463H20.6809V26.666Z" fill="#377DFF"/>
<path d="M20.6809 19.4927H26.2601V20.2897H20.6809V19.4927Z" fill="#377DFF"/>
<path d="M34.3501 31.8068C34.1109 31.5676 33.8321 31.4482 33.5132 31.4482H33.2343L30.3649 28.2201C32.9952 24.3943 32.0785 19.1737 28.2529 16.5038C24.4271 13.8337 19.1666 14.8299 16.5363 18.6159C13.9063 22.4018 14.8228 27.6623 18.6486 30.3322C21.6773 32.4445 25.7421 32.3248 28.6514 30.0135L31.441 33.1617V33.4806C31.441 33.7994 31.5605 34.1181 31.7996 34.3174L35.9442 38.4621C36.6614 39.1794 37.7774 39.1794 38.4946 38.4621C39.2121 37.7447 39.2121 36.6289 38.4946 35.9114L34.3501 31.8068ZM15.8989 23.4778C15.8989 19.2934 19.2862 15.906 23.4707 15.906C27.6551 15.906 31.0425 19.2934 31.0425 23.4778C31.0425 27.6623 27.6551 31.0497 23.4707 31.0497C19.2862 31.0497 15.8989 27.6623 15.8989 23.4778ZM29.2492 29.5352C29.4484 29.3359 29.6874 29.097 29.8469 28.8977L32.477 31.8467L31.8395 32.4445L29.2492 29.5352ZM37.2195 38.223C36.9405 38.223 36.7013 38.1033 36.502 37.9439L32.3575 33.7994C32.2777 33.7196 32.238 33.64 32.238 33.5203V33.2016L33.1944 32.2452H33.5132C33.6328 32.2452 33.7124 32.2851 33.7922 32.3647L37.9367 36.5092C38.3353 36.9077 38.3353 37.5454 37.9367 37.9439C37.7375 38.1033 37.4584 38.223 37.2195 38.223Z" fill="#377DFF"/>
</g>
<defs>
<clipPath id="clip0_112_407">
<rect width="24" height="24" fill="white" transform="translate(15 15)"/>
</clipPath>
</defs>
</svg>
