<svg width="500" height="500" viewBox="0 0 500 500" fill="none" xmlns="http://www.w3.org/2000/svg">
<path d="M500 0H0V500H500V0Z" fill="white"/>
<path d="M357.789 453.918C444.901 409.702 478.717 280.063 447.826 188.26C413.567 86.4433 310.342 62.7392 292.586 59.0767C230.816 46.3311 121.831 52.9219 75.7159 131.763C24.4628 219.386 88.6744 331.615 134.021 381.579C145.91 394.675 251.709 507.762 357.789 453.918Z" fill="#ECF3FE"/>
<path opacity="0.2" d="M216.758 371.149L50.7273 391.894C46.6764 392.4 42.9474 389.499 42.4415 385.448L16.8073 180.282C16.3014 176.231 19.2024 172.502 23.2533 171.996L189.285 151.251C193.335 150.745 197.064 153.646 197.57 157.697L223.205 362.861C223.71 366.914 220.809 370.643 216.758 371.149Z" fill="#3A7EC1"/>
<path d="M225.819 360.74L59.7879 381.485C55.7369 381.991 52.008 379.09 51.5021 375.039L25.8679 169.876C25.3619 165.825 28.263 162.096 32.3139 161.59L198.345 140.845C202.396 140.339 206.125 143.24 206.633 147.291L232.267 352.454C232.771 356.505 229.87 360.234 225.819 360.74Z" fill="#5899F9"/>
<path d="M223.636 351.955L59.7448 372.433C58.9391 372.533 58.1981 371.958 58.0976 371.152L32.2555 164.322C32.155 163.516 32.7308 162.775 33.5366 162.675L197.428 142.197C198.234 142.097 198.975 142.672 199.075 143.478L224.917 350.308C225.018 351.114 224.442 351.855 223.636 351.955Z" fill="white"/>
<path d="M60.802 202.066L49.932 203.424C48.6015 203.591 47.3835 202.644 47.2166 201.313L45.8589 190.443C45.692 189.113 46.6408 187.895 47.9712 187.728L58.8412 186.37C60.1717 186.203 61.3897 187.152 61.5549 188.483L62.9126 199.353C63.0795 200.683 62.1324 201.901 60.802 202.066ZM48.2233 189.757C48.0104 189.784 47.8588 189.978 47.8861 190.191L49.2438 201.061C49.271 201.274 49.4652 201.426 49.6781 201.399L60.5481 200.041C60.7611 200.014 60.9127 199.819 60.8854 199.607L59.5278 188.737C59.5005 188.524 59.3063 188.372 59.0934 188.399L48.2233 189.757Z" fill="#E4ECF9"/>
<path d="M64.2619 229.76L53.3919 231.118C52.0615 231.285 50.8435 230.338 50.6765 229.007L49.3189 218.137C49.1519 216.807 50.1008 215.589 51.4312 215.422L62.3012 214.064C63.6316 213.897 64.8496 214.846 65.0149 216.177L66.3726 227.047C66.5395 228.377 65.5923 229.593 64.2619 229.76ZM51.6833 217.449C51.4704 217.476 51.3188 217.671 51.346 217.883L52.7037 228.753C52.731 228.966 52.9252 229.118 53.1381 229.091L64.0081 227.733C64.221 227.706 64.3726 227.512 64.3454 227.299L62.9877 216.429C62.9604 216.216 62.7662 216.064 62.5533 216.091L51.6833 217.449Z" fill="#E4ECF9"/>
<path d="M67.7209 257.454L56.8509 258.812C55.5205 258.978 54.3025 258.031 54.1355 256.701L52.7778 245.831C52.6109 244.5 53.5597 243.282 54.8902 243.116L65.7602 241.758C67.0906 241.591 68.3086 242.54 68.4738 243.87L69.8315 254.74C69.9985 256.069 69.0513 257.287 67.7209 257.454ZM55.1423 245.143C54.9293 245.17 54.7777 245.364 54.805 245.577L56.1627 256.447C56.1899 256.66 56.3841 256.812 56.5971 256.784L67.4671 255.427C67.68 255.399 67.8316 255.205 67.8044 254.992L66.4467 244.122C66.4194 243.909 66.2252 243.758 66.0123 243.785L55.1423 245.143Z" fill="#E4ECF9"/>
<path d="M71.1809 285.146L60.3109 286.504C58.9804 286.671 57.7624 285.723 57.5955 284.393L56.2378 273.523C56.0709 272.193 57.0197 270.975 58.3501 270.808L69.2201 269.45C70.5506 269.283 71.7686 270.232 71.9338 271.562L73.2915 282.432C73.4584 283.763 72.5113 284.981 71.1809 285.146ZM58.6023 272.835C58.3893 272.862 58.2377 273.056 58.265 273.269L59.6226 284.139C59.6499 284.352 59.8441 284.504 60.057 284.476L70.927 283.119C71.14 283.092 71.2916 282.897 71.2643 282.684L69.9067 271.814C69.8794 271.601 69.6852 271.45 69.4723 271.477L58.6023 272.835Z" fill="#E4ECF9"/>
<path d="M64.0024 186.762L63.9513 186.786C63.3295 187.079 62.7606 187.415 62.2206 187.771L61.4199 188.314L60.6704 188.897C59.679 189.68 58.7591 190.518 57.9141 191.416C57.0266 192.28 56.2651 193.242 55.5071 194.208C55.0863 194.752 54.6911 195.317 54.3095 195.891C53.9467 195.711 53.5753 195.539 53.1938 195.38C52.6776 195.138 52.1171 194.953 51.5686 194.753C51.0048 194.573 50.4324 194.402 49.8174 194.288L49.7612 194.278C49.7203 194.271 49.6777 194.285 49.6488 194.319C49.6079 194.368 49.6147 194.443 49.6641 194.484C51.3812 195.9 53.1273 197.278 54.8751 198.654C54.9705 198.728 55.1085 198.711 55.18 198.617C56.7081 196.697 58.2225 194.767 59.7045 192.81L61.9412 189.886C62.6941 188.917 63.4096 187.921 64.1455 186.939C64.1711 186.905 64.1762 186.859 64.1574 186.818C64.1302 186.759 64.0603 186.733 64.0024 186.762Z" fill="#52D1BD"/>
<path d="M70.8725 241.761L70.8214 241.785C70.1997 242.078 69.6307 242.414 69.0907 242.77L68.29 243.313L67.5405 243.896C66.5491 244.679 65.6292 245.517 64.7842 246.415C63.8967 247.279 63.1353 248.241 62.3772 249.207C61.9564 249.751 61.5612 250.316 61.1796 250.89C60.8168 250.71 60.4454 250.538 60.0639 250.379C59.5477 250.137 58.9873 249.952 58.4387 249.752C57.8749 249.572 57.3025 249.401 56.6875 249.287L56.6313 249.277C56.5904 249.27 56.5478 249.284 56.5189 249.318C56.478 249.367 56.4848 249.442 56.5342 249.483C58.2513 250.899 59.9974 252.277 61.7452 253.653C61.8406 253.727 61.9786 253.71 62.0501 253.616C63.5782 251.696 65.0926 249.766 66.5746 247.809L68.8113 244.885C69.5643 243.916 70.2797 242.92 71.0156 241.938C71.0412 241.904 71.0463 241.858 71.0276 241.817C71.002 241.758 70.9322 241.732 70.8725 241.761Z" fill="#52D1BD"/>
<path d="M74.3335 269.453L74.2824 269.477C73.6606 269.77 73.0916 270.106 72.5516 270.462L71.751 271.005L71.0014 271.588C70.01 272.371 69.0901 273.21 68.2452 274.107C67.3577 274.971 66.5962 275.933 65.8381 276.899C65.4174 277.443 65.0222 278.008 64.6406 278.582C64.2777 278.402 63.9064 278.23 63.5248 278.071C63.0086 277.829 62.4482 277.644 61.8997 277.444C61.3358 277.264 60.7634 277.093 60.1485 276.979L60.0923 276.969C60.0514 276.962 60.0088 276.976 59.9798 277.01C59.9389 277.059 59.9458 277.134 59.9952 277.175C61.7123 278.591 63.4584 279.969 65.2061 281.345C65.3015 281.419 65.4395 281.402 65.5111 281.308C67.0391 279.388 68.5535 277.458 70.0356 275.501L72.2723 272.578C73.0252 271.608 73.7407 270.612 74.4766 269.63C74.5021 269.596 74.5072 269.55 74.4885 269.51C74.4612 269.452 74.3914 269.426 74.3335 269.453Z" fill="#52D1BD"/>
<path d="M189.377 176.11L77.2698 190.116C75.401 190.35 73.6975 189.025 73.4641 187.156C73.2308 185.287 74.5561 183.584 76.4248 183.35L188.532 169.344C190.401 169.111 192.104 170.436 192.337 172.305C192.571 174.172 191.246 175.875 189.377 176.11Z" fill="#E4ECF9"/>
<path d="M190.694 186.662L78.5871 200.668C76.7184 200.901 75.0149 199.576 74.7815 197.707C74.5482 195.838 75.8735 194.135 77.7422 193.901L189.849 179.895C191.718 179.662 193.421 180.987 193.655 182.856C193.888 184.725 192.563 186.428 190.694 186.662Z" fill="#E4ECF9"/>
<path d="M192.836 203.802L80.7287 217.809C78.86 218.042 77.1565 216.717 76.9231 214.848C76.6898 212.979 78.0151 211.276 79.8838 211.042L191.991 197.036C193.86 196.803 195.563 198.128 195.796 199.997C196.03 201.866 194.705 203.569 192.836 203.802Z" fill="#E4ECF9"/>
<path d="M194.155 214.355L82.0481 228.362C80.1793 228.595 78.4758 227.27 78.2425 225.401C78.0091 223.532 79.3344 221.829 81.2031 221.595L193.31 207.589C195.179 207.356 196.882 208.681 197.116 210.55C197.349 212.417 196.024 214.122 194.155 214.355Z" fill="#E4ECF9"/>
<path d="M196.296 231.496L84.1887 245.502C82.32 245.736 80.6165 244.41 80.3831 242.542C80.1497 240.673 81.475 238.969 83.3438 238.736L195.451 224.73C197.32 224.496 199.023 225.822 199.256 227.69C199.49 229.557 198.164 231.263 196.296 231.496Z" fill="#E4ECF9"/>
<path d="M197.615 242.048L85.508 256.054C83.6393 256.287 81.9358 254.962 81.7024 253.093C81.4691 251.224 82.7944 249.521 84.6631 249.287L196.77 235.281C198.639 235.048 200.342 236.373 200.576 238.242C200.809 240.111 199.484 241.814 197.615 242.048Z" fill="#E4ECF9"/>
<path d="M199.757 259.188L87.6497 273.194C85.7809 273.427 84.0774 272.102 83.844 270.233C83.6107 268.365 84.936 266.661 86.8047 266.428L198.912 252.422C200.78 252.188 202.484 253.514 202.717 255.382C202.951 257.251 201.625 258.955 199.757 259.188Z" fill="#E4ECF9"/>
<path d="M201.074 269.741L88.967 283.747C87.0983 283.981 85.3948 282.655 85.1614 280.787C84.928 278.918 86.2534 277.214 88.1221 276.981L200.229 262.975C202.098 262.742 203.801 264.067 204.035 265.936C204.268 267.803 202.943 269.508 201.074 269.741Z" fill="#E4ECF9"/>
<path d="M78.2131 341.423L67.3431 342.78C66.0127 342.947 64.7947 342 64.6277 340.67L63.27 329.8C63.1031 328.469 64.0519 327.251 65.3824 327.084L76.2524 325.727C77.5828 325.56 78.8008 326.508 78.966 327.839L80.3237 338.709C80.4907 340.039 79.5435 341.257 78.2131 341.423ZM65.6345 329.111C65.4215 329.139 65.2699 329.333 65.2972 329.546L66.6549 340.416C66.6821 340.629 66.8763 340.78 67.0893 340.753L77.9593 339.395C78.1722 339.368 78.3238 339.174 78.2966 338.961L76.9389 328.091C76.9116 327.878 76.7174 327.726 76.5045 327.754L65.6345 329.111Z" fill="#E4ECF9"/>
<path d="M81.3647 325.73L81.3136 325.754C80.6918 326.047 80.1229 326.383 79.5829 326.739L78.7822 327.282L78.0327 327.865C77.0413 328.648 76.1214 329.486 75.2764 330.384C74.3889 331.248 73.6275 332.21 72.8694 333.176C72.4486 333.72 72.0534 334.285 71.6718 334.859C71.309 334.679 70.9376 334.507 70.5561 334.348C70.0399 334.106 69.4794 333.921 68.9309 333.721C68.3671 333.541 67.7947 333.37 67.1797 333.256L67.1235 333.246C67.0826 333.239 67.04 333.253 67.0111 333.287C66.9702 333.336 66.977 333.411 67.0264 333.452C68.7435 334.868 70.4896 336.246 72.2374 337.622C72.3328 337.695 72.4708 337.678 72.5423 337.585C74.0704 335.665 75.5848 333.735 77.0668 331.778L79.3035 328.854C80.0564 327.885 80.7719 326.889 81.5078 325.907C81.5334 325.873 81.5385 325.827 81.5197 325.786C81.4942 325.728 81.4244 325.703 81.3647 325.73Z" fill="#52D1BD"/>
<path d="M206.787 315.465L94.6799 329.471C92.8112 329.704 91.1077 328.379 90.8743 326.51C90.6409 324.642 91.9662 322.938 93.835 322.705L205.942 308.699C207.811 308.465 209.514 309.79 209.748 311.659C209.981 313.528 208.656 315.231 206.787 315.465Z" fill="#E4ECF9"/>
<path d="M208.106 326.018L95.9993 340.024C94.1305 340.257 92.427 338.932 92.1936 337.063C91.9603 335.195 93.2856 333.491 95.1543 333.258L207.261 319.252C209.13 319.018 210.834 320.343 211.067 322.212C211.3 324.079 209.975 325.784 208.106 326.018Z" fill="#E4ECF9"/>
<path d="M74.7424 313.657L63.8724 315.015C62.5419 315.182 61.324 314.235 61.157 312.904L59.7993 302.034C59.6324 300.704 60.5812 299.486 61.9117 299.319L72.7817 297.961C74.1121 297.794 75.3301 298.743 75.4953 300.074L76.853 310.944C77.02 312.272 76.0728 313.49 74.7424 313.657ZM62.1638 301.346C61.9508 301.374 61.7992 301.568 61.8265 301.781L63.1842 312.651C63.2114 312.864 63.4056 313.015 63.6186 312.988L74.4886 311.63C74.7015 311.603 74.8531 311.409 74.8259 311.196L73.4682 300.326C73.4409 300.113 73.2467 299.961 73.0338 299.989L62.1638 301.346Z" fill="#E4ECF9"/>
<path d="M203.319 287.699L91.2121 301.706C89.3434 301.939 87.6399 300.614 87.4065 298.745C87.1732 296.876 88.4985 295.173 90.3672 294.939L202.474 280.933C204.343 280.7 206.046 282.025 206.28 283.894C206.513 285.761 205.186 287.464 203.319 287.699Z" fill="#E4ECF9"/>
<path d="M204.639 298.251L92.5315 312.257C90.6627 312.49 88.9592 311.165 88.7259 309.296C88.4925 307.428 89.8178 305.724 91.6865 305.491L203.794 291.485C205.662 291.251 207.366 292.577 207.599 294.445C207.831 296.314 206.506 298.018 204.639 298.251Z" fill="#E4ECF9"/>
<path d="M214.273 340.044L65.8862 358.584C65.3342 358.653 64.8249 358.257 64.755 357.705C64.6852 357.153 65.0821 356.643 65.634 356.573L214.02 338.034C214.572 337.964 215.082 338.361 215.152 338.913C215.221 339.467 214.826 339.976 214.273 340.044Z" fill="#52D1BD"/>
<path d="M46.2521 169.032C46.9622 167.733 46.4844 166.104 45.185 165.394C43.8855 164.684 42.2565 165.162 41.5464 166.461C40.8364 167.761 41.3141 169.39 42.6136 170.1C43.913 170.81 45.542 170.332 46.2521 169.032Z" fill="#333333"/>
<path d="M44.0356 168.756C43.0561 168.879 42.1549 168.177 42.0323 167.198L40.4514 154.542C40.3288 153.563 41.0306 152.662 42.0101 152.539C42.9896 152.416 43.8908 153.118 44.0134 154.098L45.5943 166.753C45.7152 167.733 45.0151 168.634 44.0356 168.756Z" fill="#474747"/>
<path d="M58.059 167.943C58.9955 166.796 58.8247 165.107 57.6775 164.17C56.5303 163.234 54.8411 163.404 53.9046 164.552C52.9682 165.699 53.139 167.388 54.2862 168.325C55.4334 169.261 57.1226 169.09 58.059 167.943Z" fill="#333333"/>
<path d="M56.0942 167.249C55.1147 167.371 54.2135 166.67 54.0909 165.69L52.51 153.035C52.3874 152.055 53.0892 151.154 54.0687 151.031C55.0482 150.909 55.9494 151.611 56.072 152.59L57.6529 165.245C57.7738 166.225 57.0737 167.126 56.0942 167.249Z" fill="#474747"/>
<path d="M69.1685 167.159C70.5049 166.521 71.0714 164.921 70.4338 163.584C69.7961 162.248 68.1958 161.681 66.8593 162.319C65.5229 162.956 64.9564 164.557 65.594 165.893C66.2317 167.23 67.832 167.796 69.1685 167.159Z" fill="#333333"/>
<path d="M68.1537 165.743C67.1742 165.866 66.2731 165.164 66.1504 164.184L64.5696 151.529C64.4469 150.549 65.1488 149.648 66.1283 149.526C67.1078 149.403 68.0089 150.105 68.1316 151.084L69.7124 163.74C69.8334 164.719 69.1332 165.62 68.1537 165.743Z" fill="#474747"/>
<path d="M82.7646 163.515C82.9258 162.043 81.8632 160.719 80.3911 160.557C78.919 160.396 77.5949 161.459 77.4336 162.931C77.2723 164.403 78.335 165.727 79.8071 165.888C81.2792 166.05 82.6033 164.987 82.7646 163.515Z" fill="#333333"/>
<path d="M80.2123 164.235C79.2328 164.358 78.3317 163.656 78.209 162.676L76.6282 150.021C76.5055 149.042 77.2074 148.14 78.1869 148.018C79.1664 147.895 80.0675 148.597 80.1902 149.577L81.771 162.232C81.8937 163.211 81.1918 164.112 80.2123 164.235Z" fill="#474747"/>
<path d="M94.0404 163.619C95.0875 162.572 95.0875 160.874 94.0404 159.827C92.9933 158.78 91.2956 158.78 90.2485 159.827C89.2014 160.874 89.2014 162.572 90.2485 163.619C91.2956 164.666 92.9933 164.666 94.0404 163.619Z" fill="#333333"/>
<path d="M92.2709 162.729C91.2914 162.852 90.3903 162.15 90.2676 161.171L88.6868 148.515C88.5641 147.536 89.266 146.635 90.2455 146.512C91.225 146.389 92.1261 147.091 92.2488 148.071L93.8296 160.726C93.9523 161.705 93.2504 162.607 92.2709 162.729Z" fill="#474747"/>
<path d="M106.097 162.125C107.155 161.088 107.172 159.391 106.136 158.333C105.099 157.275 103.402 157.258 102.344 158.294C101.286 159.331 101.269 161.028 102.305 162.086C103.342 163.144 105.039 163.161 106.097 162.125Z" fill="#333333"/>
<path d="M104.332 161.222C103.353 161.344 102.452 160.643 102.329 159.663L100.748 147.008C100.626 146.028 101.327 145.127 102.307 145.005C103.287 144.882 104.188 145.584 104.31 146.563L105.891 159.218C106.012 160.198 105.31 161.099 104.332 161.222Z" fill="#474747"/>
<path d="M117.077 161.281C118.488 160.83 119.265 159.32 118.814 157.91C118.362 156.499 116.853 155.722 115.442 156.174C114.032 156.625 113.255 158.135 113.706 159.545C114.158 160.955 115.667 161.733 117.077 161.281Z" fill="#333333"/>
<path d="M116.391 159.716C115.412 159.839 114.51 159.137 114.388 158.157L112.807 145.502C112.684 144.522 113.386 143.621 114.366 143.499C115.345 143.376 116.246 144.078 116.369 145.057L117.95 157.713C118.071 158.692 117.371 159.593 116.391 159.716Z" fill="#474747"/>
<path d="M130.674 158.479C131.387 157.181 130.913 155.551 129.615 154.838C128.317 154.125 126.687 154.599 125.974 155.896C125.261 157.194 125.735 158.824 127.033 159.538C128.33 160.251 129.961 159.777 130.674 158.479Z" fill="#333333"/>
<path d="M128.451 158.208C127.471 158.331 126.57 157.629 126.447 156.65L124.866 143.994C124.744 143.015 125.446 142.114 126.425 141.991C127.405 141.868 128.306 142.57 128.428 143.55L130.009 156.205C130.13 157.184 129.43 158.086 128.451 158.208Z" fill="#474747"/>
<path d="M142.5 157.351C143.409 156.182 143.199 154.497 142.03 153.588C140.861 152.679 139.177 152.889 138.267 154.058C137.358 155.227 137.569 156.912 138.737 157.821C139.906 158.73 141.591 158.52 142.5 157.351Z" fill="#333333"/>
<path d="M140.51 156.702C139.531 156.825 138.63 156.123 138.507 155.144L136.926 142.488C136.803 141.509 137.505 140.608 138.485 140.485C139.464 140.362 140.365 141.064 140.488 142.044L142.069 154.699C142.19 155.679 141.49 156.58 140.51 156.702Z" fill="#474747"/>
<path d="M153.345 156.711C154.736 156.203 155.452 154.664 154.945 153.273C154.437 151.882 152.898 151.165 151.507 151.673C150.116 152.18 149.4 153.72 149.907 155.111C150.415 156.502 151.954 157.218 153.345 156.711Z" fill="#333333"/>
<path d="M152.569 155.195C151.589 155.317 150.688 154.616 150.565 153.636L148.985 140.981C148.862 140.001 149.564 139.1 150.543 138.978C151.523 138.855 152.424 139.557 152.547 140.536L154.127 153.191C154.25 154.171 153.548 155.072 152.569 155.195Z" fill="#474747"/>
<path d="M166.619 154.337C167.528 153.168 167.318 151.483 166.149 150.574C164.98 149.665 163.296 149.875 162.387 151.044C161.477 152.213 161.688 153.898 162.857 154.807C164.025 155.716 165.71 155.506 166.619 154.337Z" fill="#333333"/>
<path d="M164.628 153.689C163.649 153.812 162.748 153.11 162.625 152.13L161.044 139.475C160.922 138.495 161.623 137.594 162.603 137.472C163.582 137.349 164.484 138.051 164.606 139.03L166.187 151.686C166.31 152.665 165.608 153.566 164.628 153.689Z" fill="#474747"/>
<path d="M176.906 153.823C178.374 153.635 179.413 152.292 179.225 150.823C179.037 149.354 177.694 148.316 176.225 148.504C174.756 148.692 173.718 150.035 173.906 151.504C174.094 152.973 175.437 154.011 176.906 153.823Z" fill="#333333"/>
<path d="M176.688 152.181C175.708 152.304 174.807 151.602 174.685 150.623L173.104 137.967C172.981 136.988 173.683 136.087 174.662 135.964C175.642 135.841 176.543 136.543 176.666 137.523L178.247 150.178C178.369 151.157 177.667 152.059 176.688 152.181Z" fill="#474747"/>
<path d="M189.584 152.167C190.964 151.629 191.646 150.074 191.108 148.695C190.57 147.315 189.015 146.633 187.636 147.171C186.256 147.709 185.574 149.264 186.112 150.643C186.65 152.023 188.205 152.705 189.584 152.167Z" fill="#333333"/>
<path d="M188.747 150.675C187.768 150.798 186.867 150.096 186.744 149.117L185.163 136.461C185.041 135.482 185.743 134.581 186.722 134.458C187.702 134.335 188.603 135.037 188.725 136.017L190.306 148.672C190.427 149.652 189.725 150.553 188.747 150.675Z" fill="#474747"/>
<path opacity="0.2" d="M372.763 133.339L143.661 109.171C140.505 108.838 137.677 111.127 137.345 114.284L106.23 409.244C105.898 412.399 108.186 415.228 111.342 415.56L340.444 439.728C343.6 440.06 346.428 437.772 346.76 434.616L377.875 139.656C378.207 136.501 375.919 133.673 372.763 133.339Z" fill="#3A7EC1"/>
<path d="M354.358 428.251L125.257 404.084C122.1 403.752 119.812 400.922 120.144 397.767L151.259 102.807C151.591 99.6506 154.42 97.3628 157.575 97.695L386.677 121.863C389.833 122.195 392.121 125.024 391.789 128.179L360.674 423.139C360.342 426.296 357.514 428.584 354.358 428.251Z" fill="white"/>
<path d="M204.17 168.258L169.713 164.623L161.686 240.725L196.142 244.359L204.17 168.258Z" fill="#F4B545"/>
<path d="M243.109 210.839L208.652 207.204L204.639 245.256L239.095 248.891L243.109 210.839Z" fill="#52D1BD"/>
<path d="M287.598 200.779L253.142 197.145L247.589 249.786L282.046 253.421L287.598 200.779Z" fill="#5899F9"/>
<path d="M307.873 192.522C309.4 191.799 310.051 189.974 309.328 188.447C308.604 186.92 306.78 186.269 305.253 186.992C303.726 187.716 303.075 189.54 303.798 191.067C304.521 192.594 306.346 193.245 307.873 192.522Z" fill="#F4B545"/>
<path d="M359.856 198.464L316.904 193.932C315.231 193.755 314.006 192.243 314.182 190.57C314.359 188.897 315.872 187.672 317.544 187.848L360.496 192.379C362.169 192.556 363.394 194.069 363.219 195.742C363.041 197.414 361.529 198.639 359.856 198.464Z" fill="#E4ECF9"/>
<path d="M358.695 209.47L305.094 203.816C303.422 203.639 302.197 202.126 302.372 200.453C302.549 198.78 304.062 197.556 305.735 197.731L359.335 203.385C361.008 203.562 362.233 205.075 362.058 206.748C361.882 208.421 360.368 209.645 358.695 209.47Z" fill="#E4ECF9"/>
<path d="M305.786 217.889C307.099 216.826 307.303 214.9 306.24 213.586C305.177 212.272 303.251 212.069 301.937 213.132C300.623 214.195 300.42 216.121 301.483 217.435C302.546 218.748 304.472 218.952 305.786 217.889Z" fill="#52D1BD"/>
<path d="M357.142 224.195L314.19 219.664C312.517 219.486 311.292 217.974 311.468 216.301C311.645 214.628 313.158 213.403 314.831 213.579L357.783 218.11C359.455 218.287 360.68 219.8 360.505 221.473C360.329 223.146 358.817 224.37 357.142 224.195Z" fill="#E4ECF9"/>
<path d="M355.982 235.201L302.381 229.547C300.709 229.37 299.484 227.858 299.659 226.185C299.836 224.512 301.349 223.287 303.022 223.463L356.622 229.116C358.295 229.294 359.52 230.806 359.345 232.479C359.167 234.152 357.655 235.377 355.982 235.201Z" fill="#E4ECF9"/>
<path d="M304.171 241.705C304.419 240.034 303.264 238.478 301.593 238.231C299.921 237.984 298.366 239.139 298.119 240.81C297.871 242.481 299.026 244.037 300.697 244.284C302.369 244.531 303.924 243.377 304.171 241.705Z" fill="#5899F9"/>
<path d="M354.427 249.924L311.475 245.393C309.802 245.216 308.578 243.703 308.753 242.03C308.93 240.358 310.443 239.133 312.116 239.308L355.068 243.84C356.741 244.017 357.965 245.529 357.79 247.202C357.614 248.877 356.1 250.102 354.427 249.924Z" fill="#E4ECF9"/>
<path d="M353.266 260.932L299.666 255.278C297.993 255.101 296.768 253.589 296.943 251.916C297.121 250.243 298.633 249.018 300.306 249.193L353.907 254.847C355.58 255.025 356.804 256.537 356.629 258.21C356.453 259.883 354.941 261.108 353.266 260.932Z" fill="#E4ECF9"/>
<path d="M207.872 276.33L162.767 271.573C160.404 271.324 158.675 269.186 158.925 266.825C159.174 264.462 161.312 262.733 163.673 262.984L208.778 267.741C211.141 267.99 212.87 270.128 212.62 272.489C212.371 274.852 210.233 276.581 207.872 276.33Z" fill="#52D1BD"/>
<path d="M346.543 312.674L160.502 293.05C158.139 292.801 156.41 290.664 156.661 288.302C156.91 285.94 159.047 284.211 161.408 284.461L347.449 304.085C349.812 304.334 351.541 306.472 351.29 308.833C351.042 311.194 348.904 312.923 346.543 312.674Z" fill="#E4ECF9"/>
<path d="M344.277 334.15L158.237 314.526C155.874 314.277 154.145 312.139 154.395 309.778C154.644 307.416 156.782 305.687 159.143 305.937L345.183 325.561C347.546 325.81 349.275 327.948 349.025 330.309C348.776 332.67 346.638 334.399 344.277 334.15Z" fill="#E4ECF9"/>
<path d="M342.01 355.626L155.97 336C153.607 335.752 151.878 333.614 152.129 331.253C152.377 328.89 154.515 327.161 156.876 327.411L342.917 347.037C345.279 347.286 347.008 349.424 346.758 351.785C346.509 354.146 344.373 355.875 342.01 355.626Z" fill="#E4ECF9"/>
<path d="M317.822 374.789L153.705 357.476C151.343 357.228 149.614 355.09 149.864 352.729C150.113 350.366 152.251 348.637 154.612 348.887L318.728 366.2C321.091 366.449 322.82 368.587 322.569 370.948C322.321 373.309 320.185 375.038 317.822 374.789Z" fill="#E4ECF9"/>
<path d="M225.926 136.908L177.511 131.801C175.148 131.552 173.419 129.414 173.67 127.053C173.918 124.69 176.056 122.961 178.417 123.212L226.832 128.319C229.195 128.568 230.924 130.705 230.674 133.066C230.427 135.429 228.289 137.158 225.926 136.908Z" fill="#52D1BD"/>
<path d="M361.569 170.218L191.637 152.292C189.274 152.043 187.545 149.905 187.796 147.544C188.044 145.182 190.182 143.453 192.543 143.703L362.475 161.629C364.838 161.878 366.567 164.016 366.317 166.377C366.068 168.738 363.932 170.467 361.569 170.218Z" fill="#E4ECF9"/>
<path opacity="0.2" d="M261.96 246.829C234.706 270.094 231.455 311.063 254.72 338.317C276.003 363.268 312.087 368.096 338.961 350.925L349.41 363.175L345.283 366.696L401.824 432.972C404.582 436.205 409.44 436.59 412.673 433.832L422.891 425.115C426.124 422.357 426.509 417.499 423.751 414.266L367.21 347.99L363.083 351.511L352.633 339.263C373.828 315.431 374.752 279.024 353.466 254.088C330.202 226.817 289.233 223.566 261.96 246.829ZM344.533 261.713C363.59 284.034 360.923 317.587 338.583 336.644C316.243 355.701 282.708 353.034 263.65 330.713C244.593 308.373 247.243 274.819 269.581 255.762C291.923 236.705 325.476 239.373 344.533 261.713Z" fill="#3A7EC1"/>
<path opacity="0.2" d="M307.493 345.7C339.083 345.7 364.691 320.092 364.691 288.502C364.691 256.912 339.083 231.304 307.493 231.304C275.903 231.304 250.295 256.912 250.295 288.502C250.295 320.092 275.903 345.7 307.493 345.7Z" fill="#3A7EC1"/>
<path opacity="0.6" d="M349.754 295.771C349.636 295.774 349.517 295.769 349.398 295.755C347.994 295.602 346.98 294.338 347.135 292.934C347.25 291.904 347.326 290.863 347.36 289.807C348.081 267.825 330.78 249.356 308.798 248.635C305.197 248.512 301.603 248.879 298.131 249.717C296.758 250.04 295.375 249.201 295.046 247.828C294.714 246.455 295.559 245.075 296.932 244.743C300.85 243.802 304.895 243.383 308.967 243.523C333.768 244.335 353.287 265.176 352.472 289.975C352.433 291.161 352.35 292.333 352.222 293.493C352.079 294.779 351.009 295.737 349.754 295.771Z" fill="white"/>
<path d="M353.17 328.222L339.5 339.884L355.081 358.149L368.751 346.487L353.17 328.222Z" fill="#4C4C4C"/>
<path d="M265.365 239.128C238.111 262.392 234.861 303.362 258.125 330.616C281.388 357.889 322.34 361.137 349.613 337.874C376.886 314.611 380.136 273.642 356.872 246.386C333.607 219.115 292.638 215.865 265.365 239.128ZM347.939 254.011C366.996 276.332 364.328 309.886 341.988 328.943C319.649 348 286.114 345.332 267.055 323.011C247.998 300.672 250.649 267.118 272.986 248.061C295.326 229.004 328.882 231.672 347.939 254.011Z" fill="#5E5E5E"/>
<path d="M426.293 417.414L416.076 426.131C412.843 428.889 407.986 428.504 405.226 425.27L348.686 358.994L370.613 340.288L427.154 406.564C429.912 409.798 429.527 414.656 426.293 417.414Z" fill="#5E5E5E"/>
<path opacity="0.2" d="M463.505 196.225C479.23 180.5 479.23 155.005 463.505 139.279C447.78 123.554 422.284 123.554 406.559 139.279C390.834 155.005 390.834 180.5 406.559 196.225C422.284 211.951 447.78 211.951 463.505 196.225Z" fill="#3A7EC1"/>
<path d="M440.957 198.978C463.196 198.978 481.224 180.95 481.224 158.711C481.224 136.472 463.196 118.444 440.957 118.444C418.718 118.444 400.689 136.472 400.689 158.711C400.689 180.95 418.718 198.978 440.957 198.978Z" fill="#F4B545"/>
<path d="M437.926 172.271L445.143 178.63C446.779 180.071 449.356 179.011 449.504 176.836L450.162 167.24C450.222 166.377 450.702 165.598 451.446 165.157L459.724 160.258C461.599 159.147 461.388 156.368 459.366 155.556L450.443 151.965C449.641 151.641 449.048 150.945 448.859 150.1L446.757 140.713C446.281 138.587 443.573 137.93 442.174 139.601L436.003 146.979C435.447 147.643 434.601 147.991 433.739 147.909L424.162 147.006C421.991 146.802 420.53 149.175 421.688 151.02L426.797 159.169C427.257 159.902 427.327 160.815 426.983 161.608L423.165 170.438C422.3 172.438 424.104 174.562 426.218 174.032L435.548 171.691C436.388 171.482 437.277 171.698 437.926 172.271Z" fill="white"/>
<path d="M405.342 301.828C403.735 301.828 402.103 301.763 400.49 301.637C399.565 301.564 398.872 300.755 398.945 299.83C399.018 298.903 399.827 298.213 400.752 298.285C402.279 298.404 403.822 298.465 405.34 298.465C406.556 298.465 407.784 298.426 408.992 298.35C409.149 298.339 409.304 298.329 409.461 298.319C410.384 298.249 411.191 298.951 411.258 299.876C411.324 300.803 410.626 301.607 409.701 301.673C409.536 301.685 409.37 301.695 409.205 301.707C407.929 301.787 406.629 301.828 405.342 301.828ZM418.453 300.402C417.677 300.402 416.98 299.862 416.811 299.072C416.617 298.164 417.196 297.27 418.104 297.075C420.911 296.474 423.748 295.678 426.535 294.707C427.412 294.403 428.371 294.866 428.676 295.741C428.981 296.619 428.518 297.578 427.642 297.883C424.726 298.9 421.753 299.734 418.809 300.363C418.688 300.39 418.569 300.402 418.453 300.402ZM391.765 300.297C391.642 300.297 391.518 300.283 391.393 300.256C389.683 299.871 387.952 299.407 386.247 298.878C385.36 298.603 384.864 297.661 385.138 296.774C385.412 295.886 386.354 295.391 387.242 295.665C388.862 296.167 390.507 296.609 392.133 296.975C393.039 297.179 393.608 298.079 393.403 298.985C393.228 299.765 392.535 300.297 391.765 300.297ZM435.366 294.527C434.744 294.527 434.146 294.179 433.853 293.583C433.446 292.748 433.792 291.742 434.626 291.335C437.267 290.045 439.832 288.594 442.251 287.021C443.03 286.515 444.071 286.737 444.578 287.515C445.084 288.294 444.863 289.335 444.084 289.842C441.553 291.488 438.866 293.006 436.103 294.357C435.865 294.472 435.613 294.527 435.366 294.527ZM450.35 284.751C449.876 284.751 449.406 284.551 449.072 284.165C448.467 283.459 448.547 282.398 449.253 281.793C451.516 279.85 453.588 277.783 455.412 275.647C456.015 274.942 457.077 274.857 457.784 275.461C458.491 276.064 458.572 277.126 457.969 277.833C456.034 280.098 453.838 282.291 451.443 284.345C451.126 284.616 450.736 284.751 450.35 284.751ZM461.865 271.114C461.582 271.114 461.296 271.042 461.032 270.893C460.226 270.433 459.945 269.405 460.405 268.598C460.683 268.112 460.949 267.622 461.204 267.131C460.664 267.009 460.196 266.62 459.995 266.06C459.681 265.186 460.134 264.223 461.008 263.908C461.68 263.668 462.346 263.413 462.983 263.154C463.286 262.351 463.558 261.547 463.797 260.741C464.061 259.851 464.996 259.343 465.887 259.607C466.618 259.823 467.09 260.491 467.092 261.217C467.669 260.903 468.241 260.575 468.804 260.232C469.597 259.75 470.631 260 471.113 260.794C471.596 261.588 471.345 262.622 470.551 263.104C468.95 264.079 467.281 264.953 465.586 265.702C464.937 267.242 464.182 268.767 463.327 270.264C463.017 270.811 462.45 271.114 461.865 271.114ZM446.072 270.126C445.333 270.126 444.595 270.102 443.881 270.056C442.955 269.997 442.253 269.196 442.312 268.269C442.372 267.343 443.176 266.639 444.099 266.7C446.738 266.872 449.617 266.688 452.631 266.159C453.544 265.998 454.418 266.608 454.578 267.523C454.738 268.438 454.128 269.31 453.213 269.47C450.743 269.906 448.339 270.126 446.072 270.126ZM435.32 267.978C435.086 267.978 434.848 267.929 434.621 267.825C432.604 266.903 430.751 265.692 429.11 264.227C428.359 263.556 427.633 262.815 426.952 262.023C426.347 261.319 426.426 260.256 427.131 259.651C427.834 259.045 428.897 259.125 429.502 259.83C430.087 260.51 430.708 261.145 431.35 261.719C432.739 262.959 434.309 263.985 436.02 264.767C436.865 265.154 437.236 266.15 436.849 266.995C436.567 267.613 435.957 267.978 435.32 267.978ZM476.803 257.936C476.353 257.936 475.904 257.755 475.573 257.401C474.94 256.721 474.977 255.658 475.657 255.025C477.733 253.089 479.663 250.916 481.394 248.563C481.944 247.815 482.997 247.655 483.745 248.205C484.493 248.756 484.653 249.808 484.103 250.556C482.249 253.077 480.178 255.41 477.95 257.486C477.626 257.788 477.214 257.936 476.803 257.936ZM423.777 254.883C423.08 254.883 422.428 254.447 422.187 253.75C421.36 251.355 420.939 248.94 420.939 246.57C420.939 245.761 420.988 244.95 421.089 244.161C421.204 243.24 422.044 242.587 422.966 242.703C423.887 242.819 424.54 243.659 424.424 244.58C424.342 245.231 424.301 245.901 424.301 246.57C424.301 248.565 424.659 250.611 425.366 252.652C425.669 253.529 425.204 254.486 424.327 254.789C424.145 254.852 423.959 254.883 423.777 254.883ZM466.809 254.081C466.793 254.081 466.778 254.081 466.761 254.081C465.833 254.055 465.1 253.282 465.126 252.353C465.134 252.02 465.139 251.675 465.139 251.331C465.139 248.824 464.889 246.219 464.417 243.799C464.238 242.887 464.833 242.003 465.744 241.826C466.654 241.647 467.538 242.242 467.717 243.153C468.231 245.781 468.502 248.609 468.502 251.33C468.502 251.704 468.497 252.081 468.487 252.445C468.465 253.359 467.717 254.081 466.809 254.081ZM487.399 243.586C487.148 243.586 486.895 243.529 486.654 243.412C485.821 243 485.481 241.991 485.893 241.16C487.176 238.565 488.239 235.85 489.053 233.089C489.315 232.198 490.249 231.688 491.141 231.951C492.032 232.213 492.542 233.148 492.279 234.039C491.411 236.985 490.276 239.882 488.908 242.65C488.613 243.241 488.017 243.586 487.399 243.586ZM425.978 237.773C425.652 237.773 425.325 237.68 425.036 237.484C424.267 236.962 424.066 235.916 424.588 235.148C426.332 232.576 428.601 230.31 431.333 228.413C432.097 227.883 433.144 228.072 433.674 228.833C434.204 229.596 434.015 230.644 433.253 231.174C430.862 232.835 428.884 234.807 427.373 237.036C427.046 237.514 426.518 237.773 425.978 237.773ZM463.211 236.685C462.603 236.685 462.017 236.354 461.717 235.778C460.341 233.13 458.601 231.026 456.543 229.527C455.792 228.98 455.629 227.927 456.176 227.178C456.722 226.426 457.775 226.263 458.525 226.81C461.005 228.619 463.083 231.114 464.702 234.23C465.129 235.054 464.809 236.07 463.984 236.497C463.737 236.625 463.472 236.685 463.211 236.685ZM440.359 227.637C439.628 227.637 438.955 227.157 438.744 226.421C438.486 225.529 439.003 224.597 439.894 224.339C442.309 223.644 444.731 223.292 447.093 223.292C447.871 223.292 448.649 223.331 449.402 223.409C450.326 223.505 450.999 224.331 450.903 225.254C450.808 226.178 449.982 226.85 449.058 226.755C448.42 226.689 447.757 226.656 447.093 226.656C445.047 226.656 442.938 226.965 440.824 227.573C440.669 227.617 440.512 227.637 440.359 227.637ZM492.421 226.464C492.361 226.464 492.303 226.46 492.244 226.455C491.32 226.358 490.651 225.53 490.748 224.607C490.913 223.029 490.998 221.423 490.998 219.83C490.998 218.551 490.944 217.253 490.837 215.97C490.76 215.045 491.446 214.233 492.373 214.154C493.301 214.078 494.112 214.764 494.189 215.691C494.303 217.066 494.363 218.459 494.363 219.832C494.363 221.542 494.272 223.268 494.094 224.961C494.002 225.822 493.271 226.464 492.421 226.464ZM490.958 208.691C490.216 208.691 489.538 208.197 489.336 207.448C488.59 204.688 487.59 201.947 486.363 199.302C485.973 198.458 486.339 197.46 487.181 197.068C488.022 196.678 489.022 197.043 489.414 197.886C490.721 200.705 491.787 203.627 492.583 206.57C492.825 207.466 492.295 208.39 491.397 208.632C491.25 208.672 491.102 208.691 490.958 208.691ZM483.472 192.481C482.934 192.481 482.404 192.222 482.079 191.743C480.466 189.363 478.641 187.074 476.653 184.938C476.021 184.258 476.059 183.193 476.738 182.561C477.418 181.929 478.483 181.967 479.115 182.646C481.22 184.909 483.154 187.334 484.862 189.856C485.384 190.624 485.183 191.67 484.414 192.191C484.125 192.387 483.796 192.481 483.472 192.481ZM471.304 179.384C470.936 179.384 470.567 179.265 470.257 179.018C468.001 177.219 465.582 175.56 463.066 174.086C462.264 173.618 461.995 172.587 462.465 171.785C462.933 170.984 463.964 170.713 464.766 171.184C467.42 172.737 469.974 174.488 472.354 176.388C473.079 176.967 473.199 178.025 472.619 178.751C472.287 179.166 471.798 179.384 471.304 179.384Z" fill="#F4B545"/>
<path d="M202.313 62.4268C206.986 60.4911 209.205 55.1339 207.27 50.4609C205.334 45.788 199.977 43.569 195.304 45.5046C190.631 47.4403 188.412 52.7976 190.348 57.4705C192.283 62.1434 197.64 64.3624 202.313 62.4268Z" fill="#F4B545"/>
<path d="M479.664 356.583C480.494 351.47 477.022 346.653 471.91 345.824C466.797 344.994 461.98 348.466 461.151 353.578C460.321 358.69 463.793 363.507 468.905 364.337C474.018 365.167 478.835 361.695 479.664 356.583Z" fill="#F4B545"/>
<path d="M117.878 454.708C123.213 449.374 123.213 440.724 117.878 435.39C112.543 430.055 103.894 430.055 98.5596 435.39C93.225 440.724 93.225 449.374 98.5596 454.708C103.894 460.043 112.543 460.043 117.878 454.708Z" fill="#F4B545"/>
</svg>
