<svg width="54" height="53" viewBox="0 0 54 53" fill="none" xmlns="http://www.w3.org/2000/svg">
<rect opacity="0.1" x="0.625" width="53" height="53" rx="4" fill="#0074D9"/>
<path d="M27.474 18.456C28.274 18.456 29.006 18.576 29.67 18.816C30.334 19.048 30.902 19.38 31.374 19.812C31.846 20.244 32.214 20.764 32.478 21.372C32.742 21.98 32.874 22.656 32.874 23.4C32.874 24.04 32.778 24.632 32.586 25.176C32.402 25.72 32.15 26.24 31.83 26.736C31.518 27.232 31.15 27.712 30.726 28.176C30.302 28.64 29.858 29.112 29.394 29.592L25.482 33.588C25.866 33.476 26.242 33.392 26.61 33.336C26.978 33.272 27.33 33.24 27.666 33.24H32.118C32.438 33.24 32.69 33.332 32.874 33.516C33.066 33.692 33.162 33.928 33.162 34.224V36H21.258V35.016C21.258 34.816 21.298 34.608 21.378 34.392C21.466 34.176 21.602 33.976 21.786 33.792L27.054 28.512C27.494 28.064 27.886 27.636 28.23 27.228C28.582 26.82 28.874 26.416 29.106 26.016C29.346 25.616 29.526 25.212 29.646 24.804C29.774 24.388 29.838 23.952 29.838 23.496C29.838 23.08 29.778 22.716 29.658 22.404C29.538 22.084 29.366 21.816 29.142 21.6C28.918 21.384 28.65 21.224 28.338 21.12C28.034 21.008 27.69 20.952 27.306 20.952C26.594 20.952 26.006 21.132 25.542 21.492C25.086 21.852 24.766 22.336 24.582 22.944C24.494 23.248 24.362 23.468 24.186 23.604C24.01 23.732 23.786 23.796 23.514 23.796C23.394 23.796 23.262 23.784 23.118 23.76L21.558 23.484C21.678 22.652 21.91 21.924 22.254 21.3C22.598 20.668 23.026 20.144 23.538 19.728C24.058 19.304 24.65 18.988 25.314 18.78C25.986 18.564 26.706 18.456 27.474 18.456Z" fill="#0074D9"/>
</svg>
