<svg width="53" height="53" viewBox="0 0 53 53" fill="none" xmlns="http://www.w3.org/2000/svg">
<rect opacity="0.1" width="53" height="53" rx="4" fill="#0074D9"/>
<g clip-path="url(#clip0_112_286)">
<path d="M31.8761 19.5898C30.0597 18.1131 27.6788 17.5455 25.3433 18.0321C22.3085 18.6648 19.9095 21.1687 19.3836 24.2251C18.9222 26.9058 19.8454 29.4515 21.6519 31.1811C22.8165 32.296 23.4844 33.8474 23.4844 35.4375V36.8906C23.4844 38.0537 24.4307 39 25.5938 39H28.4063C29.5694 39 30.5157 38.0537 30.5157 36.8906C30.5157 35.6058 30.5157 38.0931 30.5157 35.0189C30.5157 33.6568 31.1496 32.3097 32.3007 31.2259C33.8472 29.7699 34.7342 27.7171 34.7342 25.5938C34.7344 23.255 33.6925 21.0667 31.8761 19.5898ZM28.4063 37.5936H25.5938C25.2062 37.5936 24.8907 37.2781 24.8907 36.8905V36.1405H29.1094V36.8905C29.1094 37.2781 28.7939 37.5936 28.4063 37.5936ZM27 29.9512L25.0923 27.0896L25.5938 26.5881L26.5029 27.4972C26.7774 27.7717 27.2227 27.7717 27.4972 27.4972L28.4063 26.5881L28.9078 27.0896L27 29.9512ZM31.3369 30.202C29.9782 31.4812 29.1971 33.0808 29.1164 34.7342H27.7032V31.4316L30.3589 27.4479L31.7159 26.0909C31.9906 25.8163 31.9906 25.3712 31.7159 25.0965C31.4413 24.822 30.9961 24.822 30.7215 25.0965L29.8125 26.0056L28.9034 25.0965C28.6288 24.822 28.1836 24.822 27.909 25.0965L26.9999 26.0056L26.0909 25.0965C25.8163 24.822 25.3711 24.822 25.0965 25.0965L24.1874 26.0056L23.2783 25.0965C23.0038 24.822 22.5587 24.822 22.284 25.0965C22.0093 25.3712 22.0093 25.8163 22.284 26.0909L23.641 27.4479L26.2967 31.4316V34.7342H24.8555C24.6845 33.0147 23.8926 31.3796 22.6244 30.1652C21.0768 28.6837 20.4008 26.6055 20.7694 24.4635C21.2008 21.9563 23.1541 19.9249 25.6301 19.4087C27.5492 19.0086 29.5024 19.4724 30.9888 20.6809C32.4754 21.8896 33.328 23.6802 33.328 25.5936C33.3281 27.3566 32.621 28.9932 31.3369 30.202Z" fill="#0074D9"/>
<path d="M17.8125 25.5937C17.8125 25.2056 17.4977 24.8906 17.1094 24.8906H15.7031C15.3149 24.8906 15 25.2056 15 25.5937C15 25.9821 15.3149 26.2969 15.7031 26.2969H17.1094C17.4977 26.2969 17.8125 25.9821 17.8125 25.5937Z" fill="#0074D9"/>
<path d="M38.2969 24.8906H36.8906C36.5023 24.8906 36.1875 25.2056 36.1875 25.5937C36.1875 25.9821 36.5023 26.2969 36.8906 26.2969H38.2969C38.685 26.2969 39 25.9821 39 25.5937C39 25.2056 38.685 24.8906 38.2969 24.8906Z" fill="#0074D9"/>
<path d="M18.8265 20.0631L17.6086 19.36C17.2724 19.1657 16.8423 19.2811 16.6482 19.6174C16.4541 19.9536 16.5693 20.3837 16.9055 20.5778L18.1233 21.2809C18.4595 21.475 18.8898 21.36 19.0839 21.0237C19.278 20.6873 19.1628 20.2574 18.8265 20.0631Z" fill="#0074D9"/>
<path d="M37.0942 30.6097L35.8763 29.9066C35.54 29.7123 35.11 29.8277 34.9159 30.1639C34.7217 30.5002 34.8368 30.9302 35.1732 31.1245L36.391 31.8276C36.727 32.0217 37.1571 31.9067 37.3514 31.5701C37.5457 31.2339 37.4305 30.8038 37.0942 30.6097Z" fill="#0074D9"/>
<path d="M21.469 17.2727C21.6633 17.609 22.0934 17.724 22.4296 17.5299C22.7658 17.3358 22.8811 16.9057 22.6869 16.5696L21.9837 15.3517C21.7896 15.0154 21.3595 14.9002 21.0234 15.0943C20.687 15.2886 20.5718 15.7185 20.7659 16.0548L21.469 17.2727Z" fill="#0074D9"/>
<path d="M18.1233 29.9066L16.9055 30.6097C16.5693 30.8038 16.4541 31.2339 16.6482 31.5701C16.8425 31.9067 17.2726 32.0217 17.6086 31.8276L18.8265 31.1245C19.1628 30.9302 19.278 30.5002 19.0839 30.1639C18.8898 29.8277 18.4597 29.7123 18.1233 29.9066Z" fill="#0074D9"/>
<path d="M35.8763 21.2809L37.0942 20.5777C37.4305 20.3836 37.5457 19.9535 37.3514 19.6173C37.1573 19.281 36.7274 19.1658 36.391 19.3599L35.1732 20.063C34.8368 20.2573 34.7217 20.6872 34.9159 21.0236C35.11 21.3598 35.54 21.4751 35.8763 21.2809Z" fill="#0074D9"/>
<path d="M31.5702 17.5299C31.9062 17.724 32.3363 17.6092 32.5306 17.2727L33.2337 16.0548C33.428 15.7185 33.3127 15.2886 32.9765 15.0943C32.6401 14.9002 32.21 15.0154 32.0159 15.3517L31.3128 16.5696C31.1187 16.9057 31.2339 17.3358 31.5702 17.5299Z" fill="#0074D9"/>
</g>
<defs>
<clipPath id="clip0_112_286">
<rect width="24" height="24" fill="white" transform="translate(15 15)"/>
</clipPath>
</defs>
</svg>
