<svg width="454" height="515" viewBox="0 0 454 515" fill="none" xmlns="http://www.w3.org/2000/svg">
<g clip-path="url(#clip0_138_3496)">
<path d="M391.655 51.3312H372.113V470.269H391.655C406.674 470.269 418.849 458.006 418.849 442.88V78.7203C418.849 63.594 406.674 51.3312 391.655 51.3312Z" fill="#0074D9"/>
<path d="M423.026 98.9998H412.01V133.407H423.026V98.9998Z" fill="black"/>
<path d="M416.566 98.9996H410.141V133.407H416.566V98.9996Z" fill="white"/>
<path d="M416.564 133.914H410.138C409.857 133.914 409.63 133.687 409.63 133.407V98.9997C409.63 98.7195 409.857 98.4922 410.138 98.4922H416.564C416.844 98.4922 417.072 98.7195 417.072 98.9997V133.407C417.072 133.687 416.844 133.914 416.564 133.914ZM410.646 132.901H416.056V99.5072H410.646V132.901Z" fill="black"/>
<path d="M198.025 51.3312H377.416C392.436 51.3312 404.611 63.594 404.611 78.7203V442.88C404.611 458.006 392.436 470.269 377.416 470.269H198.025C183.005 470.269 170.83 458.006 170.83 442.88V78.7203C170.83 63.594 183.005 51.3312 198.025 51.3312Z" fill="white"/>
<path d="M377 470.777H198.439C182.937 470.777 170.322 458.179 170.322 442.692V78.9063C170.322 63.4217 182.934 50.8237 198.439 50.8237H377C392.502 50.8237 405.117 63.4217 405.117 78.9063V442.692C405.117 458.179 392.505 470.777 377 470.777ZM198.439 51.8387C183.495 51.8387 171.338 63.9821 171.338 78.9086V442.694C171.338 457.621 183.495 469.764 198.439 469.764H377C391.944 469.764 404.101 457.621 404.101 442.694V78.9063C404.101 63.9798 391.944 51.8364 377 51.8364H198.439V51.8387Z" fill="black"/>
<path d="M308.652 66.3313H308.65L267.569 66.1177C267.289 66.1154 267.063 65.888 267.063 65.6079C267.066 65.3277 267.309 65.1004 267.574 65.1027L308.654 65.3162C308.935 65.3185 309.16 65.5459 309.16 65.826C309.158 66.1062 308.93 66.3313 308.652 66.3313Z" fill="black"/>
<path d="M260.307 69.0548C260.3 69.0548 260.295 69.0548 260.288 69.0548C258.341 69.0456 256.766 67.4748 256.775 65.5551C256.78 64.6227 257.152 63.7501 257.824 63.0956C258.495 62.4434 259.385 62.1082 260.323 62.0921C262.27 62.1013 263.845 63.672 263.836 65.5918C263.831 66.5218 263.459 67.3968 262.787 68.0512C262.121 68.6988 261.242 69.0548 260.307 69.0548ZM260.304 63.1071C259.638 63.1071 259.008 63.362 258.534 63.8236C258.058 64.2875 257.796 64.9052 257.792 65.5619C257.785 66.9214 258.907 68.0352 260.293 68.0421C260.297 68.0421 260.302 68.0421 260.307 68.0421C260.973 68.0421 261.603 67.7872 262.077 67.3256C262.553 66.8617 262.815 66.244 262.819 65.5872C262.826 64.2277 261.704 63.114 260.318 63.1071C260.314 63.1071 260.309 63.1071 260.304 63.1071Z" fill="black"/>
<path d="M354.697 135.942H283.56C283.279 135.942 283.052 135.714 283.052 135.434C283.052 135.154 283.279 134.927 283.56 134.927H354.697C354.978 134.927 355.205 135.154 355.205 135.434C355.205 135.714 354.978 135.942 354.697 135.942Z" fill="black"/>
<path d="M354.697 173.88H283.56C283.279 173.88 283.052 173.653 283.052 173.373C283.052 173.093 283.279 172.865 283.56 172.865H354.697C354.978 172.865 355.205 173.093 355.205 173.373C355.205 173.653 354.978 173.88 354.697 173.88Z" fill="black"/>
<path d="M372.114 154.91H283.56C283.279 154.91 283.052 154.683 283.052 154.403C283.052 154.122 283.279 153.895 283.56 153.895H372.114C372.395 153.895 372.622 154.122 372.622 154.403C372.622 154.683 372.395 154.91 372.114 154.91Z" fill="black"/>
<path d="M266.093 178.937H206.556C206.275 178.937 206.048 178.71 206.048 178.43V120.937C206.048 120.657 206.275 120.43 206.556 120.43H266.093C266.373 120.43 266.601 120.657 266.601 120.937V178.43C266.601 178.71 266.373 178.937 266.093 178.937ZM207.064 177.924H265.584V121.445H207.064V177.924Z" fill="black"/>
<path d="M266.093 267.461H206.556C206.275 267.461 206.048 267.233 206.048 266.953V209.461C206.048 209.181 206.275 208.953 206.556 208.953H266.093C266.373 208.953 266.601 209.181 266.601 209.461V266.953C266.601 267.236 266.373 267.461 266.093 267.461ZM207.064 266.448H265.584V209.968H207.064V266.448Z" fill="black"/>
<path d="M238.772 273.771L200.676 227.634L211.072 219.085L237.315 250.865L267.767 202.645L279.163 209.814L238.772 273.771Z" fill="#4ADA85"/>
<path d="M266.093 355.987H206.556C206.275 355.987 206.048 355.76 206.048 355.479V297.987C206.048 297.707 206.275 297.479 206.556 297.479H266.093C266.373 297.479 266.601 297.707 266.601 297.987V355.479C266.601 355.76 266.373 355.987 266.093 355.987ZM207.064 354.972H265.584V298.492H207.064V354.972Z" fill="black"/>
<path d="M354.697 225.418H283.56C283.279 225.418 283.052 225.191 283.052 224.911C283.052 224.631 283.279 224.403 283.56 224.403H354.697C354.978 224.403 355.205 224.631 355.205 224.911C355.205 225.191 354.978 225.418 354.697 225.418Z" fill="black"/>
<path d="M372.114 244.389H329.865C329.585 244.389 329.357 244.162 329.357 243.881C329.357 243.601 329.585 243.374 329.865 243.374H372.114C372.394 243.374 372.622 243.601 372.622 243.881C372.622 244.162 372.394 244.389 372.114 244.389Z" fill="black"/>
<path d="M354.697 306.353H283.56C283.279 306.353 283.052 306.125 283.052 305.845C283.052 305.565 283.279 305.338 283.56 305.338H354.697C354.978 305.338 355.205 305.565 355.205 305.845C355.205 306.125 354.978 306.353 354.697 306.353Z" fill="black"/>
<path d="M354.697 344.291H283.56C283.279 344.291 283.052 344.064 283.052 343.784C283.052 343.504 283.279 343.276 283.56 343.276H354.697C354.978 343.276 355.205 343.504 355.205 343.784C355.205 344.066 354.978 344.291 354.697 344.291Z" fill="black"/>
<path d="M372.114 325.323H283.56C283.279 325.323 283.052 325.096 283.052 324.816C283.052 324.536 283.279 324.308 283.56 324.308H372.114C372.395 324.308 372.622 324.536 372.622 324.816C372.622 325.096 372.395 325.323 372.114 325.323Z" fill="black"/>
<path d="M336.661 435.786H238.187C224.954 435.786 214.227 425.071 214.227 411.853V411.826C214.227 398.608 224.954 387.893 238.187 387.893H336.661C349.894 387.893 360.621 398.608 360.621 411.826V411.853C360.621 425.071 349.894 435.786 336.661 435.786Z" fill="#FF7DCE"/>
<path d="M334.097 431.386H235.623C222.39 431.386 211.663 420.672 211.663 407.453V407.426C211.663 394.208 222.39 383.493 235.623 383.493H334.097C347.33 383.493 358.057 394.208 358.057 407.426V407.453C358.057 420.669 347.33 431.386 334.097 431.386Z" fill="#FDA4FF"/>
<path d="M259.238 418.354L252.649 398.19H255.466L258.611 408.122C259.48 410.845 260.229 413.298 260.767 415.661H260.827C261.397 413.328 262.234 410.786 263.133 408.152L266.547 398.19H269.333L262.114 418.354H259.238Z" fill="black"/>
<path d="M288.766 408.062C288.766 415.002 284.543 418.683 279.39 418.683C274.059 418.683 270.316 414.554 270.316 408.452C270.316 402.05 274.301 397.861 279.692 397.861C285.202 397.861 288.766 402.08 288.766 408.062ZM273.103 408.393C273.103 412.701 275.439 416.561 279.542 416.561C283.676 416.561 286.012 412.763 286.012 408.184C286.012 404.174 283.915 399.986 279.572 399.986C275.259 399.986 273.103 403.965 273.103 408.393Z" fill="black"/>
<path d="M295.236 400.404H289.096V398.19H304.041V400.404H297.871V418.355H295.236V400.404Z" fill="black"/>
<path d="M316.738 408.9H308.891V416.171H317.637V418.355H306.284V398.19H317.186V400.374H308.891V406.746H316.738V408.9Z" fill="black"/>
<path d="M120.952 352.085C120.837 352.085 120.725 352.046 120.635 351.975C120.529 351.89 120.463 351.768 120.446 351.635L119.794 345.775C117.692 345.481 115.651 344.888 113.713 344.011L110.034 348.618C109.949 348.723 109.828 348.79 109.694 348.806C109.559 348.822 109.425 348.783 109.319 348.698L101.441 342.392C101.222 342.218 101.188 341.898 101.36 341.68L105.041 337.074C103.758 335.372 102.731 333.51 101.981 331.523L96.1279 332.176C95.852 332.21 95.6037 332.013 95.5693 331.737L94.2887 321.993C94.2519 321.72 94.4427 321.467 94.714 321.426L100.749 320.494C101.041 318.383 101.634 316.335 102.514 314.388L97.9119 310.704C97.6935 310.53 97.6567 310.211 97.8314 309.992L104.131 302.104C104.216 301.999 104.338 301.932 104.471 301.916C104.604 301.9 104.74 301.939 104.846 302.024L109.446 305.705C111.143 304.421 113.005 303.395 114.991 302.644L114.338 296.784C114.308 296.506 114.508 296.255 114.786 296.223L124.812 295.105C124.948 295.089 125.081 295.128 125.185 295.213C125.29 295.298 125.357 295.419 125.373 295.553L126.026 301.413C128.127 301.707 130.169 302.299 132.107 303.177L135.785 298.57C135.87 298.464 135.992 298.398 136.126 298.382C136.261 298.366 136.395 298.405 136.5 298.49L144.379 304.796C144.597 304.97 144.632 305.289 144.459 305.508L140.779 310.116C142.061 311.816 143.089 313.68 143.839 315.667L149.692 315.015C149.825 314.999 149.961 315.038 150.064 315.123C150.17 315.208 150.237 315.329 150.253 315.462L151.37 325.498C151.4 325.775 151.2 326.026 150.922 326.058L145.069 326.71C144.774 328.814 144.183 330.86 143.305 332.8L147.908 336.484C148.126 336.658 148.161 336.977 147.986 337.195L141.687 345.084C141.602 345.189 141.48 345.256 141.347 345.272C141.211 345.288 141.078 345.249 140.972 345.164L136.372 341.481C134.673 342.764 132.813 343.791 130.826 344.542L131.479 350.402C131.509 350.68 131.309 350.93 131.031 350.962L121.005 352.081C120.989 352.085 120.971 352.085 120.952 352.085ZM113.566 342.877C113.639 342.877 113.713 342.893 113.784 342.925C115.853 343.906 118.051 344.544 120.318 344.819C120.552 344.847 120.734 345.033 120.761 345.267L121.403 351.017L130.419 350.012L129.778 344.259C129.753 344.025 129.891 343.804 130.111 343.726C132.261 342.957 134.266 341.853 136.068 340.438C136.254 340.293 136.514 340.293 136.698 340.44L141.213 344.055L146.878 336.961L142.36 333.347C142.176 333.2 142.119 332.947 142.22 332.734C143.202 330.662 143.839 328.462 144.112 326.193C144.14 325.959 144.326 325.778 144.56 325.75L150.306 325.11L149.301 316.082L143.558 316.723C143.324 316.751 143.103 316.611 143.025 316.39C142.257 314.238 141.151 312.231 139.74 310.426C139.595 310.24 139.597 309.981 139.742 309.797L143.354 305.276L136.266 299.603L132.656 304.125C132.509 304.309 132.256 304.369 132.043 304.267C129.973 303.285 127.776 302.649 125.509 302.373C125.274 302.345 125.093 302.159 125.065 301.925L124.424 296.175L115.407 297.181L116.046 302.933C116.072 303.167 115.934 303.388 115.713 303.466C113.563 304.235 111.559 305.34 109.756 306.754C109.57 306.899 109.31 306.899 109.126 306.752L104.611 303.138L98.9465 310.231L103.464 313.846C103.648 313.993 103.705 314.245 103.606 314.459C102.625 316.53 101.988 318.732 101.714 320.999C101.687 321.224 101.512 321.405 101.289 321.44L95.3669 322.354L96.5187 331.112L102.273 330.469C102.505 330.442 102.728 330.582 102.806 330.802C103.574 332.954 104.68 334.961 106.092 336.766C106.237 336.952 106.234 337.212 106.089 337.395L102.478 341.917L109.565 347.589L113.175 343.067C113.267 342.943 113.416 342.877 113.566 342.877ZM122.886 336.837C119.897 336.837 117.019 335.831 114.651 333.937C111.892 331.728 110.156 328.577 109.765 325.061C108.959 317.807 114.198 311.244 121.447 310.436C124.959 310.043 128.412 311.044 131.171 313.253C133.93 315.462 135.666 318.613 136.057 322.129C136.864 329.385 131.624 335.946 124.375 336.755C123.877 336.81 123.38 336.837 122.886 336.837ZM122.934 311.368C122.476 311.368 122.019 311.393 121.557 311.444C114.865 312.19 110.028 318.25 110.772 324.949C111.133 328.194 112.736 331.105 115.285 333.145C117.833 335.184 121.021 336.107 124.263 335.746C130.955 335 135.792 328.94 135.047 322.241C134.686 318.997 133.084 316.085 130.534 314.046C128.35 312.296 125.693 311.368 122.934 311.368Z" fill="black"/>
<path d="M112.781 458.468V457.676C112.781 448.006 104.96 440.166 95.3109 440.166C90.2279 440.166 85.3977 437.948 82.0803 434.09L76.0363 427.06L15.1708 445.138L14.334 449.175L65.4426 460.05L112.781 458.468Z" fill="white"/>
<path d="M14.3301 449.175V470.503H21.0339V470.212C21.0339 468.033 22.7949 466.267 24.9698 466.267V470.503H29.0504L30.0459 468.258C30.285 467.718 31.0735 467.796 31.2023 468.375L31.6736 470.503H36.775L39.9522 464.478C40.5085 463.421 41.6029 462.762 42.7937 462.762H53.3575C54.0426 462.762 54.7093 462.983 55.2634 463.389L64.9076 470.506H96.6795L99.4498 467.146L102.146 470.506H115.775V458.381H74.4369C70.455 458.381 66.5123 457.579 62.8431 456.025L54.5415 452.504C51.1804 451.078 47.5848 450.286 43.9363 450.164L14.3301 449.175Z" fill="black"/>
<path d="M176.922 458.468V457.676C176.922 448.006 169.101 440.166 159.453 440.166C154.369 440.166 149.539 437.948 146.222 434.09L140.178 427.06L79.3124 445.138L78.4756 449.175L129.584 460.05L176.922 458.468Z" fill="white"/>
<path d="M78.4707 449.175V470.503H85.1745V470.212C85.1745 468.033 86.9355 466.267 89.1104 466.267V470.503H93.1911L94.1865 468.258C94.4256 467.718 95.2142 467.796 95.3429 468.375L95.8142 470.503H100.916L104.093 464.478C104.649 463.421 105.743 462.762 106.934 462.762H117.498C118.183 462.762 118.85 462.983 119.404 463.389L129.048 470.506H140.998L143.727 467.771C143.982 467.514 144.403 467.534 144.633 467.817L146.829 470.506H160.82L163.112 467.725C163.358 467.426 163.818 467.429 164.059 467.732L166.285 470.506H179.913V458.381H138.577C134.596 458.381 130.653 457.579 126.984 456.025L118.682 452.504C115.321 451.078 111.725 450.286 108.077 450.164L78.4707 449.175Z" fill="black"/>
<path d="M129.58 460.558C129.546 460.558 129.509 460.553 129.474 460.546L78.3656 449.671C78.0921 449.613 77.9173 449.345 77.9748 449.071L78.8116 445.034C78.8507 444.851 78.9841 444.704 79.1634 444.651L140.031 426.574C140.222 426.518 140.431 426.578 140.56 426.73L146.604 433.759C149.829 437.509 154.51 439.658 159.451 439.658C169.364 439.658 177.426 447.742 177.426 457.676V458.468C177.426 458.741 177.21 458.966 176.937 458.976L129.596 460.558C129.591 460.558 129.587 460.558 129.58 460.558ZM79.0714 448.784L129.626 459.543L176.415 457.979V457.676C176.415 448.3 168.805 440.673 159.453 440.673C154.218 440.673 149.255 438.393 145.836 434.42L140.006 427.641L79.745 445.539L79.0714 448.784Z" fill="black"/>
<path d="M118.483 453.705C118.308 453.705 118.14 453.616 118.046 453.455C117.904 453.214 117.984 452.904 118.225 452.762L129.523 446.121C132.456 444.396 135.884 443.916 139.176 444.768C144.052 446.029 149.181 444.042 151.942 439.824L152.455 439.1C152.616 438.873 152.933 438.818 153.163 438.981C153.391 439.144 153.446 439.459 153.285 439.688L152.781 440.398C149.793 444.968 144.22 447.129 138.921 445.753C135.893 444.968 132.737 445.411 130.038 446.998L118.74 453.639C118.66 453.683 118.57 453.705 118.483 453.705Z" fill="black"/>
<path d="M139.9 438.177C139.723 438.177 139.551 438.085 139.459 437.92C139.321 437.677 139.406 437.367 139.649 437.229L145.972 433.646C146.215 433.509 146.526 433.594 146.664 433.837C146.802 434.08 146.716 434.39 146.473 434.528L140.151 438.111C140.07 438.157 139.985 438.177 139.9 438.177Z" fill="black"/>
<path d="M137.148 435.215C136.971 435.215 136.799 435.123 136.707 434.958C136.569 434.714 136.654 434.404 136.897 434.266L143.22 430.684C143.463 430.546 143.774 430.631 143.912 430.875C144.05 431.118 143.965 431.428 143.721 431.566L137.399 435.148C137.32 435.194 137.233 435.215 137.148 435.215Z" fill="black"/>
<path d="M25.6341 246.072L14.376 449.28L79.5221 430.748L46.9479 246.072H25.6341Z" fill="#0074D9"/>
<path d="M28.7975 241.36H85.5731L114.354 310.968C118.175 320.209 121.157 329.778 123.263 339.556L142.057 426.803L78.8991 449.207L49.4492 291.148C48.8032 287.683 46.9318 284.578 44.2075 282.348C37.9888 277.255 27.1215 264.868 28.7975 241.36Z" fill="#0074D9"/>
<path d="M78.8988 449.714C78.8114 449.714 78.724 449.691 78.6459 449.645C78.5171 449.572 78.4275 449.446 78.3999 449.299L48.95 291.24C48.3315 287.926 46.5337 284.907 43.8853 282.739C37.3401 277.377 26.6108 264.868 28.289 241.321C28.3074 241.055 28.5281 240.85 28.7948 240.85H85.5727C85.7773 240.85 85.9635 240.974 86.0417 241.163L114.823 310.771C118.646 320.016 121.653 329.663 123.759 339.446L142.553 426.693C142.606 426.941 142.468 427.191 142.226 427.278L79.0689 449.682C79.0137 449.705 78.9562 449.714 78.8988 449.714ZM29.2707 241.868C27.7994 264.652 38.1816 276.757 44.529 281.958C47.3614 284.277 49.2856 287.511 49.9477 291.059L79.2896 448.532L141.468 426.475L122.766 339.662C120.671 329.939 117.683 320.352 113.882 311.161L85.2325 241.868H29.2707Z" fill="black"/>
<path d="M85.5723 241.36H27.2656L25.0723 254.413L24.3643 267.291C36.7328 267.985 40.4226 266.811 48.184 263.573C59.8605 258.705 78.5098 260.349 95.3682 265.061L85.5723 241.36Z" fill="black"/>
<path d="M14.2909 450.465C14.0702 450.465 13.8679 450.32 13.8035 450.1C13.7254 449.831 13.8794 449.549 14.1484 449.471L74.8598 431.699C75.1265 431.619 75.4116 431.775 75.4897 432.043C75.5679 432.312 75.4139 432.595 75.1449 432.673L14.4335 450.444C14.3852 450.458 14.3369 450.465 14.2909 450.465Z" fill="black"/>
<path d="M28.6208 223.758L62.6641 197.458L50.645 181.826H46.3459L9.81516 210.049C1.30664 216.621 -0.275062 228.865 6.28392 237.392L22.2388 258.14L46.9529 253.641L27.9564 228.934C26.7104 227.32 27.0092 225.003 28.6208 223.758Z" fill="#FDA4FF"/>
<path d="M31.9521 221.186L62.6642 197.46L47.7783 180.719L19.8066 202.331L31.9521 221.186Z" fill="black"/>
<path d="M22.1533 259.525L96.3368 258.193L79.0117 199.26L66.1972 180.134H48.21C48.21 180.134 36.7059 186.316 33.9149 215.236C32.7148 227.669 29.1169 234.657 26.5697 242.628C23.1902 253.205 22.1533 259.525 22.1533 259.525Z" fill="#FED101"/>
<path d="M36.8257 218.366L48.1872 180.157C48.1872 180.157 34.3451 189.648 20.2109 200.898L36.8257 218.366Z" fill="#FED101"/>
<path d="M67.8801 180.157H48.1709V183.218H67.8801V180.157Z" fill="#FED101"/>
<path d="M205.476 245.971L174.447 241.725L173.403 249.182L204.437 253.43C206.502 253.712 208.41 252.273 208.697 250.215C208.985 248.155 207.543 246.254 205.476 245.971Z" fill="#FDA4FF"/>
<path d="M179.905 242.472L163.462 240.221L152.802 249.547L150.08 268.6L175.702 272.106L179.905 242.472Z" fill="#FDA4FF"/>
<path d="M192.953 258.725L193.51 254.753L186.024 253.729L185.392 258.248L173.755 256.654L172.711 264.111L183.801 265.628C188.236 266.237 192.335 263.146 192.953 258.725Z" fill="#FDA4FF"/>
<path d="M187.167 266.32L187.804 261.559L180.318 260.535L179.686 265.054L168.049 263.461L167.005 270.917L178.884 272.582C182.909 273.147 186.631 270.334 187.167 266.32Z" fill="#FDA4FF"/>
<path d="M143.395 267.95L146.937 242.607L176.229 246.617L172.686 271.96L143.395 267.95Z" fill="#FDA4FF"/>
<path d="M161.635 241.739L163.902 239.785C166.851 237.24 170.773 236.113 174.626 236.703C176.514 236.992 178.291 237.261 179.017 237.36C179.415 237.459 182.128 237.449 185.454 239.732C185.51 239.796 188.804 241.585 188.259 245.489L188.245 245.592C188.016 247.23 186.133 248.047 184.769 247.106C183.165 245.994 182.061 245.09 179.879 244.791L161.635 241.739Z" fill="#FDA4FF"/>
<path d="M196.983 252.275L174.943 249.257L173.899 256.714L190.762 259.022C193.622 259.412 196.264 257.421 196.662 254.569L196.983 252.275Z" fill="#FDA4FF"/>
<path d="M161.237 269.659L158.968 260.682L147.105 242.655L139.376 241.73L118.06 240.398C109.684 239.838 105.723 234.42 101.128 227.432L83.4784 199.83L57.5781 206.276L85.6165 251.653C90.5593 259.164 95.7458 264.225 104.751 264.827L137.541 267.02L161.237 269.659Z" fill="#FDA4FF"/>
<path d="M180.006 273.179C179.643 273.179 179.277 273.154 178.912 273.103L144.064 268.12C142.816 267.996 139.579 267.693 137.496 267.53C129.403 266.896 104.958 265.353 104.712 265.337C94.8382 264.678 89.1161 257.917 84.8239 251.391L56.7764 205.954L83.7066 199.253L101.404 226.936C106.172 234.188 110.163 239.367 118.092 239.895C118.228 239.904 131.9 240.747 136.431 241.121C138.56 241.298 156.347 243.429 158.702 243.712L161.297 241.365L163.571 239.401C166.64 236.754 170.698 235.587 174.705 236.2C176.983 236.549 178.459 236.77 179.087 236.855L179.14 236.864C179.185 236.875 179.268 236.882 179.383 236.894C180.314 236.999 182.788 237.282 185.742 239.309L185.813 239.367C186.648 240.044 188.069 241.427 188.706 243.457C188.791 243.723 188.641 244.008 188.372 244.093C188.106 244.178 187.82 244.029 187.735 243.76C187.172 241.969 185.894 240.738 185.184 240.164C185.17 240.152 185.158 240.143 185.147 240.134C182.409 238.262 180.126 238 179.266 237.904C179.114 237.888 179.002 237.872 178.928 237.858C178.284 237.769 176.811 237.548 174.548 237.204C170.836 236.636 167.074 237.716 164.233 240.168L161.966 242.123L159.035 244.77L158.805 244.743C158.603 244.717 138.556 242.311 136.344 242.129C131.824 241.755 118.161 240.915 118.026 240.905C109.628 240.345 105.487 234.99 100.551 227.485L83.2445 200.411L58.3719 206.6L85.6837 250.842C90.0426 257.465 95.3785 263.693 104.784 264.322C105.027 264.338 129.479 265.881 137.579 266.515C139.668 266.678 142.914 266.983 144.188 267.11L179.054 272.095C180.845 272.343 182.627 271.881 184.073 270.793C185.512 269.707 186.441 268.129 186.687 266.349L186.832 265.298C186.871 265.02 187.131 264.827 187.404 264.866C187.683 264.905 187.876 265.16 187.837 265.438L187.689 266.49C187.404 268.538 186.338 270.354 184.68 271.604C183.319 272.637 181.689 273.179 180.006 273.179Z" fill="black"/>
<path d="M184.901 266.212C184.514 266.212 184.124 266.186 183.73 266.131L172.64 264.613C172.362 264.574 172.169 264.319 172.206 264.042C172.242 263.764 172.5 263.569 172.778 263.608L183.868 265.125C187.984 265.69 191.832 262.815 192.441 258.719C192.483 258.441 192.742 258.25 193.018 258.291C193.296 258.333 193.487 258.59 193.446 258.868C192.814 263.123 189.105 266.212 184.901 266.212Z" fill="black"/>
<path d="M191.223 259.541C190.949 259.541 190.676 259.522 190.398 259.483L174.367 257.29C174.089 257.251 173.895 256.996 173.932 256.718C173.971 256.441 174.229 256.245 174.505 256.284L190.535 258.477C193.278 258.854 195.821 256.937 196.202 254.204L196.465 252.335C196.504 252.057 196.761 251.862 197.037 251.903C197.315 251.942 197.508 252.197 197.469 252.475L197.207 254.344C196.786 257.355 194.189 259.541 191.223 259.541Z" fill="black"/>
<path d="M205.102 253.993C204.916 253.993 204.729 253.979 204.539 253.954L174.325 249.818C174.047 249.781 173.854 249.524 173.891 249.246C173.928 248.968 174.187 248.775 174.463 248.812L204.677 252.948C206.369 253.182 207.934 251.997 208.169 250.314L208.217 249.965C208.33 249.152 208.12 248.343 207.624 247.687C207.125 247.03 206.401 246.605 205.58 246.493L169.465 241.551C169.187 241.512 168.994 241.257 169.031 240.979C169.07 240.701 169.325 240.506 169.603 240.545L205.718 245.487C206.808 245.636 207.771 246.199 208.433 247.074C209.093 247.944 209.373 249.021 209.222 250.102L209.173 250.452C208.891 252.505 207.12 253.993 205.102 253.993Z" fill="black"/>
<path d="M88.7134 208.023L91.2423 211.84L65.2041 218.366L61.0107 211.236L88.7134 208.023Z" fill="black"/>
<path d="M133.224 267.16L142.305 267.766L144.05 242.563L134.969 241.957L133.224 267.16Z" fill="#0074D9"/>
<path d="M140.356 261.235C144.006 260.163 146.097 256.349 145.028 252.715C143.958 249.082 140.133 247.006 136.483 248.078C132.834 249.149 130.742 252.964 131.812 256.597C132.881 260.23 136.707 262.307 140.356 261.235Z" fill="white"/>
<path d="M140.988 255.791C140.985 255.791 140.985 255.791 140.983 255.791L138.33 255.765C138.142 255.763 137.969 255.658 137.884 255.49L135.725 251.276C135.597 251.026 135.696 250.72 135.946 250.594C136.197 250.465 136.502 250.564 136.629 250.814L138.647 254.755L140.995 254.776C141.275 254.778 141.5 255.008 141.498 255.288C141.494 255.568 141.266 255.791 140.988 255.791Z" fill="#020202"/>
<path d="M92.5215 208.43C88.2983 200.468 82.8727 188.325 74.0147 184.219C63.2164 179.215 49.3214 193.483 52.756 204.854C54.2826 209.911 62.3934 218.713 62.3934 218.713L92.5215 208.43Z" fill="#FED101"/>
<path d="M59.246 215.562C59.1012 215.562 58.9563 215.5 58.8552 215.379C58.577 215.043 52.0318 207.128 52.2157 202.377C52.2272 202.096 52.4617 201.869 52.7422 201.89C53.0227 201.901 53.2411 202.135 53.2296 202.416C53.0617 206.779 59.5702 214.651 59.6345 214.729C59.8138 214.945 59.784 215.264 59.5678 215.443C59.4759 215.523 59.3609 215.562 59.246 215.562Z" fill="black"/>
<path d="M69.1471 162.435C69.5563 167.462 70.4483 174.409 65.4319 174.82C60.4155 175.231 51.392 168.95 50.9828 163.923C50.5736 158.897 54.3071 154.487 59.3235 154.076C64.3376 153.665 68.7378 157.408 69.1471 162.435Z" fill="#FDA4FF"/>
<path d="M64.7402 180.349L54.1718 180.405L52.8154 163.772L63.3195 162.913L64.7402 180.349Z" fill="#FDA4FF"/>
<path d="M64.717 180.568C64.4549 180.568 64.2342 180.368 64.2112 180.101L63.3836 169.944C63.3606 169.664 63.5698 169.421 63.8479 169.398C64.1284 169.37 64.3721 169.584 64.3951 169.862L65.2227 180.019C65.2457 180.297 65.0365 180.542 64.7583 180.565C64.7446 180.565 64.7308 180.568 64.717 180.568Z" fill="black"/>
<path d="M66.6276 156.074C65.754 153.245 61.5262 151.126 57.2754 152.444C54.4315 153.326 51.5831 155.041 49.7853 158.655C45.0954 168.08 35.0098 200.652 35.0098 200.652H60.2158L61.5009 163.225C65.1747 161.726 67.43 158.676 66.6276 156.074Z" fill="black"/>
<path d="M120.952 352.085C120.837 352.085 120.724 352.046 120.635 351.975C120.529 351.89 120.462 351.769 120.446 351.635L119.793 345.775C117.692 345.481 115.65 344.889 113.712 344.011L110.034 348.618C109.949 348.724 109.827 348.79 109.694 348.806C109.558 348.822 109.425 348.783 109.321 348.698L101.443 342.392C101.224 342.218 101.19 341.899 101.362 341.68L105.043 337.074C103.76 335.375 102.733 333.51 101.983 331.524L96.1299 332.176C95.854 332.206 95.6057 332.013 95.5712 331.737L94.2907 321.993C94.2539 321.72 94.4447 321.468 94.716 321.426L100.751 320.494C101.043 318.384 101.636 316.335 102.516 314.388L97.9139 310.704C97.6955 310.53 97.6587 310.211 97.8334 309.993L104.133 302.104C104.218 301.999 104.34 301.932 104.473 301.916C104.606 301.9 104.742 301.939 104.848 302.024L109.448 305.707C110.112 305.205 110.809 304.736 111.524 304.314C111.765 304.171 112.076 304.249 112.22 304.49C112.363 304.732 112.285 305.042 112.043 305.186C111.253 305.655 110.482 306.181 109.756 306.75C109.572 306.895 109.31 306.895 109.126 306.748L104.611 303.133L98.9461 310.227L103.464 313.841C103.648 313.988 103.705 314.241 103.606 314.454C102.624 316.526 101.988 318.728 101.714 320.995C101.686 321.22 101.512 321.401 101.289 321.435L95.3666 322.349L96.5184 331.108L102.273 330.465C102.505 330.437 102.728 330.577 102.806 330.798C103.574 332.95 104.68 334.957 106.091 336.762C106.236 336.948 106.234 337.207 106.089 337.391L102.477 341.912L109.565 347.585L113.174 343.063C113.322 342.879 113.577 342.819 113.788 342.921C115.857 343.901 118.055 344.539 120.322 344.815C120.557 344.843 120.738 345.029 120.766 345.263L121.407 351.013L125.69 350.535C125.968 350.501 126.219 350.705 126.251 350.983C126.283 351.261 126.081 351.511 125.803 351.543L121.016 352.079C120.989 352.085 120.97 352.085 120.952 352.085ZM122.531 336.833C122.527 336.833 122.522 336.833 122.518 336.833C115.972 336.647 110.492 331.586 109.765 325.064C109.246 320.404 111.259 315.77 115.021 312.966C115.246 312.799 115.563 312.845 115.731 313.07C115.899 313.295 115.853 313.612 115.627 313.779C112.154 316.367 110.294 320.648 110.772 324.951C111.443 330.975 116.503 335.648 122.545 335.818C122.826 335.825 123.046 336.059 123.037 336.339C123.03 336.615 122.805 336.833 122.531 336.833Z" fill="white"/>
<path d="M182.969 113.074L181.615 100.908L174.04 101.753C173.075 99.0434 171.686 96.5541 169.962 94.3519L174.723 88.3904L165.173 80.748L160.412 86.7095C157.887 85.5108 155.156 84.7047 152.303 84.358L151.46 76.7753L139.307 78.1324L140.151 85.7151C137.445 86.6819 134.957 88.0712 132.757 89.7958L126.803 85.0308L119.168 94.593L125.122 99.358C123.927 101.886 123.12 104.619 122.773 107.476L115 108.677L116.554 120.487L124.129 119.642C125.095 122.352 126.483 124.841 128.208 127.043L123.446 133.005L132.996 140.647L137.758 134.686C140.282 135.884 143.013 136.69 145.866 137.037L146.71 144.62L158.862 143.263L158.018 135.68C160.724 134.713 163.212 133.324 165.412 131.599L171.366 136.364L179.001 126.802L173.047 122.037C174.242 119.509 175.049 116.776 175.396 113.919L182.969 113.074ZM150.793 126.038C142.33 126.981 134.705 120.88 133.76 112.408C132.817 103.937 138.912 96.3015 147.374 95.3577C155.837 94.4139 163.462 100.515 164.407 108.987C165.352 117.458 159.255 125.094 150.793 126.038Z" fill="#0074D9"/>
<path d="M120.587 69.7208L119.872 63.2909L115.869 63.7387C115.359 62.3057 114.625 60.9899 113.715 59.8279L116.23 56.6773L111.181 52.6379L108.666 55.7886C107.333 55.1547 105.889 54.7299 104.381 54.5462L103.935 50.539L97.5117 51.2555L97.9577 55.2627C96.5278 55.7748 95.2127 56.5073 94.0495 57.419L90.9022 54.8999L86.8675 59.9542L90.0148 62.4734C89.3825 63.8099 88.9572 65.2543 88.7733 66.763L84.665 67.3968L85.4858 73.6384L89.4883 73.1906C89.9987 74.6236 90.732 75.9394 91.6424 77.1014L89.1274 80.252L94.1759 84.2914L96.691 81.1407C98.0244 81.7745 99.4682 82.1994 100.976 82.3831L101.422 86.3903L107.846 85.6738L107.4 81.6666C108.83 81.1545 110.145 80.422 111.308 79.5103L114.455 82.0294L118.49 76.9751L115.343 74.4559C115.975 73.1194 116.4 71.675 116.584 70.1663L120.587 69.7208ZM103.581 76.5732C99.1072 77.0715 95.0771 73.8474 94.5782 69.3694C94.0794 64.8915 97.3025 60.8567 101.774 60.3584C106.248 59.8601 110.278 63.0842 110.777 67.5622C111.276 72.0378 108.055 76.0726 103.581 76.5732Z" fill="#FED101"/>
</g>
<defs>
<clipPath id="clip0_138_3496">
<rect width="454" height="515" fill="white"/>
</clipPath>
</defs>
</svg>
