<svg width="422" height="421" viewBox="0 0 422 421" fill="none" xmlns="http://www.w3.org/2000/svg">
<path d="M389.655 1.33124H370.113V420.269H389.655C404.674 420.269 416.849 408.006 416.849 392.88V28.7203C416.849 13.594 404.674 1.33124 389.655 1.33124Z" fill="#0074D9"/>
<path d="M421.026 48.9998H410.01V83.4066H421.026V48.9998Z" fill="black"/>
<path d="M414.566 48.9996H408.141V83.4065H414.566V48.9996Z" fill="white"/>
<path d="M414.564 83.9141H408.138C407.857 83.9141 407.63 83.6867 407.63 83.4066V48.9997C407.63 48.7195 407.857 48.4922 408.138 48.4922H414.564C414.844 48.4922 415.072 48.7195 415.072 48.9997V83.4066C415.072 83.6867 414.844 83.9141 414.564 83.9141ZM408.646 82.9013H414.056V49.5072H408.646V82.9013Z" fill="black"/>
<path d="M196.025 1.33124H375.416C390.436 1.33124 402.611 13.594 402.611 28.7203V392.88C402.611 408.006 390.436 420.269 375.416 420.269H196.025C181.005 420.269 168.83 408.006 168.83 392.88V28.7203C168.83 13.594 181.005 1.33124 196.025 1.33124Z" fill="white"/>
<path d="M375 420.777H196.439C180.937 420.777 168.322 408.179 168.322 392.692V28.9063C168.322 13.4217 180.934 0.82373 196.439 0.82373H375C390.502 0.82373 403.117 13.4217 403.117 28.9063V392.692C403.117 408.179 390.505 420.777 375 420.777ZM196.439 1.83874C181.495 1.83874 169.338 13.9821 169.338 28.9086V392.694C169.338 407.621 181.495 419.764 196.439 419.764H375C389.944 419.764 402.101 407.621 402.101 392.694V28.9063C402.101 13.9798 389.944 1.83644 375 1.83644H196.439V1.83874Z" fill="black"/>
<path d="M306.652 16.3313H306.65L265.569 16.1177C265.289 16.1154 265.063 15.888 265.063 15.6079C265.066 15.3277 265.309 15.1004 265.574 15.1027L306.654 15.3162C306.935 15.3185 307.16 15.5459 307.16 15.826C307.158 16.1062 306.93 16.3313 306.652 16.3313Z" fill="black"/>
<path d="M258.307 19.0548C258.3 19.0548 258.295 19.0548 258.288 19.0548C256.341 19.0456 254.766 17.4748 254.775 15.5551C254.78 14.6227 255.152 13.7501 255.824 13.0956C256.495 12.4434 257.385 12.1082 258.323 12.0921C260.27 12.1013 261.845 13.672 261.836 15.5918C261.831 16.5218 261.459 17.3968 260.787 18.0512C260.121 18.6988 259.242 19.0548 258.307 19.0548ZM258.304 13.1071C257.638 13.1071 257.008 13.362 256.534 13.8236C256.058 14.2875 255.796 14.9052 255.792 15.5619C255.785 16.9214 256.907 18.0352 258.293 18.0421C258.297 18.0421 258.302 18.0421 258.307 18.0421C258.973 18.0421 259.603 17.7872 260.077 17.3256C260.553 16.8617 260.815 16.244 260.819 15.5872C260.826 14.2277 259.704 13.114 258.318 13.1071C258.314 13.1071 258.309 13.1071 258.304 13.1071Z" fill="black"/>
<path d="M352.697 85.9418H281.56C281.279 85.9418 281.052 85.7144 281.052 85.4343C281.052 85.1541 281.279 84.9268 281.56 84.9268H352.697C352.978 84.9268 353.205 85.1541 353.205 85.4343C353.205 85.7144 352.978 85.9418 352.697 85.9418Z" fill="black"/>
<path d="M352.697 123.88H281.56C281.279 123.88 281.052 123.653 281.052 123.373C281.052 123.093 281.279 122.865 281.56 122.865H352.697C352.978 122.865 353.205 123.093 353.205 123.373C353.205 123.653 352.978 123.88 352.697 123.88Z" fill="black"/>
<path d="M370.114 104.91H281.56C281.279 104.91 281.052 104.683 281.052 104.403C281.052 104.122 281.279 103.895 281.56 103.895H370.114C370.395 103.895 370.622 104.122 370.622 104.403C370.622 104.683 370.395 104.91 370.114 104.91Z" fill="black"/>
<path d="M264.093 128.937H204.556C204.275 128.937 204.048 128.71 204.048 128.43V70.9372C204.048 70.657 204.275 70.4297 204.556 70.4297H264.093C264.373 70.4297 264.601 70.657 264.601 70.9372V128.43C264.601 128.71 264.373 128.937 264.093 128.937ZM205.064 127.924H263.584V71.4447H205.064V127.924Z" fill="black"/>
<path d="M264.093 217.461H204.556C204.275 217.461 204.048 217.233 204.048 216.953V159.461C204.048 159.181 204.275 158.953 204.556 158.953H264.093C264.373 158.953 264.601 159.181 264.601 159.461V216.953C264.601 217.236 264.373 217.461 264.093 217.461ZM205.064 216.448H263.584V159.968H205.064V216.448Z" fill="black"/>
<path d="M236.772 223.771L198.676 177.634L209.072 169.085L235.315 200.865L265.767 152.645L277.163 159.814L236.772 223.771Z" fill="#4ADA85"/>
<path d="M264.093 305.987H204.556C204.275 305.987 204.048 305.76 204.048 305.479V247.987C204.048 247.707 204.275 247.479 204.556 247.479H264.093C264.373 247.479 264.601 247.707 264.601 247.987V305.479C264.601 305.76 264.373 305.987 264.093 305.987ZM205.064 304.972H263.584V248.492H205.064V304.972Z" fill="black"/>
<path d="M352.697 175.418H281.56C281.279 175.418 281.052 175.191 281.052 174.911C281.052 174.631 281.279 174.403 281.56 174.403H352.697C352.978 174.403 353.205 174.631 353.205 174.911C353.205 175.191 352.978 175.418 352.697 175.418Z" fill="black"/>
<path d="M370.114 194.389H327.865C327.585 194.389 327.357 194.162 327.357 193.881C327.357 193.601 327.585 193.374 327.865 193.374H370.114C370.394 193.374 370.622 193.601 370.622 193.881C370.622 194.162 370.394 194.389 370.114 194.389Z" fill="black"/>
<path d="M352.697 256.353H281.56C281.279 256.353 281.052 256.125 281.052 255.845C281.052 255.565 281.279 255.338 281.56 255.338H352.697C352.978 255.338 353.205 255.565 353.205 255.845C353.205 256.125 352.978 256.353 352.697 256.353Z" fill="black"/>
<path d="M352.697 294.291H281.56C281.279 294.291 281.052 294.064 281.052 293.784C281.052 293.504 281.279 293.276 281.56 293.276H352.697C352.978 293.276 353.205 293.504 353.205 293.784C353.205 294.066 352.978 294.291 352.697 294.291Z" fill="black"/>
<path d="M370.114 275.323H281.56C281.279 275.323 281.052 275.096 281.052 274.816C281.052 274.536 281.279 274.308 281.56 274.308H370.114C370.395 274.308 370.622 274.536 370.622 274.816C370.622 275.096 370.395 275.323 370.114 275.323Z" fill="black"/>
<path d="M334.661 385.786H236.187C222.954 385.786 212.227 375.071 212.227 361.853V361.826C212.227 348.608 222.954 337.893 236.187 337.893H334.661C347.894 337.893 358.621 348.608 358.621 361.826V361.853C358.621 375.071 347.894 385.786 334.661 385.786Z" fill="#FF7DCE"/>
<path d="M332.097 381.386H233.623C220.39 381.386 209.663 370.672 209.663 357.453V357.426C209.663 344.208 220.39 333.493 233.623 333.493H332.097C345.33 333.493 356.057 344.208 356.057 357.426V357.453C356.057 370.669 345.33 381.386 332.097 381.386Z" fill="#FDA4FF"/>
<path d="M257.238 368.354L250.649 348.19H253.466L256.611 358.122C257.48 360.845 258.229 363.298 258.767 365.661H258.827C259.397 363.328 260.234 360.786 261.133 358.152L264.547 348.19H267.333L260.114 368.354H257.238Z" fill="black"/>
<path d="M286.766 358.062C286.766 365.002 282.543 368.683 277.39 368.683C272.059 368.683 268.316 364.554 268.316 358.452C268.316 352.05 272.301 347.861 277.692 347.861C283.202 347.861 286.766 352.08 286.766 358.062ZM271.103 358.393C271.103 362.701 273.439 366.561 277.542 366.561C281.676 366.561 284.012 362.763 284.012 358.184C284.012 354.174 281.915 349.986 277.572 349.986C273.259 349.986 271.103 353.965 271.103 358.393Z" fill="black"/>
<path d="M293.236 350.404H287.096V348.19H302.041V350.404H295.871V368.355H293.236V350.404Z" fill="black"/>
<path d="M314.738 358.9H306.891V366.171H315.637V368.355H304.284V348.19H315.186V350.374H306.891V356.746H314.738V358.9Z" fill="black"/>
<path d="M118.952 302.085C118.837 302.085 118.725 302.046 118.635 301.975C118.529 301.89 118.463 301.768 118.446 301.635L117.794 295.775C115.692 295.481 113.651 294.888 111.713 294.011L108.034 298.618C107.949 298.723 107.828 298.79 107.694 298.806C107.559 298.822 107.425 298.783 107.319 298.698L99.4408 292.392C99.2224 292.218 99.188 291.898 99.3604 291.68L103.041 287.074C101.758 285.372 100.731 283.51 99.9811 281.523L94.1279 282.176C93.852 282.21 93.6037 282.013 93.5693 281.737L92.2887 271.993C92.2519 271.72 92.4427 271.467 92.714 271.426L98.7488 270.494C99.0408 268.383 99.6339 266.335 100.514 264.388L95.9119 260.704C95.6935 260.53 95.6567 260.211 95.8314 259.992L102.131 252.104C102.216 251.999 102.338 251.932 102.471 251.916C102.604 251.9 102.74 251.939 102.846 252.024L107.446 255.705C109.143 254.421 111.005 253.395 112.991 252.644L112.338 246.784C112.308 246.506 112.508 246.255 112.786 246.223L122.812 245.105C122.948 245.089 123.081 245.128 123.185 245.213C123.29 245.298 123.357 245.419 123.373 245.553L124.026 251.413C126.127 251.707 128.169 252.299 130.107 253.177L133.785 248.57C133.87 248.464 133.992 248.398 134.126 248.382C134.261 248.366 134.395 248.405 134.5 248.49L142.379 254.796C142.597 254.97 142.632 255.289 142.459 255.508L138.779 260.116C140.061 261.816 141.089 263.68 141.839 265.667L147.692 265.015C147.825 264.999 147.961 265.038 148.064 265.123C148.17 265.208 148.237 265.329 148.253 265.462L149.37 275.498C149.4 275.775 149.2 276.026 148.922 276.058L143.069 276.71C142.774 278.814 142.183 280.86 141.305 282.8L145.908 286.484C146.126 286.658 146.161 286.977 145.986 287.195L139.687 295.084C139.602 295.189 139.48 295.256 139.347 295.272C139.211 295.288 139.078 295.249 138.972 295.164L134.372 291.481C132.673 292.764 130.813 293.791 128.826 294.542L129.479 300.402C129.509 300.68 129.309 300.93 129.031 300.962L119.005 302.081C118.989 302.085 118.971 302.085 118.952 302.085ZM111.566 292.877C111.639 292.877 111.713 292.893 111.784 292.925C113.853 293.906 116.051 294.544 118.318 294.819C118.552 294.847 118.734 295.033 118.761 295.267L119.403 301.017L128.419 300.012L127.778 294.259C127.753 294.025 127.891 293.804 128.111 293.726C130.261 292.957 132.266 291.853 134.068 290.438C134.254 290.293 134.514 290.293 134.698 290.44L139.213 294.055L144.878 286.961L140.36 283.347C140.176 283.2 140.119 282.947 140.22 282.734C141.202 280.662 141.839 278.462 142.112 276.193C142.14 275.959 142.326 275.778 142.56 275.75L148.306 275.11L147.301 266.082L141.558 266.723C141.324 266.751 141.103 266.611 141.025 266.39C140.257 264.238 139.151 262.231 137.74 260.426C137.595 260.24 137.597 259.981 137.742 259.797L141.354 255.276L134.266 249.603L130.656 254.125C130.509 254.309 130.256 254.369 130.043 254.267C127.973 253.285 125.776 252.649 123.509 252.373C123.274 252.345 123.093 252.159 123.065 251.925L122.424 246.175L113.407 247.181L114.046 252.933C114.072 253.167 113.934 253.388 113.713 253.466C111.563 254.235 109.559 255.34 107.756 256.754C107.57 256.899 107.31 256.899 107.126 256.752L102.611 253.138L96.9465 260.231L101.464 263.846C101.648 263.993 101.705 264.245 101.606 264.459C100.625 266.53 99.988 268.732 99.7144 270.999C99.6868 271.224 99.5121 271.405 99.2891 271.44L93.3669 272.354L94.5187 281.112L100.273 280.469C100.505 280.442 100.728 280.582 100.806 280.802C101.574 282.954 102.68 284.961 104.092 286.766C104.237 286.952 104.234 287.212 104.089 287.395L100.478 291.917L107.565 297.589L111.175 293.067C111.267 292.943 111.416 292.877 111.566 292.877ZM120.886 286.837C117.897 286.837 115.019 285.831 112.651 283.937C109.892 281.728 108.156 278.577 107.765 275.061C106.959 267.807 112.198 261.244 119.447 260.436C122.959 260.043 126.412 261.044 129.171 263.253C131.93 265.462 133.666 268.613 134.057 272.129C134.864 279.385 129.624 285.946 122.375 286.755C121.877 286.81 121.38 286.837 120.886 286.837ZM120.934 261.368C120.476 261.368 120.019 261.393 119.557 261.444C112.865 262.19 108.028 268.25 108.772 274.949C109.133 278.194 110.736 281.105 113.285 283.145C115.833 285.184 119.021 286.107 122.263 285.746C128.955 285 133.792 278.94 133.047 272.241C132.686 268.997 131.084 266.085 128.534 264.046C126.35 262.296 123.693 261.368 120.934 261.368Z" fill="black"/>
<path d="M110.781 408.468V407.676C110.781 398.006 102.96 390.166 93.3109 390.166C88.2279 390.166 83.3977 387.948 80.0803 384.09L74.0363 377.06L13.1708 395.138L12.334 399.175L63.4426 410.05L110.781 408.468Z" fill="white"/>
<path d="M12.3301 399.175V420.503H19.0339V420.212C19.0339 418.033 20.7949 416.267 22.9698 416.267V420.503H27.0504L28.0459 418.258C28.285 417.718 29.0735 417.796 29.2023 418.375L29.6736 420.503H34.775L37.9522 414.478C38.5085 413.421 39.6029 412.762 40.7937 412.762H51.3575C52.0426 412.762 52.7093 412.983 53.2634 413.389L62.9076 420.506H94.6795L97.4498 417.146L100.146 420.506H113.775V408.381H72.4369C68.455 408.381 64.5123 407.579 60.8431 406.025L52.5415 402.504C49.1804 401.078 45.5848 400.286 41.9363 400.164L12.3301 399.175Z" fill="black"/>
<path d="M174.922 408.468V407.676C174.922 398.006 167.101 390.166 157.453 390.166C152.369 390.166 147.539 387.948 144.222 384.09L138.178 377.06L77.3124 395.138L76.4756 399.175L127.584 410.05L174.922 408.468Z" fill="white"/>
<path d="M76.4707 399.175V420.503H83.1745V420.212C83.1745 418.033 84.9355 416.267 87.1104 416.267V420.503H91.1911L92.1865 418.258C92.4256 417.718 93.2142 417.796 93.3429 418.375L93.8142 420.503H98.9156L102.093 414.478C102.649 413.421 103.743 412.762 104.934 412.762H115.498C116.183 412.762 116.85 412.983 117.404 413.389L127.048 420.506H138.998L141.727 417.771C141.982 417.514 142.403 417.534 142.633 417.817L144.829 420.506H158.82L161.112 417.725C161.358 417.426 161.818 417.429 162.059 417.732L164.285 420.506H177.913V408.381H136.577C132.596 408.381 128.653 407.579 124.984 406.025L116.682 402.504C113.321 401.078 109.725 400.286 106.077 400.164L76.4707 399.175Z" fill="black"/>
<path d="M127.58 410.558C127.546 410.558 127.509 410.553 127.474 410.546L76.3656 399.671C76.0921 399.613 75.9173 399.345 75.9748 399.071L76.8116 395.034C76.8507 394.851 76.9841 394.704 77.1634 394.651L138.031 376.574C138.222 376.518 138.431 376.578 138.56 376.73L144.604 383.759C147.829 387.509 152.51 389.658 157.451 389.658C167.364 389.658 175.426 397.742 175.426 407.676V408.468C175.426 408.741 175.21 408.966 174.937 408.976L127.596 410.558C127.591 410.558 127.587 410.558 127.58 410.558ZM77.0714 398.784L127.626 409.543L174.415 407.979V407.676C174.415 398.3 166.805 390.673 157.453 390.673C152.218 390.673 147.255 388.393 143.836 384.42L138.006 377.641L77.745 395.539L77.0714 398.784Z" fill="black"/>
<path d="M116.483 403.705C116.308 403.705 116.14 403.616 116.046 403.455C115.904 403.214 115.984 402.904 116.225 402.762L127.523 396.121C130.456 394.396 133.884 393.916 137.176 394.768C142.052 396.029 147.181 394.042 149.942 389.824L150.455 389.1C150.616 388.873 150.933 388.818 151.163 388.981C151.391 389.144 151.446 389.459 151.285 389.688L150.781 390.398C147.793 394.968 142.22 397.129 136.921 395.753C133.893 394.968 130.737 395.411 128.038 396.998L116.74 403.639C116.66 403.683 116.57 403.705 116.483 403.705Z" fill="black"/>
<path d="M137.9 388.177C137.723 388.177 137.551 388.085 137.459 387.92C137.321 387.677 137.406 387.367 137.649 387.229L143.972 383.646C144.215 383.509 144.526 383.594 144.664 383.837C144.802 384.08 144.716 384.39 144.473 384.528L138.151 388.111C138.07 388.157 137.985 388.177 137.9 388.177Z" fill="black"/>
<path d="M135.148 385.215C134.971 385.215 134.799 385.123 134.707 384.958C134.569 384.714 134.654 384.404 134.897 384.266L141.22 380.684C141.463 380.546 141.774 380.631 141.912 380.875C142.05 381.118 141.965 381.428 141.721 381.566L135.399 385.148C135.32 385.194 135.233 385.215 135.148 385.215Z" fill="black"/>
<path d="M23.6341 196.072L12.376 399.28L77.5221 380.748L44.9479 196.072H23.6341Z" fill="#0074D9"/>
<path d="M26.7975 191.36H83.5731L112.354 260.968C116.175 270.209 119.157 279.778 121.263 289.556L140.057 376.803L76.8991 399.207L47.4492 241.148C46.8032 237.683 44.9318 234.578 42.2075 232.348C35.9888 227.255 25.1215 214.868 26.7975 191.36Z" fill="#0074D9"/>
<path d="M76.8988 399.714C76.8114 399.714 76.724 399.691 76.6459 399.645C76.5171 399.572 76.4275 399.446 76.3999 399.299L46.95 241.24C46.3315 237.926 44.5337 234.907 41.8853 232.739C35.3401 227.377 24.6108 214.868 26.289 191.321C26.3074 191.055 26.5281 190.85 26.7948 190.85H83.5727C83.7773 190.85 83.9635 190.974 84.0417 191.163L112.823 260.771C116.646 270.016 119.653 279.663 121.759 289.446L140.553 376.693C140.606 376.941 140.468 377.191 140.226 377.278L77.0689 399.682C77.0137 399.705 76.9562 399.714 76.8988 399.714ZM27.2707 191.868C25.7994 214.652 36.1816 226.757 42.529 231.958C45.3614 234.277 47.2856 237.511 47.9477 241.059L77.2896 398.532L139.468 376.475L120.766 289.662C118.671 279.939 115.683 270.352 111.882 261.161L83.2325 191.868H27.2707Z" fill="black"/>
<path d="M83.5723 191.36H25.2656L23.0723 204.413L22.3643 217.291C34.7328 217.985 38.4226 216.811 46.184 213.573C57.8605 208.705 76.5098 210.349 93.3682 215.061L83.5723 191.36Z" fill="black"/>
<path d="M12.2909 400.465C12.0702 400.465 11.8679 400.32 11.8035 400.1C11.7254 399.831 11.8794 399.549 12.1484 399.471L72.8598 381.699C73.1265 381.619 73.4116 381.775 73.4897 382.043C73.5679 382.312 73.4139 382.595 73.1449 382.673L12.4335 400.444C12.3852 400.458 12.3369 400.465 12.2909 400.465Z" fill="black"/>
<path d="M26.6208 173.758L60.6641 147.458L48.645 131.826H44.3459L7.81516 160.049C-0.693361 166.621 -2.27506 178.865 4.28392 187.392L20.2388 208.14L44.9529 203.641L25.9564 178.934C24.7104 177.32 25.0092 175.003 26.6208 173.758Z" fill="#FDA4FF"/>
<path d="M29.9521 171.186L60.6642 147.46L45.7783 130.719L17.8066 152.331L29.9521 171.186Z" fill="black"/>
<path d="M20.1533 209.525L94.3368 208.193L77.0117 149.26L64.1972 130.134H46.21C46.21 130.134 34.7059 136.316 31.9149 165.236C30.7148 177.669 27.1169 184.657 24.5697 192.628C21.1902 203.205 20.1533 209.525 20.1533 209.525Z" fill="#FED101"/>
<path d="M34.8257 168.366L46.1872 130.157C46.1872 130.157 32.3451 139.648 18.2109 150.898L34.8257 168.366Z" fill="#FED101"/>
<path d="M65.8801 130.157H46.1709V133.218H65.8801V130.157Z" fill="#FED101"/>
<path d="M203.476 195.971L172.447 191.725L171.403 199.182L202.437 203.43C204.502 203.712 206.41 202.273 206.697 200.215C206.985 198.155 205.543 196.254 203.476 195.971Z" fill="#FDA4FF"/>
<path d="M177.905 192.472L161.462 190.221L150.802 199.547L148.08 218.6L173.702 222.106L177.905 192.472Z" fill="#FDA4FF"/>
<path d="M190.953 208.725L191.51 204.753L184.024 203.729L183.392 208.248L171.755 206.654L170.711 214.111L181.801 215.628C186.236 216.237 190.335 213.146 190.953 208.725Z" fill="#FDA4FF"/>
<path d="M185.167 216.32L185.804 211.559L178.318 210.535L177.686 215.054L166.049 213.461L165.005 220.917L176.884 222.582C180.909 223.147 184.631 220.334 185.167 216.32Z" fill="#FDA4FF"/>
<path d="M141.395 217.95L144.937 192.607L174.229 196.617L170.686 221.96L141.395 217.95Z" fill="#FDA4FF"/>
<path d="M159.635 191.739L161.902 189.785C164.851 187.24 168.773 186.113 172.626 186.703C174.514 186.992 176.291 187.261 177.017 187.36C177.415 187.459 180.128 187.449 183.454 189.732C183.51 189.796 186.804 191.585 186.259 195.489L186.245 195.592C186.016 197.23 184.133 198.047 182.769 197.106C181.165 195.994 180.061 195.09 177.879 194.791L159.635 191.739Z" fill="#FDA4FF"/>
<path d="M194.983 202.275L172.943 199.257L171.899 206.714L188.762 209.022C191.622 209.412 194.264 207.421 194.662 204.569L194.983 202.275Z" fill="#FDA4FF"/>
<path d="M159.237 219.659L156.968 210.682L145.105 192.655L137.376 191.73L116.06 190.398C107.684 189.838 103.723 184.42 99.1277 177.432L81.4784 149.83L55.5781 156.276L83.6165 201.653C88.5593 209.164 93.7458 214.225 102.751 214.827L135.541 217.02L159.237 219.659Z" fill="#FDA4FF"/>
<path d="M178.006 223.179C177.643 223.179 177.277 223.154 176.912 223.103L142.064 218.12C140.816 217.996 137.579 217.693 135.496 217.53C127.403 216.896 102.958 215.353 102.712 215.337C92.8382 214.678 87.1161 207.917 82.8239 201.391L54.7764 155.954L81.7066 149.253L99.4041 176.936C104.172 184.188 108.163 189.367 116.092 189.895C116.228 189.904 129.9 190.747 134.431 191.121C136.56 191.298 154.347 193.429 156.702 193.712L159.297 191.365L161.571 189.401C164.64 186.754 168.698 185.587 172.705 186.2C174.983 186.549 176.459 186.77 177.087 186.855L177.14 186.864C177.185 186.875 177.268 186.882 177.383 186.894C178.314 186.999 180.788 187.282 183.742 189.309L183.813 189.367C184.648 190.044 186.069 191.427 186.706 193.457C186.791 193.723 186.641 194.008 186.372 194.093C186.106 194.178 185.82 194.029 185.735 193.76C185.172 191.969 183.894 190.738 183.184 190.164C183.17 190.152 183.158 190.143 183.147 190.134C180.409 188.262 178.126 188 177.266 187.904C177.114 187.888 177.002 187.872 176.928 187.858C176.284 187.769 174.811 187.548 172.548 187.204C168.836 186.636 165.074 187.716 162.233 190.168L159.966 192.123L157.035 194.77L156.805 194.743C156.603 194.717 136.556 192.311 134.344 192.129C129.824 191.755 116.161 190.915 116.026 190.905C107.628 190.345 103.487 184.99 98.5512 177.485L81.2445 150.411L56.3719 156.6L83.6837 200.842C88.0426 207.465 93.3785 213.693 102.784 214.322C103.027 214.338 127.479 215.881 135.579 216.515C137.668 216.678 140.914 216.983 142.188 217.11L177.054 222.095C178.845 222.343 180.627 221.881 182.073 220.793C183.512 219.707 184.441 218.129 184.687 216.349L184.832 215.298C184.871 215.02 185.131 214.827 185.404 214.866C185.683 214.905 185.876 215.16 185.837 215.438L185.689 216.49C185.404 218.538 184.338 220.354 182.68 221.604C181.319 222.637 179.689 223.179 178.006 223.179Z" fill="black"/>
<path d="M182.901 216.212C182.514 216.212 182.124 216.186 181.73 216.131L170.64 214.613C170.362 214.574 170.169 214.319 170.206 214.042C170.242 213.764 170.5 213.569 170.778 213.608L181.868 215.125C185.984 215.69 189.832 212.815 190.441 208.719C190.483 208.441 190.742 208.25 191.018 208.291C191.296 208.333 191.487 208.59 191.446 208.868C190.814 213.123 187.105 216.212 182.901 216.212Z" fill="black"/>
<path d="M189.223 209.541C188.949 209.541 188.676 209.522 188.398 209.483L172.367 207.29C172.089 207.251 171.895 206.996 171.932 206.718C171.971 206.441 172.229 206.245 172.505 206.284L188.535 208.477C191.278 208.854 193.821 206.937 194.202 204.204L194.465 202.335C194.504 202.057 194.761 201.862 195.037 201.903C195.315 201.942 195.508 202.197 195.469 202.475L195.207 204.344C194.786 207.355 192.189 209.541 189.223 209.541Z" fill="black"/>
<path d="M203.102 203.993C202.916 203.993 202.729 203.979 202.539 203.954L172.325 199.818C172.047 199.781 171.854 199.524 171.891 199.246C171.928 198.968 172.187 198.775 172.463 198.812L202.677 202.948C204.369 203.182 205.934 201.997 206.169 200.314L206.217 199.965C206.33 199.152 206.12 198.343 205.624 197.687C205.125 197.03 204.401 196.605 203.58 196.493L167.465 191.551C167.187 191.512 166.994 191.257 167.031 190.979C167.07 190.701 167.325 190.506 167.603 190.545L203.718 195.487C204.808 195.636 205.771 196.199 206.433 197.074C207.093 197.944 207.373 199.021 207.222 200.102L207.173 200.452C206.891 202.505 205.12 203.993 203.102 203.993Z" fill="black"/>
<path d="M86.7134 158.023L89.2423 161.84L63.2041 168.366L59.0107 161.236L86.7134 158.023Z" fill="black"/>
<path d="M131.224 217.16L140.305 217.766L142.05 192.563L132.969 191.957L131.224 217.16Z" fill="#0074D9"/>
<path d="M138.356 211.235C142.006 210.163 144.097 206.349 143.028 202.715C141.958 199.082 138.133 197.006 134.483 198.078C130.834 199.149 128.742 202.964 129.812 206.597C130.881 210.23 134.707 212.307 138.356 211.235Z" fill="white"/>
<path d="M138.988 205.791C138.985 205.791 138.985 205.791 138.983 205.791L136.33 205.765C136.142 205.763 135.969 205.658 135.884 205.49L133.725 201.276C133.597 201.026 133.696 200.72 133.946 200.594C134.197 200.465 134.502 200.564 134.629 200.814L136.647 204.755L138.995 204.776C139.275 204.778 139.5 205.008 139.498 205.288C139.494 205.568 139.266 205.791 138.988 205.791Z" fill="#020202"/>
<path d="M90.5215 158.43C86.2983 150.468 80.8727 138.325 72.0147 134.219C61.2164 129.215 47.3214 143.483 50.756 154.854C52.2826 159.911 60.3934 168.713 60.3934 168.713L90.5215 158.43Z" fill="#FED101"/>
<path d="M57.246 165.562C57.1012 165.562 56.9563 165.5 56.8552 165.379C56.577 165.043 50.0318 157.128 50.2157 152.377C50.2272 152.096 50.4617 151.869 50.7422 151.89C51.0227 151.901 51.2411 152.135 51.2296 152.416C51.0617 156.779 57.5702 164.651 57.6345 164.729C57.8138 164.945 57.784 165.264 57.5678 165.443C57.4759 165.523 57.3609 165.562 57.246 165.562Z" fill="black"/>
<path d="M67.1471 112.435C67.5563 117.462 68.4483 124.409 63.4319 124.82C58.4155 125.231 49.392 118.95 48.9828 113.923C48.5736 108.897 52.3071 104.487 57.3235 104.076C62.3376 103.665 66.7378 107.408 67.1471 112.435Z" fill="#FDA4FF"/>
<path d="M62.7402 130.349L52.1718 130.405L50.8154 113.772L61.3195 112.913L62.7402 130.349Z" fill="#FDA4FF"/>
<path d="M62.717 130.568C62.4549 130.568 62.2342 130.368 62.2112 130.101L61.3836 119.944C61.3606 119.664 61.5698 119.421 61.8479 119.398C62.1284 119.37 62.3721 119.584 62.3951 119.862L63.2227 130.019C63.2457 130.297 63.0365 130.542 62.7583 130.565C62.7446 130.565 62.7308 130.568 62.717 130.568Z" fill="black"/>
<path d="M64.6276 106.074C63.754 103.245 59.5262 101.126 55.2754 102.444C52.4315 103.326 49.5831 105.041 47.7853 108.655C43.0954 118.08 33.0098 150.652 33.0098 150.652H58.2158L59.5009 113.225C63.1747 111.726 65.43 108.676 64.6276 106.074Z" fill="black"/>
<path d="M118.952 302.085C118.837 302.085 118.724 302.046 118.635 301.975C118.529 301.89 118.462 301.769 118.446 301.635L117.793 295.775C115.692 295.481 113.65 294.889 111.712 294.011L108.034 298.618C107.949 298.724 107.827 298.79 107.694 298.806C107.558 298.822 107.425 298.783 107.321 298.698L99.4428 292.392C99.2244 292.218 99.1899 291.899 99.3623 291.68L103.043 287.074C101.76 285.375 100.733 283.51 99.983 281.524L94.1299 282.176C93.854 282.206 93.6057 282.013 93.5712 281.737L92.2907 271.993C92.2539 271.72 92.4447 271.468 92.716 271.426L98.7508 270.494C99.0428 268.384 99.6359 266.335 100.516 264.388L95.9139 260.704C95.6955 260.53 95.6587 260.211 95.8334 259.993L102.133 252.104C102.218 251.999 102.34 251.932 102.473 251.916C102.606 251.9 102.742 251.939 102.848 252.024L107.448 255.707C108.112 255.205 108.809 254.736 109.524 254.314C109.765 254.171 110.076 254.249 110.22 254.49C110.363 254.732 110.285 255.042 110.043 255.186C109.253 255.655 108.482 256.181 107.756 256.75C107.572 256.895 107.31 256.895 107.126 256.748L102.611 253.133L96.9461 260.227L101.464 263.841C101.648 263.988 101.705 264.241 101.606 264.454C100.624 266.526 99.9876 268.728 99.7141 270.995C99.6865 271.22 99.5118 271.401 99.2888 271.435L93.3666 272.349L94.5184 281.108L100.273 280.465C100.505 280.437 100.728 280.577 100.806 280.798C101.574 282.95 102.68 284.957 104.091 286.762C104.236 286.948 104.234 287.207 104.089 287.391L100.477 291.912L107.565 297.585L111.174 293.063C111.322 292.879 111.577 292.819 111.788 292.921C113.857 293.901 116.055 294.539 118.322 294.815C118.557 294.843 118.738 295.029 118.766 295.263L119.407 301.013L123.69 300.535C123.968 300.501 124.219 300.705 124.251 300.983C124.283 301.261 124.081 301.511 123.803 301.543L119.016 302.079C118.989 302.085 118.97 302.085 118.952 302.085ZM120.531 286.833C120.527 286.833 120.522 286.833 120.518 286.833C113.972 286.647 108.492 281.586 107.765 275.064C107.246 270.404 109.259 265.77 113.021 262.966C113.246 262.799 113.563 262.845 113.731 263.07C113.899 263.295 113.853 263.612 113.627 263.779C110.154 266.367 108.294 270.648 108.772 274.951C109.443 280.975 114.503 285.648 120.545 285.818C120.826 285.825 121.046 286.059 121.037 286.339C121.03 286.615 120.805 286.833 120.531 286.833Z" fill="white"/>
<path d="M180.969 63.0744L179.615 50.9081L172.04 51.7531C171.075 49.0434 169.686 46.5541 167.962 44.3519L172.723 38.3904L163.173 30.748L158.412 36.7095C155.887 35.5108 153.156 34.7047 150.303 34.358L149.46 26.7753L137.307 28.1324L138.151 35.7151C135.445 36.6819 132.957 38.0712 130.757 39.7958L124.803 35.0308L117.168 44.593L123.122 49.358C121.927 51.8863 121.12 54.619 120.773 57.4758L113 58.6768L114.554 70.4871L122.129 69.642C123.095 72.3518 124.483 74.8411 126.208 77.0433L121.446 83.0048L130.996 90.6472L135.758 84.6857C138.282 85.8844 141.013 86.6905 143.866 87.0372L144.71 94.6199L156.862 93.2627L156.018 85.6801C158.724 84.7133 161.212 83.324 163.412 81.5994L169.366 86.3644L177.001 76.8022L171.047 72.0372C172.242 69.5089 173.049 66.7762 173.396 63.9194L180.969 63.0744ZM148.793 76.0375C140.33 76.9813 132.705 70.8798 131.76 62.4084C130.817 53.937 136.912 46.3015 145.374 45.3577C153.837 44.4139 161.462 50.5154 162.407 58.9868C163.352 67.4582 157.255 75.0937 148.793 76.0375Z" fill="#0074D9"/>
<path d="M118.587 19.7208L117.872 13.2909L113.869 13.7387C113.359 12.3057 112.625 10.9899 111.715 9.82791L114.23 6.67726L109.181 2.6379L106.666 5.78855C105.333 5.15475 103.889 4.72992 102.381 4.5462L101.935 0.539001L95.5117 1.25548L95.9577 5.26268C94.5278 5.77478 93.2127 6.50733 92.0495 7.41899L88.9022 4.89985L84.8675 9.95422L88.0148 12.4734C87.3825 13.8099 86.9572 15.2543 86.7733 16.763L82.665 17.3968L83.4858 23.6384L87.4883 23.1906C87.9987 24.6236 88.732 25.9394 89.6424 27.1014L87.1274 30.252L92.1759 34.2914L94.691 31.1407C96.0244 31.7745 97.4682 32.1994 98.9763 32.3831L99.4223 36.3903L105.846 35.6738L105.4 31.6666C106.83 31.1545 108.145 30.422 109.308 29.5103L112.455 32.0294L116.49 26.9751L113.343 24.4559C113.975 23.1194 114.4 21.675 114.584 20.1663L118.587 19.7208ZM101.581 26.5732C97.1072 27.0715 93.0771 23.8474 92.5782 19.3694C92.0794 14.8915 95.3025 10.8567 99.774 10.3584C104.248 9.86006 108.278 13.0842 108.777 17.5622C109.276 22.0378 106.055 26.0726 101.581 26.5732Z" fill="#FED101"/>
</svg>
