<svg width="60" height="60" viewBox="0 0 60 60" fill="none" xmlns="http://www.w3.org/2000/svg">
<g id="Group 1000003724">
<path id="Vector" d="M30 60C46.5685 60 60 46.5685 60 30C60 13.4315 46.5685 0 30 0C13.4315 0 0 13.4315 0 30C0 46.5685 13.4315 60 30 60Z" fill="#F1F8FF"/>
<path id="Union" fill-rule="evenodd" clip-rule="evenodd" d="M36.6209 18.4564C36.6204 18.1863 36.6198 17.9162 36.6198 17.6462C36.6195 17.3836 36.6182 17.121 36.6168 16.8583V16.8582V16.858V16.8578V16.8578C36.613 16.1069 36.6091 15.3557 36.63 14.6032C36.6424 14.0953 36.4641 13.7702 36.0126 13.5151C34.0788 12.4241 32.1547 11.3142 30.2405 10.1855C29.8082 9.9304 29.4605 9.94281 29.0328 10.1956C27.132 11.3183 25.22 12.4214 23.2967 13.505C22.8317 13.7657 22.6534 14.0908 22.6534 14.619C22.6622 15.6771 22.6624 16.7355 22.6627 17.794C22.663 18.7768 22.6632 19.7596 22.6703 20.7422C22.6834 20.8718 22.655 21.0023 22.589 21.1147C22.5231 21.2271 22.4231 21.3157 22.3035 21.3675C21.7482 21.6705 21.2013 21.989 20.6544 22.3074L20.6544 22.3074L20.6543 22.3074L20.654 22.3076C20.4473 22.4279 20.2407 22.5483 20.0337 22.6677C19.5054 22.9736 19.3384 23.3224 19.5528 23.7118C19.7673 24.1012 20.1714 24.1418 20.7233 23.8246C20.9198 23.7119 21.1169 23.6002 21.3141 23.4884L21.3145 23.4882L21.3145 23.4882L21.3146 23.4882C21.8638 23.1769 22.4132 22.8655 22.948 22.5334C23.255 22.3415 23.4739 22.3664 23.7776 22.5447C24.5494 22.9986 25.3256 23.4472 26.1022 23.8959L26.1024 23.896L26.1026 23.8962L26.1028 23.8963C27.0794 24.4607 28.0566 25.0253 29.026 25.6012C29.4696 25.8698 29.8274 25.8608 30.2675 25.6012C31.3227 24.9772 32.3847 24.3643 33.4466 23.7514L33.4467 23.7514L33.4468 23.7513C34.1749 23.3311 34.903 22.9109 35.6288 22.4871C35.7171 22.4225 35.8236 22.3876 35.933 22.3876C36.0424 22.3876 36.149 22.4225 36.2372 22.4871C37.0442 22.9724 37.8624 23.4397 38.6806 23.9069L38.6808 23.907C39.1199 24.1565 39.4958 24.1045 39.7136 23.7411C39.9314 23.3777 39.7949 22.9916 39.3434 22.7253C38.5431 22.2557 37.744 21.7873 36.9314 21.3359C36.683 21.2015 36.6131 21.0424 36.6131 20.7715C36.6239 19.9998 36.6224 19.2281 36.6209 18.4564ZM33.6313 13.7178L33.6318 13.718L33.6417 13.7238C33.9547 13.9049 34.27 14.0874 34.5882 14.2714H34.5871C34.2255 14.4804 33.8677 14.6875 33.5128 14.8929L33.5124 14.8931L33.5121 14.8932C32.2522 15.6224 31.0289 16.3304 29.8014 17.0321C29.7463 17.0547 29.687 17.0649 29.6275 17.0622C29.5681 17.0595 29.5099 17.0438 29.4571 17.0163C27.9101 16.1277 26.3645 15.2353 24.8205 14.3391C24.8084 14.332 24.8017 14.3156 24.7914 14.2904C24.7853 14.2755 24.7779 14.2574 24.7674 14.2364L26.5034 13.2262C26.6794 13.1241 26.8554 13.0219 27.0314 12.9197L27.0317 12.9195L27.032 12.9193C27.8038 12.4711 28.5759 12.0227 29.3533 11.5862C29.482 11.5151 29.6987 11.4609 29.8048 11.5207C31.0726 12.2368 32.3324 12.9659 33.6311 13.7176L33.6313 13.7177L33.6313 13.7178ZM35.2349 20.3436V15.4779C35.1775 15.509 35.1252 15.5368 35.0765 15.5627C34.9854 15.6112 34.9065 15.6532 34.8286 15.698C34.4524 15.9151 34.0767 16.1327 33.701 16.3502L33.7006 16.3504C32.6774 16.943 31.6544 17.5354 30.6242 18.1157C30.3748 18.2556 30.3082 18.4114 30.3104 18.68C30.3167 19.5867 30.316 20.4938 30.3153 21.401V21.401V21.4011C30.3148 22.1269 30.3142 22.8527 30.3172 23.5786C30.3172 23.6526 30.3235 23.7305 30.331 23.8234C30.335 23.8721 30.3393 23.9251 30.3432 23.9838L34.5837 21.5356L32.797 20.504C32.3105 20.2218 32.1626 19.8516 32.3838 19.4746C32.5938 19.118 32.99 19.0593 33.455 19.3234C34.018 19.6494 34.5799 19.9699 35.2099 20.3293L35.2107 20.3297L35.2108 20.3298L35.2349 20.3436ZM28.9639 23.5537V23.9973L24.7053 21.5334C24.8944 21.4239 25.0781 21.3178 25.2579 21.2139C25.6877 20.9657 26.0952 20.7303 26.5011 20.4916C26.9639 20.2196 27.114 19.8652 26.9097 19.4893C26.7054 19.1135 26.2968 19.0514 25.8103 19.329C25.4563 19.5326 25.1027 19.7367 24.7371 19.9476L24.0484 20.3449V15.4836C24.0795 15.499 24.1093 15.5136 24.1381 15.5277C24.2355 15.5754 24.3207 15.6171 24.4017 15.6642C24.7627 15.8725 25.1235 16.0812 25.4844 16.29C26.5213 16.8898 27.5586 17.4898 28.6027 18.0818C28.8589 18.2297 28.9718 18.3854 28.9718 18.7004C28.9585 19.8897 28.9605 21.0796 28.9625 22.2692V22.2693V22.2694C28.9632 22.6976 28.9639 23.1257 28.9639 23.5537ZM51.0872 34.2204C51.1479 34.163 51.2087 34.1056 51.2715 34.0517V26.3721C51.2122 26.3171 51.1567 26.2569 51.1013 26.197C50.9944 26.0814 50.8885 25.9668 50.7591 25.8924C49.699 25.2739 48.6363 24.6602 47.5737 24.0465C46.6507 23.5135 45.7277 22.9804 44.8064 22.4442C44.655 22.3427 44.4768 22.2884 44.2945 22.2884C44.1122 22.2884 43.934 22.3427 43.7826 22.4442C41.8157 23.5955 39.8424 24.7355 37.8626 25.8642C37.4732 26.0854 37.3186 26.3664 37.3186 26.8179C37.3265 27.8512 37.3265 28.8857 37.3265 29.9206C37.3265 30.9554 37.3265 31.9907 37.3344 33.0257C37.3481 33.1548 37.3198 33.2847 37.2537 33.3964C37.1876 33.508 37.0873 33.5953 36.9676 33.6454C36.385 33.9595 35.8139 34.2952 35.2429 34.6309C35.1226 34.7016 35.0022 34.7724 34.8817 34.8429C34.4495 35.0946 34.3095 35.4671 34.5014 35.8215C34.7034 36.1962 35.0951 36.2707 35.5612 36.0078L35.7755 35.8869C36.4145 35.5267 37.0544 35.1658 37.6798 34.7831C37.9213 34.6353 38.0929 34.6533 38.3277 34.791C39.0959 35.2402 39.867 35.6847 40.6379 36.129L40.6383 36.1293C41.659 36.7176 42.6795 37.3058 43.6935 37.9051C44.1235 38.1545 44.4745 38.159 44.9057 37.9051C46.0014 37.2591 47.1033 36.623 48.2052 35.987C49.0284 35.5118 49.8517 35.0367 50.6722 34.5574C50.8242 34.4686 50.9557 34.3445 51.0872 34.2204ZM45.1152 36.1901L45.1145 36.1904C45.0756 36.2092 45.0341 36.2293 44.9892 36.2516C44.9855 36.1918 44.9811 36.1377 44.9771 36.0872V36.0871V36.0871C44.9701 36.0002 44.964 35.9238 44.9632 35.8475C44.963 35.5335 44.9626 35.2196 44.9622 34.9056C44.9604 33.5875 44.9586 32.2696 44.9723 30.9523C44.9723 30.7898 45.0716 30.555 45.198 30.4805C46.4129 29.7596 47.6379 29.0548 48.8626 28.3501L48.863 28.35L48.8633 28.3498C49.1608 28.1786 49.4583 28.0074 49.7557 27.836C49.8088 27.818 49.8637 27.8055 49.9193 27.7988V28.2232C49.9193 28.605 49.919 28.9868 49.9187 29.3685V29.3686V29.3687C49.9177 30.5904 49.9167 31.8117 49.9261 33.0336C49.934 33.3169 49.8561 33.484 49.5954 33.6307C48.5576 34.2157 47.524 34.8135 46.4907 35.411L46.4899 35.4115L46.4888 35.4121L46.4876 35.4128C46.1104 35.6309 45.7333 35.849 45.356 36.0664C45.2827 36.109 45.2062 36.146 45.1155 36.1899L45.1153 36.19L45.1152 36.1901ZM40.1688 27.0408L39.3536 26.5707C39.6636 26.391 39.9709 26.2126 40.2764 26.0353L40.2773 26.0347C41.2104 25.4931 42.1258 24.9618 43.0456 24.433C43.164 24.3647 43.2832 24.2827 43.4028 24.2004C43.7003 23.9957 44.0002 23.7893 44.2973 23.7885C44.595 23.7877 44.8955 23.9933 45.1936 24.1972C45.3126 24.2786 45.4312 24.3597 45.549 24.4274C46.6348 25.0511 47.7188 25.6768 48.8008 26.3044C48.9329 26.38 49.0604 26.4601 49.2331 26.573L47.2669 27.7085L46.789 27.9847C46.0453 28.4146 45.3017 28.8446 44.558 29.2638C44.444 29.3281 44.2465 29.3755 44.1495 29.3214C42.8262 28.5738 41.5101 27.8146 40.1691 27.041L40.1688 27.0408ZM43.6111 36.2832L39.3469 33.8237L41.3729 32.6454C41.402 32.6285 41.4316 32.6124 41.4611 32.5963L41.4611 32.5963C41.5184 32.5651 41.5755 32.534 41.6291 32.4975C41.988 32.2503 42.0851 31.8745 41.8819 31.5494C41.6787 31.2243 41.304 31.1374 40.918 31.353C40.495 31.5878 40.0763 31.8312 39.6574 32.0747C39.4683 32.1847 39.2791 32.2946 39.0895 32.4038C39.0085 32.4506 38.926 32.4957 38.8314 32.5473L38.8308 32.5476L38.8306 32.5477C38.7883 32.5708 38.7436 32.5952 38.6956 32.6217V27.7807C38.7411 27.8031 38.7834 27.8232 38.8235 27.8422L38.8235 27.8422L38.8236 27.8422C38.9068 27.8817 38.9799 27.9164 39.05 27.9568L39.5363 28.2367C40.7877 28.9571 42.0398 29.678 43.2849 30.4094C43.4214 30.4896 43.5975 30.66 43.5975 30.7909C43.6137 32.2282 43.6127 33.6662 43.6116 35.1497V35.1504C43.6113 35.5248 43.6111 35.9022 43.6111 36.2832ZM8.00637 30.1859C8.00637 29.8055 8.00762 29.4252 8.00887 29.045C8.01138 28.2846 8.01389 27.5244 8.00637 26.7637C7.99311 26.5816 8.03487 26.3996 8.12623 26.2414C8.2176 26.0832 8.35436 25.9561 8.5188 25.8766C10.5061 24.7381 12.4895 23.5932 14.4693 22.442C14.6208 22.3402 14.7992 22.2858 14.9817 22.2858C15.1642 22.2858 15.3426 22.3402 15.4941 22.442C17.4626 23.5887 19.4363 24.7272 21.4153 25.8574C21.8013 26.0831 21.9638 26.3619 21.9604 26.8123C21.952 27.84 21.952 28.8679 21.952 29.896C21.9519 30.9241 21.9519 31.9523 21.9435 32.9806C21.9435 33.326 22.0564 33.5032 22.3509 33.6578C22.8763 33.9388 23.3906 34.2409 23.9023 34.5415L23.9024 34.5415L23.9032 34.542C24.0696 34.6397 24.2357 34.7373 24.4018 34.8339C24.8296 35.0845 24.9661 35.4637 24.7788 35.8159C24.5779 36.1906 24.1839 36.2673 23.7201 36.0032L23.6704 35.9751L23.6703 35.9751C22.9893 35.5894 22.3076 35.2033 21.6376 34.7989C21.5389 34.7252 21.4192 34.6849 21.296 34.6839C21.1728 34.6829 21.0524 34.7212 20.9525 34.7933C20.094 35.297 19.2315 35.7942 18.369 36.2913L18.3683 36.2917L18.368 36.2919C17.4393 36.8273 16.5106 37.3626 15.5867 37.9062C15.1589 38.1579 14.8056 38.1568 14.3756 37.9062C12.4485 36.7723 10.5117 35.6541 8.56507 34.5517C8.16326 34.326 7.98718 34.037 8.00072 33.5698C8.01578 32.7764 8.01247 31.9841 8.00917 31.1925C8.00777 30.8569 8.00637 30.5214 8.00637 30.1859ZM14.2717 36.2685C14.2885 36.194 14.3009 36.1186 14.309 36.0427C14.309 35.6357 14.3095 35.2287 14.31 34.8217V34.8217V34.8216C14.3116 33.4983 14.3132 32.1749 14.2977 30.8507C14.2977 30.7029 14.1386 30.5031 13.9986 30.4207C12.8107 29.7187 11.615 29.03 10.4187 28.3409L9.69715 27.9252C9.63412 27.8886 9.5668 27.8595 9.49889 27.8302L9.49887 27.8302C9.46828 27.817 9.43757 27.8037 9.40708 27.7897C9.39859 27.8087 9.39067 27.824 9.38401 27.8368L9.384 27.8368C9.37208 27.8598 9.36419 27.875 9.36419 27.8902C9.36419 28.4809 9.36331 29.0715 9.36243 29.6622C9.36068 30.8436 9.35892 32.025 9.36419 33.2063C9.37002 33.2704 9.38982 33.3324 9.42219 33.3879C9.45456 33.4435 9.49872 33.4913 9.55155 33.528C11.1058 34.44 12.6634 35.3429 14.2717 36.2685ZM10.0403 26.5696L10.795 27.0053C12.1615 27.7943 13.489 28.5607 14.8237 29.3135C14.9287 29.3722 15.1442 29.3202 15.2684 29.2503C16.4841 28.5599 17.6943 27.86 18.905 27.1599L19.6195 26.7468C19.6882 26.7072 19.7527 26.6607 19.8335 26.6026C19.8563 26.5862 19.8803 26.5688 19.9062 26.5504C19.4893 26.3093 19.075 26.0713 18.6629 25.8347L18.6628 25.8346C17.6034 25.2263 16.5595 24.6269 15.5291 24.0052C15.1262 23.7614 14.835 23.7704 14.4365 24.0109C13.4028 24.6322 12.3591 25.2331 11.2924 25.8472C10.8787 26.0854 10.4616 26.3255 10.0403 26.5696ZM20.5766 32.6341V27.792C20.5159 27.8145 20.4564 27.8402 20.3983 27.8687C20.1119 28.0337 19.8254 28.1985 19.5388 28.3633C18.3258 29.0609 17.1129 29.7584 15.9095 30.4715C15.8392 30.5284 15.7818 30.5996 15.7412 30.6803C15.7005 30.7611 15.6775 30.8496 15.6736 30.9399C15.6587 31.9434 15.6601 32.9495 15.6615 33.9516C15.6619 34.2435 15.6623 34.535 15.6623 34.826V36.2933L19.9186 33.8395L19.8267 33.7807C19.7151 33.7092 19.6232 33.6503 19.5292 33.5957C19.3202 33.4743 19.1102 33.3543 18.9002 33.2343L18.8997 33.234C18.4871 32.9982 18.0744 32.7623 17.6691 32.5156C17.1714 32.2131 17.1533 31.5313 17.6533 31.3338C17.9018 31.2589 18.1696 31.2819 18.4016 31.3982C18.9667 31.6833 19.5146 32.0072 20.0894 32.3471C20.2494 32.4417 20.4115 32.5375 20.5766 32.6341ZM36.6165 43.2281C36.6176 42.8571 36.6187 42.4861 36.6187 42.1151C36.6187 41.7501 36.6179 41.3855 36.6171 41.0215C36.6154 40.243 36.6137 39.467 36.6198 38.694C36.6346 38.5049 36.5923 38.3157 36.4986 38.1507C36.4049 37.9858 36.2639 37.8527 36.0939 37.7685C34.1141 36.6406 32.1412 35.501 30.175 34.3497C29.7879 34.1228 29.4662 34.1386 29.079 34.3644C27.1264 35.5096 25.1655 36.6417 23.1963 37.7606C22.8024 37.9841 22.6511 38.2742 22.6511 38.7155C22.6609 40.9684 22.6609 43.2212 22.6511 45.4741C22.6489 45.9154 22.8035 46.2044 23.1963 46.4301C25.1617 47.5483 27.1226 48.6807 29.079 49.8275C29.4786 50.0656 29.8116 50.0521 30.2077 49.8185C32.1491 48.6792 34.098 47.5543 36.0544 46.4437C36.4652 46.2111 36.6255 45.9098 36.6187 45.4527C36.6119 44.7115 36.6142 43.9699 36.6165 43.2281ZM30.4854 48.0927C30.4299 48.1158 30.3729 48.1354 30.315 48.1514V48.1457C30.315 47.8007 30.3148 47.4572 30.3147 47.1151C30.3142 45.6398 30.3137 44.1902 30.3229 42.7517C30.325 42.6863 30.3414 42.6221 30.3708 42.5636C30.4002 42.5052 30.442 42.4538 30.4933 42.4131C32.0227 41.5158 33.5588 40.632 35.095 39.7482C35.1426 39.7346 35.1922 39.7289 35.2417 39.7313C35.2447 39.7744 35.2483 39.8165 35.2519 39.8578C35.2594 39.943 35.2665 40.0251 35.2665 40.1072C35.2667 40.4057 35.2671 40.7044 35.2675 41.0033C35.2693 42.3204 35.2711 43.6405 35.2564 44.9606C35.2541 45.1332 35.148 45.3838 35.0103 45.4651C33.8024 46.1836 32.5842 46.8846 31.3658 47.5857C31.0723 47.7546 30.7788 47.9235 30.4854 48.0927ZM28.9605 48.1817C28.9605 47.819 28.9607 47.4594 28.9609 47.1023C28.9618 45.6064 28.9627 44.1548 28.9481 42.7032C28.9481 42.579 28.8014 42.412 28.6795 42.3397C27.4016 41.5894 26.1183 40.8496 24.8345 40.1095C24.668 40.0136 24.5016 39.9176 24.3351 39.8216C24.2484 39.7792 24.1595 39.7416 24.0688 39.7087C24.0443 39.7505 24.0264 39.7958 24.0157 39.8431C24.0157 40.4296 24.0148 41.0162 24.014 41.6029C24.0122 42.7763 24.0104 43.95 24.0157 45.1231C24.0196 45.1824 24.0365 45.2401 24.0652 45.2922C24.0939 45.3443 24.1336 45.3894 24.1816 45.4244C25.097 45.9534 26.0136 46.4819 26.9454 47.0193C27.6077 47.4012 28.2777 47.7875 28.9605 48.1817ZM34.5822 38.4639C34.2424 38.2677 33.9058 38.073 33.5718 37.8798C32.2951 37.1412 31.0548 36.4237 29.8059 35.7211C29.693 35.6579 29.4571 35.7211 29.3194 35.8035C28.3146 36.3731 27.3165 36.9495 26.3164 37.5271C25.9056 37.7644 25.4945 38.0019 25.0823 38.2392C25.003 38.286 24.9237 38.3372 24.8326 38.3961C24.7941 38.421 24.7535 38.4472 24.7099 38.4751C25.0815 38.6899 25.4501 38.9031 25.8164 39.1151C27.0364 39.821 28.2315 40.5126 29.4346 41.1975C29.4919 41.2275 29.5551 41.2449 29.6197 41.2484C29.6844 41.2519 29.749 41.2415 29.8093 41.2178C30.915 40.5858 32.0157 39.9487 33.1398 39.2981C33.6157 39.0227 34.0958 38.7448 34.5822 38.4639Z" fill="#1AA3FF"/>
</g>
</svg>
