<svg width="60" height="60" viewBox="0 0 60 60" fill="none" xmlns="http://www.w3.org/2000/svg">
<g id="Group 1000003721">
<path id="Vector" d="M30 60C46.5685 60 60 46.5685 60 30C60 13.4315 46.5685 0 30 0C13.4315 0 0 13.4315 0 30C0 46.5685 13.4315 60 30 60Z" fill="#F1F8FF"/>
<path id="Vector_2" d="M32.4948 10C32.6378 10.7374 32.7743 11.4772 32.9334 12.2114C32.9512 12.2921 33.0853 12.3729 33.1822 12.4157C33.8382 12.696 34.4941 12.977 35.1606 13.2315C35.2338 13.2533 35.3106 13.2604 35.3866 13.2524C35.4626 13.2443 35.5363 13.2213 35.6033 13.1846C36.1914 12.8268 36.7633 12.4416 37.3651 12.0498C37.4613 12.1379 37.5574 12.2186 37.6454 12.3067C38.6035 13.2622 39.5543 14.2265 40.5229 15.1715C40.7305 15.3742 40.7911 15.5301 40.653 15.8014C40.4494 16.2053 40.2951 16.6317 40.1335 17.0129C40.7119 17.1325 41.2944 17.1745 41.8122 17.3756C43.6443 18.0968 44.6396 19.4989 44.8076 21.4381C44.9037 22.5487 44.9255 23.6786 44.4287 24.7366C44.1316 25.3756 43.6981 25.9418 43.1588 26.3956C43.0433 26.4933 42.9811 26.6532 42.8939 26.7848C43.0304 26.8592 43.158 26.9617 43.3042 27.0045C44.2882 27.2899 45.2748 27.5667 46.2641 27.8348C46.3741 27.8547 46.4876 27.8379 46.5872 27.7872C46.9265 27.6256 47.2795 27.473 47.5849 27.2573C48.3046 26.7501 49.0995 26.6984 49.993 26.805V27.1959C49.993 30.0599 49.9873 32.9231 50.0002 35.7863C50.0002 36.0875 49.9195 36.241 49.6424 36.3767C46.0072 38.1785 42.3841 39.9966 38.753 41.8025C38.4993 41.9285 38.3612 42.0586 38.3491 42.3744C38.3143 43.2377 37.6398 43.9751 36.7779 44.1181C36.529 44.1593 36.4345 44.2409 36.3966 44.4977C36.2762 45.3143 35.6194 45.9273 34.7809 46.0856C34.7157 46.1035 34.6554 46.1362 34.6049 46.1812C34.5543 46.2262 34.5148 46.2821 34.4893 46.3448C34.2356 47.3899 33.696 47.8947 32.603 48.0506C32.5837 48.1403 32.5626 48.2388 32.5425 48.3373C32.246 49.8129 30.5479 50.5043 29.358 49.5844C28.879 49.2136 28.5252 49.0481 27.8773 49.2524C26.8126 49.5884 25.7503 48.809 25.5403 47.7025C25.5015 47.4998 25.4433 47.3908 25.2171 47.3463C24.3019 47.167 23.7631 46.6033 23.5765 45.689C23.5605 45.6346 23.5325 45.5846 23.4944 45.5426C23.4564 45.5007 23.4093 45.4679 23.3567 45.4467C22.2597 45.1503 21.8025 44.6673 21.603 43.5471C21.4173 43.5116 21.2337 43.4663 21.0528 43.4114C20.3153 43.1529 19.8637 42.6304 19.7215 41.8671C19.7085 41.7671 19.6711 41.6718 19.6125 41.5897C19.5539 41.5075 19.4759 41.4411 19.3855 41.3963C18.8451 41.0877 18.3143 40.7615 17.7755 40.44C17.6834 40.6161 17.6139 40.8947 17.5186 40.9052C17.0961 40.9504 16.63 41.0215 16.2423 40.8979C14.1532 40.2332 12.0796 39.516 10.0002 38.8158V25.4619C11.544 25.2341 12.8979 25.7042 14.0927 26.6435C14.9191 27.2896 15.7713 27.4197 16.7189 27.0029C16.8498 26.9456 16.9709 26.8648 17.0969 26.7953C17.0162 26.6629 16.954 26.4997 16.8392 26.4036C16.144 25.8278 15.6312 25.0623 15.3634 24.2003C15.0814 23.3119 15.1291 22.3952 15.1711 21.4898C15.2567 19.6217 16.1615 18.2511 17.8749 17.4935C18.4751 17.2278 19.1601 17.1527 19.8379 16.9822C19.6763 16.5905 19.476 16.1431 19.3055 15.6843C19.2667 15.5785 19.2764 15.3887 19.3459 15.3177C20.4187 14.2208 21.5052 13.137 22.6038 12.0361C23.2121 12.4319 23.7946 12.8204 24.3899 13.1878C24.4508 13.2249 24.5184 13.2496 24.5888 13.2604C24.6593 13.2712 24.7311 13.268 24.8003 13.2508C25.4894 12.9859 26.1736 12.6968 26.8497 12.4068C26.9305 12.3705 27.0436 12.2889 27.0606 12.2114C27.2157 11.4764 27.353 10.7374 27.496 10H32.4948ZM48.6972 28.1538C48.5001 28.2532 48.3636 28.3154 48.2295 28.3897C44.5502 30.3281 40.8716 32.2665 37.1939 34.2048C36.7601 34.435 36.3368 34.5594 35.8586 34.4859C35.6022 34.4472 35.3484 34.3932 35.0984 34.3244C33.9852 34.011 32.8739 33.6922 31.7645 33.3681C30.9963 33.1444 30.245 33.167 29.5228 33.5232C28.3579 34.0977 27.1966 34.68 26.0387 35.2702C25.5055 35.5423 25.3254 36.1287 25.5984 36.6198C25.8553 37.0826 26.3836 37.194 26.9119 36.8831C27.6075 36.4752 28.2957 36.0552 28.9872 35.6425C30.2596 34.8833 31.3469 34.9842 32.4463 35.9696C34.1514 37.4988 35.8526 39.0317 37.5501 40.5684C37.7666 40.7655 37.9193 40.7897 38.1851 40.6565C41.5623 38.9582 44.9444 37.2691 48.3313 35.5892C48.5995 35.4559 48.7077 35.313 48.7053 35.002C48.69 32.869 48.6972 30.7351 48.6972 28.6013V28.1538ZM28.7102 44.1754C29.3184 44.2489 29.7837 44.5276 30.2038 44.9565C30.7661 45.5286 31.3629 46.0659 31.9907 46.5653C32.3906 46.8843 32.8623 46.7931 33.0958 46.4539C33.3147 46.1308 33.2243 45.7787 32.8228 45.4411C32.1151 44.8466 31.4034 44.2586 30.6942 43.6642C30.3282 43.3589 29.9671 43.052 29.585 42.7322L30.4139 41.7516C31.5068 42.6643 32.5651 43.5447 33.6265 44.4282C33.7614 44.5502 33.9093 44.6569 34.0676 44.7465C34.2314 44.829 34.4194 44.8499 34.5973 44.8054C34.7753 44.7609 34.9313 44.654 35.037 44.5042C35.226 44.211 35.1646 43.8806 34.8641 43.5947C34.8076 43.5406 34.7438 43.4954 34.684 43.4453L31.5173 40.8018L32.3413 39.8165C32.536 39.978 32.7056 40.1153 32.8737 40.255C33.8237 41.0457 34.7712 41.8397 35.7236 42.6272C36.1276 42.9639 36.6365 42.9631 36.912 42.6401C37.1874 42.317 37.122 41.9132 36.6898 41.5247C34.988 39.9917 33.2851 38.4599 31.5811 36.9291C30.9494 36.3637 30.4001 36.3064 29.6666 36.7417C28.9331 37.177 28.2125 37.6075 27.492 38.0445C27.2484 38.1969 26.9763 38.2982 26.6923 38.3423C26.4083 38.3863 26.1183 38.3721 25.84 38.3005C24.9772 38.0897 24.3285 37.3741 24.2195 36.5455C24.0838 35.5213 24.4465 34.6725 25.2842 34.2186C26.2091 33.7178 27.1616 33.2663 28.1019 32.7931C28.236 32.7252 28.3684 32.6541 28.5656 32.5508C27.3409 32.0807 26.1526 31.773 24.9304 31.9805C23.305 32.2576 21.6991 32.6461 20.0834 33.0022C20.015 33.0229 19.952 33.0585 19.8989 33.1064C19.8459 33.1543 19.804 33.2133 19.7765 33.2793C19.2304 35.1487 18.697 37.0225 18.1762 38.9006C18.1677 38.9618 18.1742 39.0241 18.1952 39.0822C18.2162 39.1403 18.251 39.1925 18.2965 39.2342C18.8749 39.6033 19.4679 39.9481 20.0414 40.2922C20.5181 39.8254 20.9559 39.3618 21.4301 38.9394C22.6644 37.8409 24.419 38.4249 24.7906 40.0354C24.8138 40.1062 24.8529 40.1708 24.9048 40.2242C24.9568 40.2777 25.0202 40.3186 25.0903 40.3439C25.9975 40.5547 26.5444 41.095 26.7286 42.0125C26.7435 42.0678 26.771 42.1189 26.809 42.1618C26.847 42.2047 26.8944 42.2382 26.9475 42.2597C27.9888 42.4713 28.5526 43.1093 28.7102 44.1754ZM23.5773 30.8385C23.6105 30.8518 23.6457 30.8597 23.6815 30.8619C23.772 30.8539 23.8616 30.8377 23.9513 30.8207C25.1945 30.5841 26.4305 30.5784 27.6592 30.9185C29.1577 31.3352 30.6602 31.7382 32.1587 32.155C33.3099 32.4781 34.4578 32.8076 35.6089 33.129C35.7722 33.169 35.9383 33.196 36.1057 33.2098C36.3481 33.2373 36.4571 33.129 36.4531 32.8746C36.441 32.172 36.4676 31.4685 36.4426 30.7674C36.4063 29.7264 35.8691 29.0762 34.8577 28.8153C33.776 28.5367 32.6935 28.2596 31.6062 28.0036C31.3485 27.943 31.2717 27.8308 31.2831 27.5812C31.2992 27.1523 31.3024 26.7219 31.279 26.2938C31.2621 26.0014 31.3469 25.8294 31.6135 25.6735C32.4827 25.1679 33.0288 24.399 33.1653 23.4048C33.2497 22.8118 33.2554 22.2103 33.1822 21.6158C33.1095 21.0609 32.9787 20.4697 32.6976 20.0005C31.9972 18.8084 30.9034 18.2349 29.5107 18.4457C28.2182 18.6412 27.3029 19.3899 26.954 20.6571C26.7787 21.2944 26.8053 21.9922 26.7795 22.6633C26.727 24.017 27.2949 25.0427 28.4573 25.7502C28.5793 25.8245 28.6762 26.0265 28.6883 26.1775C28.7198 26.5813 28.6714 26.9851 28.7069 27.389C28.7425 27.7928 28.6205 27.9745 28.1948 28.0642C27.1406 28.2863 26.0944 28.5633 25.0548 28.8379C24.0733 29.0875 23.5038 29.875 23.5797 30.8385H23.5773ZM37.7327 32.4538L44.8197 28.7208C43.7695 28.4575 42.8454 28.2136 41.9115 27.9939C41.6692 27.9382 41.5973 27.8324 41.6046 27.6006C41.6199 27.1329 41.6207 26.6637 41.6046 26.1961C41.5949 25.9538 41.6757 25.8221 41.8833 25.7026C42.7113 25.2228 43.2865 24.5242 43.4456 23.5728C43.6072 22.5955 43.6306 21.6037 43.3398 20.6377C42.9577 19.3689 41.6498 18.3884 40.3621 18.3843C38.9202 18.3795 37.6204 19.2849 37.2698 20.6579C37.1083 21.304 37.1244 21.9938 37.1002 22.6658C37.0517 24.0194 37.6261 25.0411 38.7885 25.7454C38.8545 25.7962 38.9092 25.8601 38.9492 25.9331C38.9892 26.006 39.0137 26.0865 39.0212 26.1694C39.0502 26.6484 39.0212 27.1313 39.0357 27.6119C39.0414 27.83 38.9775 27.935 38.7497 27.9842C38.1221 28.1248 37.5009 28.296 36.8005 28.4745C37.9508 29.6125 37.7076 31.0259 37.7351 32.4538H37.7327ZM23.1192 28.4567C22.5239 28.3081 21.9398 28.1498 21.3493 28.019C21.069 27.9576 20.9284 27.8574 20.951 27.5344C20.9761 27.0929 20.9761 26.6504 20.951 26.209C20.9379 26.1077 20.9579 26.0048 21.0079 25.9157C21.058 25.8267 21.1355 25.7561 21.2289 25.7147C22.0125 25.2737 22.5796 24.6187 22.7638 23.7432C22.9884 22.6932 23.0061 21.6231 22.6701 20.5852C22.2524 19.3124 20.9567 18.3714 19.6949 18.39C18.2263 18.4102 16.9766 19.2897 16.6171 20.683C16.4555 21.3234 16.4773 22.0188 16.4555 22.6908C16.4135 24.0283 16.9822 25.0411 18.1285 25.7397C18.1918 25.7842 18.2452 25.8413 18.2853 25.9075C18.3253 25.9737 18.3512 26.0475 18.3612 26.1242C18.3886 26.6298 18.3612 27.1378 18.3757 27.645C18.3757 27.8485 18.3184 27.9438 18.1059 27.9858C17.7351 28.0601 17.3724 28.1732 16.9281 28.2911C18.017 28.9268 19.0228 29.5212 20.0366 30.0995C20.245 30.2174 20.3282 30.3491 20.3121 30.5889C20.2886 30.9233 20.3064 31.2601 20.3064 31.626C20.8662 31.5008 21.418 31.3619 21.9762 31.2601C22.2185 31.2165 22.2379 31.0986 22.2621 30.8942C22.3179 30.4209 22.3696 29.9355 22.519 29.4873C22.6442 29.1287 22.9052 28.8194 23.1217 28.4567H23.1192ZM25.4805 22.2337C25.4805 21.9623 25.4627 21.6877 25.4805 21.4163C25.6235 19.5328 26.5476 18.1606 28.2885 17.4418C29.9752 16.7456 31.5448 17.0662 32.9439 18.2454C34.7971 19.8091 34.8019 22.8968 34.1484 24.6187C33.8657 25.3634 33.3753 25.9675 32.7484 26.4586C32.5643 26.6031 32.4075 26.8317 32.7056 26.9246C33.4981 27.1709 34.314 27.3454 35.1218 27.5384C35.2026 27.5578 35.3003 27.5142 35.3876 27.4924C36.0686 27.3236 36.7496 27.1572 37.4273 26.9771C37.5356 26.948 37.7077 26.8527 37.7068 26.7913C37.7068 26.6734 37.6172 26.5417 37.5324 26.444C37.1939 26.0539 36.7641 25.7171 36.5088 25.2826C35.5112 23.572 35.6089 21.7612 36.1259 19.9278C36.1712 19.7663 36.2229 19.5506 36.1518 19.4311C34.7591 17.084 32.6782 15.8152 29.9599 15.8249C27.311 15.8346 25.264 17.0679 23.8657 19.343C23.7251 19.5708 23.7396 19.7469 23.8204 19.9892C24.3592 21.6045 24.3996 23.2279 23.7396 24.823C23.4658 25.4813 23.0013 26.0111 22.4407 26.4537C22.1878 26.6532 22.1781 26.8785 22.4205 26.9431C23.1984 27.1499 23.9804 27.3413 24.7632 27.5303C24.8529 27.5402 24.9436 27.53 25.0289 27.5004C25.735 27.326 26.441 27.1523 27.1446 26.9666C27.2415 26.9415 27.3934 26.86 27.3966 26.7994C27.3894 26.6779 27.3383 26.5631 27.2528 26.4763C27.0048 26.2114 26.7116 25.9861 26.4822 25.7074C25.6526 24.6987 25.4078 23.5146 25.4829 22.2337H25.4805ZM22.9019 18.4191C24.5919 15.9492 26.9273 14.5496 29.9599 14.5423C33.0061 14.5302 35.3569 15.9258 37.0784 18.4053C38.5478 17.4693 38.5478 17.4693 39.1294 16.0631C39.1496 16.0147 39.1892 15.967 39.1884 15.9202C39.1884 15.8257 39.194 15.6989 39.1391 15.6431C38.5034 14.997 37.8571 14.3573 37.2003 13.7007C36.6599 14.052 36.1453 14.4034 35.6105 14.7216C35.5425 14.7553 35.4679 14.7734 35.392 14.7745C35.3161 14.7756 35.2409 14.7598 35.1719 14.7281C34.2221 14.1612 33.196 13.7334 32.1248 13.4576C32.0489 13.4273 31.9805 13.3806 31.9247 13.3208C31.8688 13.2611 31.8268 13.1897 31.8017 13.1119C31.6668 12.6104 31.5682 12.0991 31.4786 11.5879C31.4374 11.3658 31.3372 11.2906 31.1126 11.2939C30.371 11.3052 29.6295 11.3084 28.8879 11.2939C28.6342 11.289 28.5518 11.3948 28.5106 11.6226C28.4193 12.1209 28.2925 12.612 28.2061 13.1111C28.1657 13.3381 28.0647 13.4342 27.8417 13.4867C26.7744 13.7262 25.7565 14.1481 24.8326 14.7337C24.6452 14.8532 24.5151 14.8282 24.3479 14.7111C23.9077 14.4106 23.4593 14.1158 23.0037 13.8461C22.91 13.7904 22.6951 13.8017 22.6216 13.8719C22.0362 14.4271 21.4651 14.9965 20.9082 15.5801C20.8655 15.6359 20.8361 15.7007 20.8221 15.7695C20.8081 15.8384 20.8099 15.9095 20.8275 15.9775C20.989 16.429 21.1869 16.8659 21.3816 17.3077C21.4238 17.3997 21.4895 17.4789 21.5723 17.5371C22.0053 17.8295 22.4366 18.1105 22.9044 18.4191H22.9019ZM14.0579 38.8328C14.8407 35.7055 15.617 32.6 16.3941 29.4937C16.3503 29.4557 16.3042 29.4204 16.256 29.3879C14.8197 28.5496 13.3866 27.7064 11.9422 26.8842C11.7718 26.7865 11.5383 26.7945 11.296 26.7453V33.4594C11.296 34.8254 11.296 36.1906 11.296 37.555C11.296 37.7287 11.2516 37.9072 11.5076 37.9871C12.347 38.2504 13.1798 38.5371 14.0579 38.8328ZM16.605 39.68C16.8974 38.6543 17.1705 37.681 17.4532 36.7086C17.9573 34.9487 18.467 33.1896 18.959 31.4265C19.0002 31.2795 18.9913 31.0146 18.9024 30.9524C18.4912 30.6665 18.0429 30.4331 17.5598 30.1528C16.7956 33.2066 16.0435 36.2103 15.2858 39.239L16.605 39.68ZM27.395 48.0845C27.6091 48.0191 27.7497 48.0175 27.824 47.9464C28.3087 47.4804 28.8119 47.0249 29.2449 46.512C29.463 46.2544 29.3645 45.9055 29.1044 45.6704C28.8443 45.4354 28.5163 45.3724 28.2521 45.6058C27.7717 46.0218 27.3234 46.4735 26.9111 46.957C26.7908 47.1008 26.794 47.4497 26.8829 47.6387C26.9717 47.8277 27.2399 47.9577 27.395 48.0845ZM22.8882 39.617C22.6806 39.6978 22.5198 39.7212 22.4253 39.8108C21.9729 40.2389 21.5198 40.6686 21.1061 41.133C20.8792 41.3874 20.9486 41.7791 21.1869 42.0214C21.4252 42.2637 21.8009 42.3404 22.0691 42.1022C22.5515 41.6888 22.9991 41.2366 23.4076 40.7501C23.5304 40.6007 23.5078 40.2389 23.4157 40.0362C23.3268 39.8512 23.0603 39.7486 22.8882 39.617ZM27.5025 44.2126C27.3175 43.9961 27.1793 43.6981 26.9742 43.6319C26.8425 43.5993 26.7055 43.5943 26.5719 43.6174C26.4383 43.6405 26.3109 43.6911 26.1978 43.766C25.7939 44.068 25.4595 44.4573 25.1097 44.824C24.7599 45.1907 24.7567 45.6018 25.0604 45.899C25.3642 46.1962 25.7875 46.1655 26.1381 45.8303C26.4765 45.5073 26.8134 45.1842 27.1268 44.8345C27.2682 44.6754 27.3506 44.4694 27.5025 44.2126ZM25.5637 42.2807C25.3836 42.0666 25.2519 41.8203 25.0459 41.6878C24.7874 41.5215 24.4804 41.595 24.2558 41.809C23.8778 42.166 23.5054 42.5302 23.1507 42.9098C22.8276 43.2547 22.8276 43.6658 23.1152 43.9598C23.4028 44.2538 23.8334 44.2457 24.1904 43.9073C24.5475 43.5689 24.8819 43.2386 25.2066 42.8832C25.3415 42.737 25.4167 42.5359 25.5661 42.2807H25.5637ZM30.5019 47.0507L29.5988 48.1136C29.9429 48.4448 30.2692 48.8405 30.8016 48.6345C30.9077 48.5847 31.002 48.5128 31.0779 48.4235C31.1539 48.3341 31.2098 48.2296 31.2419 48.1168C31.3533 47.5353 30.804 47.3722 30.5043 47.0507H30.5019Z" fill="#1AA3FF"/>
</g>
</svg>
