<svg width="60" height="60" viewBox="0 0 60 60" fill="none" xmlns="http://www.w3.org/2000/svg">
<g id="Group 1000003723">
<path id="Vector" d="M30 60C46.5685 60 60 46.5685 60 30C60 13.4315 46.5685 0 30 0C13.4315 0 0 13.4315 0 30C0 46.5685 13.4315 60 30 60Z" fill="#F1F8FF"/>
<path id="Union" fill-rule="evenodd" clip-rule="evenodd" d="M25.0376 19.0696C26.252 20.284 27.8979 20.9681 29.6153 20.9725C31.3328 20.9745 32.9812 20.2959 34.1996 19.0854C35.4179 17.8748 36.107 16.2308 36.116 14.5133C36.1157 12.796 35.4374 11.1482 34.2285 9.92842C33.0195 8.70866 31.3779 8.0156 29.6606 8.00001C27.935 7.99766 26.2789 8.67979 25.0555 9.89679C23.8322 11.1138 23.1414 12.7663 23.1347 14.4919C23.1391 16.2093 23.8232 17.8552 25.0376 19.0696ZM33.1261 10.9584C34.0635 11.8895 34.5937 13.1543 34.6004 14.4755C34.6038 15.7872 34.089 17.0471 33.1682 17.9812C32.2473 18.9152 30.9948 19.4478 29.6833 19.4631C29.0248 19.4699 28.3715 19.3462 27.7611 19.099C27.1507 18.8518 26.5954 18.4862 26.1271 18.0231C25.6589 17.56 25.2871 17.0088 25.0332 16.4011C24.7793 15.7935 24.6483 15.1416 24.6479 14.4831C24.6554 13.1701 25.1787 11.9127 26.1049 10.982C27.0311 10.0513 28.286 9.52196 29.5989 9.50811C30.9202 9.50576 32.1886 10.0273 33.1261 10.9584ZM37.1436 35.3007C36.2435 33.1858 34.6624 31.7356 32.5047 30.867C34.8865 28.6502 34.3779 25.7233 32.8748 24.18C32.075 23.3585 30.993 22.8716 29.8478 22.8178C28.7025 22.7641 27.5797 23.1475 26.7064 23.8904C26.248 24.2722 25.8717 24.7428 25.6002 25.274C25.3286 25.8051 25.1675 26.3858 25.1266 26.9809C25.0007 28.5406 25.615 29.8083 26.7631 30.8594L26.6806 30.8943C26.5487 30.9499 26.4438 30.9941 26.3389 31.0445C23.5757 32.3524 21.9316 34.5013 21.4923 37.5414C21.4004 38.1721 21.6899 38.517 22.3068 38.517H36.9396C37.5439 38.517 37.8737 38.1847 37.7592 37.5968C37.6094 36.8201 37.4507 36.0245 37.1436 35.3007ZM29.52 31.8615C32.6016 31.7922 35.5134 34.0418 36.1164 36.9951H23.1489C23.5883 34.2357 26.4585 31.9295 29.52 31.8615ZM31.766 29.4564C31.2029 30.0222 30.4391 30.3427 29.6408 30.3483V30.3534C28.8413 30.3547 28.0738 30.0398 27.5056 29.4773C26.9375 28.9149 26.6149 28.1505 26.6083 27.351C26.6083 26.5521 26.9247 25.7858 27.4883 25.2196C28.0519 24.6534 28.8168 24.3334 29.6157 24.3298C30.4148 24.3268 31.1825 24.6405 31.7509 25.2022C32.3193 25.764 32.6419 26.528 32.6482 27.3271C32.6463 28.1254 32.3292 28.8906 31.766 29.4564ZM49.5649 37.9103C49.8487 37.8403 50.1343 37.7699 50.4233 37.7101C50.5958 38.1835 50.9092 38.6115 51.5198 38.6379C52.2222 38.6744 52.926 38.6744 53.6284 38.6379C53.9311 38.6271 54.2173 38.4967 54.4242 38.2754C54.6311 38.0541 54.7419 37.7599 54.7324 37.4571C54.7475 34.7346 54.7475 32.0126 54.7324 29.2909C54.7286 28.5797 54.2175 28.1114 53.4962 28.09C53.322 28.0869 53.1477 28.0883 52.9737 28.0896H52.9736H52.9736H52.9735H52.9735H52.9734H52.9734C52.725 28.0916 52.4769 28.0935 52.2298 28.0824C51.4833 28.0485 50.7783 28.0862 50.4573 28.951C50.4138 28.9134 50.3757 28.8844 50.3432 28.8595C50.2865 28.8162 50.2468 28.7859 50.2244 28.7459C49.7193 27.8514 48.9297 27.2628 48.1309 26.6673L48.0013 26.5706C47.6211 26.2835 47.3593 25.7787 47.1642 25.3218C47.0249 24.9925 46.9537 24.6345 46.8825 24.2761L46.8825 24.276C46.8494 24.1097 46.8163 23.9433 46.7764 23.7797C46.6216 23.1465 46.2477 22.9312 45.6296 23.1314C44.9209 23.358 44.3632 23.7998 44.1492 24.5161C43.9888 25.0681 43.9115 25.6408 43.9201 26.2156C43.9271 26.5835 44.0041 26.9509 44.0826 27.3252C44.1174 27.4912 44.1525 27.6587 44.1819 27.8281C44.1554 27.8309 44.1298 27.8341 44.1048 27.8372C44.0493 27.8442 43.997 27.8508 43.944 27.8508C43.6512 27.8521 43.3582 27.8502 43.0652 27.8483C42.4665 27.8444 41.8678 27.8406 41.2702 27.8634C39.9635 27.9125 39.207 28.9007 39.426 30.1885C39.441 30.3593 39.3896 30.5293 39.2825 30.6631C38.6342 31.4184 38.5851 32.3059 39.1566 33.1191C39.2394 33.2192 39.284 33.3454 39.2825 33.4754C39.0307 34.782 39.2233 35.2503 40.3387 35.9792C40.2606 37.33 40.9014 38.2552 42.0771 38.2854C43.9528 38.3333 45.8323 38.337 47.7042 38.2464C48.3249 38.2161 48.9402 38.0644 49.5649 37.9103ZM45.4723 26.6733C45.3996 26.2001 45.424 25.7172 45.544 25.2538H45.5453C45.5778 25.301 45.6033 25.3528 45.6208 25.4074C45.8373 26.6675 46.5624 27.5361 47.6262 28.2096C48.0844 28.5004 48.4658 28.946 48.8057 29.3816C49.3306 30.0563 49.5497 30.2565 50.3956 30.502C50.3979 30.5396 50.4009 30.5784 50.4039 30.6181L50.4039 30.6181L50.4039 30.6183L50.404 30.6184L50.404 30.6186C50.411 30.7099 50.4183 30.8055 50.4183 30.901C50.4187 31.3482 50.418 31.7953 50.4173 32.2424V32.2425V32.2425V32.2426V32.2427V32.2427V32.2428C50.4156 33.3602 50.414 34.4774 50.4284 35.594C50.4321 35.9137 50.3176 36.0497 50.0293 36.1655C48.9241 36.6073 47.741 36.8214 46.5511 36.795C45.666 36.7824 44.7804 36.7866 43.8946 36.7908H43.8944H43.8943H43.8942H43.894H43.8939H43.8938C43.4506 36.7929 43.0075 36.795 42.5643 36.795C42.5312 36.795 42.4958 36.7984 42.4603 36.8019C42.3784 36.8098 42.2961 36.8179 42.2408 36.7836C42.0973 36.6692 41.9646 36.542 41.8443 36.4034C41.8885 36.3672 41.932 36.3221 41.9755 36.2769C42.0693 36.1796 42.1632 36.0822 42.2647 36.0736C42.6237 36.0424 42.9886 36.0473 43.3553 36.0523H43.3553C43.4914 36.0542 43.6277 36.056 43.764 36.056C43.8008 36.056 43.8376 36.0565 43.8745 36.057C43.979 36.0585 44.0837 36.0599 44.187 36.0497C44.6364 36.0031 44.9159 35.6997 44.9083 35.2805C44.9007 34.8614 44.6074 34.5617 44.153 34.5542C43.5588 34.5483 42.9646 34.5503 42.3705 34.5522C42.0734 34.5532 41.7763 34.5542 41.4792 34.5542C41.4414 34.5542 41.4012 34.5581 41.361 34.5621C41.2683 34.5711 41.1753 34.5802 41.1103 34.5416C40.9524 34.4312 40.8064 34.3046 40.6748 34.1639C40.7204 34.1283 40.7652 34.0841 40.81 34.04L40.81 34.04C40.9075 33.944 41.0047 33.8482 41.1091 33.8404C41.4953 33.81 41.885 33.8147 42.2745 33.8194H42.2746H42.2746H42.2746H42.2747H42.2747H42.2747H42.2748H42.2748H42.2748H42.2749H42.2749H42.2749C42.4172 33.8211 42.5595 33.8228 42.7015 33.8228C42.8529 33.8228 43.004 33.8236 43.1551 33.8245L43.1559 33.8245C43.4583 33.8262 43.7603 33.8278 44.0623 33.8228C44.5898 33.8127 44.9007 33.537 44.907 33.0864C44.9146 32.6156 44.5961 32.3197 44.0422 32.3197H40.9933C40.9593 32.3193 40.9231 32.3227 40.8869 32.326L40.8868 32.3261C40.8061 32.3335 40.7253 32.341 40.6698 32.3071C40.5324 32.2073 40.4058 32.0934 40.2921 31.9673C40.3953 31.832 40.5154 31.7106 40.6496 31.606C40.715 31.5665 40.8105 31.5743 40.9055 31.5821C40.9439 31.5852 40.9822 31.5883 41.0184 31.5883C41.3521 31.5883 41.6856 31.589 42.019 31.5897H42.0192H42.0193H42.0195H42.0196H42.0197H42.0199C42.6864 31.5911 43.3527 31.5925 44.0196 31.5883C44.5835 31.5846 44.9007 31.3126 44.9007 30.8469C44.9007 30.3811 44.5785 30.0916 44.0196 30.0853C43.4464 30.0794 42.8732 30.0814 42.3 30.0833C42.0134 30.0843 41.7268 30.0853 41.4402 30.0853C41.172 30.0865 40.8951 30.0626 40.8963 29.729C40.8976 29.3954 41.1783 29.369 41.4452 29.369H45.1978C45.5705 29.3702 45.9267 29.3388 46.1243 28.9611C46.3094 28.6061 46.1558 28.3191 45.967 28.0056C45.7133 27.5997 45.545 27.1464 45.4723 26.6733ZM51.9478 37.1084V29.6082H53.2066V37.1084H51.9478ZM20.4104 31.7114L20.4104 31.7114L20.4103 31.7114C20.2959 31.8937 20.1811 32.0767 20.0254 32.2102C19.3393 32.8019 18.6231 33.3608 17.908 33.9185C17.6953 34.0834 17.6286 34.237 17.7104 34.5127C17.8592 35.0159 17.9941 35.5246 18.1291 36.0336C18.2304 36.4158 18.3318 36.7983 18.4393 37.1789C18.5752 37.6598 18.4531 38.05 18.0616 38.3358C17.6701 38.6216 17.2711 38.5876 16.8783 38.3358C16.6477 38.184 16.416 38.0332 16.1841 37.8822L16.1841 37.8822L16.184 37.8822C15.6564 37.5387 15.1283 37.1949 14.6124 36.839C14.3606 36.6666 14.1806 36.6401 13.9124 36.829C13.3703 37.2108 12.8123 37.5702 12.2543 37.9296L12.2542 37.9297L12.2535 37.9301C12.0888 38.0362 11.9241 38.1423 11.7598 38.2489C11.2235 38.5976 10.8131 38.6178 10.4179 38.327C10.0226 38.0362 9.9307 37.6397 10.0981 37.0178C10.155 36.8064 10.2105 36.5946 10.2659 36.3828C10.4201 35.7936 10.5742 35.2047 10.7603 34.626C10.8774 34.2584 10.7792 34.0595 10.4934 33.843C9.90383 33.3943 9.33011 32.926 8.757 32.4582L8.47924 32.2316C8.03865 31.8729 7.9052 31.4826 8.06508 31.0408C8.24258 30.5511 8.61142 30.361 9.11748 30.3421C9.54123 30.3274 9.9647 30.3047 10.3882 30.282L10.3883 30.282L10.3885 30.282L10.3886 30.282L10.3888 30.282L10.3889 30.2819L10.3891 30.2819L10.3892 30.2819L10.3894 30.2819L10.3895 30.2819L10.3897 30.2819C10.8714 30.2561 11.3532 30.2303 11.8353 30.2162C11.9427 30.2224 12.0487 30.1902 12.1345 30.1254C12.2203 30.0606 12.2802 29.9674 12.3036 29.8625C12.5207 29.266 12.7479 28.6734 12.975 28.0815L12.975 28.0814C13.0666 27.8425 13.1582 27.6038 13.249 27.3649C13.4668 26.7984 13.7878 26.5416 14.2687 26.558C14.7873 26.5756 15.087 26.8689 15.2594 27.3448C15.4018 27.7362 15.5512 28.1248 15.7004 28.5133L15.7004 28.5134L15.7004 28.5134C15.8704 28.9557 16.0403 29.3979 16.1998 29.8436C16.2245 29.9564 16.289 30.0566 16.3814 30.1259C16.4738 30.1952 16.5881 30.2291 16.7033 30.2212C17.5124 30.25 18.3214 30.2942 19.1338 30.3387L19.1341 30.3387L19.1343 30.3387L19.4728 30.3572C20.0846 30.3799 20.495 30.7978 20.5793 31.4549C20.5201 31.5365 20.4653 31.6239 20.4104 31.7113L20.4104 31.7114L20.4104 31.7114L20.4104 31.7114L20.4104 31.7114ZM16.6492 36.3745C16.5904 36.1549 16.5353 35.9448 16.482 35.7416C16.3596 35.275 16.2467 34.8448 16.1205 34.4195C15.9543 33.8543 16.0877 33.4124 16.5636 33.0612C16.8949 32.8127 17.2175 32.5479 17.5644 32.2631L17.5645 32.263L17.5646 32.2629L17.5647 32.2628L17.5647 32.2628C17.7449 32.1149 17.9317 31.9616 18.1296 31.8024C17.8971 31.7894 17.6769 31.7737 17.4651 31.7587L17.465 31.7587C17.021 31.7271 16.6139 31.6982 16.2073 31.7017C15.5024 31.7017 15.1159 31.3781 14.9094 30.7248C14.7874 30.3378 14.6344 29.9598 14.4693 29.5519C14.3942 29.3665 14.3167 29.175 14.2385 28.9737L14.0755 29.4057L14.0752 29.4065C13.8706 29.9489 13.6871 30.4353 13.502 30.9224C13.3183 31.4134 12.9834 31.6777 12.4434 31.6891C11.9905 31.7013 11.5383 31.7302 11.0411 31.7618L11.0408 31.7618C10.8249 31.7756 10.6004 31.7899 10.3637 31.8036C10.548 31.9534 10.7217 32.097 10.8889 32.2353C11.2517 32.5353 11.5842 32.8103 11.9297 33.0688C12.4119 33.4288 12.5264 33.8732 12.3666 34.4308C12.2527 34.828 12.1464 35.2273 12.0319 35.6571L12.0319 35.6572L12.0318 35.6573C11.9703 35.8882 11.9065 36.1279 11.8379 36.3808C12.031 36.2544 12.2162 36.1342 12.3955 36.0178C12.8074 35.7504 13.1883 35.5031 13.5637 35.2478C14.0169 34.9394 14.455 34.9306 14.912 35.2403C15.2768 35.4843 15.6456 35.7233 16.0423 35.9803L16.0433 35.981L16.0441 35.9815C16.2382 36.1073 16.4389 36.2374 16.6492 36.3745ZM28.8849 48C24.241 47.8817 19.7205 45.7429 16.2108 41.5043C15.8331 41.0449 15.8331 40.6105 16.1894 40.3059C16.5456 40.0013 16.9862 40.0705 17.3916 40.5665C19.5958 43.2655 22.3527 45.155 25.7478 45.9582C32.0597 47.4512 37.4023 45.7064 41.7592 40.9127C41.8206 40.8445 41.8778 40.7729 41.9352 40.7012L41.9353 40.7012L41.9353 40.7011L41.9354 40.701C42.005 40.6141 42.0747 40.527 42.1519 40.4456C42.4843 40.0894 42.9072 40.0453 43.2345 40.3198C43.3144 40.3842 43.3798 40.4647 43.4265 40.5561C43.4732 40.6474 43.5002 40.7476 43.5056 40.85C43.5111 40.9525 43.4949 41.055 43.4582 41.1508C43.4215 41.2466 43.365 41.3336 43.2924 41.4061C43.0952 41.6144 42.8999 41.825 42.7045 42.0357L42.7043 42.036C42.0272 42.7663 41.3497 43.497 40.5897 44.129C37.5521 46.6593 33.6798 47.9987 28.8849 48ZM21.1168 17.2069C21.1709 17.1224 21.2277 17.0337 21.2943 16.9467C21.2333 16.8659 21.1803 16.7797 21.1296 16.6975C21.0225 16.5234 20.9263 16.3672 20.7895 16.3185C20.5516 16.2291 20.1739 16.2367 19.9713 16.3739C17.4392 18.074 15.412 20.4248 14.1025 23.1792C13.896 23.6161 14.0056 24.0201 14.3996 24.2291C14.7936 24.4381 15.2229 24.2996 15.4495 23.8364C16.6655 21.3341 18.5049 19.1869 20.7908 17.6013C20.9217 17.5115 21.0144 17.3668 21.1168 17.2069L21.1168 17.2069ZM38.6699 15.9597C38.8942 16.0464 39.1125 16.1482 39.3232 16.2644C41.2274 17.5334 42.8607 19.1679 44.1282 21.0732C44.4341 21.5301 44.3938 21.9745 44.0313 22.2364C43.6687 22.4982 43.2093 22.3975 42.9084 21.9506C41.7321 20.1904 40.2219 18.6781 38.4634 17.4993C38.1374 17.2803 37.9057 16.9769 38.0782 16.5942C38.1586 16.4229 38.313 16.2856 38.469 16.1469C38.5377 16.0858 38.6067 16.0244 38.6699 15.9597ZM29.0677 12.5936C29.2162 12.5074 29.3785 12.4474 29.5473 12.4161C30.1012 12.4438 30.4197 12.659 30.635 13.0694C30.6777 13.1622 30.7393 13.2452 30.8158 13.3129C30.8924 13.3806 30.9822 13.4316 31.0796 13.4626C31.177 13.4936 31.2797 13.504 31.3814 13.4931C31.483 13.4822 31.5812 13.4502 31.6698 13.3992C32.021 13.2066 32.1443 12.7975 31.9605 12.3808C31.736 11.8401 31.3098 11.408 30.7722 11.1761C30.528 11.0703 30.3681 10.9596 30.3215 10.6612C30.2649 10.2911 29.9728 10.1174 29.6052 10.1174C29.259 10.1212 28.9783 10.2936 28.9192 10.6411C28.8675 10.9457 28.7127 11.0716 28.4509 11.1975C27.6716 11.5751 27.2197 12.1995 27.2235 13.0858C27.2273 13.972 27.6943 14.5561 28.4748 14.8935C28.7009 14.9903 28.9374 15.053 29.1741 15.1159C29.313 15.1527 29.452 15.1896 29.5889 15.2334C29.6571 15.2552 29.7267 15.2757 29.7966 15.2962C30.0284 15.3643 30.2627 15.4331 30.4562 15.5569C30.82 15.7847 30.781 16.1662 30.4033 16.3751C29.8431 16.6886 28.7039 16.6332 28.4697 15.7885C28.3451 15.3441 27.8844 15.1805 27.4853 15.3441C27.1215 15.4927 26.9591 15.893 27.085 16.326C27.1821 16.6665 27.358 16.9792 27.5986 17.2388C27.8392 17.4984 28.1377 17.6977 28.4697 17.8203C28.7291 17.9235 28.8222 18.0809 28.9355 18.3176C29.0488 18.5542 29.3635 18.8299 29.5989 18.8375C29.8343 18.845 30.2233 18.5895 30.2913 18.3704C30.397 18.0255 30.5909 17.9223 30.8704 17.8077C31.6483 17.4867 32.1796 16.9504 32.206 16.0579C32.2375 15.1264 31.7755 14.4806 30.9472 14.1029C30.6929 13.9872 30.4205 13.9134 30.147 13.8393C30.013 13.803 29.8787 13.7667 29.7462 13.7253C29.6774 13.7046 29.6062 13.688 29.5349 13.6714C29.3755 13.6341 29.2159 13.5968 29.0828 13.515C28.933 13.4231 28.7643 13.2217 28.7631 13.0631C28.7618 12.9045 28.9229 12.7018 29.0677 12.5936Z" fill="#1AA3FF"/>
</g>
</svg>
