<svg width="60" height="61" viewBox="0 0 60 61" fill="none" xmlns="http://www.w3.org/2000/svg">
<g id="Group 1000003740">
<path id="Vector" d="M30 60.67C46.5685 60.67 60 47.2385 60 30.67C60 14.1015 46.5685 0.670044 30 0.670044C13.4315 0.670044 0 14.1015 0 30.67C0 47.2385 13.4315 60.67 30 60.67Z" fill="#F1F8FF"/>
<path id="Vector_2" d="M22.0322 45.6677H21.4462C20.8054 45.4841 20.3179 45.1208 20.0796 44.4615C19.5779 44.7044 19.0943 44.7365 18.6059 44.5396C18.1176 44.3427 17.7918 43.9631 17.5995 43.4795C17.5614 43.4844 17.5237 43.4928 17.487 43.5045C16.3744 44.0146 15.2672 43.2451 15.0547 42.3068C15.0412 42.2721 15.0228 42.2395 15 42.21V34.1836C15.1711 33.8469 15.3297 33.5032 15.5157 33.1751C15.7845 32.7016 16.083 32.2438 16.3478 31.7688C16.4388 31.6105 16.4902 31.4326 16.4978 31.2501C16.5096 29.74 16.4978 28.2291 16.5088 26.719C16.5088 26.5385 16.4408 26.4479 16.2963 26.3502C15.6806 25.9346 15.4165 25.3456 15.5368 24.6128C15.5782 24.362 15.704 24.1253 15.7978 23.8628C15.368 23.6019 15.143 23.1792 15 22.7011V22.1152C15.1828 21.4738 15.5469 20.9855 16.2041 20.7519C15.9697 20.2457 15.929 19.7629 16.1259 19.2746C16.3228 18.7864 16.7041 18.4614 17.1862 18.2684C17.1809 18.2303 17.1725 18.1927 17.1612 18.1559C16.6526 17.0528 17.4144 15.938 18.3598 15.7247C18.3943 15.7112 18.4267 15.6928 18.4559 15.67H26.4843C26.8125 15.8372 27.1469 15.9911 27.4665 16.1724C27.9493 16.4466 28.4158 16.7489 28.901 17.0184C29.0598 17.109 29.238 17.1602 29.4206 17.1677C30.9325 17.1786 32.4437 17.1677 33.9525 17.1786C34.1337 17.1786 34.2244 17.1098 34.3197 16.9645C34.701 16.3841 35.2519 16.1107 35.941 16.1942C36.2309 16.2294 36.5091 16.3583 36.8177 16.4521C37.0669 16.0364 37.4912 15.8146 37.9678 15.6708H38.5538C39.1946 15.8552 39.6813 16.2216 39.9204 16.877C40.4236 16.6333 40.9073 16.602 41.3948 16.7989C41.8824 16.9958 42.2098 17.3747 42.3973 17.852C42.4272 17.851 42.457 17.8477 42.4864 17.8419C43.653 17.4231 44.5757 17.8801 44.9508 19.0606C44.9638 19.0853 44.9804 19.1079 45 19.1278V27.1526C44.8289 27.4885 44.6695 27.8314 44.4835 28.1588C44.2249 28.6166 43.9303 29.0548 43.6834 29.5181C43.5737 29.7203 43.5124 29.9452 43.5045 30.1751C43.4889 31.6368 43.5045 33.0985 43.4912 34.5602C43.4828 34.6494 43.5005 34.7391 43.5421 34.8184C43.5837 34.8977 43.6475 34.9632 43.7256 35.007C44.2882 35.3852 44.5624 35.9297 44.4757 36.6086C44.439 36.8984 44.3116 37.1765 44.2179 37.4867C44.6382 37.7335 44.8554 38.1616 44.9992 38.6366V39.2226C44.8148 39.8632 44.4523 40.3499 43.7952 40.5889C44.0335 41.092 44.0702 41.5748 43.8733 42.0631C43.6764 42.5514 43.2974 42.8779 42.8013 43.0725C42.8278 43.1459 42.8435 43.1912 42.8607 43.2357C43.2381 44.2435 42.7497 45.2544 41.7238 45.5919C41.6621 45.6122 41.6035 45.6427 41.5433 45.67H33.5149C33.1789 45.499 32.8367 45.3396 32.5085 45.1536C32.0342 44.8841 31.5756 44.5873 31.1021 44.3224C30.9437 44.2324 30.7661 44.1815 30.5841 44.174C29.0729 44.1623 27.5618 44.1693 26.0522 44.1646C25.9815 44.1582 25.9105 44.1728 25.8481 44.2065C25.7857 44.2403 25.7347 44.2918 25.7014 44.3545C25.2904 44.9927 24.6903 45.2544 23.9465 45.1357C23.6957 45.0958 23.4589 44.9685 23.1948 44.874C22.9362 45.3083 22.5096 45.5247 22.0322 45.6677ZM33.9814 18.1739H33.6509C32.2546 18.1739 30.8575 18.1739 29.4613 18.1739C29.079 18.1808 28.7029 18.0778 28.3775 17.877C27.8048 17.5239 27.2297 17.1739 26.6421 16.8442C26.4588 16.7391 26.2525 16.6803 26.0413 16.6731C23.6878 16.6614 21.3344 16.6653 18.981 16.6653C18.8929 16.6623 18.8047 16.6644 18.7169 16.6716C18.3153 16.7153 17.9941 17.0575 17.9988 17.4309C18.0035 17.8044 18.2942 18.1137 18.702 18.1629C18.7992 18.1717 18.8968 18.1746 18.9943 18.1715C19.6584 18.1715 20.3226 18.1676 20.9867 18.1762C21.2922 18.1801 21.4977 18.3903 21.4985 18.6653C21.496 18.7936 21.4456 18.9162 21.357 19.0091C21.2685 19.102 21.1483 19.1582 21.0203 19.1668C20.9327 19.1735 20.8448 19.175 20.757 19.1715C19.8194 19.1715 18.8818 19.1715 17.9441 19.1715C17.8078 19.1655 17.6713 19.1787 17.5386 19.2106C17.3744 19.2617 17.2321 19.3665 17.1346 19.5082C17.0372 19.6499 16.9901 19.8202 17.001 19.9918C17.0195 20.1738 17.1053 20.3424 17.2416 20.4645C17.3779 20.5866 17.5549 20.6535 17.7379 20.6519C18.4208 20.6644 19.1044 20.6566 19.7881 20.6582C20.2569 20.6582 20.5023 20.8363 20.4992 21.1668C20.496 21.4972 20.2593 21.6582 19.7787 21.6589H18.0504C17.63 21.6589 17.2097 21.6496 16.7901 21.6636C16.3213 21.6793 16.004 21.9878 16.0001 22.3996C15.9962 22.8113 16.3494 23.1464 16.8057 23.1613C16.9713 23.1667 17.1378 23.1613 17.3034 23.1613C18.1926 23.1613 19.081 23.1573 19.9694 23.1613C20.2819 23.1613 20.5062 23.3894 20.4992 23.6683C20.4921 23.9472 20.2804 24.137 19.9788 24.155C19.8913 24.1597 19.803 24.155 19.7155 24.155C18.9044 24.155 18.0942 24.155 17.2831 24.155C16.951 24.155 16.6979 24.3042 16.5658 24.6151C16.5081 24.7405 16.4893 24.8802 16.5117 25.0164C16.5341 25.1526 16.5968 25.2789 16.6916 25.3792C16.8862 25.6065 17.1464 25.6612 17.4308 25.6604C18.8659 25.6604 20.3015 25.6604 21.7376 25.6604C22.158 25.6604 22.5783 25.6495 22.9971 25.6651C23.4355 25.6815 23.6355 26.0979 23.3878 26.4604C23.3331 26.5385 23.2683 26.6166 23.2065 26.6901C22.8419 27.1359 22.4773 27.5815 22.1126 28.0268C21.8212 28.383 21.8134 28.7416 22.0892 28.9892C22.365 29.2369 22.7143 29.1853 23.0456 28.8634L23.1081 28.8017C24.4952 27.4268 25.8819 26.0515 27.268 24.6761C28.3236 23.6237 28.2463 23.6472 29.7543 23.6605C30.0215 23.6605 30.2879 23.6605 30.5614 23.6605C30.4551 22.9613 30.538 22.5472 30.8411 22.1683C31.4076 21.4597 32.4343 21.3519 33.1727 21.9269C33.436 22.1316 33.6915 22.348 33.979 22.5816L33.9814 18.1739ZM26.0225 43.1482C26.1124 43.1537 26.1882 43.1623 26.2632 43.1623C27.679 43.1623 29.0956 43.167 30.5114 43.1623C30.9132 43.1538 31.3087 43.2624 31.6498 43.4748C32.2124 43.8256 32.7797 44.1709 33.3594 44.4904C33.5523 44.5981 33.7684 44.6576 33.9892 44.6638C36.3231 44.6755 38.657 44.6716 40.9909 44.6708C41.0983 44.675 41.2058 44.6722 41.3128 44.6623C41.7035 44.6091 42.009 44.2716 42.0051 43.9084C42.0051 43.5287 41.7129 43.2232 41.3019 43.174C41.2045 43.1653 41.1066 43.1624 41.0089 43.1654C40.3744 43.1654 39.7392 43.1725 39.1047 43.1584C38.9586 43.1584 38.7547 43.1232 38.682 43.0264C38.576 42.8745 38.5286 42.6894 38.5484 42.5053C38.5828 42.2709 38.8008 42.1701 39.0344 42.167C39.5618 42.1615 40.0892 42.167 40.6166 42.167C41.144 42.167 41.691 42.1733 42.2278 42.1615C42.6684 42.1514 43.0091 41.8069 43.0021 41.4053C42.9951 41.0038 42.6778 40.7022 42.2371 40.6796C42.1301 40.6749 42.0223 40.6796 41.9152 40.6796C41.2995 40.6796 40.6846 40.6796 40.0689 40.6796C39.8392 40.6796 39.6188 40.6077 39.5587 40.371C39.5204 40.2194 39.529 39.9889 39.6204 39.8905C39.7596 39.7634 39.9405 39.6916 40.1291 39.689C41.1347 39.6702 42.141 39.6843 43.1466 39.678C43.6655 39.6741 44.0132 39.3538 44.0007 38.9147C43.9889 38.4944 43.6279 38.1804 43.1412 38.1773C42.6138 38.1726 42.0863 38.1773 41.5589 38.1773C41.0511 38.1773 40.5432 38.1827 40.0353 38.1773C39.7228 38.1726 39.4977 37.9538 39.5008 37.6749C39.504 37.396 39.7243 37.1937 40.0478 37.1828C40.1353 37.1828 40.2228 37.1828 40.3111 37.1828C41.1214 37.1828 41.9324 37.189 42.7427 37.1781C42.9307 37.1834 43.1135 37.1161 43.253 36.99C43.3926 36.864 43.4782 36.6891 43.492 36.5015C43.5217 36.1039 43.2576 35.7703 42.8396 35.6976C42.7141 35.6797 42.5873 35.6726 42.4606 35.6766H37.2459C37.1387 35.6811 37.0313 35.6775 36.9247 35.6656C36.847 35.6552 36.773 35.626 36.7091 35.5805C36.6452 35.535 36.5934 35.4746 36.5582 35.4046C36.5229 35.3345 36.5053 35.257 36.5068 35.1786C36.5083 35.1002 36.5289 35.0233 36.5669 34.9547C36.6273 34.8545 36.6972 34.7604 36.7755 34.6735C37.1662 34.1891 37.5686 33.7086 37.9616 33.2227C38.1452 32.9954 38.1788 32.7415 38.0264 32.4876C37.9676 32.3723 37.8697 32.2816 37.7502 32.2317C37.6307 32.1817 37.4974 32.1758 37.374 32.2149C37.2101 32.2721 37.0624 32.3681 36.9435 32.4946C35.5238 33.8914 34.0775 35.2641 32.7085 36.7132C32.0272 37.4335 31.3021 37.8124 30.3106 37.6882C30.0285 37.6523 29.7379 37.6827 29.4292 37.6827C29.5558 38.2546 29.5003 38.7444 29.1604 39.1733C28.5971 39.8835 27.568 39.9905 26.8297 39.4155C26.5663 39.2101 26.3108 38.9944 26.0225 38.7601V43.1482ZM42.4989 34.6508V34.2696C42.4989 32.8837 42.4989 31.4978 42.4989 30.1111C42.4924 29.7389 42.5928 29.3726 42.788 29.0556C43.1412 28.4822 43.4912 27.9088 43.8217 27.3213C43.9304 27.1303 43.9915 26.9159 43.9999 26.6963C44.0116 24.3526 44.0077 22.0089 44.0069 19.6653C44.0104 19.5678 44.0081 19.4702 43.9999 19.3731C43.9816 19.2114 43.9141 19.0591 43.8065 18.937C43.6989 18.8149 43.5564 18.7288 43.3982 18.6903C43.2601 18.6538 43.1139 18.6626 42.981 18.7151C42.8482 18.7677 42.7356 18.8614 42.6599 18.9825C42.5633 19.1603 42.5098 19.3583 42.5036 19.5606C42.4848 20.2637 42.5036 20.9668 42.4911 21.6699C42.4931 21.7334 42.4825 21.7967 42.46 21.8561C42.4375 21.9155 42.4035 21.97 42.36 22.0162C42.3164 22.0625 42.2642 22.0998 42.2063 22.1259C42.1483 22.152 42.0858 22.1664 42.0223 22.1683C41.8938 22.1708 41.7692 22.1244 41.6736 22.0386C41.578 21.9527 41.5186 21.8338 41.5074 21.7058C41.4985 21.6184 41.4959 21.5304 41.4995 21.4425C41.4995 20.4668 41.4995 19.4895 41.4995 18.5145C41.4995 18.0239 41.1768 17.6716 40.7534 17.6692C40.3299 17.6669 40.0165 18.0044 40.0126 18.5083C40.0079 19.1528 40.0126 19.7973 40.0126 20.4418C40.0126 20.9168 39.8478 21.1597 39.5212 21.1699C39.1946 21.1801 39.0125 20.9355 39.0125 20.4371C39.0125 19.4903 39.018 18.5434 39.007 17.5966C39.0075 17.4027 38.9668 17.211 38.8875 17.0341C38.8138 16.9004 38.6986 16.7944 38.5594 16.732C38.4201 16.6695 38.2643 16.6541 38.1155 16.688C37.938 16.7309 37.7808 16.8338 37.6704 16.9793C37.5601 17.1248 37.5034 17.3039 37.51 17.4864C37.5045 18.5114 37.51 19.5363 37.51 20.5613C37.51 20.9293 37.3177 21.1629 37.0208 21.1699C36.7239 21.1769 36.5137 20.9355 36.513 20.5519C36.513 19.6926 36.513 18.8332 36.513 17.9739C36.513 17.5223 36.2223 17.2028 35.8199 17.1794C35.4042 17.1559 35.0682 17.4559 35.0167 17.9036C35.0083 18.0107 35.0054 18.1181 35.0081 18.2254V23.4378C35.0115 23.5355 35.0086 23.6334 34.9995 23.7308C34.9913 23.8113 34.9629 23.8884 34.9171 23.9551C34.8713 24.0218 34.8095 24.0759 34.7373 24.1125C34.6651 24.149 34.5849 24.1668 34.504 24.1643C34.4231 24.1618 34.3441 24.139 34.2744 24.0979C34.1748 24.0361 34.0809 23.9656 33.9939 23.887C33.518 23.4964 33.0438 23.1058 32.5663 22.7191C32.3319 22.5277 32.0663 22.498 31.8045 22.6574C31.6909 22.7188 31.6026 22.8184 31.5554 22.9387C31.5082 23.059 31.5051 23.1921 31.5467 23.3144C31.6036 23.4685 31.6963 23.6069 31.817 23.7183C33.2969 25.2206 34.7674 26.733 36.2754 28.2064C36.806 28.7244 37.0763 29.2837 37.0169 30.0228C36.9849 30.4243 37.0115 30.8314 37.0115 31.2157C37.3076 31.2157 37.5654 31.1782 37.8084 31.222C39.0016 31.4368 39.5274 32.7844 38.8023 33.7618C38.5867 34.0555 38.3476 34.3321 38.0921 34.6508H42.4989ZM17.5058 26.6885V27.0322C17.5058 28.39 17.498 29.7478 17.5097 31.1048C17.5219 31.565 17.3947 32.0181 17.1448 32.4048C16.8127 32.9219 16.4924 33.4477 16.1978 33.9868C16.0807 34.1962 16.0153 34.4305 16.0072 34.6703C15.9931 37.0046 15.9986 39.3382 15.9986 41.6725C15.995 41.7699 15.9974 41.8675 16.0056 41.9647C16.054 42.3553 16.3861 42.6639 16.7502 42.6678C17.1292 42.6678 17.4402 42.3858 17.4941 41.978C17.504 41.8809 17.5076 41.7833 17.505 41.6858C17.505 41.0217 17.505 40.3577 17.5089 39.6936C17.5089 39.3811 17.7097 39.178 17.9855 39.1686C18.2614 39.1593 18.4708 39.3624 18.5012 39.6624C18.5106 39.7491 18.5051 39.8374 18.5059 39.9257C18.5059 40.9022 18.502 41.8787 18.5059 42.8553C18.5059 43.324 18.8411 43.6678 19.2545 43.667C19.6795 43.667 19.9858 43.3349 19.9913 42.8529C19.9975 42.1983 19.9913 41.5444 19.9913 40.8897C19.9873 40.7923 19.992 40.6948 20.0053 40.5983C20.0221 40.476 20.0836 40.3643 20.178 40.2848C20.2724 40.2053 20.393 40.1636 20.5163 40.1678C20.6396 40.1736 20.7562 40.2255 20.843 40.3132C20.9299 40.4009 20.9806 40.518 20.9852 40.6413C20.9945 40.7381 20.9914 40.8366 20.9914 40.9342C20.9914 41.9108 20.9844 42.8873 20.9961 43.8631C21.0023 44.3451 21.3297 44.6748 21.7485 44.6662C22.1673 44.6576 22.4885 44.3037 22.4932 43.8427C22.501 43.1787 22.4932 42.5147 22.4932 41.8506C22.4932 41.46 22.4869 41.0694 22.4932 40.6788C22.4918 40.6126 22.5036 40.5468 22.5277 40.4852C22.5519 40.4236 22.588 40.3674 22.6339 40.3197C22.6799 40.2721 22.7348 40.234 22.7955 40.2077C22.8563 40.1814 22.9216 40.1673 22.9878 40.1663C23.2573 40.1663 23.4683 40.3796 23.4863 40.6756C23.4909 40.7631 23.4863 40.8514 23.4863 40.9397C23.4863 41.76 23.48 42.5803 23.4902 43.3998C23.4949 43.8177 23.7824 44.1248 24.1614 44.1552C24.3534 44.1702 24.5439 44.1114 24.694 43.9908C24.8441 43.8701 24.9426 43.6968 24.9693 43.506C24.9878 43.3806 24.9954 43.2539 24.9919 43.1271C24.9919 41.4579 24.9919 39.7882 24.9919 38.1179C24.9919 38.0296 24.9919 37.9421 24.9919 37.8538C24.9826 37.5906 24.9982 37.3398 25.2849 37.2117C25.5717 37.0835 25.767 37.2421 25.9678 37.4085C26.4648 37.8195 26.9638 38.2275 27.4649 38.6327C27.5644 38.7221 27.6912 38.7751 27.8246 38.7834C27.9581 38.7916 28.0904 38.7545 28.2002 38.678C28.3128 38.6146 28.3997 38.5139 28.4461 38.3933C28.4924 38.2726 28.4953 38.1396 28.4541 38.0171C28.3971 37.863 28.3045 37.7246 28.1837 37.6132C26.6992 36.1109 25.231 34.5992 23.7222 33.1258C23.1909 32.6071 22.9237 32.0462 22.9831 31.3079C23.0151 30.9173 22.9893 30.5165 22.9893 30.1119C22.9167 30.1173 22.8885 30.1173 22.8604 30.122C22.0439 30.247 21.4141 29.9728 21.0633 29.3408C20.7125 28.7088 20.8039 28.0471 21.3211 27.4174C21.5102 27.1877 21.6977 26.9565 21.9157 26.6893L17.5058 26.6885ZM29.7808 36.664C30.2918 36.664 30.6356 36.689 30.974 36.6539C31.1726 36.6393 31.3618 36.5628 31.5147 36.4351C32.9669 35.0164 34.4093 33.5873 35.8418 32.1477C35.9316 32.0519 35.9848 31.9274 35.9918 31.7962C36.0059 31.0931 36.0145 30.39 35.9918 29.6869C35.9803 29.4875 35.9018 29.2978 35.7691 29.1486C34.3575 27.7033 32.9351 26.2682 31.5021 24.8432C31.3905 24.7431 31.2473 24.6851 31.0974 24.6792C30.4145 24.6628 29.73 24.655 29.0479 24.6792C28.8394 24.6895 28.6405 24.7702 28.4838 24.9081C27.0367 26.319 25.6006 27.7406 24.1754 29.1728C24.0812 29.2767 24.0259 29.4101 24.0191 29.5501C24.0035 30.2329 24.0191 30.9165 24.0082 31.6001C24.0033 31.7168 24.0238 31.8332 24.0685 31.9411C24.1132 32.0491 24.1809 32.146 24.2668 32.2251C25.4389 33.3969 26.6382 34.5492 27.7642 35.7672C28.3744 36.4398 28.9917 36.9171 29.7808 36.664Z" fill="#1AA3FF"/>
</g>
</svg>
