<svg width="60" height="61" viewBox="0 0 60 61" fill="none" xmlns="http://www.w3.org/2000/svg">
<g id="Group 1000003742">
<path id="Vector" d="M30 60.6702C46.5685 60.6702 60 47.2387 60 30.6702C60 14.1017 46.5685 0.670166 30 0.670166C13.4315 0.670166 0 14.1017 0 30.6702C0 47.2387 13.4315 60.6702 30 60.6702Z" fill="#F1F8FF"/>
<path id="Union" fill-rule="evenodd" clip-rule="evenodd" d="M30.8122 18.8022C30.7019 18.9323 30.5639 19.087 30.4125 19.1218C30.3638 19.1338 30.3131 19.1349 30.2639 19.1249C30.2148 19.115 30.1685 19.0941 30.1283 19.064C30.0881 19.0339 30.0552 18.9952 30.0317 18.9507C30.0083 18.9063 29.995 18.8572 29.9929 18.8069C29.9735 17.8671 29.9782 16.929 29.9976 15.9874C29.9988 15.9144 30.0677 15.8429 30.1368 15.7712C30.1692 15.7376 30.2016 15.704 30.227 15.6702H30.5792C30.7905 15.8326 30.8498 16.0492 30.8457 16.3105C30.8379 16.8514 30.839 17.3933 30.8401 17.9349V17.935V17.9351V17.9352V17.9353V17.9354V17.9354V17.9355V17.9356V17.9357V17.9358V17.9359V17.936V17.9361V17.9361V17.9362V17.9363V17.9364V17.9365V17.9366V17.9366C30.8406 18.1299 30.841 18.3231 30.841 18.5162C30.841 18.5386 30.8421 18.5626 30.8433 18.587C30.8473 18.6695 30.8516 18.7568 30.8122 18.8022ZM25.3972 21.7559C26.1822 21.2486 27.041 20.8656 27.943 20.6204C33.2204 19.1878 38.6163 22.4933 39.6051 27.8643C40.2843 31.5539 39.0695 34.6259 36.1774 37.0235C36.0959 37.0912 36.0108 37.1543 35.9256 37.2175L35.9256 37.2176C35.8387 37.2821 35.7518 37.3466 35.6687 37.4159C35.1074 37.8847 34.8049 38.4854 34.7961 39.2186C34.7894 39.8371 34.7905 40.4555 34.7917 41.0738V41.0741V41.0742C34.7922 41.312 34.7926 41.5497 34.7926 41.7874C34.7909 42.7472 34.3394 43.3864 33.4429 43.7139C33.355 43.7432 33.2796 43.8015 33.2291 43.8792C32.7438 44.8559 31.9717 45.4414 30.8988 45.6306C30.8715 45.64 30.8458 45.6534 30.8223 45.6703H30.0047C29.4557 45.5342 28.8973 45.3906 28.4827 44.9872C28.277 44.7874 28.1009 44.5574 27.9245 44.3272L27.9245 44.3272C27.8298 44.2036 27.7351 44.08 27.6358 43.9609L27.622 43.9442C27.5454 43.8516 27.459 43.7473 27.3555 43.7098C26.5179 43.4057 26.0373 42.7431 26.0338 41.8463L26.0333 41.7436V41.7435V41.7435V41.7434V41.7433V41.7433V41.7432V41.7432V41.7431V41.743V41.743C26.0293 40.9507 26.0254 40.158 26.0338 39.3652C26.0455 38.4807 25.6944 37.7889 24.9784 37.2711C23.4704 36.1858 22.3789 34.7777 21.6839 33.0543C20.3061 29.639 21.1862 25.529 23.8465 22.9965C24.0807 22.7735 24.326 22.7519 24.5159 22.9381C24.7057 23.1243 24.6864 23.3964 24.4493 23.6299C23.2368 24.8343 22.397 26.2594 22.0962 27.9413C21.4835 31.3624 22.5418 34.2026 25.2599 36.3749C26.0671 37.0195 26.7136 37.7136 26.8789 38.7948H30.4462L30.4722 38.7947L30.514 38.794C30.5594 38.7932 30.605 38.7925 30.6506 38.7948C30.9514 38.8106 31.1272 38.9711 31.1266 39.235C31.126 39.4989 30.952 39.6641 30.6471 39.6641C29.9919 39.666 29.3369 39.6654 28.682 39.6647H28.6806H28.6805H28.6805H28.6804H28.6803H28.6803H28.6802H28.6801H28.6801H28.68H28.6799C28.3525 39.6644 28.0251 39.6641 27.6977 39.6641H26.9233C26.9233 39.9103 26.9206 40.1541 26.918 40.3963V40.3963V40.3963V40.3964V40.3964V40.3964V40.3964V40.3964V40.3965V40.3965V40.3965C26.912 40.9623 26.906 41.5187 26.9338 42.0734C26.9583 42.5522 27.4004 42.913 27.9027 42.9159C29.577 42.9279 31.2512 42.9279 32.9254 42.9159C33.1834 42.9192 33.4323 42.8202 33.6175 42.6407C33.8028 42.4612 33.9095 42.2157 33.9142 41.9579C33.926 41.438 33.9234 40.9178 33.9207 40.3813C33.9195 40.1454 33.9183 39.9064 33.9183 39.6629H33.1024H32.5476C32.2077 39.6588 32.0068 39.4889 32.0114 39.2239C32.0161 38.9589 32.2217 38.7919 32.5622 38.7919H33.9487C34.1157 37.6827 34.771 36.9436 35.6342 36.3259C36.0355 36.0336 36.4006 35.6945 36.7217 35.3159C38.8891 32.7875 39.521 29.9023 38.3915 26.7743C37.2678 23.6614 34.9626 21.816 31.6855 21.2644C29.6379 20.9193 27.724 21.3601 25.9538 22.4372C25.9358 22.4467 25.9181 22.4575 25.9003 22.4684L25.9003 22.4684L25.9003 22.4684C25.8852 22.4777 25.87 22.487 25.8545 22.4956C25.5952 22.6404 25.3516 22.5989 25.2161 22.3788C25.0806 22.1587 25.1419 21.9205 25.3972 21.7559ZM28.5545 43.8103C29.1292 44.547 29.8219 44.8763 30.6833 44.7759C31.331 44.7006 31.8607 44.3958 32.2474 43.8103H28.5545ZM28.1773 25.559C28.0781 25.5775 27.9452 25.5787 27.8678 25.5288C27.711 25.4282 27.5618 25.3165 27.4125 25.2047L27.4124 25.2046C27.3115 25.1291 27.2105 25.0535 27.1071 24.9813C26.9988 24.916 26.8861 24.8579 26.7699 24.8074C26.7314 24.8313 26.692 24.8533 26.6529 24.8751L26.6528 24.8751C26.5647 24.9243 26.4782 24.9726 26.4078 25.0392C26.1957 25.234 25.9922 25.4356 25.7884 25.6375L25.7883 25.6375L25.7883 25.6376C25.7083 25.7167 25.6284 25.7959 25.5479 25.8748L25.5408 25.8817C24.9116 26.4989 24.8956 26.5147 25.4575 27.1924C25.7528 27.5499 25.9406 27.8726 25.6193 28.2933C25.6059 28.3109 25.5996 28.3341 25.5934 28.3572C25.5865 28.3828 25.5797 28.4081 25.5632 28.4248C25.5483 28.4401 25.5333 28.4565 25.518 28.4731L25.5179 28.4733L25.5179 28.4733L25.5179 28.4733L25.5179 28.4733C25.4589 28.5377 25.3968 28.6055 25.327 28.6207C25.048 28.6784 24.764 28.7154 24.4807 28.7523L24.4806 28.7523L24.366 28.7673C24.0707 28.8055 23.9284 28.9718 23.9254 29.2529C23.9207 29.8126 23.9207 30.3727 23.9254 30.9332C23.9254 31.1992 24.0613 31.3695 24.3389 31.4107C24.4349 31.4313 24.5325 31.4447 24.6306 31.4506C25.2213 31.4414 25.6701 31.6245 25.7818 32.2659C25.7818 32.2702 25.785 32.2745 25.7881 32.2788C25.7913 32.2831 25.7945 32.2873 25.7942 32.2914C25.7914 32.3203 25.7916 32.3512 25.7918 32.3822C25.7922 32.4518 25.7926 32.5218 25.7599 32.5695C25.6492 32.7299 25.5304 32.8835 25.4117 33.037L25.4117 33.0371L25.4117 33.0371L25.4116 33.0371L25.4116 33.0371L25.4116 33.0371L25.4116 33.0372L25.4116 33.0372L25.4116 33.0372L25.4115 33.0372C25.3402 33.1294 25.2689 33.2216 25.1994 33.3153C24.9927 33.5928 24.9998 33.7678 25.2384 34.0054C25.4868 34.2531 25.738 34.4981 25.9893 34.743L25.9897 34.7434L25.9897 34.7434L25.9897 34.7434L25.9897 34.7435L25.9898 34.7435L25.9898 34.7435L25.9898 34.7435L25.9898 34.7435L25.9898 34.7435C26.1362 34.8863 26.2826 35.029 26.4285 35.1723C26.6358 35.3757 26.8543 35.3908 27.0882 35.2193C27.1594 35.167 27.23 35.1137 27.3007 35.0604C27.4797 34.9254 27.6589 34.7902 27.8478 34.6706C27.9513 34.619 28.0698 34.6041 28.1832 34.6283C28.7851 34.7349 29.0426 35.1057 29.0101 35.695C29.0145 35.7914 29.0289 35.8871 29.0532 35.9807C29.1034 36.3115 29.2416 36.4349 29.5807 36.4378C29.8563 36.4401 30.1319 36.4394 30.4075 36.4386C30.5453 36.4382 30.6832 36.4378 30.821 36.4378C31.7199 36.4378 31.7418 36.4332 31.825 35.5571C31.8658 35.1254 31.952 34.7696 32.4676 34.6955C32.4941 34.6917 32.5196 34.6775 32.5449 34.6636C32.5732 34.6479 32.6013 34.6324 32.6301 34.6317C32.6409 34.6315 32.652 34.631 32.6632 34.6306L32.6902 34.6293C32.7893 34.6246 32.8961 34.6195 32.9661 34.6642C33.1588 34.7872 33.3411 34.9238 33.5236 35.0606L33.5237 35.0607C33.599 35.1171 33.6744 35.1736 33.7505 35.2291C33.9637 35.3844 34.1763 35.3769 34.3641 35.1967C34.787 34.7911 35.2028 34.3814 35.6174 33.9689C35.8029 33.7846 35.8129 33.5777 35.6617 33.3663C35.6003 33.2672 35.5285 33.1747 35.4473 33.0904C35.002 32.6877 34.904 32.2416 35.2636 31.7392C35.3168 31.665 35.4019 31.5816 35.4851 31.5654C35.7385 31.5151 35.9947 31.4791 36.2509 31.4431L36.2509 31.4431L36.251 31.4431L36.2511 31.4431C36.3258 31.4326 36.4004 31.4221 36.475 31.4112C36.7532 31.3707 36.8938 31.2055 36.8973 30.939C36.9038 30.3694 36.905 29.7998 36.8973 29.2303C36.8932 28.9788 36.7609 28.8131 36.4939 28.7737C36.3772 28.7485 36.2584 28.7339 36.139 28.7302C35.5365 28.7505 35.1408 28.5083 35.0315 27.9033C35.0088 27.8017 35.0226 27.6955 35.0705 27.6026C35.1786 27.4406 35.2988 27.2864 35.4192 27.132L35.4192 27.132L35.4192 27.132L35.4192 27.132L35.4192 27.1319L35.4192 27.1319L35.4193 27.1319L35.4193 27.1319L35.4193 27.1318L35.4193 27.1318C35.4844 27.0484 35.5495 26.9649 35.6127 26.8801C35.8271 26.5904 35.8165 26.4165 35.5655 26.1668C35.3651 25.9665 35.1623 25.7688 34.9597 25.5713L34.9597 25.5713L34.9596 25.5712L34.9596 25.5712L34.9596 25.5712L34.9596 25.5712L34.9596 25.5712L34.9596 25.5712C34.8762 25.4899 34.7928 25.4086 34.7096 25.3272L34.7053 25.3229C34.0811 24.7106 34.0613 24.6911 33.3672 25.2484C32.9945 25.5485 32.6814 25.6662 32.2314 25.4066L32.2054 25.3919C32.0148 25.2843 31.8814 25.2089 31.8735 24.9627C31.8666 24.7535 31.8295 24.545 31.7925 24.337L31.7925 24.3369L31.7924 24.3367C31.782 24.2781 31.7716 24.2194 31.7618 24.1608C31.7175 23.8942 31.5657 23.7471 31.2822 23.7471H29.5405C29.2582 23.7471 29.1046 23.8925 29.0568 24.1562C29.0511 24.1877 29.0442 24.2192 29.0373 24.2506C29.0188 24.3348 29.0004 24.4182 29.0077 24.4992C29.0515 25.0954 28.7685 25.4466 28.1773 25.559ZM29.3261 26.0805C29.5866 25.9947 29.7165 25.8435 29.7502 25.5879C29.7786 25.3714 29.8098 25.1554 29.8416 24.9347C29.8561 24.8341 29.8708 24.7326 29.8854 24.6295H30.9314C30.9458 24.7291 30.9606 24.8274 30.9752 24.9249C31.0071 25.1366 31.0385 25.3445 31.0631 25.5532C31.0962 25.8313 31.2238 25.997 31.515 26.0851C31.8685 26.1999 32.2127 26.3409 32.5444 26.5069C32.7736 26.6158 32.9691 26.6228 33.1728 26.4652C33.3838 26.3037 33.5978 26.1485 33.8109 25.994L33.9696 25.8788L34.7102 26.6112C34.658 26.6797 34.6054 26.7497 34.5521 26.8205L34.5521 26.8205L34.5521 26.8205L34.5521 26.8205L34.5521 26.8205L34.5521 26.8206L34.5521 26.8206L34.5521 26.8206C34.4131 27.0053 34.2699 27.1956 34.1196 27.3807C33.9595 27.5794 33.956 27.7695 34.067 27.9966C34.2324 28.3345 34.3789 28.6809 34.5059 29.0344C34.5951 29.2836 34.7368 29.4174 35.0085 29.4458C35.2358 29.4694 35.462 29.5054 35.6932 29.5421L35.6934 29.5422C35.7974 29.5587 35.9024 29.5754 36.009 29.5912C36.009 29.6739 36.0102 29.7547 36.0113 29.8339C36.0142 30.0379 36.017 30.2321 35.9996 30.4245C35.9864 30.472 35.9617 30.5156 35.9275 30.5516C35.8934 30.5877 35.8508 30.615 35.8035 30.6313C35.5245 30.6873 35.2428 30.7291 34.9595 30.7565C34.7232 30.7837 34.6016 30.9095 34.5212 31.1238C34.3824 31.4929 34.2289 31.858 34.0582 32.2143C33.9536 32.4334 33.9643 32.6159 34.1143 32.8048C34.2722 33.0035 34.4249 33.2056 34.5764 33.4062L34.5777 33.408C34.6224 33.4671 34.6669 33.526 34.7114 33.5847L33.9483 34.2991C33.8796 34.2489 33.8077 34.1976 33.734 34.1449L33.734 34.1449L33.7339 34.1449L33.7339 34.1449L33.7339 34.1448L33.7339 34.1448L33.7339 34.1448L33.7338 34.1448L33.7338 34.1448L33.7338 34.1447C33.5613 34.0216 33.3788 33.8913 33.203 33.7504C32.9832 33.5766 32.7795 33.5685 32.5255 33.6925C32.1931 33.8575 31.8484 33.9974 31.4943 34.1108C31.2332 34.1943 31.1009 34.3426 31.0673 34.5993C31.0392 34.8125 31.0085 35.0253 30.9771 35.243L30.9771 35.2431L30.977 35.2435L30.9769 35.2444C30.962 35.3476 30.947 35.4518 30.932 35.5577H29.8848C29.8709 35.4618 29.856 35.3667 29.8412 35.2722C29.8094 35.0693 29.778 34.8689 29.7578 34.6677C29.7271 34.3623 29.5889 34.1862 29.2741 34.0958C28.9368 33.9941 28.6103 33.8608 28.299 33.6977C28.035 33.5621 27.8265 33.576 27.5973 33.7597C27.4282 33.8961 27.2504 34.0226 27.0741 34.1481L27.0739 34.1482L27.0734 34.1485C26.9975 34.2025 26.9218 34.2564 26.8472 34.3107L26.1101 33.5743C26.1621 33.5063 26.215 33.4359 26.2691 33.364C26.3993 33.1908 26.5357 33.0094 26.6789 32.8349C26.8561 32.6194 26.8608 32.4148 26.735 32.1674C26.5741 31.8484 26.4348 31.5193 26.318 31.1824C26.2289 30.9268 26.0954 30.771 25.8066 30.742C25.5751 30.7192 25.3451 30.6818 25.1094 30.6436C25.0095 30.6273 24.9085 30.6109 24.806 30.5954C24.806 30.5135 24.8049 30.4333 24.8038 30.3546C24.8008 30.1513 24.798 29.9571 24.8155 29.7651C24.8286 29.7175 24.8532 29.6737 24.8874 29.6376C24.9216 29.6014 24.9642 29.574 25.0116 29.5576C25.2596 29.5032 25.5138 29.4733 25.7674 29.4435L25.7674 29.4435L25.7674 29.4435L25.7674 29.4435L25.7674 29.4435L25.7674 29.4435L25.7675 29.4435L25.7675 29.4435L25.7675 29.4435L25.7675 29.4435L25.8562 29.4331C26.0759 29.4064 26.2052 29.2946 26.2844 29.0918C26.4356 28.7064 26.5986 28.3252 26.7699 27.948C26.8591 27.7498 26.8484 27.5765 26.7173 27.4062C26.5106 27.1373 26.3039 26.8679 26.0954 26.595L26.8561 25.8823C26.9241 25.9323 26.9936 25.9828 27.064 26.0341L27.0641 26.0341L27.0642 26.0342L27.0643 26.0343L27.0644 26.0343C27.2525 26.1712 27.4473 26.3129 27.6381 26.4617C27.8407 26.6176 28.035 26.6187 28.2665 26.5098C28.6103 26.3444 28.9641 26.2 29.3261 26.0776V26.0805ZM17.4782 28.6561C18.3078 28.6492 19.1373 28.6492 19.9669 28.6561C20.2643 28.6584 20.4527 28.8362 20.4615 29.082C20.4656 29.341 20.2696 29.5103 19.9534 29.5137C19.6796 29.516 19.4058 29.5152 19.132 29.5145C18.9952 29.5141 18.8583 29.5137 18.7214 29.5137C18.5845 29.5137 18.4476 29.5143 18.3107 29.515C18.0369 29.5163 17.7631 29.5175 17.4893 29.5137C17.1919 29.5097 17.003 29.341 17 29.0929C16.9971 28.8449 17.1848 28.6561 17.4782 28.6561ZM43.3643 28.6555C42.6113 28.6493 41.8597 28.6493 41.1096 28.6555C40.8224 28.6584 40.646 28.8447 40.6546 29.1035C40.6632 29.3503 40.8359 29.5108 41.1123 29.5142C41.3632 29.5173 41.6142 29.5163 41.8651 29.5152H41.8653C41.9908 29.5147 42.1163 29.5142 42.2418 29.5142C42.3673 29.5142 42.4928 29.5146 42.6183 29.515H42.6185C42.8694 29.5158 43.1203 29.5165 43.3713 29.5142C43.645 29.5102 43.8204 29.3457 43.8273 29.1007C43.83 28.8441 43.6504 28.6578 43.3643 28.6555ZM39.8605 20.2318C39.3205 20.8664 38.7764 21.4962 38.228 22.121C38.014 22.3646 37.7648 22.3563 37.5972 22.1535C37.4296 21.9508 37.4401 21.6906 37.6441 21.4522L37.8433 21.219L37.8433 21.219C38.3246 20.6555 38.8057 20.0921 39.3047 19.5508C39.4078 19.4386 39.6284 19.3952 39.7723 19.4341C39.8498 19.4547 39.9109 19.5535 39.9761 19.6591L39.9761 19.6591C40.0078 19.7104 40.0405 19.7634 40.0766 19.8097C40.0463 19.8704 40.0213 19.9271 39.9982 19.9795L39.9982 19.9796C39.9534 20.0813 39.9158 20.1666 39.8605 20.2318ZM22.6387 21.9446C22.7283 22.0315 22.9568 22.0327 23.0901 21.9841C23.1671 21.9558 23.2218 21.8633 23.2753 21.773L23.2753 21.773L23.2753 21.773C23.2986 21.7336 23.3216 21.6946 23.3462 21.6616C23.3257 21.6159 23.3101 21.5735 23.2959 21.5351C23.2695 21.4634 23.248 21.4053 23.2095 21.3644C22.6232 20.7481 22.0358 20.1329 21.4346 19.535C21.2686 19.3697 21.0551 19.388 20.8875 19.5567C20.7199 19.7253 20.7 19.9517 20.8582 20.1209C21.439 20.7401 22.0292 21.3529 22.6387 21.9446ZM34.2195 19.7076C34.1533 19.7039 34.0886 19.6891 34.0295 19.6641C33.775 19.5554 33.6676 19.3746 33.7674 19.1443C33.8925 18.8307 34.0402 18.5236 34.2098 18.2246C34.265 18.1329 34.3836 18.0676 34.4692 18.0205C34.4988 18.0042 34.5245 17.9901 34.5421 17.9778C35.0141 17.9755 35.257 18.2263 35.1463 18.5215C35.0208 18.8448 34.8715 19.1614 34.699 19.4696C34.6719 19.5196 34.6327 19.5646 34.5838 19.6018C34.535 19.6389 34.4775 19.6675 34.4148 19.6857C34.3522 19.7039 34.2857 19.7113 34.2195 19.7076ZM26.3139 19.4455C26.3623 19.5411 26.4614 19.6093 26.535 19.66L26.535 19.66L26.535 19.66C26.5616 19.6784 26.5849 19.6944 26.6012 19.7086C26.9809 19.7017 27.164 19.4461 27.0716 19.1535C26.9792 18.861 26.8624 18.5701 26.7445 18.2838C26.6338 18.0197 26.4158 17.9186 26.1911 18.0117C25.9813 18.0986 25.8861 18.3264 25.9741 18.5798C26.0667 18.8765 26.1802 19.1659 26.3139 19.4455ZM41.0225 24.6287C41.2118 24.5725 41.376 24.668 41.4661 24.8349C41.5573 25.0039 41.5373 25.1975 41.3686 25.282C41.1135 25.4068 40.8455 25.5088 40.5564 25.6189L40.5562 25.619L40.5561 25.619C40.433 25.6659 40.3061 25.7142 40.1748 25.7664C40.1336 25.7271 40.0899 25.6911 40.0474 25.656C39.9563 25.5807 39.8704 25.5098 39.8253 25.4211C39.8046 25.3833 39.7924 25.342 39.7897 25.2998C39.7869 25.2575 39.7935 25.2152 39.8092 25.1754C39.8248 25.1356 39.8491 25.0991 39.8806 25.0683C39.9121 25.0375 39.9501 25.0129 39.9923 24.996C40.3272 24.8543 40.6713 24.7316 41.0225 24.6287ZM20.9276 25.1167C20.658 24.977 20.3672 24.8699 20.0521 24.7537C19.9302 24.7088 19.8046 24.6626 19.6752 24.6125C19.6332 24.6504 19.5856 24.6858 19.539 24.7204L19.539 24.7204C19.4351 24.7976 19.3363 24.8711 19.3152 24.9593C19.2846 25.0873 19.3644 25.3276 19.4796 25.3875C19.8193 25.5548 20.1826 25.6808 20.5598 25.7621C20.6918 25.7905 20.9468 25.6722 21.0104 25.5598C21.0741 25.4474 21.0266 25.1675 20.9276 25.1167ZM32.3308 32.1499C31.8122 32.6867 31.1128 32.9844 30.3862 32.9776C28.8915 32.9681 27.6651 31.6617 27.6719 30.0877C27.6768 29.3213 27.9692 28.5881 28.4852 28.0485C29.0012 27.5089 29.6986 27.2069 30.4251 27.2085C31.9316 27.2139 33.1727 28.5363 33.1524 30.1145C33.145 30.881 32.8495 31.6131 32.3308 32.1499ZM31.1319 28.2528C30.9013 28.1525 30.6543 28.1012 30.4048 28.1016C29.9063 28.1054 29.4291 28.3155 29.076 28.6869C28.723 29.0583 28.5223 29.5611 28.5173 30.0871C28.5178 30.3502 28.5674 30.6107 28.6633 30.8536C28.7592 31.0965 28.8995 31.317 29.0763 31.5026C29.2531 31.6882 29.4628 31.8353 29.6935 31.9353C29.9241 32.0354 30.1712 32.0864 30.4206 32.0857C30.9191 32.0829 31.3965 31.8732 31.7496 31.502C32.1027 31.1308 32.3031 30.6279 32.3076 30.102C32.3071 29.8388 32.2575 29.5783 32.1617 29.3354C32.0658 29.0924 31.9255 28.8718 31.7489 28.686C31.5722 28.5003 31.3625 28.3531 31.1319 28.2528Z" fill="#1AA3FF"/>
</g>
</svg>
