<svg width="60" height="61" viewBox="0 0 60 61" fill="none" xmlns="http://www.w3.org/2000/svg">
<g id="Group 1000003741">
<path id="Vector" d="M30 60.67C46.5685 60.67 60 47.2385 60 30.67C60 14.1015 46.5685 0.670044 30 0.670044C13.4315 0.670044 0 14.1015 0 30.67C0 47.2385 13.4315 60.67 30 60.67Z" fill="#F1F8FF"/>
<path id="Union" fill-rule="evenodd" clip-rule="evenodd" d="M44.8019 30.3005C43.2657 26.6575 41.7287 23.0146 40.1909 19.3716C40.1621 19.3033 40.1292 19.2363 40.094 19.1647L40.094 19.1646L40.094 19.1646C40.0758 19.1276 40.0571 19.0894 40.0379 19.0491L35.3921 20.9674L35.3921 20.9654V20.9653C35.4175 20.2451 35.4416 19.5585 35.0474 18.9487C34.8618 18.6523 34.6159 18.3974 34.3255 18.2001C34.0351 18.0027 33.7064 17.8673 33.3603 17.8025C32.827 17.6997 32.2744 17.7679 31.7828 17.9972C31.2912 18.2264 30.8862 18.6048 30.6265 19.0774C30.4631 19.3636 30.3592 19.6794 30.321 20.006C30.2827 20.3326 30.3109 20.6635 30.4039 20.9792C30.5917 21.6437 31.0037 22.1419 31.6155 22.5287L26.6645 24.5685L26.1653 23.598C26.449 23.4066 26.5155 23.1273 26.506 22.8056C26.4948 22.413 26.4971 22.02 26.4994 21.6219C26.5003 21.4568 26.5013 21.2908 26.5013 21.1235L26.7786 21.107C27.1209 21.0906 27.2295 20.9917 27.2255 20.6622C27.2033 18.9979 27.1785 17.3338 27.151 15.67H26.4379L26.5171 20.1012V20.4331H17.1327C17.1097 18.871 17.0867 17.2728 17.0638 15.6747L17.0637 15.67H16.3506C16.3727 17.2753 16.3947 18.8802 16.4163 20.4849C16.4242 21.1329 16.4393 21.1502 17.0962 21.191C17.1338 21.2024 17.1697 21.2185 17.2032 21.2388V22.7546C17.2032 23.081 17.2135 23.3995 17.4274 23.5878C17.3671 23.7401 17.3049 23.887 17.2441 24.0309L17.2441 24.0309L17.2441 24.0309L17.2441 24.0309L17.244 24.0309C17.114 24.3383 16.9898 24.6319 16.9013 24.9349C16.7802 25.3393 16.6729 25.7471 16.5657 26.1547C16.4441 26.6171 16.3225 27.0792 16.181 27.5357C16.0122 28.0802 15.9504 28.5965 16.2158 29.1205C16.2204 29.1296 16.2175 29.1422 16.2138 29.1583C16.2117 29.1673 16.2093 29.1775 16.2079 29.1888C16.1923 29.1964 16.1759 29.2047 16.1588 29.2134L16.1588 29.2134L16.1588 29.2135L16.1586 29.2135C16.1351 29.2256 16.1103 29.2382 16.0851 29.25C15.0169 29.7372 14.7507 30.4268 15.2277 31.4821C16.8897 35.1569 18.5519 38.8318 20.2143 42.5067C20.2406 42.565 20.2697 42.6223 20.3005 42.6828C20.3153 42.7119 20.3305 42.7416 20.3459 42.7727L23.1288 41.5401C23.3322 41.4499 23.536 41.3604 23.7398 41.2709L23.7398 41.2708L23.7399 41.2708L23.74 41.2708L23.74 41.2707L23.7401 41.2707L23.7403 41.2706C24.2222 41.0589 24.7042 40.8472 25.1819 40.6261C25.6193 40.4229 25.6574 39.9867 25.2849 39.6846C25.229 39.6398 25.1717 39.5963 25.1145 39.5528C25.0226 39.483 24.9308 39.4133 24.8443 39.3379C24.4917 39.0311 24.17 38.7016 24.0662 38.2238C23.9818 37.8488 24.0176 37.457 24.1686 37.1031C24.3195 36.7492 24.5782 36.4506 24.9085 36.249C25.2402 36.0493 25.6263 35.9567 26.0135 35.984C26.4007 36.0112 26.7697 36.1571 27.0694 36.4013C27.3789 36.6503 27.598 36.9924 27.6935 37.3758C27.789 37.7591 27.7558 38.1629 27.5988 38.5258C27.4973 38.773 27.4514 38.9966 27.6669 39.1982C27.8824 39.3998 28.09 39.341 28.3238 39.2367C28.9625 38.9503 29.6022 38.6665 30.2418 38.3827C30.8815 38.0988 31.5212 37.815 32.1598 37.5287C32.307 37.4509 32.4486 37.3633 32.5838 37.2666L33.2565 36.8484L33.503 37.4606L33.504 37.4631L33.505 37.4657C33.6423 37.8064 33.7748 38.1353 33.9111 38.4748C33.644 38.6427 33.5941 38.9456 33.6084 39.2877C33.6206 39.674 33.618 40.0564 33.6153 40.4397C33.6142 40.6012 33.6131 40.7629 33.6131 40.925C33.5919 40.9275 33.5733 40.9299 33.5565 40.9322L33.5565 40.9322H33.5565L33.5564 40.9322L33.5562 40.9322C33.5249 40.9364 33.4997 40.9397 33.4744 40.9407C32.9404 40.9588 32.8904 41.0105 32.8984 41.5487C32.9169 42.8213 32.9356 44.0939 32.9546 45.3664C32.9546 45.4344 32.9599 45.5027 32.9651 45.5695L32.9651 45.5696C32.9677 45.603 32.9702 45.636 32.9721 45.6685H33.629V41.6264H43.0166V45.67H43.7551V45.3405C43.7366 44.0973 43.7187 42.854 43.7012 41.6107C43.6917 40.9195 43.6838 40.9101 42.9984 40.8638C42.9889 40.8638 42.9801 40.8566 42.9627 40.8425C42.9509 40.8329 42.9352 40.8201 42.9128 40.8042C42.9128 40.6593 42.9145 40.5118 42.9162 40.3627V40.3626V40.3625V40.3624V40.3623V40.3623C42.9203 39.998 42.9245 39.6236 42.9049 39.2508C42.8941 39.0553 42.8456 38.8621 42.7935 38.6544L42.7935 38.6543C42.7692 38.5577 42.7442 38.4579 42.7218 38.3532C42.7588 38.2697 42.8026 38.1803 42.8486 38.0863C42.9572 37.8642 43.0785 37.6164 43.1537 37.3584C43.4857 36.2122 43.7876 35.0573 44.0863 33.9064C44.1156 33.7656 44.1099 33.62 44.0697 33.4819C44.0151 33.2655 43.9453 33.0491 43.8756 32.8327L43.8756 32.8326C43.8442 32.7352 43.8129 32.6378 43.7829 32.5404C43.807 32.528 43.827 32.5173 43.8444 32.508L43.8445 32.508C43.8721 32.4932 43.8933 32.4818 43.9152 32.4722C44.958 32.0195 45.2385 31.3314 44.8019 30.3005ZM17.9132 21.3369C17.9132 21.2859 18.0764 21.1988 18.166 21.1965C18.9174 21.1817 19.6694 21.1764 20.4215 21.1711L20.9227 21.1675C21.3147 21.1644 21.7066 21.1617 22.0986 21.159L22.0988 21.159C23.2187 21.1514 24.3386 21.1437 25.4585 21.1274C25.7104 21.1235 25.8095 21.1769 25.7976 21.4468C25.7826 21.8083 25.7855 22.1707 25.7886 22.5491C25.7899 22.7093 25.7913 22.8723 25.7913 23.0394H17.9013L17.9003 22.8735C17.8971 22.3701 17.8939 21.8535 17.9132 21.3369ZM16.7705 28.1257L16.8613 27.7791L16.8613 27.7791L16.8613 27.7791L16.8613 27.779L16.8613 27.779L16.8613 27.779C17.1206 26.7882 17.3799 25.7972 17.6723 24.8157C17.7559 24.5353 17.9209 24.2777 18.0835 24.0239C18.112 23.9794 18.1404 23.935 18.1683 23.8907C18.2127 23.82 18.3696 23.7918 18.4758 23.791C19.602 23.7795 20.7286 23.7715 21.855 23.7635L21.8558 23.7635C22.4197 23.7595 22.9835 23.7555 23.5472 23.751C23.7869 23.751 24.0265 23.7475 24.2661 23.7441L24.2663 23.7441C24.5603 23.7398 24.8544 23.7355 25.1486 23.7377C25.2445 23.7377 25.3808 23.7753 25.4284 23.8436C25.5891 24.0794 25.736 24.3205 25.8932 24.5786L25.8934 24.5788C25.9453 24.6642 25.9985 24.7513 26.0536 24.8408L22.4774 26.424L21.9718 26.6477C21.4917 26.8599 21.0116 27.0722 20.5337 27.287C20.4284 27.3333 20.3371 27.4061 20.269 27.4981C19.9871 27.9396 19.5757 28.2853 19.0899 28.489C18.9481 28.547 18.9029 28.6114 18.9314 28.7722C19.0559 29.4795 19.1723 30.1877 19.2887 30.8962L19.2888 30.8963C19.3309 31.1528 19.373 31.4092 19.4156 31.6657C19.4798 32.0532 19.4473 32.4384 19.2484 32.7758C19.1369 32.9554 18.9761 33.0999 18.7848 33.1924C18.4734 33.3383 18.2927 33.2285 18.1858 32.8974L17.9777 32.2576L17.9777 32.2574L17.9776 32.2572C17.5751 31.0196 17.1724 29.781 16.7777 28.5431C16.7369 28.4073 16.7334 28.2633 16.7674 28.1257H16.7705ZM31.8167 36.9253C30.7723 37.3898 29.7274 37.8532 28.682 38.3156C28.6155 38.3452 28.5491 38.3709 28.4532 38.4081L28.3943 38.4309C28.5528 37.5444 28.3682 36.7716 27.7778 36.1188C27.4202 35.7198 26.9393 35.4489 26.4101 35.3484C25.8746 35.2341 25.316 35.2938 24.8174 35.5187C24.3188 35.7435 23.9067 36.1215 23.6423 36.5966C23.4743 36.886 23.3674 37.2061 23.3281 37.5376C23.2887 37.8691 23.3177 38.205 23.4133 38.5251C23.6016 39.1858 24.0963 39.6177 24.6148 40.0702L24.6494 40.1005L20.6874 41.8602L20.0804 40.5169L20.0799 40.5158L20.0793 40.5145C19.6757 39.6215 19.2776 38.7408 18.8799 37.859C17.8656 35.6303 16.8566 33.4021 15.8529 31.1745C15.5478 30.499 15.7055 30.1389 16.4393 29.8808C16.4497 29.9058 16.4609 29.9308 16.4721 29.9558C16.4943 30.0054 16.5168 30.0554 16.5336 30.1075C16.6364 30.4272 16.7408 30.7466 16.8453 31.0662L16.8453 31.0663L16.8453 31.0663L16.8453 31.0663L16.8453 31.0664L16.8453 31.0664C17.0628 31.732 17.2805 32.3982 17.4845 33.0677C17.6295 33.5384 17.8807 33.8781 18.4013 33.9385C18.6776 33.9673 18.9565 33.9167 19.2046 33.7929C19.4527 33.6691 19.6596 33.4773 19.8007 33.2403C20.1969 32.5342 20.1565 31.799 20.0123 31.0435C19.8926 30.4158 19.7928 29.7882 19.7024 29.1606C19.6898 29.0758 19.765 28.955 19.8356 28.8883C19.9323 28.7968 20.0357 28.7113 20.1389 28.6259L20.1389 28.6259L20.1389 28.6259L20.1389 28.6259L20.1389 28.6259L20.1389 28.6259C20.3011 28.4917 20.4631 28.3578 20.5986 28.201C20.7676 28.0003 20.981 27.8408 21.2223 27.735C23.0353 26.9374 24.8465 26.135 26.6558 25.328C27.0964 25.1318 27.1376 25.1483 27.3373 25.5986L27.7167 26.4554L27.7167 26.4554C28.1573 27.45 28.5979 28.4446 29.0338 29.443C29.1352 29.6784 29.262 29.8659 29.5409 29.8627C29.8325 29.8627 29.9609 29.6603 30.0568 29.4132C30.1947 29.054 30.4406 28.7454 30.7613 28.5291C31.0819 28.3127 31.462 28.199 31.85 28.2034C32.2234 28.2119 32.5852 28.3331 32.887 28.5509C33.1888 28.7686 33.4161 29.0725 33.5386 29.4218C33.6603 29.7716 33.6693 30.1501 33.5646 30.5052C33.4599 30.8602 33.2465 31.1744 32.9538 31.4044C32.4673 31.7888 31.888 31.7896 31.3136 31.7496C30.4364 31.6884 30.2216 31.9756 30.5814 32.7695C31.0906 33.893 31.5993 35.0176 32.1075 36.1431C32.2953 36.5527 32.2256 36.7449 31.8136 36.9253H31.8167ZM41.9873 40.8693C39.526 40.8829 37.0646 40.9015 34.6028 40.925C34.3952 40.925 34.3263 40.8599 34.331 40.6551C34.3395 40.2885 34.3379 39.9215 34.3363 39.5417V39.5416V39.5416V39.5415V39.5414V39.5413C34.3357 39.3865 34.335 39.2295 34.335 39.0695H34.6329C37.0458 39.0695 39.4579 39.0695 41.87 39.0578C42.1465 39.0578 42.2281 39.1362 42.2171 39.4022C42.2004 39.8023 42.2131 40.2048 42.2282 40.6049C42.2353 40.7893 42.1869 40.8677 41.9841 40.8693H41.9873ZM43.3454 33.9652L43.2632 34.2798L43.2632 34.2799C43.0066 35.2628 42.7496 36.2469 42.4532 37.2188C42.3653 37.505 42.2037 37.7706 42.0436 38.0338L42.0436 38.0338L42.0435 38.0339C41.9943 38.1148 41.9452 38.1954 41.8985 38.2764C41.8629 38.3368 41.7313 38.3689 41.6441 38.3697C39.4381 38.3744 37.2326 38.3744 35.0276 38.3697C34.9046 38.3612 34.7893 38.3074 34.7043 38.2191C34.3488 37.8203 34.1201 37.3266 34.0466 36.7998C34.0212 36.6468 34.0529 36.5511 34.2169 36.486C35.3032 36.0432 36.3875 35.5963 37.4718 35.1494C37.9552 34.9502 38.4386 34.7509 38.9222 34.552C38.9662 34.5421 39.0111 34.5364 39.0562 34.5348C38.9961 34.6623 38.9421 34.7761 38.8879 34.8904L38.7939 35.0887L39.4135 35.3813C39.4541 35.3055 39.4943 35.2311 39.5341 35.1576L39.5342 35.1574C39.6064 35.0241 39.6771 34.8935 39.7455 34.7615C40.0149 34.22 40.474 33.7939 41.0372 33.5627C41.183 33.5023 41.2258 33.4372 41.1956 33.2795C41.0817 32.6293 40.9733 31.9784 40.8649 31.3276L40.8645 31.3253C40.8139 31.0219 40.7634 30.7184 40.7123 30.4151C40.6457 30.0165 40.6766 29.6242 40.8779 29.2751C40.9832 29.1015 41.1355 28.9607 41.3177 28.8687C41.6346 28.7118 41.8304 28.8271 41.9405 29.1637L42.218 30.0157L42.2181 30.0161L42.2182 30.0166L42.2184 30.017L42.2185 30.0174L42.2186 30.0176C42.5956 31.1746 42.9725 32.3315 43.3407 33.4913C43.383 33.6454 43.3835 33.8077 43.3423 33.9621L43.3454 33.9652ZM43.4433 31.5073L43.4433 31.5074C43.4801 31.6177 43.5169 31.7278 43.5534 31.8377C44.246 31.6445 44.4427 31.2587 44.1791 30.6402C42.7105 27.1599 41.2416 23.6801 39.7725 20.2009C39.7518 20.152 39.727 20.1056 39.7012 20.0571L39.7012 20.057L39.7011 20.0569L39.701 20.0567L39.7008 20.0564C39.6853 20.0272 39.6693 19.9972 39.6536 19.9655L39.2574 20.1287C38.0102 20.647 36.7619 21.1612 35.5125 21.6711C35.38 21.7333 35.2344 21.7632 35.0878 21.7582C34.77 21.7214 34.6187 21.4428 34.6543 21.0733L34.6614 21C34.7192 20.407 34.7768 19.8155 34.423 19.279C34.2078 18.9586 33.8966 18.713 33.5331 18.5769C33.1697 18.4408 32.7722 18.4211 32.3968 18.5204C32.0166 18.6201 31.6778 18.8361 31.4289 19.1375C31.1799 19.439 31.0333 19.8106 31.0101 20.1993C30.9862 20.5887 31.0887 20.9755 31.3025 21.3032C31.5163 21.631 31.8303 21.8825 32.1987 22.0211C32.4562 22.1191 32.6797 22.2297 32.6741 22.5436C32.6694 22.8394 32.4554 22.9563 32.2177 23.0535C31.1405 23.4913 30.0634 23.9299 28.9863 24.3692C28.8053 24.4429 28.6253 24.5179 28.4468 24.5922C28.2243 24.6848 28.0041 24.7765 27.7873 24.8635L29.5449 28.7487C30.4625 27.5373 31.5354 27.1387 32.7058 27.5569C33.7827 27.9429 34.5062 28.9605 34.3825 30.1216C34.1924 31.9089 33.0703 32.6636 31.2779 32.575L32.9158 36.2679C32.9441 36.2584 32.9695 36.2503 32.9928 36.2429L32.993 36.2429L32.993 36.2429L32.9931 36.2428L32.9933 36.2428L32.9935 36.2427C33.0352 36.2295 33.0705 36.2184 33.1044 36.2043C35.3633 35.2723 37.6211 34.3371 39.8779 33.3987C40.0329 33.3353 40.1778 33.2499 40.3082 33.1453C40.3433 33.1126 40.371 33.0727 40.3892 33.0285C40.4074 32.9842 40.4157 32.9365 40.4135 32.8888C40.3224 32.2698 40.2226 31.6523 40.1101 31.0364C39.9856 30.3554 39.9096 29.6831 40.2115 29.0217C40.309 28.796 40.4612 28.5976 40.6548 28.4442C40.8483 28.2908 41.0771 28.187 41.3208 28.1422C41.9247 28.0104 42.3961 28.2928 42.5839 28.8734C42.6745 29.1516 42.7645 29.43 42.8545 29.7084L42.8547 29.709L42.8549 29.7096L42.855 29.7101L42.8552 29.7107L42.8554 29.7113L42.856 29.7132L42.8561 29.7135C42.967 30.0567 43.078 30.4 43.1901 30.743C43.2733 30.9982 43.3584 31.2531 43.4433 31.5073ZM22.4024 43.2794L23.0634 44.8908L23.5712 44.5558L22.9057 42.9427L22.4024 43.2794ZM37.7157 16.4493L38.3759 18.0585L37.8719 18.3974L37.2071 16.7883L37.7157 16.4493ZM17.338 44.564L17.8467 44.8907L18.5068 43.2768L17.9987 42.9427L17.338 44.564ZM42.7649 16.4493L43.4413 16.7828L42.561 18.3974L41.8829 18.0631L42.7649 16.4493ZM40.7148 15.67H39.9356V17.6181H40.7148V15.67ZM20.8437 45.6701H20.0645V44.1117H20.8437V45.6701Z" fill="#1AA3FF"/>
</g>
</svg>
