<svg width="60" height="60" viewBox="0 0 60 60" fill="none" xmlns="http://www.w3.org/2000/svg">
<g id="Group 1000003790">
<path id="Vector" d="M30 60C46.5685 60 60 46.5685 60 30C60 13.4315 46.5685 0 30 0C13.4315 0 0 13.4315 0 30C0 46.5685 13.4315 60 30 60Z" fill="#F1F8FF"/>
<path id="Union" fill-rule="evenodd" clip-rule="evenodd" d="M44.0399 30.6821C44.5756 31.6933 44.9268 32.7882 44.9573 33.9191C45.0065 35.7072 44.9949 37.4971 44.9833 39.2864C44.9798 39.8285 44.9763 40.3705 44.9745 40.9124C44.9752 41.3071 44.8376 41.6896 44.5856 41.9934C44.3335 42.2972 43.983 42.503 43.5949 42.5751C43.3744 42.616 43.145 42.6056 42.9043 42.5948C42.7906 42.5897 42.6744 42.5844 42.5555 42.5844C42.4827 42.808 42.3656 43.0146 42.2114 43.1921C42.0572 43.3696 41.8689 43.5142 41.6577 43.6176C41.1994 43.8436 40.7239 43.8522 40.2437 43.6872C39.9489 44.4677 39.4217 44.9369 38.6014 44.9635C37.7137 44.9917 37.1459 44.5076 36.8464 43.7325C36.7402 43.7403 36.6365 43.7498 36.5346 43.7591C36.3175 43.779 36.1082 43.7982 35.8985 43.7982C34.3954 43.8081 32.8928 43.8081 31.3907 43.7982C31.097 43.7953 30.8076 43.8686 30.5507 44.0109C29.0523 44.7977 27.4435 45.0652 25.7676 44.987C25.4266 44.9721 25.1904 44.7328 25.1849 44.4145C25.1794 44.0829 25.4211 43.8397 25.7762 43.8201C25.8444 43.8166 25.9128 43.8166 25.9811 43.8201C27.5194 43.8967 29.0483 43.5404 30.3943 42.7917C30.5756 42.7008 30.7757 42.6539 30.9785 42.6548C31.7756 42.645 32.5732 42.6463 33.3705 42.6476C33.6465 42.6481 33.9224 42.6486 34.1983 42.6486H34.447V36.7948C34.0177 36.7948 33.5925 36.7942 33.1703 36.7936C32.0412 36.7921 30.9336 36.7906 29.8265 36.8002C29.4503 36.8049 29.2126 36.6712 29.0319 36.3357C28.806 35.9067 28.4931 35.5294 28.1133 35.2281C27.7334 34.9267 27.2949 34.7078 26.8257 34.5854C26.2665 34.4283 25.6982 34.4394 25.1213 34.4506C24.8712 34.4555 24.6194 34.4604 24.3661 34.4517V34.8005C24.3653 35.4559 24.1948 35.624 23.5285 35.624H18.1431C18.0456 35.62 17.9479 35.6226 17.8507 35.6318C17.7141 35.6504 17.5884 35.7165 17.4956 35.8184C17.4028 35.9204 17.3488 36.0517 17.3431 36.1894C17.3398 36.3322 17.3884 36.4712 17.4799 36.5808C17.5714 36.6904 17.6995 36.7631 17.8405 36.7854C17.9277 36.7949 18.0156 36.7978 18.1033 36.794C18.3408 36.794 18.5783 36.7932 18.8158 36.7924C19.2907 36.7909 19.7655 36.7893 20.2399 36.794C20.5738 36.7971 20.8131 37.0122 20.8483 37.3117C20.8639 37.4493 20.8299 37.588 20.7523 37.7027C20.6747 37.8174 20.5587 37.9006 20.4252 37.9374C20.3206 37.9594 20.2137 37.9681 20.1069 37.9632H16.8293C16.4445 37.9648 16.1856 38.1923 16.1723 38.5247C16.1582 38.879 16.4296 39.1316 16.8418 39.1316H20.1492C20.5801 39.1316 20.8468 39.3467 20.853 39.7064C20.8593 40.0662 20.5856 40.3008 20.1406 40.3008H18.0337C17.6106 40.3024 17.3423 40.5346 17.3446 40.8889C17.347 41.2432 17.6137 41.47 18.0407 41.47C18.2847 41.47 18.5287 41.4692 18.7726 41.4684C19.2603 41.4669 19.748 41.4653 20.236 41.47C20.5949 41.4731 20.853 41.7046 20.853 42.0401C20.853 42.3756 20.5989 42.6282 20.2274 42.6361C20.0473 42.6385 19.8665 42.6374 19.6854 42.6363C19.5149 42.6352 19.3442 42.6342 19.1739 42.6361C18.7743 42.6408 18.5107 42.8715 18.5115 43.2211C18.5123 43.5706 18.7751 43.8053 19.1755 43.8053C19.3179 43.8053 19.4607 43.8045 19.6036 43.8037C19.89 43.8021 20.1771 43.8006 20.4636 43.8053C20.8444 43.8115 21.0939 44.0547 21.0892 44.3965C21.0845 44.7258 20.8397 44.9651 20.4792 44.9713C19.9912 44.9815 19.5032 44.987 19.0159 44.9713C18.2425 44.9455 17.5519 44.3926 17.4072 43.6348C17.3621 43.4012 17.3734 43.1562 17.3849 42.9066C17.3902 42.7926 17.3955 42.6777 17.3955 42.5625C16.3467 42.0816 16.0269 41.4395 16.2685 40.2273C15.5803 40.0099 15.1877 39.5109 15 38.8297V38.244C15.1869 37.562 15.5787 37.0638 16.2279 36.8581C16.2214 36.7216 16.2135 36.5884 16.2056 36.4575C16.1895 36.1888 16.1739 35.9297 16.1739 35.6709C16.1697 34.7555 16.1698 33.8402 16.1699 32.9249C16.17 31.9699 16.1701 31.0148 16.1653 30.0596C16.1526 29.8687 16.1082 29.6813 16.0339 29.5051C15.9338 29.2268 15.8293 28.95 15.7247 28.6731C15.5447 28.1969 15.3648 27.7208 15.208 27.2371C15.1249 26.9792 15.0893 26.7074 15.0536 26.436C15.0373 26.3115 15.0209 26.187 15 26.064V18.8056C15.1814 18.1619 15.524 17.6332 16.1942 17.4518C16.4498 17.3823 16.7224 17.3751 17.012 17.3673C17.1495 17.3637 17.2909 17.3599 17.4362 17.3493C17.5099 17.1337 17.6259 16.9348 17.7772 16.7643C17.9285 16.5938 18.1122 16.455 18.3175 16.3561C18.7743 16.1262 19.249 16.1191 19.744 16.2865C19.9677 15.5764 20.4667 15.1861 21.1471 15H21.7321C22.4133 15.1885 22.913 15.5764 23.1171 16.2279C23.25 16.2214 23.3795 16.2135 23.5069 16.2057C23.7797 16.1891 24.0422 16.1731 24.3051 16.1731C25.1787 16.169 26.0519 16.1693 26.9249 16.1696C27.9027 16.17 28.8802 16.1703 29.8578 16.1645C30.0768 16.1516 30.2922 16.1024 30.4952 16.019C30.7538 15.9249 31.0104 15.8242 31.2669 15.7235C31.6882 15.5581 32.1096 15.3926 32.5403 15.2565C32.8432 15.1611 33.1621 15.1144 33.4808 15.0677C33.6245 15.0466 33.7683 15.0255 33.9105 15H41.1697C41.1861 15.0062 41.2024 15.0126 41.2187 15.0189C41.2561 15.0336 41.2934 15.0482 41.3316 15.0602C42.0519 15.2839 42.4953 15.7664 42.6071 16.5086C42.635 16.7067 42.6147 16.9128 42.5939 17.1238C42.5844 17.2202 42.5747 17.3177 42.5696 17.4158C42.7981 17.4895 43.0093 17.6085 43.1907 17.7657C43.3722 17.9229 43.52 18.1152 43.6254 18.3308C43.7312 18.5472 43.7916 18.783 43.8031 19.0235C43.8145 19.2641 43.7767 19.5045 43.6919 19.73C44.5216 20.1015 44.9447 20.6239 44.9682 21.3277C44.9987 22.242 44.524 22.8254 43.7357 23.1328C43.7436 23.2406 43.7533 23.3452 43.7629 23.4475C43.7826 23.6581 43.8013 23.8592 43.8013 24.0603C43.8092 25.924 43.8123 27.7869 43.8013 29.6505C43.7909 30.0092 43.8731 30.3645 44.0399 30.6821ZM25.7816 17.3392H25.5275L25.5236 23.1859H25.8966C26.2736 23.1859 26.6506 23.1864 27.0275 23.1869C28.0747 23.1883 29.1217 23.1897 30.1683 23.1805C30.5359 23.1773 30.7611 23.3181 30.9378 23.638C31.4548 24.5741 32.2408 25.2107 33.2903 25.4047C33.8005 25.499 34.3241 25.5198 34.8644 25.5412C35.1084 25.5509 35.3557 25.5607 35.6068 25.5775V25.2412C35.6107 24.4975 35.7523 24.3567 36.4984 24.3567C36.876 24.3567 37.2536 24.3568 37.6313 24.357C39.048 24.3575 40.4649 24.358 41.8814 24.3512C42.0544 24.3542 42.2253 24.3139 42.3788 24.2339C42.6009 24.1057 42.6728 23.8773 42.6095 23.6239C42.5769 23.4946 42.5007 23.3806 42.3936 23.3012C42.2865 23.2218 42.1553 23.1819 42.0221 23.1883H39.74C39.6221 23.1947 39.5049 23.1651 39.4042 23.1034C39.3035 23.0416 39.224 22.9507 39.1762 22.8426C39.0737 22.6275 39.0862 22.3945 39.2599 22.2482C39.4113 22.1191 39.6001 22.0418 39.7987 22.0277C40.5646 22.0126 41.3304 22.0147 42.0962 22.0168C42.3643 22.0176 42.6323 22.0183 42.9004 22.0183H43.135C43.5362 22.0113 43.7982 21.7813 43.8006 21.4365C43.8029 21.0916 43.5386 20.8491 43.1413 20.8491H39.8347C39.3866 20.8483 39.1167 20.6098 39.1222 20.2555C39.1277 19.9012 39.3928 19.6791 39.8222 19.6791H41.9291C42.36 19.6776 42.6267 19.4656 42.6329 19.1027C42.6392 18.7399 42.3655 18.5092 41.9212 18.5092C41.6837 18.5092 41.4462 18.5096 41.2088 18.51C40.7342 18.5109 40.2598 18.5118 39.7854 18.5092C39.3866 18.5068 39.1238 18.2691 39.1253 17.9218C39.1269 17.5746 39.3889 17.3447 39.7909 17.34C39.9432 17.3374 40.0958 17.3385 40.2484 17.3397C40.4664 17.3413 40.6846 17.3429 40.9022 17.3337C40.9781 17.3316 41.0529 17.3145 41.1221 17.2834C41.1914 17.2523 41.2539 17.2078 41.3059 17.1525C41.3579 17.0972 41.3985 17.0322 41.4253 16.9611C41.4522 16.8901 41.4647 16.8144 41.4622 16.7385C41.4576 16.5904 41.3973 16.4494 41.2934 16.3437C41.1895 16.238 41.0495 16.1754 40.9014 16.1684C40.843 16.1658 40.7842 16.1667 40.7256 16.1675C40.6963 16.168 40.667 16.1684 40.6379 16.1684C40.0819 16.1684 39.5259 16.1711 38.9699 16.1737C37.6924 16.1799 36.4148 16.186 35.1376 16.1598C33.5883 16.1277 32.1422 16.4437 30.7806 17.1812C30.5822 17.2813 30.3631 17.3332 30.1409 17.3329C29.0511 17.3423 27.9613 17.3411 26.8715 17.34C26.5082 17.3396 26.1449 17.3392 25.7816 17.3392ZM23.1938 29.8031C23.1906 29.4363 23.3298 29.2118 23.6505 29.0343L23.6513 29.0366C24.5866 28.5189 25.2264 27.7345 25.4188 26.6842C25.5122 26.1754 25.5334 25.6534 25.5552 25.1149C25.5651 24.8693 25.5752 24.6204 25.5924 24.3677H25.2569C24.5123 24.3637 24.3708 24.2206 24.3708 23.4761C24.3708 23.0774 24.3709 22.6786 24.3711 22.2799C24.3716 20.8843 24.3722 19.4885 24.3661 18.0931C24.369 17.9199 24.3287 17.7486 24.2488 17.5949C24.1205 17.3728 23.8922 17.3009 23.6388 17.3642C23.5071 17.3941 23.3901 17.4693 23.3082 17.5766C23.2263 17.684 23.1847 17.8167 23.1906 17.9515V20.2336C23.1974 20.3515 23.168 20.4685 23.1064 20.5692C23.0447 20.6698 22.9538 20.7492 22.8457 20.7967C22.6307 20.9007 22.3976 20.8867 22.2514 20.7146C22.1219 20.563 22.0446 20.3738 22.0308 20.175C22.0151 19.4048 22.0172 18.6343 22.0192 17.8636C22.0199 17.6004 22.0207 17.3372 22.0207 17.0741V16.8394C22.0136 16.4382 21.7853 16.1755 21.4396 16.1731C21.0939 16.1708 20.8515 16.4343 20.8515 16.8324V20.1093C20.8515 20.5793 20.6207 20.8577 20.2586 20.8522C19.8965 20.8468 19.6815 20.5785 19.6815 20.1226V18.0454C19.6799 17.6137 19.4656 17.3478 19.1059 17.3415C18.7461 17.3353 18.5115 17.6082 18.5115 18.0532V20.189C18.5092 20.5879 18.273 20.8515 17.9249 20.8499C17.5769 20.8483 17.347 20.5856 17.3423 20.1844C17.3397 20.0317 17.3409 19.879 17.342 19.7264C17.3436 19.5085 17.3452 19.2906 17.336 19.073C17.334 18.9971 17.317 18.9224 17.286 18.8531C17.255 18.7837 17.2106 18.7212 17.1554 18.6691C17.1002 18.617 17.0352 18.5763 16.9642 18.5494C16.8932 18.5225 16.8176 18.5099 16.7417 18.5123C16.5938 18.5171 16.4532 18.5775 16.3479 18.6814C16.2427 18.7854 16.1805 18.9252 16.1739 19.073V19.3358C16.1739 19.8935 16.1765 20.4512 16.179 21.0089C16.185 22.2948 16.1909 23.5807 16.1653 24.8658C16.1356 26.405 16.4554 27.8408 17.1867 29.1938C17.2867 29.3919 17.3387 29.6108 17.3384 29.8328C17.3478 30.9225 17.3466 32.0122 17.3454 33.1019C17.345 33.4653 17.3446 33.8287 17.3446 34.192V34.4478H23.1992V34.0747C23.1992 33.698 23.1997 33.3212 23.2002 32.9444C23.2016 31.8975 23.203 30.8503 23.1938 29.8031ZM33.1269 35.6021C33.1753 35.5968 33.2232 35.5872 33.27 35.5732L33.2684 34.2718C33.2684 32.4934 33.9785 31.088 35.4582 30.0807C35.5008 30.0471 35.536 30.005 35.5614 29.957C35.5869 29.9091 35.602 29.8564 35.606 29.8023C35.6142 29.0632 35.6132 28.3246 35.6122 27.5858C35.6118 27.3395 35.6115 27.0932 35.6115 26.8468C35.6059 26.7984 35.5962 26.7505 35.5826 26.7037H34.3125C32.5215 26.7084 31.106 25.9998 30.0893 24.5139C30.0558 24.4712 30.0139 24.436 29.9661 24.4104C29.9183 24.3848 29.8657 24.3695 29.8117 24.3653C29.0818 24.3578 28.3523 24.3588 27.6226 24.3599C27.3672 24.3602 27.1117 24.3606 26.8562 24.3606C26.8077 24.3659 26.7598 24.3756 26.7131 24.3896V25.6596C26.7193 27.4514 26.0092 28.8661 24.5233 29.8828C24.4851 29.9077 24.4524 29.9401 24.4271 29.978C24.4019 30.0159 24.3845 30.0586 24.3763 30.1034C24.3692 31.1474 24.3692 32.1852 24.3692 33.259H25.6706C27.4615 33.2551 28.8771 33.959 29.8938 35.4488C29.9272 35.4915 29.9692 35.5267 30.017 35.5523C30.0648 35.5779 30.1174 35.5932 30.1714 35.5974C30.894 35.6054 31.6162 35.6042 32.3386 35.603C32.6013 35.6026 32.8641 35.6021 33.1269 35.6021ZM43.8016 38.9956C43.7955 37.727 43.7894 36.4581 43.8162 35.19L43.8154 35.1954C43.8483 33.6149 43.5386 32.1375 42.7886 30.7478C42.6969 30.5668 42.6494 30.3665 42.6501 30.1636C42.6417 29.0379 42.6425 27.9122 42.6434 26.7869C42.6436 26.4494 42.6439 26.112 42.6439 25.7746V25.5204H36.7901V25.8943C36.7901 26.2798 36.7894 26.6655 36.7887 27.0511C36.7868 28.0798 36.785 29.1086 36.7963 30.137C36.8002 30.5288 36.6532 30.7658 36.3114 30.9511C35.448 31.418 34.8857 32.143 34.6003 33.0815C34.4295 33.6449 34.4387 34.2183 34.448 34.8008C34.4523 35.0666 34.4566 35.3342 34.4439 35.6037H34.7019C35.4895 35.6076 35.6201 35.7382 35.6201 36.5203C35.6201 36.903 35.62 37.2857 35.6199 37.6684C35.6195 39.0709 35.6191 40.473 35.624 41.8751C35.6189 42.0389 35.6527 42.2016 35.7226 42.3498C35.8508 42.586 36.0815 42.6713 36.3482 42.6063C36.4779 42.5749 36.5925 42.4993 36.6726 42.3926C36.7526 42.2859 36.7931 42.1546 36.7869 42.0214C36.7896 41.5141 36.7887 41.0072 36.7878 40.5001C36.7874 40.2465 36.7869 39.993 36.7869 39.7393C36.7869 39.4937 36.8777 39.2692 37.1068 39.1981C37.2963 39.1449 37.4979 39.1543 37.6816 39.2247C37.9077 39.3162 37.9593 39.5516 37.9593 39.7925V42.8355V43.0991C37.964 43.5268 38.1829 43.7927 38.5388 43.7967C38.8946 43.8006 39.1293 43.5315 39.1293 43.11V39.8621C39.13 39.3897 39.3514 39.1144 39.7213 39.1183C40.0912 39.1222 40.3 39.3936 40.3 39.8746V41.9228C40.3008 42.353 40.5127 42.6196 40.8741 42.6267C41.2354 42.6337 41.47 42.3592 41.47 41.9158V39.7799C41.4716 39.3803 41.7062 39.1183 42.055 39.1191C42.4038 39.1199 42.6337 39.3826 42.6384 39.7831C42.641 39.9385 42.6401 40.094 42.6391 40.2494C42.6378 40.4646 42.6365 40.6796 42.6447 40.8944C42.6486 41.0426 42.7095 41.1836 42.8146 41.2881C42.9198 41.3927 43.0611 41.4528 43.2093 41.4559C43.3622 41.4587 43.5102 41.4018 43.6217 41.2972C43.7333 41.1927 43.7997 41.0487 43.8068 40.896C43.8094 40.8375 43.8086 40.7788 43.8077 40.7201C43.8073 40.6908 43.8068 40.6616 43.8068 40.6324C43.8068 40.0869 43.8042 39.5413 43.8016 38.9956ZM22.7987 43.7914C22.9081 43.687 23.0535 43.6287 23.2047 43.6285C23.3558 43.6314 23.4999 43.6922 23.6074 43.7983C23.715 43.9044 23.7777 44.0477 23.7827 44.1986C23.7832 44.2762 23.7684 44.3531 23.7391 44.425C23.7099 44.4968 23.6667 44.5622 23.6122 44.6173C23.5576 44.6725 23.4927 44.7163 23.4212 44.7463C23.3497 44.7763 23.2729 44.7919 23.1953 44.7922C23.1177 44.7908 23.0411 44.7741 22.9699 44.743C22.8988 44.7119 22.8345 44.667 22.7807 44.611C22.7269 44.555 22.6848 44.4889 22.6566 44.4165C22.6284 44.3441 22.6148 44.2669 22.6166 44.1893C22.624 44.0382 22.6892 43.8958 22.7987 43.7914Z" fill="#1AA3FF"/>
</g>
</svg>
