<svg width="60" height="60" viewBox="0 0 60 60" fill="none" xmlns="http://www.w3.org/2000/svg">
<g id="Group 1000003792">
<path id="Vector" d="M30 60C46.5685 60 60 46.5685 60 30C60 13.4315 46.5685 0 30 0C13.4315 0 0 13.4315 0 30C0 46.5685 13.4315 60 30 60Z" fill="#F1F8FF"/>
<path id="Union" fill-rule="evenodd" clip-rule="evenodd" d="M44.683 42.1608C44.9827 42.1738 45.1509 42.3248 45.155 42.6133C45.1641 43.2514 45.1639 43.891 45.1544 44.5321C45.1509 44.8189 44.9804 44.9758 44.6901 44.9959H44.5426C34.9031 44.9939 25.2637 44.9953 15.6242 45C15.354 45 15.1457 44.9363 15 44.705V42.4629C15.1513 42.1502 15.4129 42.152 15.6926 42.1539C15.7871 42.1545 15.8837 42.1552 15.9789 42.1437V40.881C15.98 40.3111 16.0827 40.2043 16.6432 40.2043C17.045 40.2025 17.4474 40.1978 17.8492 40.1925C17.8598 40.1921 17.8701 40.1855 17.8879 40.174C17.8992 40.1668 17.9133 40.1577 17.9324 40.147V38.908C17.9366 38.3658 18.0422 38.2537 18.5856 38.2477H18.8735V28.5778H18.5006C18.0723 28.5707 17.933 28.4374 17.933 28.0143V26.6254H16.5901C16.1087 26.6237 15.98 26.4974 15.98 26.0148C15.9765 25.4641 15.9765 24.9134 15.98 24.3627C15.9824 23.9385 16.1311 23.7609 16.5406 23.7974C17.0621 23.8435 17.4681 23.66 17.8882 23.3649C21.7886 20.6563 25.6907 17.9503 29.5943 15.2468C30.071 14.9164 30.0899 14.9164 30.579 15.255C34.5822 18.0227 38.5821 20.7944 42.579 23.5703C42.8091 23.7325 43.0333 23.821 43.3112 23.7915C43.4486 23.7803 43.5868 23.7803 43.7242 23.7915C44.0021 23.8075 44.1679 23.9573 44.1726 24.2346C44.1844 24.8849 44.1844 25.5339 44.1726 26.1817C44.1685 26.4738 44.0015 26.6166 43.6965 26.6237C43.3779 26.6313 43.0575 26.6343 42.7364 26.6373C42.5859 26.6387 42.4352 26.6401 42.2845 26.6419C42.2797 26.6419 42.2753 26.646 42.2637 26.6565C42.2555 26.664 42.2437 26.6748 42.2255 26.6897V27.9459C42.2244 28.4545 42.1075 28.5743 41.609 28.579H41.2768V38.2519C41.3299 38.2519 41.3824 38.2509 41.4346 38.2499C41.5375 38.2479 41.6389 38.246 41.7399 38.2519C42.0733 38.2719 42.2196 38.4194 42.2238 38.7528C42.2269 39.0628 42.2259 39.3727 42.2249 39.6956C42.2243 39.8619 42.2238 40.0317 42.2238 40.2066H43.5047C44.0723 40.2078 44.1779 40.3111 44.1779 40.8745V42.1608C44.2463 42.1608 44.3098 42.16 44.3701 42.1592C44.4819 42.1578 44.5826 42.1566 44.683 42.1608ZM41.3269 40.1907V39.1511H37.3738V40.1907H41.3269ZM32.9639 40.1889H36.4675C36.4675 40.0179 36.4665 39.8516 36.4655 39.6884C36.4638 39.3956 36.4621 39.1129 36.4663 38.8307C36.4728 38.3911 36.6109 38.2566 37.0563 38.2477H37.4192V28.5902C37.393 28.5885 37.37 28.5865 37.349 28.5847C37.3127 28.5816 37.2823 28.579 37.2516 28.579C36.5176 28.5613 36.4675 28.5112 36.4675 27.7825V26.6437H32.9633C32.9633 26.8008 32.9637 26.9559 32.964 27.1097C32.9646 27.4133 32.9653 27.7118 32.9633 28.0102C32.961 28.4244 32.8135 28.5684 32.3945 28.5784C32.3026 28.5805 32.211 28.5853 32.1214 28.5901C32.0816 28.5922 32.0422 28.5943 32.0033 28.5961V38.2477H32.3432C32.8317 38.2542 32.9639 38.3899 32.9639 38.8867V40.1889ZM23.6928 40.186H27.197C27.197 40.0589 27.1967 39.9332 27.1964 39.8084C27.1955 39.4533 27.1946 39.1059 27.2011 38.7575C27.2059 38.4271 27.3587 38.2713 27.6838 38.2501C27.7856 38.2446 27.888 38.2464 27.9937 38.2482C28.0477 38.2492 28.1026 38.2501 28.1587 38.2501V28.5772H27.8183C27.3286 28.5725 27.1999 28.4409 27.1999 27.9406V26.6425H23.7188C23.7156 26.6725 23.7118 26.7009 23.7081 26.7282C23.7008 26.7821 23.694 26.832 23.694 26.8821C23.694 27.009 23.6947 27.1362 23.6953 27.2636C23.6966 27.5188 23.698 27.7748 23.694 28.0303C23.6875 28.4333 23.5436 28.5707 23.1359 28.579H22.7417V38.2513C22.7991 38.2513 22.8544 38.2502 22.9081 38.2492C23.0112 38.2473 23.1085 38.2455 23.2043 38.2513C23.5365 38.2714 23.6781 38.4165 23.6928 38.7528C23.6968 38.8771 23.6955 39.0014 23.6942 39.1257C23.6935 39.1879 23.6928 39.25 23.6928 39.3122V40.186ZM28.0962 26.649V27.6715H32.0641V26.649H28.0962ZM31.0823 38.2241V28.5961H29.0904V38.2241H31.0823ZM32.073 39.1576H28.098V40.1789H32.073V39.1576ZM38.3432 28.6014V38.2289H40.354V28.6014H38.3432ZM37.3696 27.6774H41.3228V26.649H37.3696V27.6774ZM16.8893 24.676V25.7186L43.2776 25.7197V24.6772H26.571C26.1102 24.6772 25.906 24.5462 25.8989 24.247C25.8919 23.9373 26.1066 23.7939 26.5787 23.7939H41.3293C41.2822 23.7585 41.2426 23.7284 41.2078 23.7019C41.1393 23.6497 41.0895 23.6118 41.0378 23.5762C37.4709 21.1118 33.9074 18.642 30.3471 16.1666C30.146 16.025 30.0156 16.028 29.8161 16.1666C27.3663 17.8675 24.9154 19.5666 22.4632 21.2639C21.2785 22.0852 20.0939 22.9065 18.9095 23.7278C18.9154 23.7496 18.9213 23.7709 18.9278 23.7927H24.3354C24.4235 23.7891 24.5118 23.7904 24.5997 23.7968C24.8487 23.8263 25.0287 24.0216 25.0086 24.2523C24.9874 24.499 24.8446 24.6453 24.5956 24.6713C24.4974 24.6782 24.3989 24.6797 24.3006 24.676H16.8893ZM18.831 26.6455V27.681H22.7901V26.6455H18.831ZM21.8207 38.233V28.6056H19.8046V38.233H21.8207ZM22.7995 39.1517H18.8428V40.1777H22.7995V39.1517ZM43.2746 41.1111H16.881L16.8804 42.1401H43.2746V41.1111ZM15.9098 44.0925H44.2617V43.0641H15.9098V44.0925ZM31.0771 22.3108C30.8138 22.5729 30.4583 22.7215 30.0868 22.7248C29.9002 22.7252 29.7153 22.6889 29.5427 22.6178C29.3701 22.5468 29.2132 22.4424 29.0809 22.3107C28.9487 22.1789 28.8437 22.0224 28.772 21.8501C28.7003 21.6778 28.6633 21.493 28.6631 21.3063C28.6626 21.1197 28.6993 20.9348 28.7709 20.7624C28.8425 20.59 28.9477 20.4336 29.0804 20.3023C29.2131 20.1709 29.3705 20.0673 29.5436 19.9974C29.7167 19.9274 29.9019 19.8927 30.0886 19.895C30.275 19.8951 30.4596 19.9323 30.6315 20.0043C30.8035 20.0764 30.9594 20.1818 31.0902 20.3146C31.2211 20.4474 31.3243 20.6048 31.3938 20.7778C31.4633 20.9508 31.4978 21.1359 31.4952 21.3223C31.4904 21.6938 31.3403 22.0486 31.0771 22.3108ZM30.4539 20.9324C30.3565 20.8348 30.2247 20.7792 30.0868 20.7777L30.0886 20.7794C30.0179 20.7775 29.9475 20.7899 29.8817 20.8159C29.8159 20.8418 29.7559 20.8807 29.7055 20.9304C29.6551 20.98 29.6153 21.0393 29.5883 21.1047C29.5614 21.1701 29.5479 21.2403 29.5487 21.3111C29.5511 21.4489 29.6065 21.5806 29.7034 21.6787C29.8003 21.7769 29.9313 21.8339 30.0691 21.838C30.1399 21.8383 30.21 21.8246 30.2755 21.7976C30.341 21.7707 30.4004 21.7311 30.4505 21.6811C30.5006 21.6311 30.5403 21.5716 30.5673 21.5062C30.5943 21.4408 30.608 21.3706 30.6078 21.2998C30.6066 21.1619 30.5513 21.03 30.4539 20.9324Z" fill="#1AA3FF"/>
</g>
</svg>
