<svg width="527" height="280" viewBox="0 0 527 280" fill="none" xmlns="http://www.w3.org/2000/svg">
<path d="M0 20C0 8.95431 8.95431 0 20 0H507C518.046 0 527 8.95431 527 20V280H0V20Z" fill="#FEE8EA"/>
<path d="M346.52 239.936C346.52 239.936 398.96 233.087 397.987 199.883C397.013 166.68 330.058 151.145 328.391 126.804C326.724 102.463 398.766 87.2933 366.984 51.5344C335.203 15.7755 197.362 53.3216 172.171 85.502C146.98 117.682 217.546 125.252 210.913 154.943C204.28 184.633 108.736 189.765 135.823 243L346.52 239.936Z" fill="#FFD4D9"/>
<path d="M263.838 256.191C339.411 256.191 400.675 252.749 400.675 248.505C400.675 244.26 339.411 240.818 263.838 240.818C188.264 240.818 127 244.26 127 248.505C127 252.749 188.264 256.191 263.838 256.191Z" fill="#E5C6C9"/>
<path d="M308.242 48.3661C308.242 48.3661 309.262 50.1237 309.267 50.6506C309.272 51.1774 308.824 53.2751 308.824 53.2751L306.804 49.4637L308.242 48.3661Z" fill="#FF9A87"/>
<path d="M303.077 49.2291C303.443 48.3551 305.189 50.5795 305.189 50.5795C305.189 50.5795 307.517 50.0074 308.832 50.9473C308.812 51.48 308.807 51.9855 308.829 52.4218L309.626 54.9009L307.205 55.7044C307.205 55.7044 302.711 50.1031 303.077 49.2291Z" fill="#FF9A87"/>
<path d="M288.458 97.4616L302.916 78.5239C303.721 69.2308 303.589 56.6371 306.567 55.0055L309.411 54.2279C312.985 55.0812 316.036 81.4683 314.419 83.7716C312.892 85.9461 300.125 112.607 300.125 112.607L288.458 97.4616Z" fill="#FFBC5E"/>
<path d="M309.184 53.1184L305.895 54.0963L306.217 55.18L309.506 54.2021L309.184 53.1184Z" fill="white"/>
<path d="M297.49 43.4438L308.747 53.7163L310.64 51.6415L299.383 41.369L297.49 43.4438Z" fill="#F07165"/>
<path d="M301.461 45.8592L302.747 44.45L299.383 41.3801L297.489 43.4545L308.746 53.7262L309.353 53.0611L301.461 45.8592Z" fill="#E04D46"/>
<path d="M303.792 47.9215L306.196 46.1942C306.196 46.1942 306.522 46.4431 306.566 47.0281C306.61 47.6125 303.841 48.8239 303.792 47.9215Z" fill="#FF9A87"/>
<path d="M304.774 48.5312L307.178 46.804C307.178 46.804 307.504 47.0528 307.548 47.6378C307.592 48.2222 304.823 49.4336 304.774 48.5312Z" fill="#F98478"/>
<path d="M305.491 48.9512L307.689 47.829C307.689 47.829 307.927 48.0753 307.889 48.5627C307.852 49.0501 305.418 49.701 305.491 48.9512Z" fill="#FC9081"/>
<path d="M306.568 49.222L308.243 48.3661C308.243 48.3661 308.424 48.5536 308.396 48.9253C308.368 49.2976 306.512 49.794 306.568 49.222Z" fill="#FF9A87"/>
<path d="M299.231 23.9998L280.149 44.786L291.122 54.8586L310.204 34.0724L299.231 23.9998Z" fill="#EF5750"/>
<path d="M308.037 78.9223C308.037 78.9223 306.49 60.3705 307.574 54.7297L306.567 55.0051C303.589 56.6367 303.72 69.2304 302.916 78.5234L289.621 95.9388C291.771 99.4489 293.909 102.865 293.909 102.865C293.909 102.865 292.439 98.5187 296.628 95.4165C300.817 92.315 298.834 89.5146 300.834 86.2605C302.834 83.0064 308.037 78.9223 308.037 78.9223Z" fill="#F2A446"/>
<path d="M291.178 74.6868C291.178 74.6868 294.611 71.7197 291.528 69.1599C288.443 66.6 280.074 67.0073 276.608 71.1379C273.143 75.2686 274.481 79.5111 274.481 79.5111L275.179 78.9222L279.178 84.5578L282.517 84.2287L291.178 74.6868Z" fill="#343456"/>
<path d="M280.928 82.733C280.928 82.733 278.205 79.8648 278.437 77.9721C278.669 76.0787 279.426 74.3385 279.426 74.3385L278.553 74.6294L279.177 73.6404C277.591 74.0476 276.608 75.815 276.608 75.815V74.6294C274.605 76.1421 274.48 79.5119 274.48 79.5119L275.179 78.923L278.873 84.13L280.928 82.733Z" fill="#282844"/>
<path d="M275.828 140.295L272.796 142.958C272.796 142.958 271.358 151.119 270.133 154.11C268.987 156.909 257.792 228.051 261.728 228.841H274.263C281.128 225.467 281.58 178.885 287.609 163.598C288.141 171.206 284.33 229.358 294.825 229.358L305.107 228.841C312.048 225.195 303.594 175.821 300.211 141.506L275.828 140.295Z" fill="#39375C"/>
<path d="M274.263 228.841H261.728L263.078 242.416C263.078 242.416 258.773 243.929 259.122 247.768C259.122 247.768 259.937 249.863 265.751 248.878C268.526 248.408 269.342 246.811 270.855 246.578L270.525 243.463L274.263 228.841Z" fill="#272747"/>
<path d="M305.106 228.841V242.649L309.155 244.743C309.155 244.743 314.042 243.696 314.507 246.954H296.821L294.824 229.358L305.106 228.841Z" fill="#272747"/>
<path d="M298.49 217.515C293.681 218.601 292.554 166.616 287.61 163.598C288.142 171.205 284.33 229.357 294.826 229.357L299.268 229.134C298.199 228.282 297.426 227.075 297.87 225.428C298.956 221.394 303.3 216.43 298.49 217.515Z" fill="#24243F"/>
<path d="M270.134 154.11C268.988 156.908 257.793 228.051 261.729 228.841H265.973C265.534 227.898 265.235 226.774 265.135 225.428C264.359 215.033 270.765 187.041 269.013 178.575C267.262 170.108 275.829 140.294 275.829 140.294L272.796 142.958C272.796 142.958 271.358 151.12 270.134 154.11Z" fill="#24243F"/>
<path d="M287.61 158.381C287.717 158.381 287.825 158.353 287.923 158.291C290.536 156.672 288.61 144.882 288.197 142.536C288.139 142.211 287.831 141.997 287.506 142.052C287.182 142.108 286.965 142.417 287.022 142.742C288.144 149.119 288.567 156.49 287.296 157.278C287.016 157.451 286.929 157.819 287.103 158.098C287.215 158.281 287.41 158.381 287.61 158.381Z" fill="#15263F"/>
<path d="M271.041 152.787C271.068 152.787 271.096 152.785 271.125 152.781C271.488 152.73 280.017 151.454 279.901 145.523C279.895 145.198 279.629 144.939 279.305 144.939C279.302 144.939 279.298 144.939 279.294 144.939C278.965 144.946 278.703 145.218 278.709 145.547C278.806 150.433 271.037 151.589 270.959 151.6C270.633 151.646 270.405 151.948 270.451 152.273C270.493 152.572 270.749 152.787 271.041 152.787Z" fill="#15263F"/>
<path d="M299.04 152.786C299.024 152.786 299.009 152.784 298.992 152.78C298.789 152.729 294.012 151.454 294.076 145.523C294.08 145.197 294.229 144.938 294.411 144.938C294.412 144.938 294.415 144.938 294.417 144.938C294.601 144.945 294.748 145.217 294.745 145.546C294.691 150.433 299.042 151.588 299.086 151.6C299.269 151.646 299.396 151.948 299.37 152.273C299.347 152.572 299.204 152.786 299.04 152.786Z" fill="#15263F"/>
<path d="M288.342 93.2172V82.5272H281.522V93.1202L279.821 93.8811L291.847 101.253L290.337 94.4894L288.342 93.2172Z" fill="#EF9478"/>
<path d="M290.332 96.6189L288.355 99.1121L291.847 101.252L290.337 94.4895L288.342 93.2167V82.5267H281.522V90.6155C284.131 93.6989 286.507 95.7688 290.332 96.6189Z" fill="#C66547"/>
<path d="M288.342 89.3414V82.5267H281.522V88.3763C283.067 89.5696 285.619 90.8521 288.342 89.3414Z" fill="#C66547"/>
<path d="M281.025 86.4329C281.025 86.4329 285.572 90.0846 290.602 88.3438C295.633 86.6023 294.085 80.9913 291.473 74.026C291.473 74.026 289.653 71.9943 287.08 71.4138C287.08 71.4138 284.12 76.1541 280.251 76.3473C280.251 76.3473 281.508 80.8943 280.928 82.7321C280.928 82.7321 277.349 79.4431 276.672 82.8291C275.994 86.2151 281.025 86.4329 281.025 86.4329Z" fill="#F5A486"/>
<path d="M285.94 80.6417C286.371 80.6417 286.721 80.2923 286.721 79.8614C286.721 79.4305 286.371 79.0812 285.94 79.0812C285.509 79.0812 285.16 79.4305 285.16 79.8614C285.16 80.2923 285.509 80.6417 285.94 80.6417Z" fill="#050038"/>
<path d="M285.94 80.6419C286.371 80.6419 286.721 80.2926 286.721 79.8617C286.721 79.4307 286.371 79.0814 285.94 79.0814C285.509 79.0814 285.16 79.4307 285.16 79.8617C285.16 80.2926 285.509 80.6419 285.94 80.6419Z" fill="#343456"/>
<path d="M286.461 79.7716C286.461 79.9151 286.344 80.0314 286.201 80.0314C286.057 80.0314 285.941 79.9151 285.941 79.7716C285.941 79.6281 286.057 79.5117 286.201 79.5117C286.344 79.5117 286.461 79.6281 286.461 79.7716Z" fill="#3C3B7A"/>
<path d="M286.02 79.8784C286.02 80.0717 285.863 80.2281 285.67 80.2281C285.477 80.2281 285.32 80.0717 285.32 79.8784C285.32 79.6851 285.477 79.5287 285.67 79.5287C285.863 79.5287 286.02 79.6851 286.02 79.8784Z" fill="white"/>
<path d="M292.23 78.7523C292.23 79.1835 291.881 79.5325 291.45 79.5325C291.019 79.5325 290.669 79.1835 290.669 78.7523C290.669 78.3211 291.019 77.972 291.45 77.972C291.88 77.972 292.23 78.3211 292.23 78.7523Z" fill="#343456"/>
<path d="M291.71 78.923C291.853 78.923 291.969 78.8067 291.969 78.6632C291.969 78.5197 291.853 78.4033 291.71 78.4033C291.566 78.4033 291.45 78.5197 291.45 78.6632C291.45 78.8067 291.566 78.923 291.71 78.923Z" fill="#3C3B7A"/>
<path d="M291.528 78.7692C291.528 78.9624 291.371 79.1189 291.178 79.1189C290.985 79.1189 290.828 78.9624 290.828 78.7692C290.828 78.5759 290.985 78.4194 291.178 78.4194C291.371 78.4201 291.528 78.5765 291.528 78.7692Z" fill="white"/>
<path d="M289.783 79.564L291.716 81.4813L290.541 82.6183L291.136 81.4089L289.783 79.564Z" fill="#C66547"/>
<path d="M278.071 83.7083C278.071 83.0192 278.542 82.4451 279.178 82.2764C279.056 82.2441 278.93 82.2208 278.797 82.2208C277.975 82.2208 277.31 82.8866 277.31 83.7083C277.31 84.5299 277.975 85.1957 278.797 85.1957C278.93 85.1957 279.056 85.1731 279.178 85.1401C278.542 84.9714 278.071 84.3973 278.071 83.7083Z" fill="#C66547"/>
<path d="M287.18 76.3229C287.18 76.3229 284.694 75.2453 282.518 78.1142L282.96 78.8479C282.96 78.8479 284.587 76.3229 287.18 77.0993V76.3229Z" fill="#343456"/>
<path d="M289.089 75.9726C289.089 75.9726 290.34 74.4379 292.716 75.5672L292.676 76.1917C292.676 76.1917 290.771 75.1005 289.351 76.4761L289.089 75.9726Z" fill="#343456"/>
<path d="M290.338 94.4894C290.338 94.4894 286.792 98.2897 279.822 93.8811C279.822 93.8811 268.856 96.3517 268.19 97.4617C267.525 98.5716 272.663 143.623 272.663 143.623H300.875C300.875 143.623 299.476 102.792 299.032 101.252C298.589 99.7132 290.338 94.4894 290.338 94.4894Z" fill="#4E6FD8"/>
<path d="M288.409 84.0858C288.409 84.0858 289.976 83.5945 290.897 84.2087C290.897 84.2087 291.142 86.6657 289.546 86.7271C287.948 86.7879 288.409 84.0858 288.409 84.0858Z" fill="#343456"/>
<path d="M288.367 84.4679C288.385 84.239 288.41 84.0858 288.41 84.0858C288.41 84.0858 289.976 83.5945 290.897 84.2087C290.897 84.2087 290.901 84.2461 290.905 84.3095C290.146 84.6695 288.963 84.5584 288.367 84.4679Z" fill="white"/>
<path d="M290.567 86.1135C290.364 86.4535 290.045 86.7069 289.545 86.7263C288.905 86.7509 288.599 86.3307 288.458 85.82C289.132 85.7153 290.038 85.9474 290.567 86.1135Z" fill="#F07165"/>
<path d="M279.902 92.6252C279.902 92.6252 290.18 120.301 285.259 144.939L271.478 144.549C271.478 144.549 267.249 139.479 268.131 130.791C269.013 122.103 267.541 100.567 267.726 98.1315C267.911 95.6964 279.902 92.6252 279.902 92.6252Z" fill="#FFBC5E"/>
<path d="M277.159 131.876C275.842 127.067 276.304 121.637 279.549 119.775C282.793 117.913 277.309 109.846 277.309 109.846C277.309 109.846 271.87 108.971 268.047 108.359C268.343 115.797 268.663 125.544 268.13 130.79C267.248 139.478 271.477 144.548 271.477 144.548L285.258 144.938C285.456 143.948 285.626 142.953 285.776 141.956C282.371 140.344 278.205 135.699 277.159 131.876Z" fill="#F2A446"/>
<path d="M285.258 144.939V147.876L270.445 146.999L271.478 144.549L285.258 144.939Z" fill="#F2F1F0"/>
<path d="M288.342 93.2173C288.342 93.2173 296.123 130.83 294.409 144.939L305.431 144.327C305.431 144.327 311.512 96.3298 288.342 93.2173Z" fill="#FFBC5E"/>
<path d="M305.432 144.326L294.411 144.938L294.669 147.65L305.839 146.538L305.432 144.326Z" fill="white"/>
<path d="M279.901 92.6252L281.521 90.9186C281.521 90.9186 284.967 96.6162 282.167 99.9149C282.167 99.9149 279.932 94.0214 279.901 92.6252Z" fill="white"/>
<path d="M288.342 93.2173V91.3846C288.342 91.3846 291.796 95.1203 289.602 99.697L288.342 93.2173Z" fill="white"/>
<path d="M294.417 88.0485C294.417 88.0485 295.309 86.6509 294.262 85.3135C294.262 85.3135 295.017 83.4046 293.864 82.5267C293.864 82.5267 293.409 82.9288 293.331 83.3166C293.331 83.3166 292.174 81.8803 290.542 82.6179C290.542 82.6179 288.367 81.9979 286.932 83.5494C286.932 83.5494 284.597 83.4718 284.504 84.7129C284.504 84.7129 283.783 83.3962 282.818 83.8997C282.818 83.8997 282.982 81.4692 281.065 80.9106L280.929 82.7329C280.929 82.7329 279.569 84.5416 280.929 86.7278C280.929 86.7278 280.184 88.0485 281.852 89.0181C281.852 89.0181 282.509 91.5392 285.671 91.3841C285.671 91.3841 285.537 93.3233 288.096 93.7112C288.096 93.7112 289.988 95.167 291.718 94.0512C293.449 92.9355 293.177 91.6556 293.177 91.6556C293.177 91.6556 294.152 91.2567 294.612 90.0279C295.071 88.7996 294.417 88.0485 294.417 88.0485ZM288.987 87.3116C286.97 86.7686 286.544 84.1292 286.544 84.1292C288.613 84.5365 290.415 83.4194 290.415 83.4194C290.789 84.3503 292.47 84.5578 292.47 84.5578C292.47 84.5578 291.004 87.8546 288.987 87.3116Z" fill="#343456"/>
<path d="M294.417 88.0484C294.417 88.0484 295.252 86.7323 294.345 85.4317C294.244 85.8661 294.068 86.1512 294.068 86.1512C294.068 86.1512 294.706 86.9023 294.258 88.1305C293.809 89.3594 292.858 89.7582 292.858 89.7582C292.858 89.7582 293.123 91.0382 291.435 92.1539C289.747 93.2696 287.903 91.8139 287.903 91.8139C285.407 91.426 285.538 89.4867 285.538 89.4867C282.454 89.6419 281.813 87.1208 281.813 87.1208C280.187 86.1512 280.913 84.8299 280.913 84.8299C280.691 84.4634 280.548 84.1091 280.456 83.7704C280.253 84.5047 280.202 85.5603 280.928 86.7271C280.928 86.7271 280.183 88.0478 281.851 89.0174C281.851 89.0174 282.507 91.5385 285.67 91.3834C285.67 91.3834 285.535 93.3226 288.095 93.7105C288.095 93.7105 289.987 95.1663 291.717 94.0505C293.448 92.9348 293.176 91.6549 293.176 91.6549C293.176 91.6549 294.151 91.256 294.611 90.0272C295.071 88.7996 294.417 88.0484 294.417 88.0484Z" fill="#282844"/>
<path d="M300.351 241.407C301.902 238.77 297.325 236.598 297.636 233.495C297.795 231.898 298.605 230.304 299.352 229.13L294.824 229.357L296.821 246.954H314.507C314.463 246.64 314.366 246.378 314.248 246.139H309.194C309.194 246.139 298.799 244.044 300.351 241.407Z" fill="#24243F"/>
<path d="M265.754 246.216C265.754 246.216 262.962 245.053 263.582 244.432C264.203 243.811 267.616 243.501 267.616 243.501C267.616 243.501 264.668 237.761 265.444 234.27C265.853 232.427 267.45 230.374 268.868 228.84H261.727L263.077 242.415C263.077 242.415 258.772 243.928 259.121 247.768C259.121 247.768 259.197 247.952 259.448 248.185C260.954 245.223 265.754 246.216 265.754 246.216Z" fill="#24243F"/>
<path d="M254.104 92.2021L255.388 89.7418C255.658 89.3655 256.05 89.0805 256.389 89.3067L255.297 92.9519L256.641 89.8807C256.924 89.4328 257.291 89.6222 257.417 89.6648L256.255 92.9959L257.438 90.8413C257.438 90.8413 257.734 90.3791 258.15 90.5873C258.147 91.3876 255.856 95.036 255.003 97.2856L254.705 100.169L251.878 99.903C251.878 99.903 249.809 92.182 250.573 91.4554C251.337 90.7289 252.119 93.7774 252.119 93.7774C252.119 93.7774 252.483 91.4205 253.566 89.9945C253.842 89.6312 254.25 89.4438 254.705 89.3862L254.104 92.2021Z" fill="#FF9A87"/>
<path d="M252.503 97.2203C252.503 97.2203 253.112 94.9132 252.12 93.7787C252.12 93.7787 254.087 95.1174 252.503 97.2203Z" fill="#C66547"/>
<path d="M252.696 93.8181C252.696 93.8181 253.524 95.2855 255.203 94.683C255.203 94.683 253.587 94.8563 252.696 93.8181Z" fill="#C66547"/>
<path d="M256.777 98.225L250.832 98.79L249.548 114.854L231.739 115.505L237.059 125.466C237.059 125.466 254.696 126.453 258.227 123.884C261.757 121.314 256.777 98.225 256.777 98.225Z" fill="#978AF4"/>
<path d="M235.947 117.156C235.274 116.37 234.723 115.803 234.276 115.412L232.634 115.472C232.61 116.048 232.769 116.918 233.038 117.936L237.06 125.465C237.06 125.465 254.697 126.452 258.227 123.883C258.689 123.547 259.003 122.858 259.204 121.918C253.51 122.898 241.746 123.92 235.947 117.156Z" fill="#6159C1"/>
<path d="M233.674 103.834C234.666 102.342 235.246 100.551 235.246 98.625C235.246 93.4265 231.032 89.2124 225.834 89.2124C220.815 89.2124 215.575 92.6617 215.298 97.6108C215.298 97.6108 215.207 101.114 218.195 105.772C220.812 110.605 215.252 109.022 211.817 110.605C208.382 112.186 204.676 119.509 212.992 123.847C221.309 128.186 230.953 123.847 232.594 118.152C234.235 112.457 229.354 112.234 229.986 110.04C230.619 107.848 234.55 107.625 233.674 103.834Z" fill="#343456"/>
<path d="M232.763 107.204C230.268 105.193 227.54 103.546 225.903 104.03L221.135 104.838C221.135 104.838 224.439 109.605 218.218 111.594C211.997 113.582 209.843 114.157 210.364 118.326C210.657 120.671 212.404 122.83 213.875 124.269C215.647 125.058 217.463 125.472 219.236 125.58C221.035 125.31 223.359 124.964 225.622 124.642C229.119 123.353 231.799 120.914 232.595 118.152C234.236 112.457 229.355 112.233 229.988 110.04C230.346 108.798 231.761 108.188 232.763 107.204Z" fill="#242442"/>
<path d="M237.674 241.271C237.674 244.235 231.557 244.235 231.557 241.271V222.867H237.674V241.271Z" fill="#F5A486"/>
<path d="M231.558 241.271C231.558 241.271 233.183 241.918 234.106 242.778C235.028 243.638 237.675 241.271 237.675 241.271C237.675 241.271 240.207 244.42 242.554 244.606C244.9 244.791 245.456 246.273 245.456 246.273H230.696L231.558 241.271Z" fill="#343456"/>
<path d="M237.674 231.084V222.867H231.557V236.004C232.813 233.911 234.737 231.969 237.674 231.084Z" fill="#C66547"/>
<path d="M208.808 241.115C208.586 244.071 214.686 244.528 214.907 241.572L216.282 223.22L210.183 222.763L208.808 241.115Z" fill="#F5A486"/>
<path d="M214.9 241.549C214.9 241.549 213.233 242.078 212.252 242.87C211.271 243.662 208.799 241.112 208.799 241.112C208.799 241.112 205.911 244.85 203.557 244.867C201.203 244.884 200.32 246.65 200.32 246.65L215.402 246.599L214.9 241.549Z" fill="#343456"/>
<path d="M209.57 230.957L210.184 222.762L216.284 223.219L215.302 236.32C214.206 234.138 212.433 232.059 209.57 230.957Z" fill="#C66547"/>
<path d="M209.575 165.001L201.793 230.958C201.793 230.958 213.65 233.551 221.432 230.958L228.086 180.379L225.323 229.291C225.323 229.291 235.513 231.884 244.221 228.364C244.221 228.364 243.109 161.296 241.998 156.849C240.886 152.403 239.959 150.736 239.959 150.736L214.206 149.068L209.575 165.001Z" fill="#4381AA"/>
<path d="M239.96 150.735L214.207 149.068L209.576 165.001L205.631 198.431C214.471 174.056 224.802 170.373 224.802 170.373C224.802 170.373 235.795 159.25 241.253 154.158C240.502 151.714 239.96 150.735 239.96 150.735Z" fill="#2D6584"/>
<path d="M222.798 112.959C222.798 112.959 216.575 112.747 213.56 116.091C210.652 120.91 216.869 129.805 221.42 138.354L214.206 149.067C223.676 150.486 232.499 151.274 239.959 150.734C239.959 150.734 238.218 132.969 239.295 131.031C240.372 129.093 242.31 127.154 239.295 122.847C236.28 118.54 238.951 115.559 233.308 113.712C233.308 113.712 225.718 112.205 222.798 112.959Z" fill="#978AF4"/>
<path d="M230.39 113.067V101.168H222.799V112.959L220.905 113.806L234.291 122.011L232.611 114.483L230.39 113.067Z" fill="#EF9478"/>
<path d="M230.39 110.505V101.168H222.798V107.679C224.518 109.007 227.358 112.186 230.39 110.505Z" fill="#C66547"/>
<path d="M223.175 106.495C223.175 106.495 227.424 109.908 232.124 108.281C236.825 106.654 235.379 101.411 232.938 94.9023C232.938 94.9023 231.237 93.0038 228.833 92.4614C228.833 92.4614 226.067 96.8907 222.452 97.0717C222.452 97.0717 223.047 101.213 222.505 102.931C222.505 102.931 219.74 99.9645 219.107 103.128C218.475 106.292 223.175 106.495 223.175 106.495Z" fill="#F5A486"/>
<path d="M228.499 100.354C228.499 100.757 228.173 101.083 227.77 101.083C227.367 101.083 227.041 100.757 227.041 100.354C227.041 99.9514 227.367 99.625 227.77 99.625C228.173 99.625 228.499 99.9514 228.499 100.354Z" fill="#343456"/>
<path d="M228.257 100.27C228.257 100.405 228.148 100.513 228.014 100.513C227.879 100.513 227.771 100.405 227.771 100.27C227.771 100.136 227.879 100.027 228.014 100.027C228.147 100.028 228.257 100.136 228.257 100.27Z" fill="#3C3B7A"/>
<path d="M227.845 100.37C227.845 100.551 227.699 100.697 227.518 100.697C227.338 100.697 227.192 100.551 227.192 100.37C227.192 100.19 227.338 100.044 227.518 100.044C227.699 100.044 227.845 100.19 227.845 100.37Z" fill="white"/>
<path d="M232.934 100.077C233.337 100.077 233.663 99.7505 233.663 99.3478C233.663 98.9451 233.337 98.6187 232.934 98.6187C232.532 98.6187 232.205 98.9451 232.205 99.3478C232.205 99.7505 232.532 100.077 232.934 100.077Z" fill="#343456"/>
<path d="M233.421 99.2638C233.421 99.3983 233.312 99.5069 233.178 99.5069C233.044 99.5069 232.935 99.3983 232.935 99.2638C232.935 99.1294 233.043 99.0208 233.178 99.0208C233.312 99.0214 233.421 99.13 233.421 99.2638Z" fill="#3C3B7A"/>
<path d="M233.008 99.3634C233.008 99.5438 232.862 99.6899 232.682 99.6899C232.502 99.6899 232.355 99.5438 232.355 99.3634C232.355 99.1831 232.502 99.037 232.682 99.037C232.862 99.037 233.008 99.1831 233.008 99.3634Z" fill="white"/>
<path d="M231.36 100.077L233.167 101.868L232.068 102.93L232.624 101.8L231.36 100.077Z" fill="#C66547"/>
<path d="M227.517 101.893C227.517 102.108 226.95 102.282 226.251 102.282C225.551 102.282 224.984 102.107 224.984 101.893C224.984 101.677 225.551 101.504 226.251 101.504C226.95 101.504 227.517 101.678 227.517 101.893Z" fill="#F07165"/>
<path d="M234.679 100.626C234.679 100.803 234.34 100.946 233.923 100.946C233.506 100.946 233.167 100.803 233.167 100.626C233.167 100.45 233.506 100.307 233.923 100.307C234.341 100.307 234.679 100.451 234.679 100.626Z" fill="#F07165"/>
<path d="M220.417 103.949C220.417 103.305 220.857 102.769 221.451 102.611C221.336 102.581 221.219 102.559 221.094 102.559C220.327 102.559 219.705 103.182 219.705 103.949C219.705 104.716 220.327 105.339 221.094 105.339C221.219 105.339 221.336 105.318 221.451 105.287C220.857 105.129 220.417 104.593 220.417 103.949Z" fill="#C66547"/>
<path d="M225.324 229.29C225.324 229.29 227.896 229.944 231.559 230.149C228.099 217.825 228.087 180.378 228.087 180.378L225.324 229.29Z" fill="#2D6584"/>
<path d="M228.836 96.3565C228.836 96.3565 226.036 95.4994 224.779 98.2991C224.779 98.2991 226.236 96.1568 228.836 96.928V96.3565Z" fill="#343456"/>
<path d="M231.639 96.3465C231.639 96.3465 233.102 95.0239 234.695 97.1474C234.695 97.1474 233.172 95.627 231.807 96.8346L231.639 96.3465Z" fill="#343456"/>
<path d="M232.824 105.339C232.824 106.147 232.405 106.802 231.887 106.802C231.369 106.802 230.95 106.147 230.95 105.339C230.95 104.531 231.369 103.876 231.887 103.876C232.405 103.876 232.824 104.531 232.824 105.339Z" fill="#262644"/>
<path d="M232.441 104.165C232.285 103.986 232.095 103.876 231.886 103.876C231.568 103.876 231.288 104.124 231.119 104.502C231.566 104.482 232.075 104.313 232.441 104.165Z" fill="white"/>
<path d="M230.952 105.38C230.966 106.168 231.378 106.802 231.887 106.802C232.193 106.802 232.461 106.571 232.632 106.218C232.217 105.655 231.429 105.452 230.952 105.38Z" fill="#F07165"/>
<path d="M215.402 246.6L214.9 241.549C214.9 241.549 213.82 241.892 212.887 242.439C213.237 242.97 213.512 243.538 213.571 244.064C213.689 245.126 211.029 246.082 209.151 246.621L215.402 246.6Z" fill="#282844"/>
<path d="M215.236 247.082H200.506C200.261 247.082 200.061 246.881 200.061 246.637V246.608C200.061 246.363 200.261 246.163 200.506 246.163H215.236C215.48 246.163 215.681 246.363 215.681 246.608V246.637C215.681 246.881 215.481 247.082 215.236 247.082Z" fill="white"/>
<path d="M211.517 243.297C211.807 243.319 212.089 243.268 212.349 243.116C213.683 242.338 214.991 241.816 215.004 241.811C215.135 241.758 215.2 241.608 215.148 241.476C215.095 241.344 214.946 241.279 214.814 241.332C214.759 241.354 213.457 241.873 212.09 242.671C211.12 243.237 209.389 241.606 208.803 240.931C208.71 240.823 208.547 240.812 208.44 240.905C208.333 240.998 208.321 241.161 208.414 241.268C208.495 241.361 210.098 243.19 211.517 243.297Z" fill="#52527A"/>
<path d="M232.945 244.835C232.646 244.053 233.234 243.22 233.886 242.588C232.947 241.825 231.558 241.271 231.558 241.271L230.696 246.273H234.66C233.885 245.918 233.177 245.442 232.945 244.835Z" fill="#282844"/>
<path d="M234.811 243.244C234.52 243.244 234.242 243.172 233.994 243.002C232.722 242.126 231.457 241.508 231.445 241.501C231.317 241.439 231.264 241.286 231.326 241.158C231.388 241.03 231.542 240.975 231.67 241.039C231.723 241.064 232.982 241.679 234.286 242.577C235.211 243.214 237.059 241.717 237.694 241.088C237.794 240.988 237.957 240.989 238.058 241.088C238.158 241.189 238.157 241.352 238.057 241.452C237.968 241.54 236.233 243.244 234.811 243.244Z" fill="#52527A"/>
<path d="M245.499 247.082H230.768C230.524 247.082 230.324 246.881 230.324 246.637V246.608C230.324 246.363 230.524 246.163 230.768 246.163H245.499C245.743 246.163 245.943 246.363 245.943 246.608V246.637C245.943 246.881 245.744 247.082 245.499 247.082Z" fill="white"/>
<path d="M239.959 150.735C239.959 150.735 239.873 149.86 239.752 148.481C235.068 147.672 228.145 142.151 227.598 139.403C226.988 136.342 229.487 134.551 226.594 131.827C223.701 129.101 217.329 119.425 217.329 119.425L213.782 123.605C215.389 128.017 218.702 133.247 221.42 138.354L214.206 149.067C223.676 150.486 232.5 151.275 239.959 150.735Z" fill="#6159C1"/>
<path d="M139.573 236.868L142.021 239.267L145.351 238.456C145.351 238.456 145.258 241.307 144.087 243.057L128.893 238.881C128.893 238.881 129.832 236.723 132.293 237.399L139.573 236.868Z" fill="#343456"/>
<path d="M142.184 242.534L144.086 243.057C145.257 241.307 145.351 238.457 145.351 238.457L142.021 239.268L139.573 236.869L138.635 236.937C138.78 238.018 139.167 239.53 140.191 239.963C141.837 240.659 143.446 241.16 142.194 242.519C142.19 242.524 142.189 242.528 142.184 242.534Z" fill="#2C2C4C"/>
<path d="M139.573 236.868C138.71 240.007 144.488 241.595 145.351 238.456L149.408 223.69L143.63 222.103L139.573 236.868Z" fill="#FF9A87"/>
<path d="M139.573 236.869L140.628 233.03C142.059 233.424 144.701 234.149 146.406 234.618L145.351 238.456C144.488 241.595 138.71 240.007 139.573 236.869Z" fill="#F2F2F2"/>
<path d="M140.411 233.876L146.204 235.468C146.345 235.507 146.491 235.424 146.53 235.283L146.709 234.63C146.748 234.489 146.665 234.343 146.523 234.305L140.731 232.712C140.59 232.674 140.444 232.756 140.405 232.898L140.226 233.55C140.187 233.692 140.27 233.837 140.411 233.876Z" fill="#E6E6E6"/>
<path d="M137.122 237.047C137.122 237.047 139.029 234.756 140.102 235.668C141.176 236.58 141.068 238.672 139.244 239.048C137.42 239.424 133.391 237.319 133.391 237.319C133.391 237.319 136.073 236.548 137.122 237.047Z" fill="#272747"/>
<path d="M133.634 239.093C133.5 239.093 133.391 238.983 133.391 238.85V237.334C133.391 237.2 133.501 237.09 133.634 237.09C133.769 237.09 133.878 237.2 133.878 237.334V238.85C133.878 238.983 133.769 239.093 133.634 239.093Z" fill="#F2F2F2"/>
<path d="M134.922 239.236C134.788 239.236 134.679 239.126 134.679 238.992V237.112C134.679 236.978 134.789 236.868 134.922 236.868C135.057 236.868 135.166 236.978 135.166 237.112V238.992C135.166 239.126 135.057 239.236 134.922 239.236Z" fill="#F2F2F2"/>
<path d="M136.007 239.236C135.873 239.236 135.764 239.126 135.764 238.993V236.951C135.764 236.817 135.874 236.707 136.007 236.707C136.141 236.707 136.251 236.817 136.251 236.951V238.993C136.251 239.126 136.141 239.236 136.007 239.236Z" fill="#F2F2F2"/>
<path d="M144.448 242.419L129.273 238.293C129.273 238.293 128.817 238.602 128.781 239.093L144.162 243.448C144.162 243.448 144.589 242.963 144.448 242.419Z" fill="#F2F2F2"/>
<path d="M180.658 137.865L183.69 140.529C183.69 140.529 187.019 148.518 186.353 151.681C185.687 154.843 188.355 235.404 188.355 235.404H171.499C171.499 235.404 169.209 160.17 168.876 161.168C168.543 162.167 154.643 232.741 154.643 232.741L136.252 229.079L159.111 141.194L180.658 137.865Z" fill="#4381AA"/>
<path d="M180.658 137.865L183.69 140.529C183.69 140.529 187.019 148.518 186.353 151.681C185.687 154.843 188.355 235.404 188.355 235.404H171.499C171.499 235.404 169.209 160.17 168.876 161.168C168.543 162.167 154.643 232.741 154.643 232.741L136.252 229.079L157.931 138.994L180.658 137.865Z" fill="#39375C"/>
<path d="M178.79 80.2566C178.79 80.2566 184.442 77.4666 181.938 71.8142C179.434 66.1625 169.06 66.1625 169.06 66.1625C169.06 66.1625 167.414 65.3041 167.772 63.8018C167.772 63.8018 165.054 64.732 165.197 67.5219L163.909 66.3054C163.909 66.3054 161.62 70.6694 164.41 73.5311C167.2 76.3929 174.784 81.9017 174.784 81.9017L178.79 80.2566Z" fill="#343456"/>
<path d="M167.89 65.9758C167.221 66.5285 167.396 67.692 167.396 67.692C166.628 66.0604 167.694 63.9531 167.765 63.8148C167.769 63.8005 167.769 63.787 167.772 63.7721C167.772 63.7721 165.054 64.7023 165.197 67.4923L163.909 66.2764C163.909 66.2764 161.62 70.6404 164.41 73.5021C164.542 73.6372 164.688 73.7801 164.84 73.9262C166.585 72.1647 169.406 68.9849 169.406 68.9849C168.622 68.3876 167.89 65.9758 167.89 65.9758Z" fill="#282842"/>
<path d="M174.293 51.0275C173.58 51.0708 173.03 51.639 172.98 52.3327C172.571 52.0178 172.057 51.8368 171.502 51.8705C170.619 51.9241 169.896 52.491 169.587 53.2596C169.51 53.2157 169.434 53.1698 169.352 53.1323C169.431 52.7819 169.476 52.4186 169.476 52.0443C169.476 49.3048 167.255 47.0843 164.516 47.0843C163.649 47.0843 162.834 47.308 162.126 47.6991C161.247 46.9065 160.086 46.4198 158.81 46.4198C157.644 46.4198 156.575 46.8244 155.729 47.4974C155.623 46.774 155.256 46.1425 154.722 45.6926C155.358 45.156 155.771 44.3628 155.771 43.465C155.771 41.8502 154.462 40.5405 152.847 40.5405C151.78 40.5405 150.855 41.1184 150.345 41.9724C149.449 41.088 148.219 40.5405 146.86 40.5405C146.116 40.5405 145.412 40.7092 144.778 41.0034C144.802 40.8515 144.825 40.6989 144.825 40.5405C144.825 38.9258 143.515 37.6161 141.9 37.6161C140.565 37.6161 139.451 38.5166 139.101 39.7396L139.091 39.7364L136.2 45.5006H137.565C137.565 45.5006 137.85 43.0894 141.901 43.465C142.057 43.4792 142.196 43.4869 142.329 43.4908C142.056 44.1056 141.901 44.785 141.901 45.5012C141.901 47.0281 142.592 48.3933 143.677 49.3028C143.205 50.0624 142.927 50.9564 142.927 51.9176C142.927 54.6572 145.148 56.8777 147.887 56.8777C149.798 56.8777 151.454 55.7956 152.283 54.2118C152.736 54.5014 153.272 54.6747 153.85 54.6747C154.232 54.6747 154.594 54.5964 154.929 54.4633C155.085 54.6598 155.257 54.8421 155.44 55.0127C154.951 55.5357 154.645 56.2332 154.645 57.0057C154.645 58.4782 155.738 59.6845 157.154 59.8881C157.896 61.6942 159.669 62.967 161.742 62.967C164.379 62.967 166.529 60.9082 166.688 58.3108C167.118 58.5597 167.611 58.7135 168.144 58.7135C169.618 58.7135 170.825 57.6191 171.027 56.2009C171.264 56.2694 171.513 56.3075 171.773 56.2914C172.994 56.217 173.922 55.1672 173.848 53.9468C173.844 53.8673 173.824 53.7929 173.811 53.7167C174.011 53.8059 174.232 53.8556 174.466 53.8414C175.242 53.7942 175.834 53.1258 175.787 52.3495C175.74 51.5731 175.069 50.9803 174.293 51.0275Z" fill="#FBB03B"/>
<path d="M137.575 45.4398C137.601 45.3093 137.696 44.9673 137.985 44.5969L139.332 41.8289L139.342 41.8315C139.672 40.6421 140.724 39.7661 141.984 39.7661C143.508 39.7661 144.744 41.0396 144.744 42.6104C144.744 42.7649 144.723 42.9129 144.7 43.061C145.298 42.7746 145.963 42.6104 146.666 42.6104C147.947 42.6104 149.108 43.1424 149.954 44.0028C150.436 43.1722 151.308 42.6104 152.315 42.6104C153.803 42.6104 155.008 43.8264 155.065 45.3455C155.5 44.838 155.77 44.1864 155.77 43.4644C155.77 41.8496 154.461 40.5399 152.846 40.5399C151.779 40.5399 150.854 41.1178 150.344 41.9718C149.448 41.0874 148.218 40.5399 146.859 40.5399C146.115 40.5399 145.411 40.7086 144.777 41.0028C144.802 40.8508 144.824 40.6983 144.824 40.5399C144.824 38.9251 143.514 37.6155 141.899 37.6155C140.564 37.6155 139.45 38.5159 139.1 39.739L139.09 39.7358L136.199 45.5H137.546L137.575 45.4398Z" fill="#F9E33D"/>
<path d="M154.683 56.6003C154.673 56.6727 154.666 56.7458 154.662 56.8195C154.697 56.7768 154.725 56.7283 154.762 56.6876C154.733 56.6598 154.711 56.6275 154.683 56.6003Z" fill="#F9E33D"/>
<path d="M174.294 51.0275C173.581 51.0709 173.031 51.6391 172.981 52.3327C172.572 52.0179 172.058 51.8369 171.502 51.8705C170.62 51.9241 169.897 52.4911 169.588 53.2597C169.511 53.2157 169.435 53.1698 169.354 53.1323C169.433 52.7819 169.477 52.4187 169.477 52.0444C169.477 49.3048 167.257 47.0843 164.517 47.0843C163.65 47.0843 162.836 47.308 162.127 47.6984C161.248 46.9059 160.088 46.4192 158.811 46.4192C157.646 46.4192 156.576 46.8238 155.73 47.4968C155.646 46.9182 155.389 46.4037 155.019 45.9886C155.623 47.0384 155.539 47.4845 155.037 49.3772C155.836 48.723 156.845 48.3294 157.946 48.3294C159.151 48.3294 160.246 48.8025 161.076 49.5737C161.745 49.1936 162.513 48.9764 163.332 48.9764C165.917 48.9764 168.013 51.1368 168.013 53.8014C168.013 54.1653 167.971 54.5189 167.897 54.8596C167.973 54.8958 168.045 54.9404 168.118 54.983C168.409 54.2351 169.093 53.6837 169.925 53.6314C170.449 53.5984 170.934 53.7749 171.32 54.0806C171.367 53.4064 171.886 52.8537 172.559 52.811C173.172 52.7723 173.707 53.1698 173.895 53.7412C174.073 53.8091 174.264 53.8511 174.467 53.8389C175.243 53.7917 175.835 53.1233 175.788 52.3469C175.738 51.5712 175.07 50.9804 174.294 51.0275Z" fill="#F9E33D"/>
<path d="M130.266 52.0444C130.266 52.0444 129.747 54.0083 129.88 54.5183C130.014 55.0283 131 56.9327 131 56.9327L131.943 52.7232L130.266 52.0444Z" fill="#FF9A87"/>
<path d="M135.476 51.5143C134.892 50.7677 133.796 53.3741 133.796 53.3741C133.796 53.3741 131.399 53.4362 130.378 54.6896C130.538 55.1983 130.677 55.6844 130.77 56.1111L130.655 58.7123L133.203 58.8487C133.203 58.8487 136.06 52.261 135.476 51.5143Z" fill="#FF9A87"/>
<path d="M133.002 56.3821C133.002 56.3821 132.765 54.2515 133.796 53.3743C133.796 53.3743 131.871 54.3051 133.002 56.3821Z" fill="#C66547"/>
<path d="M145.594 84.2985L139.871 81.4704L135.006 58.0057H129.569C129.569 58.0057 130.714 87.4324 132.431 89.4602C134.147 91.4881 144.164 97.2116 144.164 97.2116L145.594 84.2985Z" fill="#F2F2F2"/>
<path d="M144.342 87.5993C144.342 87.5993 135.56 91.2464 131.525 85.7783C131.804 87.7241 132.107 89.0783 132.431 89.4604C133.633 90.8806 138.903 94.1114 141.956 95.9214L144.342 87.5993Z" fill="#DADAE0"/>
<path d="M181.973 242.197L178.938 243.79L175.982 242.055C175.982 242.055 175.25 244.812 175.869 246.825L191.622 247.199C191.622 247.199 191.344 244.861 188.793 244.801L181.973 242.197Z" fill="#343456"/>
<path d="M177.843 246.872L175.87 246.825C175.252 244.812 175.983 242.055 175.983 242.055L178.938 243.79L181.973 242.197L182.852 242.532C182.401 243.525 181.596 244.863 180.49 244.982C178.714 245.175 177.029 245.191 177.836 246.853C177.839 246.86 177.839 246.865 177.843 246.872Z" fill="#2C2C4C"/>
<path d="M181.973 242.197C181.896 245.451 175.905 245.309 175.983 242.054L176.347 226.746L182.337 226.888L181.973 242.197Z" fill="#FF9A87"/>
<path d="M181.973 242.197L182.068 238.217C180.583 238.181 177.845 238.116 176.077 238.074L175.983 242.054C175.905 245.309 181.896 245.451 181.973 242.197Z" fill="#F2F2F2"/>
<path d="M182.031 239.09L176.025 238.947C175.879 238.944 175.763 238.822 175.767 238.676L175.783 237.999C175.786 237.853 175.908 237.737 176.054 237.741L182.06 237.884C182.206 237.887 182.323 238.008 182.319 238.155L182.303 238.832C182.299 238.978 182.177 239.094 182.031 239.09Z" fill="#E6E6E6"/>
<path d="M184.269 243.073C184.269 243.073 183.102 240.33 181.812 240.895C180.521 241.46 180.022 243.495 181.661 244.38C183.3 245.265 187.765 244.408 187.765 244.408C187.765 244.408 185.417 242.897 184.269 243.073Z" fill="#272747"/>
<path d="M187.02 246.037C187.149 246.076 187.285 246.002 187.324 245.873L187.761 244.422C187.799 244.293 187.726 244.157 187.597 244.118C187.468 244.079 187.332 244.153 187.293 244.281L186.857 245.733C186.819 245.862 186.892 245.998 187.02 246.037Z" fill="#F2F2F2"/>
<path d="M185.746 245.803C185.875 245.842 186.011 245.768 186.05 245.64L186.591 243.839C186.63 243.71 186.556 243.574 186.427 243.535C186.299 243.496 186.162 243.57 186.124 243.698L185.583 245.499C185.544 245.628 185.618 245.765 185.746 245.803Z" fill="#F2F2F2"/>
<path d="M184.706 245.491C184.835 245.53 184.971 245.456 185.01 245.327L185.598 243.373C185.636 243.244 185.563 243.107 185.434 243.069C185.305 243.03 185.169 243.104 185.13 243.232L184.543 245.187C184.504 245.316 184.577 245.452 184.706 245.491Z" fill="#F2F2F2"/>
<path d="M175.707 246.109L191.427 246.526C191.427 246.526 191.775 246.953 191.668 247.434L175.683 247.177C175.683 247.177 175.415 246.59 175.707 246.109Z" fill="#F2F2F2"/>
<path d="M168.876 155.952C168.769 155.952 168.661 155.924 168.563 155.862C165.95 154.243 167.876 142.453 168.289 140.107C168.347 139.783 168.655 139.568 168.98 139.623C169.304 139.68 169.521 139.99 169.464 140.314C168.342 146.691 167.919 154.061 169.19 154.85C169.47 155.023 169.557 155.391 169.383 155.67C169.271 155.852 169.076 155.952 168.876 155.952Z" fill="#15263F"/>
<path d="M185.445 150.358C185.418 150.358 185.389 150.356 185.361 150.352C184.998 150.301 176.469 149.025 176.585 143.094C176.591 142.769 176.857 142.51 177.181 142.51C177.185 142.51 177.188 142.51 177.192 142.51C177.521 142.516 177.783 142.789 177.777 143.118C177.68 148.004 185.449 149.16 185.527 149.171C185.853 149.217 186.081 149.519 186.035 149.845C185.993 150.143 185.737 150.358 185.445 150.358Z" fill="#15263F"/>
<path d="M157.447 150.358C157.462 150.358 157.478 150.356 157.494 150.352C157.698 150.301 162.475 149.025 162.41 143.094C162.406 142.769 162.258 142.51 162.076 142.51C162.074 142.51 162.071 142.51 162.07 142.51C161.885 142.517 161.739 142.789 161.742 143.118C161.795 148.004 157.444 149.16 157.4 149.171C157.218 149.217 157.091 149.519 157.117 149.845C157.14 150.143 157.283 150.358 157.447 150.358Z" fill="#15263F"/>
<path d="M168.142 90.7881V80.0981H174.962V90.6912L176.663 91.452L164.637 98.8239L166.147 92.0609L168.142 90.7881Z" fill="#EF9478"/>
<path d="M168.142 86.9128V80.0981H174.962V85.9477C173.417 87.1403 170.865 88.4235 168.142 86.9128Z" fill="#C66547"/>
<path d="M175.46 84.0037C175.46 84.0037 170.913 87.6554 165.883 85.9146C160.852 84.1731 162.4 78.5621 165.012 71.5968C165.012 71.5968 166.832 69.5651 169.405 68.9846C169.405 68.9846 172.364 73.7249 176.234 73.9182C176.234 73.9182 174.976 78.4651 175.556 80.3029C175.556 80.3029 179.136 77.0139 179.813 80.3999C180.491 83.7865 175.46 84.0037 175.46 84.0037Z" fill="#F5A486"/>
<path d="M169.765 77.4321C169.765 77.8633 170.114 78.2123 170.545 78.2123C170.976 78.2123 171.325 77.8633 171.325 77.4321C171.325 77.0009 170.976 76.6519 170.545 76.6519C170.114 76.6512 169.765 77.0009 169.765 77.4321Z" fill="#050038"/>
<path d="M169.764 77.4325C169.764 77.8636 170.113 78.2127 170.544 78.2127C170.975 78.2127 171.324 77.8636 171.324 77.4325C171.324 77.0013 170.975 76.6522 170.544 76.6522C170.113 76.6516 169.764 77.0013 169.764 77.4325Z" fill="#343456"/>
<path d="M170.025 77.3425C170.025 77.486 170.141 77.6024 170.285 77.6024C170.428 77.6024 170.545 77.486 170.545 77.3425C170.545 77.199 170.428 77.0826 170.285 77.0826C170.141 77.0826 170.025 77.199 170.025 77.3425Z" fill="#3C3B7A"/>
<path d="M170.466 77.4494C170.466 77.6427 170.622 77.7992 170.816 77.7992C171.009 77.7992 171.165 77.6427 171.165 77.4494C171.165 77.2562 171.009 77.0997 170.816 77.0997C170.622 77.0997 170.466 77.2562 170.466 77.4494Z" fill="white"/>
<path d="M164.256 76.323C164.256 76.7541 164.605 77.1032 165.036 77.1032C165.467 77.1032 165.816 76.7541 165.816 76.323C165.816 75.8918 165.467 75.5427 165.036 75.5427C164.606 75.5427 164.256 75.8918 164.256 76.323Z" fill="#343456"/>
<path d="M164.517 76.2339C164.517 76.3774 164.633 76.4937 164.776 76.4937C164.92 76.4937 165.036 76.3774 165.036 76.2339C165.036 76.0904 164.92 75.974 164.776 75.974C164.633 75.974 164.517 76.0897 164.517 76.2339Z" fill="#3C3B7A"/>
<path d="M164.958 76.3404C164.958 76.5337 165.114 76.6902 165.308 76.6902C165.501 76.6902 165.657 76.5337 165.657 76.3404C165.657 76.1472 165.501 75.9907 165.308 75.9907C165.114 75.9907 164.958 76.1472 164.958 76.3404Z" fill="white"/>
<path d="M166.701 77.135L164.769 79.0523L165.944 80.1894L165.349 78.9799L166.701 77.135Z" fill="#C66547"/>
<path d="M178.414 81.2791C178.414 80.59 177.943 80.0159 177.307 79.8472C177.429 79.8149 177.555 79.7916 177.688 79.7916C178.509 79.7916 179.175 80.4575 179.175 81.2791C179.175 82.1007 178.509 82.7665 177.688 82.7665C177.555 82.7665 177.429 82.7439 177.307 82.7109C177.943 82.5422 178.414 81.9682 178.414 81.2791Z" fill="#C66547"/>
<path d="M169.305 73.8936C169.305 73.8936 171.791 72.816 173.967 75.6849L173.525 76.4186C173.525 76.4186 171.898 73.8936 169.305 74.67V73.8936Z" fill="#343456"/>
<path d="M167.396 73.5434C167.396 73.5434 166.145 72.0087 163.77 73.1381L163.81 73.7625C163.81 73.7625 165.714 72.6713 167.135 74.0469L167.396 73.5434Z" fill="#343456"/>
<path d="M166.147 92.0609C166.147 92.0609 169.693 95.8613 176.663 91.4526C176.663 91.4526 187.629 93.9233 188.295 95.0332C188.96 96.1431 183.822 141.195 183.822 141.195H155.609C155.609 141.195 154.228 100.11 154.671 98.5698C155.115 97.03 166.147 92.0609 166.147 92.0609Z" fill="#F07165"/>
<path d="M183.823 141.194H180.894C178.697 138.149 179.938 133.093 182.648 128.128C186.6 120.887 183.024 121.22 180.658 114.895C178.291 108.57 185.084 103.704 185.084 103.704L187.6 105.741C186.309 119.386 183.823 141.194 183.823 141.194Z" fill="#D65350"/>
<path d="M146.987 231.216C152.286 224.694 155.744 209.817 155.56 199.34C155.339 186.69 168.876 161.168 168.876 161.168C168.543 162.167 154.644 232.74 154.644 232.74L146.987 231.216Z" fill="#24243F"/>
<path d="M168.076 81.6565C168.076 81.6565 166.509 81.1652 165.588 81.7793C165.588 81.7793 165.343 84.2364 166.939 84.2972C168.537 84.3592 168.076 81.6565 168.076 81.6565Z" fill="#343456"/>
<path d="M168.118 82.0385C168.1 81.8097 168.075 81.6565 168.075 81.6565C168.075 81.6565 166.509 81.1652 165.588 81.7793C165.588 81.7793 165.584 81.8168 165.581 81.8802C166.339 82.2402 167.522 82.129 168.118 82.0385Z" fill="white"/>
<path d="M165.918 83.6843C166.12 84.0243 166.44 84.2784 166.94 84.2971C167.579 84.3217 167.886 83.9015 168.027 83.3908C167.353 83.2868 166.447 83.5182 165.918 83.6843Z" fill="#F07165"/>
<path d="M166.109 91.8992L143.724 82.228L138.481 98.9847L159.921 108.229L166.109 91.8992Z" fill="#F07165"/>
<path d="M149.063 95.2291C146.702 95.5672 147.668 98.1425 144.663 97.8206C143.043 97.6474 141.116 96.3319 139.68 95.1554L138.481 98.9855L154.583 105.929C154.583 105.929 151.424 94.891 149.063 95.2291Z" fill="#D65350"/>
<path d="M136.967 42.9686L128.819 55.8455L131.192 57.3473L139.34 44.4704L136.967 42.9686Z" fill="#F07165"/>
<path d="M129.654 55.8462L137.565 43.3443L136.97 42.9688L128.822 55.8462L131.195 57.3479L131.433 56.9717L129.654 55.8462Z" fill="#EF5750"/>
<path d="M134.575 50.1583L131.678 49.5552C131.678 49.5552 131.481 49.9152 131.678 50.4673C131.875 51.02 134.898 51.0025 134.575 50.1583Z" fill="#FF9A87"/>
<path d="M133.985 51.0638L131.088 50.4607C131.088 50.4607 130.891 50.8208 131.088 51.3728C131.285 51.9248 134.307 51.9087 133.985 51.0638Z" fill="#F98478"/>
<path d="M133.076 51.8828L130.66 51.3799C130.66 51.3799 130.496 51.6798 130.66 52.1407C130.824 52.601 133.344 52.5868 133.076 51.8828Z" fill="#FC9081"/>
<path d="M132.108 52.4278L130.267 52.0444C130.267 52.0444 130.141 52.2733 130.267 52.6243C130.392 52.9759 132.313 52.9649 132.108 52.4278Z" fill="#FF9A87"/>
<path d="M162.94 119.066V108.786H164.05V109.974H164.186C164.27 109.844 164.387 109.679 164.537 109.478C164.689 109.273 164.906 109.092 165.189 108.933C165.474 108.77 165.86 108.689 166.347 108.689C166.977 108.689 167.532 108.847 168.012 109.161C168.492 109.476 168.867 109.922 169.136 110.5C169.406 111.077 169.54 111.759 169.54 112.544C169.54 113.336 169.406 114.022 169.136 114.603C168.867 115.181 168.494 115.628 168.017 115.946C167.54 116.261 166.99 116.419 166.367 116.419C165.886 116.419 165.502 116.339 165.213 116.18C164.924 116.018 164.702 115.834 164.546 115.63C164.391 115.422 164.27 115.25 164.186 115.114H164.089V119.066H162.94ZM164.069 112.525C164.069 113.089 164.152 113.587 164.318 114.019C164.483 114.447 164.725 114.783 165.043 115.026C165.361 115.267 165.75 115.387 166.211 115.387C166.691 115.387 167.092 115.26 167.413 115.007C167.738 114.751 167.981 114.407 168.143 113.975C168.309 113.54 168.392 113.057 168.392 112.525C168.392 111.999 168.31 111.525 168.148 111.103C167.989 110.678 167.747 110.342 167.423 110.096C167.102 109.846 166.698 109.721 166.211 109.721C165.744 109.721 165.351 109.839 165.033 110.076C164.715 110.31 164.475 110.638 164.313 111.06C164.15 111.478 164.069 111.967 164.069 112.525ZM171.292 116.263V108.786H172.402V109.916H172.48C172.616 109.546 172.863 109.246 173.22 109.015C173.577 108.785 173.979 108.67 174.427 108.67C174.511 108.67 174.617 108.671 174.743 108.675C174.87 108.678 174.966 108.683 175.031 108.689V109.857C174.992 109.848 174.902 109.833 174.763 109.814C174.627 109.791 174.482 109.779 174.33 109.779C173.966 109.779 173.642 109.856 173.356 110.008C173.074 110.157 172.85 110.365 172.685 110.631C172.522 110.894 172.441 111.194 172.441 111.532V116.263H171.292ZM165.977 133.419C165.302 133.419 164.71 133.258 164.201 132.937C163.694 132.615 163.299 132.166 163.013 131.588C162.731 131.011 162.59 130.336 162.59 129.564C162.59 128.785 162.731 128.105 163.013 127.524C163.299 126.943 163.694 126.492 164.201 126.171C164.71 125.85 165.302 125.689 165.977 125.689C166.652 125.689 167.243 125.85 167.749 126.171C168.258 126.492 168.654 126.943 168.937 127.524C169.222 128.105 169.365 128.785 169.365 129.564C169.365 130.336 169.222 131.011 168.937 131.588C168.654 132.166 168.258 132.615 167.749 132.937C167.243 133.258 166.652 133.419 165.977 133.419ZM165.977 132.387C166.49 132.387 166.912 132.255 167.243 131.992C167.574 131.73 167.819 131.384 167.978 130.956C168.137 130.527 168.216 130.063 168.216 129.564C168.216 129.064 168.137 128.598 167.978 128.167C167.819 127.735 167.574 127.386 167.243 127.12C166.912 126.854 166.49 126.721 165.977 126.721C165.465 126.721 165.043 126.854 164.712 127.12C164.381 127.386 164.136 127.735 163.977 128.167C163.818 128.598 163.738 129.064 163.738 129.564C163.738 130.063 163.818 130.527 163.977 130.956C164.136 131.384 164.381 131.73 164.712 131.992C165.043 132.255 165.465 132.387 165.977 132.387ZM175.402 128.454V129.525H171.041V128.454H175.402Z" fill="#D65350"/>
<path d="M166.191 116.299V117.273H162.317V116.299H166.191ZM163.446 114.508H164.595V121.634C164.595 121.958 164.642 122.202 164.736 122.364C164.833 122.523 164.957 122.63 165.106 122.685C165.259 122.737 165.419 122.763 165.588 122.763C165.714 122.763 165.818 122.757 165.899 122.744C165.981 122.727 166.045 122.714 166.094 122.705L166.328 123.737C166.25 123.766 166.141 123.795 166.002 123.824C165.862 123.857 165.685 123.873 165.471 123.873C165.147 123.873 164.829 123.803 164.517 123.664C164.209 123.524 163.952 123.311 163.748 123.026C163.547 122.74 163.446 122.38 163.446 121.945V114.508ZM170.974 123.931C170.253 123.931 169.632 123.772 169.109 123.454C168.59 123.133 168.19 122.685 167.907 122.111C167.628 121.533 167.489 120.862 167.489 120.096C167.489 119.33 167.628 118.655 167.907 118.071C168.19 117.484 168.582 117.026 169.085 116.698C169.591 116.367 170.182 116.202 170.857 116.202C171.246 116.202 171.631 116.267 172.01 116.397C172.39 116.526 172.736 116.737 173.047 117.029C173.359 117.318 173.607 117.701 173.792 118.178C173.977 118.655 174.069 119.242 174.069 119.94V120.427H168.306V119.434H172.901C172.901 119.012 172.817 118.636 172.648 118.305C172.483 117.974 172.246 117.712 171.937 117.521C171.632 117.329 171.272 117.234 170.857 117.234C170.399 117.234 170.003 117.347 169.669 117.574C169.338 117.798 169.084 118.09 168.905 118.451C168.727 118.811 168.637 119.197 168.637 119.609V120.271C168.637 120.836 168.735 121.314 168.929 121.707C169.127 122.096 169.402 122.393 169.752 122.598C170.102 122.799 170.51 122.899 170.974 122.899C171.275 122.899 171.548 122.857 171.791 122.773C172.038 122.685 172.251 122.555 172.429 122.383C172.607 122.208 172.745 121.991 172.843 121.731L173.953 122.043C173.836 122.419 173.639 122.75 173.364 123.036C173.088 123.318 172.747 123.539 172.341 123.698C171.936 123.853 171.48 123.931 170.974 123.931ZM168.236 134.974L167.204 135.266C167.139 135.094 167.043 134.927 166.917 134.764C166.793 134.599 166.625 134.462 166.41 134.355C166.196 134.248 165.922 134.195 165.588 134.195C165.13 134.195 164.749 134.3 164.444 134.511C164.142 134.719 163.991 134.983 163.991 135.305C163.991 135.59 164.095 135.816 164.303 135.981C164.511 136.147 164.835 136.285 165.276 136.395L166.386 136.667C167.055 136.83 167.553 137.078 167.88 137.412C168.208 137.743 168.372 138.17 168.372 138.692C168.372 139.121 168.249 139.503 168.002 139.841C167.759 140.178 167.418 140.445 166.98 140.639C166.542 140.834 166.032 140.931 165.452 140.931C164.689 140.931 164.058 140.766 163.558 140.435C163.058 140.104 162.742 139.62 162.609 138.984L163.699 138.712C163.803 139.114 164 139.416 164.288 139.617C164.58 139.818 164.962 139.919 165.432 139.919C165.968 139.919 166.393 139.805 166.707 139.578C167.025 139.348 167.184 139.072 167.184 138.751C167.184 138.491 167.094 138.274 166.912 138.098C166.73 137.92 166.451 137.787 166.075 137.699L164.829 137.407C164.144 137.245 163.641 136.994 163.32 136.653C163.002 136.309 162.843 135.879 162.843 135.363C162.843 134.941 162.961 134.568 163.198 134.243C163.438 133.919 163.764 133.664 164.176 133.479C164.592 133.294 165.062 133.202 165.588 133.202C166.328 133.202 166.909 133.364 167.33 133.689C167.756 134.013 168.057 134.441 168.236 134.974ZM173.353 133.299V134.273H169.478V133.299H173.353ZM170.607 131.508H171.756V138.634C171.756 138.958 171.803 139.202 171.897 139.364C171.995 139.523 172.118 139.63 172.267 139.685C172.42 139.737 172.58 139.763 172.749 139.763C172.876 139.763 172.979 139.757 173.061 139.744C173.142 139.727 173.207 139.714 173.255 139.705L173.489 140.737C173.411 140.766 173.302 140.795 173.163 140.824C173.023 140.857 172.846 140.873 172.632 140.873C172.308 140.873 171.99 140.803 171.678 140.664C171.37 140.524 171.114 140.311 170.909 140.026C170.708 139.74 170.607 139.38 170.607 138.945V131.508Z" fill="#D65350"/>
<path d="M174.394 121.68H161.889V122.679H174.394V121.68Z" fill="#D65350"/>
<path d="M174.394 102.816H161.889V103.814H174.394V102.816Z" fill="#D65350"/>
<path d="M362.513 243.046C362.44 246.077 356.86 245.945 356.933 242.914L353.117 188.768H365.398L362.513 243.046Z" fill="#FF9A87"/>
<path d="M371.501 247.706C371.501 247.706 371.242 245.529 368.866 245.472L362.514 243.047L361.691 243.478C361.091 242.69 360.698 241.58 361.315 240.155C361.797 239.041 356.517 239.149 356.184 239.815C355.928 240.326 356.651 241.022 356.773 243.681C356.643 244.427 356.508 245.601 356.678 246.686C356.678 246.688 356.678 246.689 356.677 246.691L356.678 246.69C356.714 246.917 356.762 247.142 356.828 247.356L371.501 247.706Z" fill="#FC6B76"/>
<path d="M359.715 244.147C360.065 242.848 356.966 241.449 357.616 240.448C358.008 239.845 359.783 239.716 361.129 239.708C360.2 239.094 356.462 239.257 356.183 239.815C355.927 240.326 356.65 241.022 356.772 243.681C356.643 244.427 356.507 245.601 356.677 246.686C356.677 246.688 356.677 246.689 356.676 246.69L356.677 246.69C356.713 246.917 356.761 247.142 356.827 247.356L359.037 247.409C358.665 246.207 359.407 245.29 359.715 244.147Z" fill="#F25165"/>
<path d="M366.089 244.412C366.089 244.412 363.315 242.485 363.181 241.15C363.048 239.816 364.647 238.283 363.181 238.083C361.715 237.883 359.849 238.416 359.983 240.682C360.116 242.948 362.115 244.214 363.382 244.881C364.648 245.547 368.867 245.472 368.867 245.472C368.867 245.472 367.463 244.476 366.089 244.412Z" fill="white"/>
<path d="M366.371 246.352C366.278 246.325 366.224 246.228 366.251 246.135L366.79 244.262C366.816 244.169 366.914 244.116 367.006 244.142C367.099 244.169 367.153 244.266 367.126 244.359L366.587 246.232C366.56 246.325 366.463 246.378 366.371 246.352Z" fill="#4D4D4D"/>
<path d="M365.215 246.158C365.123 246.131 365.069 246.034 365.096 245.941L365.634 244.068C365.661 243.975 365.758 243.922 365.851 243.948C365.943 243.975 365.998 244.072 365.97 244.165L365.432 246.038C365.406 246.131 365.308 246.184 365.215 246.158Z" fill="#4D4D4D"/>
<path d="M363.697 245.896L363.694 245.895C363.591 245.852 363.542 245.732 363.584 245.628L364.606 243.169C364.649 243.065 364.769 243.015 364.873 243.059L364.875 243.06C364.979 243.103 365.028 243.223 364.985 243.326L363.963 245.786C363.92 245.889 363.8 245.939 363.697 245.896Z" fill="#4D4D4D"/>
<path d="M362.041 244.558L362.039 244.556C361.955 244.482 361.947 244.352 362.022 244.268L363.788 242.275C363.863 242.191 363.992 242.183 364.076 242.257L364.078 242.259C364.162 242.334 364.17 242.463 364.095 242.547L362.329 244.541C362.254 244.625 362.125 244.632 362.041 244.558Z" fill="#4D4D4D"/>
<path d="M371.32 247.08L361.089 246.808C360.664 246.667 360.258 246.458 359.975 246.146C359.065 245.147 356.984 245.396 356.55 245.796C356.116 246.197 356.466 247.595 355.816 248.195C355.167 248.795 358.715 248.795 360.514 248.945C362.314 249.095 362.514 248.246 363.564 248.146C364.613 248.045 364.713 248.595 366.688 248.795C368.662 248.995 371.544 247.924 371.544 247.924C371.645 247.477 371.32 247.08 371.32 247.08Z" fill="white"/>
<path d="M365.071 194.93L365.399 188.768H353.118L354.746 211.876C355.119 209.975 355.573 208.032 356.129 206.161C357.4 201.878 361.316 197.882 365.071 194.93Z" fill="#C66547"/>
<path d="M340.223 243.046C340.296 246.077 345.876 245.945 345.803 242.914L349.619 188.768H337.338L340.223 243.046Z" fill="#FF9A87"/>
<path d="M331.236 247.706C331.236 247.706 331.494 245.529 333.871 245.472L340.223 243.047L341.047 243.478C341.647 242.69 342.039 241.58 341.422 240.155C340.94 239.041 346.221 239.149 346.554 239.815C346.81 240.326 346.087 241.022 345.964 243.681C346.094 244.427 346.23 245.601 346.06 246.686C346.06 246.688 346.06 246.689 346.06 246.691L346.059 246.69C346.024 246.917 345.976 247.142 345.91 247.356L331.236 247.706Z" fill="#FC6B76"/>
<path d="M343.022 244.147C342.671 242.848 345.77 241.449 345.121 240.448C344.728 239.845 342.954 239.716 341.607 239.708C342.537 239.094 346.275 239.257 346.554 239.815C346.81 240.326 346.087 241.022 345.964 243.681C346.094 244.427 346.23 245.601 346.06 246.686C346.06 246.688 346.06 246.689 346.061 246.69L346.059 246.69C346.024 246.917 345.976 247.142 345.91 247.356L343.7 247.409C344.071 246.207 343.329 245.29 343.022 244.147Z" fill="#F25165"/>
<path d="M336.649 244.412C336.649 244.412 339.423 242.485 339.557 241.15C339.69 239.815 338.09 238.283 339.557 238.083C341.023 237.883 342.889 238.416 342.755 240.682C342.622 242.948 340.623 244.214 339.356 244.881C338.09 245.547 333.871 245.472 333.871 245.472C333.871 245.472 335.274 244.477 336.649 244.412Z" fill="white"/>
<path d="M336.367 246.352C336.459 246.325 336.513 246.228 336.486 246.135L335.948 244.262C335.921 244.169 335.824 244.116 335.731 244.142C335.639 244.169 335.584 244.266 335.611 244.359L336.15 246.232C336.176 246.325 336.274 246.378 336.367 246.352Z" fill="#4D4D4D"/>
<path d="M337.522 246.158C337.614 246.131 337.668 246.034 337.641 245.941L337.103 244.068C337.076 243.975 336.979 243.922 336.886 243.948C336.794 243.975 336.74 244.072 336.767 244.165L337.305 246.038C337.332 246.131 337.429 246.184 337.522 246.158Z" fill="#4D4D4D"/>
<path d="M339.04 245.896L339.043 245.895C339.146 245.852 339.195 245.732 339.153 245.628L338.131 243.168C338.088 243.065 337.968 243.015 337.864 243.058L337.862 243.059C337.758 243.102 337.709 243.222 337.752 243.326L338.774 245.785C338.817 245.889 338.937 245.939 339.04 245.896Z" fill="#4D4D4D"/>
<path d="M340.696 244.558L340.698 244.556C340.782 244.482 340.789 244.352 340.715 244.268L338.948 242.275C338.874 242.191 338.745 242.183 338.661 242.257L338.659 242.259C338.575 242.334 338.567 242.463 338.641 242.547L340.408 244.541C340.482 244.625 340.612 244.632 340.696 244.558Z" fill="#4D4D4D"/>
<path d="M331.416 247.08L341.647 246.808C342.072 246.667 342.478 246.458 342.762 246.146C343.671 245.147 345.753 245.396 346.186 245.796C346.62 246.197 346.27 247.596 346.92 248.195C347.57 248.795 344.021 248.795 342.222 248.945C340.422 249.095 340.223 248.246 339.173 248.146C338.123 248.045 338.023 248.595 336.049 248.795C334.075 248.995 331.193 247.924 331.193 247.924C331.092 247.477 331.416 247.08 331.416 247.08Z" fill="white"/>
<path d="M337.666 194.93L337.338 188.768H349.619L347.991 211.876C347.618 209.975 347.163 208.032 346.608 206.161C345.337 201.878 341.421 197.882 337.666 194.93Z" fill="#C66547"/>
<path d="M318.63 65.3041C318.002 64.6835 317.638 67.1619 317.638 67.1619C317.638 67.1619 315.405 67.2201 314.454 68.3875C314.603 68.8614 314.732 69.3145 314.819 69.7114L315.007 72.2616H317.085C317.085 72.2616 319.663 66.3248 318.63 65.3041Z" fill="#FC8A7C"/>
<path d="M316.898 69.963C316.898 69.963 316.677 67.9785 317.638 67.1614C317.638 67.1614 315.846 68.0282 316.898 69.963Z" fill="#C66547"/>
<path d="M328.627 95.9675L323.296 93.3333L317.857 70.3005L314.819 69.7115C314.819 69.7115 314.765 98.8868 316.365 100.776C317.964 102.665 327.294 107.997 327.294 107.997L328.627 95.9675Z" fill="#FC8A7C"/>
<path d="M359.991 146.468L364.113 148.344C364.113 148.344 367.214 155.787 366.594 158.732C365.975 161.678 367.185 194.958 367.185 194.958C362.568 196.379 357.599 196.22 352.385 194.968C352.385 194.968 352.098 168.911 351.788 169.841C351.478 170.771 349.82 194.968 349.82 194.968C344.563 195.553 339.432 195.032 334.448 193.21L338.823 147.519L359.991 146.468Z" fill="#39375C"/>
<path d="M350.314 162.711C350.214 162.711 350.113 162.685 350.022 162.628C347.588 161.12 349.383 150.137 349.767 147.952C349.821 147.65 350.109 147.45 350.411 147.501C350.713 147.554 350.914 147.842 350.862 148.144C349.817 154.084 349.423 160.95 350.607 161.684C350.868 161.845 350.949 162.187 350.787 162.448C350.681 162.618 350.499 162.711 350.314 162.711Z" fill="#15263F"/>
<path d="M365.747 157.5C365.722 157.5 365.695 157.498 365.669 157.495C365.331 157.447 357.385 156.26 357.493 150.735C357.499 150.432 357.747 150.19 358.049 150.19C358.052 150.19 358.056 150.19 358.06 150.19C358.366 150.196 358.61 150.45 358.604 150.757C358.515 155.308 365.751 156.385 365.823 156.395C366.127 156.438 366.338 156.719 366.296 157.023C366.258 157.3 366.019 157.5 365.747 157.5Z" fill="#15263F"/>
<path d="M339.667 157.5C339.681 157.5 339.696 157.498 339.711 157.494C339.9 157.447 344.35 156.259 344.29 150.734C344.287 150.431 344.149 150.19 343.979 150.19C343.977 150.19 343.975 150.19 343.974 150.19C343.802 150.196 343.665 150.45 343.668 150.756C343.719 155.308 339.665 156.385 339.624 156.395C339.454 156.438 339.336 156.719 339.36 157.023C339.381 157.3 339.515 157.5 339.667 157.5Z" fill="#15263F"/>
<path d="M359.55 92.2022C359.55 92.2022 364.814 89.6029 362.482 84.3384C360.149 79.0739 350.486 79.0739 350.486 79.0739C350.486 79.0739 348.953 78.2743 349.286 76.8748C349.286 76.8748 346.754 77.741 346.887 80.3402L345.688 79.2071C345.688 79.2071 343.555 83.2724 346.154 85.9377C348.754 88.6035 355.817 93.7349 355.817 93.7349L359.55 92.2022Z" fill="#343456"/>
<path d="M349.632 102.012V92.0544H355.984V101.922L357.569 102.631L346.367 109.497L347.773 103.198L349.632 102.012Z" fill="#EF9478"/>
<path d="M349.631 98.402V92.0541H355.984V97.5028C354.545 98.6147 352.169 99.8093 349.631 98.402Z" fill="#C66547"/>
<path d="M356.448 95.6927C356.448 95.6927 352.212 99.0942 347.527 97.4724C342.841 95.8505 344.283 90.6241 346.715 84.1359C346.715 84.1359 348.411 82.2438 350.807 81.7028C350.807 81.7028 353.564 86.1185 357.169 86.2982C357.169 86.2982 355.997 90.5336 356.538 92.2453C356.538 92.2453 359.872 89.1813 360.503 92.3352C361.133 95.4904 356.448 95.6927 356.448 95.6927Z" fill="#F5A486"/>
<path d="M351.141 89.5712C351.141 89.9727 351.466 90.2978 351.868 90.2978C352.269 90.2978 352.594 89.972 352.594 89.5712C352.594 89.1698 352.269 88.844 351.868 88.844C351.466 88.8446 351.141 89.1698 351.141 89.5712Z" fill="#050038"/>
<path d="M351.141 89.5712C351.141 89.9727 351.466 90.2978 351.868 90.2978C352.269 90.2978 352.594 89.972 352.594 89.5712C352.594 89.1698 352.269 88.844 351.868 88.844C351.466 88.8446 351.141 89.1698 351.141 89.5712Z" fill="#343456"/>
<path d="M351.383 89.4882C351.383 89.622 351.492 89.73 351.625 89.73C351.759 89.73 351.867 89.6214 351.867 89.4882C351.867 89.3551 351.758 89.2465 351.625 89.2465C351.492 89.2465 351.383 89.3544 351.383 89.4882Z" fill="#3C3B7A"/>
<path d="M352.119 89.9133C352.299 89.9133 352.445 89.7675 352.445 89.5875C352.445 89.4076 352.299 89.2617 352.119 89.2617C351.939 89.2617 351.793 89.4076 351.793 89.5875C351.793 89.7675 351.939 89.9133 352.119 89.9133Z" fill="white"/>
<path d="M346.01 88.5383C346.01 88.9397 346.336 89.2648 346.737 89.2648C347.138 89.2648 347.464 88.9397 347.464 88.5383C347.464 88.1368 347.138 87.811 346.737 87.811C346.336 87.811 346.01 88.1368 346.01 88.5383Z" fill="#343456"/>
<path d="M346.253 88.4549C346.253 88.5887 346.362 88.6973 346.495 88.6973C346.629 88.6973 346.738 88.5887 346.738 88.4549C346.738 88.3211 346.629 88.2131 346.495 88.2131C346.362 88.2131 346.253 88.3211 346.253 88.4549Z" fill="#3C3B7A"/>
<path d="M346.663 88.5546C346.663 88.7343 346.809 88.8804 346.988 88.8804C347.168 88.8804 347.314 88.7349 347.314 88.5546C347.314 88.3749 347.169 88.2288 346.988 88.2288C346.809 88.2288 346.663 88.3749 346.663 88.5546Z" fill="white"/>
<path d="M348.288 89.2944L346.487 91.0805L347.582 92.1394L347.028 91.0126L348.288 89.2944Z" fill="#C66547"/>
<path d="M359.198 93.155C359.198 92.513 358.76 91.9785 358.167 91.8214C358.281 91.791 358.398 91.7697 358.522 91.7697C359.287 91.7697 359.907 92.3902 359.907 93.155C359.907 93.9203 359.287 94.5402 358.522 94.5402C358.398 94.5402 358.281 94.5189 358.167 94.4885C358.76 94.3315 359.198 93.7969 359.198 93.155Z" fill="#C66547"/>
<path d="M350.714 86.275C350.714 86.275 353.031 85.2711 355.058 87.9434L354.646 88.6267C354.646 88.6267 353.13 86.2743 350.715 86.9983V86.275H350.714Z" fill="#343456"/>
<path d="M348.935 85.9493C348.935 85.9493 347.77 84.5194 345.557 85.5717L345.595 86.1535C345.595 86.1535 347.368 85.1373 348.692 86.4186L348.935 85.9493Z" fill="#343456"/>
<path d="M347.772 103.198C347.772 103.198 351.075 106.738 357.568 102.631C357.568 102.631 367.782 104.932 368.402 105.966C369.022 107 364.235 148.965 364.235 148.965H337.956C337.956 148.965 336.669 110.695 337.083 109.261C337.497 107.826 347.772 103.198 347.772 103.198Z" fill="#A2DE6A"/>
<path d="M364.237 148.965H361.509C359.463 146.128 360.619 141.418 363.143 136.794C366.824 130.05 363.493 130.359 361.289 124.468C359.085 118.576 365.411 114.043 365.411 114.043L367.755 115.941C366.553 128.65 364.237 148.965 364.237 148.965Z" fill="#91C75F"/>
<path d="M349.569 93.5066C349.569 93.5066 348.11 93.0489 347.252 93.621C347.252 93.621 347.023 95.9093 348.511 95.9669C349.998 96.0238 349.569 93.5066 349.569 93.5066Z" fill="#343456"/>
<path d="M349.608 93.8621C349.591 93.6488 349.568 93.506 349.568 93.506C349.568 93.506 348.109 93.0483 347.25 93.6204C347.25 93.6204 347.247 93.6553 347.244 93.7141C347.951 94.0503 349.053 93.9468 349.608 93.8621Z" fill="white"/>
<path d="M347.559 95.3953C347.747 95.7121 348.045 95.9486 348.51 95.9661C349.106 95.9887 349.391 95.5976 349.523 95.1219C348.895 95.0242 348.051 95.2402 347.559 95.3953Z" fill="#F07165"/>
<path d="M347.737 103.047L326.886 94.0386L322.002 109.647L341.973 118.258L347.737 103.047Z" fill="#A2DE6A"/>
<path d="M331.859 106.149C329.66 106.464 330.56 108.862 327.761 108.563C326.252 108.402 324.457 107.177 323.119 106.08L322.002 109.648L337.001 116.115C337.001 116.115 334.059 105.834 331.859 106.149Z" fill="#91C75F"/>
<path d="M317.998 66.5635C317.998 66.5635 318.146 64.2978 317.539 63.9978C316.932 63.6979 313.634 65.7639 313.6 66.8634C313.566 67.963 314.599 68.6495 314.799 68.6792C314.999 68.709 315.399 68.4627 315.399 68.4627C315.399 68.4627 315.632 68.6624 315.965 68.4627C316.299 68.2629 316.268 68.007 316.268 68.007C316.268 68.007 316.979 68.2229 317.255 67.4594C317.255 67.4594 317.864 67.696 317.998 66.5635Z" fill="#FF9A87"/>
<path d="M314.215 66.4136C314.215 66.4136 314.047 67.559 315.173 68.5823C315.298 68.5242 315.398 68.4627 315.398 68.4627C315.398 68.4627 314.265 67.2132 314.215 66.4136Z" fill="#C66547"/>
<path d="M316.268 68.007L316.255 68.1149C316.272 68.0509 316.268 68.007 316.268 68.007Z" fill="#C66547"/>
<path d="M315.598 65.2048C315.598 65.2048 315.656 66.6528 316.266 68.0071C316.266 68.0071 316.35 68.0297 316.468 68.033C316.229 67.4208 315.624 65.8241 315.598 65.2048Z" fill="#C66547"/>
<path d="M316.848 64.897C316.848 64.897 316.979 66.8899 317.255 67.4594C317.255 67.4594 317.336 67.4898 317.445 67.4756C317.266 66.8505 316.91 65.5531 316.848 64.897Z" fill="#C66547"/>
<path d="M357.493 192.1C353.839 187.974 352.417 176.794 351.966 172.036C352.199 178.178 352.384 194.969 352.384 194.969C355.434 195.701 358.399 196.056 361.26 195.943C360.211 194.996 358.949 193.744 357.493 192.1Z" fill="#292947"/>
<path d="M347.238 84.6066C349.916 84.6066 352.087 82.436 352.087 79.7584C352.087 77.0808 349.916 74.9102 347.238 74.9102C344.561 74.9102 342.39 77.0808 342.39 79.7584C342.39 82.436 344.561 84.6066 347.238 84.6066Z" fill="#343456"/>
<path d="M355.768 79.7584C355.768 81.7733 354.135 83.4062 352.12 83.4062C350.106 83.4062 348.473 81.7727 348.473 79.7584C348.473 77.7441 350.106 76.1106 352.12 76.1106C354.135 76.1106 355.768 77.7435 355.768 79.7584Z" fill="#343456"/>
<path d="M344.53 130.442V120.162H345.64V121.35H345.776C345.86 121.22 345.977 121.054 346.126 120.853C346.279 120.649 346.496 120.467 346.779 120.308C347.064 120.146 347.45 120.065 347.937 120.065C348.567 120.065 349.121 120.222 349.602 120.537C350.082 120.851 350.457 121.298 350.726 121.875C350.995 122.453 351.13 123.134 351.13 123.919C351.13 124.711 350.995 125.398 350.726 125.978C350.457 126.556 350.084 127.004 349.607 127.322C349.13 127.637 348.58 127.794 347.957 127.794C347.476 127.794 347.092 127.714 346.803 127.555C346.514 127.393 346.292 127.21 346.136 127.005C345.98 126.798 345.86 126.626 345.776 126.489H345.679V130.442H344.53ZM345.659 123.9C345.659 124.465 345.742 124.963 345.907 125.394C346.073 125.823 346.315 126.158 346.633 126.402C346.951 126.642 347.34 126.762 347.801 126.762C348.281 126.762 348.682 126.635 349.003 126.382C349.328 126.126 349.571 125.782 349.733 125.351C349.899 124.916 349.981 124.432 349.981 123.9C349.981 123.374 349.9 122.901 349.738 122.479C349.579 122.054 349.337 121.718 349.013 121.471C348.692 121.221 348.288 121.096 347.801 121.096C347.333 121.096 346.941 121.215 346.623 121.452C346.305 121.685 346.065 122.013 345.902 122.435C345.74 122.854 345.659 123.342 345.659 123.9ZM352.882 127.638V120.162H353.992V121.291H354.07C354.206 120.921 354.453 120.621 354.81 120.391C355.167 120.16 355.569 120.045 356.017 120.045C356.101 120.045 356.207 120.047 356.333 120.05C356.46 120.053 356.556 120.058 356.62 120.065V121.233C356.582 121.223 356.492 121.208 356.353 121.189C356.217 121.166 356.072 121.155 355.92 121.155C355.556 121.155 355.232 121.231 354.946 121.384C354.664 121.533 354.44 121.741 354.274 122.007C354.112 122.269 354.031 122.57 354.031 122.907V127.638H352.882ZM347.567 144.794C346.892 144.794 346.3 144.633 345.791 144.312C345.284 143.991 344.888 143.541 344.603 142.964C344.321 142.386 344.179 141.711 344.179 140.939C344.179 140.16 344.321 139.48 344.603 138.9C344.888 138.319 345.284 137.868 345.791 137.546C346.3 137.225 346.892 137.065 347.567 137.065C348.242 137.065 348.833 137.225 349.339 137.546C349.848 137.868 350.244 138.319 350.527 138.9C350.812 139.48 350.955 140.16 350.955 140.939C350.955 141.711 350.812 142.386 350.527 142.964C350.244 143.541 349.848 143.991 349.339 144.312C348.833 144.633 348.242 144.794 347.567 144.794ZM347.567 143.762C348.08 143.762 348.502 143.631 348.833 143.368C349.164 143.105 349.409 142.759 349.568 142.331C349.727 141.903 349.806 141.439 349.806 140.939C349.806 140.439 349.727 139.974 349.568 139.542C349.409 139.11 349.164 138.762 348.833 138.496C348.502 138.229 348.08 138.096 347.567 138.096C347.054 138.096 346.633 138.229 346.302 138.496C345.971 138.762 345.726 139.11 345.567 139.542C345.408 139.974 345.328 140.439 345.328 140.939C345.328 141.439 345.408 141.903 345.567 142.331C345.726 142.759 345.971 143.105 346.302 143.368C346.633 143.631 347.054 143.762 347.567 143.762ZM356.992 139.829V140.9H352.63V139.829H356.992Z" fill="#85B552"/>
<path d="M347.781 127.675V128.648H343.907V127.675H347.781ZM345.036 125.884H346.185V133.009C346.185 133.334 346.232 133.577 346.326 133.74C346.423 133.899 346.547 134.006 346.696 134.061C346.848 134.113 347.009 134.139 347.178 134.139C347.304 134.139 347.408 134.132 347.489 134.119C347.57 134.103 347.635 134.09 347.684 134.08L347.918 135.112C347.84 135.141 347.731 135.171 347.591 135.2C347.452 135.232 347.275 135.248 347.061 135.248C346.736 135.248 346.418 135.179 346.107 135.039C345.799 134.9 345.542 134.687 345.338 134.402C345.137 134.116 345.036 133.756 345.036 133.321V125.884ZM352.564 135.307C351.843 135.307 351.222 135.148 350.699 134.83C350.18 134.509 349.779 134.061 349.497 133.486C349.218 132.909 349.078 132.237 349.078 131.471C349.078 130.706 349.218 130.031 349.497 129.447C349.779 128.859 350.172 128.402 350.675 128.074C351.181 127.743 351.772 127.577 352.447 127.577C352.836 127.577 353.221 127.642 353.6 127.772C353.98 127.902 354.326 128.113 354.637 128.405C354.949 128.694 355.197 129.077 355.382 129.554C355.567 130.031 355.659 130.618 355.659 131.316V131.802H349.896V130.809H354.491C354.491 130.388 354.407 130.011 354.238 129.68C354.072 129.349 353.836 129.088 353.527 128.897C353.222 128.705 352.862 128.609 352.447 128.609C351.989 128.609 351.593 128.723 351.259 128.95C350.928 129.174 350.673 129.466 350.495 129.826C350.316 130.186 350.227 130.573 350.227 130.985V131.647C350.227 132.211 350.325 132.69 350.519 133.082C350.717 133.472 350.991 133.769 351.342 133.973C351.692 134.174 352.099 134.275 352.564 134.275C352.865 134.275 353.138 134.233 353.381 134.148C353.628 134.061 353.84 133.931 354.019 133.759C354.197 133.584 354.335 133.366 354.433 133.107L355.542 133.418C355.426 133.795 355.229 134.126 354.953 134.411C354.678 134.694 354.337 134.914 353.931 135.073C353.526 135.229 353.07 135.307 352.564 135.307ZM349.826 146.349L348.794 146.641C348.729 146.469 348.633 146.302 348.507 146.14C348.383 145.974 348.214 145.838 348 145.731C347.786 145.624 347.512 145.57 347.178 145.57C346.72 145.57 346.339 145.676 346.034 145.887C345.732 146.094 345.581 146.359 345.581 146.68C345.581 146.966 345.685 147.191 345.893 147.357C346.1 147.522 346.425 147.66 346.866 147.77L347.976 148.043C348.644 148.205 349.143 148.454 349.47 148.788C349.798 149.119 349.962 149.545 349.962 150.068C349.962 150.496 349.839 150.879 349.592 151.217C349.349 151.554 349.008 151.82 348.57 152.015C348.132 152.21 347.622 152.307 347.041 152.307C346.279 152.307 345.648 152.141 345.148 151.81C344.648 151.479 344.332 150.996 344.199 150.36L345.289 150.087C345.393 150.49 345.589 150.791 345.878 150.993C346.17 151.194 346.551 151.294 347.022 151.294C347.557 151.294 347.982 151.181 348.297 150.954C348.615 150.723 348.774 150.448 348.774 150.126C348.774 149.867 348.683 149.649 348.502 149.474C348.32 149.296 348.041 149.163 347.664 149.075L346.418 148.783C345.734 148.621 345.231 148.369 344.91 148.028C344.592 147.684 344.433 147.255 344.433 146.739C344.433 146.317 344.551 145.944 344.788 145.619C345.028 145.295 345.354 145.04 345.766 144.855C346.182 144.67 346.652 144.577 347.178 144.577C347.918 144.577 348.498 144.74 348.92 145.064C349.345 145.389 349.647 145.817 349.826 146.349ZM354.942 144.675V145.648H351.068V144.675H354.942ZM352.197 142.884H353.346V150.009C353.346 150.334 353.393 150.577 353.487 150.74C353.584 150.899 353.708 151.006 353.857 151.061C354.01 151.113 354.17 151.139 354.339 151.139C354.465 151.139 354.569 151.132 354.65 151.119C354.732 151.103 354.796 151.09 354.845 151.08L355.079 152.112C355.001 152.141 354.892 152.171 354.753 152.2C354.613 152.232 354.436 152.248 354.222 152.248C353.898 152.248 353.58 152.179 353.268 152.039C352.96 151.9 352.703 151.687 352.499 151.402C352.298 151.116 352.197 150.756 352.197 150.321V142.884Z" fill="#85B552"/>
<path d="M355.983 133.056H343.478V134.055H355.983V133.056Z" fill="#85B552"/>
<path d="M355.983 114.191H343.478V115.19H355.983V114.191Z" fill="#85B552"/>
<path d="M359.259 221.271C313.686 220.009 294.979 229.302 275.012 225.707C244.542 220.378 209.407 219.55 171.845 221.064L178.463 146.745C215.832 153.864 250.138 154.344 280.718 146.745C316.035 153.395 330.045 159.164 362.847 152.24L359.259 221.271Z" fill="white"/>
<path d="M181.312 153.02C181.312 153.02 189.087 168.845 198.085 169.931L182.383 152.075L196.379 154.572C196.379 154.572 188.71 150.331 182.383 150.357C182.383 150.357 180.477 150.685 181.312 153.02Z" fill="#EFEDED"/>
<path d="M181.101 157.829C181.101 157.829 183.771 167.138 186.042 170.706C186.042 170.706 183.002 168.534 181.313 165.121L181.102 172.568C181.102 172.568 178.043 163.267 181.101 157.829Z" fill="#EFEDED"/>
<path d="M240.052 158.986C239.758 158.788 239.9 173.647 245.064 178.301L242.55 166.084L246.76 169.931C246.76 169.931 243.424 161.249 240.052 158.986Z" fill="#EFEDED"/>
<path d="M247.06 155.356L269.982 159.451C269.982 159.451 253.692 160.592 249.154 157.404L262.186 167.713C262.186 167.713 249.154 163.36 247.06 155.356Z" fill="#EFEDED"/>
<path d="M283.203 148.863C283.203 148.863 277.196 160.412 273.124 163.597C273.124 163.597 281.001 160.864 283.203 156.723L285.27 170.505C285.27 170.505 289.211 154.565 283.203 148.863Z" fill="#EFEDED"/>
<path d="M310.009 155.356C310.009 155.356 294.65 153.413 290.927 150.906C290.927 150.906 291.858 153.913 295.465 157.089L294.423 154.565C294.423 154.565 303.61 158.59 310.009 155.356Z" fill="#EFEDED"/>
<path d="M357.495 157.089L334.872 170.505C334.872 170.505 351.277 162.864 354.69 160.692L351.968 167.674C351.968 167.674 357.493 163.444 357.495 157.089Z" fill="#EFEDED"/>
<path d="M360.46 162.712L354.69 181.637C354.69 181.637 361.265 173.884 360.46 162.712Z" fill="#EFEDED"/>
<path d="M181.134 150.998L180.52 153.909C180.487 154.404 180.616 154.908 181.052 154.952L182.633 151.19L181.652 154.648C181.581 155.212 182.013 155.304 182.147 155.355L183.456 151.806L182.966 154.396C182.966 154.396 182.897 154.981 183.383 155.092C183.927 154.428 184.517 149.846 185.345 147.403L187.064 144.813L184.543 143.106C184.543 143.106 177.566 148.086 177.704 149.208C177.841 150.331 180.567 148.34 180.567 148.34C180.567 148.34 179.261 150.539 179.185 152.458C179.166 152.947 179.376 153.38 179.713 153.739L181.134 150.998Z" fill="#FF9A87"/>
<path d="M200.54 116.323C200.54 116.323 206.55 124.788 207.122 126.883C207.694 128.978 186.042 147.744 186.042 147.744L182.383 144.145L193.093 128.128L190.376 120.964L200.54 116.323Z" fill="#F2F2F2"/>
<path d="M202.128 118.608L191.22 123.192L193.092 128.128C195.235 126.181 200.685 123.074 203.932 121.295C203.303 120.338 202.673 119.405 202.128 118.608Z" fill="#DADAE0"/>
<path d="M188.296 95.0325L205.12 118.962L189.979 126.883C189.979 126.883 182.437 114.448 181.193 108.23C179.95 102.011 188.296 95.0325 188.296 95.0325Z" fill="#F07165"/>
<path d="M243.404 157.674L245.367 160.296C245.629 160.776 245.733 161.338 245.318 161.584L241.997 158.562L244.578 161.558C244.91 162.088 244.521 162.381 244.412 162.494L241.46 159.558L243.149 161.915C243.149 161.915 243.489 162.467 243.056 162.803C242.206 162.392 239.493 158.091 237.535 156.037L234.619 154.248L236.344 151.376C236.344 151.376 245.616 153.113 245.998 154.298C246.381 155.482 242.738 154.758 242.738 154.758C242.738 154.758 245.06 156.348 246.025 158.228C246.27 158.707 246.262 159.237 246.091 159.751L243.404 157.674Z" fill="#FF9A87"/>
<path d="M216.259 114.174C216.259 114.174 219.05 114.819 221.093 123.52C223.136 132.221 221.923 137.815 221.923 137.815L239.213 150.593L235.841 156.723C235.841 156.723 216.41 149.902 213.367 144.041C210.324 138.18 207.56 115.517 216.259 114.174Z" fill="#978AF4"/>
<path d="M286.834 152.08L288.044 154.799C288.18 155.276 288.158 155.796 287.741 155.93L285.408 152.583L287.091 155.759C287.279 156.295 286.875 156.476 286.755 156.554L284.732 153.357L285.753 155.787C285.753 155.787 285.943 156.345 285.491 156.555C284.821 156.019 283.285 151.662 281.965 149.446L279.743 147.274L281.852 145.077C281.852 145.077 289.716 148.488 289.816 149.614C289.916 150.74 286.834 149.364 286.834 149.364C286.834 149.364 288.571 151.241 289.047 153.101C289.167 153.575 289.053 154.043 288.798 154.464L286.834 152.08Z" fill="#FF9A87"/>
<path d="M284.733 145.627L282.826 144.383L279.691 149.191L281.598 150.435L284.733 145.627Z" fill="white"/>
<path d="M270.133 96.4365C262.381 97.22 254.701 130.556 255.253 133.156C256.155 137.403 276.802 152.537 280.229 149.148L283.055 144.864C284.479 139.686 275.413 135.731 269.233 131.44L279.791 107.21L270.133 96.4365Z" fill="#FFBC5E"/>
<path d="M361.685 158.097L361.112 160.809C361.082 161.271 361.202 161.74 361.608 161.781L363.081 158.277L362.167 161.498C362.1 162.024 362.504 162.11 362.628 162.157L363.848 158.851L363.391 161.263C363.391 161.263 363.327 161.808 363.779 161.911C364.285 161.293 364.835 157.024 365.607 154.749L367.208 152.337L364.859 150.747C364.859 150.747 358.361 155.385 358.489 156.431C358.617 157.477 361.155 155.622 361.155 155.622C361.155 155.622 359.939 157.671 359.869 159.457C359.851 159.912 360.047 160.317 360.361 160.65L361.685 158.097Z" fill="#FF9A87"/>
<path d="M379.76 125.798C379.76 125.798 385.358 133.683 385.892 135.635C386.425 137.585 365.607 154.748 365.607 154.748L362.847 152.24L372.823 136.794L370.293 130.122L379.76 125.798Z" fill="#FF9A87"/>
<path d="M368.354 105.966L384.025 128.256L369.922 135.634C369.922 135.634 362.896 124.051 361.737 118.259C360.579 112.467 368.354 105.966 368.354 105.966Z" fill="#A2DE6A"/>
</svg>
