<svg width="60" height="60" viewBox="0 0 60 60" fill="none" xmlns="http://www.w3.org/2000/svg">
<g id="Group 1000003793">
<path id="Vector" d="M30 60C46.5685 60 60 46.5685 60 30C60 13.4315 46.5685 0 30 0C13.4315 0 0 13.4315 0 30C0 46.5685 13.4315 60 30 60Z" fill="#F1F8FF"/>
<path id="Union" fill-rule="evenodd" clip-rule="evenodd" d="M29.3156 18.3436C29.4446 18.4182 29.5974 18.4401 29.7422 18.4045C29.9586 18.3498 30.0164 18.1506 30.0164 17.9405C30.0164 17.7337 30.0158 17.5269 30.0153 17.32V17.32V17.3199V17.3199V17.3199V17.3198V17.3198V17.3198V17.3197V17.3197C30.0139 16.7677 30.0125 16.2155 30.0211 15.6632C30.0211 15.3953 29.9742 15.1672 29.7515 15H29.4C29.3722 15.0517 29.3371 15.1031 29.302 15.1545C29.2267 15.2649 29.1514 15.3753 29.1477 15.4883C29.1219 16.3148 29.1289 17.1429 29.1477 17.9694C29.1488 18.0399 29.1643 18.1094 29.1932 18.1737C29.2221 18.2381 29.2637 18.2958 29.3156 18.3436ZM35.1651 36.1653C34.9424 36.02 34.7112 36.0872 34.5143 36.3504L34.4033 36.4988C34.1834 36.7927 33.9632 37.0872 33.7331 37.3754C33.3816 37.8 33.191 38.335 33.1949 38.8863V40.087C33.1949 40.1439 33.1886 40.2012 33.1824 40.2579L33.1824 40.2579C33.1796 40.2836 33.1768 40.3092 33.1746 40.3346H25.3484C25.3484 40.1935 25.3474 40.0547 25.3465 39.9173V39.9172C25.3446 39.6469 25.3427 39.3824 25.3484 39.1183C25.3718 38.2004 25.0797 37.4059 24.5086 36.6856C24.1986 36.285 23.9315 35.853 23.7118 35.3966C23.1165 34.1888 22.8696 32.8905 22.7923 31.5546C22.7743 31.2499 22.6009 31.071 22.3509 31.0742C22.1009 31.0773 21.9127 31.2859 21.9166 31.5944C21.9166 31.7505 21.9315 31.9072 21.9463 32.0634L21.9517 32.1202C22.1361 34.0498 22.6837 35.8395 23.9125 37.3871C24.1414 37.6746 24.3461 38.0472 24.3891 38.4027C24.4441 38.8472 24.4325 39.2998 24.4208 39.7551V39.7551V39.7552V39.7552V39.7552V39.7552V39.7553V39.7553V39.7553V39.7554C24.4159 39.9465 24.411 40.1382 24.411 40.3299C24.0039 40.458 23.9477 40.5369 23.9477 41.015C23.9477 41.3209 23.9482 41.6267 23.9488 41.9325L23.9488 41.9333V41.9333V41.9334V41.9334V41.9335V41.9335V41.9336V41.9336V41.9337V41.9337C23.9501 42.75 23.9515 43.5663 23.943 44.3821C23.943 44.6508 24.0094 44.857 24.2399 45H27.1186C27.3264 44.8609 27.485 44.6875 27.3905 44.4196C27.296 44.1516 27.0725 44.1157 26.8194 44.1188C26.387 44.124 25.9543 44.1223 25.5171 44.1205H25.517H25.5168H25.5167H25.5166H25.5165H25.5164H25.5163H25.5162H25.5161L25.5152 44.1205C25.295 44.1197 25.0737 44.1188 24.8508 44.1188V41.2541H33.6808V44.1188H31.4153H28.899C28.6506 44.1188 28.4303 44.1407 28.3233 44.4117C28.2162 44.6828 28.3897 44.8469 28.5756 44.9992H34.3175C34.5417 44.832 34.5917 44.6039 34.5893 44.3352C34.5831 43.613 34.5852 42.8908 34.5873 42.1686V42.1681C34.5883 41.8069 34.5893 41.4458 34.5893 41.0846C34.5893 40.5323 34.5737 40.5088 34.0792 40.2979C34.0792 40.1477 34.0799 39.9967 34.0806 39.8454V39.8453V39.8453V39.8452V39.8452V39.8452V39.8451V39.8451C34.082 39.5408 34.0834 39.2348 34.0792 38.9292C34.0723 38.5552 34.2011 38.1914 34.4417 37.9051C34.7151 37.5621 34.9815 37.2121 35.2362 36.8551C35.4315 36.5793 35.3995 36.3153 35.1651 36.1653ZM34.6919 24.1167C35.6161 24.2159 36.259 24.7128 36.6692 25.5299C37.0113 26.2143 37.1371 26.9525 37.1941 27.7056C37.3207 29.4618 37.116 31.1992 36.8035 32.9178C36.6921 33.5368 36.5045 34.1429 36.3177 34.7466L36.3177 34.7467L36.3175 34.7474C36.2829 34.8589 36.2485 34.9704 36.2145 35.0818C36.1231 35.3818 35.8965 35.4771 35.6466 35.3943C35.3966 35.3115 35.2888 35.0818 35.3888 34.8021C36.2106 32.4952 36.4059 30.1039 36.3012 27.6822C36.277 27.1111 36.1036 26.5291 35.9044 25.9869C35.6473 25.2956 35.0825 24.9714 34.3419 24.9714H29.8023C29.4492 24.9721 29.325 25.1167 29.3641 25.4635C29.4508 26.2377 29.9578 26.7869 30.7234 26.9478C31.7249 27.1598 32.7259 27.3738 33.7263 27.59C34.1271 27.6767 34.2443 27.8642 34.1443 28.2642C34.0967 28.4548 34.046 28.6448 33.9952 28.8347L33.9952 28.8347L33.9952 28.8348L33.9952 28.8348L33.9952 28.8348L33.9952 28.8349L33.9952 28.8349L33.9952 28.835L33.9951 28.835L33.9951 28.8353C33.9301 29.0785 33.8651 29.3217 33.8068 29.5664C33.7865 29.6712 33.7374 29.7682 33.6651 29.8467C33.5928 29.9252 33.5002 29.9821 33.3975 30.0109C31.539 30.6719 30.1812 31.8835 29.3766 33.6967C29.2289 34.0303 29.0367 34.1435 28.7704 34.0467C28.504 33.9498 28.4149 33.7092 28.5469 33.3967C28.9407 32.436 29.5382 31.5721 30.2984 30.8648C30.5262 30.6542 30.7689 30.46 31.0173 30.2612L31.0174 30.2612L31.0174 30.2612L31.0174 30.2611L31.0174 30.2611L31.0175 30.2611L31.0175 30.2611L31.0175 30.261L31.0176 30.261C31.1414 30.162 31.2666 30.0617 31.3921 29.9578L30.9812 29.6836C30.5374 30.2969 29.939 30.6039 29.193 30.5258C28.4469 30.4476 27.9595 30.0016 27.6563 29.3446C26.3306 29.8742 25.7447 29.718 24.9034 28.6243C24.2479 29.0829 23.5558 29.1321 22.7941 28.7415C22.7941 28.8804 22.7944 29.013 22.7946 29.1418V29.1421V29.1424V29.1426V29.1429C22.7952 29.3904 22.7956 29.6238 22.7941 29.861C22.7918 30.2219 22.6605 30.407 22.3746 30.4164C22.0887 30.4258 21.916 30.2273 21.916 29.8641V24.9425C21.9129 23.5472 23.3566 22.5559 24.7503 23.3129C24.9002 22.6699 25.2494 22.1754 25.8619 21.9122C26.4744 21.6489 27.0626 21.7286 27.6532 22.0871C27.893 21.5637 28.2454 21.1653 28.8094 20.9708C29.3734 20.7763 29.9047 20.8653 30.4242 21.1669C30.4368 21.1423 30.4495 21.1199 30.4617 21.0985L30.4617 21.0984C30.4789 21.0682 30.4949 21.0399 30.5078 21.0106C30.8859 20.1521 31.7147 19.6998 32.5928 19.8748C33.4521 20.0466 34.0654 20.8005 34.0771 21.7309C34.0826 22.4824 34.0826 23.234 34.0826 23.9863C34.0863 24.0143 34.0923 24.042 34.1005 24.0691C34.1659 24.0744 34.2323 24.0791 34.2993 24.0838L34.2994 24.0838C34.4288 24.093 34.5607 24.1023 34.6919 24.1167ZM23.7854 28.122C24.3159 28.1126 24.7167 27.7017 24.7331 27.1338C24.7406 26.8861 24.7388 26.6385 24.737 26.3868V26.3868V26.3867V26.3867V26.3867V26.3866V26.3866V26.3866V26.3866C24.7362 26.2746 24.7354 26.1618 24.7354 26.0479C24.7354 25.9245 24.7363 25.801 24.7371 25.6773V25.6773V25.6773V25.6773V25.6772V25.6772V25.6772V25.6771V25.6771C24.7389 25.4298 24.7406 25.1823 24.7354 24.9354C24.7213 24.3472 24.3198 23.9285 23.7839 23.9199C23.248 23.9113 22.8136 24.3323 22.8019 24.9104C22.7863 25.6521 22.7863 26.3939 22.8019 27.1361C22.8136 27.7142 23.255 28.1314 23.7854 28.122ZM26.8931 28.7079C27.2993 28.5735 27.5563 28.2243 27.5563 27.7415C27.5616 26.3765 27.5616 25.0112 27.5563 23.6457C27.554 23.509 27.5275 23.3739 27.4782 23.2465C27.4015 23.0441 27.2578 22.8742 27.071 22.7651C26.8842 22.6559 26.6656 22.614 26.4517 22.6465C25.9642 22.7262 25.6354 23.0801 25.6229 23.5941C25.6114 24.0849 25.614 24.5757 25.6167 25.0665C25.6178 25.2788 25.619 25.4911 25.619 25.7034C25.619 25.8898 25.6175 26.0766 25.616 26.2636C25.6122 26.7398 25.6084 27.2173 25.6291 27.6923C25.6411 27.9416 25.7167 28.1836 25.8486 28.3954C26.0674 28.7305 26.5103 28.8344 26.8931 28.7079ZM33.1732 28.3743L31.2898 27.9759V27.9728C31.2023 28.6915 31.5194 29.1774 32.0796 29.2524C32.6397 29.3274 33.0881 28.9805 33.1732 28.3743ZM30.3244 27.8309C30.2973 27.7915 30.2614 27.7591 30.2195 27.7361V27.7329C29.2445 27.3916 28.7063 26.6869 28.4461 25.7002C28.4461 26.0307 28.445 26.3612 28.4439 26.6918V26.6919V26.692V26.692V26.6921V26.6922V26.6923V26.6924V26.6925C28.4416 27.3542 28.4394 28.016 28.4461 28.6774C28.4461 29.2516 28.8477 29.6547 29.3836 29.6633C29.9367 29.6727 30.3476 29.2751 30.3757 28.6923C30.3921 28.4493 30.3921 28.2056 30.3757 27.9626C30.3691 27.9153 30.3515 27.8702 30.3244 27.8309ZM30.3398 24.0964C30.3558 24.0611 30.3678 24.0242 30.3757 23.9863V23.9792C30.3763 23.8791 30.3772 23.7791 30.3782 23.6791C30.381 23.3807 30.3837 23.0834 30.3773 22.7879C30.3664 22.1887 29.9609 21.7567 29.4141 21.7504C28.8547 21.745 28.4477 22.1754 28.4422 22.8004C28.4386 23.2618 28.4398 23.7228 28.441 24.184C28.4416 24.4147 28.4422 24.6453 28.4422 24.8761C28.4501 24.9632 28.4629 25.0498 28.4805 25.1354C28.7711 24.0745 29.5516 24.0581 30.3398 24.0964ZM31.2866 24.08H33.1982V24.073C33.1982 23.8541 33.1989 23.6364 33.1995 23.4196V23.4195V23.4193V23.4192V23.4191V23.4189V23.4188V23.4186V23.4185C33.2013 22.8511 33.203 22.2903 33.1928 21.7333C33.1842 21.1348 32.7639 20.7239 32.1999 20.7341C31.653 20.745 31.2671 21.1536 31.2624 21.7497C31.2588 22.2241 31.26 22.6985 31.2612 23.1731C31.2618 23.4105 31.2624 23.6479 31.2624 23.8855C31.2664 23.9508 31.2745 24.0157 31.2866 24.08ZM18.9639 28.1345C18.1358 28.1282 17.3078 28.1282 16.4797 28.1345C16.1914 28.1345 15.9977 28.3313 16 28.579C16.0024 28.8266 16.1938 29.004 16.4891 29.0079C16.7556 29.0115 17.0217 29.0103 17.2878 29.0091H17.2879H17.2879H17.288H17.2881H17.2882H17.2882H17.2883H17.2884H17.2885H17.2886H17.2886H17.2887H17.2888H17.2889C17.4218 29.0085 17.5546 29.0079 17.6874 29.0079H18.9444C19.2678 29.0079 19.4491 28.8415 19.4467 28.5688C19.4444 28.3126 19.2631 28.1368 18.9639 28.1345ZM40.1804 28.1345C41.0085 28.1282 41.8366 28.1282 42.6647 28.1345C42.9576 28.1376 43.149 28.3235 43.149 28.5759C43.149 28.8282 42.9584 29.0087 42.6639 29.0087H41.4077C41.2713 29.0087 41.1348 29.0093 40.9984 29.01C40.7255 29.0114 40.4526 29.0128 40.1797 29.0087C39.8781 29.0047 39.7031 28.8344 39.7031 28.5751C39.7031 28.3157 39.882 28.1345 40.1804 28.1345ZM22.2793 21.4864C22.3635 21.4661 22.4306 21.3743 22.5029 21.2753C22.5366 21.2292 22.5715 21.1815 22.6098 21.1387C22.5744 21.0823 22.545 21.0292 22.5176 20.9798C22.4647 20.8841 22.4195 20.8024 22.3535 20.738C21.795 20.1669 21.2286 19.6037 20.6614 19.0412C20.4325 18.8146 20.1786 18.7928 19.9904 18.9693C19.7888 19.1599 19.8029 19.4201 20.038 19.6599C20.238 19.8641 20.4408 20.0654 20.6435 20.2668C20.7449 20.3675 20.8463 20.4682 20.9473 20.5692C21.0266 20.6485 21.1045 20.7295 21.1823 20.8104L21.1823 20.8104L21.1823 20.8104C21.3752 21.011 21.5679 21.2114 21.7817 21.3856C21.8536 21.4351 21.9347 21.4695 22.0202 21.4868C22.1057 21.5041 22.1939 21.504 22.2793 21.4864ZM39.0252 18.8911C39.1277 18.9629 39.2205 19.028 39.2423 19.1115C39.2616 19.1957 39.2636 19.283 39.2481 19.368C39.2327 19.453 39.2002 19.534 39.1525 19.606C38.9826 19.8168 38.7854 20.0059 38.5883 20.1949L38.5882 20.1949C38.5107 20.2693 38.4331 20.3436 38.3572 20.4193L38.1306 20.6468C37.904 20.8744 37.6772 21.1022 37.4487 21.3278C37.1823 21.5911 36.9323 21.6043 36.737 21.4059C36.5417 21.2075 36.5667 20.9684 36.8151 20.7177C37.3635 20.1615 37.9119 19.6146 38.4682 19.0678C38.5351 18.9993 38.6209 18.9467 38.7204 18.8857L38.7204 18.8857L38.7204 18.8857L38.7205 18.8856L38.7206 18.8856C38.7709 18.8547 38.8248 18.8217 38.8814 18.7834C38.9272 18.8225 38.9773 18.8576 39.0252 18.8911ZM33.5096 19.1709C33.5245 19.1607 33.5472 19.1496 33.5735 19.1367C33.6466 19.1009 33.7476 19.0515 33.7861 18.9717C33.9507 18.6304 34.0904 18.2777 34.2041 17.9162C34.2744 17.6967 34.1666 17.5045 33.9463 17.4233C33.726 17.3421 33.5049 17.4038 33.3994 17.6303C33.2499 17.9576 33.1194 18.2933 33.0088 18.6357C32.9229 18.9107 33.1424 19.1748 33.5096 19.1709ZM25.4452 19.092C25.4107 19.0597 25.3833 19.0206 25.3647 18.9771C25.2073 18.633 25.0691 18.2804 24.9506 17.9209C24.8835 17.7155 24.9694 17.4999 25.1803 17.4475C25.3327 17.41 25.6139 17.4413 25.6693 17.5381C25.8244 17.8103 25.9446 18.1022 26.0745 18.4176L26.0745 18.4176C26.1239 18.5376 26.1748 18.661 26.2295 18.7881C26.1847 18.83 26.1435 18.8748 26.1031 18.9187L26.1031 18.9187L26.1031 18.9187C26.0186 19.0103 25.9382 19.0975 25.8389 19.1451C25.7971 19.1671 25.7511 19.1803 25.704 19.1837C25.6569 19.1871 25.6095 19.1808 25.565 19.165C25.5204 19.1492 25.4796 19.1244 25.4452 19.092ZM19.9557 24.3542C19.6313 24.1991 19.2957 24.0685 18.9518 23.9636C18.7308 23.8933 18.5401 23.9925 18.4534 24.212C18.3667 24.4315 18.4245 24.6542 18.6511 24.7589C18.9683 24.9068 19.2954 25.0326 19.6299 25.1354C19.9151 25.2221 20.1768 25.0143 20.1838 24.6464C20.1713 24.6293 20.1577 24.6048 20.1421 24.5768C20.0994 24.4999 20.0422 24.3972 19.9557 24.3542ZM40.1272 23.973C40.4452 23.8667 40.7248 24.0566 40.7358 24.4643C40.7203 24.4824 40.7029 24.508 40.683 24.5371C40.63 24.615 40.5596 24.7183 40.4623 24.7706C40.1834 24.9083 39.8946 25.0251 39.5983 25.1198C39.3249 25.2143 39.1054 25.1167 39.0124 24.8909C38.9132 24.6487 39.0109 24.4237 39.2866 24.3042C39.5624 24.1847 39.8421 24.0683 40.1272 23.973Z" fill="#1AA3FF"/>
</g>
</svg>
