<svg width="527" height="280" viewBox="0 0 527 280" fill="none" xmlns="http://www.w3.org/2000/svg">
<path d="M0 20C0 8.95431 8.95431 0 20 0H507C518.046 0 527 8.95431 527 20V280H0V20Z" fill="#F5DECF"/>
<path opacity="0.15" d="M373.509 87.2933C373.453 86.9016 373.202 86.5118 372.82 86.4113C372.225 86.2536 371.704 86.8171 371.346 87.3185C371.027 87.7655 370.695 88.1995 370.364 88.6344C371.323 86.3337 372.001 83.9155 372.365 81.4497C372.43 81.0056 372.484 80.5454 372.361 80.1144C372.237 79.6834 371.89 79.2849 371.444 79.2388C370.712 79.1626 370.237 79.9698 369.959 80.6508C369.021 82.9437 368.084 85.2362 367.148 87.5292C367.965 84.8304 368.497 82.0463 368.729 79.2359C371.289 70.2771 372.877 61.0408 373.427 51.7398C373.427 51.7398 359.626 50.1128 359.426 50.5002C358.983 60.0224 356.936 69.4685 353.337 78.7704C354.33 79.067 355.331 79.3364 356.338 79.5858C355.596 81.9196 354.976 84.2926 354.151 86.5982C353.527 88.3446 352.77 90.0672 351.789 91.6365C351.722 91.7447 351.649 91.8491 351.579 91.9559C351.462 92.1335 351.345 92.3107 351.223 92.484C351.144 92.5951 351.063 92.7043 350.982 92.8135C350.865 92.9703 350.744 93.1242 350.622 93.2771C347.773 92.9397 344.725 93.9755 342.273 95.5904C339.059 97.7072 336.535 100.7 333.623 103.216C326.172 109.655 316.003 112.842 306.21 111.805C296.475 110.775 287.653 105.886 278.605 102.15C272.744 99.7308 266.51 97.7912 260.206 96.7374C255.873 96.0132 251.508 95.7142 247.209 95.9593C247.264 95.0157 247.051 94.0828 246.495 93.3091C245.504 91.9316 243.669 91.3719 241.975 91.4812C240.281 91.5909 238.682 92.2641 237.121 92.93C236.461 93.2116 235.786 93.4674 235.079 93.7164L233.331 88.1849C234.975 87.5762 236.527 86.755 237.881 85.643C238.289 85.3076 238.67 84.9464 239.033 84.5688C240.421 84.6436 241.826 84.3115 243.107 83.7519C244.301 83.2311 245.457 82.4705 246.077 81.3245C246.981 79.6514 246.544 77.6186 246.024 75.7707C247.172 75.4557 248.25 74.8912 249.139 74.0981C251.053 72.3905 252.031 69.6937 251.656 67.1561C251.444 65.7145 250.795 64.3093 249.703 63.3444C249.404 63.0799 249.073 62.8537 248.721 62.6668C249.817 59.8423 250.6 56.8762 250.296 53.8857C249.926 50.2516 247.556 46.5996 243.994 45.7924C244.152 41.6215 242.068 37.7462 238.734 36.0308C235.4 34.3145 231.035 34.8703 228.237 37.3661C225.748 35.9605 222.939 36.2653 220.574 37.3399C218.209 38.4151 216.231 40.192 214.472 42.1035C210.997 40.1081 206.318 40.5944 203.271 43.1951C200.224 45.7953 199.006 50.338 200.345 54.1138C196.753 55.4734 194.232 58.8832 193.796 62.6071C193.427 65.7568 194.565 69.0287 196.733 71.3329C196.429 71.5522 196.142 71.7954 195.879 72.0648C193.678 74.3185 193.198 78.0239 194.633 80.8275C196.069 83.6315 199.26 85.3935 202.408 85.2522C203.082 85.2216 203.747 85.1027 204.392 84.9149C204.866 85.8536 205.472 86.7283 206.18 87.5059C207.649 89.1193 209.603 90.3565 211.761 90.6783C213.748 90.9744 216.478 90.2298 218.017 88.8256C220.203 89.4547 222.518 89.7226 224.829 89.6877C225.066 91.5598 225.304 93.4314 225.541 95.3036C224.368 95.3303 223.198 95.406 222.061 95.6822C220.447 96.0739 218.877 96.9189 217.964 98.3057C217.16 99.5269 216.988 101.209 217.678 102.469C213.677 104.128 209.938 106.395 206.611 109.164C201.748 113.211 197.759 118.313 195.101 124.085C191.556 131.78 190.286 140.351 186.907 148.121C185.313 151.787 183.179 155.341 179.996 157.759C176.813 160.178 172.423 161.282 168.711 159.797C160.721 156.601 159.944 144.126 151.986 140.852C151.307 140.573 150.608 140.388 149.899 140.284C150.29 138.935 150.745 137.599 151.037 136.225C151.517 133.964 151.485 131.418 150.1 129.568C149.245 128.426 147.969 127.677 146.677 127.074C145.887 126.706 145.077 126.385 144.251 126.104C143.264 123.602 142.276 121.1 141.288 118.599C141.097 118.115 140.899 117.62 140.551 117.234C140.203 116.848 139.667 116.588 139.161 116.709C138.619 116.84 138.253 117.376 138.152 117.924C138.051 118.472 138.165 119.034 138.281 119.579C138.886 122.418 139.336 124.423 139.975 126.775C139.904 126.726 139.831 126.683 139.752 126.649C139.256 126.436 138.656 126.484 138.2 126.773C137.761 127.052 137.501 127.504 137.363 128.01C137.073 127.488 136.873 127.256 136.548 127.174C136.034 127.042 135.457 127.188 135.067 127.548C134.757 127.834 134.589 128.212 134.506 128.624C134.399 128.528 134.285 128.466 134.151 128.431C133.637 128.3 133.059 128.446 132.67 128.805C132.049 129.377 131.985 130.31 132.072 131.164C131.799 130.996 131.465 130.921 131.139 131.016C130.66 131.156 129.859 131.746 129.917 133.521C129.958 134.785 130.254 136.02 130.784 137.138C131.045 137.688 131.499 138.278 132.148 138.193C132.475 138.15 132.76 137.93 132.952 137.654C134.069 141.371 135.685 145.054 137.491 148.037C135.735 152.468 136.254 157.676 138.104 162.126C140.183 167.123 143.736 171.351 147.577 175.363C154.101 182.178 163.858 185.481 173.279 184.977C182.701 184.473 191.74 180.357 198.938 174.258C204.051 169.926 208.27 164.632 211.687 158.852C212.997 166.058 213.748 173.366 213.925 180.688C213.991 183.406 213.983 186.16 214.669 188.79C215.122 190.529 215.928 192.23 217.106 193.568L217.286 225.193C217.286 225.193 286.327 225.908 286.647 225.001C287.491 210.613 286.461 196.13 283.584 181.928C284.989 178.612 285.189 174.824 284.678 171.234C284.087 167.08 282.616 163.111 281.217 159.156C278.016 150.103 275.151 140.932 272.616 131.67C284.693 136.851 298.389 138.057 311.427 136.077C326.266 133.824 340.308 127.635 352.977 119.589C355.723 117.845 358.546 115.857 359.854 112.879C360.837 110.643 360.82 108.166 360.327 105.74C363.224 102.948 371.604 94.6963 373.355 88.4601C373.464 88.0796 373.564 87.685 373.509 87.2933ZM365.066 80.9406C364.871 81.5342 364.675 82.1278 364.48 82.7219C364.598 82.1263 364.7 81.5279 364.787 80.927C364.879 80.9323 364.973 80.9352 365.066 80.9406ZM360.633 80.4702C360.48 81.1381 360.328 81.8065 360.175 82.4744C360.217 81.7725 360.243 81.0842 360.249 80.4027C360.378 80.4246 360.505 80.4498 360.633 80.4702Z" fill="#2E2854"/>
<path d="M215.06 189.555L216.077 222.53C216.077 222.53 285.114 221.509 285.411 220.594C285.894 206.169 284.496 191.695 281.254 177.551L215.06 189.555Z" fill="#6978C9"/>
<path opacity="0.15" d="M281.254 177.551L215.06 189.555L215.223 194.834C224.783 195.498 268.109 197.669 282.559 183.808C282.162 181.716 281.73 179.629 281.254 177.551Z" fill="#2E2854"/>
<path d="M225.173 193.789C225.173 193.789 228 202.182 218.22 203.129" stroke="#2E2854" stroke-miterlimit="10" stroke-linecap="round" stroke-linejoin="round"/>
<path d="M274.488 187.17C274.488 187.17 271.409 193.431 279.356 196.634" stroke="#2E2854" stroke-miterlimit="10" stroke-linecap="round" stroke-linejoin="round"/>
<path d="M220.138 86.3831C220.553 89.1027 220.968 91.8228 221.382 94.5424C221.382 94.5424 230.612 92.2364 231.097 92.2034L228.085 83.4485L220.138 86.3831Z" fill="#E8614E"/>
<path d="M228.084 83.4485L220.138 86.3831C220.277 87.2918 220.415 88.2004 220.553 89.109C224.4 89.2202 227.361 88.2955 229.408 87.2976L228.084 83.4485Z" fill="#D15046"/>
<path d="M213.748 85.7997C212.358 87.483 209.341 88.464 207.175 88.1965C205.009 87.9291 203.025 86.7413 201.516 85.1653C200.027 83.6106 198.942 81.6414 198.583 79.5193C198.583 79.5193 193.518 70.7018 192.975 70.3625C189.929 68.1764 188.168 64.319 188.51 60.5854C188.853 56.8514 191.287 53.3794 194.844 51.9301C193.41 48.1892 194.513 43.6169 197.494 40.9414C200.476 38.265 205.14 37.6612 208.665 39.5688C210.376 37.6136 212.307 35.7876 214.645 34.6533C216.982 33.5194 219.783 33.1442 222.306 34.4868C225.041 31.9215 229.39 31.2561 232.766 32.8884C236.142 34.5198 238.322 38.3412 238.27 42.515C241.851 43.2329 244.312 46.8238 244.773 50.4477C245.233 54.0706 244.09 57.6993 242.721 61.0859C242.721 61.0859 240.935 71.1726 240.965 72.1536C241.565 74.0597 242.15 76.2017 241.244 77.9831C240.653 79.1446 239.517 79.9338 238.336 80.4842C236.804 81.1997 235.081 81.5972 233.412 81.3283L213.748 85.7997Z" fill="#2E2854"/>
<path d="M199.473 68.6322C196.753 67.0421 192.974 67.6799 190.83 69.9879C188.687 72.2963 188.299 76.0124 189.805 78.7791C191.311 81.5463 194.546 83.2272 197.689 83.0073C200.832 82.7865 203.748 80.742 205.155 77.9234L199.473 68.6322Z" fill="#E8614E"/>
<path d="M193.084 76.9874C193.263 74.7916 195.008 72.8156 197.165 72.3671" stroke="#2E2854" stroke-miterlimit="10" stroke-linecap="round" stroke-linejoin="round"/>
<path d="M194.802 73.5985C195.48 75.0712 196.687 76.2963 198.164 76.9744" stroke="#2E2854" stroke-miterlimit="10" stroke-linecap="round" stroke-linejoin="round"/>
<path d="M236.287 61.8343C236.93 60.3524 238.3 59.2069 239.872 58.8361C241.443 58.4652 243.181 58.8788 244.418 59.9175C245.534 60.8543 246.218 62.243 246.466 63.6787C246.905 66.2057 245.994 68.9267 244.124 70.6819C242.254 72.4365 239.48 73.1714 236.987 72.5734L236.287 61.8343Z" fill="#E8614E"/>
<path d="M236.265 55.6171C237.609 60.204 238.805 64.9166 238.638 69.6932C238.47 74.4699 236.774 79.3801 233.159 82.5059C230.601 84.7173 227.285 85.8813 223.956 86.4739C218.052 87.5248 211.526 86.7594 206.868 82.9806C202.486 79.4262 200.397 73.8389 198.497 68.5269C200.779 65.1015 202.447 60.6991 203.123 56.4903C205.117 58.1435 208.168 57.9358 210.431 56.6738C212.693 55.4118 214.338 53.3013 216.913 51.4481C219.313 54.16 222.6 56.0748 226.143 56.8238C229.684 57.5727 233.465 57.1533 236.265 55.6171Z" fill="#E8614E"/>
<path d="M206.869 82.9805C208.321 84.1585 209.955 85.0433 211.694 85.6719C212.14 85.4084 212.54 85.0715 212.859 84.6575C214.253 82.8518 214.106 79.7051 211.722 78.1926C209.796 76.9709 206.946 77.5631 205.666 79.4503C205.31 79.9755 205.097 80.5768 205.007 81.1996C205.581 81.8345 206.195 82.4339 206.869 82.9805Z" fill="#D15046"/>
<path d="M237.864 71.6415C235.938 70.4198 233.088 71.0115 231.808 72.8991C230.528 74.7868 231.033 77.6539 232.88 78.9907C233.657 79.5532 234.618 79.8018 235.573 79.7707C237.104 77.5103 238.028 74.8207 238.423 72.0691C238.251 71.9172 238.069 71.7716 237.864 71.6415Z" fill="#D15046"/>
<path d="M207.157 66.7994C207.748 65.7626 208.758 64.9738 209.906 64.652C211.055 64.3297 212.328 64.4787 213.372 65.0564" stroke="#2E2854" stroke-miterlimit="10" stroke-linecap="round" stroke-linejoin="round"/>
<path d="M222.691 62.5562C223.69 63.2512 224.688 63.9468 225.613 64.9942C224.937 65.4175 224.26 65.8403 223.584 66.2625" stroke="#2E2854" stroke-miterlimit="10" stroke-linecap="round" stroke-linejoin="round"/>
<path d="M227.13 62.2247C227.711 61.2374 228.699 60.4982 229.81 60.2196C230.921 59.9405 232.141 60.1259 233.119 60.7219" stroke="#2E2854" stroke-miterlimit="10" stroke-linecap="round" stroke-linejoin="round"/>
<path d="M228.514 68.6152C223.517 69.8763 218.582 71.3824 213.66 73.5608C215.508 76.443 219.356 77.8676 222.634 76.8838C225.914 75.9004 228.342 72.592 228.514 68.6152Z" fill="#2E2854"/>
<path d="M222.094 73.7491C220.763 74.2505 219.809 75.5839 219.744 77.1531C220.714 77.2434 221.697 77.1648 222.634 76.8837C223.96 76.4862 225.143 75.7038 226.097 74.6553C225.082 73.6341 223.45 73.2385 222.094 73.7491Z" fill="#D14B56"/>
<path d="M213.66 73.5613C214.006 74.1015 214.422 74.5903 214.892 75.0218C219.093 72.8196 223.656 71.1155 228.364 69.9534C228.442 69.5176 228.494 69.0715 228.514 68.6157C223.517 69.8763 218.582 71.3829 213.66 73.5613Z" fill="white"/>
<path d="M358.302 80.8483C359.254 77.6923 360.206 74.5363 361.159 71.3799C361.344 70.7678 361.619 70.064 362.237 69.9009C362.792 69.7548 363.374 70.1591 363.621 70.6775C363.867 71.1954 363.858 71.7949 363.831 72.3681C363.666 75.9474 363.016 79.5028 361.905 82.9092L358.302 80.8483Z" fill="#E8614E"/>
<path d="M358.302 80.8483C359.254 77.6923 360.206 74.5363 361.159 71.3799C361.344 70.7678 361.619 70.064 362.237 69.9009C362.792 69.7548 363.374 70.1591 363.621 70.6775C363.867 71.1954 363.858 71.7949 363.831 72.3681C363.666 75.9474 363.016 79.5028 361.905 82.9092L358.302 80.8483Z" stroke="#2E2854" stroke-miterlimit="10" stroke-linecap="round" stroke-linejoin="round"/>
<path d="M361.74 82.9641C362.849 80.0421 363.958 77.1196 365.068 74.1975C365.329 73.5097 365.784 72.6904 366.518 72.7487C366.965 72.7836 367.322 73.1734 367.456 73.601C367.59 74.0286 367.547 74.4902 367.493 74.9358C367.076 78.3549 366.066 81.7011 364.521 84.7799L361.74 82.9641Z" fill="#E8614E"/>
<path d="M361.74 82.9641C362.849 80.0421 363.958 77.1196 365.068 74.1975C365.329 73.5097 365.784 72.6904 366.518 72.7487C366.965 72.7836 367.322 73.1734 367.456 73.601C367.59 74.0286 367.547 74.4902 367.493 74.9358C367.076 78.3549 366.066 81.7011 364.521 84.7799L361.74 82.9641Z" stroke="#2E2854" stroke-miterlimit="10" stroke-linecap="round" stroke-linejoin="round"/>
<path d="M348.405 72.7351C353.179 74.0311 358.083 74.848 363.343 74.5927C365.97 65.0165 367.472 55.1322 367.809 45.208C367.809 45.208 353.972 43.928 353.781 44.3207C353.578 53.8512 351.769 63.3458 348.405 72.7351Z" fill="#61C9BB"/>
<path d="M349.723 68.7865C349.313 70.1043 348.876 71.4212 348.405 72.7351C353.179 74.0311 358.083 74.848 363.343 74.5927C363.744 73.1317 364.109 71.6609 364.458 70.1863C359.515 70.2232 354.57 69.7529 349.723 68.7865Z" fill="#8CDED3"/>
<path d="M353.781 44.3207C353.75 45.7691 353.678 47.217 353.573 48.6634C358.221 49.2634 362.92 49.4614 367.602 49.2546C367.691 47.9067 367.763 46.5583 367.809 45.2085C367.809 45.2085 353.972 43.928 353.781 44.3207Z" fill="#8CDED3"/>
<path d="M362.811 60.3568C363.035 58.373 361.451 56.3611 359.471 56.1126C357.302 55.8408 355.34 57.5998 355.165 59.5884C354.99 61.5775 356.622 63.5496 358.608 63.7491C360.595 63.9491 362.588 62.3405 362.811 60.3568Z" fill="#8CDED3"/>
<path d="M355.105 100.518C355.001 100.47 366.717 89.5701 368.661 81.9195C368.758 81.5361 368.848 81.1385 368.783 80.7488C368.717 80.359 368.457 79.9755 368.073 79.8843C367.473 79.7416 366.967 80.3182 366.622 80.8284C365.872 81.936 365.062 82.9849 364.311 84.0882L354.173 78.7626C354.173 78.7626 347.335 86.6098 345.137 88.4072L355.105 100.518Z" fill="#E8614E"/>
<path d="M366.577 86.6481C367.535 85.0182 368.283 83.4072 368.661 81.9195C368.758 81.536 368.848 81.1385 368.783 80.7487C368.717 80.359 368.457 79.9755 368.073 79.8843C367.473 79.7415 366.968 80.3182 366.622 80.8283C365.873 81.936 365.062 82.9849 364.311 84.0882" stroke="#2E2854" stroke-miterlimit="10" stroke-linecap="round" stroke-linejoin="round"/>
<path d="M355.105 100.518C355.075 100.504 356.03 99.5851 357.448 98.1052C356.458 89.5959 351.128 86.7685 347.802 85.8007C346.72 86.9379 345.749 87.9067 345.138 88.4067L355.105 100.518Z" fill="#D15046"/>
<path d="M354.636 79.7164C355.326 76.3037 356.016 72.891 356.707 69.4787C356.832 68.8608 356.965 68.223 357.327 67.7066C357.69 67.1911 358.347 66.8261 358.952 67.0003C359.84 67.2552 360.076 68.3851 360.115 69.3074C360.285 73.4074 359.692 77.538 358.376 81.425L354.636 79.7164Z" fill="#E8614E"/>
<path d="M354.636 79.7164C355.326 76.3037 356.016 72.891 356.707 69.4787C356.832 68.8608 356.965 68.223 357.327 67.7066C357.69 67.1911 358.347 66.8261 358.952 67.0003C359.84 67.2552 360.076 68.3851 360.115 69.3074C360.285 73.4074 359.692 77.538 358.376 81.425L354.636 79.7164Z" stroke="#2E2854" stroke-miterlimit="10" stroke-linecap="round" stroke-linejoin="round"/>
<path d="M345.138 88.4072C347.187 86.204 348.475 83.3975 349.416 80.5396C350.358 77.6826 350.986 74.73 351.916 71.8677C352.081 71.3609 352.262 70.8435 352.607 70.4377C352.953 70.032 353.502 69.7563 354.02 69.8791C354.868 70.0805 355.156 71.1265 355.239 71.9939C355.452 74.2067 355.357 76.4497 355.192 78.9009C358.761 79.5494 362.086 81.4666 364.436 84.2309" fill="#E8614E"/>
<path d="M345.138 88.4072L350.951 87.149C349.578 86.3443 348.235 85.8929 347.182 85.6351C346.596 86.6273 345.924 87.5621 345.138 88.4072Z" fill="#D15046"/>
<path d="M349.112 81.4244C349.217 81.1308 349.318 80.8356 349.416 80.5396C350.357 77.6826 350.986 74.73 351.915 71.8677C352.08 71.3609 352.261 70.8435 352.607 70.4377C352.953 70.032 353.502 69.7563 354.02 69.8791C354.868 70.0805 355.155 71.1265 355.239 71.9939C355.452 74.2067 355.357 76.4497 355.192 78.9009C358.761 79.5494 362.086 81.4666 364.435 84.2309" stroke="#2E2854" stroke-miterlimit="10" stroke-linecap="round" stroke-linejoin="round"/>
<path d="M264.075 125.394C277.439 132.226 293.171 133.702 307.949 131.076C322.727 128.451 336.609 121.912 349.071 113.55C351.773 111.738 354.545 109.679 355.778 106.67C357.207 103.182 356.25 99.1842 354.835 95.6908C353.567 92.5562 351.73 89.3609 348.646 87.9732C345.136 86.3948 340.926 87.6306 337.766 89.8274C334.606 92.0243 332.159 95.0793 329.311 97.6683C322.023 104.292 311.938 107.733 302.122 106.943C292.365 106.158 283.422 101.492 274.283 97.9848C268.364 95.7132 262.082 93.9308 255.754 93.0358L264.075 125.394Z" fill="#6F4D94"/>
<path opacity="0.15" d="M349.071 113.55C350.079 112.873 351.096 112.163 352.04 111.382C301.924 131.91 265.694 115.909 265.694 115.909L262.013 117.377L264.074 125.394C277.438 132.225 293.17 133.702 307.948 131.076C322.727 128.451 336.608 121.912 349.071 113.55Z" fill="#2E2854"/>
<path d="M264.075 125.394C277.439 132.226 293.171 133.702 307.949 131.076C322.727 128.451 336.609 121.912 349.071 113.55C351.772 111.738 354.545 109.679 355.778 106.67" stroke="#2E2854" stroke-miterlimit="10" stroke-linecap="round" stroke-linejoin="round"/>
<path d="M136.571 150.421C133.162 146.431 129.888 139.523 128.476 133.213C128.476 133.213 136.899 128.663 137.202 128.92C135.966 125.126 135.371 122.815 134.44 118.934C134.311 118.392 134.183 117.833 134.27 117.283C134.357 116.732 134.71 116.187 135.248 116.043C135.751 115.908 136.293 116.155 136.65 116.533C137.009 116.91 137.218 117.4 137.422 117.878C138.962 121.511 140.503 125.142 142.044 128.774L145.627 143.565L136.571 150.421Z" fill="#E8614E"/>
<path d="M144.169 137.544C137.06 137.95 134.231 143.392 133.345 145.711C134.367 147.509 135.461 149.121 136.572 150.42L145.628 143.565L144.169 137.544Z" fill="#D15046"/>
<path d="M137.203 128.92C135.966 125.126 135.371 122.815 134.441 118.934C134.311 118.392 134.184 117.833 134.27 117.283C134.357 116.732 134.71 116.187 135.248 116.043C135.751 115.908 136.293 116.155 136.651 116.533C137.009 116.91 137.219 117.4 137.422 117.878C138.963 121.511 140.503 125.142 142.044 128.774" stroke="#2E2854" stroke-miterlimit="10" stroke-linecap="round" stroke-linejoin="round"/>
<path d="M126.43 133.082C126.503 134.344 126.829 135.572 127.388 136.675C127.662 137.219 128.131 137.798 128.777 137.696C129.196 137.631 129.543 137.276 129.704 136.889C129.865 136.503 129.874 136.085 129.866 135.681C129.842 134.503 129.691 133.337 129.418 132.209C129.309 131.758 129.173 131.3 128.871 130.953C128.571 130.606 128.064 130.394 127.589 130.546C127.113 130.699 126.327 131.308 126.43 133.082Z" fill="#E8614E"/>
<path d="M126.43 133.082C126.503 134.344 126.829 135.572 127.388 136.675C127.662 137.219 128.131 137.798 128.777 137.696C129.196 137.631 129.543 137.276 129.704 136.889C129.865 136.503 129.874 136.085 129.866 135.681C129.842 134.503 129.691 133.337 129.418 132.209C129.309 131.758 129.173 131.3 128.871 130.953C128.571 130.606 128.064 130.394 127.589 130.546C127.113 130.699 126.327 131.308 126.43 133.082Z" stroke="#2E2854" stroke-miterlimit="10" stroke-linecap="round" stroke-linejoin="round"/>
<path d="M132.049 129.93C132.853 131.398 133.256 133.083 133.202 134.757C133.188 135.199 133.139 135.652 132.946 136.05C132.751 136.449 132.388 136.787 131.95 136.848C131.175 136.956 130.559 136.223 130.175 135.542C129.364 134.105 128.812 132.522 128.554 130.891C128.411 129.985 128.404 128.936 129.063 128.298C129.444 127.928 130.017 127.768 130.534 127.886C131.053 128.005 131.267 128.502 132.049 129.93Z" fill="#E8614E"/>
<path d="M132.049 129.93C132.853 131.398 133.256 133.083 133.202 134.757C133.188 135.199 133.139 135.652 132.946 136.05C132.751 136.449 132.388 136.787 131.95 136.848C131.175 136.956 130.559 136.223 130.175 135.542C129.364 134.105 128.812 132.522 128.554 130.891C128.411 129.985 128.404 128.936 129.063 128.298C129.444 127.928 130.017 127.768 130.534 127.886C131.053 128.005 131.267 128.502 132.049 129.93Z" stroke="#2E2854" stroke-miterlimit="10" stroke-linecap="round" stroke-linejoin="round"/>
<path d="M134.414 128.614C135.219 130.081 135.621 131.767 135.568 133.44C135.553 133.883 135.504 134.335 135.311 134.734C135.117 135.132 134.754 135.471 134.315 135.532C133.54 135.64 132.925 134.907 132.54 134.226C131.729 132.789 131.177 131.206 130.92 129.575C130.776 128.669 130.77 127.62 131.428 126.981C131.809 126.612 132.382 126.452 132.899 126.57C133.418 126.689 133.631 127.186 134.414 128.614Z" fill="#E8614E"/>
<path d="M134.414 128.614C135.219 130.081 135.621 131.767 135.568 133.44C135.553 133.883 135.504 134.335 135.311 134.734C135.117 135.132 134.754 135.471 134.315 135.532C133.54 135.64 132.925 134.907 132.54 134.226C131.729 132.789 131.177 131.206 130.92 129.575C130.776 128.669 130.77 127.62 131.428 126.981C131.809 126.612 132.382 126.452 132.899 126.57C133.418 126.689 133.631 127.186 134.414 128.614Z" stroke="#2E2854" stroke-miterlimit="10" stroke-linecap="round" stroke-linejoin="round"/>
<path d="M137.412 127.649C138.218 129.288 139.044 131.022 138.932 132.846C138.893 133.481 138.688 134.177 138.136 134.493C137.608 134.794 136.915 134.638 136.43 134.272C135.944 133.907 135.623 133.369 135.318 132.844C134.553 131.522 133.801 130.133 133.655 128.613C133.567 127.693 133.774 126.643 134.541 126.129C134.99 125.828 135.589 125.765 136.09 125.965C136.591 126.166 136.922 126.652 137.412 127.649Z" fill="#E8614E"/>
<path d="M137.412 127.649C138.218 129.288 139.044 131.022 138.932 132.846C138.893 133.481 138.688 134.177 138.136 134.493C137.608 134.794 136.915 134.638 136.43 134.272C135.944 133.907 135.623 133.369 135.318 132.844C134.553 131.522 133.801 130.133 133.655 128.613C133.567 127.693 133.774 126.643 134.541 126.129C134.99 125.828 135.589 125.765 136.09 125.965C136.591 126.166 136.922 126.652 137.412 127.649Z" stroke="#2E2854" stroke-miterlimit="10" stroke-linecap="round" stroke-linejoin="round"/>
<path d="M139.192 137.351C138.645 134.49 139.542 131.39 141.273 129.375C139.978 128.638 138.827 127.647 137.906 126.476C137.674 126.182 137.445 125.824 137.529 125.459C137.683 124.79 138.628 124.772 139.293 124.941C140.569 125.263 141.818 125.69 143.024 126.216C144.331 126.786 145.625 127.503 146.508 128.623C147.94 130.438 148.036 132.982 147.612 135.255C147.189 137.527 146.318 139.708 146.029 142.001" fill="#E8614E"/>
<path d="M147.038 137.647C144.444 137.338 142.304 137.63 140.548 138.273L146.03 142C146.216 140.52 146.644 139.088 147.038 137.647Z" fill="#D15046"/>
<path d="M139.192 137.351C138.645 134.49 139.542 131.39 141.273 129.375C139.978 128.638 138.827 127.647 137.906 126.476C137.674 126.182 137.445 125.824 137.529 125.459C137.683 124.79 138.628 124.772 139.293 124.941C140.569 125.263 141.818 125.69 143.024 126.216C144.331 126.786 145.625 127.503 146.508 128.623C147.94 130.438 148.036 132.982 147.612 135.255C147.189 137.527 146.318 139.708 146.029 142.001" stroke="#2E2854" stroke-miterlimit="10" stroke-linecap="round" stroke-linejoin="round"/>
<path d="M212.416 148.977C208.727 157.661 203.495 165.794 196.453 172.072C189.41 178.35 180.477 182.691 171.071 183.432C161.666 184.173 151.828 181.115 145.135 174.466C141.195 170.552 137.536 166.415 135.333 161.472C133.13 156.528 132.574 150.583 135.074 145.782C137.573 140.982 143.62 137.923 148.676 139.856C156.714 142.929 157.805 155.38 165.872 158.375C169.62 159.766 173.981 158.552 177.103 156.054C180.224 153.557 182.269 149.95 183.77 146.245C186.952 138.393 188.007 129.793 191.357 122.011C193.87 116.174 197.728 110.974 202.489 106.805L212.416 148.977Z" fill="#6F4D94"/>
<path opacity="0.15" d="M171.072 183.432C180.478 182.691 189.411 178.35 196.454 172.072C203.496 165.793 208.727 157.66 212.417 148.977L208.706 133.213C205.606 134.244 202.694 135.269 202.694 135.269C202.694 135.269 199.046 172.735 174.49 176.403C157.123 178.997 143.573 170.213 137.127 164.847C139.285 168.356 142.128 171.477 145.137 174.466C151.829 181.115 161.667 184.173 171.072 183.432Z" fill="#2E2854"/>
<path d="M212.416 148.977C208.727 157.661 203.495 165.794 196.453 172.072C189.41 178.349 180.477 182.691 171.071 183.432C161.666 184.173 151.828 181.115 145.135 174.466C141.195 170.552 137.536 166.415 135.333 161.472" stroke="#2E2854" stroke-miterlimit="10" stroke-linecap="round" stroke-linejoin="round"/>
<path d="M265.695 115.909C269.229 129.115 273.449 142.137 278.328 154.907C279.826 158.826 281.396 162.757 282.091 166.894C282.785 171.032 282.54 175.46 280.555 179.156C278.011 183.889 272.996 186.787 267.92 188.549C260.481 191.132 252.529 191.777 244.673 192.32C238.175 192.768 231.673 193.159 225.172 193.549C222.482 193.711 219.638 193.841 217.252 192.59C214.845 191.327 213.296 188.816 212.544 186.203C211.793 183.591 211.732 180.838 211.597 178.123C210.875 163.492 207.859 148.976 202.693 135.269L202.49 106.805C209.507 100.66 218.484 96.7573 227.999 96.3617C236.638 92.3495 246.248 91.6908 255.754 93.0353L265.695 115.909Z" fill="#6F4D94"/>
<path d="M265.694 115.909C269.229 129.115 273.448 142.137 278.328 154.907C279.825 158.826 281.396 162.757 282.091 166.894C282.785 171.032 282.54 175.46 280.554 179.156C278.011 183.889 272.996 186.787 267.92 188.549C260.48 191.132 252.528 191.777 244.672 192.32C238.175 192.768 231.673 193.158 225.172 193.549C222.482 193.711 219.638 193.841 217.252 192.59C214.844 191.327 213.296 188.816 212.544 186.203C211.792 183.591 211.732 180.838 211.597 178.123C210.875 163.492 207.859 148.976 202.693 135.269" stroke="#2E2854" stroke-miterlimit="10" stroke-linecap="round" stroke-linejoin="round"/>
<path opacity="0.15" d="M227.999 96.3622C222.408 96.5947 217.007 98.0455 212.076 100.443C211.862 102.081 212.47 104.845 218.822 105.246C227.936 105.822 240.993 102.494 243.938 96.6694C244.764 95.0351 245.126 93.6232 245.22 92.4364C239.274 92.6393 233.444 93.8338 227.999 96.3622Z" fill="#2E2854"/>
<path d="M227.455 91.7436C225.882 92.2746 224.198 92.3615 222.538 92.4178C220.878 92.4741 219.199 92.5071 217.596 92.9396C215.992 93.3716 214.444 94.256 213.567 95.665C212.689 97.0746 212.637 99.0598 213.725 100.315C214.661 101.394 216.176 101.736 217.593 101.919C223.802 102.723 230.163 101.627 236.015 99.4025C238.045 98.6317 240.101 97.6682 241.462 95.9766C242.823 94.2856 243.274 91.6839 241.962 89.9535C240.937 88.6012 239.088 88.0882 237.398 88.2396C235.707 88.3915 234.125 89.1051 232.581 89.8103C231.038 90.5151 229.414 91.0825 227.455 91.7436Z" fill="#6F4D94"/>
<path d="M227.455 91.7436C225.882 92.2746 224.198 92.3615 222.538 92.4178C220.878 92.4741 219.199 92.5071 217.596 92.9396C215.992 93.3716 214.444 94.256 213.567 95.665C212.689 97.0746 212.637 99.0598 213.725 100.315C214.661 101.394 216.176 101.736 217.593 101.919C223.802 102.723 230.163 101.627 236.015 99.4025C238.045 98.6317 240.101 97.6682 241.462 95.9766C242.823 94.2856 243.274 91.6839 241.962 89.9535C240.937 88.6012 239.088 88.0882 237.398 88.2396C235.707 88.3915 234.125 89.1051 232.581 89.8103C231.038 90.5151 229.414 91.0825 227.455 91.7436Z" stroke="#2E2854" stroke-miterlimit="10" stroke-linecap="round" stroke-linejoin="round"/>
<path opacity="0.15" d="M188.236 217.763C185.01 205.395 173.773 195.437 161.334 191.092C165.154 193.232 165.917 198.248 167.438 202.353C170.325 210.148 179.059 215.659 188.236 217.763Z" fill="#2E2854"/>
<path d="M188.236 217.763C185.593 205.258 174.91 193.672 162.689 188.749C166.405 191.065 166.932 196.111 168.258 200.284C170.776 208.206 179.168 215.23 188.236 217.763Z" fill="#FF7D5C"/>
<path d="M171.214 197.614C176.493 203.525 183.654 211.296 188.236 217.763" stroke="#2E2854" stroke-miterlimit="10" stroke-linecap="round" stroke-linejoin="round"/>
<path opacity="0.15" d="M188.095 221.169C188.74 215.051 192.769 209.158 197.754 205.554C202.739 201.948 208.662 199.895 214.243 198.39C210.43 209.832 200.088 219.363 188.095 221.169Z" fill="#2E2854"/>
<path d="M188.095 221.169C187.998 215.017 191.405 208.947 195.919 204.768C200.433 200.588 206.066 197.837 211.425 195.669C209.018 207.489 199.783 217.931 188.095 221.169Z" fill="#F7A145"/>
<path d="M203.495 203.871C198.683 209.937 193.557 215.68 188.095 221.169" stroke="#2E2854" stroke-miterlimit="10" stroke-linecap="round" stroke-linejoin="round"/>
<path d="M180.923 160.546C187.317 182.22 189.611 205.095 187.65 227.607" stroke="#2E2854" stroke-miterlimit="10" stroke-linecap="round" stroke-linejoin="round"/>
<path opacity="0.15" d="M188.936 169.13C184.41 171.864 179.523 173.999 174.441 175.461C171.839 165.175 167.225 155.48 160.613 147.3C165.575 144.501 170.736 142.056 176.303 140.755C183.043 148.43 187.612 157.992 188.936 169.13Z" fill="#2E2854"/>
<path d="M190.05 165.894C185.524 168.628 180.637 170.763 175.555 172.225C172.953 161.939 168.339 152.245 161.727 144.064C166.689 141.265 171.851 138.82 177.417 137.52C184.157 145.195 188.726 154.757 190.05 165.894Z" fill="#61C9BB"/>
<path d="M180.038 140.756C179.205 139.644 178.333 138.563 177.417 137.52C171.851 138.821 166.689 141.266 161.727 144.065C162.706 145.276 163.636 146.525 164.528 147.799C170.048 145.939 175.174 143.561 180.038 140.756Z" fill="#8CDED3"/>
<path d="M174.604 152.496C173.771 154.31 174.645 156.716 176.449 157.573C178.252 158.429 180.669 157.583 181.547 155.791C182.425 153.998 181.654 151.477 179.657 150.589C177.833 149.779 175.438 150.682 174.604 152.496Z" fill="#8CDED3"/>
<path d="M190.05 165.894C189.844 164.16 189.55 162.469 189.191 160.812C184.115 162.528 179.159 164.69 174.106 167.217C174.641 168.869 175.128 170.538 175.555 172.226C180.637 170.763 185.524 168.628 190.05 165.894Z" fill="#8CDED3"/>
<path d="M202.294 175.804C195.914 181.917 190.921 189.465 187.773 197.72" stroke="#2E2854" stroke-miterlimit="10" stroke-linecap="round" stroke-linejoin="round"/>
<path opacity="0.15" d="M192.788 178.823C195.615 183.292 199.034 187.385 202.926 190.965C209.85 182.926 218.31 176.315 227.881 171.952C224.693 167.23 221.169 162.736 216.769 159.085C207.31 162.939 198.95 169.451 192.788 178.823Z" fill="#2E2854"/>
<path d="M192.788 176.663C195.615 181.132 199.034 185.225 202.926 188.805C209.85 180.766 218.31 174.155 227.881 169.792C224.693 165.07 221.169 160.576 216.769 156.926C207.31 160.779 198.95 167.291 192.788 176.663Z" fill="#61C9BB"/>
<path d="M216.769 156.926C215.483 157.449 214.22 158.027 212.978 158.649C216.075 163.332 219.598 167.749 223.706 171.881C225.073 171.139 226.463 170.438 227.881 169.792C224.693 165.07 221.168 160.576 216.769 156.926Z" fill="#8CDED3"/>
<path d="M195.828 172.501C194.766 173.822 193.747 175.204 192.788 176.663C195.615 181.132 199.033 185.225 202.925 188.805C204.061 187.486 205.243 186.21 206.459 184.972C203.069 180.453 199.601 176.304 195.828 172.501Z" fill="#8CDED3"/>
<path d="M208.674 175.297C210.67 175.337 212.528 173.575 212.592 171.58C212.657 169.585 210.918 167.705 208.924 167.616C206.741 167.518 204.925 169.428 204.909 171.424C204.893 173.421 206.678 175.257 208.674 175.297Z" fill="#8CDED3"/>
<path opacity="0.15" d="M351.308 214.933C357.109 203.544 370.49 195.837 383.572 194.259C379.382 195.53 377.562 200.266 375.196 203.951C370.707 210.946 360.722 214.845 351.308 214.933Z" fill="#2E2854"/>
<path d="M351.308 214.933C356.298 203.167 369.004 193.844 381.942 191.355C377.851 192.916 376.367 197.768 374.265 201.608C370.276 208.901 360.693 214.186 351.308 214.933Z" fill="#FF7D5C"/>
<path d="M371.876 198.421C365.562 203.211 357.044 209.465 351.308 214.933" stroke="#2E2854" stroke-miterlimit="10" stroke-linecap="round" stroke-linejoin="round"/>
<path opacity="0.15" d="M350.794 218.303C351.682 212.216 349.095 206.354 345.156 201.629C341.218 196.902 335.986 193.448 330.951 190.608C331.816 202.64 339.62 213.587 350.794 218.303Z" fill="#2E2854"/>
<path d="M350.794 218.303C352.068 212.285 349.888 205.674 346.259 200.707C342.63 195.739 337.629 191.959 332.785 188.805C332.881 200.866 339.943 212.885 350.794 218.303Z" fill="#F7A145"/>
<path d="M338.996 198.375C342.555 205.251 346.486 211.87 350.794 218.303" stroke="#2E2854" stroke-miterlimit="10" stroke-linecap="round" stroke-linejoin="round"/>
<path d="M369.454 160.18C359.024 180.226 352.387 202.237 349.996 224.708" stroke="#2E2854" stroke-miterlimit="10" stroke-linecap="round" stroke-linejoin="round"/>
<path opacity="0.15" d="M360.623 166.192C364.542 169.743 368.929 172.775 373.636 175.184C378.161 165.588 384.548 156.957 392.606 150.196C388.273 146.498 383.675 143.109 378.462 140.766C370.375 147.006 364.058 155.515 360.623 166.192Z" fill="#2E2854"/>
<path d="M359.471 163.679C363.39 167.23 367.777 170.262 372.484 172.672C377.01 163.075 383.396 154.444 391.454 147.683C387.121 143.985 382.524 140.596 377.31 138.253C369.223 144.494 362.906 153.002 359.471 163.679Z" fill="#61C9BB"/>
<path d="M374.116 140.927C375.147 139.995 376.21 139.101 377.309 138.253C382.523 140.596 387.12 143.985 391.453 147.684C390.26 148.685 389.108 149.732 387.989 150.813C382.926 147.928 378.352 144.612 374.116 140.927Z" fill="#8CDED3"/>
<path d="M377.198 153.49C377.669 155.43 376.349 157.625 374.415 158.119C372.481 158.614 370.271 157.321 369.752 155.393C369.235 153.465 370.475 151.139 372.604 150.651C374.55 150.204 376.727 151.55 377.198 153.49Z" fill="#8CDED3"/>
<path d="M359.471 163.679C360.006 162.016 360.618 160.413 361.288 158.856C365.941 161.512 370.39 164.585 374.865 168.033C374.024 169.552 373.226 171.097 372.483 172.671C367.776 170.262 363.389 167.23 359.471 163.679Z" fill="#8CDED3"/>
<path d="M345.554 171.058C350.643 178.281 354.097 186.647 355.604 195.352" stroke="#2E2854" stroke-miterlimit="10" stroke-linecap="round" stroke-linejoin="round"/>
<path opacity="0.15" d="M354.719 176.385C351.087 180.229 346.948 183.591 342.441 186.358C337.187 177.141 330.151 169.031 321.593 162.914C325.627 158.892 329.948 155.157 334.965 152.417C343.51 158.012 350.468 166.007 354.719 176.385Z" fill="#2E2854"/>
<path d="M354.719 173.723C351.087 177.567 346.948 180.929 342.441 183.696C337.187 174.479 330.151 166.369 321.593 160.252C325.627 156.229 329.948 152.494 334.965 149.755C343.51 155.351 350.468 163.345 354.719 173.723Z" fill="#61C9BB"/>
<path d="M334.965 149.755C336.126 150.515 337.255 151.324 338.355 152.173C334.418 156.175 330.114 159.835 325.289 163.103C324.09 162.112 322.86 161.158 321.592 160.252C325.627 156.23 329.948 152.495 334.965 149.755Z" fill="#8CDED3"/>
<path d="M352.532 169.055C353.321 170.556 354.056 172.107 354.718 173.723C351.086 177.568 346.947 180.929 342.441 183.697C341.579 182.185 340.664 180.706 339.707 179.257C343.901 175.473 348.1 172.064 352.532 169.055Z" fill="#8CDED3"/>
<path d="M339.388 169.337C337.422 168.994 335.936 166.908 336.255 164.938C336.574 162.967 338.641 161.456 340.615 161.751C342.777 162.074 344.193 164.296 343.826 166.259C343.458 168.22 341.355 169.68 339.388 169.337Z" fill="#8CDED3"/>
<path opacity="0.15" d="M237.482 217.048C236.113 205.769 227.443 195.042 217.472 190.317C218.201 194.18 218.71 198.094 219.778 201.878C220.845 205.662 222.518 209.363 225.251 212.188C227.985 215.013 232.743 217.328 237.482 217.048Z" fill="#2E2854"/>
<path d="M237.482 217.048C236.783 205.708 228.792 194.11 219.118 188.802C219.617 192.702 219.894 196.639 220.735 200.48C221.577 204.32 223.027 208.114 225.589 211.096C228.15 214.078 232.734 217.047 237.482 217.048Z" fill="#F7A145"/>
<path d="M225.313 199.954C227.731 206.081 232.476 212.766 237.482 217.048" stroke="#2E2854" stroke-miterlimit="10" stroke-linecap="round" stroke-linejoin="round"/>
<path opacity="0.15" d="M256.773 186.805C255.895 190.615 253.182 193.733 250.256 196.326C247.33 198.919 244.079 201.183 241.558 204.171C239.036 207.159 237.187 209.762 237.537 214.347C244.209 214.521 250.965 212.443 254.679 206.898C258.393 201.351 259.043 193.884 256.773 186.805Z" fill="#2E2854"/>
<path d="M255.374 185.324C254.673 189.171 252.109 192.412 249.306 195.137C246.503 197.863 243.36 200.276 240.98 203.377C238.601 206.479 236.975 209.51 237.537 214.074C244.21 213.938 250.761 211.205 254.214 205.493C257.667 199.78 257.969 192.291 255.374 185.324Z" fill="#F7A145"/>
<path d="M237.537 214.074C239.82 210.072 243.914 208.85 247.363 205.796C250.813 202.742 254.025 198.73 253.886 194.125" stroke="#2E2854" stroke-miterlimit="10" stroke-linecap="round" stroke-linejoin="round"/>
<path d="M248.061 132.639C241.697 147.161 236.942 162.388 233.911 177.951" stroke="#2E2854" stroke-miterlimit="10" stroke-linecap="round" stroke-linejoin="round"/>
<path opacity="0.15" d="M238.848 138.282C243.064 141.474 247.702 144.107 252.603 146.092C256.264 136.133 261.865 126.973 269.294 119.527C264.651 116.226 259.773 113.256 254.373 111.381C246.868 118.312 241.327 127.344 238.848 138.282Z" fill="#2E2854"/>
<path d="M238.352 136.197C242.569 139.389 247.206 142.022 252.107 144.007C255.769 134.048 261.369 124.888 268.798 117.442C264.156 114.14 259.277 111.17 253.877 109.296C246.373 116.227 240.831 125.259 238.352 136.197Z" fill="#61C9BB"/>
<path d="M239.737 131.233C239.206 132.843 238.738 134.494 238.352 136.197C242.568 139.389 247.205 142.022 252.107 144.007C252.708 142.373 253.366 140.763 254.07 139.176C249.31 136.137 244.606 133.469 239.737 131.233Z" fill="#8CDED3"/>
<path d="M253.877 109.297C252.858 110.238 251.877 111.223 250.933 112.242C255.477 115.539 260.326 118.438 265.623 120.864C266.643 119.689 267.698 118.545 268.798 117.442C264.155 114.141 259.277 111.171 253.877 109.297Z" fill="#8CDED3"/>
<path d="M247.863 127.037C248.549 128.911 250.865 130.004 252.748 129.341C254.63 128.678 255.752 126.376 255.112 124.485C254.472 122.594 252.184 121.445 250.285 122.061C248.207 122.736 247.177 125.162 247.863 127.037Z" fill="#8CDED3"/>
<path d="M224.132 141.784C233.24 166.9 237.814 193.652 237.568 220.367" stroke="#2E2854" stroke-miterlimit="10" stroke-linecap="round" stroke-linejoin="round"/>
<path opacity="0.15" d="M219.018 161.502C229.206 167.442 235.922 179.923 235.985 191.672C231.866 188.886 227.616 185.037 224.838 180.912C221.431 175.854 220.594 169.549 219.018 161.502Z" fill="#2E2854"/>
<path d="M222.242 159.372C231.641 166.495 237.335 180.001 235.984 191.673C232.231 188.411 227.944 183.771 225.684 179.342C222.91 173.91 222.838 167.549 222.242 159.372Z" fill="#FF7D5C"/>
<path d="M226.256 167.699C226.256 167.699 234.385 183.435 235.985 191.672" stroke="#2E2854" stroke-miterlimit="10" stroke-linecap="round" stroke-linejoin="round"/>
<path opacity="0.15" d="M232.765 148.585C228.725 139.243 218.789 131.168 207.347 129.366C206.871 129.283 206.591 129.253 206.591 129.253C204.736 128.987 202.851 129.153 201.125 129.86C201.956 133.382 202.788 136.904 203.852 140.821C209.475 140.145 215.305 141.457 220.124 144.425C220.87 147.714 221.127 151.163 221.209 154.873C225.605 153.787 229.729 151.62 232.765 148.585Z" fill="#2E2854"/>
<path d="M221.843 143.522C216.735 139.743 210.16 138.004 203.852 138.763C202.789 134.845 201.956 131.324 201.125 127.802C202.851 127.095 204.736 126.929 206.591 127.194C206.591 127.194 215.646 128.165 219.678 134.634C223.71 141.104 221.843 143.522 221.843 143.522Z" fill="#40A89A"/>
<path d="M205.892 127.115C204.265 126.979 202.634 127.183 201.124 127.802C201.956 131.323 202.788 134.845 203.852 138.763C205.281 138.591 206.723 138.554 208.159 138.633C207.403 134.793 206.648 130.955 205.892 127.115Z" fill="#67CFC1"/>
<path d="M218.591 134.724C217.477 134.396 216.162 135.008 215.712 136.078C215.262 137.149 215.756 138.529 216.792 139.054C217.827 139.58 219.245 139.154 219.804 138.136C220.364 137.119 220.187 135.194 218.591 134.724Z" fill="#67CFC1"/>
<path d="M206.591 127.195C208.811 127.488 210.981 128.447 212.788 129.811C216.107 132.317 218.29 136.103 219.521 140.075C220.752 144.048 221.107 148.234 221.209 152.815C225.604 151.729 229.728 149.562 232.764 146.527C228.635 136.979 218.349 128.751 206.591 127.195Z" fill="#61C9BB"/>
<path d="M221.018 148.675C221.116 150.022 221.177 151.398 221.208 152.814C225.604 151.729 229.728 149.562 232.764 146.526C232.291 145.433 231.733 144.357 231.106 143.307C227.996 145.527 224.597 147.337 221.018 148.675Z" fill="#8CDED3"/>
<path d="M252.613 169.979C250.838 180.829 245.052 190.967 236.657 198.058" stroke="#2E2854" stroke-miterlimit="10" stroke-linecap="round" stroke-linejoin="round"/>
<path opacity="0.15" d="M244.936 180.275C249.798 181.186 254.751 181.609 259.974 180.934C261.828 171.179 262.537 161.207 262.081 151.288C262.081 151.288 248.187 151.116 248.028 151.522C248.585 161.038 247.54 170.647 244.936 180.275Z" fill="#2E2854"/>
<path d="M243.082 179.066C247.944 179.977 252.897 180.4 258.12 179.725C259.974 169.971 260.683 159.998 260.227 150.079C260.227 150.079 246.333 149.907 246.173 150.313C246.731 159.83 245.686 169.438 243.082 179.066Z" fill="#61C9BB"/>
<path d="M244.08 175.025C243.777 176.371 243.446 177.718 243.082 179.066C247.944 179.977 252.897 180.4 258.12 179.725C258.403 178.237 258.65 176.742 258.88 175.244C253.956 175.675 248.989 175.601 244.08 175.025Z" fill="#8CDED3"/>
<path d="M260.227 150.079C260.227 150.079 246.333 149.907 246.174 150.313C246.258 151.76 246.301 153.208 246.312 154.659C250.994 154.886 255.693 154.708 260.344 154.129C260.325 152.778 260.289 151.428 260.227 150.079Z" fill="#8CDED3"/>
<path d="M252.786 161.614C250.603 161.516 248.787 163.426 248.771 165.423C248.755 167.419 250.54 169.255 252.536 169.296C254.532 169.336 256.39 167.573 256.455 165.578C256.519 163.583 254.781 161.703 252.786 161.614Z" fill="#8CDED3"/>
<path opacity="0.15" d="M298.788 218.362C298.355 204.538 289.027 190.506 277.296 184.006C279.036 189.038 278.143 194.595 279.144 199.825C280.866 208.822 290.19 216.958 298.788 218.362Z" fill="#2E2854"/>
<path d="M298.788 218.362C300.683 204.662 293.716 188.965 283.243 180.586C284.113 185.839 282.299 191.168 282.408 196.491C282.593 205.649 290.548 215.533 298.788 218.362Z" fill="#FF7D5C"/>
<path d="M288.521 193.159C290.109 201.335 294.938 210.976 298.789 218.362" stroke="#2E2854" stroke-miterlimit="10" stroke-linecap="round" stroke-linejoin="round"/>
<path opacity="0.15" d="M299.08 216.282C299.843 209.678 303.161 203.465 307.501 198.43C311.841 193.395 317.717 189.702 324.263 188.305C321.487 191.44 320.945 195.889 319.544 199.836C316.679 207.909 309.066 214.207 299.08 216.282Z" fill="#2E2854"/>
<path d="M299.08 216.282C299.361 209.64 302.176 203.099 306.14 197.762C310.103 192.424 315.694 188.314 322.122 186.446C319.581 189.774 319.363 194.251 318.253 198.289C315.982 206.549 308.889 213.487 299.08 216.282Z" fill="#F7A145"/>
<path d="M313.111 196.891C309.213 203.824 303.982 210.018 299.08 216.282" stroke="#2E2854" stroke-miterlimit="10" stroke-linecap="round" stroke-linejoin="round"/>
<path opacity="0.15" d="M281.582 119.966C292.562 126.783 300.157 139.601 301.367 153.103C295.513 150.486 290.261 145.552 286.909 140.085C283.557 134.618 281.902 128.126 281.582 119.966Z" fill="#2E2854"/>
<path d="M283.221 118.382C293.843 125.746 300.842 139.556 301.367 153.104C295.652 150.193 290.593 144.375 287.523 138.745C284.452 133.115 283.128 126.548 283.221 118.382Z" fill="#F7A145"/>
<path d="M289.442 130.787C292.51 138.739 296.275 146.269 301.367 153.104" stroke="#2E2854" stroke-miterlimit="10" stroke-linecap="round" stroke-linejoin="round"/>
<path d="M304.694 84.4795C297.009 129.99 305.709 177.065 298.131 222.593" stroke="#2E2854" stroke-miterlimit="10" stroke-linecap="round" stroke-linejoin="round"/>
<path d="M316.561 109.227C310.367 114.609 305.168 121.129 301.281 128.354" stroke="#2E2854" stroke-miterlimit="10" stroke-linecap="round" stroke-linejoin="round"/>
<path opacity="0.15" d="M308.322 111.567C311.399 115.867 315.045 119.76 319.134 123.112C325.591 114.693 333.66 107.611 342.968 102.711C339.516 98.178 335.742 93.8916 331.143 90.4978C321.917 94.8833 313.941 101.86 308.322 111.567Z" fill="#2E2854"/>
<path d="M307.459 109.157C310.536 113.457 314.182 117.35 318.271 120.702C324.728 112.283 332.797 105.201 342.105 100.301C338.653 95.7681 334.879 91.4817 330.279 88.0879C321.054 92.4733 313.078 99.4503 307.459 109.157Z" fill="#61C9BB"/>
<path d="M318.271 120.702C319.331 119.321 320.438 117.98 321.582 116.674C317.939 112.356 314.242 108.411 310.258 104.828C309.273 106.208 308.334 107.646 307.459 109.157C310.536 113.458 314.182 117.351 318.271 120.702Z" fill="#8CDED3"/>
<path d="M330.28 88.0879C329.026 88.6839 327.797 89.3324 326.593 90.0246C329.951 94.5236 333.72 98.7333 338.056 102.625C339.379 101.806 340.727 101.027 342.106 100.301C338.654 95.7686 334.879 91.4817 330.28 88.0879Z" fill="#8CDED3"/>
<path d="M323.241 106.89C325.237 106.816 326.991 104.952 326.943 102.956C326.894 100.96 325.051 99.1828 323.055 99.207C320.87 99.2337 319.166 101.244 319.263 103.238C319.36 105.231 321.247 106.963 323.241 106.89Z" fill="#8CDED3"/>
<path d="M283.471 155.634C291.745 157.324 298.815 163.762 301.514 171.729" stroke="#2E2854" stroke-miterlimit="10" stroke-linecap="round" stroke-linejoin="round"/>
<path opacity="0.15" d="M274.412 173.486C275.265 170.285 277.625 167.521 280.652 166.175C283.679 164.83 287.312 164.931 290.26 166.442C290.26 166.442 296.298 154.933 295.953 155.363C290.958 151.317 283.793 150.136 277.763 152.363C271.733 154.591 267.057 160.147 265.892 166.469L274.412 173.486Z" fill="#2E2854"/>
<path d="M273.004 171.73C273.857 168.53 276.217 165.765 279.244 164.42C282.27 163.075 285.904 163.175 288.852 164.686C288.852 164.686 294.89 153.178 294.545 153.607C289.55 149.561 282.384 148.38 276.354 150.608C270.325 152.836 265.649 158.392 264.484 164.713L273.004 171.73Z" fill="#61C9BB"/>
<path d="M284.957 163.544C286.31 163.686 287.639 164.065 288.851 164.686C288.851 164.686 294.889 153.178 294.544 153.607C293.383 152.666 292.101 151.888 290.747 151.264C288.477 155.185 286.54 159.299 284.957 163.544Z" fill="#8CDED3"/>
<path d="M265.724 160.738C265.163 162.011 264.736 163.342 264.483 164.714L273.003 171.731C273.335 170.486 273.897 169.308 274.636 168.253C271.666 165.748 268.695 163.243 265.724 160.738Z" fill="#8CDED3"/>
<path d="M282.022 156.879C281.382 154.987 279.094 153.838 277.195 154.455C275.117 155.129 274.087 157.555 274.773 159.43C275.459 161.305 277.774 162.397 279.658 161.734C281.541 161.071 282.662 158.77 282.022 156.879Z" fill="#8CDED3"/>
<path opacity="0.15" d="M331.593 164.15C328.525 168.289 323.394 170.217 318.657 172.244C313.919 174.269 307.718 177.209 306.1 182.418C311.601 184.429 319.275 183.367 324.086 180.025C328.899 176.683 331.935 170.924 331.593 164.15Z" fill="#2E2854"/>
<path d="M329.84 161.836C327.196 166.259 322.28 168.684 317.767 171.169C313.253 173.653 307.195 177.074 306.1 182.418C311.773 183.876 319.482 182.177 323.94 178.376C328.397 174.575 330.849 168.544 329.84 161.836Z" fill="#FF7D5C"/>
<path d="M306.1 182.418C308.809 179.991 314.161 178.689 317.443 177.121C320.724 175.552 324.024 173.498 325.645 170.242" stroke="#2E2854" stroke-miterlimit="10" stroke-linecap="round" stroke-linejoin="round"/>
<path d="M301.123 192.213C304.129 185.121 308.492 178.55 312.292 171.795C317.34 162.822 321.572 152.655 319.952 142.488" stroke="#2E2854" stroke-miterlimit="10" stroke-linecap="round" stroke-linejoin="round"/>
<path opacity="0.15" d="M328.029 158.327C323.146 157.535 318.343 156.252 313.658 153.847C315.222 144.041 317.939 134.419 321.732 125.243C321.732 125.243 334.861 129.794 334.872 130.23C331.121 138.993 328.845 148.387 328.029 158.327Z" fill="#2E2854"/>
<path d="M326.361 157.154C321.479 156.362 316.675 155.08 311.99 152.674C313.555 142.868 316.271 133.247 320.064 124.07C320.064 124.07 333.193 128.621 333.205 129.057C329.453 137.82 327.177 147.214 326.361 157.154Z" fill="#61C9BB"/>
<path d="M312.795 148.201C312.503 149.688 312.228 151.178 311.99 152.674C316.675 155.08 321.478 156.362 326.361 157.154C326.475 155.763 326.621 154.384 326.793 153.014C321.979 151.891 317.281 150.276 312.795 148.201Z" fill="#8CDED3"/>
<path d="M320.782 144.756C322.673 145.395 324.974 144.273 325.636 142.39C326.298 140.506 325.238 138.094 323.151 137.446C321.245 136.853 318.971 138.031 318.355 139.93C317.74 141.829 318.89 144.117 320.782 144.756Z" fill="#8CDED3"/>
<path d="M320.064 124.07C319.548 125.318 319.056 126.576 318.58 127.84C322.759 129.963 327.12 131.724 331.601 133.098C332.103 131.737 332.635 130.389 333.205 129.057C333.194 128.621 320.064 124.07 320.064 124.07Z" fill="#8CDED3"/>
<path d="M285.989 97.0068C293.336 107.864 298.534 120.165 301.243 132.989" stroke="#2E2854" stroke-miterlimit="10" stroke-linecap="round" stroke-linejoin="round"/>
<path opacity="0.15" d="M284.676 113.157C288.655 110.218 292.34 106.88 295.404 102.597C289.526 94.594 282.708 87.2817 275.136 80.8577C275.136 80.8577 265.545 90.9124 265.734 91.3051C273.08 97.3811 279.402 104.691 284.676 113.157Z" fill="#2E2854"/>
<path d="M285.141 110.546C289.12 107.608 292.805 104.27 295.869 99.9866C289.991 91.9836 283.173 84.6708 275.601 78.2472C275.601 78.2472 266.01 88.3019 266.199 88.6946C273.545 94.7707 279.867 102.082 285.141 110.546Z" fill="#61C9BB"/>
<path d="M266.199 88.6946C267.315 89.6183 268.405 90.5735 269.474 91.554C272.83 88.2815 275.901 84.7198 278.646 80.9202C277.644 80.014 276.631 79.1209 275.601 78.2472C275.601 78.2472 266.01 88.3019 266.199 88.6946Z" fill="#8CDED3"/>
<path d="M278.976 91.5531C277.418 93.0845 277.579 95.7148 279.029 97.0865C280.48 98.4582 283.04 98.4024 284.429 96.9685C285.819 95.5352 285.794 92.9748 284.378 91.5677C282.961 90.161 280.4 90.1542 278.976 91.5531Z" fill="#8CDED3"/>
<path d="M282.863 107.063C283.642 108.202 284.403 109.361 285.141 110.546C289.12 107.608 292.804 104.27 295.869 99.9866C294.972 98.7654 294.046 97.5665 293.106 96.3783C290.067 100.276 286.629 103.861 282.863 107.063Z" fill="#8CDED3"/>
<path d="M175.805 247.992H373.589C376.916 246.804 379.47 243.93 380.133 240.307C381.256 234.169 382.303 227.359 382.429 221.846C311.478 217.018 239.323 218.218 167.541 225.075C168.275 230.447 169.19 235.795 170.628 241.486C171.356 244.37 173.288 246.695 175.805 247.992Z" fill="#D24D84"/>
<path opacity="0.15" d="M340.661 242.552C304.011 242.228 198.491 242.465 170.955 242.534C171.846 244.932 173.601 246.857 175.806 247.992H373.589C376.917 246.804 379.47 243.93 380.133 240.306C380.393 238.887 380.648 237.431 380.889 235.964C373.039 239.477 360.413 242.726 340.661 242.552Z" fill="#2E2854"/>
<path d="M170.955 229.441C170.955 229.441 292.031 218.161 382.43 227.598" stroke="#2E2854" stroke-miterlimit="10" stroke-linecap="round" stroke-linejoin="round"/>
<path d="M135.661 247.992H402.281" stroke="#2E2854" stroke-miterlimit="10" stroke-linecap="round" stroke-linejoin="round"/>
<path d="M107.888 116.957C107.302 116.454 106.231 116.785 106.032 117.531C105.833 118.278 106.597 119.099 107.356 118.954C108.114 118.809 108.666 117.626 107.888 116.957Z" fill="#F5DECF"/>
<path d="M421.898 172.226C420.97 171.428 419.274 171.953 418.958 173.135C418.643 174.317 419.853 175.618 421.054 175.389C422.257 175.159 423.131 173.286 421.898 172.226Z" fill="#F5DECF"/>
<path d="M114.589 102.8C113.661 102.002 111.964 102.527 111.648 103.709C111.333 104.892 112.543 106.192 113.745 105.964C114.947 105.733 115.822 103.86 114.589 102.8Z" fill="#F5DECF"/>
<path d="M126.011 196.653C125.083 195.856 123.386 196.381 123.07 197.563C122.755 198.745 123.965 200.046 125.167 199.817C126.369 199.587 127.244 197.714 126.011 196.653Z" fill="#F5DECF"/>
<path d="M133.613 218.317C132.685 217.519 130.988 218.045 130.673 219.226C130.357 220.408 131.567 221.709 132.769 221.48C133.972 221.251 134.846 219.377 133.613 218.317Z" fill="#F5DECF"/>
<path d="M320.391 37.4088C319.463 36.6113 317.766 37.1365 317.451 38.3179C317.135 39.5003 318.345 40.8012 319.547 40.5721C320.749 40.3425 321.625 38.4694 320.391 37.4088Z" fill="#F5DECF"/>
<path d="M402.649 59.7544C401.721 58.9569 400.024 59.4821 399.709 60.6635C399.393 61.8459 400.604 63.1467 401.805 62.9176C403.008 62.6881 403.882 60.8145 402.649 59.7544Z" fill="#F5DECF"/>
<path d="M325.98 82.0443C325.051 81.2468 323.355 81.772 323.039 82.9534C322.724 84.1358 323.934 85.4367 325.135 85.2076C326.338 84.978 327.212 83.1044 325.98 82.0443Z" fill="white"/>
<path d="M421.611 202.323C421.025 201.82 419.954 202.152 419.755 202.898C419.556 203.644 420.319 204.465 421.078 204.321C421.837 204.176 422.39 202.993 421.611 202.323Z" fill="#F5DECF"/>
<path d="M415.1 65.3762C414.514 64.8728 413.443 65.2043 413.244 65.9504C413.045 66.6969 413.808 67.5182 414.568 67.3735C415.326 67.2284 415.879 66.0455 415.1 65.3762Z" fill="#F5DECF"/>
<path d="M146.386 47.1849C145.8 46.6815 144.729 47.0131 144.53 47.7591C144.331 48.5056 145.095 49.3264 145.854 49.1822C146.612 49.0371 147.165 47.8542 146.386 47.1849Z" fill="#F5DECF"/>
<path d="M296.724 36.7991C296.138 36.2958 295.067 36.6273 294.868 37.3734C294.669 38.1199 295.432 38.9407 296.192 38.7965C296.95 38.6514 297.503 37.4685 296.724 36.7991Z" fill="#F5DECF"/>
<path d="M409.429 48.3124C408.843 47.8091 407.772 48.1406 407.572 48.8867C407.373 49.6332 408.137 50.454 408.896 50.3098C409.654 50.1642 410.207 48.9818 409.429 48.3124Z" fill="#F5DECF"/>
<path d="M390.412 212.084C389.826 211.581 388.754 211.912 388.555 212.658C388.356 213.405 389.12 214.226 389.879 214.081C390.638 213.936 391.19 212.753 390.412 212.084Z" fill="#F5DECF"/>
<path d="M279.14 63.5982C278.554 63.0949 277.483 63.4264 277.284 64.1724C277.085 64.9189 277.848 65.7402 278.608 65.5956C279.366 65.4504 279.919 64.268 279.14 63.5982Z" fill="white"/>
<path d="M333.961 54.8443C333.376 54.341 332.304 54.6725 332.105 55.4185C331.906 56.165 332.67 56.9863 333.429 56.8417C334.188 56.6965 334.74 55.5137 333.961 54.8443Z" fill="white"/>
<path d="M290.754 75.8861C290.77 76.9981 290.786 78.1101 290.802 79.2226" stroke="#2E2854" stroke-miterlimit="10" stroke-linecap="round" stroke-linejoin="round"/>
<path d="M289.203 77.6636C290.236 77.6399 291.267 77.6161 292.3 77.5918" stroke="#2E2854" stroke-miterlimit="10" stroke-linecap="round" stroke-linejoin="round"/>
<path d="M380.005 68.1818C380.021 69.2938 380.037 70.4058 380.053 71.5183" stroke="#2E2854" stroke-miterlimit="10" stroke-linecap="round" stroke-linejoin="round"/>
<path d="M378.454 69.9598C379.487 69.936 380.518 69.9122 381.551 69.8879" stroke="#2E2854" stroke-miterlimit="10" stroke-linecap="round" stroke-linejoin="round"/>
<path d="M162.691 54.5676C162.707 55.6796 162.723 56.7917 162.739 57.9042" stroke="#2E2854" stroke-miterlimit="10" stroke-linecap="round" stroke-linejoin="round"/>
<path d="M161.141 56.345C162.173 56.3212 163.205 56.2975 164.238 56.2732" stroke="#2E2854" stroke-miterlimit="10" stroke-linecap="round" stroke-linejoin="round"/>
<path d="M402.284 210.21C402.3 211.322 402.316 212.434 402.332 213.546" stroke="#2E2854" stroke-miterlimit="10" stroke-linecap="round" stroke-linejoin="round"/>
<path d="M400.733 211.987C401.766 211.964 402.798 211.94 403.831 211.916" stroke="#2E2854" stroke-miterlimit="10" stroke-linecap="round" stroke-linejoin="round"/>
<path d="M358.111 144.424C358.127 145.536 358.143 146.648 358.159 147.76" stroke="#2E2854" stroke-miterlimit="10" stroke-linecap="round" stroke-linejoin="round"/>
<path d="M356.56 146.201C357.592 146.178 358.624 146.154 359.657 146.13" stroke="#2E2854" stroke-miterlimit="10" stroke-linecap="round" stroke-linejoin="round"/>
<path d="M326.948 186.995C326.964 188.107 326.98 189.219 326.996 190.331" stroke="#2E2854" stroke-miterlimit="10" stroke-linecap="round" stroke-linejoin="round"/>
<path d="M325.396 188.772C326.429 188.748 327.461 188.724 328.494 188.701" stroke="#2E2854" stroke-miterlimit="10" stroke-linecap="round" stroke-linejoin="round"/>
<path d="M170.884 127.465C170.9 128.577 170.916 129.689 170.932 130.801" stroke="#2E2854" stroke-miterlimit="10" stroke-linecap="round" stroke-linejoin="round"/>
<path d="M169.333 129.243C170.365 129.219 171.397 129.195 172.43 129.171" stroke="#2E2854" stroke-miterlimit="10" stroke-linecap="round" stroke-linejoin="round"/>
<path d="M157.616 197.342C157.632 198.454 157.648 199.566 157.664 200.678" stroke="#2E2854" stroke-miterlimit="10" stroke-linecap="round" stroke-linejoin="round"/>
<path d="M156.065 199.119C157.098 199.095 158.13 199.071 159.163 199.047" stroke="#2E2854" stroke-miterlimit="10" stroke-linecap="round" stroke-linejoin="round"/>
<path d="M268.251 206.671C268.267 207.783 268.283 208.895 268.3 210.007" stroke="#2E2854" stroke-miterlimit="10" stroke-linecap="round" stroke-linejoin="round"/>
<path d="M266.7 208.448C267.733 208.424 268.765 208.4 269.797 208.376" stroke="#2E2854" stroke-miterlimit="10" stroke-linecap="round" stroke-linejoin="round"/>
<path d="M127.841 131.112C127.857 132.224 127.873 133.336 127.889 134.448" stroke="#2E2854" stroke-miterlimit="10" stroke-linecap="round" stroke-linejoin="round"/>
<path d="M126.29 132.89C127.322 132.866 128.354 132.842 129.387 132.818" stroke="#2E2854" stroke-miterlimit="10" stroke-linecap="round" stroke-linejoin="round"/>
<path d="M150.625 186.965C152.701 188.409 153.302 191.592 151.894 193.693C150.487 195.794 147.315 196.45 145.19 195.08C143.064 193.71 142.352 190.55 143.685 188.401C145.018 186.252 148.267 185.326 150.625 186.965Z" fill="white"/>
<path d="M367.858 128.3C369.934 129.743 370.535 132.927 369.127 135.027C367.72 137.128 364.548 137.785 362.423 136.415C360.297 135.045 359.586 131.885 360.918 129.736C362.251 127.586 365.5 126.66 367.858 128.3Z" fill="white"/>
<path d="M177.076 44.0726C179.152 45.5162 179.753 48.6993 178.346 50.8C176.939 52.9008 173.767 53.5575 171.642 52.1873C169.516 50.817 168.804 47.6577 170.136 45.5084C171.469 43.3596 174.719 42.433 177.076 44.0726Z" fill="#F5DECF"/>
<path d="M410.538 194.805C412.614 196.248 413.215 199.432 411.807 201.532C410.4 203.633 407.228 204.29 405.103 202.919C402.977 201.549 402.265 198.39 403.598 196.241C404.931 194.092 408.18 193.166 410.538 194.805Z" fill="#F5DECF"/>
<path d="M227.133 113.412C227.149 114.524 227.165 115.636 227.181 116.749" stroke="#2E2854" stroke-miterlimit="10" stroke-linecap="round" stroke-linejoin="round"/>
<path d="M225.582 115.19C226.614 115.166 227.646 115.143 228.679 115.119" stroke="#2E2854" stroke-miterlimit="10" stroke-linecap="round" stroke-linejoin="round"/>
<path d="M266.703 142.314C266.719 143.426 266.735 144.538 266.751 145.65" stroke="#2E2854" stroke-miterlimit="10" stroke-linecap="round" stroke-linejoin="round"/>
<path d="M265.151 144.091C266.184 144.068 267.216 144.044 268.249 144.02" stroke="#2E2854" stroke-miterlimit="10" stroke-linecap="round" stroke-linejoin="round"/>
</svg>
