<svg width="60" height="60" viewBox="0 0 60 60" fill="none" xmlns="http://www.w3.org/2000/svg">
<g id="Group 1000003791">
<path id="Vector" d="M30 60C46.5685 60 60 46.5685 60 30C60 13.4315 46.5685 0 30 0C13.4315 0 0 13.4315 0 30C0 46.5685 13.4315 60 30 60Z" fill="#F1F8FF"/>
<path id="Union" fill-rule="evenodd" clip-rule="evenodd" d="M41.4871 35.8309C42.6718 35.3974 43.7635 35.9554 44.0374 37.1292C44.1228 37.4972 44.0919 37.8827 43.9489 38.2324C43.806 38.5821 43.558 38.8788 43.2392 39.0816C40.5942 40.7578 37.9494 42.4343 35.305 44.111C34.6038 44.5563 33.8518 44.8599 33.0207 44.9538C32.9743 44.9644 32.9292 44.9799 32.8861 45H25.2712C24.0435 44.7391 22.8824 44.285 21.7211 43.8308C21.1059 43.5901 20.4906 43.3495 19.8654 43.1375L19.6056 43.0522C19.5983 43.0943 19.5917 43.1346 19.5854 43.1735C19.5697 43.2691 19.5554 43.3567 19.5359 43.4435C19.4783 43.7183 19.3288 43.9652 19.112 44.1436C18.8952 44.322 18.624 44.4212 18.3433 44.4248C17.65 44.4358 16.9567 44.4358 16.2633 44.4248C15.5402 44.4139 15.0159 43.8786 15.0112 43.1493C15.0076 42.3938 15.0088 41.6387 15.01 40.8838C15.0106 40.5063 15.0112 40.1289 15.0112 39.7515C15.0112 39.1124 15.0133 38.4733 15.0153 37.8341C15.0203 36.2669 15.0253 34.6996 15.0003 33.1327C14.9839 32.153 15.6709 31.5974 16.4793 31.6459C16.8636 31.6692 17.2497 31.6636 17.6362 31.6579C17.8069 31.6554 17.9777 31.6529 18.1485 31.6529C19.0382 31.6537 19.5406 32.1397 19.5782 33.0333C19.5791 33.0571 19.5816 33.0809 19.5849 33.112C19.5868 33.131 19.5891 33.1527 19.5915 33.1789L20.8553 33.2806C20.8553 33.1073 20.8517 32.9351 20.8481 32.7639C20.8403 32.3946 20.8327 32.0297 20.8615 31.6678C21.0094 29.7897 21.6801 28.0837 22.6528 26.4897C23.8055 24.5999 25.3236 23.0402 27.0452 21.6645C27.1499 21.5898 27.2361 21.4921 27.2972 21.3789C27.2122 21.3863 27.1264 21.3923 27.0404 21.3983C26.8531 21.4114 26.6644 21.4246 26.4794 21.4525C25.4058 21.6144 24.437 21.9635 23.811 22.9393C23.7825 22.9885 23.7442 23.0312 23.6985 23.0649C23.6528 23.0986 23.6006 23.1225 23.5452 23.135C23.4898 23.1476 23.4324 23.1486 23.3766 23.1379C23.3208 23.1273 23.2678 23.1052 23.2209 23.0731C23.0104 22.9448 22.9517 22.6928 23.0887 22.458C23.4164 21.9123 23.8902 21.4692 24.4566 21.1786C25.2258 20.7623 26.0639 20.5854 26.9247 20.5228C26.9988 20.5172 27.0725 20.5132 27.162 20.5085C27.2219 20.5053 27.2889 20.5017 27.3676 20.497C26.9098 19.9398 26.4043 19.6064 25.729 19.5853C25.5364 19.579 25.3433 19.5842 25.1502 19.5894C24.9337 19.5953 24.7171 19.6011 24.5012 19.5908C23.8446 19.5587 23.2452 19.3318 22.6904 18.9851C22.4125 18.8122 22.3312 18.5868 22.4665 18.3489C22.6019 18.111 22.8625 18.0633 23.1497 18.2409C23.7668 18.6283 24.4968 18.7957 25.2211 18.7159C26.1695 18.6204 26.9983 18.881 27.6853 19.5485C27.8215 19.6776 27.9123 19.6581 28.021 19.5211C27.9471 19.3881 27.8719 19.2556 27.7967 19.1231C27.6229 18.8169 27.4491 18.5106 27.2901 18.1971C27.0069 17.6391 26.74 17.0663 26.7267 16.4277C26.7184 16.1571 26.7683 15.8878 26.8731 15.6382C27.0577 15.2234 27.4443 15.0763 27.8465 15.2837C28.2816 15.5075 28.6369 15.4676 29.0454 15.2132C29.5407 14.9057 30.0823 14.9409 30.5706 15.2539C30.9658 15.5098 31.3148 15.5083 31.706 15.2539C32.2288 14.9166 32.7883 14.9253 33.3103 15.2539C33.6601 15.4769 33.9731 15.5004 34.3503 15.3204C34.9059 15.0544 35.4145 15.3017 35.503 15.9191C35.5585 16.3096 35.5452 16.7595 35.402 17.1187C35.1536 17.7403 34.858 18.3429 34.5536 18.9635C34.4303 19.2147 34.3056 19.4689 34.182 19.7285C34.5326 20.0611 34.7149 20.5494 34.6515 21.1316C34.6437 21.1989 34.7274 21.2991 34.794 21.3554C34.9757 21.5086 35.16 21.6589 35.3442 21.8093C35.6136 22.0291 35.883 22.2489 36.1446 22.4776C36.4381 22.7335 36.3653 23.1592 36.0124 23.2335C35.8443 23.2503 35.6762 23.2018 35.5429 23.0981C35.2069 22.8412 34.8833 22.5685 34.5629 22.2985C34.4482 22.2019 34.3339 22.1055 34.2196 22.0104C33.2328 22.5809 32.1677 22.6568 31.1043 22.6271C30.5005 22.6117 29.8968 22.5367 29.2931 22.4616C29.036 22.4297 28.7789 22.3977 28.5219 22.3704C28.4628 22.3683 28.4052 22.3513 28.3544 22.3211C27.9678 22.0331 27.6986 22.2561 27.4021 22.5026C25.5819 24.0122 24.0011 25.7205 22.9056 27.8388C22.0917 29.4172 21.6324 31.084 21.7004 32.8745C21.7017 33.0305 21.7169 33.186 21.7458 33.3393C21.7562 33.3778 21.7751 33.4135 21.8011 33.4437C21.8271 33.4739 21.8596 33.4978 21.8961 33.5138C22.9314 33.7728 23.8642 34.2596 24.7594 34.8191C25.6875 35.3997 26.7244 35.5273 27.7769 35.6384C27.9799 35.6597 28.1831 35.6806 28.3863 35.7016C29.4446 35.8105 30.5038 35.9196 31.5542 36.0837C32.9667 36.3044 33.869 37.4336 33.8643 38.8562V39.1591C33.9 39.1472 33.9327 39.1371 33.963 39.1276C34.0224 39.1092 34.0731 39.0935 34.1218 39.0722C34.3925 38.953 34.6632 38.8338 34.9339 38.7146C36.3223 38.1033 37.7106 37.492 39.0956 36.8725C39.2426 36.8037 39.3675 36.6953 39.4564 36.5595C40.4134 35.057 40.7124 33.3996 40.5277 31.6529C40.2444 28.9633 38.9563 26.7464 37.2042 24.7587C37.1833 24.7347 37.1616 24.7113 37.14 24.6878C37.0952 24.6393 37.0505 24.5908 37.0125 24.538C36.8669 24.333 36.8802 24.0842 37.0774 23.9355C37.2746 23.7868 37.4851 23.7876 37.6596 23.9652C37.8717 24.1812 38.0697 24.4081 38.263 24.6429C39.6841 26.3559 40.7577 28.2481 41.2273 30.447C41.6279 32.3361 41.5332 34.1892 40.7624 35.9827C40.7485 36.0189 40.7373 36.056 40.7288 36.0939C40.7274 36.0985 40.7295 36.1036 40.7338 36.1138C40.7367 36.1209 40.7407 36.1304 40.7452 36.1439C40.8073 36.117 40.8692 36.0896 40.931 36.0623C41.1153 35.9808 41.299 35.8995 41.4871 35.8309ZM31.6595 21.7408C32.2128 21.6576 32.7664 21.5743 33.3165 21.4712H33.3181C33.6921 21.4008 33.851 21.0643 33.7571 20.6793C33.671 20.3365 33.4253 20.198 33.045 20.27C32.9857 20.2811 32.9264 20.2922 32.8672 20.3033C32.561 20.3608 32.2563 20.4181 31.9494 20.4594C30.9039 20.5995 29.8718 20.4962 28.8482 20.2614C28.5516 20.1933 28.3427 20.3029 28.2261 20.558C28.0383 20.9704 28.2222 21.4079 28.6643 21.4861C29.1974 21.5844 29.7377 21.6618 30.2857 21.7404C30.5188 21.7738 30.7533 21.8074 30.9892 21.8429C31.2124 21.808 31.4359 21.7744 31.6595 21.7408ZM27.5944 16.3982C27.618 16.5763 27.6393 16.7376 27.7057 16.8777C27.9379 17.3666 28.1851 17.8485 28.4325 18.3305C28.5711 18.6007 28.7098 18.8709 28.8458 19.1424C28.9491 19.349 29.1143 19.4163 29.3263 19.4624C30.6113 19.741 31.8837 19.6769 33.1498 19.3568C33.2221 19.3384 33.2858 19.2959 33.3306 19.2363C33.8346 18.4702 34.3205 17.6931 34.5897 16.8057C34.6305 16.672 34.6519 16.5321 34.6772 16.3663C34.6903 16.2809 34.7044 16.1885 34.7228 16.0866C33.9919 16.4794 33.3979 16.3565 32.818 15.9754C32.5966 15.8283 32.3446 15.8627 32.1271 16.0099C31.4705 16.4551 30.8171 16.4465 30.1597 16.0177C29.8694 15.8283 29.5947 15.8674 29.3146 16.0498C28.8944 16.3229 28.4428 16.4309 27.9514 16.2587C27.885 16.2354 27.8179 16.2137 27.7332 16.1861C27.6812 16.1692 27.6224 16.1502 27.5531 16.1272C27.571 16.2212 27.583 16.3117 27.5944 16.3982ZM34.7048 43.4482C37.3946 41.7506 40.0811 40.0488 42.7642 38.3429H42.7634C42.9545 38.2219 43.0965 38.0372 43.1643 37.8214C43.2321 37.6057 43.2212 37.3729 43.1335 37.1644C42.9496 36.7066 42.5365 36.4812 42.0474 36.5939C41.849 36.6441 41.6557 36.7125 41.4699 36.7982C38.9115 37.9271 36.3504 39.0516 33.7868 40.1717C33.6004 40.2525 33.3999 40.2959 33.1968 40.2993C32.1884 40.3034 31.18 40.302 30.1714 40.3007C29.667 40.3 29.1626 40.2993 28.658 40.2993C28.6383 40.2993 28.6175 40.2997 28.5964 40.3001C28.4835 40.3023 28.3577 40.3048 28.2918 40.2468C28.1607 40.1333 28.0698 39.9804 28.0328 39.811C28.0038 39.6098 28.1611 39.4729 28.3669 39.4353C28.4637 39.4225 28.5613 39.4183 28.6588 39.4228H32.642C32.7106 39.4228 32.7795 39.419 32.8591 39.4146C32.8994 39.4124 32.9424 39.41 32.9894 39.4079V38.8038C32.9985 38.3449 32.8371 37.8989 32.5365 37.552C32.2358 37.2051 31.8173 36.982 31.3617 36.9257C31.1939 36.9053 31.0261 36.8848 30.8582 36.8642C29.7965 36.7342 28.7338 36.6041 27.6689 36.5102C26.4074 36.3983 25.2039 36.1393 24.1154 35.4592C23.8451 35.2902 23.5608 35.1426 23.2771 34.9953C23.2403 34.9762 23.2036 34.9572 23.1669 34.938C22.061 34.3558 20.8263 34.0614 19.5766 34.0819C19.5766 34.2145 19.5771 34.3432 19.5775 34.4696C19.5784 34.7156 19.5792 34.9528 19.5766 35.1916C19.5727 35.5531 19.4021 35.7558 19.118 35.7456C18.8465 35.737 18.6994 35.5469 18.6994 35.1892V33.0803C18.6978 32.6679 18.5663 32.5325 18.161 32.5325H16.4042C16.0246 32.5349 15.8908 32.6655 15.8908 33.0412V43.0577C15.8908 43.4247 16.0152 43.55 16.383 43.55H18.1109C18.5851 43.5492 18.6986 43.4357 18.6986 42.9662V38.1042C18.6986 38.0387 18.6982 37.9732 18.6978 37.9075C18.6967 37.7292 18.6956 37.5504 18.7025 37.3725C18.6997 37.2591 18.7415 37.149 18.8189 37.0659C18.8962 36.9828 19.0031 36.9333 19.1165 36.9281C19.2301 36.9263 19.3402 36.9677 19.4244 37.044C19.5087 37.1202 19.5608 37.2256 19.5703 37.3389C19.579 37.4263 19.5813 37.5141 19.5774 37.6018C19.5774 37.9367 19.5776 38.2714 19.5778 38.606C19.5785 39.6764 19.5793 40.7458 19.5727 41.819C19.5719 42.0232 19.6243 42.1234 19.8286 42.1977C21.0372 42.6343 22.2389 43.0847 23.4445 43.5366C23.6456 43.612 23.8467 43.6874 24.0481 43.7628C24.6279 43.9796 25.218 44.1236 25.844 44.1236H32.3164C33.161 44.1337 33.9905 43.8992 34.7048 43.4482ZM32.0568 29.0588C33.1273 29.4665 33.6923 30.2498 33.6633 31.2867C33.632 32.3924 32.9058 33.3714 31.8807 33.6938C31.8093 33.7161 31.7368 33.7347 31.6502 33.7568C31.6125 33.7665 31.572 33.7768 31.5278 33.7885C31.5278 33.867 31.5288 33.9444 31.5299 34.0211C31.532 34.1722 31.534 34.3203 31.5278 34.4677C31.5152 34.7643 31.3392 34.942 31.0786 34.9373C30.818 34.9326 30.6607 34.7549 30.6529 34.449C30.6458 34.2635 30.6458 34.078 30.6458 33.8926C30.6387 33.8653 30.6282 33.839 30.6145 33.8143C30.0128 33.7847 29.4297 33.5957 28.925 33.2665C28.6089 33.0631 28.5236 32.8307 28.6707 32.5935C28.8178 32.3564 29.0729 32.3259 29.3859 32.5208C29.7639 32.7571 30.163 32.9199 30.6513 32.9199V32.3009C30.6513 32.0739 30.6507 31.8469 30.6502 31.6199C30.6486 31.0073 30.6471 30.3948 30.6568 29.7826C30.6607 29.5494 30.6091 29.4062 30.3743 29.3202C30.1781 29.2341 29.9891 29.1323 29.8093 29.0157C29.0628 28.59 28.7513 27.9382 28.8546 27.1032C28.9595 26.2518 29.4149 25.6422 30.2264 25.3237C30.3169 25.2863 30.4106 25.26 30.5084 25.2324C30.5561 25.219 30.6047 25.2053 30.6544 25.1899C30.6544 25.1221 30.6539 25.0549 30.6534 24.9881C30.6524 24.856 30.6513 24.7257 30.6544 24.5967C30.6623 24.3001 30.8383 24.11 31.0872 24.11C31.336 24.11 31.5168 24.3025 31.5293 24.5952C31.5338 24.7251 31.5319 24.855 31.5305 24.9584C31.5299 25.0014 31.5293 25.0398 31.5293 25.0717C31.6648 25.1354 31.7972 25.1956 31.9268 25.2545C32.2528 25.4028 32.5605 25.5427 32.8534 25.7079C32.9223 25.7571 32.98 25.8203 33.0226 25.8934C33.0653 25.9665 33.0919 26.0479 33.1007 26.1321C33.1218 26.4834 32.7227 26.6423 32.3964 26.4498C32.2193 26.3456 32.0346 26.2533 31.8316 26.1518C31.7358 26.1039 31.636 26.054 31.5309 25.9998C31.5309 26.1985 31.5308 26.3931 31.5306 26.5844C31.5301 27.3334 31.5297 28.0321 31.5372 28.7309C31.5465 28.7687 31.5639 28.804 31.588 28.8345C31.6122 28.865 31.6426 28.89 31.6772 28.9078C31.8002 28.9666 31.927 29.0171 32.0568 29.0588ZM29.7193 27.2229C29.6661 27.8396 29.9595 28.2285 30.638 28.4273V26.1571C30.1638 26.2135 29.7663 26.6806 29.7193 27.2229ZM32.7775 31.1537C32.7478 30.4713 32.261 29.9485 31.5403 29.8452V32.8455C31.9106 32.7506 32.2365 32.5299 32.4621 32.2213C32.6878 31.9127 32.7993 31.5353 32.7775 31.1537Z" fill="#1AA3FF"/>
</g>
</svg>
