<svg width="527" height="280" viewBox="0 0 527 280" fill="none" xmlns="http://www.w3.org/2000/svg">
<path d="M0 20C0 8.95431 8.95431 0 20 0H507C518.046 0 527 8.95431 527 20V280H0V20Z" fill="#C5C9F0"/>
<path d="M272.965 65.1348C251.613 60.1134 236.067 64.9929 218.312 71.1189C209.562 74.1591 200.7 77.331 191.457 78.5471C184.571 79.4541 177.614 79.6973 170.683 80.3814C163.485 81.0116 156.332 82.081 149.265 83.5837C137.387 86.254 116.694 91.1842 117.966 107.166C118.472 113.57 122.845 119.392 122.404 125.797C121.837 134.016 114.176 140.375 109.154 146.181C102.223 154.192 95.98 163.08 97.1353 174.217C98.0575 183.201 103.89 191.095 111.085 196.557C118.28 202.02 126.792 205.404 135.178 208.749C147.957 213.841 158.76 219.81 168.808 229.285C174.63 234.773 180.832 240.21 188.377 242.87C198.511 246.447 211.442 243.336 215.571 232.599C217.821 226.747 218.454 219.932 221.946 214.611C225.589 209.134 233.189 204.513 239.857 205.41C250.751 206.854 255.003 214.935 260.196 223.438C262.73 227.593 265.74 231.413 270.001 233.906C277.308 238.183 284.604 236.516 292.296 234.778C300.614 232.882 309.025 231.414 317.494 230.38C331.869 228.662 346.33 229.432 360.649 231.236C374.249 232.954 393.995 241.877 405.209 229.761C410.124 224.441 411.102 217.165 409.313 210.375C406.749 200.641 401.206 189.839 401.53 179.73C401.966 164.813 408.695 154.902 416.913 143.217C420.85 137.644 423.881 131.431 423.739 124.469C423.414 108.397 413.341 96.0587 402.837 84.9822C392.333 73.9058 381.885 61.3295 371.28 51.54" stroke="#ED725A" stroke-width="1.5" stroke-miterlimit="10"/>
<path d="M425.634 81.5418C425.635 82.379 425.387 83.1977 424.923 83.8943C424.458 84.5908 423.798 85.1339 423.024 85.4548C422.251 85.7756 421.4 85.8598 420.579 85.6968C419.757 85.5337 419.003 85.1306 418.411 84.5386C417.819 83.9466 417.416 83.1922 417.253 82.371C417.09 81.5498 417.174 80.6987 417.495 79.9254C417.816 79.1521 418.359 78.4914 419.055 78.0269C419.752 77.5623 420.571 77.3149 421.408 77.3159C421.963 77.3153 422.513 77.4241 423.026 77.6362C423.539 77.8484 424.005 78.1596 424.398 78.5522C424.79 78.9447 425.101 79.4108 425.313 79.9238C425.526 80.4368 425.634 80.9867 425.634 81.5418Z" stroke="#ED725A" stroke-width="1.5" stroke-miterlimit="10"/>
<path d="M284.103 224.674C284.103 225.51 283.855 226.327 283.391 227.022C282.927 227.717 282.267 228.259 281.494 228.578C280.722 228.898 279.873 228.982 279.053 228.819C278.233 228.656 277.48 228.253 276.889 227.662C276.298 227.071 275.896 226.318 275.733 225.499C275.57 224.679 275.653 223.829 275.973 223.057C276.293 222.285 276.835 221.625 277.529 221.161C278.224 220.696 279.041 220.448 279.877 220.448C280.432 220.448 280.982 220.557 281.495 220.769C282.008 220.981 282.474 221.292 282.867 221.685C283.259 222.077 283.571 222.543 283.783 223.056C283.995 223.569 284.104 224.119 284.103 224.674Z" stroke="#ED725A" stroke-width="1.5" stroke-miterlimit="10"/>
<path d="M269.337 40.6054C269.754 40.6047 270.168 40.6864 270.554 40.8458C270.94 41.0051 271.291 41.239 271.587 41.5341C271.882 41.8292 272.117 42.1797 272.277 42.5654C272.437 42.9512 272.519 43.3648 272.519 43.7824V106.613C272.518 107.456 272.182 108.264 271.585 108.86C270.989 109.456 270.18 109.79 269.337 109.79H147.41C146.567 109.79 145.759 109.455 145.163 108.86C144.567 108.264 144.233 107.456 144.233 106.613V43.7824C144.233 42.9398 144.567 42.1317 145.163 41.5359C145.759 40.9401 146.567 40.6054 147.41 40.6054H269.337ZM269.337 39.8453H147.41C146.366 39.8453 145.364 40.2601 144.626 40.9985C143.887 41.7368 143.473 42.7382 143.473 43.7824V106.613C143.473 107.657 143.887 108.659 144.626 109.397C145.364 110.135 146.366 110.55 147.41 110.55H269.337C270.381 110.55 271.383 110.136 272.123 109.397C272.862 108.659 273.278 107.658 273.279 106.613V43.7824C273.28 43.2643 273.178 42.7511 272.98 42.2723C272.783 41.7934 272.492 41.3582 272.126 40.9916C271.76 40.625 271.325 40.3342 270.847 40.1358C270.368 39.9373 269.855 39.8352 269.337 39.8352V39.8453Z" fill="white"/>
<path d="M144.233 49.0775H272.519V106.603C272.519 107.446 272.184 108.254 271.589 108.85C270.993 109.445 270.185 109.78 269.342 109.78H147.41C146.567 109.78 145.759 109.445 145.163 108.85C144.568 108.254 144.233 107.446 144.233 106.603V49.0775Z" fill="#AFB9E8"/>
<path d="M151.696 45.0898C151.696 45.4496 151.59 45.8013 151.39 46.1004C151.19 46.3996 150.906 46.6327 150.573 46.7704C150.241 46.9081 149.875 46.9441 149.522 46.8739C149.169 46.8037 148.845 46.6305 148.591 46.3761C148.336 46.1217 148.163 45.7975 148.093 45.4447C148.023 45.0918 148.059 44.7261 148.197 44.3937C148.334 44.0613 148.567 43.7772 148.867 43.5773C149.166 43.3774 149.517 43.2708 149.877 43.2708C150.36 43.2708 150.822 43.4624 151.163 43.8035C151.505 44.1447 151.696 44.6074 151.696 45.0898Z" stroke="white" stroke-width="1.5" stroke-miterlimit="10"/>
<path d="M158.745 45.0898C158.745 45.4496 158.638 45.8013 158.438 46.1004C158.238 46.3996 157.954 46.6327 157.622 46.7704C157.289 46.9081 156.923 46.9441 156.571 46.8739C156.218 46.8037 155.894 46.6305 155.639 46.3761C155.385 46.1217 155.212 45.7975 155.141 45.4447C155.071 45.0918 155.107 44.7261 155.245 44.3937C155.383 44.0613 155.616 43.7772 155.915 43.5773C156.214 43.3774 156.566 43.2708 156.926 43.2708C157.408 43.2708 157.871 43.4624 158.212 43.8035C158.553 44.1447 158.745 44.6074 158.745 45.0898Z" stroke="white" stroke-width="1.5" stroke-miterlimit="10"/>
<path d="M144.233 49.0775H272.519" stroke="white" stroke-width="1.5" stroke-miterlimit="10"/>
<path d="M262.203 100.969C260.916 99.2609 258.712 97.6851 256.994 98.8657C255.55 99.8538 255.474 102.083 255.611 103.933C251.574 98.1949 246.725 93.0744 241.216 88.7317C238.272 86.4212 234.882 84.2829 231.264 84.5616C227.646 84.8403 225.766 89.9225 226.704 93.743C216.818 80.6549 205.797 71.3722 194.316 63.341C190.414 60.6099 186.066 57.97 181.415 56.4094C176.475 54.7474 169.644 52.7966 165.201 56.6576C163.29 58.3095 162.292 60.8328 162.018 63.3511C161.684 66.4623 162.211 69.7508 163.032 72.7504C165.059 79.9202 168.317 86.6847 172.092 93.0589C175.867 99.4332 184.171 109.902 184.171 109.902H266.125C265.511 106.665 264.17 103.611 262.203 100.969Z" fill="#909DF4"/>
<path d="M219.103 97.0922C219.103 97.0922 203.365 83.4468 196.616 81.1312C189.867 78.8156 175.998 82.5347 175.841 82.5347C175.684 82.5347 163.427 109.8 163.427 109.8H213.626L219.103 97.0922Z" fill="#EF9748"/>
<path d="M248.994 134.132C250.142 135.328 251.335 136.48 252.571 137.588C253.762 138.657 255.064 139.614 256.224 140.704C256.513 140.977 256.777 141.271 257.035 141.565C258.023 142.606 258.895 143.751 259.634 144.98C259.715 145.153 259.823 145.312 259.954 145.452C260.018 145.519 260.098 145.569 260.186 145.598C260.275 145.626 260.369 145.632 260.46 145.614C260.553 145.576 260.635 145.518 260.703 145.444C260.77 145.371 260.821 145.283 260.85 145.188C261.136 144.409 261.154 143.557 260.901 142.766C260.769 142.259 260.587 141.753 260.445 141.246C260.28 140.829 260.202 140.382 260.217 139.934C263.587 141.342 266.328 143.891 269.404 145.867C270.032 146.272 271.43 146.419 271.653 145.867C271.962 145.127 267.478 141.814 265.426 139.609C267.024 140.37 268.558 141.26 270.012 142.27C270.97 143.012 272.045 143.589 273.194 143.977C273.842 144.18 275.332 144.484 275.028 143.303C274.91 142.961 274.699 142.657 274.42 142.427C272.393 140.476 269.986 139.098 267.878 137.263C270.25 138.201 272.439 139.878 274.972 139.964C275.221 139.996 275.474 139.941 275.687 139.807C275.758 139.763 275.821 139.705 275.87 139.637C275.919 139.568 275.954 139.491 275.973 139.409C275.992 139.327 275.994 139.242 275.98 139.159C275.965 139.076 275.935 138.996 275.889 138.925C275.669 138.617 275.377 138.366 275.038 138.196C272.672 136.747 270.204 135.155 267.838 133.696C269.09 134.109 270.315 134.6 271.506 135.166C272.704 135.736 274.029 135.987 275.352 135.895C275.773 135.845 276.295 135.571 276.198 135.161C276.127 134.967 275.986 134.806 275.803 134.71L267.189 128.807C266.384 128.254 265.573 127.702 264.747 127.18C263.734 126.552 262.599 126.091 261.671 125.381C260.952 124.834 260.075 124.424 259.3 123.947C257.385 122.772 255.53 121.5 253.726 120.152" fill="#FFCAA3"/>
<path d="M260.293 139.914C259.391 139.518 258.469 139.149 257.537 138.814" stroke="black" stroke-miterlimit="10"/>
<path d="M265.573 139.599C264.345 138.757 263.073 137.98 261.762 137.274" stroke="black" stroke-miterlimit="10"/>
<path d="M267.898 137.208L264.858 135.287" stroke="black" stroke-miterlimit="10"/>
<path d="M269.007 134.319C268.256 133.903 267.533 133.438 266.844 132.926" stroke="black" stroke-miterlimit="10"/>
<path d="M200.253 81.5416C206.471 83.4975 209.592 83.6748 215.15 87.1153C221.028 90.7889 235.662 106.213 235.662 106.213C235.662 106.213 255.387 120.122 262.78 125.381L249.5 138.049C234.805 129.268 219.736 118.794 208.599 105.787" fill="#EF9748"/>
<path d="M177.685 107.14C177.685 107.14 183.852 103.832 186.573 103.173C190.332 102.225 194.791 101.957 195.982 102.322C196.544 102.494 198.647 103.36 199.752 104.647C200.922 105.154 201.399 105.412 202.093 105.706C202.787 106 203.106 106.816 203.841 107.439C204.576 108.062 205.361 109.8 205.361 109.8C205.361 109.8 199.813 109.8 198.267 109.871C196.722 109.942 195.029 112.912 191.543 113.925" fill="#FFCAA3"/>
<path d="M190.389 79.0894C186.112 79.054 181.947 77.9392 177.681 77.9392C169.928 77.9392 165.479 81.9928 161.709 87.6374C158.78 92.1385 156.247 96.8855 154.139 101.825C151.778 107.297 149.133 113.388 148.444 119.362C148.088 122.098 148.556 124.878 149.787 127.347C152.123 131.837 157.316 132.622 160.346 132.962C163.376 133.301 168.682 132.273 171.286 130.661C179.356 125.689 186.963 120.003 194.017 113.672L179.297 106.127L172.233 108.888L181.151 92.4004" fill="#EF9748"/>
<path d="M180.426 93.7582L172.233 108.909" stroke="black" stroke-miterlimit="10"/>
<path d="M179.297 106.147L166.629 111.062C163.746 112.177 160.924 114.391 158.628 116.448" stroke="black" stroke-miterlimit="10"/>
<path d="M174.239 108.204L189.491 117.588" stroke="black" stroke-miterlimit="10"/>
<path d="M215.232 100.862C213.205 104.196 210.418 109.78 210.418 109.78" stroke="black" stroke-miterlimit="10"/>
<path d="M257.394 121.541L242.599 133.863" stroke="black" stroke-miterlimit="10"/>
<path d="M199.169 106.213C200.243 106.495 201.332 106.71 202.433 106.856C202.777 106.873 203.112 106.967 203.416 107.13" stroke="black" stroke-miterlimit="10"/>
<path d="M200.116 104.916C199.924 104.822 199.726 104.741 199.524 104.672C198.487 104.216 197.373 103.959 196.24 103.917" stroke="black" stroke-miterlimit="10"/>
<path d="M196.671 110.469C197.263 110.074 197.948 109.842 198.658 109.795C200.117 109.643 201.698 109.957 203.081 109.41" stroke="black" stroke-miterlimit="10"/>
<path d="M141.826 120.441C141.985 123.335 142.921 126.133 144.534 128.54C146.148 130.947 148.381 132.876 150.997 134.122" stroke="black" stroke-miterlimit="10"/>
<path d="M137.743 120.188C137.859 123.957 139.415 127.611 141.827 129.785" stroke="black" stroke-miterlimit="10"/>
<path d="M220.78 83.6394C225.285 87.4529 229.461 91.6378 233.265 96.1498" stroke="black" stroke-miterlimit="10"/>
<path d="M220.876 79.1198C224.021 81.4538 226.894 84.1342 229.44 87.1104" stroke="black" stroke-miterlimit="10"/>
<path d="M184.546 86.7759C182.191 85.8514 179.928 84.708 177.786 83.3608C176.839 82.854 175.965 82.2217 175.187 81.4809C174.403 80.7307 173.947 79.7024 173.915 78.6181C173.992 77.6244 174.388 76.6823 175.045 75.9326C176.96 73.5207 180.061 72.2641 183.152 71.9854C186.243 71.7067 189.304 72.2995 192.303 72.9988C196.818 74.0629 201.424 75.4816 204.9 78.5421C205.909 79.3758 206.732 80.4114 207.317 81.5823C208.023 83.254 208.2 85.102 207.823 86.8773C207.42 88.6483 206.835 90.3733 206.08 92.0254" fill="#EF9748"/>
<path d="M196.707 68.9503L190.626 70.7187L190.758 73.7589L187.688 78.9982C187.688 78.9982 194.949 81.8103 197.68 87.5411C198.491 87.6879 199.329 87.5774 200.075 87.2249C200.821 86.8724 201.438 86.2956 201.84 85.5751L204.814 78.5827" fill="#FFCAA3"/>
<path d="M211 75.0408C211.507 72.031 212.156 68.778 212.105 66.3863C212.065 64.3595 211.75 61.294 210.443 59.708C208.756 57.6812 205.69 57.6306 203.111 57.3417C198.88 56.8705 195.962 60.7012 194.705 64.2835C193.78 66.9624 193.78 69.874 194.705 72.5529C195.87 76.2568 200 81.2326 205.371 80.6195C208.234 80.2952 210.448 78.2228 211 75.0408Z" fill="#FFCAA3"/>
<path d="M205.828 68.4689C205.772 68.9148 205.453 69.2441 205.113 69.2087C204.932 69.1543 204.779 69.0327 204.684 68.8687C204.59 68.7047 204.562 68.5109 204.606 68.327C204.657 67.8761 204.976 67.5467 205.321 67.5872C205.501 67.6426 205.654 67.7645 205.748 67.9281C205.842 68.0918 205.871 68.2851 205.828 68.4689Z" fill="black"/>
<path d="M211.665 69.0262C211.614 69.4721 211.295 69.8014 210.951 69.7609C210.769 69.7076 210.614 69.5862 210.52 69.4219C210.426 69.2576 210.398 69.0632 210.444 68.8792C210.495 68.4333 210.814 68.104 211.158 68.1395C211.34 68.1949 211.493 68.3175 211.588 68.4823C211.682 68.6471 211.709 68.8416 211.665 69.0262Z" fill="black"/>
<path d="M209.07 68.033C209.004 69.074 209.004 70.1182 209.07 71.1593C209.07 71.8028 209.07 72.9378 208.26 73.0848C207.67 73.0952 207.083 73.0166 206.517 72.8517" stroke="black" stroke-miterlimit="10"/>
<path d="M206.962 74.6912L204.768 72.8468C204.768 72.8468 203.157 74.9496 203.988 75.7147C205.321 76.946 206.962 74.6912 206.962 74.6912Z" fill="white"/>
<path d="M210.52 60.3464C211.488 61.8665 212.04 63.0775 212.065 67.6175C212.534 67.5243 212.987 67.3674 213.413 67.1514C213.626 67.0433 213.816 66.8941 213.97 66.7123C214.125 66.5305 214.242 66.3198 214.315 66.0924C214.543 65.2361 213.905 64.3899 213.869 63.5082C213.888 62.8652 214.102 62.2431 214.482 61.7246C214.791 61.34 215.011 60.8918 215.126 60.4123C215.136 60.0652 215.064 59.7207 214.915 59.407C214.767 59.0934 214.545 58.8196 214.27 58.6084C213.124 57.595 211.594 57.1542 210.277 56.3942C209.638 56.0243 209.299 55.4466 208.706 55.0109C208.04 54.5186 207.327 54.0926 206.578 53.739C204.845 52.9203 202.965 52.4601 201.05 52.3862C199.224 52.305 197.401 52.6015 195.694 53.2571C193.988 53.9128 192.436 54.9134 191.134 56.1965C187.724 59.6117 186.356 66.1228 188.494 69.8774C189.7 72.0005 190.804 73.7486 190.804 73.7486C190.946 73.9665 193.89 71.3215 194.073 70.9618C194.231 70.5839 194.353 70.192 194.437 69.7913C194.817 68.4536 196.15 68.2307 197.29 67.8152C198.952 67.2021 199.783 65.7225 200.107 64.0504C200.268 63.0842 200.348 62.1062 200.345 61.1267C200.345 61.3446 201.688 61.8209 201.866 61.8817C203.888 62.5171 206.048 62.5785 208.103 62.0591C208.72 61.9334 209.3 61.6701 209.8 61.2889C209.942 61.1977 210.733 60.5643 210.52 60.3464Z" fill="#1E1611"/>
<path d="M198.131 77.9341C199.832 79.5385 202.036 80.5052 204.368 80.6703" stroke="black" stroke-miterlimit="10"/>
<path d="M202.28 65.2868C202.462 64.9357 202.726 64.634 203.051 64.4076C203.375 64.1812 203.749 64.0368 204.141 63.987C204.533 63.9372 204.932 63.9833 205.302 64.1214C205.673 64.2596 206.004 64.4856 206.268 64.7801" stroke="black" stroke-miterlimit="10"/>
<path d="M209.709 65.3831C209.804 65.113 209.984 64.8806 210.221 64.72C210.458 64.5595 210.74 64.4793 211.026 64.4913C211.295 64.5731 211.529 64.7419 211.692 64.9712C211.854 65.2005 211.935 65.4773 211.923 65.758" stroke="black" stroke-miterlimit="10"/>
<path d="M207.92 69.619C207.804 69.9781 207.618 70.3105 207.373 70.5966C207.127 70.8828 206.826 71.117 206.489 71.2855C206.151 71.454 205.784 71.5534 205.407 71.5779C205.031 71.6023 204.653 71.5514 204.297 71.428C203.573 71.1624 202.983 70.6233 202.653 69.9266C202.323 69.23 202.28 68.4317 202.534 67.7037C202.65 67.3451 202.836 67.0131 203.082 66.7273C203.328 66.4416 203.628 66.2076 203.966 66.0392C204.303 65.8708 204.67 65.7713 205.047 65.7465C205.423 65.7217 205.8 65.7721 206.157 65.8948C206.88 66.1603 207.47 66.6995 207.8 67.3961C208.13 68.0927 208.173 68.8911 207.92 69.619Z" stroke="#572A2F" stroke-miterlimit="10"/>
<path d="M213.382 70.3334C213.104 71.9194 212.08 73.0595 211.097 72.8669C210.114 72.6744 209.531 71.2505 209.81 69.6646C210.089 68.0786 211.107 66.9385 212.095 67.1311C213.083 67.3236 213.656 68.7474 213.382 70.3334Z" stroke="#572A2F" stroke-miterlimit="10"/>
<path d="M210.068 68.8388L208.067 68.4639" stroke="#572A2F" stroke-miterlimit="10"/>
<path d="M202.65 67.4352L196.615 67.8912" stroke="#572A2F" stroke-miterlimit="10"/>
<path d="M198.343 68.9805C198.313 67.5161 196.317 66.371 195.04 66.8371C191.918 67.9569 192.972 73.5509 195.871 74.0829C196.692 74.2349 197.867 73.9157 198.161 72.9834" fill="#FFCAA3"/>
<path d="M194.812 69.3303L197.497 71.7625" stroke="black" stroke-miterlimit="10"/>
<path d="M196.965 67.197C197.637 67.5973 198.168 68.1955 198.485 68.9097" stroke="black" stroke-miterlimit="10"/>
<path d="M193.256 71.4482C193.656 72.6441 194.477 73.9108 195.789 74.1236C196.251 74.218 196.73 74.1525 197.149 73.9379C197.568 73.7233 197.902 73.3724 198.095 72.943" stroke="black" stroke-miterlimit="10"/>
<path d="M186.365 63.2195C186.379 61.2473 186.688 59.2884 187.282 57.4077C187.885 55.52 189.035 53.8537 190.586 52.6193C191.475 51.9939 192.441 51.4831 193.459 51.0992C194.304 50.7406 195.179 50.4558 196.073 50.248C199.433 49.5335 202.919 50.5976 206.065 51.9708" fill="#FFC36C"/>
<path d="M207.571 52.2292C206.177 50.994 204.365 50.3379 202.504 50.3949C202.148 50.4152 201.794 50.4609 201.445 50.5317C199.007 51.0384 196.808 52.29 194.7 53.5719C191.878 55.315 189.061 57.1948 186.993 59.7891C186.184 60.6816 185.67 61.8014 185.519 62.9965C185.504 63.6618 185.616 64.3239 185.848 64.9473C186.315 66.1831 186.972 67.3386 187.794 68.3726C193.996 62.5709 200.968 57.9802 209.01 55.2542C208.931 54.0998 208.417 53.0184 207.571 52.2292Z" fill="#FFC36C"/>
<path d="M186.771 60.1033C190.569 55.3263 195.817 51.9122 201.723 50.3746" stroke="black" stroke-miterlimit="10"/>
<path d="M189.491 60.9392C190.188 62.3047 191.096 63.5514 192.182 64.633" stroke="black" stroke-miterlimit="10"/>
<path d="M195.607 55.4518C196.406 57.1306 197.39 58.7146 198.541 60.1742" stroke="black" stroke-miterlimit="10"/>
<path d="M202.098 51.9606C203.438 53.3447 204.579 54.9085 205.488 56.607" stroke="black" stroke-miterlimit="10"/>
<path d="M204.338 51.1702C205.499 52.6254 206.476 54.2183 207.246 55.9129" stroke="black" stroke-miterlimit="10"/>
<path d="M186.446 61.755C186.848 63.7975 187.972 65.6269 189.613 66.9081" stroke="black" stroke-miterlimit="10"/>
<path d="M182.864 77.0625C185.828 78.1722 188.823 79.292 191.478 81.0401C194.133 82.7882 196.788 85.2457 197.73 88.2656" stroke="black" stroke-miterlimit="10"/>
<path d="M199.747 87.3485C201.117 86.693 202.199 85.557 202.787 84.1562" stroke="black" stroke-miterlimit="10"/>
<path d="M173.905 78.2988C175.278 86.1729 185.666 84.668 190.505 87.1103" stroke="black" stroke-miterlimit="10"/>
<path d="M207.935 84.0194C207.787 85.1138 207.344 86.1473 206.653 87.0089C205.579 88.2605 203.902 88.7773 202.316 89.2334" stroke="black" stroke-miterlimit="10"/>
<path d="M203.75 87.3484C204.47 92.2988 205.199 97.8472 204.971 102.848" stroke="black" stroke-miterlimit="10"/>
<path d="M192.744 86.2084C193.494 88.2656 193.139 93.8443 193.058 98.8759" stroke="black" stroke-miterlimit="10"/>
<path d="M127.031 150.838H246.196V227.223C246.196 228.065 245.862 228.874 245.266 229.469C244.67 230.065 243.862 230.4 243.019 230.4H130.208C129.365 230.4 128.557 230.065 127.961 229.469C127.365 228.874 127.031 228.065 127.031 227.223V150.838Z" fill="#D4BCDD"/>
<path d="M243.014 140.542C243.857 140.542 244.666 140.876 245.262 141.472C245.859 142.068 246.195 142.876 246.196 143.719V227.223C246.195 228.066 245.859 228.874 245.262 229.47C244.666 230.065 243.857 230.4 243.014 230.4H130.207C129.365 230.4 128.557 230.065 127.961 229.469C127.365 228.874 127.03 228.065 127.03 227.223V143.709C127.03 142.866 127.365 142.058 127.961 141.462C128.557 140.866 129.365 140.532 130.207 140.532H243.014M243.014 139.772H130.207C129.164 139.774 128.165 140.19 127.428 140.928C126.691 141.666 126.277 142.666 126.275 143.709V227.213C126.275 228.257 126.69 229.258 127.429 229.997C128.167 230.735 129.168 231.15 130.212 231.15H243.014C244.059 231.15 245.06 230.735 245.8 229.997C246.539 229.259 246.955 228.257 246.956 227.213V143.709C246.953 142.664 246.537 141.664 245.798 140.926C245.059 140.188 244.058 139.773 243.014 139.772Z" fill="white"/>
<path d="M136.101 145.994C136.102 146.432 135.973 146.861 135.73 147.225C135.488 147.59 135.142 147.875 134.738 148.043C134.333 148.212 133.888 148.256 133.458 148.171C133.028 148.086 132.633 147.876 132.323 147.566C132.013 147.257 131.801 146.862 131.715 146.433C131.629 146.003 131.673 145.558 131.84 145.153C132.008 144.748 132.292 144.402 132.656 144.158C133.02 143.915 133.448 143.785 133.887 143.785C134.473 143.785 135.035 144.017 135.451 144.431C135.866 144.846 136.1 145.408 136.101 145.994Z" stroke="white" stroke-width="1.5" stroke-miterlimit="10"/>
<path d="M142.455 148.203C143.675 148.203 144.664 147.214 144.664 145.994C144.664 144.774 143.675 143.785 142.455 143.785C141.235 143.785 140.246 144.774 140.246 145.994C140.246 147.214 141.235 148.203 142.455 148.203Z" stroke="white" stroke-width="1.5" stroke-miterlimit="10"/>
<path d="M127.031 150.838H246.196" stroke="white" stroke-width="1.5" stroke-miterlimit="10"/>
<path d="M234.745 230.4C233.148 226.462 230.976 222.782 228.299 219.481C226.668 217.454 224.752 215.554 222.366 214.667C219.979 213.78 216.975 214.16 215.348 216.187C214.102 217.707 213.863 219.861 213.676 221.857C209.724 217.621 205.726 213.334 200.907 210.203C196.088 207.072 190.266 204.822 184.662 206.048C178.465 207.386 178.465 215.209 178.465 215.209C178.465 215.209 174.67 209.889 174.331 209.392C171.78 205.723 168.951 202.256 165.869 199.02C162.869 195.818 160.016 192.433 156.642 189.646C153.267 186.859 147.81 183.302 143.285 184.99C140.929 185.866 140.281 187.908 140.802 190.264C141.309 192.468 141.547 194.678 142.231 196.851C138.426 192.61 134.099 188.704 129.057 186.064C125.434 184.159 117.874 180.926 114.115 184.037C113.593 184.527 113.181 185.12 112.903 185.779C112.626 186.438 112.489 187.148 112.503 187.863C112.336 196.644 118.675 206.078 123.742 212.564C128.971 219.217 135.274 225.11 141.806 230.4H234.745Z" fill="#FFDD99"/>
<path d="M211.847 190.746C211.173 194.48 211.371 198.346 211.391 202.146C211.411 205.946 211.715 208.455 210.337 211.915C209.09 215.037 206.491 216.101 205.133 219.161C204.439 220.717 201.819 230.395 201.819 230.395H166.619C166.619 230.395 165.605 215.194 171.058 202.207C176.51 189.22 183.274 186.9 183.274 186.9L203.294 181.711L211.847 190.746Z" fill="#735D9D"/>
<path d="M257.967 168.055C259.011 166.799 260.47 166.029 261.722 164.98C262.872 164.037 263.748 162.715 264.691 161.57C265.8 160.125 266.832 158.624 267.782 157.07C268.922 155.512 270.217 154.074 271.648 152.779C271.856 152.602 272.028 152.387 272.155 152.145C272.203 152.034 272.228 151.913 272.227 151.792C272.225 151.67 272.198 151.55 272.147 151.44C272.096 151.33 272.021 151.232 271.929 151.152C271.837 151.073 271.729 151.014 271.612 150.98C270.587 150.777 269.525 150.899 268.572 151.329C267.995 151.542 266.039 152.231 265.927 151.137C265.79 149.895 266.829 148.097 267.229 146.931C267.736 145.436 268.278 143.937 268.699 142.406C269.119 140.876 269.008 138.155 268.233 138.11C267.457 138.064 268.04 138.53 267.838 138.616C268.162 138.191 267.599 137.208 267.133 136.919C266.667 136.63 266.064 137.572 265.927 138.084C266.084 137.578 265.643 136.757 265.274 136.726C264.731 136.676 264.311 137.187 263.987 137.608C263.706 138.057 263.345 138.45 262.923 138.768C262.926 138.409 262.873 138.052 262.765 137.709C262.411 137.507 262.005 137.836 261.752 138.14C256.563 144.266 253.052 151.861 247.296 157.759" fill="#E27769"/>
<path d="M266.049 150.296C266.049 151.816 266.049 153.311 265.932 154.815" stroke="black" stroke-miterlimit="10"/>
<path d="M267.675 138.277C267.224 139.701 266.347 140.906 265.689 142.229C264.645 144.337 263.708 146.495 262.74 148.639" stroke="black" stroke-miterlimit="10"/>
<path d="M265.892 137.998C265.575 138.665 265.212 139.31 264.808 139.929C264.377 140.587 263.901 141.216 263.435 141.859C262.12 143.693 260.935 145.617 259.888 147.615" stroke="black" stroke-miterlimit="10"/>
<path d="M262.745 139.017C262.351 139.742 261.86 140.41 261.286 141.003C259.596 142.956 258.147 145.104 256.969 147.402" stroke="black" stroke-miterlimit="10"/>
<path d="M193.195 183.738C199.494 181.103 203.623 178.337 209.856 175.529C215.48 172.996 223.369 170.918 228.913 168.218C236.579 164.478 243.769 160.354 250.067 154.699L261.519 166.748C261.519 166.748 245.35 183.262 239.69 186.479C226.08 194.232 221.125 195.686 206.972 203.084" fill="#735D9D"/>
<path d="M211.229 201.011C211.312 198.157 211.957 195.346 213.129 192.742" stroke="black" stroke-miterlimit="10"/>
<path d="M246.247 157.876L257.602 170.619" stroke="black" stroke-miterlimit="10"/>
<path d="M191.366 218.7C196.17 218.791 200.948 219.546 205.113 222.08C206.047 222.624 206.856 223.358 207.487 224.236C208.118 225.113 208.557 226.114 208.776 227.172C209.239 229.1 209.388 231.09 209.217 233.065C209.21 233.155 209.175 233.241 209.118 233.312C209.062 233.382 208.985 233.434 208.898 233.46C208.661 233.46 208.429 233.403 208.219 233.293C208.219 233.293 208.629 235.229 208.219 235.629C207.915 235.913 207.347 235.528 207.13 235.295C206.901 234.993 206.704 234.669 206.542 234.327C206.542 234.327 206.826 235.442 206.582 235.634C206.228 235.918 205.189 235.198 204.946 234.469C204.794 234.884 204.545 235.264 204.165 235.163C202.964 234.844 202.027 233.136 201.039 232.305C199.727 231.185 197.963 231.109 196.327 231.135C195.573 231.162 194.819 231.147 194.067 231.089C193.32 230.958 192.581 230.789 191.853 230.582C190.443 230.312 189.015 230.143 187.581 230.076" fill="#E27769"/>
<path d="M200.253 228.692C201.571 229.239 202.969 229.853 203.709 230.977C203.919 231.318 204.089 231.682 204.216 232.062C204.5 232.847 204.723 233.653 204.94 234.459" stroke="black" stroke-miterlimit="10"/>
<path d="M202.123 226.301C202.884 226.76 203.594 227.298 204.241 227.907C204.893 228.516 205.395 229.269 205.705 230.106C205.853 230.59 205.964 231.085 206.035 231.586C206.204 232.619 206.373 233.649 206.541 234.676" stroke="black" stroke-miterlimit="10"/>
<path d="M204.698 224.674C205.951 225.614 206.915 226.887 207.48 228.348C207.922 229.659 208.198 231.021 208.3 232.401L208.452 233.704" stroke="black" stroke-miterlimit="10"/>
<path d="M186.066 184.67C186.066 184.67 176.129 186.14 172.319 188.334C166.355 191.759 163.736 196.983 159.935 205.85C156.135 214.718 154.595 218.604 154.559 221.558C154.504 225.885 156.449 230.415 164.404 230.415H189.739L194.857 218.462L175.121 215.376L180.568 202.623" fill="#735D9D"/>
<path d="M194.893 218.442L175.157 215.356L180.604 202.602" stroke="black" stroke-miterlimit="10"/>
<path d="M168.149 217.18C168.301 217.18 171.301 215.305 175.157 215.356" stroke="black" stroke-miterlimit="10"/>
<path d="M189.446 217.591L184.034 230.395" stroke="black" stroke-miterlimit="10"/>
<path d="M201.486 187.715C201.739 186.317 201.751 184.887 201.521 183.484" stroke="black" stroke-miterlimit="10"/>
<path d="M180.457 187.376C181.655 190.137 183.857 192.34 186.619 193.538C189.948 194.997 194.467 195.265 197.649 193.315C199.021 192.498 200.118 191.291 200.801 189.849" stroke="black" stroke-miterlimit="10"/>
<path d="M236.502 192.504C242.447 189.469 247.848 185.469 252.484 180.667" stroke="black" stroke-miterlimit="10"/>
<path d="M247.57 189.636C250.448 187.407 253.142 184.95 255.626 182.289" stroke="black" stroke-miterlimit="10"/>
<path d="M152.416 214.084C151.164 218.191 150.718 222.501 151.104 226.777" stroke="black" stroke-miterlimit="10"/>
<path d="M148.454 214.692C147.66 216.994 147.21 219.399 147.116 221.832" stroke="black" stroke-miterlimit="10"/>
<path d="M189.406 172.454L183.969 176.092L185.145 179.978L183.533 185.836C183.481 186.019 183.47 186.212 183.5 186.4C183.531 186.588 183.603 186.768 183.711 186.925C184.722 188.396 186.088 189.589 187.682 190.394C189.276 191.199 191.047 191.59 192.831 191.531C198.602 191.531 198.521 187.695 198.521 187.695L199.575 179.542" fill="#E27769"/>
<path d="M200.334 171.967C198.84 169.18 197.988 167.458 196.417 165.542C195.09 163.916 192.871 161.615 190.798 161.159C188.118 160.572 185.594 162.502 183.314 163.916C179.565 166.231 179.631 171.222 180.897 174.936C181.87 177.794 183.882 178.884 186.415 180.627C189.729 182.902 196.939 183.93 200.03 181.437C202.346 179.573 201.915 174.916 200.334 171.967Z" fill="#E27769"/>
<path d="M192.324 171.719C192.344 171.843 192.33 171.971 192.281 172.087C192.233 172.203 192.153 172.303 192.05 172.376C191.948 172.448 191.827 172.491 191.701 172.498C191.576 172.505 191.451 172.476 191.341 172.415C191.23 172.354 191.14 172.264 191.079 172.154C191.018 172.044 190.989 171.919 190.996 171.793C191.003 171.668 191.045 171.546 191.118 171.444C191.19 171.341 191.29 171.261 191.406 171.212C191.595 171.164 191.795 171.19 191.965 171.284C192.136 171.378 192.264 171.534 192.324 171.719Z" fill="black"/>
<path d="M197.644 168.79C197.659 168.914 197.64 169.04 197.587 169.153C197.535 169.266 197.452 169.362 197.348 169.431C197.244 169.499 197.122 169.537 196.998 169.541C196.873 169.544 196.75 169.512 196.642 169.449C196.535 169.386 196.447 169.294 196.389 169.184C196.331 169.074 196.304 168.949 196.313 168.825C196.322 168.7 196.365 168.581 196.439 168.48C196.512 168.379 196.612 168.3 196.727 168.253C196.92 168.208 197.122 168.238 197.293 168.338C197.464 168.438 197.59 168.6 197.644 168.79Z" fill="black"/>
<path d="M194.796 170.665C195.408 171.17 196.091 171.581 196.823 171.886C197.269 172.089 198.754 172.489 198.424 173.209C198.126 173.66 197.76 174.063 197.34 174.404" stroke="black" stroke-miterlimit="10"/>
<path d="M183.923 184.346C183.923 184.346 184.602 182.613 184.764 181.99C185.042 180.941 184.161 180.89 183.857 179.963C183.752 179.449 183.78 178.918 183.938 178.418C184.166 177.404 184.693 176.249 184.222 175.215C183.923 174.567 183.279 174.151 182.767 173.65C182.256 173.148 181.835 172.383 182.144 171.729C182.504 170.964 183.583 170.908 184.242 170.371C184.901 169.834 185.053 168.887 185.007 168.04C184.881 167.202 184.851 166.352 184.916 165.507C184.931 165.355 184.991 165.21 185.088 165.091C185.412 164.757 185.949 165.091 186.355 165.304C186.719 165.49 187.121 165.591 187.53 165.6C187.939 165.609 188.344 165.525 188.716 165.355C188.911 165.284 189.09 165.173 189.24 165.03C189.391 164.887 189.511 164.715 189.593 164.524C189.658 164.275 189.7 164.021 189.719 163.764C189.731 163.636 189.77 163.511 189.832 163.398C189.895 163.286 189.981 163.188 190.084 163.11C190.25 163.026 190.436 162.991 190.621 163.009C191.213 163.037 191.782 163.239 192.258 163.592C192.4 163.747 192.572 163.872 192.763 163.959C192.955 164.046 193.162 164.093 193.373 164.098C193.839 164.011 194.316 163.999 194.786 164.063C195.343 164.3 195.802 164.72 196.089 165.254C197.021 166.605 197.955 167.956 198.891 169.307C199.395 168.657 199.79 167.93 200.061 167.154C200.194 166.765 200.232 166.351 200.173 165.945C200.114 165.539 199.959 165.152 199.722 164.818C199.215 164.2 198.374 163.926 197.948 163.257C197.522 162.588 197.553 161.453 197.502 160.617C197.453 159.69 197.158 158.793 196.646 158.018C196.411 157.632 196.08 157.314 195.686 157.094C195.292 156.874 194.848 156.759 194.396 156.761C193.895 156.879 193.387 156.971 192.876 157.035C192.556 157.01 192.243 156.926 191.954 156.787C190.581 156.199 189.395 155.267 188.032 154.648C186.669 154.03 184.961 153.868 183.781 154.78C183.178 155.246 182.767 155.961 182.124 156.346C180.229 157.471 177.513 155.332 175.709 156.614C174.544 157.43 174.508 159.193 173.525 160.222C172.274 161.534 169.978 161.19 168.57 162.32C167.161 163.45 167.131 165.73 167.992 167.346C168.418 168.147 169.036 168.973 168.853 169.88C168.677 170.417 168.378 170.906 167.982 171.309C167.455 171.931 167.105 172.684 166.969 173.487C166.907 173.887 166.944 174.295 167.076 174.677C167.209 175.058 167.433 175.401 167.729 175.676C168.114 176.001 168.696 176.153 168.99 176.573C169.28 177.156 169.444 177.793 169.472 178.443C169.493 178.934 169.565 179.421 169.684 179.897C170.085 181.179 171.498 181.924 172.836 181.924C173.454 181.924 174.138 181.808 174.645 182.162C175.018 182.514 175.307 182.946 175.491 183.424C175.932 184.133 176.617 184.656 177.416 184.896C178.216 185.136 179.075 185.075 179.834 184.726C180.396 184.442 180.913 183.991 181.536 183.981C182.159 183.971 183.335 184.447 183.923 184.346Z" fill="#2C221D"/>
<path d="M192.653 182.75C194.325 183.165 197.502 183.257 199.909 181.737" stroke="black" stroke-miterlimit="10"/>
<path d="M188.133 171.577C188.133 169.895 189.237 168.284 191.046 168.603" stroke="black" stroke-miterlimit="10"/>
<path d="M194.376 167.407C194.375 167.129 194.455 166.857 194.605 166.624C194.755 166.39 194.969 166.205 195.222 166.09C195.468 165.954 195.748 165.889 196.028 165.902C196.309 165.916 196.581 166.007 196.813 166.166" stroke="black" stroke-miterlimit="10"/>
<path d="M186.862 176.447C185.904 175.276 183.563 175.6 182.808 176.811C180.979 179.715 185.408 183.601 188.113 182.182C188.878 181.782 189.633 180.769 189.274 179.826" fill="#E27769"/>
<path d="M184.207 178.985L187.946 179.254" stroke="black" stroke-miterlimit="10"/>
<path d="M184.586 175.859C185.383 175.764 186.189 175.916 186.896 176.294" stroke="black" stroke-miterlimit="10"/>
<path d="M184.292 181.711C185.382 182.431 186.861 182.937 188.057 182.279C188.493 182.061 188.841 181.701 189.045 181.259C189.25 180.818 189.298 180.319 189.182 179.847" stroke="black" stroke-miterlimit="10"/>
<path d="M195.379 174.683C195.136 175.585 195.435 176.766 196.468 176.953C196.857 177.016 197.255 176.941 197.594 176.743C197.933 176.544 198.193 176.233 198.328 175.864" stroke="black" stroke-miterlimit="10"/>
<path d="M285.946 64.4254H405.244V120.259C405.244 121.101 404.909 121.909 404.313 122.505C403.717 123.101 402.909 123.436 402.067 123.436H289.123C288.281 123.436 287.473 123.101 286.877 122.505C286.281 121.909 285.946 121.101 285.946 120.259V64.4254Z" fill="#D5D8BC"/>
<path d="M402.067 55.9535C402.91 55.9535 403.718 56.2883 404.313 56.8841C404.909 57.4799 405.244 58.2879 405.244 59.1305V120.259C405.244 121.101 404.909 121.909 404.313 122.505C403.718 123.101 402.91 123.436 402.067 123.436H289.124C288.281 123.436 287.473 123.101 286.877 122.505C286.281 121.909 285.947 121.101 285.947 120.259V59.1305C285.947 58.2879 286.281 57.4799 286.877 56.8841C287.473 56.2883 288.281 55.9535 289.124 55.9535H402.067ZM402.067 55.1935H289.124C288.08 55.1948 287.079 55.61 286.341 56.3481C285.603 57.0861 285.188 58.0868 285.187 59.1305V120.259C285.188 121.303 285.603 122.303 286.341 123.041C287.079 123.779 288.08 124.194 289.124 124.196H402.067C403.111 124.194 404.111 123.779 404.849 123.041C405.587 122.303 406.003 121.303 406.004 120.259V59.1305C406.003 58.0868 405.587 57.0861 404.849 56.3481C404.111 55.61 403.111 55.1948 402.067 55.1935Z" fill="white"/>
<path d="M291.586 58.6186C291.946 58.6176 292.299 58.7234 292.598 58.9227C292.898 59.1219 293.132 59.4057 293.271 59.738C293.409 60.0703 293.446 60.4362 293.376 60.7894C293.307 61.1426 293.134 61.4672 292.88 61.7221C292.625 61.977 292.301 62.1507 291.948 62.2213C291.595 62.2919 291.229 62.2562 290.897 62.1187C290.564 61.9812 290.279 61.748 290.079 61.4488C289.879 61.1495 289.772 60.7976 289.772 60.4376C289.772 59.9561 289.963 59.4941 290.303 59.1531C290.643 58.8122 291.105 58.6199 291.586 58.6186ZM291.586 57.8585C291.076 57.8585 290.578 58.0098 290.154 58.2932C289.729 58.5766 289.399 58.9794 289.204 59.4506C289.008 59.9219 288.957 60.4405 289.057 60.9408C289.156 61.4411 289.402 61.9006 289.763 62.2613C290.123 62.622 290.583 62.8677 291.083 62.9672C291.584 63.0667 292.102 63.0156 292.573 62.8204C293.045 62.6252 293.447 62.2946 293.731 61.8705C294.014 61.4464 294.166 60.9477 294.166 60.4376C294.164 59.754 293.892 59.0988 293.409 58.6154C292.925 58.132 292.27 57.8599 291.586 57.8585Z" fill="white"/>
<path d="M298.64 58.6186C299 58.6186 299.351 58.7253 299.65 58.9251C299.95 59.125 300.183 59.4091 300.32 59.7415C300.458 60.0739 300.494 60.4396 300.424 60.7925C300.354 61.1454 300.18 61.4695 299.926 61.7239C299.672 61.9783 299.348 62.1515 298.995 62.2217C298.642 62.2919 298.276 62.2559 297.944 62.1182C297.611 61.9805 297.327 61.7474 297.127 61.4482C296.927 61.1491 296.821 60.7974 296.821 60.4376C296.82 60.1986 296.867 59.9617 296.958 59.7407C297.049 59.5197 297.183 59.3189 297.352 59.1499C297.521 58.9808 297.722 58.8469 297.943 58.7557C298.164 58.6645 298.401 58.6179 298.64 58.6186ZM298.64 57.8585C298.13 57.8575 297.63 58.0079 297.206 58.2907C296.781 58.5735 296.449 58.976 296.253 59.4471C296.057 59.9183 296.006 60.437 296.105 60.9377C296.204 61.4383 296.449 61.8983 296.809 62.2595C297.17 62.6207 297.629 62.8669 298.13 62.9668C298.63 63.0667 299.149 63.0159 299.621 62.8209C300.092 62.6258 300.495 62.2953 300.779 61.871C301.062 61.4468 301.214 60.9479 301.214 60.4376C301.213 59.7549 300.941 59.1004 300.459 58.6172C299.976 58.1339 299.323 57.8612 298.64 57.8585Z" fill="white"/>
<path d="M285.946 64.4254H405.244" stroke="white" stroke-width="1.5" stroke-miterlimit="10"/>
<path d="M388.953 112.886C386.719 109.157 384.353 105.286 380.684 103.005C377.016 100.725 371.645 100.644 368.903 104.019C366.476 107.003 366.927 111.351 367.51 115.166C364.809 111.717 361.654 108.649 358.131 106.046C355.42 104.049 352.431 102.316 349.142 101.688C345.727 101.04 341.825 101.754 339.008 103.867C335.183 106.755 335.238 111.295 335.613 115.673C330.972 106.872 325.809 98.1361 318.659 91.1031C316.81 89.279 314.636 87.7032 312.133 87.0039C310.699 86.6036 309.093 86.5276 307.795 87.2775C305.84 88.4176 305.323 90.9916 305.262 93.2566C305.194 95.9892 305.508 98.7179 306.194 101.364C304.948 100.001 303.305 99.0654 301.497 98.6884C300.502 98.5103 299.48 98.5436 298.499 98.7863C297.517 99.0289 296.598 99.4753 295.8 100.097C295.003 100.718 294.345 101.5 293.869 102.392C293.394 103.285 293.111 104.267 293.04 105.276C292.797 109.694 295.483 113.889 297.54 117.624C298.32 119.037 299.126 120.451 300.013 121.804C300.185 122.068 300.843 123.38 301.244 123.38H394.872C392.901 120.096 390.925 116.18 388.953 112.886Z" fill="#B5AE6B"/>
<mask id="mask0_382_1387" style="mask-type:luminance" maskUnits="userSpaceOnUse" x="285" y="55" width="121" height="69">
<path d="M402.069 55.9534H289.125C287.371 55.9534 285.948 57.3758 285.948 59.1304V120.259C285.948 122.013 287.371 123.436 289.125 123.436H402.069C403.823 123.436 405.246 122.013 405.246 120.259V59.1304C405.246 57.3758 403.823 55.9534 402.069 55.9534Z" fill="white"/>
</mask>
<g mask="url(#mask0_382_1387)">
<path d="M397.148 119.25L365.839 59.2465L356.941 58.7246L349.954 64.425L331.981 77.4928L352.184 136.711L397.148 119.25Z" fill="white"/>
<path d="M338.325 76.6316C339.207 77.3551 340.239 77.8711 341.347 78.1412C342.455 78.4114 343.609 78.4288 344.725 78.1922" stroke="black" stroke-miterlimit="10"/>
<path d="M346.914 77.493C349.121 76.7531 351.033 75.3256 352.37 73.4198C353.706 71.514 354.398 69.2302 354.342 66.903" stroke="black" stroke-miterlimit="10"/>
<path d="M388.605 96.9401C383.183 86.6136 366.928 54.0531 362.641 55.6593C357.721 57.4986 352.183 62.2464 352.183 62.2464C352.183 62.2464 354.838 70.7336 355.041 71.5342C355.774 74.4731 356.532 77.4018 357.316 80.3204C359.257 87.5966 360.99 94.9843 363.396 102.108C365.834 109.359 368.534 116.534 371.443 123.613C372.613 126.45 373.551 129.774 375.77 131.994C377.027 133.276 378.81 134.172 380.579 134.02C381.809 133.825 382.989 133.393 384.054 132.749C388.888 130.215 402.372 124.17 402.372 124.17C402.372 124.17 395.435 109.972 388.605 96.9401Z" fill="#4C4139"/>
<path d="M360.985 136.645C359.667 131.852 357.412 127.438 355.745 122.777C353.561 116.696 351.621 110.499 349.366 104.424C345.931 95.1565 341.056 82.3472 337.327 73.1962C337.327 73.1962 330.486 77.118 329.108 78.0706C327.73 79.0232 328.029 81.2882 328.029 81.2882C333.476 101.587 349.959 147.691 349.959 147.691C351.915 146.678 356.754 143.942 358.704 142.908C361.278 141.55 361.724 139.341 360.985 136.645Z" fill="#4C4139"/>
<path d="M330.476 77.2192C336.8 86.9327 341.72 94.8372 348.312 104.373" stroke="black" stroke-miterlimit="10"/>
<path d="M360.766 58.1116C362.077 70.9986 362.876 83.9212 363.163 96.8792" stroke="black" stroke-miterlimit="10"/>
</g>
<path d="M295.138 126.891C293.814 127.905 292.463 128.861 291.085 129.759C289.747 130.631 288.308 131.371 286.996 132.293C286.666 132.516 286.367 132.769 286.063 133.017C284.925 133.892 283.887 134.89 282.967 135.992C282.859 136.151 282.728 136.292 282.577 136.412C282.501 136.47 282.411 136.507 282.316 136.52C282.221 136.533 282.125 136.522 282.035 136.488C281.948 136.432 281.875 136.358 281.819 136.27C281.764 136.183 281.729 136.084 281.716 135.982C281.557 135.167 281.673 134.322 282.045 133.58C282.253 133.073 282.506 132.627 282.729 132.146C282.956 131.757 283.101 131.326 283.155 130.879C279.608 131.751 276.507 133.848 273.163 135.328C272.479 135.627 271.085 135.566 270.938 134.978C270.751 134.203 275.691 131.614 278.063 129.759C276.364 130.263 274.71 130.905 273.117 131.68C272.055 132.264 270.902 132.666 269.707 132.871C269.038 132.977 267.518 133.048 268 131.923C268.173 131.605 268.428 131.339 268.739 131.153C271.025 129.536 273.634 128.553 276 127.059C273.507 127.621 271.095 128.944 268.562 128.634C268.312 128.629 268.071 128.536 267.883 128.371C267.819 128.316 267.767 128.249 267.729 128.174C267.692 128.099 267.669 128.018 267.663 127.934C267.657 127.85 267.667 127.766 267.694 127.686C267.72 127.606 267.762 127.533 267.817 127.469C268.081 127.197 268.408 126.993 268.77 126.876C271.334 125.807 274.019 124.606 276.583 123.542C275.275 123.765 273.982 124.069 272.712 124.454C271.441 124.832 270.093 124.876 268.8 124.581C268.39 124.464 267.918 124.115 268.076 123.725C268.176 123.543 268.34 123.406 268.537 123.339L277.976 118.84C278.863 118.419 279.745 117.999 280.642 117.609C282.592 116.773 284.477 115.81 286.433 114.974C288.484 114.092 290.548 113.239 292.625 112.415" fill="#D16159"/>
<path d="M283.079 130.864C284.037 130.611 285.005 130.388 285.977 130.205" stroke="black" stroke-miterlimit="10"/>
<path d="M277.916 129.734C279.26 129.094 280.637 128.524 282.041 128.026" stroke="black" stroke-miterlimit="10"/>
<path d="M275.985 127.018L279.274 125.589" stroke="black" stroke-miterlimit="10"/>
<path d="M275.332 123.988C276.14 123.696 276.927 123.349 277.688 122.949" stroke="black" stroke-miterlimit="10"/>
<path d="M329.108 78.0709C326.885 79.4805 324.824 81.1305 322.962 82.991C320.58 85.5853 306.56 102.575 306.56 102.575C306.56 102.575 292.2 111.234 283.971 116.018L292.98 130.676C292.98 130.676 309.661 124.677 318.173 118.703C325.906 113.266 340.711 95.4659 340.711 95.4659" fill="#4C4139"/>
<path d="M334.975 102.58L330.465 88.5543" stroke="black" stroke-miterlimit="10"/>
<path d="M291.545 111.559L301.527 127.069" stroke="black" stroke-miterlimit="10"/>
<path d="M290.319 126.359L298.599 122.524" stroke="black" stroke-miterlimit="10"/>
<path d="M295.862 122.331C295.882 122.513 295.829 122.696 295.715 122.839C295.6 122.982 295.434 123.073 295.252 123.094C295.07 123.114 294.887 123.061 294.744 122.946C294.601 122.832 294.509 122.665 294.489 122.483C294.479 122.393 294.487 122.302 294.512 122.214C294.538 122.127 294.58 122.046 294.636 121.975C294.693 121.904 294.763 121.845 294.843 121.802C294.922 121.758 295.009 121.73 295.1 121.72C295.19 121.71 295.281 121.718 295.368 121.744C295.455 121.769 295.537 121.811 295.607 121.868C295.678 121.924 295.737 121.995 295.781 122.074C295.825 122.153 295.852 122.241 295.862 122.331Z" stroke="black" stroke-miterlimit="10"/>
<path d="M291.82 124.165C292.203 124.165 292.514 123.855 292.514 123.471C292.514 123.088 292.203 122.777 291.82 122.777C291.436 122.777 291.125 123.088 291.125 123.471C291.125 123.855 291.436 124.165 291.82 124.165Z" stroke="black" stroke-miterlimit="10"/>
<path d="M306.463 102.788L306.428 102.504C308.343 101.933 310.162 101.079 311.824 99.9703" stroke="black" stroke-miterlimit="10"/>
<path d="M313.218 86.2592C315.94 82.981 319.243 80.2327 322.962 78.152" stroke="black" stroke-miterlimit="10"/>
<path d="M315.401 78.8005C317.973 76.8866 320.775 75.3018 323.741 74.0831" stroke="black" stroke-miterlimit="10"/>
<path d="M342.864 52.1227L344.891 58.0612L352.046 64.9777C352.046 64.9777 352.233 69.0971 348.185 73.4142C344.136 77.7313 339.819 74.8228 339.819 74.8228L334.605 67.197" fill="#D16159"/>
<path d="M326.118 67.5973C325.297 64.9625 324.258 59.2723 324.339 57.1086C324.352 55.2611 324.996 53.4735 326.164 52.0416C327.719 50.2175 331.372 50.8712 333.708 50.6482C337.544 50.2834 339.936 54.8285 341.02 58.0815C341.846 60.5846 342.241 63.1485 341.395 65.7124C340.017 69.8623 335.593 74.0527 330.911 72.9227C328.368 72.3248 326.929 70.1511 326.118 67.5973Z" fill="#D16159"/>
<path d="M346.487 51.3778C345.869 50.7191 345.028 50.2074 344.754 49.351C344.602 48.8798 344.364 47.456 344.212 46.9797C343.356 44.3347 341.136 43.4328 338.638 43.8837C338.365 41.3503 335.684 41.1121 333.48 41.0868C332.558 41.1224 331.64 40.9365 330.805 40.5446C329.933 40.0784 329.148 39.4248 328.129 39.3235C327.211 39.2653 326.3 39.515 325.54 40.0328C322.926 41.7505 322.181 45.0745 318.953 46.0778C317.94 46.397 316.886 46.4933 316.014 47.152C315.685 47.3915 315.407 47.694 315.195 48.0419C314.984 48.3898 314.844 48.7763 314.783 49.1788C314.651 50.3391 315.421 51.0434 316.212 51.7528C316.671 52.1291 317.036 52.608 317.278 53.1509C317.519 53.6939 317.629 54.2858 317.6 54.8791C317.515 55.6348 317.391 56.3857 317.23 57.1289C317.024 58.1453 317.115 59.1996 317.492 60.1657C317.87 61.1317 318.518 61.9685 319.358 62.5759C319.733 62.8495 320.245 63.0826 321.628 63.4069C322.601 63.6197 325.125 63.2549 325.125 63.2549C324.826 61.5788 324.623 59.887 324.517 58.1879C324.523 56.8709 324.947 55.5899 325.728 54.5295C326.401 53.6124 327.871 53.2881 328.965 53.3388C330.602 53.4097 332.168 54.3116 333.799 54.1241C334.477 54.0371 335.117 53.7634 335.649 53.3337C337.843 54.7525 340.113 56.8401 340.614 59.3837C340.614 59.5104 340.959 61.0153 340.847 61.0406C342.727 60.6454 345.094 60.4934 345.914 58.4412C346.203 57.7318 346.056 56.9921 346.279 56.2726C346.462 55.6797 346.994 55.2592 347.242 54.6714C347.744 53.5921 347.308 52.2544 346.487 51.3778Z" fill="#2C221D"/>
<path d="M338.674 59.0899C338.771 57.4533 341.03 56.2575 342.459 56.8351C345.905 58.2234 344.486 64.4356 341.218 64.9068C340.291 65.0386 338.988 64.6281 338.684 63.5742" fill="#D16159"/>
<path d="M342.606 59.6371L339.5 62.2415" stroke="black" stroke-miterlimit="10"/>
<path d="M340.296 57.134C339.536 57.5562 338.923 58.2019 338.542 58.9835" stroke="black" stroke-miterlimit="10"/>
<path d="M344.258 62.0742C343.751 63.3967 342.783 64.7749 341.319 64.9573C340.798 65.0443 340.263 64.9511 339.803 64.6931C339.342 64.4352 338.983 64.028 338.785 63.5386" stroke="black" stroke-miterlimit="10"/>
<path d="M337.519 71.4736C338.725 70.6011 339.682 69.4292 340.296 68.0736" stroke="black" stroke-miterlimit="10"/>
<path d="M328.91 61.3092C329.067 62.7634 329.224 64.2227 329.391 65.682C329.394 65.8852 329.461 66.0823 329.584 66.2445C330.131 66.8272 331.392 66.5485 331.98 66.1989" stroke="black" stroke-miterlimit="10"/>
<path d="M333.353 66.7968L330.82 68.2713C330.82 68.2713 331.798 70.141 332.776 69.7913C334.605 69.0921 333.353 66.7968 333.353 66.7968Z" fill="white"/>
<path d="M330.192 58.1576C330.336 57.8985 330.529 57.6705 330.761 57.4869C330.994 57.3034 331.26 57.1679 331.545 57.0884C332.022 56.9375 332.526 56.8946 333.021 56.963C333.517 57.0314 333.99 57.2092 334.408 57.4837" stroke="black" stroke-miterlimit="10"/>
<path d="M324.304 60.2704C324.344 60.0231 324.433 59.7863 324.567 59.5747C324.702 59.363 324.877 59.1808 325.084 59.0392C325.402 58.8287 325.775 58.7164 326.156 58.7164C326.537 58.7164 326.91 58.8287 327.227 59.0392" stroke="black" stroke-miterlimit="10"/>
<path d="M333.515 60.3311C333.511 60.4818 333.466 60.6285 333.383 60.7546C333.3 60.8807 333.184 60.9812 333.048 61.045C332.911 61.1088 332.759 61.1332 332.61 61.1155C332.46 61.0979 332.318 61.0388 332.2 60.945C332.082 60.8512 331.993 60.7264 331.942 60.5845C331.891 60.4426 331.88 60.2894 331.912 60.1419C331.943 59.9945 332.015 59.8587 332.119 59.7498C332.223 59.6409 332.356 59.5632 332.502 59.5255C332.742 59.5011 332.983 59.5717 333.172 59.7222C333.362 59.8727 333.485 60.0912 333.515 60.3311Z" fill="black"/>
<path d="M327.713 62.0592C327.71 62.2099 327.664 62.3565 327.581 62.4826C327.499 62.6087 327.383 62.7093 327.246 62.7731C327.109 62.8368 326.958 62.8612 326.808 62.8436C326.658 62.8259 326.516 62.7669 326.398 62.6731C326.28 62.5793 326.191 62.4544 326.14 62.3125C326.089 62.1707 326.079 62.0174 326.11 61.87C326.141 61.7225 326.213 61.5867 326.317 61.4778C326.422 61.369 326.554 61.2913 326.7 61.2535C326.941 61.2264 327.183 61.296 327.373 61.447C327.563 61.598 327.685 61.8182 327.713 62.0592Z" fill="black"/>
<path d="M326.184 54.0634C325.1 54.6461 324.629 55.9179 323.894 56.9059C323.292 57.7029 322.497 58.3336 321.584 58.7387C320.671 59.1438 319.67 59.31 318.675 59.2216" stroke="#635149" stroke-miterlimit="10"/>
<path d="M335.836 53.2071C336.824 52.2927 337.519 51.106 337.833 49.797" stroke="#635149" stroke-miterlimit="10"/>
<path d="M339.769 123.816H431.045V184.148C431.045 184.991 430.711 185.799 430.115 186.395C429.519 186.991 428.711 187.325 427.868 187.325H342.946C342.103 187.325 341.295 186.991 340.699 186.395C340.103 185.799 339.769 184.991 339.769 184.148V123.816Z" fill="#F9D4BB"/>
<path d="M427.868 115.334C428.711 115.334 429.519 115.668 430.115 116.264C430.71 116.86 431.045 117.668 431.045 118.511V184.148C431.045 184.991 430.71 185.799 430.115 186.395C429.519 186.991 428.711 187.325 427.868 187.325H342.945C342.103 187.325 341.295 186.991 340.699 186.395C340.103 185.799 339.768 184.991 339.768 184.148V118.521C339.768 118.103 339.851 117.69 340.01 117.305C340.17 116.919 340.404 116.569 340.699 116.274C340.994 115.979 341.344 115.745 341.73 115.585C342.115 115.426 342.528 115.344 342.945 115.344H427.868M427.868 114.584H342.945C341.902 114.585 340.901 115 340.163 115.738C339.425 116.476 339.01 117.477 339.008 118.521V184.148C339.01 185.192 339.425 186.193 340.163 186.931C340.901 187.669 341.902 188.084 342.945 188.085H427.868C428.912 188.084 429.913 187.669 430.651 186.931C431.389 186.193 431.804 185.192 431.805 184.148V118.521C431.804 117.477 431.389 116.476 430.651 115.738C429.913 115 428.912 114.585 427.868 114.584Z" fill="white"/>
<path d="M347.232 119.828C347.232 120.188 347.125 120.539 346.925 120.838C346.725 121.138 346.441 121.371 346.109 121.508C345.777 121.646 345.411 121.682 345.058 121.612C344.705 121.542 344.381 121.369 344.127 121.114C343.872 120.86 343.699 120.536 343.629 120.183C343.559 119.83 343.595 119.464 343.732 119.132C343.87 118.799 344.103 118.515 344.402 118.315C344.701 118.115 345.053 118.009 345.413 118.009C345.895 118.009 346.358 118.2 346.699 118.542C347.04 118.883 347.232 119.345 347.232 119.828Z" stroke="white" stroke-width="1.5" stroke-miterlimit="10"/>
<path d="M354.29 119.828C354.29 120.188 354.183 120.539 353.983 120.838C353.784 121.138 353.499 121.371 353.167 121.508C352.835 121.646 352.469 121.682 352.116 121.612C351.763 121.542 351.439 121.369 351.185 121.114C350.93 120.86 350.757 120.536 350.687 120.183C350.617 119.83 350.653 119.464 350.79 119.132C350.928 118.799 351.161 118.515 351.46 118.315C351.759 118.115 352.111 118.009 352.471 118.009C352.953 118.009 353.416 118.2 353.757 118.542C354.098 118.883 354.29 119.345 354.29 119.828Z" stroke="white" stroke-width="1.5" stroke-miterlimit="10"/>
<path d="M339.769 123.816H431.045" stroke="white" stroke-width="1.5" stroke-miterlimit="10"/>
<path d="M407.519 162.872C405.427 162.507 404.839 168.126 405.842 169.996C403.086 166.059 399.605 160.029 396.848 156.097C393.763 151.679 390.074 146.181 384.505 144.742C379.489 143.45 376.874 147.818 376.798 152.277C376.746 156.561 377.129 160.839 377.943 165.046C378.805 169.606 379.925 174.825 382.412 178.813C379.767 174.572 375.531 173.138 370.804 173.533C368.6 173.715 366.31 174.455 364.921 176.173C362.692 178.924 363.528 183.915 364.475 187.32H370.682H425.269C425.269 187.32 414.299 164.058 407.519 162.872Z" fill="#EF9748"/>
<path d="M344.308 154.952C335.238 155.089 326.25 153.174 317.575 150.529C308.9 147.884 293.091 142.077 293.091 142.077L288.582 155.702C288.582 155.702 311.945 170.503 343.037 173.031" fill="#E27769"/>
<path d="M363.73 158.656C357.685 153.528 344.592 153.893 340.837 154.04C337.083 154.187 330.394 153.078 330.394 153.078L327.942 173.604C327.942 173.604 341.841 175.935 349.578 176.502" fill="#2C221D"/>
<path d="M346.69 163.581C347.637 166.257 347.197 170.168 347.197 173.031C347.197 175.565 348.099 176.973 348.474 179.477C348.919 182.471 350.617 184.609 352.411 187.325H390.92L388.893 165.978L383.679 158.403L372.613 155.449L347.627 162.036" fill="#2C221D"/>
<path d="M358.785 158.403C358.336 159.783 358.189 161.243 358.354 162.685C358.628 164.326 359.671 165.365 361.161 165.978" stroke="#6D574E" stroke-miterlimit="10"/>
<path d="M363.056 166.429C369.881 167.65 377.061 162.776 377.75 156.564" stroke="#6D574E" stroke-miterlimit="10"/>
<path d="M414.391 184.863C413.76 183.278 412.858 181.816 411.725 180.541C408.785 176.908 405.501 173.567 401.921 170.564L389.035 182.289L397.011 190.021L387.698 206.899L400.046 210.446C400.046 210.446 409.501 200.003 413.119 194.186C414.872 191.298 415.495 188.07 414.391 184.863Z" fill="#E27769"/>
<path d="M390.14 203.109C390.14 203.109 384.738 210.882 384.186 212.285C383.722 213.641 383.405 215.043 383.238 216.466C382.732 220.17 384.693 223.975 386.187 225.774C386.359 225.974 386.596 226.109 386.856 226.154C387.408 226.255 387.631 225.966 387.621 225.313L388.528 226.549C388.639 226.725 388.788 226.874 388.964 226.985C389.151 227.039 389.35 227.032 389.533 226.965C389.715 226.897 389.871 226.773 389.977 226.61C390.219 226.244 390.391 225.837 390.484 225.409C390.803 225.875 391.305 226.362 391.786 226.078C392.057 225.845 392.269 225.552 392.406 225.222C392.542 224.891 392.599 224.534 392.572 224.178C392.729 224.684 393.418 224.71 393.793 224.33C394.14 223.892 394.358 223.365 394.421 222.81C394.622 221.403 395.037 220.036 395.652 218.756C396.146 217.981 396.685 217.236 397.269 216.527C399.027 214.105 399.899 211.014 400.466 207.973" fill="#E27769"/>
<path d="M393.681 215.093L392.951 216.709C392.754 217.145 392.556 217.58 392.399 218.036C391.69 220.085 391.805 222.329 392.718 224.294" stroke="black" stroke-miterlimit="10"/>
<path d="M389.617 214.89C389.11 217.337 388.923 220.281 389.272 222.12C389.527 223.312 389.997 224.448 390.661 225.47" stroke="black" stroke-miterlimit="10"/>
<path d="M386.056 213.968C386.056 213.968 385.742 215.777 385.666 216.795C385.428 220.038 385.858 223.174 387.627 225.576" stroke="black" stroke-miterlimit="10"/>
<path d="M291.992 155.935L289.073 155.652C288.201 155.596 287.336 155.45 286.494 155.216C285.943 155.024 285.407 154.794 284.888 154.527C282.729 153.473 281.625 153.159 279.558 151.943C278.377 151.232 277.154 150.595 275.894 150.037C274.658 149.505 273.361 149.217 272.226 148.492C272.122 148.435 272.036 148.351 271.977 148.249C271.953 148.161 271.953 148.068 271.977 147.98C272.241 146.116 276.031 146.541 277.551 146.967C277.984 147.135 278.452 147.197 278.914 147.149C278.904 146.552 278.729 145.97 278.407 145.467C277.556 143.947 276.31 142.721 275.185 141.413C274.141 140.182 273.087 138.956 272.144 137.659C271.248 136.448 270.32 133.808 271.025 133.484C271.729 133.159 271.354 133.803 271.582 133.833C271.126 133.554 271.298 132.435 271.628 131.994C271.957 131.553 272.859 132.222 273.148 132.647C272.823 132.237 272.935 131.31 273.269 131.127C273.776 130.884 274.333 131.214 274.789 131.487C275.214 131.805 275.693 132.042 276.203 132.186C276.07 131.851 275.992 131.497 275.97 131.138C276.223 130.823 276.72 130.985 277.07 131.173C284.118 135.014 290.132 140.831 297.626 144.256" fill="#E27769"/>
<path d="M277.389 144.028C278.22 145.301 278.81 146.716 279.127 148.203" stroke="black" stroke-miterlimit="10"/>
<path d="M271.537 133.412C272.469 134.573 273.721 135.378 274.81 136.377C276.548 137.968 278.2 139.64 279.877 141.292" stroke="black" stroke-miterlimit="10"/>
<path d="M273.097 132.506C273.634 133.014 274.204 133.484 274.805 133.914C275.443 134.375 276.117 134.786 276.781 135.217C278.673 136.449 280.477 137.814 282.177 139.301" stroke="black" stroke-miterlimit="10"/>
<path d="M276.4 132.318C277.027 132.854 277.727 133.3 278.478 133.64C280.758 134.854 282.884 136.335 284.812 138.054" stroke="black" stroke-miterlimit="10"/>
<path d="M292.276 156.376C292.276 156.376 288.288 155.839 286.662 155.408" stroke="black" stroke-miterlimit="10"/>
<path d="M380.432 157.557C383.173 157.82 385.919 158.064 388.539 159.077C391.837 160.323 394.705 162.664 397.406 165.056C400.228 167.559 403.106 170.959 405.853 173.569L391.787 185.866L381.805 176.138" fill="#2C221D"/>
<path d="M396.99 190.011C398.211 188.462 399.618 187.07 401.18 185.866" stroke="black" stroke-miterlimit="10"/>
<path d="M387.672 181.879L402.346 169.996" stroke="#6D574E" stroke-miterlimit="10"/>
<path d="M333.309 174.46L335.442 153.757" stroke="#6D574E" stroke-miterlimit="10"/>
<path d="M346.69 170.564C346.69 170.564 347.663 174.982 347.926 176.877" stroke="#6D574E" stroke-miterlimit="10"/>
<path d="M381.308 176.137C384.348 178.488 391.766 185.881 391.766 185.881" stroke="#6D574E" stroke-miterlimit="10"/>
<path d="M365.651 142.863L372.238 145.523L371.853 149.896L375.157 156.285C375.157 156.285 373.546 162.31 366.305 163.81C360.194 165.076 360.331 161.129 360.331 161.129L357.422 152.728" fill="#E27769"/>
<path d="M351.802 146.242C352.77 142.964 353.292 140.952 354.534 138.571C355.577 136.544 357.412 133.641 359.514 132.693C362.22 131.477 365.316 132.972 368.047 133.96C372.532 135.601 373.545 140.876 373.038 145.092C372.638 148.33 370.748 149.926 368.448 152.328C365.438 155.469 358.035 158.145 354.209 156.189C351.352 154.724 350.774 149.703 351.802 146.242Z" fill="#E27769"/>
<path d="M398.642 166.044C400.405 165.461 401.272 163.389 401.175 161.914C401.018 159.543 399.909 158.317 399.726 156.847C399.61 155.895 399.893 154.927 399.812 153.969C399.706 153.179 399.402 152.429 398.929 151.787C398.456 151.145 397.83 150.632 397.107 150.296C395.653 149.635 394.044 149.391 392.46 149.592C391.244 149.703 390.028 149.961 388.822 149.789C387.818 149.611 386.857 149.239 385.995 148.695C384.42 147.81 383.064 146.582 382.027 145.102C380.33 142.569 379.965 139.361 378.658 136.595C377.993 135.2 377.087 133.935 375.982 132.855C373.317 130.231 370.779 129.258 367.004 129.131C364.414 129.045 360.812 129.389 358.831 131.806C358.831 131.806 355.005 131.903 353.176 133.833C351.007 136.118 351.149 139.407 353.059 142.072C354.037 140.466 354.868 138.768 356.302 137.537C356.228 137.673 356.201 137.829 356.224 137.981C356.246 138.134 356.318 138.275 356.429 138.383C356.655 138.596 356.95 138.72 357.26 138.733C358.086 138.717 358.891 138.462 359.575 137.998C359.333 138.645 359.229 139.336 359.271 140.025C359.268 140.172 359.313 140.316 359.398 140.435C359.521 140.551 359.685 140.613 359.854 140.608C360.421 140.649 360.99 140.545 361.505 140.305C362.02 140.064 362.465 139.696 362.798 139.235C362.489 140.076 362.215 141.13 362.839 141.768C363.078 141.975 363.373 142.109 363.686 142.153C364 142.197 364.319 142.149 364.607 142.016C365.184 141.741 365.701 141.354 366.127 140.876C365.909 141.089 366.193 142.3 366.249 142.579C366.369 143.189 366.539 143.789 366.755 144.373C367.379 146.179 368.201 147.911 369.208 149.536C370.267 151.203 371.777 152.47 372.856 154.096C373.54 155.109 374.118 156.25 375.04 157.075C376.231 158.115 377.668 158.832 379.215 159.158C380.735 159.462 382.255 159.325 383.775 159.275C389.374 159.092 393.621 161.894 398.662 166.019" fill="#893D33"/>
<path d="M385.579 129.79C385.274 129 384.796 128.289 384.181 127.707C382.002 125.68 377.244 125.827 375.618 128.558C374.721 130.078 375.157 131.989 375.836 133.595L377.173 136.529C378.112 137.029 379.156 137.3 380.22 137.32C381.284 137.339 382.338 137.106 383.294 136.64C384.084 136.282 384.76 135.715 385.251 135.001C385.742 134.287 386.029 133.452 386.081 132.587C386.112 131.629 385.941 130.676 385.579 129.79Z" fill="#893D33"/>
<path d="M366.158 146.804C366.614 145.447 368.787 144.955 369.862 145.766C372.446 147.722 369.836 152.626 366.973 152.282C366.168 152.181 365.165 151.537 365.165 150.59" fill="#E27769"/>
<path d="M369.344 148.157L366.137 149.642" stroke="black" stroke-miterlimit="10"/>
<path d="M367.971 145.523C367.236 145.707 366.575 146.112 366.076 146.683" stroke="black" stroke-miterlimit="10"/>
<path d="M370.18 150.585C369.46 151.598 368.325 152.52 367.048 152.343C366.591 152.296 366.164 152.094 365.836 151.772C365.508 151.45 365.3 151.026 365.245 150.569" stroke="black" stroke-miterlimit="10"/>
<path d="M358.881 157.03C361.06 156.814 363.151 156.056 364.962 154.826" stroke="black" stroke-miterlimit="10"/>
<path d="M355.719 144.58C355.303 145.443 354.713 146.21 353.986 146.835C353.802 146.959 353.632 147.104 353.48 147.266C353.372 147.39 353.294 147.537 353.252 147.696C353.21 147.855 353.204 148.022 353.236 148.183C353.27 148.344 353.339 148.496 353.439 148.626C353.539 148.757 353.667 148.864 353.814 148.938" stroke="black" stroke-miterlimit="10"/>
<path d="M354.367 150.878C354.607 151.087 354.902 151.221 355.217 151.265C355.531 151.309 355.852 151.261 356.14 151.127C356.86 150.742 356.875 149.819 356.9 149.1" stroke="black" stroke-miterlimit="10"/>
<path d="M359.23 142.802C359.758 142.683 360.305 142.683 360.832 142.802C361.363 142.915 361.842 143.205 362.19 143.623C362.565 144.195 362.797 144.851 362.863 145.533" stroke="black" stroke-miterlimit="10"/>
<path d="M353.374 140.8C353.629 140.628 353.926 140.526 354.234 140.506C354.542 140.485 354.85 140.547 355.127 140.684C355.402 140.825 355.644 141.022 355.84 141.262C356.035 141.502 356.179 141.779 356.262 142.077" stroke="black" stroke-miterlimit="10"/>
<path d="M360.117 145.827C359.909 146.257 359.494 146.485 359.185 146.333C359.025 146.216 358.917 146.041 358.882 145.846C358.847 145.651 358.888 145.45 358.997 145.285C359.2 144.854 359.62 144.626 359.93 144.778C360.09 144.895 360.199 145.069 360.234 145.265C360.269 145.46 360.227 145.661 360.117 145.827Z" fill="black"/>
<path d="M354.428 143.957C354.22 144.388 353.805 144.616 353.49 144.464C353.331 144.347 353.223 144.173 353.188 143.979C353.154 143.785 353.195 143.585 353.303 143.42C353.511 142.989 353.931 142.761 354.24 142.913C354.397 143.031 354.504 143.205 354.539 143.398C354.573 143.592 354.534 143.791 354.428 143.957Z" fill="black"/>
<path d="M413.458 202.719C416.563 199.558 418.725 195.594 419.701 191.273" stroke="black" stroke-miterlimit="10"/>
<path d="M420.531 200.966C421.467 199.119 422.06 197.117 422.279 195.058" stroke="black" stroke-miterlimit="10"/>
<path d="M360.092 102.555C360.092 102.555 354.817 104.972 351.275 106.578C349.274 107.485 345.914 109.968 344.769 111.858C343.31 114.264 342.93 117.239 343.097 119.691C343.327 121.563 343.991 123.356 345.038 124.925C345.757 126.096 346.522 127.312 347.186 127.155C347.85 126.998 347.617 125.361 347.617 125.361C347.876 125.986 348.203 126.58 348.59 127.135C348.833 127.297 349.096 127.444 349.37 127.312C349.694 127.164 349.956 126.908 350.11 126.587C350.228 126.291 350.288 125.974 350.287 125.655C350.31 125.214 350.31 124.773 350.287 124.333C350.434 124.662 350.576 125.685 350.855 125.63C351.235 125.534 351.579 125.327 351.843 125.037C352.3 124.413 352.643 123.713 352.856 122.969C352.848 123.141 352.873 123.313 352.927 123.476C352.958 123.558 353.01 123.631 353.078 123.687C353.145 123.743 353.226 123.78 353.312 123.795C353.784 123.613 354.212 123.333 354.569 122.975C355.136 122.199 355.349 121.171 355.76 120.304C356.074 119.638 356.467 119.012 356.93 118.44C357.416 117.805 358.015 117.268 358.698 116.854C360.036 116.149 360.862 115.962 362.245 115.334C363.433 114.836 364.49 114.069 365.331 113.094" fill="#D16159"/>
<path d="M352.704 123.274C352.811 122.118 352.947 120.968 353.13 119.828C353.224 119.061 353.413 118.309 353.692 117.588C354.266 116.457 355.044 115.442 355.988 114.594" stroke="black" stroke-miterlimit="10"/>
<path d="M350.399 124.591C350.034 122.648 349.917 120.666 350.05 118.693C350.046 118.147 350.098 117.602 350.207 117.067C350.491 116.165 350.941 115.325 351.534 114.589" stroke="black" stroke-miterlimit="10"/>
<path d="M347.673 125.741C346.982 123.852 346.508 121.89 346.259 119.894C346.226 119.51 346.216 119.124 346.229 118.738C346.304 117.295 346.724 115.891 347.455 114.644" stroke="black" stroke-miterlimit="10"/>
<path d="M364.576 73.9563L373.859 91.4678L353.145 105.655L366.78 116.392C366.78 116.392 390.018 108.827 396.351 105.073C401.317 102.124 403.445 94.4725 393.879 81.9925C384.312 69.5125 377.695 62.1046 375.729 60.0271C371.518 55.5428 366.476 53.6782 361.789 56.0495" fill="#4C4139"/>
<path d="M364.576 73.9565L373.859 91.4681L353.15 105.651" stroke="black" stroke-miterlimit="10"/>
<path d="M365.113 111.559C365.114 111.696 365.075 111.831 364.999 111.946C364.923 112.06 364.815 112.15 364.688 112.204C364.562 112.257 364.422 112.271 364.287 112.245C364.152 112.219 364.028 112.153 363.93 112.056C363.833 111.959 363.766 111.836 363.739 111.701C363.712 111.566 363.725 111.426 363.777 111.299C363.83 111.172 363.919 111.063 364.033 110.987C364.147 110.91 364.282 110.87 364.419 110.87C364.602 110.87 364.778 110.942 364.908 111.071C365.038 111.2 365.112 111.375 365.113 111.559Z" stroke="black" stroke-miterlimit="10"/>
<path d="M368.696 110.099C369.079 110.099 369.39 109.789 369.39 109.405C369.39 109.022 369.079 108.711 368.696 108.711C368.312 108.711 368.001 109.022 368.001 109.405C368.001 109.789 368.312 110.099 368.696 110.099Z" stroke="black" stroke-miterlimit="10"/>
<path d="M360.457 111.407C360.533 111.467 369.385 107.009 369.385 107.009" stroke="black" stroke-miterlimit="10"/>
<path d="M360.943 100.31C361.029 100.249 376.859 112.977 376.859 112.977" stroke="black" stroke-miterlimit="10"/>
<path d="M373.352 91.6403C375.298 90.8853 377.249 90.0645 379.326 89.7554C381.553 89.4944 383.801 89.4588 386.035 89.649" stroke="black" stroke-miterlimit="10"/>
<path d="M366.781 116.387L393.605 106.639" stroke="black" stroke-miterlimit="10"/>
<path d="M371.468 51.6667C366.107 46.6301 360.634 41.6189 354.295 37.8845C342.56 30.9731 326.184 32.0422 318.092 37.0738C311.875 40.9348 308.601 45.7383 304.614 51.692C299.618 59.1456 294.378 67.1616 286.144 70.7287C282.136 72.4667 277.723 72.9937 273.431 73.8297C269.14 74.6658 264.752 75.9325 261.463 78.8157C258.175 81.6988 256.305 86.5935 258.078 90.5863C259.477 93.7278 262.912 95.704 266.343 95.8002C269.773 95.8965 273.127 94.2801 275.595 91.9189C281.903 85.8385 284.842 69.8218 273.188 65.2108" stroke="#ED725A" stroke-width="1.5" stroke-miterlimit="10"/>
<path d="M116.917 160.212C117.769 163.963 119.538 167.445 122.065 170.346C125.364 174.106 132.093 176.538 134.981 171.07C136.329 168.537 137.008 164.418 133.795 162.598C133.568 162.451 133.306 162.365 133.035 162.35C132.754 162.377 132.488 162.488 132.271 162.669C132.054 162.85 131.896 163.092 131.819 163.364C130.963 165.669 132.326 168.162 134.206 170.011C135.071 170.936 136.137 171.651 137.322 172.099C137.945 172.334 138.611 172.434 139.275 172.393C139.94 172.352 140.588 172.171 141.178 171.861C142.87 170.848 143.316 168.557 143.205 166.931" stroke="#8F96DB" stroke-width="1.5" stroke-miterlimit="10"/>
<path d="M109.834 67.6328C112.813 63.873 116.832 60.4731 121.346 58.7351C123.962 57.7563 126.792 57.4905 129.545 57.9649C130.827 58.2183 132.316 58.6236 133.091 59.7738C133.867 60.9241 132.95 63.2447 134.612 63.9338C135.047 64.0772 135.512 64.1 135.959 63.9997C137.373 63.7869 138.751 63.3613 140.17 63.1535C141.585 62.8735 143.053 63.0381 144.371 63.6248C145.648 64.2733 146.615 65.6516 146.428 67.0906C146.352 67.648 146.109 68.1952 146.215 68.7475C146.387 69.6697 147.431 70.1511 148.363 70.2676C150.299 70.4449 152.138 70.3841 153.785 71.6205C154.991 72.5325 155.685 74.154 155.067 75.4613" stroke="#FFDD99" stroke-width="1.5" stroke-miterlimit="10"/>
<path d="M236.229 64.0555C236.984 62.3834 237.826 60.7062 239.138 59.4243C240.45 58.1423 242.325 57.3063 244.124 57.6559C245.056 57.8383 245.933 58.3197 246.88 58.2994C248.188 58.2994 249.302 57.286 249.89 56.1054C250.478 54.9248 250.645 53.6175 250.904 52.3355C251.284 50.3087 251.917 48.1958 253.3 46.6554C254.683 45.1151 257.07 44.2841 258.945 45.2012" stroke="#FFDD99" stroke-width="1.5" stroke-miterlimit="10"/>
<path d="M147.935 234.677C148.456 231.569 146.359 228.628 143.251 228.107C140.143 227.586 137.202 229.684 136.681 232.791C136.161 235.899 138.258 238.84 141.366 239.361C144.474 239.882 147.415 237.784 147.935 234.677Z" stroke="#909DF4" stroke-width="1.5" stroke-miterlimit="10"/>
<path d="M239.396 43.9345C241.951 43.9345 244.022 41.8633 244.022 39.3083C244.022 36.7533 241.951 34.6821 239.396 34.6821C236.841 34.6821 234.77 36.7533 234.77 39.3083C234.77 41.8633 236.841 43.9345 239.396 43.9345Z" stroke="#8F96DB" stroke-width="1.5" stroke-miterlimit="10"/>
<path d="M404.033 216.8L407.098 237.002L419.153 228.12L404.033 216.8Z" fill="#FFDD99"/>
<path d="M100.586 194.632L108.739 185.39L94.8096 185.886L100.586 194.632Z" stroke="#8F96DB" stroke-width="1.5" stroke-miterlimit="10"/>
<path d="M113.618 217.53C115.443 217.53 116.922 216.051 116.922 214.226C116.922 212.401 115.443 210.922 113.618 210.922C111.794 210.922 110.314 212.401 110.314 214.226C110.314 216.051 111.794 217.53 113.618 217.53Z" fill="#FFDD99"/>
<path d="M120.672 76.4443L112.737 93.7583L136.987 90.2418L120.672 76.4443Z" fill="#ED725A"/>
<path d="M105.106 119.59C105.106 119.992 104.986 120.384 104.762 120.718C104.539 121.052 104.221 121.312 103.849 121.465C103.477 121.617 103.068 121.656 102.674 121.576C102.28 121.495 101.919 121.3 101.637 121.014C101.354 120.728 101.163 120.364 101.088 119.969C101.013 119.575 101.057 119.166 101.214 118.796C101.371 118.426 101.635 118.112 101.972 117.892C102.308 117.672 102.702 117.558 103.104 117.563C103.638 117.57 104.147 117.786 104.521 118.165C104.896 118.545 105.106 119.057 105.106 119.59Z" fill="#909DF4"/>
<path d="M377.032 40.6054C377.032 41.0063 376.913 41.3981 376.69 41.7314C376.467 42.0647 376.151 42.3245 375.78 42.4779C375.41 42.6313 375.003 42.6715 374.609 42.5933C374.216 42.5151 373.855 42.322 373.572 42.0386C373.288 41.7551 373.095 41.394 373.017 41.0008C372.939 40.6077 372.979 40.2001 373.132 39.8298C373.286 39.4594 373.545 39.1429 373.879 38.9202C374.212 38.6975 374.604 38.5786 375.005 38.5786C375.542 38.5786 376.058 38.7922 376.438 39.1722C376.818 39.5523 377.032 40.0679 377.032 40.6054Z" fill="#ED725A"/>
<path d="M413.873 215.543C414.646 215.232 415.481 215.107 416.311 215.179C417.141 215.25 417.943 215.515 418.651 215.954C419.847 216.76 420.47 218.264 421.909 218.736C424.017 219.425 425.882 217.459 427.919 217.322C429.677 217.205 431.096 218.401 431.785 219.937C432.3 221.287 432.572 222.717 432.591 224.162" stroke="#8F96DB" stroke-width="1.5" stroke-miterlimit="10"/>
<path d="M398.373 78.1468C398.757 77.24 399.4 76.4673 400.223 75.9262C401.045 75.3851 402.01 75.0999 402.994 75.1066C404.008 75.1066 405.021 75.4663 405.974 75.213C408.983 74.4326 408.73 69.1984 411.704 68.2915C413.762 67.6631 416.001 69.6595 418.018 68.8995C419.751 68.2509 420.176 66.067 420.729 64.2987C421.507 61.9098 422.931 59.7828 424.843 58.1526C426.755 56.5225 429.08 55.4527 431.562 55.0615" stroke="#8F96DB" stroke-width="1.5" stroke-miterlimit="10"/>
<path d="M375.446 183.292C376.288 183.292 377.096 183.627 377.692 184.223C378.288 184.818 378.623 185.627 378.623 186.469V242.713C378.623 243.555 378.288 244.363 377.692 244.959C377.096 245.555 376.288 245.89 375.446 245.89H284.311C283.893 245.89 283.48 245.809 283.094 245.649C282.708 245.49 282.358 245.256 282.063 244.961C281.767 244.666 281.533 244.315 281.374 243.929C281.215 243.544 281.133 243.13 281.134 242.713V186.469C281.134 185.627 281.468 184.818 282.064 184.223C282.66 183.627 283.468 183.292 284.311 183.292H375.446ZM375.446 182.532H284.311C283.267 182.533 282.266 182.949 281.528 183.687C280.79 184.425 280.375 185.425 280.374 186.469V242.713C280.374 243.757 280.788 244.758 281.527 245.497C282.265 246.235 283.266 246.65 284.311 246.65H375.446C376.489 246.649 377.49 246.233 378.228 245.495C378.966 244.757 379.381 243.757 379.383 242.713V186.469C379.381 185.425 378.966 184.425 378.228 183.687C377.49 182.949 376.489 182.533 375.446 182.532Z" fill="white"/>
<path d="M281.133 191.764H378.612V242.733C378.612 243.576 378.277 244.384 377.682 244.98C377.086 245.575 376.278 245.91 375.435 245.91H284.31C283.468 245.91 282.66 245.575 282.064 244.98C281.468 244.384 281.133 243.576 281.133 242.733V191.764Z" fill="#C5B3DD"/>
<path d="M288.591 187.792C288.591 188.151 288.485 188.503 288.285 188.802C288.085 189.101 287.801 189.334 287.468 189.472C287.136 189.61 286.77 189.646 286.417 189.576C286.064 189.505 285.74 189.332 285.486 189.078C285.232 188.823 285.058 188.499 284.988 188.146C284.918 187.794 284.954 187.428 285.092 187.095C285.229 186.763 285.462 186.479 285.762 186.279C286.061 186.079 286.412 185.973 286.772 185.973C287.255 185.973 287.717 186.164 288.058 186.505C288.4 186.846 288.591 187.309 288.591 187.792Z" stroke="white" stroke-width="1.5" stroke-miterlimit="10"/>
<path d="M295.64 187.792C295.64 188.152 295.533 188.503 295.333 188.803C295.133 189.102 294.848 189.335 294.515 189.473C294.183 189.61 293.817 189.646 293.464 189.575C293.111 189.505 292.787 189.331 292.532 189.076C292.278 188.821 292.105 188.497 292.036 188.143C291.966 187.79 292.003 187.424 292.141 187.092C292.28 186.76 292.514 186.476 292.814 186.277C293.113 186.077 293.466 185.972 293.826 185.973C294.064 185.973 294.301 186.02 294.521 186.111C294.741 186.203 294.942 186.337 295.11 186.506C295.279 186.675 295.412 186.875 295.503 187.096C295.594 187.317 295.64 187.553 295.64 187.792Z" stroke="white" stroke-width="1.5" stroke-miterlimit="10"/>
<path d="M281.133 191.764H378.622" stroke="white" stroke-width="1.5" stroke-miterlimit="10"/>
<path d="M364.931 233.744C360.082 228.368 354.443 225.713 351.58 226.361C347.364 227.314 348.129 238.071 348.251 242.393C346.206 240.031 343.699 238.113 340.884 236.759C338.776 235.746 336.369 235.046 334.094 235.604C331.819 236.161 329.807 238.299 330.076 240.625C324.729 232.711 317.481 226.264 308.997 221.877C303.656 219.126 289.134 213.395 286.646 219.344C283.92 225.865 299.39 245.94 299.39 245.94H374.381C374.381 245.94 369.325 238.593 364.931 233.744Z" fill="#A29DCE"/>
<path d="M271.262 176.376C268.511 173.492 265.866 167.919 265.126 164.949C264.472 162.335 263.89 159.66 262.653 157.243C262.319 156.589 260.89 155.084 261.412 154.304C262.456 152.728 264.994 154.81 265.653 155.743C265.891 156.077 266.763 157.491 267.198 157.577C267.634 157.663 267.822 155.966 267.877 155.236C268.098 152.352 268.098 149.455 267.877 146.571C267.634 143.663 268.05 141.109 268.962 140.998C269.874 140.886 269.838 141.413 270.005 141.596C270.152 140.673 270.993 139.569 271.526 139.888C271.679 140.001 271.804 140.147 271.892 140.316C271.98 140.484 272.028 140.671 272.032 140.861C272.098 141.231 272.187 141.597 272.301 141.955C272.301 141.955 272.807 139.989 273.785 141.104C274.267 141.662 275.007 144.651 275.478 145.588C275.356 145.028 275.356 144.447 275.478 143.886C275.589 143.486 275.812 143.161 276.243 143.379C276.351 143.449 276.444 143.54 276.516 143.647C276.587 143.755 276.636 143.876 276.658 144.002C277.14 145.335 278.32 147.484 278.751 148.836L280.099 153.072C280.94 155.722 281.761 158.514 282.364 161.281C282.926 163.84 284.978 170.148 284.978 170.148" fill="#A04B4B"/>
<path d="M269.96 141.727C270.204 143.248 270.761 145.178 271.065 146.901C271.501 149.363 271.698 151.649 272.078 153.822" stroke="black" stroke-miterlimit="10"/>
<path d="M272.413 141.976C272.706 143.273 273.213 145.077 273.548 146.536C274.115 149.004 274.531 151.223 275.022 153.392" stroke="black" stroke-miterlimit="10"/>
<path d="M275.453 145.523C276.173 147.884 277.216 150.59 278.042 153.584" stroke="black" stroke-miterlimit="10"/>
<path d="M267.478 157.425C267.29 158.672 267.199 159.999 266.368 161.089" stroke="black" stroke-miterlimit="10"/>
<path d="M364.424 245.91C363.451 243.306 362.397 240.569 360.943 238.183C359.508 235.725 357.511 233.641 355.116 232.103C354.001 231.452 352.843 230.879 351.65 230.385L342.104 226.169L326.488 220.089L323.594 217.398C321.73 215.665 319.872 213.92 318.021 212.164L317.808 211.961C303.671 198.468 293.157 183.393 283.976 165.806L267.482 173.037C267.482 173.037 274.617 197.358 281.396 207.669C290.35 221.3 300.707 233.699 305.384 237.626C306.218 240.433 307.177 243.196 308.262 245.915L364.424 245.91Z" fill="#FCDDD2"/>
<path d="M270.133 181.397L287.827 172.89" stroke="black" stroke-miterlimit="10"/>
<path d="M271.014 171.481L276.983 184.427" stroke="black" stroke-miterlimit="10"/>
<path d="M276.623 174.202C276.623 174.433 276.555 174.66 276.426 174.852C276.297 175.045 276.115 175.195 275.901 175.283C275.687 175.372 275.451 175.395 275.224 175.35C274.997 175.305 274.789 175.193 274.625 175.03C274.461 174.866 274.35 174.657 274.305 174.43C274.26 174.203 274.283 173.968 274.371 173.754C274.46 173.54 274.61 173.357 274.802 173.229C274.995 173.1 275.221 173.031 275.453 173.031C275.763 173.033 276.06 173.156 276.279 173.376C276.498 173.595 276.622 173.892 276.623 174.202Z" stroke="#D8A798" stroke-miterlimit="10"/>
<path d="M340.382 245.555L342.819 242.378C343.678 241.22 344.596 240.107 345.57 239.044C348.453 235.932 352.338 233.933 356.546 233.394" stroke="#D8A798" stroke-miterlimit="10"/>
<path d="M304.893 236.1C304.927 231.845 306.268 227.702 308.733 224.233C311.799 219.891 316.303 216.775 321.75 216.633" stroke="#D8A798" stroke-miterlimit="10"/>
<path d="M305.308 237.448C304.528 235.122 304.082 232.518 302.846 230.385" stroke="black" stroke-miterlimit="10"/>
<path d="M321.512 218.356L320.499 231.327C320.499 231.327 324.857 235.771 330.856 232.878C336.855 229.984 341.228 224.482 341.228 224.482L339.267 216.44" fill="#A04B4B"/>
<path d="M345.347 202.187C344.745 200.281 343.609 198.587 342.073 197.307C338.395 194.298 334.351 194.379 330.419 196.699C326.989 198.726 322.277 201.898 319.657 204.943C316.956 208.09 315.147 211.997 317.909 215.675C322.348 221.589 334.802 219.582 340.741 214.733C343.163 212.757 345.443 209.549 345.808 206.393C345.949 204.974 345.792 203.541 345.347 202.187Z" fill="#A04B4B"/>
<path d="M329.64 198.351C327.658 199.364 325.495 199.628 323.326 199.871C322.282 199.998 320.904 200.347 321.091 201.716C321.213 202.597 321.983 203.357 322.612 203.894" fill="#A04B4B"/>
<path d="M321.006 211.824L321.548 210.608C321.892 209.823 320.767 209.296 320.23 209.027C319.845 208.835 319.637 208.657 319.247 208.916C319.151 208.982 318.584 209.524 318.462 209.422L317.418 208.206C316.569 209.757 316.151 211.507 316.207 213.273C316.296 214.711 316.892 216.07 317.889 217.109C318.351 217.584 318.861 218.01 319.409 218.381C323.499 220.844 328.596 220.656 333.045 218.928C334.442 218.442 335.71 217.645 336.754 216.597C323.154 216.415 321.006 211.824 321.006 211.824Z" fill="#1E1611"/>
<path d="M337.24 210.912L337.058 210.877C336.151 210.73 335.254 210.877 334.357 210.568C333.624 210.345 332.992 209.874 332.569 209.235C332.097 208.465 332.741 208.019 333.364 207.679C334.301 207.191 335.167 206.577 335.938 205.855C336.572 205.281 337.033 204.542 337.271 203.72C337.509 202.899 337.514 202.028 337.286 201.204C336.703 199.364 334.894 198.28 333.486 197.115C332.077 195.949 330.4 194.242 330.952 192.291C331.504 190.34 333.415 189.626 335.279 189.899C336.293 190.046 337.306 190.33 338.289 190.173C338.796 190.092 339.303 189.904 339.784 189.793C340.553 189.601 341.362 189.633 342.113 189.888C342.864 190.142 343.526 190.607 344.02 191.227C344.684 192.149 344.942 193.461 345.961 193.968C346.477 194.149 347.013 194.271 347.557 194.333C348.097 194.472 348.599 194.734 349.021 195.099C349.444 195.464 349.777 195.921 349.994 196.436C350.422 197.478 350.433 198.644 350.024 199.694C349.31 201.564 348.246 202.501 349.122 204.563C351.149 209.357 352.006 215.239 347.156 218.685C345.88 219.587 344.278 220.058 343.219 221.218C342.556 221.933 342.013 222.956 341.046 223.058C340.717 223.062 340.392 222.991 340.096 222.85C339.799 222.71 339.538 222.504 339.333 222.247C338.949 221.803 338.61 221.323 338.32 220.813C337.839 220.152 337.512 219.392 337.362 218.589C337.235 217.433 337.838 216.339 338.375 215.315C338.912 214.292 339.926 212.341 338.7 211.54C338.254 211.246 337.76 211.033 337.24 210.912Z" fill="#1E1611"/>
<path d="M334.246 200.459C333.942 199.532 333.384 198.61 332.523 199.03C332.419 199.09 332.33 199.173 332.265 199.273C332.2 199.374 332.16 199.489 332.148 199.608C332.129 199.846 332.147 200.085 332.204 200.317C332.337 201.431 332.681 202.509 333.217 203.494C333.32 203.703 333.48 203.879 333.678 204.001C335.036 204.634 334.418 200.966 334.246 200.459Z" fill="#1E1611"/>
<path d="M325.727 206.717L321.917 205.855C321.917 205.855 321.542 209.124 323.163 209.448C324.785 209.772 325.727 206.717 325.727 206.717Z" fill="white"/>
<path d="M321.689 202.881C322.007 203.294 322.431 203.613 322.916 203.803" stroke="black" stroke-miterlimit="10"/>
<path d="M325.915 199.527C327.341 199.313 328.716 198.837 329.969 198.123" stroke="black" stroke-miterlimit="10"/>
<path d="M336.353 211.044C337.757 209.985 340.311 210.998 340.838 212.564C342.099 216.354 336.024 219.516 333.359 217.17C332.604 216.506 332.036 215.143 332.7 214.185" fill="#A04B4B"/>
<path d="M338.643 214.647L334.352 213.912" stroke="black" stroke-miterlimit="10"/>
<path d="M339.089 211.009C338.215 210.681 337.262 210.63 336.358 210.862" stroke="black" stroke-miterlimit="10"/>
<path d="M332.796 214.236C332.577 214.641 332.479 215.099 332.511 215.557C332.543 216.016 332.705 216.456 332.978 216.825C333.931 218.214 336.226 218.219 337.615 217.626" stroke="black" stroke-miterlimit="10"/>
<path d="M330.253 203.585C329.711 203.981 329.042 203.981 328.758 203.585C328.474 203.19 328.687 202.572 329.234 202.172C329.782 201.771 330.445 201.777 330.724 202.172C331.003 202.567 330.795 203.19 330.253 203.585Z" fill="black"/>
<path d="M343.326 224.061C329.645 225.682 321.259 231.95 321.259 231.95L323.64 242.824C335.882 231.17 347.795 228.561 347.911 228.434L343.326 224.061Z" fill="#FCDDD2"/>
<path d="M320.848 225.004L315.705 228.328C315.705 228.328 314.819 237.575 316.511 242.515L321.259 231.986L320.848 225.004Z" fill="#FCDDD2"/>
<path d="M321.259 231.95L323.64 242.824C335.882 231.17 347.795 228.561 347.911 228.434" stroke="black" stroke-miterlimit="10"/>
<path d="M320.848 225.004L315.705 228.328C315.705 228.328 314.819 237.575 316.511 242.515L321.259 231.986" stroke="black" stroke-miterlimit="10"/>
<path d="M270.062 195.595C271.45 200.52 273.495 205.236 276.142 209.615" stroke="black" stroke-miterlimit="10"/>
<path d="M270.512 204.041C271.38 207.204 272.42 210.316 273.628 213.365" stroke="black" stroke-miterlimit="10"/>
<path d="M355.03 210.669C355.034 212.944 354.278 215.156 352.882 216.952C351.492 218.733 349.797 220.253 347.875 221.441" stroke="black" stroke-miterlimit="10"/>
<path d="M353.495 221.365C355.389 220.285 356.982 218.747 358.126 216.891" stroke="black" stroke-miterlimit="10"/>
</svg>
