<svg width="50" height="50" viewBox="0 0 50 50" fill="none" xmlns="http://www.w3.org/2000/svg">
<circle cx="25" cy="25" r="22.5" fill="#090521" stroke="white" stroke-width="5"/>
<circle cx="25" cy="25" r="12" fill="url(#paint0_linear_373_372)"/>
<path d="M27.696 22.792C27.696 23.176 27.616 23.5547 27.456 23.928C27.296 24.2907 27.088 24.648 26.832 25C26.5867 25.3413 26.304 25.6773 25.984 26.008C25.664 26.328 25.344 26.6427 25.024 26.952C24.8533 27.112 24.6613 27.304 24.448 27.528C24.2347 27.752 24.032 27.976 23.84 28.2C23.648 28.424 23.4827 28.6427 23.344 28.856C23.2053 29.0587 23.1307 29.2293 23.12 29.368H28.048V31H20.992C20.9813 30.9147 20.976 30.8133 20.976 30.696C20.976 30.568 20.976 30.472 20.976 30.408C20.976 29.896 21.056 29.4267 21.216 29C21.3867 28.5627 21.6053 28.1573 21.872 27.784C22.1387 27.4107 22.4373 27.0587 22.768 26.728C23.0987 26.3973 23.4293 26.072 23.76 25.752C24.016 25.5067 24.2613 25.2667 24.496 25.032C24.7307 24.7973 24.9333 24.568 25.104 24.344C25.2853 24.1093 25.4293 23.8747 25.536 23.64C25.6427 23.3947 25.696 23.144 25.696 22.888C25.696 22.3333 25.536 21.9387 25.216 21.704C24.896 21.4693 24.5067 21.352 24.048 21.352C23.7493 21.352 23.472 21.3947 23.216 21.48C22.96 21.5653 22.7307 21.6667 22.528 21.784C22.336 21.9013 22.1653 22.024 22.016 22.152C21.8667 22.2693 21.7547 22.3653 21.68 22.44L20.72 21.08C21.168 20.6533 21.6907 20.312 22.288 20.056C22.896 19.7893 23.5467 19.656 24.24 19.656C25.424 19.656 26.2933 19.9387 26.848 20.504C27.4133 21.0587 27.696 21.8213 27.696 22.792Z" fill="#192033"/>
<defs>
<linearGradient id="paint0_linear_373_372" x1="25" y1="13" x2="25" y2="37" gradientUnits="userSpaceOnUse">
<stop stop-color="#D9D9D9"/>
<stop offset="0.0001" stop-color="#D5AAEF"/>
<stop offset="1" stop-color="#9A98EF"/>
</linearGradient>
</defs>
</svg>
