<svg width="50" height="480" viewBox="0 0 50 480" fill="none" xmlns="http://www.w3.org/2000/svg">
<circle cx="25" cy="25" r="22.5" fill="#090521" stroke="white" stroke-width="5"/>
<circle cx="25" cy="25" r="12" fill="url(#paint0_linear_380_432)"/>
<path d="M21.44 22.216C22.0587 21.9707 22.6773 21.656 23.296 21.272C23.9253 20.888 24.48 20.4347 24.96 19.912H26.32V31H24.384V22.504C24.096 22.728 23.7333 22.9467 23.296 23.16C22.8587 23.3733 22.4373 23.5493 22.032 23.688L21.44 22.216Z" fill="#192033"/>
<path d="M25 60L25 205" stroke="#E5E5E5" stroke-width="3" stroke-dasharray="6 6"/>
<path d="M25 275L25 420" stroke="#E5E5E5" stroke-width="3" stroke-dasharray="6 6"/>
<circle cx="25" cy="240" r="22.5" fill="#090521" stroke="white" stroke-width="5"/>
<circle cx="25" cy="240" r="12" fill="url(#paint1_linear_380_432)"/>
<path d="M27.696 237.792C27.696 238.176 27.616 238.555 27.456 238.928C27.296 239.291 27.088 239.648 26.832 240C26.5867 240.341 26.304 240.677 25.984 241.008C25.664 241.328 25.344 241.643 25.024 241.952C24.8533 242.112 24.6613 242.304 24.448 242.528C24.2347 242.752 24.032 242.976 23.84 243.2C23.648 243.424 23.4827 243.643 23.344 243.856C23.2053 244.059 23.1307 244.229 23.12 244.368H28.048V246H20.992C20.9813 245.915 20.976 245.813 20.976 245.696C20.976 245.568 20.976 245.472 20.976 245.408C20.976 244.896 21.056 244.427 21.216 244C21.3867 243.563 21.6053 243.157 21.872 242.784C22.1387 242.411 22.4373 242.059 22.768 241.728C23.0987 241.397 23.4293 241.072 23.76 240.752C24.016 240.507 24.2613 240.267 24.496 240.032C24.7307 239.797 24.9333 239.568 25.104 239.344C25.2853 239.109 25.4293 238.875 25.536 238.64C25.6427 238.395 25.696 238.144 25.696 237.888C25.696 237.333 25.536 236.939 25.216 236.704C24.896 236.469 24.5067 236.352 24.048 236.352C23.7493 236.352 23.472 236.395 23.216 236.48C22.96 236.565 22.7307 236.667 22.528 236.784C22.336 236.901 22.1653 237.024 22.016 237.152C21.8667 237.269 21.7547 237.365 21.68 237.44L20.72 236.08C21.168 235.653 21.6907 235.312 22.288 235.056C22.896 234.789 23.5467 234.656 24.24 234.656C25.424 234.656 26.2933 234.939 26.848 235.504C27.4133 236.059 27.696 236.821 27.696 237.792Z" fill="#192033"/>
<circle cx="25" cy="455" r="22.5" fill="#090521" stroke="white" stroke-width="5"/>
<circle cx="25" cy="455" r="12" fill="url(#paint2_linear_380_432)"/>
<path d="M23.776 461.24C23.488 461.24 23.1893 461.219 22.88 461.176C22.5813 461.144 22.2933 461.096 22.016 461.032C21.7493 460.979 21.504 460.92 21.28 460.856C21.056 460.781 20.8853 460.712 20.768 460.648L21.152 459C21.376 459.107 21.7013 459.229 22.128 459.368C22.5547 459.496 23.0827 459.56 23.712 459.56C24.5547 459.56 25.1627 459.4 25.536 459.08C25.9093 458.749 26.096 458.312 26.096 457.768C26.096 457.416 26.0213 457.123 25.872 456.888C25.7333 456.653 25.536 456.467 25.28 456.328C25.0347 456.179 24.7467 456.077 24.416 456.024C24.096 455.96 23.7547 455.928 23.392 455.928H22.736V454.36H23.536C23.7813 454.36 24.0267 454.339 24.272 454.296C24.528 454.243 24.7573 454.157 24.96 454.04C25.1627 453.912 25.328 453.747 25.456 453.544C25.584 453.341 25.648 453.08 25.648 452.76C25.648 452.504 25.6 452.285 25.504 452.104C25.408 451.923 25.28 451.773 25.12 451.656C24.9707 451.539 24.7947 451.453 24.592 451.4C24.3893 451.347 24.176 451.32 23.952 451.32C23.472 451.32 23.0453 451.395 22.672 451.544C22.2987 451.683 21.968 451.843 21.68 452.024L20.976 450.584C21.1253 450.488 21.3067 450.387 21.52 450.28C21.7333 450.173 21.968 450.072 22.224 449.976C22.4907 449.88 22.7733 449.805 23.072 449.752C23.3707 449.688 23.6853 449.656 24.016 449.656C24.6347 449.656 25.168 449.731 25.616 449.88C26.064 450.029 26.432 450.243 26.72 450.52C27.0187 450.787 27.2373 451.107 27.376 451.48C27.5253 451.843 27.6 452.243 27.6 452.68C27.6 453.192 27.456 453.651 27.168 454.056C26.8907 454.461 26.528 454.771 26.08 454.984C26.656 455.187 27.1307 455.523 27.504 455.992C27.888 456.461 28.08 457.064 28.08 457.8C28.08 458.291 27.9947 458.749 27.824 459.176C27.6533 459.592 27.392 459.955 27.04 460.264C26.688 460.563 26.24 460.803 25.696 460.984C25.1627 461.155 24.5227 461.24 23.776 461.24Z" fill="#192033"/>
<defs>
<linearGradient id="paint0_linear_380_432" x1="25" y1="13" x2="25" y2="37" gradientUnits="userSpaceOnUse">
<stop offset="0.0001" stop-color="#D5AAEF"/>
<stop offset="1" stop-color="#9A98EF"/>
</linearGradient>
<linearGradient id="paint1_linear_380_432" x1="25" y1="228" x2="25" y2="252" gradientUnits="userSpaceOnUse">
<stop stop-color="#D9D9D9"/>
<stop offset="0.0001" stop-color="#D5AAEF"/>
<stop offset="1" stop-color="#9A98EF"/>
</linearGradient>
<linearGradient id="paint2_linear_380_432" x1="25" y1="443" x2="25" y2="467" gradientUnits="userSpaceOnUse">
<stop stop-color="#D9D9D9"/>
<stop offset="0.0001" stop-color="#D5AAEF"/>
<stop offset="1" stop-color="#9A98EF"/>
</linearGradient>
</defs>
</svg>
