<svg width="50" height="50" viewBox="0 0 50 50" fill="none" xmlns="http://www.w3.org/2000/svg">
<circle cx="25" cy="25" r="22.5" fill="#090521" stroke="white" stroke-width="5"/>
<circle cx="25" cy="25" r="12" fill="url(#paint0_linear_373_380)"/>
<path d="M23.776 31.24C23.488 31.24 23.1893 31.2187 22.88 31.176C22.5813 31.144 22.2933 31.096 22.016 31.032C21.7493 30.9787 21.504 30.92 21.28 30.856C21.056 30.7813 20.8853 30.712 20.768 30.648L21.152 29C21.376 29.1067 21.7013 29.2293 22.128 29.368C22.5547 29.496 23.0827 29.56 23.712 29.56C24.5547 29.56 25.1627 29.4 25.536 29.08C25.9093 28.7493 26.096 28.312 26.096 27.768C26.096 27.416 26.0213 27.1227 25.872 26.888C25.7333 26.6533 25.536 26.4667 25.28 26.328C25.0347 26.1787 24.7467 26.0773 24.416 26.024C24.096 25.96 23.7547 25.928 23.392 25.928H22.736V24.36H23.536C23.7813 24.36 24.0267 24.3387 24.272 24.296C24.528 24.2427 24.7573 24.1573 24.96 24.04C25.1627 23.912 25.328 23.7467 25.456 23.544C25.584 23.3413 25.648 23.08 25.648 22.76C25.648 22.504 25.6 22.2853 25.504 22.104C25.408 21.9227 25.28 21.7733 25.12 21.656C24.9707 21.5387 24.7947 21.4533 24.592 21.4C24.3893 21.3467 24.176 21.32 23.952 21.32C23.472 21.32 23.0453 21.3947 22.672 21.544C22.2987 21.6827 21.968 21.8427 21.68 22.024L20.976 20.584C21.1253 20.488 21.3067 20.3867 21.52 20.28C21.7333 20.1733 21.968 20.072 22.224 19.976C22.4907 19.88 22.7733 19.8053 23.072 19.752C23.3707 19.688 23.6853 19.656 24.016 19.656C24.6347 19.656 25.168 19.7307 25.616 19.88C26.064 20.0293 26.432 20.2427 26.72 20.52C27.0187 20.7867 27.2373 21.1067 27.376 21.48C27.5253 21.8427 27.6 22.2427 27.6 22.68C27.6 23.192 27.456 23.6507 27.168 24.056C26.8907 24.4613 26.528 24.7707 26.08 24.984C26.656 25.1867 27.1307 25.5227 27.504 25.992C27.888 26.4613 28.08 27.064 28.08 27.8C28.08 28.2907 27.9947 28.7493 27.824 29.176C27.6533 29.592 27.392 29.9547 27.04 30.264C26.688 30.5627 26.24 30.8027 25.696 30.984C25.1627 31.1547 24.5227 31.24 23.776 31.24Z" fill="#192033"/>
<defs>
<linearGradient id="paint0_linear_373_380" x1="25" y1="13" x2="25" y2="37" gradientUnits="userSpaceOnUse">
<stop stop-color="#D9D9D9"/>
<stop offset="0.0001" stop-color="#D5AAEF"/>
<stop offset="1" stop-color="#9A98EF"/>
</linearGradient>
</defs>
</svg>
